<?xml version="1.0" encoding="UTF-8"?>
<svg width="20px" height="20px" viewBox="0 0 20 20" version="1.1" xmlns="http://www.w3.org/2000/svg" xmlns:xlink="http://www.w3.org/1999/xlink">
    <!-- Generator: sketchtool 55 (78076) - https://sketchapp.com -->
    <title>D7B371E8-028F-47DA-8C42-C2891235C150</title>
    <desc>Created with sketchtool.</desc>
    <g id="Cents-Admin" stroke="none" stroke-width="1" fill="none" fill-rule="evenodd" stroke-linecap="round" stroke-linejoin="round">
        <g id="GLOBAL-VIEW-(Devices---Assign-Batch-to-Location)" transform="translate(-240.000000, -274.000000)" stroke="#000000" stroke-width="0.65">
            <g id="DEVICES-PANEL" transform="translate(208.000000, 168.000000)">
                <g id="Batch-1" transform="translate(0.000000, 96.000000)">
                    <g id="Icon_Batch_Devices-Panel" transform="translate(33.000000, 11.000000)">
                        <path d="M17.8079487,17.0344615 L17.8079487,1.938 C17.8079487,0.867692308 16.9402564,-1.03028697e-13 15.8699487,-1.03028697e-13 L13.0524871,-1.03028697e-13 C11.9821794,-1.03028697e-13 11.1144871,0.867692308 11.1144871,1.938 L11.1144871,1.94215385 L3.2877179,1.94215385 C2.52894867,1.94215385 1.91394867,2.55715385 1.91394867,3.31592308 L1.91394867,4.80761538 M2.89056405,18 L16.7607179,18 C17.4105641,18 17.9034871,17.4138462 17.7920256,16.7736923 L15.7317179,6.07061538 C15.6084871,5.36192308 14.9932564,4.84476923 14.2741794,4.84476923 L1.47987174,4.84476923 C0.561410205,4.84476923 -0.135282103,5.673 0.0223332816,6.57784615 L1.85902559,17.1325385 C1.94648713,17.634 2.38148713,18 2.89056405,18 Z"></path>
                    </g>
                </g>
            </g>
        </g>
    </g>
</svg>