<?xml version="1.0" encoding="UTF-8"?>
<svg width="30px" height="48px" viewBox="0 0 30 48" version="1.1" xmlns="http://www.w3.org/2000/svg" xmlns:xlink="http://www.w3.org/1999/xlink">
    <title>Icon_Dollar_Side Panel</title>
    <g id="Cents-Admin" stroke="none" stroke-width="1" fill="none" fill-rule="evenodd">
        <g id="MACHINES-(STATE-1:-Live-&amp;-Connected)-Copy-17" transform="translate(-576.000000, -324.000000)">
            <g id="SIDE-PANEL" transform="translate(546.500000, 200.000000)">
                <g id="Tab-/-Fixed-Tabs-/-Text-Labels-Only-/-Flat" transform="translate(27.500000, 50.000000)">
                    <g id="Insight" transform="translate(2.000000, 74.000000)">
                        <g id="Path" transform="translate(0.532258, 0.857143)">
                            <path d="M0.215379062,33.6870705 C0.215379062,39.1655776 6.7659624,43.5659675 14.8052702,43.5659675 C22.8442733,43.5659675 29.3951613,39.1651832 29.3951613,33.6870705 C29.3951613,28.2089579 22.8442733,23.8081736 14.8052702,23.8081736 L14.2269879,23.8081736 C6.55141217,23.8081736 0.362903226,19.6506506 0.362903226,14.5721338 C0.362903226,9.49344008 6.55168258,5.33609403 14.2269879,5.33609403 C21.9019842,5.33609403 28.0910726,9.49382693 28.0910726,14.5721338 C28.0910726,14.7496539 28.2535499,14.8935624 28.4539758,14.8935624 C28.6544017,14.8935624 28.816879,14.7496539 28.816879,14.5721338 C28.816879,9.09402117 22.265991,4.69323689 14.2269879,4.69323689 C6.18768011,4.69323689 -0.362903226,9.09362672 -0.362903226,14.5721338 C-0.362903226,20.0504488 6.1874011,24.4510307 14.2269879,24.4510307 L14.8052702,24.4510307 C22.4802665,24.4510307 28.6693548,28.6087636 28.6693548,33.6870705 C28.6693548,38.7653774 22.4802665,42.9231103 14.8052702,42.9231103 C7.12996486,42.9231103 0.941185513,38.7657643 0.941185513,33.6870705 C0.941185513,33.5095504 0.778708205,33.365642 0.578282287,33.365642 C0.37785637,33.365642 0.215379062,33.5095504 0.215379062,33.6870705 Z" fill="#000000" fill-rule="nonzero"></path>
                            <line x1="14.516129" y1="-7.61295788e-15" x2="14.516129" y2="46.5449186" stroke="#000000" stroke-width="0.75" stroke-linecap="round" stroke-linejoin="round"></line>
                        </g>
                    </g>
                </g>
            </g>
        </g>
    </g>
</svg>