<?xml version="1.0" encoding="UTF-8"?>
<svg width="92px" height="44px" viewBox="0 0 92 44" version="1.1" xmlns="http://www.w3.org/2000/svg" xmlns:xlink="http://www.w3.org/1999/xlink">
    <!-- Generator: sketchtool 55 (78076) - https://sketchapp.com -->
    <title>B1537916-2677-4FE8-A222-023DDDE194DB</title>
    <desc>Created with sketchtool.</desc>
    <g id="Cents-Admin" stroke="none" stroke-width="1" fill="none" fill-rule="evenodd">
        <g id="ADMIN_LOCATIONS_Details-Copy-29" transform="translate(-637.000000, -471.000000)">
            <g id="SIDE-PANEL" transform="translate(547.000000, 99.000000)">
                <g id="My-own-drivers" transform="translate(64.000000, 353.000000)">
                    <g id="Blue-Van" transform="translate(72.000000, 41.000000) scale(-1, 1) translate(-72.000000, -41.000000) translate(26.000000, 19.000000)">
                        <polygon id="Rectangle" fill="#0C4D75" fill-rule="nonzero" transform="translate(76.343544, 33.028454) rotate(-180.000000) translate(-76.343544, -33.028454) " points="67.3616887 27.3011207 85.3254 27.3011207 85.3254 38.7557873 67.3616887 38.7557873"></polygon>
                        <polygon id="Rectangle" fill="#0C4D75" fill-rule="nonzero" transform="translate(27.195722, 33.028454) rotate(-180.000000) translate(-27.195722, -33.028454) " points="18.213866 27.3011207 36.1775773 27.3011207 36.1775773 38.7557873 18.213866 38.7557873"></polygon>
                        <path d="M5.37295568,20.1229569 L12.8485787,16.4431649 L24.4393541,2.06686478 C25.4978074,0.758172363 27.0736212,0 28.7348708,0 L88.9433008,0 C90.6330289,0 92,1.39078752 92,3.10995542 L92,36.1556464 C92,37.7251114 90.7469432,39 89.2043543,39 L84.1494093,39 C84.20162,38.6233284 84.2300985,38.2321694 84.2300985,37.8410104 C84.2300985,33.3016345 80.613321,29.6170134 76.1469329,29.6170134 C71.6805448,29.6170134 68.0637672,33.2968053 68.0637672,37.8410104 C68.0637672,38.2369985 68.0922458,38.6233284 68.1444565,39 L35.2184904,39 C35.2707011,38.6233284 35.2991797,38.2321694 35.2991797,37.8410104 C35.2991797,33.3016345 31.6824021,29.6170134 27.216014,29.6170134 C22.749626,29.6170134 19.1328484,33.2968053 19.1328484,37.8410104 C19.1328484,38.2369985 19.1613269,38.6233284 19.2135376,39 L4.30026312,39 C1.92704948,39 0,37.0393759 0,34.6248143 L0,28.8346954 C0,25.1259287 2.088428,21.7407132 5.37295568,20.1229569 Z" id="Path" fill="#3790F4" fill-rule="nonzero"></path>
                        <ellipse id="Oval" fill="#3790F4" fill-rule="nonzero" cx="27.2043011" cy="37.5" rx="6.43010753" ry="6.5"></ellipse>
                        <ellipse id="Oval" fill="#1773C6" fill-rule="nonzero" cx="27.2043011" cy="37.5" rx="3.46236559" ry="3.5"></ellipse>
                        <ellipse id="Oval" fill="#3790F4" fill-rule="nonzero" cx="75.6774194" cy="37.5" rx="6.43010753" ry="6.5"></ellipse>
                        <ellipse id="Oval" fill="#1773C6" fill-rule="nonzero" cx="75.6774194" cy="37.5" rx="3.46236559" ry="3.5"></ellipse>
                        <path d="M90.2955826,30 L92,30 L92,22 L90.2955826,22 C89.5975422,22 89.0322581,22.6861598 89.0322581,23.5334633 L89.0322581,28.4717349 C89.0322581,29.3138402 89.5975422,30 90.2955826,30 Z" id="Path" fill="#FFFFFF" fill-rule="nonzero"></path>
                        <path d="M45.8409292,19 L86.718239,19 C87.4521054,19 88.0430108,18.4020927 88.0430108,17.6702541 L88.0430108,4.32974589 C88.0430108,3.59312407 87.44734,3 86.718239,3 L45.8409292,3 C45.1070628,3 44.5161574,3.59790732 44.5161574,4.32974589 L44.5161574,17.6702541 C44.5113921,18.4068759 45.1070628,19 45.8409292,19 Z" id="Path" stroke="#DCECFF" stroke-width="1.1261" stroke-linecap="round" stroke-linejoin="round"></path>
                        <path d="M17.3712574,18 L17.5981607,18.4074074 C18.1064242,19.3194444 17.6435414,20.4722222 16.654243,20.7592593 L8.90322581,23" id="Path" stroke="#DCECFF" stroke-width="1.1261" stroke-linecap="round" stroke-linejoin="round"></path>
                        <path d="M35.9800627,34 L41.5483871,34 L41.5483871,3 L30.9366981,3 C29.9242755,3 28.9680986,3.49327978 28.3681444,4.33137649 L23.7419355,10.7727483 L23.7419355,24.5941604 C23.7419355,24.5941604 33.181839,23.1813688 35.9800627,34 Z" id="Path" stroke="#DCECFF" stroke-width="1.1261" stroke-linecap="round" stroke-linejoin="round"></path>
                        <path d="M32.4844736,18 L38.7413738,18 C39.1986437,18 39.5698925,17.5845674 39.5698925,17.0728761 L39.5698925,5.92712393 C39.5698925,5.41543258 39.1986437,5 38.7413738,5 L32.4844736,5 C32.0272037,5 31.655955,5.41543258 31.655955,5.92712393 L31.655955,17.0728761 C31.6514275,17.5845674 32.0226763,18 32.4844736,18 Z" id="Path" fill="#A6C7E8" fill-rule="nonzero"></path>
                        <path d="M25.1390867,17 L26.8734814,17 C28.424801,17 29.6774194,15.8130297 29.6774194,14.3531926 L29.6774194,6.40367498 C29.6774194,6.0307571 29.1860075,5.8579415 28.9306661,6.13990379 L23.7419355,11.8018886 L23.7419355,15.6811441 C23.7419355,16.4087887 24.3682447,17 25.1390867,17 Z" id="Path" fill="#A6C7E8" fill-rule="nonzero"></path>
                        <path d="M39.5698925,20.5 L34.6236559,20.5" id="Path" stroke="#DCECFF" stroke-width="1.1261" stroke-linecap="round" stroke-linejoin="round"></path>
                        <path d="M24.4564619,21 L26.7096774,21 L26.7096774,12 L24.4564619,12 C23.5138415,12 22.7526882,12.7034161 22.7526882,13.5745342 L22.7526882,19.4254658 C22.7526882,20.2965839 23.5138415,21 24.4564619,21 Z" id="Path" fill="#105A91" fill-rule="nonzero"></path>
                        <path d="M25.3254559,13 L25.7204301,13 L25.7204301,21 L25.3254559,21 C24.9993304,21 24.7311828,20.6513433 24.7311828,20.2167164 L24.7311828,13.7832836 C24.7311828,13.3486567 24.9957068,13 25.3254559,13 Z" id="Path" fill="#FFFFFF" fill-rule="nonzero"></path>
                        <path d="M23.7419355,11 L19.7849462,16.7765104 C19.7849462,16.7765104 22.6290323,18.8538234 22.7114695,22" id="Path" stroke="#DCECFF" stroke-width="1.1261" stroke-linecap="round" stroke-linejoin="round"></path>
                        <path d="M17.0963232,15.0398537 L26.5973776,3.77952468 C26.8582098,3.47056673 26.6360194,3 26.2254502,3 L23.6026375,3 L12.8602151,16 L15.019326,16 C15.8211436,16 16.5843193,15.6482633 17.0963232,15.0398537 Z" id="Path" fill="#A6C7E8" fill-rule="nonzero"></path>
                        <g id="Group" transform="translate(0.000000, 32.000000)" fill="#105A91" fill-rule="nonzero">
                            <path d="M19.2014433,6.88 L4.29649485,6.88 C1.92536082,6.88 0,4.85 0,2.35 L0,0.005 L18.1581443,0.005 C19.0259794,0.005 19.851134,0.355 20.4771134,0.965 C19.6235052,2.315 19.125567,3.935 19.125567,5.685 C19.1208247,6.09 19.1492784,6.49 19.2014433,6.88 Z" id="Path"></path>
                            <path d="M68.008866,5.68 C68.008866,6.09 68.0373196,6.49 68.0894845,6.88 L35.1876289,6.88 C35.2397938,6.49 35.2682474,6.085 35.2682474,5.68 C35.2682474,5.14 35.2160825,4.61 35.1259794,4.095 L68.1463918,4.095 C68.0562887,4.61 68.008866,5.14 68.008866,5.68 Z" id="Path"></path>
                            <path d="M91.9193814,0.005 L91.9193814,3.935 C91.9193814,5.56 90.6674227,6.88 89.1261856,6.88 L84.0756701,6.88 C84.1278351,6.49 84.1562887,6.085 84.1562887,5.68 C84.1562887,3.715 83.525567,1.91 82.463299,0.47 C83.0323711,0.175 83.6725773,0.005 84.3459794,0.005 L91.9193814,0.005 L91.9193814,0.005 Z" id="Path"></path>
                        </g>
                        <path d="M7.91397849,25.8499713 L7.91397849,29.2028756 C7.91397849,29.641294 7.55146722,30 7.09705168,30 L0,30 L0,29.4669231 C0,28.530302 0.1378564,27.6086269 0.393146028,26.7367722 L6.8111273,25.0329189 C7.36765869,24.878476 7.91397849,25.2870023 7.91397849,25.8499713 Z" id="Path" fill="#FFFFFF" fill-rule="nonzero"></path>
                        <ellipse id="Oval" fill="#F2B283" fill-rule="nonzero" cx="2.96774194" cy="27" rx="1" ry="2"></ellipse>
                        <ellipse id="Oval" fill="#F7931E" fill-rule="nonzero" cx="1.48387097" cy="27.5" rx="1" ry="1.5"></ellipse>
                        <polygon id="Rectangle" fill="#F7931E" fill-rule="nonzero" transform="translate(90.277181, 27.382940) rotate(-180.000000) translate(-90.277181, -27.382940) " points="88.6339856 26.7734958 91.9203773 26.7734958 91.9203773 27.9923837 88.6339856 27.9923837"></polygon>
                    </g>
                </g>
            </g>
        </g>
    </g>
</svg>