<?xml version="1.0" encoding="UTF-8"?>
<svg width="37px" height="37px" viewBox="0 0 37 37" version="1.1" xmlns="http://www.w3.org/2000/svg" xmlns:xlink="http://www.w3.org/1999/xlink">
    <!-- Generator: sketchtool 55 (78076) - https://sketchapp.com -->
    <title>B373993D-40AF-40C7-BB53-5961EE066C49</title>
    <desc>Created with sketchtool.</desc>
    <g id="Cents-Admin" stroke="none" stroke-width="1" fill="none" fill-rule="evenodd" stroke-linecap="round" stroke-linejoin="round">
        <g id="MACHINES-(STATE-1:-Live-&amp;-Connected)" transform="translate(-13.000000, -663.000000)" stroke="#6BB1FF" stroke-width="1.5">
            <g id="LEFT-NAVIGATION" transform="translate(0.000000, 60.000000)">
                <g id="Bubbles" transform="translate(13.000000, 602.000000)">
                    <circle id="Oval" transform="translate(9.235383, 8.386876) rotate(-45.000000) translate(-9.235383, -8.386876) " cx="9.23538328" cy="8.38687619" r="5.79901756"></circle>
                    <circle id="Oval" transform="translate(5.405446, 22.295548) rotate(-70.086405) translate(-5.405446, -22.295548) " cx="5.40544636" cy="22.2955476" r="4.13601652"></circle>
                    <path d="M5.40746341,20.7684878 C4.56585366,20.7684878 3.88360976,21.4507317 3.88360976,22.2923415" id="Path"></path>
                    <path d="M8.50521951,5.19980488 C7.16180488,5.19980488 6.07302439,6.28858537 6.07302439,7.632" id="Path"></path>
                    <circle id="Oval" cx="29.6683902" cy="28.9637561" r="5.79907317"></circle>
                    <path d="M28.9347805,25.776439 C27.5913659,25.776439 26.5025854,26.8656585 26.5025854,28.2086341" id="Path"></path>
                    <path d="M30.2435122,23.0022439 C30.4674146,22.2760976 30.5881463,21.5047317 30.5881463,20.7048293 C30.5881463,16.4059024 27.1031707,12.9209268 22.8042439,12.9209268 C18.5053171,12.9209268 15.0203415,16.4059024 15.0203415,20.7048293 C15.0203415,25.0037561 18.5053171,28.4887317 22.8042439,28.4887317 C23.0729268,28.4887317 23.3385366,28.475122 23.6001951,28.4487805" id="Path"></path>
                    <path d="M22.8042439,15.3926341 C20.0647317,15.3926341 17.8437073,17.6136585 17.8437073,20.3531707" id="Path"></path>
                    <path d="M13.6949268,25.776439 L12.9226829,27.1883415 C12.1535122,28.5945366 10.997122,29.7509268 9.59092683,30.5200976 L8.17902439,31.2923415 L9.59092683,32.0645854 C10.997122,32.8337561 12.1535122,33.9901463 12.9226829,35.3963415 L13.6949268,36.8082439 L14.4671707,35.3963415 C15.2363415,33.9901463 16.3927317,32.8337561 17.7989268,32.0645854 L19.2108293,31.2923415 L17.7989268,30.5200976 C16.3927317,29.7509268 15.2363415,28.5945366 14.4671707,27.1883415 L13.6949268,25.776439 Z" id="Path"></path>
                    <path d="M20.7671707,3.03541463 L20.3483415,3.80063415 C19.9312683,4.56321951 19.3043415,5.18970732 18.5421951,5.60678049 L17.7769756,6.02517073 L18.5421951,6.444 C19.3047805,6.86107317 19.9312683,7.48756098 20.3483415,8.25014634 L20.7671707,9.01580488 L21.185561,8.25014634 C21.6026341,7.48756098 22.229561,6.86107317 22.9917073,6.444 L23.7573659,6.02517073 L22.9917073,5.60678049 C22.229561,5.18970732 21.6026341,4.56278049 21.185561,3.80063415 L20.7671707,3.03541463 Z" id="Path"></path>
                    <path d="M31.0416585,2.65917073 L30.4055122,3.82521951 C29.771561,4.98643902 28.8193171,5.94131707 27.6602927,6.57658537 L26.496878,7.2144878 L27.6602927,7.85239024 C28.818878,8.48765854 29.771561,9.44209756 30.4055122,10.6037561 L31.0416585,11.7698049 L31.6778049,10.6037561 C32.3117561,9.44253659 33.264439,8.48765854 34.4230244,7.85239024 L35.586439,7.2144878 L34.4230244,6.57658537 C33.264439,5.94131707 32.3117561,4.98687805 31.6778049,3.82521951 L31.0416585,2.65917073 Z" id="Path"></path>
                </g>
            </g>
        </g>
    </g>
</svg>