<?xml version="1.0" encoding="UTF-8"?>
<svg width="21px" height="20px" viewBox="0 0 21 20" version="1.1" xmlns="http://www.w3.org/2000/svg" xmlns:xlink="http://www.w3.org/1999/xlink">
    <!-- Generator: sketchtool 55 (78076) - https://sketchapp.com -->
    <title>D0897CAF-C717-4669-94AA-FCCFAD646B3A</title>
    <desc>Created with sketchtool.</desc>
    <g id="Cents-Admin" stroke="none" stroke-width="1" fill="none" fill-rule="evenodd">
        <g id="GLOBAL-VIEW-(Teams---Team-Member-Details_Default)" transform="translate(-778.000000, -372.000000)" stroke="#000000" stroke-width="0.65">
            <g id="SIDE-PANEL" transform="translate(546.000000, 167.000000)">
                <g id="Team-Member-Details" transform="translate(30.000000, 107.000000)">
                    <g id="Birthday---Date-Picker" transform="translate(203.000000, 98.000000)">
                        <g id="Icon_Birthday-Cake_Side-Panel" transform="translate(0.000000, 0.000000)">
                            <path d="M2,6.6666666 L17.047619,6.6666666 C18.1521885,6.6666666 19.047619,7.5620971 19.047619,8.6666666 L19.047619,17.0476189 C19.047619,18.1521884 18.1521885,19.0476189 17.047619,19.0476189 L2,19.0476189 C0.8954305,19.0476189 1.3527075e-16,18.1521884 0,17.0476189 L0,8.6666666 C-1.3527075e-16,7.5620971 0.8954305,6.6666666 2,6.6666666 Z M4.6436181,2.28179031 C4.31596862,2.28350895 3.98512423,2.15783283 3.85858879,1.90476194 C3.69101291,1.56961016 3.95268934,0.934689514 4.64361808,0 C5.30917585,0.934689514 5.56288966,1.56961016 5.40475952,1.90476194 C5.28696732,2.15441872 4.96684735,2.28009485 4.6436181,2.28179031 L4.6436181,6.42857137 L4.6436181,2.42313198 L4.6436181,2.28179031 Z M9.40552286,2.28179031 C9.07787338,2.28350895 8.747029,2.15783283 8.62049356,1.90476194 C8.45291767,1.56961016 8.7145941,0.934689514 9.40552284,0 C10.0710806,0.934689514 10.3247944,1.56961016 10.1666643,1.90476194 C10.0488721,2.15441872 9.72875211,2.28009485 9.40552286,2.28179031 L9.40552286,6.42857137 L9.40552286,2.42313198 L9.40552286,2.28179031 Z M14.1674276,2.28179031 C13.8397781,2.28350895 13.5089338,2.15783283 13.3823983,1.90476194 C13.2148224,1.56961016 13.4764989,0.934689514 14.1674276,0 C14.8329854,0.934689514 15.0866992,1.56961016 14.928569,1.90476194 C14.8107768,2.15441872 14.4906569,2.28009485 14.1674276,2.28179031 L14.1674276,6.42857137 L14.1674276,2.42313198 L14.1674276,2.28179031 Z M0,10.9523808 L19.3025562,10.9523808" id="Combined-Shape"></path>
                        </g>
                    </g>
                </g>
            </g>
        </g>
    </g>
</svg>