<?xml version="1.0" encoding="UTF-8"?>
<svg width="22px" height="22px" viewBox="0 0 22 22" version="1.1" xmlns="http://www.w3.org/2000/svg" xmlns:xlink="http://www.w3.org/1999/xlink">
    <!-- Generator: sketchtool 55 (78076) - https://sketchapp.com -->
    <title>278514BB-E1EC-46F3-B3AB-8E7ECC600575</title>
    <desc>Created with sketchtool.</desc>
    <g id="Cents-Admin" stroke="none" stroke-width="1" fill="none" fill-rule="evenodd" stroke-linecap="round" stroke-linejoin="round">
        <g id="GLOBAL-VIEW-(Devices---Assign-Batch-to-Location)-Copy-2" transform="translate(-575.000000, -532.000000)" stroke="#000000" stroke-width="0.65">
            <g id="SIDE-PANEL" transform="translate(546.000000, 168.000000)">
                <g id="Apply-task-to-checklist-for:" transform="translate(30.000000, 315.000000)">
                    <g id="Day-Selector" transform="translate(0.000000, 48.000000)">
                        <g id="Icon_Calendar_Side-Panel" transform="translate(0.000000, 2.000000)">
                            <path d="M2.76658228,1.92683544 L17.0255696,1.92683544 L19.7468354,1.92683544 L19.7468354,19.7468354 L2.29150032e-13,19.7468354 L2.29150032e-13,1.92683544 L2.76658228,1.92683544 Z M3.94936709,5.84911392 L3.94936709,19.5962025 L3.94936709,5.84911392 Z M7.89873418,5.84911392 L7.89873418,19.5962025 L7.89873418,5.84911392 Z M11.8481013,5.84911392 L11.8481013,19.5962025 L11.8481013,5.84911392 Z M15.7974684,5.84911392 L15.7974684,19.5962025 L15.7974684,5.84911392 Z M0.064556962,5.74177215 L19.655443,5.74177215 M0.064556962,9.20582278 L19.655443,9.20582278 M0.064556962,12.7227848 L19.655443,12.7227848 M0.064556962,16.2397468 L19.655443,16.2397468 M14.5939241,1.92683544 L5.1278481,1.92683544 L14.5939241,1.92683544 Z M14.6731646,2.93098879e-13 L16.9217722,2.93098879e-13 L16.9217722,3.5635443 L14.6731646,3.5635443 L14.6731646,2.93098879e-13 Z M2.82506329,2.93098879e-13 L5.07367089,2.93098879e-13 L5.07367089,3.5635443 L2.82506329,3.5635443 L2.82506329,2.93098879e-13 Z"></path>
                        </g>
                    </g>
                </g>
            </g>
        </g>
    </g>
</svg>