<svg width="20" height="21" viewBox="0 0 20 21" fill="none" xmlns="http://www.w3.org/2000/svg">
<path fill-rule="evenodd" clip-rule="evenodd" d="M3.3563 5.97572H3.38185C4.66631 5.97572 5.70751 4.93452 5.70751 3.65005V3.63786C5.70751 2.35339 4.66631 1.31219 3.38185 1.31219H3.3563C2.07184 1.31219 1.03064 2.35339 1.03064 3.63786V3.65005C1.03064 4.93452 2.07184 5.97572 3.3563 5.97572Z" stroke="#212121" stroke-width="0.65" stroke-linecap="round" stroke-linejoin="round"/>
<path fill-rule="evenodd" clip-rule="evenodd" d="M9.99382 5.97572H10.0194C11.3038 5.97572 12.345 4.93452 12.345 3.65005V3.63786C12.345 2.35339 11.3038 1.31219 10.0194 1.31219H9.99382C8.70935 1.31219 7.66815 2.35339 7.66815 3.63786V3.65005C7.66815 4.93452 8.70935 5.97572 9.99382 5.97572Z" stroke="#212121" stroke-width="0.65" stroke-linecap="round" stroke-linejoin="round"/>
<path fill-rule="evenodd" clip-rule="evenodd" d="M16.6311 5.97572H16.6566C17.9411 5.97572 18.9823 4.93452 18.9823 3.65005V3.63786C18.9823 2.35339 17.9411 1.31219 16.6566 1.31219H16.6311C15.3466 1.31219 14.3054 2.35339 14.3054 3.63786V3.65005C14.3054 4.93452 15.3466 5.97572 16.6311 5.97572Z" stroke="#212121" stroke-width="0.65" stroke-linecap="round" stroke-linejoin="round"/>
<path fill-rule="evenodd" clip-rule="evenodd" d="M3.3563 12.6199H3.38185C4.66631 12.6199 5.70751 11.5787 5.70751 10.2942V10.282C5.70751 8.99758 4.66631 7.95638 3.38185 7.95638H3.3563C2.07184 7.95638 1.03064 8.99758 1.03064 10.282V10.2942C1.03064 11.5785 2.07184 12.6199 3.3563 12.6199Z" stroke="#212121" stroke-width="0.65" stroke-linecap="round" stroke-linejoin="round"/>
<path fill-rule="evenodd" clip-rule="evenodd" d="M9.99382 12.6199H10.0194C11.3038 12.6199 12.345 11.5787 12.345 10.2942V10.282C12.345 8.99758 11.3038 7.95638 10.0194 7.95638H9.99382C8.70935 7.95638 7.66815 8.99758 7.66815 10.282V10.2942C7.66815 11.5785 8.70935 12.6199 9.99382 12.6199Z" stroke="#212121" stroke-width="0.65" stroke-linecap="round" stroke-linejoin="round"/>
<path fill-rule="evenodd" clip-rule="evenodd" d="M16.6311 12.6199H16.6566C17.9411 12.6199 18.9823 11.5787 18.9823 10.2942V10.282C18.9823 8.99758 17.9411 7.95638 16.6566 7.95638H16.6311C15.3466 7.95638 14.3054 8.99758 14.3054 10.282V10.2942C14.3054 11.5785 15.3466 12.6199 16.6311 12.6199Z" stroke="#212121" stroke-width="0.65" stroke-linecap="round" stroke-linejoin="round"/>
<path fill-rule="evenodd" clip-rule="evenodd" d="M3.3563 19.2639H3.38185C4.66631 19.2639 5.70751 18.2227 5.70751 16.9382V16.926C5.70751 15.6415 4.66631 14.6003 3.38185 14.6003H3.3563C2.07184 14.6003 1.03064 15.6415 1.03064 16.926V16.9382C1.03064 18.2227 2.07184 19.2639 3.3563 19.2639Z" stroke="#212121" stroke-width="0.65" stroke-linecap="round" stroke-linejoin="round"/>
<path fill-rule="evenodd" clip-rule="evenodd" d="M9.99382 19.2639H10.0194C11.3038 19.2639 12.345 18.2227 12.345 16.9382V16.926C12.345 15.6415 11.3038 14.6003 10.0194 14.6003H9.99382C8.70935 14.6003 7.66815 15.6415 7.66815 16.926V16.9382C7.66815 18.2227 8.70935 19.2639 9.99382 19.2639Z" stroke="#212121" stroke-width="0.65" stroke-linecap="round" stroke-linejoin="round"/>
<path fill-rule="evenodd" clip-rule="evenodd" d="M16.6311 19.2639H16.6566C17.9411 19.2639 18.9823 18.2227 18.9823 16.9382V16.926C18.9823 15.6415 17.9411 14.6003 16.6566 14.6003H16.6311C15.3466 14.6003 14.3054 15.6415 14.3054 16.926V16.9382C14.3054 18.2227 15.3466 19.2639 16.6311 19.2639Z" stroke="#212121" stroke-width="0.65" stroke-linecap="round" stroke-linejoin="round"/>
</svg>
