<?xml version="1.0" encoding="UTF-8"?>
<svg width="22px" height="22px" viewBox="0 0 22 22" version="1.1" xmlns="http://www.w3.org/2000/svg" xmlns:xlink="http://www.w3.org/1999/xlink">
    <!-- Generator: sketchtool 55 (78076) - https://sketchapp.com -->
    <title>D2233CC6-4C86-4EA5-A026-1AB55765AE2D</title>
    <desc>Created with sketchtool.</desc>
    <g id="Cents-Admin" stroke="none" stroke-width="1" fill="none" fill-rule="evenodd" stroke-linecap="round" stroke-linejoin="round">
        <g id="GLOBAL-VIEW-(Locations)" transform="translate(-771.000000, -277.000000)" stroke="#000000" stroke-width="0.65">
            <g id="SIDE-PANEL" transform="translate(546.000000, 168.000000)">
                <g id="Location-Info" transform="translate(30.000000, 110.000000)">
                    <g id="Icon_Clock_Side-Panel" transform="translate(196.000000, 0.000000)">
                        <g>
                            <path d="M9.87341772,19.76 C4.42047969,19.76 1.77635684e-15,15.3365733 1.77635684e-15,9.88 C1.77635684e-15,4.42342667 4.42047969,-1.59872116e-14 9.87341772,-1.59872116e-14 C15.3263558,-1.59872116e-14 19.7468354,4.42342667 19.7468354,9.88 C19.7468354,15.3365733 15.3263558,19.76 9.87341772,19.76 Z M9.87341772,18.0468354 C14.3807604,18.0468354 18.0346835,14.3904187 18.0346835,9.88 C18.0346835,5.36958133 14.3807604,1.71316456 9.87341772,1.71316456 C5.36607507,1.71316456 1.7121519,5.36958133 1.7121519,9.88 C1.7121519,14.3904187 5.36607507,18.0468354 9.87341772,18.0468354 Z M9.89164557,4.43443038 L9.89164557,9.86658228 L15.1622785,9.86658228"></path>
                        </g>
                    </g>
                </g>
            </g>
        </g>
    </g>
</svg>