<?xml version="1.0" encoding="UTF-8"?>
<svg width="18px" height="18px" viewBox="0 0 18 18" version="1.1" xmlns="http://www.w3.org/2000/svg" xmlns:xlink="http://www.w3.org/1999/xlink">
    <!-- Generator: sketchtool 55 (78076) - https://sketchapp.com -->
    <title>B8E4D387-E4FC-4E05-A1DD-FD0D53FD588C</title>
    <desc>Created with sketchtool.</desc>
    <g id="Cents-Admin" stroke="none" stroke-width="1" fill="none" fill-rule="evenodd">
        <g id="CUSTOMERS-(Registered-Customer-Selected)" transform="translate(-479.000000, -324.000000)" stroke="#3790F4">
            <g id="CUSTOMERS" transform="translate(76.000000, 200.000000)">
                <g id="Customers-List" transform="translate(2.000000, 120.000000)">
                    <g id="Line-1---Registered-Customer" transform="translate(31.000000, 0.000000)">
                        <g id="Icon_Registered-Customer_Customers-List" transform="translate(371.000000, 5.000000)">
                            <path d="M15.7192982,14.4816842 L9.69880702,11.1935439 C9.69852632,11.1935439 9.69824561,11.1932632 9.69796491,11.1929825 C9.6957193,11.1918596 9.69431579,11.1893333 9.69207018,11.1879298 C9.65445614,11.1660351 9.62554386,11.1357193 9.60280702,11.1014737 C9.6,11.0972632 9.59494737,11.0955789 9.59242105,11.0913684 C9.58652632,11.0812632 9.58596491,11.0700351 9.58119298,11.0596491 C9.57333333,11.0416842 9.56603509,11.0245614 9.56210526,11.005193 C9.55817544,10.9875088 9.55733333,10.9706667 9.55705263,10.9529825 C9.55677193,10.9350175 9.55677193,10.917614 9.55985965,10.8996491 C9.56322807,10.8805614 9.56968421,10.8631579 9.57670175,10.845193 C9.58119298,10.8345263 9.58119298,10.8232982 9.58680702,10.8126316 C9.58989474,10.8072982 9.59522807,10.8039298 9.59859649,10.7988772 C9.60870175,10.7831579 9.62133333,10.7699649 9.63424561,10.7564912 C9.6477193,10.7424561 9.66063158,10.7289825 9.67635088,10.7183158 C9.68140351,10.7149474 9.68421053,10.709614 9.68954386,10.7065263 C11.7608421,9.46947368 11.7894737,6.16308772 11.7894737,6.12968421 L11.7872281,2.94933333 C11.4840702,1.21852632 9.49782456,0.0117894737 7.88350877,2.25597319e-13 C7.87564912,0.000842105263 7.86750877,0.00112280702 7.85964912,0.00112280702 C6.2405614,0.00112280702 4.23691228,1.21094737 3.93319298,2.94989474 L3.92982456,6.13136842 C3.92982456,6.16308772 3.95873684,9.38021053 6.04575439,10.7107368 C6.04996491,10.7135439 6.05221053,10.7180351 6.05642105,10.7208421 C6.07129825,10.7315088 6.08280702,10.7452632 6.0954386,10.7584561 C6.10863158,10.7727719 6.12210526,10.7859649 6.13192982,10.8019649 C6.13445614,10.8061754 6.13866667,10.8087018 6.14119298,10.8129123 C6.14736842,10.8244211 6.14764912,10.8367719 6.15214035,10.8488421 C6.15915789,10.866807 6.16617544,10.8842105 6.16926316,10.9032982 C6.17207018,10.9218246 6.17122807,10.9395088 6.17038596,10.9580351 C6.16982456,10.9754386 6.16954386,10.992 6.16561404,11.0091228 C6.16112281,11.0287719 6.15298246,11.0464561 6.1442807,11.0647018 C6.13922807,11.0756491 6.13810526,11.0877193 6.13136842,11.098386 C6.1285614,11.1023158 6.12435088,11.1045614 6.12154386,11.1084912 C6.11087719,11.1233684 6.09712281,11.1354386 6.08336842,11.1483509 C6.06905263,11.1615439 6.05585965,11.1750175 6.03957895,11.1848421 C6.03564912,11.1873684 6.03340351,11.1915789 6.02891228,11.1938246 L2.26485497e-13,14.4830877 L2.26485497e-13,15.4385965 C2.26485497e-13,15.5932632 0.117614035,15.7192982 0.262175439,15.7192982 L15.4571228,15.7192982 C15.6016842,15.7192982 15.7192982,15.5932632 15.7192982,15.4385965 L15.7192982,14.4816842 Z" id="Icon_Customer_Account-Settings"></path>
                        </g>
                    </g>
                </g>
            </g>
        </g>
    </g>
</svg>