<?xml version="1.0" encoding="UTF-8"?>
<svg width="20px" height="20px" viewBox="0 0 20 20" version="1.1" xmlns="http://www.w3.org/2000/svg" xmlns:xlink="http://www.w3.org/1999/xlink">
    <!-- Generator: sketchtool 55 (78076) - https://sketchapp.com -->
    <title>BBA074EA-39C0-4E05-91E3-1824BAD41BDD</title>
    <desc>Created with sketchtool.</desc>
    <g id="Cents-Admin" stroke="none" stroke-width="1" fill="none" fill-rule="evenodd">
        <g id="MACHINES-(Set-Up-Machine)" transform="translate(-21.000000, -170.000000)" stroke="#FFFFFF">
            <g id="LEFT-NAVIGATION" transform="translate(-1.000000, 60.000000)">
                <g id="Icons---vertical-nav" transform="translate(14.000000, 42.000000)">
                    <g id="Icon_Customer_Left-Navigation" transform="translate(8.666667, 68.666667)">
                        <path d="M18.6666667,17.197 L11.5173333,13.2923333 C11.517,13.2923333 11.5166667,13.292 11.5163333,13.2916667 C11.5136667,13.2903333 11.512,13.2873333 11.5093333,13.2856667 C11.4646667,13.2596667 11.4303333,13.2236667 11.4033333,13.183 C11.4,13.178 11.394,13.176 11.391,13.171 C11.384,13.159 11.3833333,13.1456667 11.3776667,13.1333333 C11.3683333,13.112 11.3596667,13.0916667 11.355,13.0686667 C11.3503333,13.0476667 11.3493333,13.0276667 11.349,13.0066667 C11.3486667,12.9853333 11.3486667,12.9646667 11.3523333,12.9433333 C11.3563333,12.9206667 11.364,12.9 11.3723333,12.8786667 C11.3776667,12.866 11.3776667,12.8526667 11.3843333,12.84 C11.388,12.8336667 11.3943333,12.8296667 11.3983333,12.8236667 C11.4103333,12.805 11.4253333,12.7893333 11.4406667,12.7733333 C11.4566667,12.7566667 11.472,12.7406667 11.4906667,12.728 C11.4966667,12.724 11.5,12.7176667 11.5063333,12.714 C13.966,11.245 14,7.31866667 14,7.279 L13.9973333,3.50233333 C13.6373333,1.447 11.2786667,0.014 9.36166667,-1.59872116e-14 C9.35233333,0.001 9.34266667,0.00133333333 9.33333333,0.00133333333 C7.41066667,0.00133333333 5.03133333,1.438 4.67066667,3.503 L4.66666667,7.281 C4.66666667,7.31866667 4.701,11.139 7.17933333,12.719 C7.18433333,12.7223333 7.187,12.7276667 7.192,12.731 C7.20966667,12.7436667 7.22333333,12.76 7.23833333,12.7756667 C7.254,12.7926667 7.27,12.8083333 7.28166667,12.8273333 C7.28466667,12.8323333 7.28966667,12.8353333 7.29266667,12.8403333 C7.3,12.854 7.30033333,12.8686667 7.30566667,12.883 C7.314,12.9043333 7.32233333,12.925 7.326,12.9476667 C7.32933333,12.9696667 7.32833333,12.9906667 7.32733333,13.0126667 C7.32666667,13.0333333 7.32633333,13.053 7.32166667,13.0733333 C7.31633333,13.0966667 7.30666667,13.1176667 7.29633333,13.1393333 C7.29033333,13.1523333 7.289,13.1666667 7.281,13.1793333 C7.27766667,13.184 7.27266667,13.1866667 7.26933333,13.1913333 C7.25666667,13.209 7.24033333,13.2233333 7.224,13.2386667 C7.207,13.2543333 7.19133333,13.2703333 7.172,13.282 C7.16733333,13.285 7.16466667,13.29 7.15933333,13.2926667 L-7.28306304e-14,17.1986667 L-7.28306304e-14,18.3333333 C-7.28306304e-14,18.517 0.139666667,18.6666667 0.311333333,18.6666667 L18.3553333,18.6666667 C18.527,18.6666667 18.6666667,18.517 18.6666667,18.3333333 L18.6666667,17.197 Z"></path>
                    </g>
                </g>
            </g>
        </g>
    </g>
</svg>