<svg width="20" height="20" viewBox="0 0 20 20" fill="none" xmlns="http://www.w3.org/2000/svg">
<path d="M19.1277 10.0004C19.1277 9.82094 18.9822 9.67543 18.8027 9.67543C18.6232 9.67543 18.4777 9.82094 18.4777 10.0004H19.1277ZM9.63937 1.16191C9.81886 1.16191 9.96437 1.01641 9.96437 0.836914C9.96437 0.657422 9.81886 0.511914 9.63937 0.511914V1.16191ZM19.2939 10.653C19.4208 10.7799 19.6266 10.7799 19.7535 10.653C19.8804 10.5261 19.8804 10.3203 19.7535 10.1934L19.2939 10.653ZM18.8027 9.70219L19.0325 9.47238C18.9715 9.41143 18.8889 9.37719 18.8027 9.37719C18.7165 9.37719 18.6338 9.41143 18.5729 9.47238L18.8027 9.70219ZM17.8518 10.1934C17.7249 10.3203 17.7249 10.5261 17.8518 10.653C17.9788 10.7799 18.1845 10.7799 18.3115 10.653L17.8518 10.1934ZM9.95858 6.33142C9.95858 6.15193 9.81308 6.00642 9.63358 6.00642C9.45409 6.00642 9.30858 6.15193 9.30858 6.33142H9.95858ZM9.63358 9.99442H9.30858V10.3194H9.63358V9.99442ZM13.2966 10.3194C13.4761 10.3194 13.6216 10.1739 13.6216 9.99442C13.6216 9.81493 13.4761 9.66942 13.2966 9.66942V10.3194ZM18.4777 10.0004C18.4777 14.8817 14.5206 18.8387 9.63937 18.8387V19.4887C14.8796 19.4887 19.1277 15.2407 19.1277 10.0004H18.4777ZM9.63937 18.8387C4.75813 18.8387 0.801074 14.8817 0.801074 10.0004H0.151074C0.151074 15.2407 4.39915 19.4887 9.63937 19.4887V18.8387ZM0.801074 10.0004C0.801074 5.11921 4.75814 1.16191 9.63937 1.16191V0.511914C4.39914 0.511914 0.151074 4.76025 0.151074 10.0004H0.801074ZM19.7535 10.1934L19.0325 9.47238L18.5729 9.932L19.2939 10.653L19.7535 10.1934ZM18.5729 9.47238L17.8518 10.1934L18.3115 10.653L19.0325 9.932L18.5729 9.47238ZM15.5357 9.99442C15.5357 13.2541 12.8932 15.8965 9.63358 15.8965V16.5465C13.2522 16.5465 16.1857 13.6131 16.1857 9.99442H15.5357ZM9.63358 15.8965C6.37394 15.8965 3.73148 13.2541 3.73148 9.99442H3.08148C3.08148 13.6131 6.01496 16.5465 9.63358 16.5465V15.8965ZM3.73148 9.99442C3.73148 6.73478 6.37394 4.09232 9.63358 4.09232V3.44232C6.01496 3.44232 3.08148 6.3758 3.08148 9.99442H3.73148ZM9.63358 4.09232C12.8932 4.09232 15.5357 6.73478 15.5357 9.99442H16.1857C16.1857 6.3758 13.2522 3.44232 9.63358 3.44232V4.09232ZM14.4368 9.99442C14.4368 12.6472 12.2863 14.7976 9.63358 14.7976V15.4476C12.6453 15.4476 15.0868 13.0061 15.0868 9.99442H14.4368ZM9.63358 14.7976C6.98085 14.7976 4.83038 12.6472 4.83038 9.99442H4.18038C4.18038 13.0061 6.62186 15.4476 9.63358 15.4476V14.7976ZM4.83038 9.99442C4.83038 7.34169 6.98085 5.19122 9.63358 5.19122V4.54122C6.62186 4.54122 4.18038 6.9827 4.18038 9.99442H4.83038ZM9.63358 5.19122C12.2863 5.19122 14.4368 7.34169 14.4368 9.99442H15.0868C15.0868 6.9827 12.6453 4.54122 9.63358 4.54122V5.19122ZM9.30858 6.33142V9.99442H9.95858V6.33142H9.30858ZM9.63358 10.3194L13.2966 10.3194V9.66942L9.63358 9.66942V10.3194Z" fill="#212121"/>
</svg>
