<?xml version="1.0" encoding="UTF-8"?>
<svg width="32px" height="56px" viewBox="0 0 32 56" version="1.1" xmlns="http://www.w3.org/2000/svg" xmlns:xlink="http://www.w3.org/1999/xlink">
    <!-- Generator: sketchtool 55 (78076) - https://sketchapp.com -->
    <title>59F1B315-8D69-4568-B08C-A274AB83D443</title>
    <desc>Created with sketchtool.</desc>
    <g id="Cents-Admin" stroke="none" stroke-width="1" fill="none" fill-rule="evenodd">
        <g id="GLOBAL-VIEW-(Locations)" transform="translate(-838.000000, -376.000000)">
            <g id="SIDE-PANEL" transform="translate(546.000000, 168.000000)">
                <g id="Insight" transform="translate(30.000000, 200.500000)">
                    <g id="Icon_Dollar_Side-Panel" transform="translate(263.000000, 8.000000)">
                        <g id="Path">
                            <path d="M0.222558364,39.3015823 C0.222558364,45.6931739 6.99149448,50.826962 15.2987792,50.826962 C23.6057491,50.826962 30.375,45.6927137 30.375,39.3015823 C30.375,32.9104509 23.6057491,27.7762025 15.2987792,27.7762025 L14.7012208,27.7762025 C6.76979258,27.7762025 0.375,22.925759 0.375,17.0008228 C0.375,11.0756801 6.770072,6.22544304 14.7012208,6.22544304 C22.6320504,6.22544304 29.0274416,11.0761314 29.0274416,17.0008228 C29.0274416,17.2079296 29.1953349,17.3758228 29.4024416,17.3758228 C29.6095484,17.3758228 29.7774416,17.2079296 29.7774416,17.0008228 C29.7774416,10.6096914 23.0081907,5.47544304 14.7012208,5.47544304 C6.39393612,5.47544304 -0.375,10.6092312 -0.375,17.0008228 C-0.375,23.3921902 6.3936478,28.5262025 14.7012208,28.5262025 L15.2987792,28.5262025 C23.2296088,28.5262025 29.625,33.3768909 29.625,39.3015823 C29.625,45.2262736 23.2296088,50.076962 15.2987792,50.076962 C7.36763036,50.076962 0.972558364,45.226725 0.972558364,39.3015823 C0.972558364,39.0944755 0.804665145,38.9265823 0.597558364,38.9265823 C0.390451582,38.9265823 0.222558364,39.0944755 0.222558364,39.3015823 Z" fill="#000000" fill-rule="nonzero"></path>
                            <path d="M15,-8.8817842e-15 L15,54.3024051" stroke="#000000" stroke-width="0.75" stroke-linecap="round" stroke-linejoin="round"></path>
                        </g>
                    </g>
                </g>
            </g>
        </g>
    </g>
</svg>