<?xml version="1.0" encoding="UTF-8"?>
<svg width="17px" height="20px" viewBox="0 0 17 20" version="1.1" xmlns="http://www.w3.org/2000/svg" xmlns:xlink="http://www.w3.org/1999/xlink">
    <!-- Generator: sketchtool 55 (78076) - https://sketchapp.com -->
    <title>1AAA5DF1-87B3-440A-B7B1-BA5E37CD6E3A</title>
    <desc>Created with sketchtool.</desc>
    <g id="Cents-Admin" stroke="none" stroke-width="1" fill="none" fill-rule="evenodd">
        <g id="MACHINES-(STATE-1:-Live-&amp;-Connected----Multi-Price-Machine)" transform="translate(-574.000000, -279.000000)" fill="#000000" fill-rule="nonzero">
            <g id="SIDE-PANEL" transform="translate(546.000000, 200.000000)">
                <g id="Machine-Details" transform="translate(28.000000, 75.000000)">
                    <g id="Icon_Number_Side-Panel" transform="translate(0.916016, 4.093750)">
                        <path d="M9.1328125,14.3007812 L4.85351562,14.3007812 L3.80078125,19.90625 L2.43359375,19.90625 L3.48632812,14.3007812 L0,14.3007812 L0,13.0292969 L3.71875,13.0292969 L4.85351562,7 L1.0390625,7 L1.0390625,5.6875 L5.09960938,5.6875 L6.1796875,0 L7.546875,0 L6.46679688,5.6875 L10.7597656,5.6875 L11.8398438,0 L13.2070312,0 L12.1269531,5.6875 L15.2578125,5.6875 L15.2578125,7 L11.8808594,7 L10.7460938,13.0292969 L14.2324219,13.0292969 L14.2324219,14.3007812 L10.5,14.3007812 L9.44726562,19.90625 L8.08007812,19.90625 L9.1328125,14.3007812 Z M5.0859375,13.0292969 L9.37890625,13.0292969 L10.5136719,7 L6.22070312,7 L5.0859375,13.0292969 Z"></path>
                    </g>
                </g>
            </g>
        </g>
    </g>
</svg>