<svg width="20" height="20" viewBox="0 0 20 20" fill="none" xmlns="http://www.w3.org/2000/svg">
<path d="M9.99764 9.74769L9.99763 9.74768L9.99624 9.74924C9.76036 10.0121 9.58676 10.2935 9.48218 10.5939C9.37912 10.89 9.33019 11.2222 9.33019 11.5869V12.1923C9.33019 12.428 9.52126 12.6191 9.75695 12.6191C9.99265 12.6191 10.1837 12.428 10.1837 12.1923V11.5869C10.1837 11.3057 10.2199 11.0719 10.286 10.8808L10.2864 10.8796C10.3503 10.6917 10.4655 10.5037 10.641 10.3162C10.8255 10.1192 11.0866 9.89471 11.4294 9.64286C11.8387 9.34281 12.1722 9.05686 12.4257 8.78471C12.6814 8.51013 12.8721 8.22344 12.9891 7.92376C13.1083 7.62398 13.1667 7.30202 13.1667 6.96043C13.1667 6.37959 13.0296 5.85513 12.7493 5.39478C12.4726 4.93661 12.0966 4.57485 11.625 4.31193C11.1532 4.04682 10.6243 3.91669 10.0442 3.91669C9.43988 3.91669 8.88909 4.05904 8.39828 4.34795L8.39828 4.34795L8.39751 4.34841C7.91417 4.63529 7.53164 5.02647 7.25257 5.51843C7.00076 5.96234 6.8635 6.45614 6.83779 6.99528C6.82597 7.24327 7.02776 7.43393 7.26011 7.43393C7.49917 7.43393 7.67933 7.24204 7.69119 7.02059C7.71264 6.62025 7.81377 6.26461 7.99146 5.94923C8.19869 5.58423 8.47722 5.29968 8.82917 5.09146L8.82917 5.09146L8.82979 5.09109C9.18163 4.88155 9.58412 4.77429 10.0442 4.77429C10.4813 4.77429 10.8664 4.86987 11.2053 5.05625L11.2062 5.05673C11.5506 5.24432 11.8196 5.50182 12.0172 5.83174L12.0178 5.8327C12.2126 6.15456 12.3131 6.52789 12.3131 6.96043C12.3131 7.1994 12.2723 7.41967 12.1923 7.62344L12.1923 7.62343L12.1916 7.62538C12.1176 7.81867 11.9855 8.02264 11.7845 8.23628L11.7844 8.23636C11.586 8.44738 11.3056 8.68434 10.9378 8.94698C10.5496 9.2215 10.2345 9.48817 9.99764 9.74769ZM9.29745 15.8918C9.42198 16.0177 9.58 16.0834 9.75695 16.0834C9.8721 16.0834 9.98246 16.0543 10.0817 15.9936C10.1804 15.939 10.2608 15.8611 10.3168 15.7614C10.3754 15.6598 10.4047 15.5481 10.4047 15.4311C10.4047 15.2547 10.3409 15.0962 10.2165 14.9703C10.0919 14.8444 9.9339 14.7788 9.75695 14.7788C9.58 14.7788 9.42198 14.8444 9.29745 14.9703C9.17303 15.0962 9.10923 15.2547 9.10923 15.4311C9.10923 15.6074 9.17303 15.7659 9.29745 15.8918Z" fill="#797EF6" stroke="#797EF6" stroke-width="0.5"/>
<circle cx="10" cy="10" r="9.25" stroke="#797EF6" stroke-width="1.5"/>
</svg>
