<svg width="22" height="22" viewBox="0 0 22 22" fill="none" xmlns="http://www.w3.org/2000/svg">
<path fill-rule="evenodd" clip-rule="evenodd" d="M9.00555 9.82935C8.34708 10.9356 8.71004 12.3661 9.81626 13.0246C10.9225 13.6831 12.353 13.3201 13.0115 12.2139C13.67 11.1077 13.307 9.67713 12.2008 9.01865C11.0946 8.36017 9.66403 8.72314 9.00555 9.82935ZM9.5392 13.4901C8.17592 12.6786 7.72862 10.9156 8.54011 9.55229C9.3516 8.18902 11.1146 7.74171 12.4779 8.5532C13.8411 9.36469 14.2885 11.1277 13.477 12.491C12.6655 13.8542 10.9025 14.3015 9.5392 13.4901Z" fill="#3790F4"/>
<path fill-rule="evenodd" clip-rule="evenodd" d="M10.4112 6.98663C8.19115 7.30055 6.64588 9.35488 6.95983 11.5751C7.27377 13.7954 9.32803 15.3407 11.5481 15.0268C13.7682 14.7129 15.3135 12.6586 14.9995 10.4383C14.6856 8.21807 12.6313 6.67271 10.4112 6.98663ZM6.42349 11.651C6.06767 9.13454 7.81907 6.80611 10.3354 6.4503C12.8517 6.09449 15.18 7.84605 15.5358 10.3625C15.8917 12.8789 14.1403 15.2073 11.6239 15.5632C9.10763 15.919 6.77932 14.1674 6.42349 11.651Z" fill="#3790F4"/>
<path fill-rule="evenodd" clip-rule="evenodd" d="M12.9702 0.914887C12.908 0.959981 12.8678 1.02938 12.8598 1.10579C12.7607 2.04574 11.9657 2.77828 10.9997 2.77828C10.0338 2.77828 9.23855 2.0457 9.13972 1.10585C9.13169 1.02943 9.09156 0.960013 9.02934 0.914906C8.96713 0.869799 8.88867 0.853247 8.81354 0.869375C7.57052 1.13618 6.41146 1.62634 5.37804 2.29432C5.31353 2.33602 5.26976 2.40315 5.25763 2.479C5.24549 2.55484 5.26614 2.63228 5.31442 2.69202C5.90808 3.42651 5.86362 4.50577 5.18089 5.18849C4.49817 5.87122 3.41891 5.91568 2.68442 5.32202C2.62468 5.27374 2.54724 5.25309 2.4714 5.26522C2.39555 5.27736 2.32842 5.32113 2.28672 5.38564C1.61874 6.41906 1.12858 7.57812 0.861776 8.82114C0.845648 8.89627 0.862201 8.97473 0.907306 9.03694C0.952414 9.09916 1.02183 9.13929 1.09826 9.14732C2.0381 9.24615 2.77068 10.0414 2.77068 11.0073C2.77068 11.9733 2.0381 12.7685 1.09826 12.8674C1.02183 12.8754 0.952414 12.9155 0.907306 12.9777C0.862201 13.04 0.845648 13.1184 0.861776 13.1935C1.12858 14.4366 1.61874 15.5956 2.28672 16.629C2.32842 16.6936 2.39555 16.7373 2.4714 16.7495C2.54724 16.7616 2.62468 16.7409 2.68442 16.6927C3.41893 16.099 4.49842 16.1435 5.18086 16.8262C5.86359 17.5089 5.90808 18.5882 5.31442 19.3227C5.26614 19.3824 5.24549 19.4598 5.25763 19.5357C5.26976 19.6115 5.31353 19.6787 5.37804 19.7204C6.41146 20.3884 7.57052 20.8785 8.81354 21.1453C8.88866 21.1614 8.9671 21.1449 9.02932 21.0998C9.09153 21.0547 9.13166 20.9853 9.13972 20.9089C9.23878 19.9689 10.0338 19.2364 10.9997 19.2364C11.9657 19.2364 12.7609 19.969 12.8598 20.9088C12.8678 20.9853 12.9079 21.0547 12.9701 21.0998C13.0324 21.1449 13.1108 21.1614 13.1859 21.1453C14.429 20.8785 15.588 20.3884 16.6214 19.7204C16.686 19.6787 16.7297 19.6115 16.7419 19.5357C16.754 19.4598 16.7333 19.3824 16.6851 19.3227C16.0914 18.5882 16.1359 17.5089 16.8186 16.8262C17.5013 16.1435 18.5806 16.099 19.3151 16.6927C19.3748 16.7409 19.4522 16.7616 19.5281 16.7495C19.6039 16.7373 19.6711 16.6936 19.7128 16.629C20.3807 15.5956 20.8709 14.4366 21.1377 13.1935C21.1538 13.1184 21.1373 13.04 21.0922 12.9778C21.0471 12.9156 20.9777 12.8754 20.9013 12.8674C19.9613 12.7683 19.2288 11.9733 19.2288 11.0073C19.2288 10.0414 19.9614 9.24615 20.9012 9.14732C20.9777 9.13929 21.0471 9.09916 21.0922 9.03694C21.1373 8.97473 21.1538 8.89627 21.1377 8.82114C20.8709 7.57812 20.3807 6.41906 19.7128 5.38564C19.6711 5.32113 19.6039 5.27736 19.5281 5.26522C19.4522 5.25309 19.3748 5.27374 19.3151 5.32202C18.5806 5.91569 17.5011 5.87119 16.8186 5.18852C16.1359 4.5058 16.0914 3.42651 16.6851 2.69202C16.7333 2.63228 16.754 2.55484 16.7419 2.479C16.7297 2.40315 16.686 2.33602 16.6214 2.29432C15.588 1.62634 14.429 1.13618 13.1859 0.869375C13.1108 0.85325 13.0324 0.869794 12.9702 0.914887ZM18.0828 6C18.0828 6 16.3677 5.4621 15.9995 4.33333C15.7676 3.62241 16.6087 2.479 16.27 2.479C15.4605 2.00238 14.2838 1.69186 13.3476 1.46228C13.0968 2.52722 12.1412 3.31995 10.9997 3.31995C9.85834 3.31995 8.90247 2.52728 8.65182 1.46229C7.67244 1.70247 6.75117 2.08993 5.91139 2.59934C6.48616 3.52942 6.37068 4.76473 5.56391 5.57151C4.75714 6.37828 3.52183 6.49376 2.59174 5.919C2.08233 6.75877 1.69487 7.68004 1.45469 8.65942C2.51968 8.91007 3.31235 9.86594 3.31235 11.0073C3.31235 12.1487 2.51968 13.1046 1.45469 13.3553C1.69487 14.3346 2.08233 15.2559 2.59174 16.0957C3.52185 15.5209 4.75738 15.6364 5.56394 16.4432C6.37069 17.25 6.48615 18.4853 5.9114 19.4153C6.75118 19.9248 7.67248 20.3122 8.65188 20.5524C8.90267 19.4875 9.85827 18.6947 10.9997 18.6947C12.1411 18.6947 13.097 19.4874 13.3477 20.5524C14.327 20.3122 15.2483 19.9248 16.0881 19.4153C15.5133 18.4853 15.6288 17.25 16.4356 16.4432C17.2424 15.6364 18.4777 15.5209 19.4077 16.0957C19.9172 15.2559 20.3046 14.3346 20.5448 13.3552C19.4799 13.1044 18.6871 12.1488 18.6871 11.0073C18.6871 9.86594 19.4798 8.91007 20.5448 8.65942C20.3046 7.68004 19.9172 6.75877 19.4077 5.91899" fill="#3790F4"/>
<path fill-rule="evenodd" clip-rule="evenodd" d="M9.02934 0.914906C9.09156 0.960013 9.13169 1.02943 9.13972 1.10585C9.23855 2.0457 10.0338 2.77828 10.9997 2.77828C11.9657 2.77828 12.7607 2.04574 12.8598 1.10579C12.8678 1.02938 12.908 0.959981 12.9702 0.914887C13.0324 0.869794 13.1108 0.85325 13.1859 0.869375C14.429 1.13618 15.588 1.62634 16.6214 2.29432C16.686 2.33602 16.7297 2.40315 16.7419 2.479C16.754 2.55484 16.7333 2.63228 16.6851 2.69202C16.0914 3.42651 16.1359 4.5058 16.8186 5.18852C17.5011 5.87119 18.5806 5.91569 19.3151 5.32202C19.3748 5.27374 19.4522 5.25309 19.5281 5.26522C19.6039 5.27736 19.6711 5.32113 19.7128 5.38564C20.3807 6.41906 20.8709 7.57812 21.1377 8.82114C21.1538 8.89627 21.1373 8.97473 21.0922 9.03694C21.0471 9.09916 20.9777 9.13929 20.9012 9.14732C19.9614 9.24615 19.2288 10.0414 19.2288 11.0073C19.2288 11.9733 19.9613 12.7683 20.9013 12.8674C20.9777 12.8754 21.0471 12.9156 21.0922 12.9778C21.1373 13.04 21.1538 13.1184 21.1377 13.1935C20.8709 14.4366 20.3807 15.5956 19.7128 16.629C19.6711 16.6936 19.6039 16.7373 19.5281 16.7495C19.4522 16.7616 19.3748 16.7409 19.3151 16.6927C18.5806 16.099 17.5013 16.1435 16.8186 16.8262C16.1359 17.5089 16.0914 18.5882 16.6851 19.3227C16.7333 19.3824 16.754 19.4598 16.7419 19.5357C16.7297 19.6115 16.686 19.6787 16.6214 19.7204C15.588 20.3884 14.429 20.8785 13.1859 21.1453C13.1108 21.1614 13.0324 21.1449 12.9701 21.0998C12.9079 21.0547 12.8678 20.9853 12.8598 20.9088C12.7609 19.969 11.9657 19.2364 10.9997 19.2364C10.0338 19.2364 9.23878 19.9689 9.13972 20.9089C9.13166 20.9853 9.09153 21.0547 9.02932 21.0998C8.9671 21.1449 8.88866 21.1614 8.81354 21.1453C7.57052 20.8785 6.41146 20.3884 5.37804 19.7204C5.31353 19.6787 5.26976 19.6115 5.25763 19.5357C5.24549 19.4598 5.26614 19.3824 5.31442 19.3227C5.90808 18.5882 5.86359 17.5089 5.18086 16.8262C4.49842 16.1435 3.41893 16.099 2.68442 16.6927C2.62468 16.7409 2.54724 16.7616 2.4714 16.7495C2.39555 16.7373 2.32842 16.6936 2.28672 16.629C1.61874 15.5956 1.12858 14.4366 0.861776 13.1935C0.845648 13.1184 0.862201 13.04 0.907306 12.9777C0.952414 12.9155 1.02183 12.8754 1.09826 12.8674C2.0381 12.7685 2.77068 11.9733 2.77068 11.0073C2.77068 10.0414 2.0381 9.24615 1.09826 9.14732C1.02183 9.13929 0.952414 9.09916 0.907306 9.03694C0.862201 8.97473 0.845648 8.89627 0.861776 8.82114C1.12858 7.57812 1.61874 6.41906 2.28672 5.38564C2.32842 5.32113 2.39555 5.27736 2.4714 5.26522C2.54724 5.25309 2.62468 5.27374 2.68442 5.32202C3.41891 5.91568 4.49817 5.87122 5.18089 5.18849C5.86362 4.50577 5.90808 3.42651 5.31442 2.69202C5.26614 2.63228 5.24549 2.55484 5.25763 2.479C5.26976 2.40315 5.31353 2.33602 5.37804 2.29432C6.41146 1.62634 7.57052 1.13618 8.81354 0.869375C8.88867 0.853247 8.96713 0.869799 9.02934 0.914906ZM3.91666 6C3.91666 6 5.63184 5.4621 5.99999 4.33333C6.23186 3.62241 5.39076 2.479 5.72946 2.479C6.53903 2.00238 7.71563 1.69187 8.65182 1.46229C8.90247 2.52728 9.85834 3.31995 10.9997 3.31995C12.1412 3.31995 13.0968 2.52722 13.3476 1.46228C14.327 1.70245 15.2483 2.08993 16.0881 2.59934C15.5133 3.52942 15.6288 4.76473 16.4356 5.57151C17.2424 6.37828 18.4777 6.49376 19.4077 5.91899C19.9172 6.75877 20.3046 7.68004 20.5448 8.65942C19.4798 8.91007 18.6871 9.86594 18.6871 11.0073C18.6871 12.1488 19.4799 13.1044 20.5448 13.3552C20.3046 14.3346 19.9172 15.2559 19.4077 16.0957C18.4777 15.5209 17.2424 15.6364 16.4356 16.4432C15.6288 17.25 15.5133 18.4853 16.0881 19.4153C15.2483 19.9248 14.327 20.3122 13.3477 20.5524C13.097 19.4874 12.1411 18.6947 10.9997 18.6947C9.85827 18.6947 8.90267 19.4875 8.65188 20.5524C7.67248 20.3122 6.75118 19.9248 5.9114 19.4153C6.48615 18.4853 6.37069 17.25 5.56394 16.4432C4.75738 15.6364 3.52185 15.5209 2.59174 16.0957C2.08233 15.2559 1.69487 14.3346 1.45469 13.3553C2.51968 13.1046 3.31235 12.1487 3.31235 11.0073C3.31235 9.86594 2.51968 8.91007 1.45469 8.65942C1.69487 7.68004 2.08233 6.75877 2.59174 5.919" fill="#3790F4"/>
</svg>
