<svg width="18" height="18" viewBox="0 0 18 18" fill="none" xmlns="http://www.w3.org/2000/svg">
<path fill-rule="evenodd" clip-rule="evenodd" d="M0 9C0 4.02944 4.02944 0 9 0C13.9706 0 18 4.02944 18 9C18 13.9706 13.9706 18 9 18C4.02944 18 0 13.9706 0 9ZM9 1.22692C4.70705 1.22692 1.22692 4.70705 1.22692 9C1.22692 13.293 4.70705 16.7731 9 16.7731C13.293 16.7731 16.7731 13.293 16.7731 9C16.7731 4.70705 13.293 1.22692 9 1.22692ZM12.8786 5.67136C13.1182 5.43179 13.5066 5.43179 13.7462 5.67136C13.9858 5.91093 13.9858 6.29935 13.7462 6.53892L7.59283 12.6923C7.47778 12.8073 7.32175 12.872 7.15905 12.872C6.99635 12.872 6.84031 12.8073 6.72527 12.6923L3.79385 9.76086C3.55428 9.52129 3.55428 9.13286 3.79385 8.89329C4.03342 8.65372 4.42184 8.65372 4.66141 8.89329L7.15905 11.3909L12.8786 5.67136ZM7.15905 12.2585L7.37594 12.0416C7.31841 12.0991 7.2404 12.1314 7.15905 12.1314C7.0777 12.1314 6.99968 12.0991 6.94216 12.0416L7.15905 12.2585Z" fill="black"/>
</svg>
