<?xml version="1.0" encoding="UTF-8"?>
<svg width="18px" height="18px" viewBox="0 0 18 18" version="1.1" xmlns="http://www.w3.org/2000/svg" xmlns:xlink="http://www.w3.org/1999/xlink">
    <!-- Generator: sketchtool 55 (78076) - https://sketchapp.com -->
    <title>BDC921B6-AD44-438E-B75A-7323484D8236</title>
    <desc>Created with sketchtool.</desc>
    <defs>
        <path d="M9,1.5 C4.86,1.5 1.5,4.86 1.5,9 C1.5,13.14 4.86,16.5 9,16.5 C13.14,16.5 16.5,13.14 16.5,9 C16.5,4.86 13.14,1.5 9,1.5 Z M9,15 C5.685,15 3,12.315 3,9 C3,5.685 5.685,3 9,3 C12.315,3 15,5.685 15,9 C15,12.315 12.315,15 9,15 Z M9,5.25 C6.92893219,5.25 5.25,6.92893219 5.25,9 C5.25,11.0710678 6.92893219,12.75 9,12.75 C11.0710678,12.75 12.75,11.0710678 12.75,9 C12.75,6.92893219 11.0710678,5.25 9,5.25 L9,5.25 Z" id="path-1"></path>
    </defs>
    <g id="Asset-Artboard-Page" stroke="none" stroke-width="1" fill="none" fill-rule="evenodd">
        <g id="Icon_Selected_Machines-List-Copy-9">
            <g id="Icon_Radio-Button-Selected_Side-Panel">
                <mask id="mask-2" fill="white">
                    <use xlink:href="#path-1"></use>
                </mask>
                <g id="icon/toggle/radio_button_checked_24px" fill-rule="nonzero"></g>
                <g id="↳-Color" mask="url(#mask-2)" fill="#3790F4">
                    <g id="↳-Tonal-Palette">
                        <g id="Rectangle-13">
                            <rect x="0" y="0" width="18" height="18"></rect>
                        </g>
                    </g>
                </g>
            </g>
        </g>
    </g>
</svg>