<?xml version="1.0" encoding="UTF-8"?>
<svg width="19px" height="14px" viewBox="0 0 19 14" version="1.1" xmlns="http://www.w3.org/2000/svg" xmlns:xlink="http://www.w3.org/1999/xlink">
    <!-- Generator: sketchtool 55 (78076) - https://sketchapp.com -->
    <title>83EC11B6-55B9-4315-B108-5EFBDE59456F</title>
    <desc>Created with sketchtool.</desc>
    <g id="Asset-Artboard-Page" stroke="none" stroke-width="1" fill="none" fill-rule="evenodd" stroke-linecap="round" stroke-linejoin="round">
        <g id="Icon_Credit-Card" stroke="#000000" stroke-width="0.65">
            <path d="M14.3499304,8.83231201 C14.1680827,8.71307533 13.9569437,8.64482968 13.7317087,8.64482968 C13.0489112,8.64482968 12.4952656,9.27244411 12.4952656,10.0464656 C12.4952656,10.820487 13.0489112,11.4481014 13.7317087,11.4481014 C13.9569273,11.4481014 14.1680943,11.3798473 14.3499759,11.2605788 C13.980395,11.0182136 13.7317091,10.565221 13.7317091,10.0464656 C13.7317091,9.52768134 13.9803145,9.07466736 14.3499304,8.83231201 Z M17.0408361,13.8961248 L1.7188988,13.8961248 C0.773468385,13.8961248 1.23190347e-13,13.0193185 1.23190347e-13,11.9478482 L1.23190347e-13,1.94827655 C1.23190347e-13,0.876533601 0.773468385,-8.66315566e-14 1.7188988,-8.66315566e-14 L17.0408361,-8.66315566e-14 C17.9862665,-8.66315566e-14 18.7597349,0.87680624 18.7597349,1.94827655 L18.7597349,11.9478482 C18.7597349,13.0193185 17.9862665,13.8961248 17.0408361,13.8961248 Z M0.140455694,2.54808173 L18.6293791,2.54808173 L0.140455694,2.54808173 Z M0.140455694,5.19022421 L18.6293791,5.19022421 L0.140455694,5.19022421 Z M2.5890507,10.0464651 L3.4712279,10.0464651 L2.5890507,10.0464651 Z M4.75432928,10.0464651 L5.63650648,10.0464651 L4.75432928,10.0464651 Z M6.9196074,10.0464651 L7.8017846,10.0464651 L6.9196074,10.0464651 Z M9.08512697,10.0464651 L9.96730418,10.0464651 L9.08512697,10.0464651 Z M14.3499304,8.83231201 C14.7195463,9.07466736 14.9681518,9.52768134 14.9681518,10.0464656 C14.9681518,10.5653612 14.7195066,11.0182598 14.3499759,11.2605788 C14.5318369,11.3798404 14.7429711,11.4481014 14.9681521,11.4481014 C15.6509496,11.4481014 16.2045952,10.8207597 16.2045952,10.0464656 C16.2045952,9.27244411 15.6511901,8.64482968 14.9681521,8.64482968 C14.7429171,8.64482968 14.5317782,8.71307533 14.3499304,8.83231201 Z" id="Icon_Payment-Type_Side-Panel"></path>
        </g>
    </g>
</svg>