<svg width="20" height="20" viewBox="0 0 20 20" fill="none" xmlns="http://www.w3.org/2000/svg">
<path d="M14.1647 15.5174V14.8188L10.9655 13.0715C10.9639 13.0706 10.9631 13.0693 10.9619 13.0685C10.9419 13.0569 10.9266 13.0408 10.9145 13.0226C10.913 13.0204 10.9103 13.0195 10.909 13.0172C10.9058 13.0118 10.9055 13.0059 10.903 13.0004C10.8988 12.9908 10.895 12.9817 10.8929 12.9714C10.8908 12.962 10.8903 12.9531 10.8902 12.9437C10.89 12.9341 10.89 12.9249 10.8917 12.9153C10.8935 12.9052 10.8969 12.896 10.9006 12.8864C10.903 12.8807 10.903 12.8748 10.906 12.8691C10.9076 12.8663 10.9105 12.8645 10.9123 12.8618C10.9176 12.8534 10.9243 12.8464 10.9312 12.8393C10.9384 12.8318 10.9452 12.8247 10.9536 12.819C10.9563 12.8172 10.9577 12.8144 10.9606 12.8127C12.0612 12.1554 12.0764 10.3984 12.0764 10.3807L12.0752 8.69071C11.9142 7.771 10.8587 7.12977 10.0009 7.1235C9.99672 7.12395 9.99239 7.1241 9.98822 7.1241C9.12787 7.1241 8.06317 7.76697 7.90178 8.69101L7.89999 10.3816C7.89999 10.3984 7.91535 12.1079 9.02435 12.815C9.02659 12.8165 9.02778 12.8188 9.03002 12.8203C9.03792 12.826 9.04404 12.8333 9.05075 12.8403C9.05776 12.8479 9.06492 12.8549 9.07014 12.8634C9.07148 12.8657 9.07372 12.867 9.07506 12.8693C9.07835 12.8754 9.0785 12.8819 9.08088 12.8883C9.08461 12.8979 9.08834 12.9071 9.08998 12.9173C9.09147 12.9271 9.09102 12.9365 9.09058 12.9464C9.09028 12.9556 9.09013 12.9644 9.08804 12.9735C9.08566 12.984 9.08133 12.9934 9.07671 13.003C9.07402 13.0089 9.07342 13.0153 9.06984 13.0209C9.06835 13.023 9.06612 13.0242 9.06462 13.0263C9.05896 13.0342 9.05165 13.0406 9.04434 13.0475C9.03673 13.0545 9.02972 13.0617 9.02107 13.0669L5.81177 14.8195V15.5174M7.72195 10.9631L5.02792 9.49176C5.00807 9.47945 4.99513 9.46589 4.98496 9.45056C4.9837 9.44868 4.98144 9.44792 4.98031 9.44604C4.97768 9.44152 4.97742 9.43649 4.97529 9.43185C4.97177 9.42381 4.96851 9.41615 4.96675 9.40748C4.96499 9.39957 4.96461 9.39203 4.96449 9.38412C4.96436 9.37608 4.96436 9.36829 4.96574 9.36025C4.96725 9.35171 4.97014 9.34392 4.97328 9.33588C4.97529 9.33111 4.97529 9.32609 4.9778 9.32131C4.97918 9.31893 4.98157 9.31742 4.98308 9.31516C4.9876 9.30812 4.99325 9.30222 4.99903 9.29619C5.00506 9.28991 5.01084 9.28388 5.01787 9.27911C5.02013 9.2776 5.02139 9.27521 5.02377 9.27383C5.95063 8.72028 5.96344 7.24075 5.96344 7.2258L5.96244 5.80267C5.82678 5.02817 4.93798 4.48819 4.21561 4.48291C4.2121 4.48329 4.20845 4.48341 4.20494 4.48341C3.48043 4.48341 2.58385 5.02478 2.44794 5.80292L2.44643 7.22656C2.44643 7.24075 2.45937 8.68034 3.39326 9.27572C3.39515 9.27697 3.39615 9.27898 3.39804 9.28024C3.40469 9.28501 3.40984 9.29117 3.41549 9.29707C3.4214 9.30348 3.42743 9.30938 3.43182 9.31654C3.43295 9.31842 3.43484 9.31955 3.43597 9.32144C3.43873 9.32659 3.43886 9.33211 3.44087 9.33752C3.44401 9.34555 3.44715 9.35334 3.44853 9.36188C3.44979 9.37017 3.44941 9.37809 3.44903 9.38638C3.44878 9.39416 3.44866 9.40158 3.4469 9.40924C3.44489 9.41803 3.44124 9.42594 3.43735 9.43411C3.43509 9.43901 3.43459 9.44441 3.43157 9.44918C3.43032 9.45094 3.42843 9.45194 3.42718 9.4537C3.4224 9.46036 3.41625 9.46576 3.41009 9.47154C3.40369 9.47744 3.39778 9.48347 3.3905 9.48787C3.38874 9.489 3.38774 9.49088 3.38573 9.49189L0.687927 10.9638V11.6178M19.3121 11.6425V10.9631L16.6181 9.49176C16.5982 9.47945 16.5853 9.46589 16.5751 9.45056C16.5739 9.44868 16.5716 9.44792 16.5705 9.44604C16.5678 9.44152 16.5676 9.43649 16.5654 9.43185C16.5619 9.42381 16.5587 9.41615 16.5569 9.40748C16.5551 9.39957 16.5548 9.39203 16.5546 9.38412C16.5545 9.37608 16.5545 9.36829 16.5559 9.36025C16.5574 9.35171 16.5603 9.34392 16.5634 9.33588C16.5654 9.33111 16.5654 9.32609 16.568 9.32131C16.5693 9.31893 16.5717 9.31742 16.5732 9.31516C16.5778 9.30812 16.5834 9.30222 16.5892 9.29619C16.5952 9.28991 16.601 9.28388 16.608 9.27911C16.6103 9.2776 16.6115 9.27521 16.6139 9.27383C17.5408 8.72028 17.5536 7.24075 17.5536 7.2258L17.5526 5.80267C17.4169 5.02817 16.5281 4.48819 15.8058 4.48291C15.8023 4.48329 15.7986 4.48341 15.7951 4.48341C15.0706 4.48341 14.174 5.02478 14.0381 5.80292L14.0366 7.22656C14.0366 7.24075 14.0495 8.68034 14.9834 9.27572C14.9853 9.27697 14.9863 9.27898 14.9882 9.28024C14.9948 9.28501 15 9.29117 15.0057 9.29707C15.0116 9.30348 15.0176 9.30938 15.022 9.31654C15.0231 9.31842 15.025 9.31955 15.0261 9.32144C15.0289 9.32659 15.029 9.33211 15.031 9.33752C15.0342 9.34555 15.0373 9.35334 15.0387 9.36188C15.0399 9.37017 15.0396 9.37809 15.0392 9.38638C15.0389 9.39416 15.0388 9.40158 15.0371 9.40924C15.035 9.41803 15.0314 9.42594 15.0275 9.43411C15.0252 9.43901 15.0247 9.44441 15.0217 9.44918C15.0205 9.45094 15.0186 9.45194 15.0173 9.4537C15.0126 9.46036 15.0064 9.46576 15.0002 9.47154C14.9938 9.47744 14.9879 9.48347 14.9807 9.48787C14.9789 9.489 14.9779 9.49088 14.9759 9.49189L12.2781 10.9638" stroke="#3790F4" stroke-width="0.75" stroke-linecap="round" stroke-linejoin="round"/>
</svg>
