<svg width="20" height="20" viewBox="0 0 20 20" fill="none" xmlns="http://www.w3.org/2000/svg">
<path d="M2.58207 4.23553V3.91053H2.25707V4.23553H2.58207ZM17.5718 4.23553H17.8968V3.91053H17.5718V4.23553ZM17.5718 13.8652V14.1902H17.8968V13.8652H17.5718ZM2.58207 13.8652H2.25707V14.1902H2.58207V13.8652ZM13.7955 15.7919C13.975 15.7919 14.1205 15.6464 14.1205 15.4669C14.1205 15.2874 13.975 15.1419 13.7955 15.1419V15.7919ZM6.38457 15.1419C6.20508 15.1419 6.05957 15.2874 6.05957 15.4669C6.05957 15.6464 6.20508 15.7919 6.38457 15.7919V15.1419ZM17.6132 16.9919H2.38668V17.6419H17.6132V16.9919ZM2.38668 16.9919C2.02618 16.9919 1.71581 16.9098 1.50704 16.7936C1.2874 16.6712 1.24398 16.554 1.24398 16.4995H0.593976C0.593976 16.8964 0.879159 17.1879 1.19076 17.3614C1.51322 17.541 1.9367 17.6419 2.38668 17.6419V16.9919ZM1.24398 16.4995V3.50008H0.593976V16.4995H1.24398ZM1.24398 3.50008C1.24398 3.4456 1.2874 3.32833 1.50704 3.206C1.71581 3.08972 2.02618 3.00762 2.38668 3.00762V2.35762C1.9367 2.35762 1.51322 2.45854 1.19076 2.63814C0.879159 2.81168 0.593976 3.10314 0.593976 3.50008H1.24398ZM2.38668 3.00762H17.6132V2.35762H2.38668V3.00762ZM17.6132 3.00762C17.9737 3.00762 18.2841 3.08972 18.4928 3.206C18.7125 3.32833 18.7559 3.4456 18.7559 3.50008H19.4059C19.4059 3.10314 19.1207 2.81168 18.8091 2.63814C18.4867 2.45854 18.0632 2.35762 17.6132 2.35762V3.00762ZM18.7559 3.50008V16.4995H19.4059V3.50008H18.7559ZM18.7559 16.4995C18.7559 16.554 18.7125 16.6713 18.493 16.7936C18.2842 16.9098 17.9739 16.9919 17.6132 16.9919V17.6419C18.0633 17.6419 18.4868 17.541 18.8093 17.3614C19.1209 17.1878 19.4059 16.8963 19.4059 16.4995H18.7559ZM2.58207 4.56053H17.5718V3.91053H2.58207V4.56053ZM17.2468 4.23553V13.8652H17.8968V4.23553H17.2468ZM17.5718 13.5402H2.58207V14.1902H17.5718V13.5402ZM2.90707 13.8652V4.23553H2.25707V13.8652H2.90707ZM13.7955 15.1419H6.38457V15.7919H13.7955V15.1419Z" fill="#7B7B7B"/>
</svg>
