<?xml version="1.0" encoding="UTF-8"?>
<svg width="38px" height="38px" viewBox="0 0 38 38" version="1.1" xmlns="http://www.w3.org/2000/svg" xmlns:xlink="http://www.w3.org/1999/xlink">
    <title>Icon_Filter Selected_Machines Panel</title>
    <g id="Cents-Admin" stroke="none" stroke-width="1" fill="none" fill-rule="evenodd" stroke-linecap="round" stroke-linejoin="round">
        <g id="LOCATIONS_Show-Archived-List" transform="translate(-470.000000, -193.000000)" stroke="#000000">
            <g id="LOCATIONS-LIST" transform="translate(148.000000, 98.000000)">
                <g id="Group" transform="translate(323.000000, 96.000000)">
                    <g id="Combined-Shape" transform="translate(0.000000, 0.267921)">
                        <circle cx="18" cy="18" r="18"></circle>
                        <path d="M14.5547157,13.7725336 C15.9181599,13.7710338 17.0222352,12.6656502 17.020737,11.3035902 C17.0192387,9.94153014 15.9127342,8.83857814 14.5492899,8.84007793 C13.1858457,8.84157772 12.0817704,9.94696136 12.0832686,11.3090214 C12.0847669,12.6710814 13.1912714,13.7740334 14.5547157,13.7725336 Z M11.9620253,11.3053958 L9.11392405,11.3053958 M26.8860759,11.3053958 L17.2025316,11.3053958"></path>
                        <path d="M21.4080889,20.1927035 C22.7715331,20.1912037 23.8756085,19.08582 23.8741102,17.72376 C23.8726119,16.3617 22.7661074,15.258748 21.4026632,15.2602478 C20.0392189,15.2617475 18.9351436,16.3671312 18.9366418,17.7291912 C18.9381401,19.0912512 20.0446446,20.1942032 21.4080889,20.1927035 Z M24.0379747,17.7252439 L26.8860759,17.7252439 M9.11392405,17.7252439 L18.7974684,17.7252439"></path>
                        <path d="M14.5731646,26.6113198 C15.9366088,26.6113198 17.0418987,25.507152 17.0418987,24.145092 C17.0418987,22.7830319 15.9366088,21.6788641 14.5731646,21.6788641 C13.2097203,21.6788641 12.1044304,22.7830319 12.1044304,24.145092 C12.1044304,25.507152 13.2097203,26.6113198 14.5731646,26.6113198 Z M26.8860759,24.145092 L17.2025316,24.145092 M11.9620253,24.145092 L9.11392405,24.145092"></path>
                    </g>
                </g>
            </g>
        </g>
    </g>
</svg>
