<?xml version="1.0" encoding="UTF-8"?>
<svg width="20px" height="14px" viewBox="0 0 20 14" version="1.1" xmlns="http://www.w3.org/2000/svg" xmlns:xlink="http://www.w3.org/1999/xlink">
    <!-- Generator: sketchtool 55 (78076) - https://sketchapp.com -->
    <title>0286441F-D9DF-45DD-8324-C691FE8976A3</title>
    <desc>Created with sketchtool.</desc>
    <g id="Asset-Artboard-Page" stroke="none" stroke-width="1" fill="none" fill-rule="evenodd" stroke-linecap="round" stroke-linejoin="round">
        <g id="Icon_Cash-Card" stroke="#000000" stroke-width="0.65">
            <g id="Group">
                <g>
                    <path d="M18.0640506,12.9151899 L1.9356962,12.9151899 C0.940506329,12.9151899 0.126329114,12.1010127 0.126329114,11.1060759 L0.126329114,1.82075949 C0.126329114,0.82556962 0.940506329,0.0116455696 1.9356962,0.0116455696 L18.0640506,0.0116455696 C19.0592405,0.0116455696 19.8734177,0.825822785 19.8734177,1.82075949 L19.8734177,11.1060759 C19.8734177,12.1010127 19.0592405,12.9151899 18.0640506,12.9151899 Z" id="Path"></path>
                    <path d="M0.274177215,2.09200723 L19.7362025,2.09200723" id="Path"></path>
                    <path d="M0.274177215,3.97399638 L19.7362025,3.97399638" id="Path"></path>
                    <path d="M2.85164557,9.34050633 L3.78025316,9.34050633" id="Path"></path>
                    <path d="M5.98802893,9.34050633 L6.91663653,9.34050633" id="Path"></path>
                    <path d="M8.83869801,9.34050633 L9.76730561,9.34050633" id="Path"></path>
                </g>
                <g transform="translate(11.547920, 5.678119)">
                    <circle id="Oval" cx="3.02350814" cy="2.89330922" r="2.85714286"></circle>
                    <g transform="translate(1.880651, 0.893309)" id="Path">
                        <path d="M0.0934538879,2.66399221 C0.0934538879,3.08253165 0.513562387,3.42185005 1.03175407,3.42185005 C1.54994575,3.42185005 1.97005425,3.08253165 1.97005425,2.66399221 C1.97005425,2.24545278 1.54994575,1.90613437 1.03175407,1.90613437 L0.993562387,1.90613437 C0.475370705,1.90613437 0.0552622061,1.56681597 0.0552622061,1.14827653 C0.0552622061,0.729737098 0.475370705,0.390418695 0.993562387,0.390418695 C1.51175407,0.390418695 1.93186257,0.729737098 1.93186257,1.14827653"></path>
                        <path d="M0.995340567,0.0607594937 L0.995340567,3.75150925"></path>
                    </g>
                </g>
            </g>
        </g>
    </g>
</svg>