<?xml version="1.0" encoding="UTF-8"?>
<svg width="23px" height="23px" viewBox="0 0 23 23" version="1.1" xmlns="http://www.w3.org/2000/svg" xmlns:xlink="http://www.w3.org/1999/xlink">
    <!-- Generator: sketchtool 55 (78076) - https://sketchapp.com -->
    <title>56A24087-13FC-4F78-9E40-407A1CD8400D</title>
    <desc>Created with sketchtool.</desc>
    <g id="Asset-Artboard-Page" stroke="none" stroke-width="1" fill="none" fill-rule="evenodd">
        <g id="Icon_Modifier">
            <g>
                <g>
                    <path d="M12.9996338,20 L3.37119857,20 C2.64694608,20 2.04127268,19.4500587 1.97252747,18.7301587 L1.07142857,9.28571429 L18.9285714,9.28571429 L18.6432387,12.2762948 C20.5974542,12.9560303 22,14.8142241 22,17 C22,19.7614237 19.7614237,22 17,22 C15.3641822,22 13.9118401,21.2144467 12.9996338,20 Z M14.4833739,12.6785714 C14.4833739,12.6785714 14.4833739,12.6785714 14.4833739,12.6785714 L13.2142857,12.6785714 L14.4833739,12.6785714 Z M0,6.78571429 L20,6.78571429 L20,9.28571429 L0,9.28571429 L0,6.78571429 Z M3.92857143,10.8928571 L6.78571429,10.8928571 L3.92857143,10.8928571 Z M8.57142857,10.8928571 L11.4285714,10.8928571 L8.57142857,10.8928571 Z M13.2142857,10.8928571 L16.0714286,10.8928571 L13.2142857,10.8928571 Z M3.92857143,12.6785714 L6.78571429,12.6785714 L3.92857143,12.6785714 Z M8.57142857,12.6785714 L11.4285714,12.6785714 L8.57142857,12.6785714 Z M3.92857143,14.4642857 L6.78571429,14.4642857 L3.92857143,14.4642857 Z M8.57142857,14.4642857 L11.4285714,14.4642857 L8.57142857,14.4642857 Z M3.92857143,16.25 L6.78571429,16.25 L3.92857143,16.25 Z M8.57142857,16.25 L11.4285714,16.25 L8.57142857,16.25 Z M3.92857143,18.0357143 L6.78571429,18.0357143 L3.92857143,18.0357143 Z M8.57142857,18.0357143 L11.4285714,18.0357143 L8.57142857,18.0357143 Z M17.8571429,2.21803912 C17.8571429,2.76831991 17.4076069,3.21428571 16.8529208,3.21428571 L2.78993636,3.21428571 C2.23525028,3.21428571 1.78571429,2.76831991 1.78571429,2.21803912 L1.78571429,2.12448882 C1.78571429,0.951137412 2.74446606,3.55271368e-15 3.92721076,3.55271368e-15 L15.7156464,3.55271368e-15 C16.8983911,3.55271368e-15 17.8571429,0.951137412 17.8571429,2.12448882 L17.8571429,2.21803912 Z M18.9285714,5.67868429 C18.9285714,6.29016703 18.4290637,6.78571429 17.8129525,6.78571429 L2.18730609,6.78571429 C1.5709363,6.78571429 1.07142857,6.28991053 1.07142857,5.67868429 L1.07142857,5.57480404 C1.07142857,4.2710428 2.13663139,3.21428571 3.45081245,3.21428571 L16.5491876,3.21428571 C17.8633686,3.21428571 18.9285714,4.2710428 18.9285714,5.57480404 L18.9285714,5.67868429 Z M18.9324961,9.29930104 L18.6426558,12.2658743 L18.9324961,9.29930104 Z M17,22 C19.7614237,22 22,19.7614237 22,17 C22,14.2385763 19.7614237,12 17,12 C14.2385763,12 12,14.2385763 12,17 C12,19.7614237 14.2385763,22 17,22 Z" id="Combined-Shape" stroke="#000000" stroke-width="0.535714286" stroke-linecap="round" stroke-linejoin="round"></path>
                    <polygon id="Shape" fill="#000000" points="16.5714286 14 16.5714286 16.5714286 14 16.5714286 14 17.4285714 16.5714286 17.4285714 16.5714286 20 17.4285714 20 17.4285714 17.4285714 20 17.4285714 20 16.5714286 17.4285714 16.5714286 17.4285714 14"></polygon>
                </g>
            </g>
        </g>
    </g>
</svg>