<svg width="20" height="20" viewBox="0 0 20 20" fill="none" xmlns="http://www.w3.org/2000/svg">
<path d="M5.38967 8.49945C4.83731 8.49945 4.38943 8.94732 4.38943 9.49968M12.7956 3.0251L13.3229 1.02464H14.8405L15.3678 3.0251M12.3993 4.65479C12.3993 4.65479 7.70154 8.52199 9.75148 17.8274C9.90177 18.51 10.473 18.9761 11.1006 18.9761H17.2035C17.8592 18.9761 18.4306 18.4663 18.5701 17.7468C19.0741 15.1455 19.7931 8.96871 15.9508 4.65479M9.60716 16.5094H18.6405M9.60716 10.5531H15.0732M17.0104 10.5531H18.6405M10.345 7.62695V1.02441H1.02396V16.3574H9.38621M9.15535 1.06769L8.32658 3.59934H3.04258L2.21381 1.06769M1.9786 4.68108H2.43453M3.37287 4.68108H3.82879M7.55561 4.68108H8.01176M8.94987 4.68108H9.40603M4.77335 4.68108H6.60902M8.07572 9.81014C8.07572 11.1271 7.00811 12.1947 5.69114 12.1947C4.37417 12.1947 3.30656 11.1271 3.30656 9.81014C3.30656 8.49317 4.37417 7.42556 5.69114 7.42556C7.00811 7.42556 8.07572 8.49317 8.07572 9.81014ZM11.8184 3.12935H16.3452V4.59678H11.8184V3.12935ZM14.8242 9.50887C15.1052 10.9093 15.7692 11.9572 16.3068 11.8493C16.8447 11.7413 17.0527 10.5185 16.7715 9.11808C16.4905 7.71762 15.8265 6.66975 15.2889 6.77769C14.751 6.8854 14.543 8.10818 14.8242 9.50887Z" stroke="#3790F4" stroke-width="0.65" stroke-linecap="round" stroke-linejoin="round"/>
</svg>
