<?xml version="1.0" encoding="UTF-8"?>
<svg width="23px" height="23px" viewBox="0 0 23 23" version="1.1" xmlns="http://www.w3.org/2000/svg" xmlns:xlink="http://www.w3.org/1999/xlink">
    <!-- Generator: sketchtool 55 (78076) - https://sketchapp.com -->
    <title>1480051C-2649-4125-A44C-50E62A96B5D5</title>
    <desc>Created with sketchtool.</desc>
    <g id="Asset-Artboard-Page" stroke="none" stroke-width="1" fill="none" fill-rule="evenodd" stroke-linecap="round" stroke-linejoin="round">
        <g id="Icon_Key_Side-Panel-Copy" stroke="#000000" stroke-width="0.65">
            <path d="M13.5529114,9.7635443 L13.5529114,9.76329114 L12.7220253,9.76329114 L12.7220253,16.0663291 L14.1718987,16.0663291 L14.1718987,17.4478481 L12.7220253,17.4478481 L12.7220253,18.7673418 L14.1718987,18.7673418 L14.1718987,20.1488608 L12.7220253,20.1488608 L12.7220253,20.7422785 C12.7220253,21.2972152 12.2721519,21.7468354 11.7174684,21.7468354 C11.1625316,21.7468354 10.7129114,21.296962 10.7129114,20.7422785 L10.7129114,9.7635443 L9.88177215,9.7635443 C7.73797468,9.7635443 6,8.02556962 6,5.88177215 C6,3.73797468 7.73797468,2 9.88177215,2 L13.5529114,2 C15.6967089,2 17.4346835,3.73797468 17.4346835,5.88177215 C17.4346835,8.02556962 15.6967089,9.7635443 13.5529114,9.7635443 Z M13.1822785,8.23797468 C14.4835443,8.23797468 15.538481,7.18303797 15.538481,5.88177215 C15.538481,4.58050633 14.4835443,3.52556962 13.1822785,3.52556962 L10.2526582,3.52556962 C8.95139241,3.52556962 7.8964557,4.58050633 7.8964557,5.88177215 C7.8964557,7.18303797 8.95139241,8.23797468 10.2526582,8.23797468 L13.1822785,8.23797468 Z" id="Icon_Key_Side-Panel" transform="translate(11.717342, 11.873418) rotate(-135.000000) translate(-11.717342, -11.873418) "></path>
        </g>
    </g>
</svg>