<?xml version="1.0" encoding="UTF-8"?>
<svg width="17px" height="22px" viewBox="0 0 17 22" version="1.1" xmlns="http://www.w3.org/2000/svg" xmlns:xlink="http://www.w3.org/1999/xlink">
    <title>3536AA57-A581-4CC0-BAF9-8CC3FE161198</title>
    <g id="Cents-Admin" stroke="none" stroke-width="1" fill="none" fill-rule="evenodd" stroke-linecap="round" stroke-linejoin="round">
        <g id="MACHINES-(STATE-1:-Live-&amp;-Connected)-Copy-9" transform="translate(-575.000000, -489.000000)" stroke="#000000" stroke-width="0.65">
            <g id="SIDE-PANEL" transform="translate(546.500000, 200.000000)">
                <g id="Machine-Details" transform="translate(27.500000, 244.093750)">
                    <g id="Icon_Machine-Small-Black_Side-Panel" transform="translate(2.000000, 45.906250)">
                        <path d="M15.0159494,1.77635684e-15 L15.0159494,19.7825316 L0.173670886,19.7825316 L0.173670886,1.77635684e-15 L15.0159494,1.77635684e-15 Z M7.59493671,4.01240506 C4.31702185,4.01240506 1.65974684,6.66968008 1.65974684,9.94759494 C1.65974684,13.2255098 4.31702185,15.8827848 7.59493671,15.8827848 C10.8728516,15.8827848 13.5301266,13.2255098 13.5301266,9.94759494 C13.5301266,6.66968008 10.8728516,4.01240506 7.59493671,4.01240506 Z M7.59493671,5.40481013 C10.1038475,5.40481013 12.1377215,7.43868416 12.1377215,9.94759494 C12.1377215,12.4565057 10.1038475,14.4903797 7.59493671,14.4903797 C5.08602594,14.4903797 3.0521519,12.4565057 3.0521519,9.94759494 C3.0521519,7.43868416 5.08602594,5.40481013 7.59493671,5.40481013 Z M0.284810127,2.40506329 L14.9050633,2.40506329 M0.284810127,17.4903797 L14.9050633,17.4903797 M12.3237975,1.2235443 L13.3010127,1.2235443 M9.96227848,1.2235443 L10.9394937,1.2235443 M10.2531646,9.21443038 L10.2531646,10.6807595"></path>
                    </g>
                </g>
            </g>
        </g>
    </g>
</svg>