<?xml version="1.0" encoding="UTF-8"?>
<svg width="38px" height="50px" viewBox="0 0 38 50" version="1.1" xmlns="http://www.w3.org/2000/svg" xmlns:xlink="http://www.w3.org/1999/xlink">
    <title>B08CE834-5938-4037-A20D-B03D1D4B9E6B</title>
    <g id="Cents-Admin" stroke="none" stroke-width="1" fill="none" fill-rule="evenodd" stroke-linecap="round" stroke-linejoin="round">
        <g id="MACHINES-(STATE-1:-Live-&amp;-Connected)-Copy-9" transform="translate(-737.000000, -323.000000)" stroke="#000000" stroke-width="0.65">
            <g id="SIDE-PANEL" transform="translate(546.500000, 200.000000)">
                <g id="Tab-/-Fixed-Tabs-/-Text-Labels-Only-/-Flat" transform="translate(27.500000, 50.000000)">
                    <g id="Insight" transform="translate(2.000000, 74.000000)">
                        <g id="Tickets-Created" transform="translate(162.000000, 0.000000)">
                            <g id="Icon__Dryer-Unselected_Side-Panel" transform="translate(-0.000000, 0.000000)">
                                <path d="M35.397434,-4.65204395e-14 L35.397434,47.9797311 L-2.03107971e-14,47.9797311 L-2.03107971e-14,-4.65204395e-14 L35.397434,-4.65204395e-14 Z M17.6984151,9.7321347 C9.8808974,9.7321347 3.54354717,16.1769792 3.54354717,24.1270979 C3.54354717,32.0772165 9.8808974,38.522061 17.6984151,38.522061 C25.5159328,38.522061 31.853283,32.0772165 31.853283,24.1270979 C31.853283,16.1769792 25.5159328,9.7321347 17.6984151,9.7321347 Z M17.6984151,13.1092161 C23.6819306,13.1092161 28.5325283,18.0420898 28.5325283,24.1270979 C28.5325283,30.2121059 23.6819306,35.1449796 17.6984151,35.1449796 C11.7148996,35.1449796 6.86430189,30.2121059 6.86430189,24.1270979 C6.86430189,18.0420898 11.7148996,13.1092161 17.6984151,13.1092161 Z M0.26445283,5.83314067 L35.1323774,5.83314067 M0.26445283,42.420441 L35.1323774,42.420441 M28.9769057,2.96814758 L31.3074717,2.96814758 M23.3443019,2.96814758 L25.6754717,2.96814758 M24.0380377,22.348911 L24.0380377,25.9052847"></path>
                            </g>
                        </g>
                    </g>
                </g>
            </g>
        </g>
    </g>
</svg>