<svg width="22" height="22" viewBox="0 0 22 22" fill="none" xmlns="http://www.w3.org/2000/svg">
<path fill-rule="evenodd" clip-rule="evenodd" d="M1.63436 1.0944C1.6544 0.931481 1.79278 0.809082 1.95693 0.809082H20.1848C20.3501 0.809082 20.4891 0.933231 20.5077 1.09753L21.2356 7.52842C21.2369 7.54055 21.2376 7.55276 21.2376 7.56497C21.2376 8.42384 20.5375 9.11655 19.6784 9.11655C18.8194 9.11655 18.1193 8.42384 18.1193 7.56497C18.1193 7.38547 18.2648 7.23997 18.4443 7.23997C18.6238 7.23997 18.7693 7.38547 18.7693 7.56497C18.7693 8.06103 19.1745 8.46655 19.6784 8.46655C20.1766 8.46655 20.5784 8.07023 20.5875 7.58191L19.8945 1.45908H2.2444L1.49098 7.58337C1.50085 8.07102 1.90227 8.46655 2.39997 8.46655C2.90391 8.46655 3.30914 8.06103 3.30914 7.56497C3.30914 7.38547 3.45465 7.23997 3.63414 7.23997C3.81364 7.23997 3.95914 7.38547 3.95914 7.56497C3.95914 8.42384 3.25906 9.11655 2.39997 9.11655C1.54087 9.11655 0.84079 8.42384 0.84079 7.56497C0.84079 7.5517 0.841602 7.53845 0.843222 7.52528L1.63436 1.0944Z" fill="#3790F4"/>
<path fill-rule="evenodd" clip-rule="evenodd" d="M2.92838 16.324C2.92838 16.1445 3.07389 15.999 3.25338 15.999H5.43288C5.61237 15.999 5.75788 16.1445 5.75788 16.324V19.425C5.75788 19.6045 5.61237 19.75 5.43288 19.75H3.25338C3.07389 19.75 2.92838 19.6045 2.92838 19.425V16.324ZM3.57838 16.649V19.1H5.10788V16.649H3.57838Z" fill="#3790F4"/>
<path fill-rule="evenodd" clip-rule="evenodd" d="M6.60737 16.324C6.60737 16.1445 6.75288 15.999 6.93237 15.999H9.11187C9.29136 15.999 9.43687 16.1445 9.43687 16.324V19.425C9.43687 19.6045 9.29136 19.75 9.11187 19.75H6.93237C6.75288 19.75 6.60737 19.6045 6.60737 19.425V16.324ZM7.25737 16.649V19.1H8.78687V16.649H7.25737Z" fill="#3790F4"/>
<path fill-rule="evenodd" clip-rule="evenodd" d="M10.2864 16.324C10.2864 16.1445 10.4319 15.999 10.6114 15.999H12.7909C12.9703 15.999 13.1159 16.1445 13.1159 16.324V19.425C13.1159 19.6045 12.9703 19.75 12.7909 19.75H10.6114C10.4319 19.75 10.2864 19.6045 10.2864 19.425V16.324ZM10.9364 16.649V19.1H12.4659V16.649H10.9364Z" fill="#3790F4"/>
<path fill-rule="evenodd" clip-rule="evenodd" d="M1.67389 8.30452C1.85338 8.30452 1.99889 8.45003 1.99889 8.62952V20.5557H20.0157V8.62952C20.0157 8.45003 20.1612 8.30452 20.3407 8.30452C20.5202 8.30452 20.6657 8.45003 20.6657 8.62952V20.8807C20.6657 21.0602 20.5202 21.2057 20.3407 21.2057H1.67389C1.4944 21.2057 1.34889 21.0602 1.34889 20.8807V8.62952C1.34889 8.45003 1.4944 8.30452 1.67389 8.30452Z" fill="#3790F4"/>
<path fill-rule="evenodd" clip-rule="evenodd" d="M3.63414 7.23997C3.81364 7.23997 3.95914 7.38547 3.95914 7.56497C3.95914 8.06103 4.36438 8.46655 4.86832 8.46655C5.37227 8.46655 5.7775 8.06103 5.7775 7.56497C5.7775 7.38548 5.92301 7.23997 6.1025 7.23997C6.28199 7.23997 6.4275 7.38548 6.4275 7.56497C6.4275 8.42384 5.72741 9.11655 4.86832 9.11655C4.00923 9.11655 3.30914 8.42384 3.30914 7.56497C3.30914 7.38547 3.45465 7.23997 3.63414 7.23997Z" fill="#3790F4"/>
<path fill-rule="evenodd" clip-rule="evenodd" d="M6.1025 7.23997C6.28199 7.23997 6.4275 7.38548 6.4275 7.56497C6.4275 8.06103 6.83273 8.46655 7.33668 8.46655C7.84062 8.46655 8.24585 8.06103 8.24585 7.56497C8.24585 7.38548 8.39136 7.23997 8.57085 7.23997C8.75035 7.23997 8.89585 7.38548 8.89585 7.56497C8.89585 8.42384 8.19577 9.11655 7.33668 9.11655C6.47758 9.11655 5.7775 8.42384 5.7775 7.56497C5.7775 7.38548 5.92301 7.23997 6.1025 7.23997Z" fill="#3790F4"/>
<path fill-rule="evenodd" clip-rule="evenodd" d="M8.57085 7.23997C8.75035 7.23997 8.89585 7.38548 8.89585 7.56497C8.89585 8.06103 9.30109 8.46655 9.80503 8.46655C10.309 8.46655 10.7142 8.06103 10.7142 7.56497C10.7142 7.38548 10.8597 7.23997 11.0392 7.23997C11.2187 7.23997 11.3642 7.38548 11.3642 7.56497C11.3642 8.42384 10.6641 9.11655 9.80503 9.11655C8.94594 9.11655 8.24585 8.42384 8.24585 7.56497C8.24585 7.38548 8.39136 7.23997 8.57085 7.23997Z" fill="#3790F4"/>
<path fill-rule="evenodd" clip-rule="evenodd" d="M11.0392 7.23997C11.2187 7.23997 11.3642 7.38548 11.3642 7.56497C11.3642 8.06103 11.7694 8.46655 12.2734 8.46655C12.7773 8.46655 13.1826 8.06103 13.1826 7.56497C13.1826 7.38548 13.3281 7.23997 13.5076 7.23997C13.6871 7.23997 13.8326 7.38548 13.8326 7.56497C13.8326 8.42384 13.1325 9.11655 12.2734 9.11655C11.4143 9.11655 10.7142 8.42384 10.7142 7.56497C10.7142 7.38548 10.8597 7.23997 11.0392 7.23997Z" fill="#3790F4"/>
<path fill-rule="evenodd" clip-rule="evenodd" d="M13.5076 7.23997C13.6871 7.23997 13.8326 7.38548 13.8326 7.56497C13.8326 8.06103 14.2378 8.46655 14.7417 8.46655C15.2457 8.46655 15.6509 8.06103 15.6509 7.56497C15.6509 7.38548 15.7964 7.23997 15.9759 7.23997C16.1554 7.23997 16.3009 7.38548 16.3009 7.56497C16.3009 8.42384 15.6008 9.11655 14.7417 9.11655C13.8826 9.11655 13.1826 8.42384 13.1826 7.56497C13.1826 7.38548 13.3281 7.23997 13.5076 7.23997Z" fill="#3790F4"/>
<path fill-rule="evenodd" clip-rule="evenodd" d="M15.9759 7.23997C16.1554 7.23997 16.3009 7.38548 16.3009 7.56497C16.3009 8.06103 16.7061 8.46655 17.2101 8.46655C17.714 8.46655 18.1193 8.06103 18.1193 7.56497C18.1193 7.38547 18.2648 7.23997 18.4443 7.23997C18.6238 7.23997 18.7693 7.38547 18.7693 7.56497C18.7693 8.42384 18.0692 9.11655 17.2101 9.11655C16.351 9.11655 15.6509 8.42384 15.6509 7.56497C15.6509 7.38548 15.7964 7.23997 15.9759 7.23997Z" fill="#3790F4"/>
<path fill-rule="evenodd" clip-rule="evenodd" d="M14.3602 8.4063C14.5397 8.4063 14.6852 8.5518 14.6852 8.7313V20.8807C14.6852 21.0602 14.5397 21.2057 14.3602 21.2057C14.1807 21.2057 14.0352 21.0602 14.0352 20.8807V8.7313C14.0352 8.5518 14.1807 8.4063 14.3602 8.4063Z" fill="#3790F4"/>
<path fill-rule="evenodd" clip-rule="evenodd" d="M3.62832 0.9025C3.80781 0.9025 3.95332 1.04801 3.95332 1.2275V7.26775C3.95332 7.44724 3.80781 7.59275 3.62832 7.59275C3.44883 7.59275 3.30332 7.44724 3.30332 7.26775V1.2275C3.30332 1.04801 3.44883 0.9025 3.62832 0.9025Z" fill="#3790F4"/>
<path fill-rule="evenodd" clip-rule="evenodd" d="M6.1025 0.939462C6.28199 0.939462 6.4275 1.08497 6.4275 1.26446V7.30471C6.4275 7.48421 6.28199 7.62971 6.1025 7.62971C5.92301 7.62971 5.7775 7.48421 5.7775 7.30471V1.26446C5.7775 1.08497 5.92301 0.939462 6.1025 0.939462Z" fill="#3790F4"/>
<path fill-rule="evenodd" clip-rule="evenodd" d="M8.57085 0.939462C8.75035 0.939462 8.89585 1.08497 8.89585 1.26446V7.30471C8.89585 7.48421 8.75035 7.62971 8.57085 7.62971C8.39136 7.62971 8.24585 7.48421 8.24585 7.30471V1.26446C8.24585 1.08497 8.39136 0.939462 8.57085 0.939462Z" fill="#3790F4"/>
<path fill-rule="evenodd" clip-rule="evenodd" d="M11.0425 0.939462C11.222 0.939462 11.3675 1.08497 11.3675 1.26446V7.30471C11.3675 7.48421 11.222 7.62971 11.0425 7.62971C10.863 7.62971 10.7175 7.48421 10.7175 7.30471V1.26446C10.7175 1.08497 10.863 0.939462 11.0425 0.939462Z" fill="#3790F4"/>
<path fill-rule="evenodd" clip-rule="evenodd" d="M13.5076 0.939462C13.6871 0.939462 13.8326 1.08497 13.8326 1.26446V7.30471C13.8326 7.48421 13.6871 7.62971 13.5076 7.62971C13.3281 7.62971 13.1826 7.48421 13.1826 7.30471V1.26446C13.1826 1.08497 13.3281 0.939462 13.5076 0.939462Z" fill="#3790F4"/>
<path fill-rule="evenodd" clip-rule="evenodd" d="M15.9759 0.939462C16.1554 0.939462 16.3009 1.08497 16.3009 1.26446V7.30471C16.3009 7.48421 16.1554 7.62971 15.9759 7.62971C15.7964 7.62971 15.6509 7.48421 15.6509 7.30471V1.26446C15.6509 1.08497 15.7964 0.939462 15.9759 0.939462Z" fill="#3790F4"/>
<path fill-rule="evenodd" clip-rule="evenodd" d="M18.4443 0.939462C18.6238 0.939462 18.7693 1.08497 18.7693 1.26446V7.30471C18.7693 7.48421 18.6238 7.62971 18.4443 7.62971C18.2648 7.62971 18.1193 7.48421 18.1193 7.30471V1.26446C18.1193 1.08497 18.2648 0.939462 18.4443 0.939462Z" fill="#3790F4"/>
<path fill-rule="evenodd" clip-rule="evenodd" d="M0.999018 7.4313C0.999018 7.2518 1.14453 7.1063 1.32402 7.1063H20.7071C20.8865 7.1063 21.0321 7.2518 21.0321 7.4313C21.0321 7.61079 20.8865 7.7563 20.7071 7.7563H1.32402C1.14453 7.7563 0.999018 7.61079 0.999018 7.4313Z" fill="#3790F4"/>
<path fill-rule="evenodd" clip-rule="evenodd" d="M14.1588 19.4462C14.1588 19.2667 14.3043 19.1212 14.4838 19.1212H20.2288C20.4083 19.1212 20.5538 19.2667 20.5538 19.4462C20.5538 19.6257 20.4083 19.7712 20.2288 19.7712H14.4838C14.3043 19.7712 14.1588 19.6257 14.1588 19.4462Z" fill="#3790F4"/>
<path fill-rule="evenodd" clip-rule="evenodd" d="M1.48028 14.868C1.48028 14.6885 1.62579 14.543 1.80528 14.543H14.239C14.4184 14.543 14.564 14.6885 14.564 14.868C14.564 15.0475 14.4184 15.193 14.239 15.193H1.80528C1.62579 15.193 1.48028 15.0475 1.48028 14.868Z" fill="#3790F4"/>
<path fill-rule="evenodd" clip-rule="evenodd" d="M19.0298 14.4301C19.2093 14.4301 19.3548 14.5756 19.3548 14.7551V15.2715C19.3548 15.451 19.2093 15.5965 19.0298 15.5965C18.8503 15.5965 18.7048 15.451 18.7048 15.2715V14.7551C18.7048 14.5756 18.8503 14.4301 19.0298 14.4301Z" fill="#3790F4"/>
</svg>
