<?xml version="1.0" encoding="UTF-8"?>
<svg width="15px" height="15px" viewBox="0 0 15 15" version="1.1" xmlns="http://www.w3.org/2000/svg" xmlns:xlink="http://www.w3.org/1999/xlink">
    <!-- Generator: sketchtool 55 (78076) - https://sketchapp.com -->
    <title>944022DC-DCED-498F-83E6-D56FD050A72C</title>
    <desc>Created with sketchtool.</desc>
    <g id="Asset-Artboard-Page" stroke="none" stroke-width="1" fill="none" fill-rule="evenodd" stroke-linecap="round" stroke-linejoin="round">
        <g id="Icon_Tax-Percentage" stroke="#000000">
            <g id="Path">
                <path d="M-5.5067062e-14,14.9980645 L14.9975806,1.77635684e-15"></path>
                <path d="M5.11741935,2.55919355 C5.11741935,3.97258065 3.9716129,5.1183871 2.55870968,5.1183871 C1.14580645,5.1183871 8.8817842e-16,3.97258065 8.8817842e-16,2.55919355 C8.8817842e-16,1.14580645 1.14580645,0.000483870968 2.55870968,0.000483870968 C3.9716129,0.000483870968 5.11741935,1.14580645 5.11741935,2.55919355 Z"></path>
                <path d="M14.9975806,12.4393548 C14.9975806,13.8527419 13.8517742,14.9980645 12.438871,14.9980645 C11.0254839,14.9980645 9.88016129,13.8522581 9.88016129,12.4393548 C9.88016129,11.0259677 11.0259677,9.88064516 12.438871,9.88064516 C13.8517742,9.88016129 14.9975806,11.0259677 14.9975806,12.4393548 Z"></path>
            </g>
        </g>
    </g>
</svg>
