<?xml version="1.0" encoding="UTF-8"?>
<svg width="26px" height="26px" viewBox="0 0 26 26" version="1.1" xmlns="http://www.w3.org/2000/svg" xmlns:xlink="http://www.w3.org/1999/xlink">
    <!-- Generator: Sketch 55 (78076) - https://sketchapp.com -->
    <title>Icon_Admin_Active</title>
    <desc>Created with Sketch.</desc>
    <g id="Cents-Admin" stroke="none" stroke-width="1" fill="none" fill-rule="evenodd" stroke-linecap="round" stroke-linejoin="round">
        <g id="GLOBAL-VIEW-(Locations_Full-Service-Offered)-Copy-14" transform="translate(-45.000000, -22.000000)" stroke="#000000">
            <g id="TOP-NAVIGATION">
                <g id="Group-2" transform="translate(27.000000, 12.000000)">
                    <g id="Icon_Admin_Active" transform="translate(19.000000, 11.000000)">
                        <g>
                            <circle id="Oval" stroke-width="0.65" transform="translate(12.010244, 12.025954) rotate(-59.236694) translate(-12.010244, -12.025954) " cx="12.010244" cy="12.0259545" r="3.12217145"></circle>
                            <ellipse id="Oval" stroke-width="0.65" transform="translate(11.975608, 12.008070) rotate(-8.048259) translate(-11.975608, -12.008070) " cx="11.9756081" cy="12.0080697" rx="5.19679826" ry="5.19710204"></ellipse>
                            <path d="M2.44982278,12.0088101 C2.44982278,10.681519 1.44334177,9.58936709 0.151898734,9.45356962 C0.463594937,8.00141772 1.03625316,6.64708861 1.81701266,5.43918987 C2.82622785,6.25488608 4.30906329,6.19412658 5.24688608,5.256 C6.18501266,4.31787342 6.24577215,2.83534177 5.43007595,1.82612658 C6.63797468,1.04536709 7.9923038,0.472708861 9.4444557,0.161012658 C9.58055696,1.4524557 10.6724051,2.45893671 11.9996962,2.45893671 C13.3269873,2.45893671 14.4191392,1.4524557 14.5549367,0.161012658 C16.0070886,0.472708861 17.3614177,1.04536709 18.5693165,1.82612658 C17.7536203,2.83534177 17.8143797,4.31787342 18.7525063,5.256 C19.6906329,6.19412658 21.1731646,6.25488608 22.1823797,5.43918987 C22.9631392,6.64708861 23.5357975,8.00141772 23.8474937,9.45356962 C22.5560506,9.58936709 21.5495696,10.681519 21.5495696,12.0088101 C21.5495696,13.3361013 22.5560506,14.4282532 23.8474937,14.5640506 C23.5357975,16.0162025 22.9631392,17.3705316 22.1823797,18.5784304 C21.1731646,17.7627342 19.6903291,17.8234937 18.7525063,18.7616203 C17.8143797,19.6997468 17.7536203,21.1822785 18.5693165,22.1914937 C17.3614177,22.9722532 16.0070886,23.5449114 14.5549367,23.8566076 C14.4188354,22.5651646 13.3269873,21.5586835 11.9996962,21.5586835 C10.6724051,21.5586835 9.58025316,22.5651646 9.4444557,23.8566076 C7.9923038,23.5449114 6.63797468,22.9722532 5.43007595,22.1914937 C6.24577215,21.1822785 6.18501266,19.6997468 5.24688608,18.7616203 C4.30875949,17.8234937 2.82622785,17.7627342 1.81701266,18.5784304 C1.03625316,17.3705316 0.463594937,16.0162025 0.151898734,14.5640506 C1.44334177,14.4279494 2.44982278,13.3361013 2.44982278,12.0088101 Z" id="Path" stroke-width="0.65"></path>
                        </g>
                    </g>
                </g>
            </g>
        </g>
    </g>
</svg>