<?xml version="1.0" encoding="UTF-8"?>
<svg width="48px" height="48px" viewBox="0 0 48 48" version="1.1" xmlns="http://www.w3.org/2000/svg" xmlns:xlink="http://www.w3.org/1999/xlink">
    <!-- Generator: sketchtool 55 (78076) - https://sketchapp.com -->
    <title>6D373F69-AB98-4FD9-B765-5028F81B20C6</title>
    <desc>Created with sketchtool.</desc>
    <g id="Asset-Artboard-Page" stroke="none" stroke-width="1" fill="none" fill-rule="evenodd" stroke-linecap="round" stroke-linejoin="round">
        <g id="Icon_Clock_Side-Panel" stroke="#000000" stroke-width="0.65">
            <g>
                <path d="M23.6962029,47.4240005 C10.6091514,47.4240005 4.26325641e-15,36.8077764 4.26325641e-15,23.7120003 C4.26325641e-15,10.6162241 10.6091514,-3.83693077e-14 23.6962029,-3.83693077e-14 C36.7832543,-3.83693077e-14 47.3924057,10.6162241 47.3924057,23.7120003 C47.3924057,36.8077764 36.7832543,47.4240005 23.6962029,47.4240005 Z M23.6962014,43.3124067 C34.5138232,43.3124067 43.2832383,34.5370061 43.2832383,23.7120008 C43.2832383,12.8869956 34.5138232,4.11159496 23.6962014,4.11159496 C12.8785796,4.11159496 4.10916452,12.8869956 4.10916452,23.7120008 C4.10916452,34.5370061 12.8785796,43.3124067 23.6962014,43.3124067 Z M23.739949,10.6426334 L23.739949,23.6797977 L36.3894676,23.6797977"></path>
            </g>
        </g>
    </g>
</svg>