<?xml version="1.0" encoding="UTF-8"?>
<svg width="21px" height="23px" viewBox="0 0 21 23" version="1.1" xmlns="http://www.w3.org/2000/svg" xmlns:xlink="http://www.w3.org/1999/xlink">
    <title>Icon_Cents Device</title>
    <g id="Symbols" stroke="none" stroke-width="1" fill="none" fill-rule="evenodd">
        <g id="DESKTOP_TOP-NAVIGATION_Admin" transform="translate(-730.000000, -23.000000)" fill="#0092FC" fill-rule="nonzero">
            <g id="Icon_Cents-Device" transform="translate(730.000000, 23.000000)">
                <path d="M11.1352606,1.33157895 C10.4883287,1.33157895 9.89396886,1.55350655 9.35216334,1.99736842 C8.81035783,2.44123029 8.34538246,3.06666263 7.95722329,3.87368421 C7.56906411,4.68070579 7.26986257,5.65315221 7.05960968,6.79105263 C6.8493568,7.92895306 6.74423193,9.18385279 6.74423193,10.5557895 C6.74423193,11.9438666 6.91809229,13.1826261 7.26581821,14.2721053 C7.61354414,15.3615844 8.09469257,16.2856102 8.70927793,17.0442105 C9.32386329,17.8028108 10.0435643,18.3838576 10.8684025,18.7873684 C11.6932408,19.1908792 12.5827589,19.3926316 13.5369835,19.3926316 C14.4588616,19.3926316 15.3039038,19.25544 16.0721354,18.9810526 C16.8403671,18.7066653 17.5196355,18.4000017 18.1099609,18.0610526 C18.7002863,17.7221036 19.185478,17.3992998 19.5655506,17.0926316 C19.9456231,16.7859634 20.2084352,16.6003512 20.3539949,16.5357895 C20.5804211,16.4389469 20.762368,16.4591221 20.899841,16.5963158 C21.0373141,16.7335095 21.0332708,16.9392969 20.8877111,17.2136842 C20.7906713,17.391229 20.6289408,17.6575421 20.4025146,18.0126316 C20.1760884,18.3677211 19.8728436,18.7591207 19.4927711,19.1868421 C19.1126985,19.6145635 18.6558097,20.0543837 18.1220908,20.5063158 C17.588372,20.9582479 16.9697526,21.3698227 16.2662141,21.7410526 C15.5626756,22.1122826 14.7701958,22.4149111 13.888751,22.6489474 C13.0073062,22.8829836 12.024793,23 10.941182,23 C9.25915893,23 7.74697816,22.7578972 6.40459435,22.2736842 C5.06221054,21.7894713 3.91392354,21.0793029 2.95969891,20.1431579 C2.00547427,19.2070129 1.27364347,18.0570244 0.764184553,16.6931579 C0.254725637,15.3292914 0,13.7757982 0,12.0326316 C0,10.4992906 0.194076676,9.13544457 0.58223585,7.94105263 C0.970395025,6.74666069 1.48388956,5.70561847 2.12273487,4.81789474 C2.76158018,3.930171 3.49341098,3.17965219 4.31824922,2.56631579 C5.14308747,1.95297939 5.98812966,1.45666856 6.85340115,1.07736842 C7.71867265,0.698068279 8.57180137,0.423685058 9.41281291,0.254210526 C10.2538245,0.0847359947 11.0139581,0 11.6932367,0 C12.793021,0 13.803837,0.100876184 14.725715,0.302631579 C15.6475931,0.504386974 16.4400728,0.786840289 17.1031781,1.15 C17.7662834,1.51315971 18.2838212,1.94087473 18.655807,2.43315789 C19.0277929,2.92544106 19.2137831,3.45403226 19.2137831,4.01894737 C19.2137831,4.51930075 19.1288745,4.93894567 18.9590549,5.27789474 C18.7892352,5.6168438 18.570899,5.89526207 18.3040395,6.11315789 C18.0371801,6.33105372 17.7379786,6.48842057 17.4064259,6.58526316 C17.0748733,6.68210575 16.7392824,6.73052632 16.3996431,6.73052632 C15.9144441,6.73052632 15.4575553,6.64175527 15.0289629,6.46421053 C14.6003705,6.28666578 14.2486065,5.98807227 13.9736604,5.56842105 C13.7634075,5.26175285 13.5935904,4.86631821 13.464204,4.38210526 C13.3348176,3.89789232 13.1852169,3.42982682 13.0153972,2.97789474 C12.8455776,2.52596265 12.6231981,2.13859811 12.348252,1.81578947 C12.0733059,1.49298084 11.6689795,1.33157895 11.1352606,1.33157895 Z" id="c"></path>
            </g>
        </g>
    </g>
</svg>