<svg width="20" height="21" viewBox="0 0 20 21" fill="none" xmlns="http://www.w3.org/2000/svg">
<path d="M6.19908 0.58753V2.36171C6.19908 2.84282 6.59587 3.23292 7.08517 3.23292H12.7534C13.2427 3.23292 13.6395 2.84282 13.6395 2.36171V0.58753M13.7028 9.69129H10.4282M13.7028 11.5153H10.4282M13.7028 14.0236H10.4282M13.7028 15.8476H10.4282M13.7028 5.35901H10.4282M13.7028 7.18304H10.4282M3.11373 19.7662H16.7249C17.0639 19.7662 17.3384 19.4914 17.3384 19.1524V1.03591C17.3384 0.696897 17.0636 0.422363 16.7249 0.422363H3.11373C2.77472 0.422363 2.49994 0.697145 2.49994 1.03591V19.1524C2.49994 19.4914 2.77472 19.7662 3.11373 19.7662ZM15.8463 18.2335H3.99222V1.78975H15.8463V18.2335ZM6.13559 4.98453H8.70857V7.55751H6.13559V4.98453ZM6.13559 9.31681H8.70857V11.8898H6.13559V9.31681ZM6.13559 13.6491H8.70857V16.2221H6.13559V13.6491Z" stroke="#7B7B7B" stroke-width="0.65" stroke-linecap="round" stroke-linejoin="round"/>
</svg>
