<?xml version="1.0" encoding="UTF-8"?>
<svg width="22px" height="22px" viewBox="0 0 22 22" version="1.1" xmlns="http://www.w3.org/2000/svg" xmlns:xlink="http://www.w3.org/1999/xlink">
    <!-- Generator: Sketch 55 (78076) - https://sketchapp.com -->
    <title>Icon_Wash + Fold_Left Navigation</title>
    <desc>Created with Sketch.</desc>
    <g id="Cents-Admin" stroke="none" stroke-width="1" fill="none" fill-rule="evenodd" stroke-linecap="round" stroke-linejoin="round">
        <g id="CUSTOMERS-(Registered-and-Unregistered-Customers-List)-Copy-4" transform="translate(-21.000000, -309.000000)" stroke="#BCDAFB">
            <g id="LEFT-NAVIGATION" transform="translate(0.000000, 60.000000)">
                <g id="Icons---vertical-nav" transform="translate(14.000000, 42.000000)">
                    <g id="Icon_Wash-+-Fold_Left-Navigation" transform="translate(8.000000, 208.000000)">
                        <g>
                            <path d="M1.04303797,9.1321519 L18.7329114,9.1321519 L17.8402532,18.501519 C17.7721519,19.2159494 17.1721519,19.7612658 16.4546835,19.7612658 L3.32101266,19.7612658 C2.6035443,19.7612658 2.00379747,19.2156962 1.9356962,18.501519 L1.04303797,9.1321519 Z M0.0144303797,6.71417722 L19.7612658,6.71417722 L19.7612658,9.04936709 L0.0144303797,9.04936709 L0.0144303797,6.71417722 Z M3.81189873,10.9868354 L6.55468354,10.9868354 L3.81189873,10.9868354 Z M8.51670886,10.9868354 L11.2592405,10.9868354 L8.51670886,10.9868354 Z M13.2212658,10.9868354 L15.9637975,10.9868354 L13.2212658,10.9868354 Z M3.81189873,12.7167089 L6.55468354,12.7167089 L3.81189873,12.7167089 Z M8.51670886,12.7167089 L11.2592405,12.7167089 L8.51670886,12.7167089 Z M13.2212658,12.7167089 L15.9637975,12.7167089 L13.2212658,12.7167089 Z M3.81189873,14.4468354 L6.55468354,14.4468354 L3.81189873,14.4468354 Z M8.51670886,14.4468354 L11.2592405,14.4468354 L8.51670886,14.4468354 Z M13.2212658,14.4468354 L15.9637975,14.4468354 L13.2212658,14.4468354 Z M3.81189873,16.1767089 L6.55468354,16.1767089 L3.81189873,16.1767089 Z M8.51670886,16.1767089 L11.2592405,16.1767089 L8.51670886,16.1767089 Z M13.2212658,16.1767089 L15.9637975,16.1767089 L13.2212658,16.1767089 Z M3.81189873,17.9065823 L6.55468354,17.9065823 L3.81189873,17.9065823 Z M8.51670886,17.9065823 L11.2592405,17.9065823 L8.51670886,17.9065823 Z M13.2212658,17.9065823 L15.9637975,17.9065823 L13.2212658,17.9065823 Z M17.7488608,2.20531646 C17.7488608,2.74886076 17.3083544,3.18936709 16.7648101,3.18936709 L2.9843038,3.18936709 C2.44075949,3.18936709 2.00025316,2.74886076 2.00025316,2.20531646 L2.00025316,2.11291139 C2.00025316,0.953924051 2.93974684,0.0144303797 4.09873418,0.0144303797 L15.6503797,0.0144303797 C16.8093671,0.0144303797 17.7488608,0.953924051 17.7488608,2.11291139 L17.7488608,2.20531646 Z M18.6174684,5.62177215 L18.6174684,5.51924051 C18.6174684,4.23240506 17.5744304,3.18936709 16.2875949,3.18936709 L3.46177215,3.18936709 C2.17493671,3.18936709 1.13189873,4.23240506 1.13189873,5.51924051 L1.13189873,5.62177215 C1.13189873,6.22506329 1.62101266,6.71443038 2.22455696,6.71443038 L17.5250633,6.71443038 C18.1283544,6.71417722 18.6174684,6.22506329 18.6174684,5.62177215 Z"></path>
                        </g>
                    </g>
                </g>
            </g>
        </g>
    </g>
</svg>