<svg width="20" height="21" viewBox="0 0 20 21" fill="none" xmlns="http://www.w3.org/2000/svg">
<path d="M6.19908 0.587042V2.36122C6.19908 2.84233 6.59587 3.23244 7.08517 3.23244H12.7534C13.2427 3.23244 13.6395 2.84233 13.6395 2.36122V0.587042M13.7028 9.6908H10.4282M13.7028 11.5148H10.4282M13.7028 14.0231H10.4282M13.7028 15.8471H10.4282M13.7028 5.35852H10.4282M13.7028 7.18255H10.4282M3.11373 19.7657H16.7249C17.0639 19.7657 17.3384 19.4909 17.3384 19.1519V1.03542C17.3384 0.696409 17.0636 0.421875 16.7249 0.421875H3.11373C2.77472 0.421875 2.49994 0.696657 2.49994 1.03542V19.1519C2.49994 19.4909 2.77472 19.7657 3.11373 19.7657ZM15.8463 18.233H3.99222V1.78926H15.8463V18.233ZM6.13559 4.98405H8.70857V7.55702H6.13559V4.98405ZM6.13559 9.31632H8.70857V11.8893H6.13559V9.31632ZM6.13559 13.6486H8.70857V16.2216H6.13559V13.6486Z" stroke="#3790F4" stroke-width="0.65" stroke-linecap="round" stroke-linejoin="round"/>
</svg>
