<?xml version="1.0" encoding="UTF-8"?>
<svg width="19px" height="20px" viewBox="0 0 19 20" version="1.1" xmlns="http://www.w3.org/2000/svg" xmlns:xlink="http://www.w3.org/1999/xlink">
    <!-- Generator: sketchtool 55 (78076) - https://sketchapp.com -->
    <title>E7D555AD-9885-4DF6-A6AC-0E2DF9CBA4E8</title>
    <desc>Created with sketchtool.</desc>
    <g id="Asset-Artboard-Page" stroke="none" stroke-width="1" fill="none" fill-rule="evenodd" stroke-linecap="round" stroke-linejoin="round">
        <g id="Icon_Photo_Side-Panel" stroke="#000000" stroke-width="0.65">
            <path d="M18.7951807,18.7953012 L-5.47117907e-13,18.7953012 L-5.47117907e-13,5.45626506 L18.7951807,5.45626506 L18.7951807,18.7953012 Z M12.8710602,3.68024096 L5.92431325,3.68024096 L5.92431325,-4.74731365e-13 L12.8710602,-4.73843187e-13 L12.8710602,3.68024096 Z M11.1847711,3.76501205 L11.1847711,5.33127711 L11.1847711,3.76501205 Z M7.61031325,3.76501205 L7.61031325,5.33127711 L7.61031325,3.76501205 Z M13.1302593,15.8590585 C15.1927723,13.7965454 15.1927723,10.4525509 13.1302593,8.39003786 C11.0677462,6.32752476 7.72375172,6.32752476 5.66123863,8.39003786 C3.59872553,10.4525509 3.59872553,13.7965454 5.66123863,15.8590585 C7.72375172,17.9215716 11.0677462,17.9215716 13.1302593,15.8590585 Z M12.0612635,14.633044 C10.6695592,16.1010089 8.35133922,16.1628303 6.88337434,14.771126 C5.41540946,13.3794216 5.35358807,11.0612017 6.74529241,9.59323682 C8.13699675,8.12527194 10.4552167,8.06345055 11.9231816,9.45515489 C13.3911464,10.8468592 13.4529678,13.1650792 12.0612635,14.633044 Z"></path>
        </g>
    </g>
</svg>