<?xml version="1.0" encoding="UTF-8"?>
<svg width="14px" height="20px" viewBox="0 0 14 20" version="1.1" xmlns="http://www.w3.org/2000/svg" xmlns:xlink="http://www.w3.org/1999/xlink">
    <!-- Generator: sketchtool 55 (78076) - https://sketchapp.com -->
    <title>7F6621C2-2A37-4FE8-A48B-C1CA61341335</title>
    <desc>Created with sketchtool.</desc>
    <g id="Asset-Artboard-Page" stroke="none" stroke-width="1" fill="none" fill-rule="evenodd" stroke-linecap="round" stroke-linejoin="round">
        <g id="Icon_Zip-Code" stroke="#000000" stroke-width="0.65">
            <path d="M13.3108861,6.65544304 C13.3108861,11.5427848 6.65544304,19.7468354 6.65544304,19.7468354 C6.65544304,19.7468354 2.30926389e-14,11.1473418 2.30926389e-14,6.65544304 C2.30926389e-14,2.97974684 2.97974684,-4.54747351e-13 6.65544304,-4.54747351e-13 C10.3311392,-4.54747351e-13 13.3108861,2.97974684 13.3108861,6.65544304 Z M7.77101648,8.56321094 C8.94129551,7.94565189 9.38936358,6.49632277 8.77180453,5.32604375 C8.15424548,4.15576472 6.70491637,3.70769665 5.53463734,4.3252557 C4.36435832,4.94281474 3.91629024,6.39214386 4.53384929,7.56242289 C5.15140834,8.73270191 6.60073746,9.18076998 7.77101648,8.56321094 Z" id="Icon_Region-District_Account-Settings"></path>
        </g>
    </g>
</svg>