<?xml version="1.0" encoding="UTF-8"?>
<svg width="19px" height="19px" viewBox="0 0 19 19" version="1.1" xmlns="http://www.w3.org/2000/svg" xmlns:xlink="http://www.w3.org/1999/xlink">
    <title>Icon_Filter_Machines Panel</title>
    <g id="Double-Nav" stroke="none" stroke-width="1" fill="none" fill-rule="evenodd" stroke-linecap="round" stroke-linejoin="round">
        <g id="Customer-Preference-Settings" transform="translate(-43.000000, -186.000000)" stroke="#000000">
            <g id="Settings-Panel" transform="translate(13.000000, 22.000000)">
                <g id="Full-Service-Order-Settings-Heading" transform="translate(30.000000, 164.000000)">
                    <g id="Icon_Filter_Machines-Panel" transform="translate(0.600000, 0.600000)">
                        <path d="M5.4407916,4.93245722 C6.80423584,4.93095744 7.90831119,3.8255738 7.90681293,2.46351377 C7.90531466,1.10145374 6.79881014,-0.00149826092 5.4353659,1.52774154e-06 C4.07192166,0.0015013164 2.96784631,1.10688495 2.96934457,2.46894498 C2.97084284,3.83100501 4.07734736,4.93395701 5.4407916,4.93245722 Z M17.7721519,2.46531935 L8.08860759,2.46531935 M2.84810127,2.46531935 L0,2.46531935 M12.2941648,11.352627 C13.6576091,11.3511273 14.7616844,10.2457436 14.7601862,8.88368359 C14.7586879,7.52162356 13.6521834,6.41867156 12.2887391,6.42017135 C10.9252949,6.42167114 9.82121953,7.52705478 9.8227178,8.88911481 C9.82421606,10.2511748 10.9307206,11.3541268 12.2941648,11.352627 Z M0,8.88516745 L9.6835443,8.88516745 M14.9240506,8.88516745 L17.7721519,8.88516745 M5.45924051,17.7712434 C6.82268474,17.7712434 7.92797468,16.6670756 7.92797468,15.3050156 C7.92797468,13.9429555 6.82268474,12.8387877 5.45924051,12.8387877 C4.09579627,12.8387877 2.99050633,13.9429555 2.99050633,15.3050156 C2.99050633,16.6670756 4.09579627,17.7712434 5.45924051,17.7712434 Z M17.7721519,15.3050156 L8.08860759,15.3050156 M2.84810127,15.3050156 L0,15.3050156" id="Combined-Shape"></path>
                    </g>
                </g>
            </g>
        </g>
    </g>
</svg>