<?xml version="1.0" encoding="UTF-8"?>
<svg width="32px" height="33px" viewBox="0 0 32 33" version="1.1" xmlns="http://www.w3.org/2000/svg" xmlns:xlink="http://www.w3.org/1999/xlink">
    <!-- Generator: Sketch 55 (78076) - https://sketchapp.com -->
    <title>Icon_Avatar_Top Navigation</title>
    <desc>Created with Sketch.</desc>
    <g id="Cents-Admin" stroke="none" stroke-width="1" fill="none" fill-rule="evenodd">
        <g id="ORDERS-Copy" transform="translate(-966.000000, -18.000000)" stroke="#3790F4">
            <g id="TOP-NAVIGATION">
                <g id="Icon_Avatar_Top-Navigation" transform="translate(966.000000, 18.000000)">
                    <g>
                        <circle id="Oval" stroke-width="1.5" cx="16" cy="16" r="15.25"></circle>
                        <g id="Icon_Customer_Left-Navigation" transform="translate(4.000000, 7.000000)" stroke-width="1.5">
                            <path d="M23.5992607,18.9617984 L14.1235088,13.9919298 C14.1196491,13.9898246 14.1178947,13.9866667 14.1150877,13.9849123 C14.0680702,13.9575439 14.0319298,13.9196491 14.0035088,13.8768421 C14,13.8715789 13.9936842,13.8694737 13.9905263,13.8642105 C13.9831579,13.8515789 13.9824561,13.8375439 13.9764912,13.8245614 C13.9666667,13.8021053 13.9575439,13.7807018 13.9526316,13.7564912 C13.9477193,13.734386 13.9466667,13.7133333 13.9463158,13.6912281 C13.9459649,13.6687719 13.9459649,13.6470175 13.9498246,13.6245614 C13.9540351,13.6007018 13.9621053,13.5789474 13.9708772,13.5564912 C13.9764912,13.5431579 13.9764912,13.5291228 13.9835088,13.5157895 C13.9873684,13.5091228 13.9940351,13.5049123 13.9982456,13.4985965 C14.0108772,13.4789474 14.0266667,13.4624561 14.042807,13.445614 C14.0596491,13.4280702 14.0757895,13.4112281 14.0954386,13.3978947 C14.1017544,13.3936842 14.1052632,13.3870175 14.1119298,13.3831579 C16.7010526,11.8368421 16.7368421,7.70385965 16.7368421,7.66210526 L16.7340351,3.68666667 C16.3550877,1.52315789 13.8722807,0.0147368421 11.854386,-1.59872116e-14 C11.8445614,0.00105263158 11.834386,0.00140350877 11.8245614,0.00140350877 C9.80070175,0.00140350877 7.29614035,1.51368421 6.91649123,3.68736842 L6.9122807,7.66421053 C6.9122807,7.70385965 6.94842105,11.7252632 9.55719298,13.3884211 C9.56245614,13.3919298 9.56526316,13.3975439 9.57052632,13.4010526 C9.58912281,13.414386 9.60350877,13.4315789 9.61929825,13.4480702 C9.63578947,13.4659649 9.65263158,13.4824561 9.66491228,13.5024561 C9.66807018,13.5077193 9.67333333,13.5108772 9.67649123,13.5161404 C9.68421053,13.5305263 9.6845614,13.5459649 9.69017544,13.5610526 C9.69894737,13.5835088 9.7077193,13.6052632 9.71157895,13.6291228 C9.71508772,13.6522807 9.71403509,13.674386 9.71298246,13.6975439 C9.7122807,13.7192982 9.71192982,13.74 9.70701754,13.7614035 C9.70140351,13.7859649 9.69122807,13.8080702 9.68035088,13.8308772 C9.67403509,13.8445614 9.67263158,13.8596491 9.66421053,13.8729825 C9.66070175,13.8778947 9.6554386,13.8807018 9.65192982,13.885614 C9.63859649,13.9042105 9.62140351,13.9192982 9.60421053,13.9354386 C9.58631579,13.9519298 9.56982456,13.9687719 9.54947368,13.9810526 C9.5445614,13.9842105 9.54175439,13.9894737 9.53614035,13.9922807 L0.461660832,18.9617984 C1.73939584,20.5382421 5.82471045,24.2734959 12,24.2734959 C18.1752896,24.2734959 22.4251816,20.4468452 23.5992607,18.9617984 Z" id="Icon_Customer_Account-Settings"></path>
                        </g>
                    </g>
                </g>
            </g>
        </g>
    </g>
</svg>