<?xml version="1.0" encoding="UTF-8"?>
<svg width="20px" height="20px" viewBox="0 0 20 20" version="1.1" xmlns="http://www.w3.org/2000/svg" xmlns:xlink="http://www.w3.org/1999/xlink">
    <!-- Generator: sketchtool 55 (78076) - https://sketchapp.com -->
    <title>3FB7D92B-EA26-4170-9915-BCF16DA9D4C5</title>
    <desc>Created with sketchtool.</desc>
    <g id="Asset-Artboard-Page" stroke="none" stroke-width="1" fill="none" fill-rule="evenodd" stroke-linecap="round" stroke-linejoin="round">
        <g id="Icon_Product-Category__Side-Panel" stroke="#000000" stroke-width="0.65">
            <g id="Path">
                <path d="M2.69189873,5.24886076 L2.72,5.24886076 C4.13291139,5.24886076 5.27822785,4.1035443 5.27822785,2.69063291 L5.27822785,2.67721519 C5.27822785,1.2643038 4.13291139,0.118987342 2.72,0.118987342 L2.69189873,0.118987342 C1.27898734,0.118987342 0.133670886,1.2643038 0.133670886,2.67721519 L0.133670886,2.69063291 C0.133670886,4.1035443 1.27898734,5.24886076 2.69189873,5.24886076 Z"></path>
                <path d="M9.99316456,5.24886076 L10.0212658,5.24886076 C11.4341772,5.24886076 12.5794937,4.1035443 12.5794937,2.69063291 L12.5794937,2.67721519 C12.5794937,1.2643038 11.4341772,0.118987342 10.0212658,0.118987342 L9.99316456,0.118987342 C8.58025316,0.118987342 7.43493671,1.2643038 7.43493671,2.67721519 L7.43493671,2.69063291 C7.43493671,4.1035443 8.58025316,5.24886076 9.99316456,5.24886076 Z"></path>
                <path d="M17.2941772,5.24886076 L17.3222785,5.24886076 C18.7351899,5.24886076 19.8805063,4.1035443 19.8805063,2.69063291 L19.8805063,2.67721519 C19.8805063,1.2643038 18.7351899,0.118987342 17.3222785,0.118987342 L17.2941772,0.118987342 C15.8812658,0.118987342 14.7359494,1.2643038 14.7359494,2.67721519 L14.7359494,2.69063291 C14.7359494,4.1035443 15.8812658,5.24886076 17.2941772,5.24886076 Z"></path>
                <path d="M2.69189873,12.5574684 L2.72,12.5574684 C4.13291139,12.5574684 5.27822785,11.4121519 5.27822785,9.99924051 L5.27822785,9.98582278 C5.27822785,8.57291139 4.13291139,7.42759494 2.72,7.42759494 L2.69189873,7.42759494 C1.27898734,7.42759494 0.133670886,8.57291139 0.133670886,9.98582278 L0.133670886,9.99924051 C0.133670886,11.4118987 1.27898734,12.5574684 2.69189873,12.5574684 Z"></path>
                <path d="M9.99316456,12.5574684 L10.0212658,12.5574684 C11.4341772,12.5574684 12.5794937,11.4121519 12.5794937,9.99924051 L12.5794937,9.98582278 C12.5794937,8.57291139 11.4341772,7.42759494 10.0212658,7.42759494 L9.99316456,7.42759494 C8.58025316,7.42759494 7.43493671,8.57291139 7.43493671,9.98582278 L7.43493671,9.99924051 C7.43493671,11.4118987 8.58025316,12.5574684 9.99316456,12.5574684 Z"></path>
                <path d="M17.2941772,12.5574684 L17.3222785,12.5574684 C18.7351899,12.5574684 19.8805063,11.4121519 19.8805063,9.99924051 L19.8805063,9.98582278 C19.8805063,8.57291139 18.7351899,7.42759494 17.3222785,7.42759494 L17.2941772,7.42759494 C15.8812658,7.42759494 14.7359494,8.57291139 14.7359494,9.98582278 L14.7359494,9.99924051 C14.7359494,11.4118987 15.8812658,12.5574684 17.2941772,12.5574684 Z"></path>
                <path d="M2.69189873,19.8658228 L2.72,19.8658228 C4.13291139,19.8658228 5.27822785,18.7205063 5.27822785,17.3075949 L5.27822785,17.2941772 C5.27822785,15.8812658 4.13291139,14.7359494 2.72,14.7359494 L2.69189873,14.7359494 C1.27898734,14.7359494 0.133670886,15.8812658 0.133670886,17.2941772 L0.133670886,17.3075949 C0.133670886,18.7205063 1.27898734,19.8658228 2.69189873,19.8658228 Z"></path>
                <path d="M9.99316456,19.8658228 L10.0212658,19.8658228 C11.4341772,19.8658228 12.5794937,18.7205063 12.5794937,17.3075949 L12.5794937,17.2941772 C12.5794937,15.8812658 11.4341772,14.7359494 10.0212658,14.7359494 L9.99316456,14.7359494 C8.58025316,14.7359494 7.43493671,15.8812658 7.43493671,17.2941772 L7.43493671,17.3075949 C7.43493671,18.7205063 8.58025316,19.8658228 9.99316456,19.8658228 Z"></path>
                <path d="M17.2941772,19.8658228 L17.3222785,19.8658228 C18.7351899,19.8658228 19.8805063,18.7205063 19.8805063,17.3075949 L19.8805063,17.2941772 C19.8805063,15.8812658 18.7351899,14.7359494 17.3222785,14.7359494 L17.2941772,14.7359494 C15.8812658,14.7359494 14.7359494,15.8812658 14.7359494,17.2941772 L14.7359494,17.3075949 C14.7359494,18.7205063 15.8812658,19.8658228 17.2941772,19.8658228 Z"></path>
            </g>
        </g>
    </g>
</svg>