<?xml version="1.0" encoding="UTF-8"?>
<svg width="16px" height="16px" viewBox="0 0 16 16" version="1.1" xmlns="http://www.w3.org/2000/svg" xmlns:xlink="http://www.w3.org/1999/xlink">
    <!-- Generator: sketchtool 55 (78076) - https://sketchapp.com -->
    <title>5372F483-4E19-4DA8-8234-CE2444A12DF7</title>
    <desc>Created with sketchtool.</desc>
    <g id="Asset-Artboard-Page" stroke="none" stroke-width="1" fill="none" fill-rule="evenodd">
        <g id="Icon_Hyperlink" fill="#1B1B1B">
            <g id="Shape">
                <path d="M14.6875294,6.15717647 L13.2818824,7.56329412 C12.6527059,8.19294118 11.8155294,8.53976471 10.9242353,8.54023529 L10.4475294,8.54023529 C10.1854118,8.54023529 9.97270588,8.328 9.97270588,8.06541176 C9.97270588,7.80282353 10.1854118,7.59058824 10.4475294,7.59058824 L10.9242353,7.59058824 C11.5614118,7.59011765 12.1604706,7.34164706 12.6103529,6.89176471 L14.016,5.48564706 C14.9454118,4.55623529 14.9454118,3.04376471 14.016,2.11388235 C13.0865882,1.18447059 11.5741176,1.18447059 10.6442353,2.11388235 L9.23858824,3.51952941 C8.78823529,3.96988235 8.53976471,4.56941176 8.53976471,5.20611765 L8.53976471,5.68235294 C8.53976471,5.94494118 8.32752941,6.15717647 8.06494118,6.15717647 C7.80282353,6.15717647 7.59011765,5.94494118 7.59011765,5.68235294 L7.59011765,5.20611765 C7.59011765,4.31576471 7.93694118,3.47811765 8.56705882,2.848 L9.97270588,1.44235294 C11.2724706,0.143058824 13.3877647,0.143058824 14.6875294,1.44235294 C15.9872941,2.74258824 15.9872941,4.85788235 14.6875294,6.15717647 Z M5.68235294,10.9228235 C5.56094118,10.9228235 5.43952941,10.8762353 5.34682353,10.7835294 C5.16141176,10.5981176 5.16141176,10.2974118 5.34682353,10.112 L10.5882353,4.87011765 C10.7736471,4.68470588 11.0743529,4.68470588 11.2597647,4.87011765 C11.4451765,5.056 11.4451765,5.35623529 11.2597647,5.54164706 L6.01835294,10.7835294 C5.92564706,10.8762353 5.80423529,10.9228235 5.68235294,10.9228235 Z M5.68235294,8.54023529 L5.20611765,8.54023529 C4.56941176,8.54023529 3.97035294,8.78823529 3.52047059,9.23811765 L2.11482353,10.6442353 C1.66447059,11.0941176 1.41647059,11.6931765 1.41647059,12.3298824 C1.41647059,12.9661176 1.66447059,13.5651765 2.11482353,14.0150588 C2.56517647,14.4654118 3.16376471,14.7138824 3.80094118,14.7138824 C4.43764706,14.7138824 5.03623529,14.4654118 5.48658824,14.0150588 L6.89223529,12.6098824 C7.34258824,12.1590588 7.59058824,11.5604706 7.59011765,10.9242353 L7.59011765,10.448 C7.59011765,10.1854118 7.80282353,9.97270588 8.06494118,9.97270588 C8.32752941,9.97270588 8.53976471,10.1854118 8.53976471,10.448 L8.53976471,10.9237647 C8.54023529,11.8141176 8.19388235,12.6512941 7.56376471,13.2814118 L6.15811765,14.6870588 C5.52847059,15.3167059 4.69129412,15.6635294 3.80094118,15.6635294 C2.91011765,15.6635294 2.07294118,15.3167059 1.44329412,14.6870588 C0.813647059,14.0574118 0.466823529,13.2202353 0.466823529,12.3298824 C0.466823529,11.4390588 0.813647059,10.6018824 1.44329412,9.97223529 L2.84894118,8.56658824 C3.47858824,7.93741176 4.31576471,7.59058824 5.20611765,7.59058824 L5.68235294,7.59058824 C5.94494118,7.59058824 6.15764706,7.80282353 6.15764706,8.06541176 C6.15764706,8.328 5.94494118,8.54023529 5.68235294,8.54023529 Z"></path>
            </g>
        </g>
    </g>
</svg>