<?xml version="1.0" encoding="UTF-8"?>
<svg width="20px" height="17px" viewBox="0 0 20 17" version="1.1" xmlns="http://www.w3.org/2000/svg" xmlns:xlink="http://www.w3.org/1999/xlink">
    <title>8D5DA08A-979E-4C32-AA5A-3BF4C43C534F</title>
    <g id="Cents-Admin" stroke="none" stroke-width="1" fill="none" fill-rule="evenodd">
        <g id="MACHINES-(STATE-1:-Live-&amp;-Connected)-Copy-9" transform="translate(-574.000000, -585.000000)" fill="#000000" fill-rule="nonzero">
            <g id="SIDE-PANEL" transform="translate(546.500000, 200.000000)">
                <g id="Machine-Details" transform="translate(27.500000, 244.093750)">
                    <g id="Icon_Barcode_Side-Panel" transform="translate(0.000000, 140.906250)">
                        <path d="M20,-1.56319402e-13 L20,16.6666667 L0,16.6666667 L0,-1.56319402e-13 L20,-1.56319402e-13 Z M19.3333333,0.666666667 L0.666666667,0.666666667 L0.666666667,16 L19.3333333,16 L19.3333333,0.666666667 Z M1.66666667,1.66666667 C1.85066667,1.66666667 2,1.81566667 2,2 L2,2 L2,14.3333333 C2,14.5176667 1.85066667,14.6666667 1.66666667,14.6666667 C1.48266667,14.6666667 1.33333333,14.5176667 1.33333333,14.3333333 L1.33333333,14.3333333 L1.33333333,2 C1.33333333,1.81566667 1.48266667,1.66666667 1.66666667,1.66666667 Z M18.3333333,1.66666667 C18.5173333,1.66666667 18.6666667,1.81566667 18.6666667,2 L18.6666667,2 L18.6666667,14.3333333 C18.6666667,14.5176667 18.5173333,14.6666667 18.3333333,14.6666667 C18.1493333,14.6666667 18,14.5176667 18,14.3333333 L18,14.3333333 L18,2 C18,1.81566667 18.1493333,1.66666667 18.3333333,1.66666667 Z M3,13 C3.184,13 3.33333333,13.149 3.33333333,13.3333333 L3.33333333,13.3333333 L3.33333333,13.6666667 C3.33333333,13.851 3.184,14 3,14 C2.816,14 2.66666667,13.851 2.66666667,13.6666667 L2.66666667,13.6666667 L2.66666667,13.3333333 C2.66666667,13.149 2.816,13 3,13 Z M4,13 C4.184,13 4.33333333,13.149 4.33333333,13.3333333 L4.33333333,13.3333333 L4.33333333,13.6666667 C4.33333333,13.851 4.184,14 4,14 C3.816,14 3.66666667,13.851 3.66666667,13.6666667 L3.66666667,13.6666667 L3.66666667,13.3333333 C3.66666667,13.149 3.816,13 4,13 Z M5,13 C5.184,13 5.33333333,13.149 5.33333333,13.3333333 L5.33333333,13.3333333 L5.33333333,13.6666667 C5.33333333,13.851 5.184,14 5,14 C4.816,14 4.66666667,13.851 4.66666667,13.6666667 L4.66666667,13.6666667 L4.66666667,13.3333333 C4.66666667,13.149 4.816,13 5,13 Z M6,13 C6.184,13 6.33333333,13.149 6.33333333,13.3333333 L6.33333333,13.3333333 L6.33333333,13.6666667 C6.33333333,13.851 6.184,14 6,14 C5.816,14 5.66666667,13.851 5.66666667,13.6666667 L5.66666667,13.6666667 L5.66666667,13.3333333 C5.66666667,13.149 5.816,13 6,13 Z M7,13 C7.184,13 7.33333333,13.149 7.33333333,13.3333333 L7.33333333,13.3333333 L7.33333333,13.6666667 C7.33333333,13.851 7.184,14 7,14 C6.816,14 6.66666667,13.851 6.66666667,13.6666667 L6.66666667,13.6666667 L6.66666667,13.3333333 C6.66666667,13.149 6.816,13 7,13 Z M8,13 C8.184,13 8.33333333,13.149 8.33333333,13.3333333 L8.33333333,13.3333333 L8.33333333,13.6666667 C8.33333333,13.851 8.184,14 8,14 C7.816,14 7.66666667,13.851 7.66666667,13.6666667 L7.66666667,13.6666667 L7.66666667,13.3333333 C7.66666667,13.149 7.816,13 8,13 Z M9,13 C9.184,13 9.33333333,13.149 9.33333333,13.3333333 L9.33333333,13.3333333 L9.33333333,13.6666667 C9.33333333,13.851 9.184,14 9,14 C8.816,14 8.66666667,13.851 8.66666667,13.6666667 L8.66666667,13.6666667 L8.66666667,13.3333333 C8.66666667,13.149 8.816,13 9,13 Z M10,13 C10.184,13 10.3333333,13.149 10.3333333,13.3333333 L10.3333333,13.3333333 L10.3333333,13.6666667 C10.3333333,13.851 10.184,14 10,14 C9.816,14 9.66666667,13.851 9.66666667,13.6666667 L9.66666667,13.6666667 L9.66666667,13.3333333 C9.66666667,13.149 9.816,13 10,13 Z M11,13 C11.184,13 11.3333333,13.149 11.3333333,13.3333333 L11.3333333,13.3333333 L11.3333333,13.6666667 C11.3333333,13.851 11.184,14 11,14 C10.816,14 10.6666667,13.851 10.6666667,13.6666667 L10.6666667,13.6666667 L10.6666667,13.3333333 C10.6666667,13.149 10.816,13 11,13 Z M12,13 C12.184,13 12.3333333,13.149 12.3333333,13.3333333 L12.3333333,13.3333333 L12.3333333,13.6666667 C12.3333333,13.851 12.184,14 12,14 C11.816,14 11.6666667,13.851 11.6666667,13.6666667 L11.6666667,13.6666667 L11.6666667,13.3333333 C11.6666667,13.149 11.816,13 12,13 Z M13,13 C13.184,13 13.3333333,13.149 13.3333333,13.3333333 L13.3333333,13.3333333 L13.3333333,13.6666667 C13.3333333,13.851 13.184,14 13,14 C12.816,14 12.6666667,13.851 12.6666667,13.6666667 L12.6666667,13.6666667 L12.6666667,13.3333333 C12.6666667,13.149 12.816,13 13,13 Z M14,13 C14.184,13 14.3333333,13.149 14.3333333,13.3333333 L14.3333333,13.3333333 L14.3333333,13.6666667 C14.3333333,13.851 14.184,14 14,14 C13.816,14 13.6666667,13.851 13.6666667,13.6666667 L13.6666667,13.6666667 L13.6666667,13.3333333 C13.6666667,13.149 13.816,13 14,13 Z M15,13 C15.184,13 15.3333333,13.149 15.3333333,13.3333333 L15.3333333,13.3333333 L15.3333333,13.6666667 C15.3333333,13.851 15.184,14 15,14 C14.816,14 14.6666667,13.851 14.6666667,13.6666667 L14.6666667,13.6666667 L14.6666667,13.3333333 C14.6666667,13.149 14.816,13 15,13 Z M16,13 C16.184,13 16.3333333,13.149 16.3333333,13.3333333 L16.3333333,13.3333333 L16.3333333,13.6666667 C16.3333333,13.851 16.184,14 16,14 C15.816,14 15.6666667,13.851 15.6666667,13.6666667 L15.6666667,13.6666667 L15.6666667,13.3333333 C15.6666667,13.149 15.816,13 16,13 Z M17,13 C17.184,13 17.3333333,13.149 17.3333333,13.3333333 L17.3333333,13.3333333 L17.3333333,13.6666667 C17.3333333,13.851 17.184,14 17,14 C16.816,14 16.6666667,13.851 16.6666667,13.6666667 L16.6666667,13.6666667 L16.6666667,13.3333333 C16.6666667,13.149 16.816,13 17,13 Z M3,1.66666667 C3.184,1.66666667 3.33333333,1.81566667 3.33333333,2 L3.33333333,2 L3.33333333,11.6666667 C3.33333333,11.851 3.184,12 3,12 C2.816,12 2.66666667,11.851 2.66666667,11.6666667 L2.66666667,11.6666667 L2.66666667,2 C2.66666667,1.81566667 2.816,1.66666667 3,1.66666667 Z M4,1.66666667 C4.184,1.66666667 4.33333333,1.81566667 4.33333333,2 L4.33333333,2 L4.33333333,11.6666667 C4.33333333,11.851 4.184,12 4,12 C3.816,12 3.66666667,11.851 3.66666667,11.6666667 L3.66666667,11.6666667 L3.66666667,2 C3.66666667,1.81566667 3.816,1.66666667 4,1.66666667 Z M5.66666667,1.66666667 C5.85066667,1.66666667 6,1.81566667 6,2 L6,2 L6,11.6666667 C6,11.851 5.85066667,12 5.66666667,12 C5.48266667,12 5.33333333,11.851 5.33333333,11.6666667 L5.33333333,11.6666667 L5.33333333,2 C5.33333333,1.81566667 5.48266667,1.66666667 5.66666667,1.66666667 Z M6.66666667,1.66666667 C6.85066667,1.66666667 7,1.81566667 7,2 L7,2 L7,11.6666667 C7,11.851 6.85066667,12 6.66666667,12 C6.48266667,12 6.33333333,11.851 6.33333333,11.6666667 L6.33333333,11.6666667 L6.33333333,2 C6.33333333,1.81566667 6.48266667,1.66666667 6.66666667,1.66666667 Z M7.66666667,1.66666667 C7.85066667,1.66666667 8,1.81566667 8,2 L8,2 L8,11.6666667 C8,11.851 7.85066667,12 7.66666667,12 C7.48266667,12 7.33333333,11.851 7.33333333,11.6666667 L7.33333333,11.6666667 L7.33333333,2 C7.33333333,1.81566667 7.48266667,1.66666667 7.66666667,1.66666667 Z M9.66666667,1.66666667 C9.85066667,1.66666667 10,1.81566667 10,2 L10,2 L10,11.6666667 C10,11.851 9.85066667,12 9.66666667,12 C9.48266667,12 9.33333333,11.851 9.33333333,11.6666667 L9.33333333,11.6666667 L9.33333333,2 C9.33333333,1.81566667 9.48266667,1.66666667 9.66666667,1.66666667 Z M11.3333333,1.66666667 C11.5173333,1.66666667 11.6666667,1.81566667 11.6666667,2 L11.6666667,2 L11.6666667,11.6666667 C11.6666667,11.851 11.5173333,12 11.3333333,12 C11.1493333,12 11,11.851 11,11.6666667 L11,11.6666667 L11,2 C11,1.81566667 11.1493333,1.66666667 11.3333333,1.66666667 Z M12.3333333,1.66666667 C12.5173333,1.66666667 12.6666667,1.81566667 12.6666667,2 L12.6666667,2 L12.6666667,11.6666667 C12.6666667,11.851 12.5173333,12 12.3333333,12 C12.1493333,12 12,11.851 12,11.6666667 L12,11.6666667 L12,2 C12,1.81566667 12.1493333,1.66666667 12.3333333,1.66666667 Z M14,1.66666667 C14.184,1.66666667 14.3333333,1.81566667 14.3333333,2 L14.3333333,2 L14.3333333,11.6666667 C14.3333333,11.851 14.184,12 14,12 C13.816,12 13.6666667,11.851 13.6666667,11.6666667 L13.6666667,11.6666667 L13.6666667,2 C13.6666667,1.81566667 13.816,1.66666667 14,1.66666667 Z M15,1.66666667 C15.184,1.66666667 15.3333333,1.81566667 15.3333333,2 L15.3333333,2 L15.3333333,11.6666667 C15.3333333,11.851 15.184,12 15,12 C14.816,12 14.6666667,11.851 14.6666667,11.6666667 L14.6666667,11.6666667 L14.6666667,2 C14.6666667,1.81566667 14.816,1.66666667 15,1.66666667 Z M17,1.66666667 C17.184,1.66666667 17.3333333,1.81566667 17.3333333,2 L17.3333333,2 L17.3333333,11.6666667 C17.3333333,11.851 17.184,12 17,12 C16.816,12 16.6666667,11.851 16.6666667,11.6666667 L16.6666667,11.6666667 L16.6666667,2 C16.6666667,1.81566667 16.816,1.66666667 17,1.66666667 Z"></path>
                    </g>
                </g>
            </g>
        </g>
    </g>
</svg>