<svg width="15" height="15" viewBox="0 0 15 15" fill="none" xmlns="http://www.w3.org/2000/svg">
<path d="M5.86598 2.8909C5.86598 2.04737 6.62558 1.36371 7.56281 1.36371C8.50003 1.36371 9.25964 2.04737 9.25964 2.8909C9.25964 2.8909 9.38394 3.71743 8.44042 4.28749C7.42068 4.90381 7.49323 5.53948 7.49323 5.53948V5.83481M13.7713 10.328L7.49986 5.91338L1.22843 10.328C0.880012 10.6277 0.681763 11.0507 0.681763 11.4938V12.0533C0.681763 12.9276 1.43857 13.6363 2.37213 13.6363H12.6278C13.5613 13.6363 14.3181 12.9275 14.3181 12.0533V11.4938C14.318 11.0505 14.1197 10.6277 13.7713 10.328Z" stroke="black" stroke-linecap="round" stroke-linejoin="round"/>
</svg>
