<?xml version="1.0" encoding="UTF-8"?>
<svg width="24px" height="24px" viewBox="0 0 24 24" version="1.1" xmlns="http://www.w3.org/2000/svg" xmlns:xlink="http://www.w3.org/1999/xlink">
    <!-- Generator: sketchtool 55 (78076) - https://sketchapp.com -->
    <title>2250276B-98AB-4453-B487-F4574D792B6E</title>
    <desc>Created with sketchtool.</desc>
    <g id="Asset-Artboard-Page" stroke="none" stroke-width="1" fill="none" fill-rule="evenodd" stroke-linecap="round" stroke-linejoin="round">
        <g id="Icon_Wash-+-Fold_Side-Panel" stroke="#000000" stroke-width="0.65">
            <path d="M1.23432915,10.9412659 L22.4621773,10.9412659 L21.3909874,22.1845061 C21.3092659,23.0418225 20.5892659,23.6962022 19.7283039,23.6962022 L3.96789878,23.6962022 C3.10693675,23.6962022 2.38724055,23.0415187 2.30551903,22.1845061 L1.23432915,10.9412659 Z M-2.17070806e-13,8.03969588 L23.6962031,8.03969588 L23.6962031,10.8419237 L-2.17070806e-13,10.8419237 L-2.17070806e-13,8.03969588 Z M4.55696203,13.1668865 L7.84830385,13.1668865 L4.55696203,13.1668865 Z M10.2027341,13.1668865 L13.4937721,13.1668865 L10.2027341,13.1668865 Z M15.8482028,13.1668865 L19.1392408,13.1668865 L15.8482028,13.1668865 Z M4.55696203,15.242734 L7.84830385,15.242734 L4.55696203,15.242734 Z M10.2027341,15.242734 L13.4937721,15.242734 L10.2027341,15.242734 Z M15.8482028,15.242734 L19.1392408,15.242734 L15.8482028,15.242734 Z M4.55696203,17.3188854 L7.84830385,17.3188854 L4.55696203,17.3188854 Z M10.2027341,17.3188854 L13.4937721,17.3188854 L10.2027341,17.3188854 Z M15.8482028,17.3188854 L19.1392408,17.3188854 L15.8482028,17.3188854 Z M4.55696203,19.3947338 L7.84830385,19.3947338 L4.55696203,19.3947338 Z M10.2027341,19.3947338 L13.4937721,19.3947338 L10.2027341,19.3947338 Z M15.8482028,19.3947338 L19.1392408,19.3947338 L15.8482028,19.3947338 Z M4.55696203,21.4705821 L7.84830385,21.4705821 L4.55696203,21.4705821 Z M10.2027341,21.4705821 L13.4937721,21.4705821 L10.2027341,21.4705821 Z M15.8482028,21.4705821 L19.1392408,21.4705821 L15.8482028,21.4705821 Z M21.2813162,2.62906338 C21.2813162,3.28131657 20.7527086,3.80992418 20.1004554,3.80992418 L3.56384816,3.80992418 C2.91159501,3.80992418 2.38298742,3.28131657 2.38298742,2.62906338 L2.38298742,2.5181773 C2.38298742,1.12739244 3.5103798,-1.29569083e-13 4.90116459,-1.29569083e-13 L18.763139,-1.29569083e-13 C20.1539238,-1.29569083e-13 21.2813162,1.12739244 21.2813162,2.5181773 L21.2813162,2.62906338 Z M22.3236452,6.72881022 L22.3236452,6.60577225 C22.3236452,5.06156973 21.0719996,3.80992418 19.5277971,3.80992418 L4.13681003,3.80992418 C2.59260753,3.80992418 1.34096198,5.06156973 1.34096198,6.60577225 L1.34096198,6.72881022 C1.34096198,7.45275958 1.92789868,8.04000008 2.65215183,8.04000008 L21.0127591,8.04000008 C21.7367085,8.03969629 22.3236452,7.45275958 22.3236452,6.72881022 Z" id="Icon_Wash-+-Fold_Left-Navigation"></path>
        </g>
    </g>
</svg>