<?xml version="1.0" encoding="UTF-8"?>
<svg width="42px" height="55px" viewBox="0 0 42 55" version="1.1" xmlns="http://www.w3.org/2000/svg" xmlns:xlink="http://www.w3.org/1999/xlink">
    <title>ABF65FE3-AB0A-4CAB-892C-4A03F54C02AE</title>
    <g id="Cents-Admin" stroke="none" stroke-width="1" fill="none" fill-rule="evenodd" stroke-linecap="round" stroke-linejoin="round">
        <g id="MACHINES-(Set-Up-Machine)" transform="translate(-675.000000, -401.000000)" stroke-width="1.5">
            <g id="SIDE-PANEL" transform="translate(545.000000, 200.000000)">
                <g id="Washer" transform="translate(91.000000, 172.000000)">
                    <g id="Icon_Washer-Selected_Side-Panel" transform="translate(40.000000, 30.000000)">
                        <path d="M7.87186441,28.3471186 C7.87186441,28.3471186 13.4061017,23.9505085 20.9369492,26.7308475 C28.4677966,29.5111864 31.8908475,27.3552542 31.8908475,27.3552542 L31.0501013,31.0096216 L28.4060202,35.2594276 L23.3245212,38.2231228 L17.9990033,38.4203278 L12.8435878,36.4641306 L9.99934078,33.5829665 L7.87186441,28.3471186 Z" id="Path" stroke="#0078FF" fill="#3790F4"></path>
                        <path d="M1.88293825e-13,0.0386440678 L39.7471186,0.0386440678 L39.7471186,53.0155932 L1.88293825e-13,53.0155932 L1.88293825e-13,0.0386440678 Z M0.296949153,6.47932203 L39.4494915,6.47932203 M19.8732203,10.7844068 C28.6513652,10.7844068 35.7674576,17.9004992 35.7674576,26.6786441 C35.7674576,35.4567889 28.6513652,42.5728814 19.8732203,42.5728814 C11.0950755,42.5728814 3.97898305,35.4567889 3.97898305,26.6786441 C3.97898305,17.9004992 11.0950755,10.7844068 19.8732203,10.7844068 Z M19.8732203,14.5132203 C13.1544423,14.5132203 7.70779661,19.9598661 7.70779661,26.6786441 C7.70779661,27.9378713 7.89911502,29.1524137 8.2542699,30.2947894 C9.79409215,35.2477144 14.4136696,38.8440678 19.8732203,38.8440678 C26.5919983,38.8440678 32.0386441,33.3974221 32.0386441,26.6786441 C32.0386441,19.9598661 26.5919983,14.5132203 19.8732203,14.5132203 Z M32.5376271,3.3159322 L35.1545763,3.3159322 M26.2128814,3.3159322 L28.8305085,3.3159322" stroke="#000000"></path>
                    </g>
                </g>
            </g>
        </g>
    </g>
</svg>