<svg width="22" height="22" viewBox="0 0 22 22" fill="none" xmlns="http://www.w3.org/2000/svg">
<path fill-rule="evenodd" clip-rule="evenodd" d="M9.00555 9.82929C8.34708 10.9355 8.71004 12.3661 9.81626 13.0245C10.9225 13.683 12.353 13.3201 13.0115 12.2138C13.67 11.1076 13.307 9.67707 12.2008 9.01859C11.0946 8.36011 9.66403 8.72308 9.00555 9.82929ZM9.5392 13.49C8.17592 12.6785 7.72862 10.9155 8.54011 9.55223C9.3516 8.18896 11.1146 7.74165 12.4779 8.55314C13.8411 9.36463 14.2885 11.1276 13.477 12.4909C12.6655 13.8542 10.9025 14.3015 9.5392 13.49Z" fill="#7B7B7B"/>
<path fill-rule="evenodd" clip-rule="evenodd" d="M10.4112 6.98657C8.19114 7.30049 6.64588 9.35482 6.95983 11.5751C7.27377 13.7953 9.32803 15.3407 11.5481 15.0268C13.7682 14.7128 15.3135 12.6585 14.9995 10.4383C14.6856 8.21801 12.6313 6.67265 10.4112 6.98657ZM6.42349 11.6509C6.06767 9.13448 7.81907 6.80605 10.3354 6.45024C12.8517 6.09443 15.18 7.84599 15.5358 10.3624C15.8917 12.8789 14.1403 15.2073 11.6239 15.5631C9.10763 15.9189 6.77932 14.1673 6.42349 11.6509Z" fill="#7B7B7B"/>
<path fill-rule="evenodd" clip-rule="evenodd" d="M12.9702 0.914826C12.908 0.95992 12.8678 1.02932 12.8598 1.10573C12.7607 2.04568 11.9657 2.77822 10.9997 2.77822C10.0338 2.77822 9.23855 2.04564 9.13972 1.10579C9.13169 1.02937 9.09156 0.959952 9.02934 0.914845C8.96713 0.869738 8.88867 0.853186 8.81354 0.869314C7.57052 1.13612 6.41146 1.62627 5.37804 2.29426C5.31353 2.33596 5.26976 2.40308 5.25763 2.47893C5.24549 2.55478 5.26614 2.63222 5.31442 2.69196C5.90808 3.42645 5.86362 4.50571 5.18089 5.18843C4.49817 5.87116 3.41891 5.91562 2.68442 5.32196C2.62468 5.27368 2.54724 5.25303 2.4714 5.26516C2.39555 5.2773 2.32842 5.32107 2.28672 5.38558C1.61874 6.419 1.12858 7.57806 0.861776 8.82108C0.845648 8.89621 0.862201 8.97466 0.907306 9.03688C0.952414 9.0991 1.02183 9.13923 1.09826 9.14726C2.0381 9.24609 2.77068 10.0413 2.77068 11.0073C2.77068 11.9732 2.0381 12.7685 1.09826 12.8673C1.02183 12.8753 0.952414 12.9155 0.907306 12.9777C0.862201 13.0399 0.845648 13.1184 0.861776 13.1935C1.12858 14.4365 1.61874 15.5956 2.28672 16.629C2.32842 16.6935 2.39555 16.7373 2.4714 16.7494C2.54724 16.7615 2.62468 16.7409 2.68442 16.6926C3.41893 16.0989 4.49842 16.1434 5.18086 16.8261C5.86359 17.5088 5.90808 18.5881 5.31442 19.3226C5.26614 19.3823 5.24549 19.4598 5.25763 19.5356C5.26976 19.6115 5.31353 19.6786 5.37804 19.7203C6.41146 20.3883 7.57052 20.8784 8.81354 21.1453C8.88866 21.1614 8.9671 21.1448 9.02932 21.0997C9.09153 21.0546 9.13166 20.9852 9.13972 20.9088C9.23878 19.9689 10.0338 19.2363 10.9997 19.2363C11.9657 19.2363 12.7609 19.9689 12.8598 20.9088C12.8678 20.9852 12.9079 21.0546 12.9701 21.0997C13.0324 21.1448 13.1108 21.1614 13.1859 21.1453C14.429 20.8784 15.588 20.3883 16.6214 19.7203C16.686 19.6786 16.7297 19.6115 16.7419 19.5356C16.754 19.4598 16.7333 19.3823 16.6851 19.3226C16.0914 18.5881 16.1359 17.5089 16.8186 16.8261C17.5013 16.1434 18.5806 16.0989 19.3151 16.6926C19.3748 16.7409 19.4522 16.7615 19.5281 16.7494C19.6039 16.7373 19.6711 16.6935 19.7128 16.629C20.3808 15.5956 20.8709 14.4365 21.1377 13.1935C21.1538 13.1184 21.1373 13.0399 21.0922 12.9777C21.0471 12.9155 20.9777 12.8754 20.9013 12.8673C19.9613 12.7682 19.2288 11.9732 19.2288 11.0073C19.2288 10.0413 19.9614 9.24609 20.9012 9.14726C20.9777 9.13923 21.0471 9.0991 21.0922 9.03688C21.1373 8.97466 21.1538 8.89621 21.1377 8.82108C20.8709 7.57806 20.3808 6.419 19.7128 5.38558C19.6711 5.32107 19.6039 5.2773 19.5281 5.26516C19.4522 5.25303 19.3748 5.27368 19.3151 5.32196C18.5806 5.91563 17.5011 5.87113 16.8186 5.18846C16.1359 4.50574 16.0914 3.42645 16.6851 2.69196C16.7333 2.63222 16.754 2.55478 16.7419 2.47893C16.7297 2.40308 16.686 2.33596 16.6214 2.29426C15.588 1.62627 14.429 1.13612 13.1859 0.869314C13.1108 0.853189 13.0324 0.869733 12.9702 0.914826ZM18.0828 5.99994C18.0828 5.99994 16.3677 5.46203 15.9995 4.33327C15.7676 3.62235 16.6087 2.47893 16.27 2.47893C15.4605 2.00232 14.2838 1.6918 13.3476 1.46221C13.0968 2.52716 12.1412 3.31989 10.9997 3.31989C9.85834 3.31989 8.90247 2.52722 8.65182 1.46223C7.67244 1.70241 6.75117 2.08987 5.91139 2.59928C6.48616 3.52936 6.37068 4.76467 5.56391 5.57145C4.75714 6.37822 3.52183 6.4937 2.59174 5.91893C2.08233 6.75871 1.69487 7.67998 1.45469 8.65936C2.51968 8.91001 3.31235 9.86588 3.31235 11.0073C3.31235 12.1487 2.51968 13.1046 1.45469 13.3552C1.69487 14.3346 2.08233 15.2559 2.59174 16.0956C3.52185 15.5209 4.75738 15.6363 5.56394 16.4431C6.37069 17.2499 6.48616 18.4852 5.9114 19.4153C6.75118 19.9247 7.67248 20.3122 8.65188 20.5524C8.90267 19.4874 9.85827 18.6947 10.9997 18.6947C12.1411 18.6947 13.097 19.4873 13.3477 20.5523C14.327 20.3122 15.2483 19.9247 16.0881 19.4153C15.5133 18.4852 15.6288 17.2499 16.4356 16.4431C17.2423 15.6363 18.4777 15.5209 19.4077 16.0956C19.9172 15.2558 20.3046 14.3345 20.5448 13.3551C19.4799 13.1044 18.6871 12.1488 18.6871 11.0073C18.6871 9.86588 19.4798 8.91001 20.5448 8.65936C20.3046 7.67998 19.9172 6.75871 19.4077 5.91893" fill="#7B7B7B"/>
<path fill-rule="evenodd" clip-rule="evenodd" d="M9.02934 0.914845C9.09156 0.959952 9.13169 1.02937 9.13972 1.10579C9.23855 2.04564 10.0338 2.77822 10.9997 2.77822C11.9657 2.77822 12.7607 2.04568 12.8598 1.10573C12.8678 1.02932 12.908 0.95992 12.9702 0.914826C13.0324 0.869733 13.1108 0.853189 13.1859 0.869314C14.429 1.13612 15.588 1.62627 16.6214 2.29426C16.686 2.33596 16.7297 2.40308 16.7419 2.47893C16.754 2.55478 16.7333 2.63222 16.6851 2.69196C16.0914 3.42645 16.1359 4.50574 16.8186 5.18846C17.5011 5.87113 18.5806 5.91563 19.3151 5.32196C19.3748 5.27368 19.4522 5.25303 19.5281 5.26516C19.6039 5.2773 19.6711 5.32107 19.7128 5.38558C20.3808 6.419 20.8709 7.57806 21.1377 8.82108C21.1538 8.89621 21.1373 8.97466 21.0922 9.03688C21.0471 9.0991 20.9777 9.13923 20.9012 9.14726C19.9614 9.24609 19.2288 10.0413 19.2288 11.0073C19.2288 11.9732 19.9613 12.7682 20.9013 12.8673C20.9777 12.8754 21.0471 12.9155 21.0922 12.9777C21.1373 13.0399 21.1538 13.1184 21.1377 13.1935C20.8709 14.4365 20.3808 15.5956 19.7128 16.629C19.6711 16.6935 19.6039 16.7373 19.5281 16.7494C19.4522 16.7615 19.3748 16.7409 19.3151 16.6926C18.5806 16.0989 17.5013 16.1434 16.8186 16.8261C16.1359 17.5089 16.0914 18.5881 16.6851 19.3226C16.7333 19.3823 16.754 19.4598 16.7419 19.5356C16.7297 19.6115 16.686 19.6786 16.6214 19.7203C15.588 20.3883 14.429 20.8784 13.1859 21.1453C13.1108 21.1614 13.0324 21.1448 12.9701 21.0997C12.9079 21.0546 12.8678 20.9852 12.8598 20.9088C12.7609 19.9689 11.9657 19.2363 10.9997 19.2363C10.0338 19.2363 9.23878 19.9689 9.13972 20.9088C9.13166 20.9852 9.09153 21.0546 9.02932 21.0997C8.9671 21.1448 8.88866 21.1614 8.81354 21.1453C7.57052 20.8784 6.41146 20.3883 5.37804 19.7203C5.31353 19.6786 5.26976 19.6115 5.25763 19.5356C5.24549 19.4598 5.26614 19.3823 5.31442 19.3226C5.90808 18.5881 5.86359 17.5088 5.18086 16.8261C4.49842 16.1434 3.41893 16.0989 2.68442 16.6926C2.62468 16.7409 2.54724 16.7615 2.4714 16.7494C2.39555 16.7373 2.32842 16.6935 2.28672 16.629C1.61874 15.5956 1.12858 14.4365 0.861776 13.1935C0.845648 13.1184 0.862201 13.0399 0.907306 12.9777C0.952414 12.9155 1.02183 12.8753 1.09826 12.8673C2.0381 12.7685 2.77068 11.9732 2.77068 11.0073C2.77068 10.0413 2.0381 9.24609 1.09826 9.14726C1.02183 9.13923 0.952414 9.0991 0.907306 9.03688C0.862201 8.97466 0.845648 8.89621 0.861776 8.82108C1.12858 7.57806 1.61874 6.419 2.28672 5.38558C2.32842 5.32107 2.39555 5.2773 2.4714 5.26516C2.54724 5.25303 2.62468 5.27368 2.68442 5.32196C3.41891 5.91562 4.49817 5.87116 5.18089 5.18843C5.86362 4.50571 5.90808 3.42645 5.31442 2.69196C5.26614 2.63222 5.24549 2.55478 5.25763 2.47893C5.26976 2.40308 5.31353 2.33596 5.37804 2.29426C6.41146 1.62627 7.57052 1.13612 8.81354 0.869314C8.88867 0.853186 8.96713 0.869738 9.02934 0.914845ZM3.91666 5.99994C3.91666 5.99994 5.63184 5.46203 5.99999 4.33327C6.23186 3.62235 5.39076 2.47893 5.72946 2.47893C6.53903 2.00232 7.71563 1.69181 8.65182 1.46223C8.90247 2.52722 9.85834 3.31989 10.9997 3.31989C12.1412 3.31989 13.0968 2.52716 13.3476 1.46221C14.327 1.70239 15.2483 2.08987 16.0881 2.59928C15.5133 3.52936 15.6288 4.76467 16.4356 5.57145C17.2424 6.37822 18.4777 6.4937 19.4077 5.91893C19.9172 6.75871 20.3046 7.67998 20.5448 8.65936C19.4798 8.91001 18.6871 9.86588 18.6871 11.0073C18.6871 12.1488 19.4799 13.1044 20.5448 13.3551C20.3046 14.3345 19.9172 15.2558 19.4077 16.0956C18.4777 15.5209 17.2423 15.6363 16.4356 16.4431C15.6288 17.2499 15.5133 18.4852 16.0881 19.4153C15.2483 19.9247 14.327 20.3122 13.3477 20.5523C13.097 19.4873 12.1411 18.6947 10.9997 18.6947C9.85827 18.6947 8.90267 19.4874 8.65188 20.5524C7.67248 20.3122 6.75118 19.9247 5.9114 19.4153C6.48616 18.4852 6.37069 17.2499 5.56394 16.4431C4.75738 15.6363 3.52185 15.5209 2.59174 16.0956C2.08233 15.2559 1.69487 14.3346 1.45469 13.3552C2.51968 13.1046 3.31235 12.1487 3.31235 11.0073C3.31235 9.86588 2.51968 8.91001 1.45469 8.65936C1.69487 7.67998 2.08233 6.75871 2.59174 5.91893" fill="#7B7B7B"/>
</svg>
