<?xml version="1.0" encoding="UTF-8"?>
<svg width="18px" height="18px" viewBox="0 0 18 18" version="1.1" xmlns="http://www.w3.org/2000/svg" xmlns:xlink="http://www.w3.org/1999/xlink">
    <title>Icon_Filter_Machines Panel</title>
    <g id="Cents-Admin" stroke="none" stroke-width="1" fill="none" fill-rule="evenodd" stroke-linecap="round" stroke-linejoin="round">
        <g id="LOCATIONS_Archived-Location" transform="translate(-480.000000, -203.000000)" stroke="#000000">
            <g id="LOCATIONS-LIST" transform="translate(148.000000, 98.000000)">
                <g id="Group" transform="translate(332.303460, 105.000000)">
                    <g id="Combined-Shape" transform="translate(0.568421, 0.568421)">
                        <path d="M5.15443415,4.67285421 C6.44611816,4.67143336 7.49208429,3.62422781 7.49066488,2.33385515 C7.48924547,1.04348249 6.44097802,-0.00141940508 5.14929401,1.44733403e-06 C3.85760999,0.00142229975 2.81164387,1.04862785 2.81306328,2.33900051 C2.81448269,3.62937317 3.86275013,4.67427506 5.15443415,4.67285421 Z M16.8367755,2.3355657 L7.66289141,2.3355657 M2.6982012,2.3355657 L0,2.3355657 M11.6471035,10.7551204 C12.9387875,10.7536995 13.9847537,9.70649396 13.9833342,8.4161213 C13.9819148,7.12574864 12.9336474,6.08084674 11.6419634,6.0822676 C10.3502794,6.08368845 9.30431324,7.130894 9.30573265,8.42126666 C9.30715206,9.71163932 10.3554195,10.7565412 11.6471035,10.7551204 Z M0,8.41752706 L9.17388408,8.41752706 M14.1385743,8.41752706 L16.8367755,8.41752706 M5.17191206,16.8359148 C6.46359607,16.8359148 7.51071286,15.7898611 7.51071286,14.4994884 C7.51071286,13.2091158 6.46359607,12.163062 5.17191206,12.163062 C3.88022804,12.163062 2.83311126,13.2091158 2.83311126,14.4994884 C2.83311126,15.7898611 3.88022804,16.8359148 5.17191206,16.8359148 Z M16.8367755,14.4994884 L7.66289141,14.4994884 M2.6982012,14.4994884 L0,14.4994884"></path>
                    </g>
                </g>
            </g>
        </g>
    </g>
</svg>
