<?xml version="1.0" encoding="UTF-8"?>
<svg width="24px" height="24px" viewBox="0 0 24 24" version="1.1" xmlns="http://www.w3.org/2000/svg" xmlns:xlink="http://www.w3.org/1999/xlink">
    <!-- Generator: sketchtool 55 (78076) - https://sketchapp.com -->
    <title>AD2E3C1D-4A4E-4F00-AA7A-035CB973FDC7</title>
    <desc>Created with sketchtool.</desc>
    <g id="Asset-Artboard-Page" stroke="none" stroke-width="1" fill="none" fill-rule="evenodd" stroke-linecap="round" stroke-linejoin="round">
        <g id="Icon_Location_Side-Panel" stroke="#000000" stroke-width="0.65">
            <g id="Icon_For-Sale_Side-Panel" transform="translate(13.920000, 11.000000) rotate(-315.000000) translate(-13.920000, -11.000000) translate(6.720000, -1.000000)">
                <path d="M12.7166249,4.52256345 L8.48849742,0.724642558 C7.53079911,-0.135787037 6.13862745,-0.126056339 5.19130626,0.747642389 L1.09562355,4.5240378 C0.526520822,5.04890575 0.198822513,5.81645141 0.198822513,6.62468908 L0.198822513,23.0857864 L13.6388225,23.0857864 L13.6388225,6.64621456 C13.6388225,5.8252975 13.3010202,5.0474314 12.7166249,4.52256345 Z" id="Path"></path>
                <path d="M8.21823395,3.45405845 C8.21823395,4.00631721 7.78840235,4.45405845 7.25823395,4.45405845 C6.72806554,4.45405845 6.29823395,4.00631721 6.29823395,3.45405845 C6.29823395,2.9017997 6.72806554,2.45405845 7.25823395,2.45405845 C7.78840235,2.45405845 8.21823395,2.9017997 8.21823395,3.45405845 Z" id="Path"></path>
            </g>
        </g>
    </g>
</svg>