<?xml version="1.0" encoding="UTF-8"?>
<svg width="21px" height="22px" viewBox="0 0 21 22" version="1.1" xmlns="http://www.w3.org/2000/svg" xmlns:xlink="http://www.w3.org/1999/xlink">
    <title>6686492F-07EC-442B-92BC-73B4F79DC1A3</title>
    <g id="Cents-Admin" stroke="none" stroke-width="1" fill="none" fill-rule="evenodd">
        <g id="Artboard" transform="translate(-28.000000, -482.000000)" fill="#BBBBBB" fill-rule="nonzero">
            <g id="SIDE-PANEL" transform="translate(0.000000, 3.000000)">
                <g id="Machine-Details" transform="translate(28.000000, 244.093750)">
                    <g id="LOCATION-TAG---PICO-BLVD-Copy-2" transform="translate(0.000000, 232.906250)">
                        <g id="Icon_Cents-Device" transform="translate(0.084000, 2.650000)">
                            <path d="M10.098,1.21 C9.5113304,1.21 8.97233579,1.41166465 8.481,1.815 C7.98966421,2.21833535 7.56800176,2.786663 7.216,3.52 C6.86399824,4.253337 6.59266762,5.13699483 6.402,6.171 C6.21133238,7.20500517 6.116,8.3453271 6.116,9.592 C6.116,10.8533396 6.27366509,11.9789951 6.589,12.969 C6.90433491,13.959005 7.34066388,14.7986632 7.898,15.488 C8.45533612,16.1773368 9.10799626,16.7053315 9.856,17.072 C10.6040037,17.4386685 11.4106623,17.622 12.276,17.622 C13.1120042,17.622 13.8783299,17.4973346 14.575,17.248 C15.2716702,16.9986654 15.887664,16.7200015 16.423,16.412 C16.958336,16.1039985 17.3983316,15.8106681 17.743,15.532 C18.0876684,15.2533319 18.3259993,15.084667 18.458,15.026 C18.6633344,14.9379996 18.8283327,14.9563327 18.953,15.081 C19.0776673,15.2056673 19.0740007,15.3926654 18.942,15.642 C18.8539996,15.8033341 18.7073344,16.0453317 18.502,16.368 C18.2966656,16.6906683 18.0216684,17.0463314 17.677,17.435 C17.3323316,17.8236686 16.9180024,18.2233313 16.434,18.634 C15.9499976,19.0446687 15.3890032,19.418665 14.751,19.756 C14.1129968,20.093335 13.3943373,20.3683323 12.595,20.581 C11.7956627,20.7936677 10.9046716,20.9 9.922,20.9 C8.39665904,20.9 7.02533942,20.6800022 5.808,20.24 C4.59066058,19.7999978 3.54933766,19.1546709 2.684,18.304 C1.81866234,17.4533291 1.15500231,16.4083395 0.693,15.169 C0.23099769,13.9296605 4.7783999e-13,12.5180079 4.7783999e-13,10.934 C4.7783999e-13,9.5406597 0.17599824,8.30133876 0.528,7.216 C0.88000176,6.13066124 1.34566377,5.1846707 1.925,4.378 C2.50433623,3.5713293 3.16799626,2.88933612 3.916,2.332 C4.66400374,1.77466388 5.43032941,1.32366839 6.215,0.979 C6.99967059,0.63433161 7.77332952,0.38500077 8.536,0.231 C9.29867048,0.07699923 9.98799692,7.28306304e-13 10.604,7.28306304e-13 C11.6013383,7.28306304e-13 12.5179958,0.09166575 13.354,0.275 C14.1900042,0.45833425 14.9086637,0.71499835 15.51,1.045 C16.1113363,1.37500165 16.580665,1.76366443 16.918,2.211 C17.255335,2.65833557 17.424,3.1386641 17.424,3.652 C17.424,4.10666894 17.3470008,4.48799846 17.193,4.796 C17.0389992,5.10400154 16.8410012,5.35699901 16.599,5.555 C16.3569988,5.75300099 16.0856682,5.89599956 15.785,5.984 C15.4843318,6.07200044 15.1800015,6.116 14.872,6.116 C14.4319978,6.116 14.0176686,6.03533414 13.629,5.874 C13.2403314,5.71266586 12.9213346,5.44133524 12.672,5.06 C12.4813324,4.78133194 12.3273339,4.4220022 12.21,3.982 C12.0926661,3.5419978 11.9570008,3.11666872 11.803,2.706 C11.6489992,2.29533128 11.4473346,1.9433348 11.198,1.65 C10.9486654,1.3566652 10.5820024,1.21 10.098,1.21 Z" id="c"></path>
                        </g>
                    </g>
                </g>
            </g>
        </g>
    </g>
</svg>