<?xml version="1.0" encoding="UTF-8"?>
<svg width="15px" height="21px" viewBox="0 0 15 21" version="1.1" xmlns="http://www.w3.org/2000/svg" xmlns:xlink="http://www.w3.org/1999/xlink">
    <!-- Generator: sketchtool 55 (78076) - https://sketchapp.com -->
    <title>88BB2317-64C3-44A2-AB0B-C837D5B2578C</title>
    <desc>Created with sketchtool.</desc>
    <g id="Cents-Admin" stroke="none" stroke-width="1" fill="none" fill-rule="evenodd" stroke-linecap="round" stroke-linejoin="round">
        <g id="GLOBAL-VIEW-(Account-Info)" transform="translate(-249.000000, -595.000000)" stroke="#000000" stroke-width="0.65">
            <g id="Icon_Region-District_Account-Settings" transform="translate(250.053418, 596.133924)">
                <path d="M13.3108861,6.65544304 C13.3108861,11.5427848 6.65544304,19.7468354 6.65544304,19.7468354 C6.65544304,19.7468354 2.30926389e-14,11.1473418 2.30926389e-14,6.65544304 C2.30926389e-14,2.97974684 2.97974684,-4.54747351e-13 6.65544304,-4.54747351e-13 C10.3311392,-4.54747351e-13 13.3108861,2.97974684 13.3108861,6.65544304 Z M7.77101648,8.56321094 C8.94129551,7.94565189 9.38936358,6.49632277 8.77180453,5.32604375 C8.15424548,4.15576472 6.70491637,3.70769665 5.53463734,4.3252557 C4.36435832,4.94281474 3.91629024,6.39214386 4.53384929,7.56242289 C5.15140834,8.73270191 6.60073746,9.18076998 7.77101648,8.56321094 Z"></path>
            </g>
        </g>
    </g>
</svg>