<?xml version="1.0" encoding="UTF-8"?>
<svg width="22px" height="22px" viewBox="0 0 22 22" version="1.1" xmlns="http://www.w3.org/2000/svg" xmlns:xlink="http://www.w3.org/1999/xlink">
    <!-- Generator: sketchtool 55 (78076) - https://sketchapp.com -->
    <title>C45C6020-E03E-412A-81FD-48D266E7B527</title>
    <desc>Created with sketchtool.</desc>
    <g id="Cents-Admin" stroke="none" stroke-width="1" fill="none" fill-rule="evenodd" stroke-linecap="round" stroke-linejoin="round">
        <g id="GLOBAL-VIEW-(Locations)" transform="translate(-575.000000, -277.000000)" stroke="#000000" stroke-width="0.65">
            <g id="SIDE-PANEL" transform="translate(546.000000, 168.000000)">
                <g id="Location-Info" transform="translate(30.000000, 110.000000)">
                    <g id="Icon_Location_Side-Panel">
                        <g>
                            <path d="M15.5966782,7.62962025 C15.2258001,7.41806207 14.9759494,7.02057649 14.9759494,6.56506329 L17.4443038,6.56506329 C17.4443038,7.02057649 17.1944531,7.41806207 16.823575,7.62962025 L18.0650326,7.62962025 C17.6941545,7.41806207 17.4443038,7.02057649 17.4443038,6.56506329 L2.63417722,6.56506329 C2.63417722,7.02057649 2.38432653,7.41806207 2.01344839,7.62962025 L3.25490604,7.62962025 C2.8840279,7.41806207 2.63417722,7.02057649 2.63417722,6.56506329 L5.10253165,6.56506329 C5.10253165,7.02057649 4.85268096,7.41806207 4.48180282,7.62962025 L5.72326047,7.62962025 C5.35238233,7.41806207 5.10253165,7.02057649 5.10253165,6.56506329 L7.57088608,6.56506329 C7.57088608,7.02057649 7.32103539,7.41806207 6.95015725,7.62962025 L8.1916149,7.62962025 C7.82073676,7.41806207 7.57088608,7.02057649 7.57088608,6.56506329 L10.0392405,6.56506329 C10.0392405,7.02057649 9.78938982,7.41806207 9.41851168,7.62962025 L10.6599693,7.62962025 C10.2890912,7.41806207 10.0392405,7.02057649 10.0392405,6.56506329 L12.5075949,6.56506329 C12.5075949,7.02057649 12.2577442,7.41806207 11.8868661,7.62962025 L13.1283238,7.62962025 C12.7574456,7.41806207 12.5075949,7.02057649 12.5075949,6.56506329 L14.9759494,6.56506329 C14.9759494,7.02057649 14.7260987,7.41806207 14.3552205,7.62962025 L15.5966782,7.62962025 Z M0.786551608,7.62962025 C0.415673473,7.41806207 0.165822785,7.02057649 0.165822785,6.56506329 L0.956962025,0.134177215 L19.1848101,0.134177215 L19.9126582,6.56506329 C19.9126582,7.02057649 19.6628075,7.41806207 19.2919294,7.62962025 L19.3407595,7.62962025 L19.3407595,19.8807595 L0.673924051,19.8807595 L0.673924051,7.62962025 L0.786551608,7.62962025 Z M2.01344839,7.62962025 L0.786551608,7.62962025 C0.967267145,7.73270492 1.17671776,7.79164557 1.4,7.79164557 C1.62328224,7.79164557 1.83273286,7.73270492 2.01344839,7.62962025 Z M19.2919294,7.62962025 L18.0650326,7.62962025 C18.2457482,7.73270492 18.4551988,7.79164557 18.678481,7.79164557 C18.9017633,7.79164557 19.1112139,7.73270492 19.2919294,7.62962025 Z M2.25341772,15.3240506 L2.25341772,18.4250633 L4.43291139,18.4250633 L4.43291139,15.3240506 L2.25341772,15.3240506 Z M5.93240506,15.3240506 L5.93240506,18.4250633 L8.11189873,18.4250633 L8.11189873,15.3240506 L5.93240506,15.3240506 Z M9.61139241,15.3240506 L9.61139241,18.4250633 L11.7908861,18.4250633 L11.7908861,15.3240506 L9.61139241,15.3240506 Z M13.3602532,19.8807595 L13.3602532,7.73139241 L13.3602532,19.8807595 Z M2.63417722,6.56506329 L5.10253165,6.56506329 L2.63417722,6.56506329 Z M4.48180282,7.62962025 L3.25490604,7.62962025 C3.43562158,7.73270492 3.64507219,7.79164557 3.86835443,7.79164557 C4.09163667,7.79164557 4.30108729,7.73270492 4.48180282,7.62962025 Z M5.72326047,7.62962025 C5.90397601,7.73270492 6.11342662,7.79164557 6.33670886,7.79164557 C6.5599911,7.79164557 6.76944172,7.73270492 6.95015725,7.62962025 L5.72326047,7.62962025 Z M7.57088608,6.56506329 L5.10253165,6.56506329 L7.57088608,6.56506329 Z M7.57088608,6.56506329 L10.0392405,6.56506329 L7.57088608,6.56506329 Z M9.41851168,7.62962025 L8.1916149,7.62962025 C8.37233044,7.73270492 8.58178105,7.79164557 8.80506329,7.79164557 C9.02834553,7.79164557 9.23779615,7.73270492 9.41851168,7.62962025 Z M10.6599693,7.62962025 C10.8406849,7.73270492 11.0501355,7.79164557 11.2734177,7.79164557 C11.4967,7.79164557 11.7061506,7.73270492 11.8868661,7.62962025 L10.6599693,7.62962025 Z M12.5075949,6.56506329 L10.0392405,6.56506329 L12.5075949,6.56506329 Z M12.5075949,6.56506329 L14.9759494,6.56506329 L12.5075949,6.56506329 Z M14.3552205,7.62962025 L13.1283238,7.62962025 C13.3090393,7.73270492 13.5184899,7.79164557 13.7417722,7.79164557 C13.9650544,7.79164557 14.174505,7.73270492 14.3552205,7.62962025 Z M15.5966782,7.62962025 C15.7773937,7.73270492 15.9868443,7.79164557 16.2101266,7.79164557 C16.4334088,7.79164557 16.6428594,7.73270492 16.823575,7.62962025 L15.5966782,7.62962025 Z M17.4443038,6.56506329 L14.9759494,6.56506329 L17.4443038,6.56506329 Z M2.62835443,0.227594937 L2.62835443,6.2678481 L2.62835443,0.227594937 Z M5.10253165,0.264556962 L5.10253165,6.30481013 L5.10253165,0.264556962 Z M7.57088608,0.264556962 L7.57088608,6.30481013 L7.57088608,0.264556962 Z M10.0425316,0.264556962 L10.0425316,6.30481013 L10.0425316,0.264556962 Z M12.5075949,0.264556962 L12.5075949,6.30481013 L12.5075949,0.264556962 Z M14.9759494,0.264556962 L14.9759494,6.30481013 L14.9759494,0.264556962 Z M17.4443038,0.264556962 L17.4443038,6.30481013 L17.4443038,0.264556962 Z M0.324050633,6.43139241 L19.7070886,6.43139241 L0.324050633,6.43139241 Z M13.4837975,18.4463291 L19.2288608,18.4463291 L13.4837975,18.4463291 Z M0.805316456,13.8681013 L13.2389873,13.8681013 L0.805316456,13.8681013 Z M18.0298734,13.7551899 L18.0298734,14.2716456 L18.0298734,13.7551899 Z"></path>
                        </g>
                    </g>
                </g>
            </g>
        </g>
    </g>
</svg>