<?xml version="1.0" encoding="UTF-8"?>
<svg width="17px" height="22px" viewBox="0 0 17 22" version="1.1" xmlns="http://www.w3.org/2000/svg" xmlns:xlink="http://www.w3.org/1999/xlink">
    <!-- Generator: sketchtool 55 (78076) - https://sketchapp.com -->
    <title>98D28DC8-1566-4532-B714-74105A3C9463</title>
    <desc>Created with sketchtool.</desc>
    <g id="Cents-Admin" stroke="none" stroke-width="1" fill="none" fill-rule="evenodd" stroke-linecap="round" stroke-linejoin="round">
        <g id="CUSTOMERS-(Registered-Customer-Selected)" transform="translate(-23.000000, -379.000000)" stroke="#BCDAFB">
            <g id="LEFT-NAVIGATION" transform="translate(0.000000, 60.000000)">
                <g id="Icons---vertical-nav" transform="translate(14.000000, 42.000000)">
                    <g id="Icon_Machine_Left-Navigation_Unselected" transform="translate(10.173671, 278.000000)">
                        <path d="M6.75015599e-14,6.8567374e-13 L14.8422785,6.8567374e-13 L14.8422785,19.7825316 L6.75015599e-14,19.7825316 L6.75015599e-14,6.8567374e-13 Z M7.42126582,15.8827848 C10.6991807,15.8827848 13.3564557,13.2255098 13.3564557,9.94759494 C13.3564557,6.66968008 10.6991807,4.01240506 7.42126582,4.01240506 C4.14335097,4.01240506 1.48607595,6.66968008 1.48607595,9.94759494 C1.48607595,13.2255098 4.14335097,15.8827848 7.42126582,15.8827848 Z M7.42126582,14.4903797 C4.91235505,14.4903797 2.87848101,12.4565057 2.87848101,9.94759494 C2.87848101,7.43868416 4.91235505,5.40481013 7.42126582,5.40481013 C9.9301766,5.40481013 11.9640506,7.43868416 11.9640506,9.94759494 C11.9640506,12.4565057 9.9301766,14.4903797 7.42126582,14.4903797 Z M0.111139241,2.40506329 L14.7313924,2.40506329 L0.111139241,2.40506329 Z M0.111139241,17.4903797 L14.7313924,17.4903797 L0.111139241,17.4903797 Z M12.1501266,1.2235443 L13.1273418,1.2235443 L12.1501266,1.2235443 Z M9.78860759,1.2235443 L10.7658228,1.2235443 L9.78860759,1.2235443 Z M10.0794937,9.21443038 L10.0794937,10.6807595 L10.0794937,9.21443038 Z" id="Icon_Machine_Left-Navigation"></path>
                    </g>
                </g>
            </g>
        </g>
    </g>
</svg>