<?xml version="1.0" encoding="UTF-8"?>
<svg width="38px" height="38px" viewBox="0 0 38 38" version="1.1" xmlns="http://www.w3.org/2000/svg" xmlns:xlink="http://www.w3.org/1999/xlink">
    <!-- Generator: sketchtool 55 (78076) - https://sketchapp.com -->
    <title>7B20B492-AC7A-4067-9BA9-7408B3BA21C4</title>
    <desc>Created with sketchtool.</desc>
    <defs>
        <path d="M6,10 C4.9,10 4,10.9 4,12 C4,13.1 4.9,14 6,14 C7.1,14 8,13.1 8,12 C8,10.9 7.1,10 6,10 Z M18,10 C16.9,10 16,10.9 16,12 C16,13.1 16.9,14 18,14 C19.1,14 20,13.1 20,12 C20,10.9 19.1,10 18,10 Z M12,10 C10.9,10 10,10.9 10,12 C10,13.1 10.9,14 12,14 C13.1,14 14,13.1 14,12 C14,10.9 13.1,10 12,10 Z" id="path-1"></path>
    </defs>
    <g id="Cents-Admin" stroke="none" stroke-width="1" fill="none" fill-rule="evenodd">
        <g id="MACHINES-(Side-Panel-3-Dot-Menu)" transform="translate(-935.000000, -205.000000)">
            <g id="SIDE-PANEL" transform="translate(546.000000, 200.000000)">
                <g id="Icon_Menu-Selected_Side-Panel" transform="translate(390.000000, 6.000000)">
                    <g>
                        <g id="icon/navigation/more_horiz_24px" transform="translate(6.000000, 6.000000)">
                            <mask id="mask-2" fill="white">
                                <use xlink:href="#path-1"></use>
                            </mask>
                            <g fill-rule="nonzero"></g>
                            <g id="↳-Color" mask="url(#mask-2)" fill="#000000" fill-opacity="0.87">
                                <rect id="Rectangle-3" x="0" y="0" width="24" height="24"></rect>
                            </g>
                        </g>
                        <circle id="Oval" stroke="#0C0C0C" cx="18" cy="18" r="18"></circle>
                    </g>
                </g>
            </g>
        </g>
    </g>
</svg>