<?xml version="1.0" encoding="UTF-8"?>
<svg width="24px" height="26px" viewBox="0 0 24 26" version="1.1" xmlns="http://www.w3.org/2000/svg" xmlns:xlink="http://www.w3.org/1999/xlink">
    <!-- Generator: sketchtool 55 (78076) - https://sketchapp.com -->
    <title>EFA79DAF-5393-41E9-81A4-CA114583DD86</title>
    <desc>Created with sketchtool.</desc>
    <g id="Cents-Admin" stroke="none" stroke-width="1" fill="none" fill-rule="evenodd">
        <g id="GLOBAL-VIEW-(Locations---3-Dot-Menu)" transform="translate(-925.000000, -22.000000)" fill="#4E9EF7" fill-rule="nonzero">
            <g id="TOP-NAVIGATION">
                <g id="Icon_Notifications_Top-Navigation" transform="translate(925.000000, 22.000000)">
                    <path d="M23.2647828,21.2939871 C23.673032,21.2939871 24.001799,21.6245605 23.9999926,22.0328097 C23.9999926,22.4410589 23.673032,22.7734387 23.2629764,22.7734387 L15.0185111,22.7734387 C14.6752928,24.1517312 13.4794479,25.1976439 11.9981899,25.1976439 C10.513319,25.1976439 9.31747417,24.1517312 8.97786867,22.7734387 L0.737016181,22.7734387 C0.328767022,22.7734387 1.0658141e-14,22.4428653 1.0658141e-14,22.0328097 C1.0658141e-14,21.626367 0.32696061,21.2939871 0.737016181,21.2939871 C3.03477251,21.2939871 4.9712464,17.3198802 4.9712464,12.6159829 L4.9712464,9.45656791 C4.9712464,6.18696181 7.21842318,3.4628922 10.2423572,2.67529648 C10.1357789,2.44046289 10.0833929,2.18756518 10.0833929,1.91840976 C10.0833929,0.859852211 10.9450516,-2.38031816e-13 12,-2.38031816e-13 C13.0567474,-2.38031816e-13 13.9184061,0.859852211 13.9184061,1.91840976 C13.9184061,2.18756518 13.8624073,2.4422693 13.7594418,2.67529648 C16.7833758,3.4628922 19.0305526,6.19057464 19.0305526,9.45656791 L19.0305526,12.6159829 C19.0305526,17.3198802 20.9688329,21.2939871 23.2647828,21.2939871 Z M14.4260079,21.2939871 L20.2498808,21.2939871 C18.620497,19.5237031 17.551101,16.3335792 17.551101,12.6159829 L17.551101,9.45656791 C17.551101,6.3928928 15.0600586,3.90365678 11.9981899,3.90365678 C8.93993402,3.90365678 6.45250441,6.3928928 6.45250441,9.45656791 L6.45250441,12.6159829 C6.45250441,16.3335792 5.38310838,19.5255096 3.75011174,21.2939871 L9.56856546,21.2939871 L14.4260079,21.2939871 Z M11.9981899,23.7145795 C12.6629496,23.7145795 13.2373887,23.3316201 13.5155761,22.7734387 L10.4808036,22.7734387 C10.7553783,23.3298137 11.3316238,23.7145795 11.9981899,23.7145795 Z M11.9981899,1.4794516 C11.7597435,1.4794516 11.564651,1.67635053 11.564651,1.91840976 C11.564651,2.4115603 12.4389545,2.40614106 12.4353416,1.91840976 C12.4353416,1.67635053 12.2420555,1.4794516 11.9981899,1.4794516 Z"></path>
                </g>
            </g>
        </g>
    </g>
</svg>