<?xml version="1.0" encoding="UTF-8"?>
<svg width="22px" height="22px" viewBox="0 0 22 22" version="1.1" xmlns="http://www.w3.org/2000/svg" xmlns:xlink="http://www.w3.org/1999/xlink">
    <!-- Generator: sketchtool 55 (78076) - https://sketchapp.com -->
    <title>895969A5-ADE3-4CB4-BC75-BBE7E2FFABAD</title>
    <desc>Created with sketchtool.</desc>
    <g id="Cents-Admin" stroke="none" stroke-width="1" fill="none" fill-rule="evenodd" stroke-linecap="round" stroke-linejoin="round">
        <g id="MACHINES-(Side-Panel---Run-Machine---Wash-Cycle-Details_2)" transform="translate(-690.000000, -478.000000)" stroke="#000000" stroke-width="0.65">
            <g id="SIDE-PANEL" transform="translate(547.000000, 200.000000)">
                <g id="Notes" transform="translate(131.000000, 267.000000)">
                    <g id="Icon_Notes_Cycle-Details" transform="translate(13.000000, 12.000000)">
                        <path d="M6.09918966,18.7644274 L0.477178931,19.9885211 C0.17795032,20.0536489 -0.054099288,19.8215993 0.0110284474,19.5223707 L1.23512218,13.9003599 L14.4709242,0.664557955 C15.2632261,-0.127744023 16.4498842,-0.225435626 17.1216743,0.446097992 L19.553708,2.87813173 C20.2252416,3.54966535 20.12755,4.73657987 19.335248,5.52888184 L6.09918966,18.7644274 Z M13.5255464,1.87480564 L18.1244875,6.47374682 M12.4932461,2.90710588 L17.0921873,7.50604707 M1.46947947,13.9308725 L6.06842066,18.5298137 M13.8240057,4.4327359 L3.00921195,15.2475297 M15.5665573,6.17503103 L4.75176349,16.9898248 M0.482563508,17.7741781 L2.22485863,19.5167297"></path>
                    </g>
                </g>
            </g>
        </g>
    </g>
</svg>