<?xml version="1.0" encoding="UTF-8"?>
<svg width="55px" height="55px" viewBox="0 0 55 55" version="1.1" xmlns="http://www.w3.org/2000/svg" xmlns:xlink="http://www.w3.org/1999/xlink">
    <!-- Generator: sketchtool 55 (78076) - https://sketchapp.com -->
    <title>FAEC8042-92C9-466C-864A-EB512ED6BC82</title>
    <desc>Created with sketchtool.</desc>
    <g id="Cents-Admin" stroke="none" stroke-width="1" fill="none" fill-rule="evenodd">
        <g id="MACHINES-(Side-Panel---Run-Machine---Wash-Type_2)" transform="translate(-826.000000, -388.000000)" stroke="#000000">
            <g id="SIDE-PANEL" transform="translate(546.000000, 200.000000)">
                <g id="Customer-Service---Selected" transform="translate(242.000000, 163.000000)">
                    <g id="Icon_Customer-Service_Run-Machine" transform="translate(39.000000, 26.000000)">
                        <path d="M53.0526316,48.8756842 L32.7334737,37.7782105 C32.7325263,37.7782105 32.7315789,37.7772632 32.7306316,37.7763158 C32.7230526,37.7725263 32.7183158,37.764 32.7107368,37.7592632 C32.5837895,37.6853684 32.4862105,37.5830526 32.4094737,37.4674737 C32.4,37.4532632 32.3829474,37.4475789 32.3744211,37.4333684 C32.3545263,37.3992632 32.3526316,37.3613684 32.3365263,37.3263158 C32.31,37.2656842 32.2853684,37.2078947 32.2721053,37.1425263 C32.2588421,37.0828421 32.256,37.026 32.2550526,36.9663158 C32.2541053,36.9056842 32.2541053,36.8469474 32.2645263,36.7863158 C32.2758947,36.7218947 32.2976842,36.6631579 32.3213684,36.6025263 C32.3365263,36.5665263 32.3365263,36.5286316 32.3554737,36.4926316 C32.3658947,36.4746316 32.3838947,36.4632632 32.3952632,36.4462105 C32.4293684,36.3931579 32.472,36.3486316 32.5155789,36.3031579 C32.5610526,36.2557895 32.6046316,36.2103158 32.6576842,36.1743158 C32.6747368,36.1629474 32.6842105,36.1449474 32.7022105,36.1345263 C39.6928421,31.9594737 39.7894737,20.8004211 39.7894737,20.6876842 L39.7818947,9.954 C38.7587368,4.11252632 32.0551579,0.0397894737 26.6068421,-3.7658765e-13 C26.5803158,0.00284210526 26.5528421,0.00378947368 26.5263158,0.00378947368 C21.0618947,0.00378947368 14.2995789,4.08694737 13.2745263,9.95589474 L13.2631579,20.6933684 C13.2631579,20.8004211 13.3607368,31.6582105 20.4044211,36.1487368 C20.4186316,36.1582105 20.4262105,36.1733684 20.4404211,36.1828421 C20.4906316,36.2188421 20.5294737,36.2652632 20.5721053,36.3097895 C20.6166316,36.3581053 20.6621053,36.4026316 20.6952632,36.4566316 C20.7037895,36.4708421 20.718,36.4793684 20.7265263,36.4935789 C20.7473684,36.5324211 20.7483158,36.5741053 20.7634737,36.6148421 C20.7871579,36.6754737 20.8108421,36.7342105 20.8212632,36.7986316 C20.8307368,36.8611579 20.8278947,36.9208421 20.8250526,36.9833684 C20.8231579,37.0421053 20.8222105,37.098 20.8089474,37.1557895 C20.7937895,37.2221053 20.7663158,37.2817895 20.7369474,37.3433684 C20.7198947,37.3803158 20.7161053,37.4210526 20.6933684,37.4570526 C20.6838947,37.4703158 20.6696842,37.4778947 20.6602105,37.4911579 C20.6242105,37.5413684 20.5777895,37.5821053 20.5313684,37.6256842 C20.4830526,37.6702105 20.4385263,37.7156842 20.3835789,37.7488421 C20.3703158,37.7573684 20.3627368,37.7715789 20.3475789,37.7791579 L-2.84217094e-14,48.8804211 L-2.84217094e-14,52.1052632 C-2.84217094e-14,52.6272632 0.396947368,53.0526316 0.884842105,53.0526316 L52.1677895,53.0526316 C52.6556842,53.0526316 53.0526316,52.6272632 53.0526316,52.1052632 L53.0526316,48.8756842 Z"></path>
                    </g>
                </g>
            </g>
        </g>
    </g>
</svg>