<?xml version="1.0" encoding="UTF-8"?>
<svg width="48px" height="48px" viewBox="0 0 48 48" version="1.1" xmlns="http://www.w3.org/2000/svg" xmlns:xlink="http://www.w3.org/1999/xlink">
    <!-- Generator: sketchtool 55 (78076) - https://sketchapp.com -->
    <title>D678379C-50CD-404F-BFFC-440D82C5AC08</title>
    <desc>Created with sketchtool.</desc>
    <g id="Asset-Artboard-Page" stroke="none" stroke-width="1" fill="none" fill-rule="evenodd">
        <g id="Icon_Clock_Side-Panel" stroke="#000000">
            <path d="M47.1578946,43.4450525 L29.0964209,33.5806315 C29.0955788,33.5806315 29.0947367,33.5797893 29.0938946,33.5789472 C29.0871578,33.5755788 29.0829473,33.5679999 29.0762104,33.5637893 C28.9633683,33.4981051 28.8766315,33.4071578 28.8084209,33.3044209 C28.7999999,33.2917893 28.784842,33.2867367 28.777263,33.2741051 C28.7595788,33.2437893 28.7578946,33.2101051 28.7435788,33.1789472 C28.7199999,33.1250525 28.6981052,33.0736841 28.6863157,33.0155788 C28.6745262,32.9625262 28.6719999,32.9119999 28.6711578,32.8589472 C28.6703157,32.8050525 28.6703157,32.752842 28.6795788,32.6989472 C28.6896841,32.6416841 28.7090525,32.5894736 28.7301052,32.5355788 C28.7435788,32.5035788 28.7435788,32.4698946 28.7604209,32.4378946 C28.7696841,32.4218946 28.7856841,32.4117894 28.7957894,32.3966315 C28.8261052,32.3494736 28.8639999,32.3098946 28.9027367,32.2694736 C28.9431578,32.2273683 28.9818946,32.1869472 29.0290525,32.1549472 C29.0442104,32.144842 29.0526315,32.128842 29.0686315,32.1195788 C35.2825262,28.4084209 35.3684209,18.4892631 35.3684209,18.3890526 L35.3616841,8.84799997 C34.4522104,3.65557893 28.4934736,0.0353684209 23.6505262,-3.34744578e-13 C23.6269473,0.00252631578 23.6025262,0.00336842104 23.5789473,0.00336842104 C18.7216841,0.00336842104 12.7107368,3.63284209 11.7995789,8.84968418 L11.7894736,18.3941052 C11.7894736,18.4892631 11.8762105,28.1406315 18.1372631,32.1322104 C18.1498947,32.1406315 18.1566315,32.1541051 18.1692631,32.1625262 C18.2138947,32.1945262 18.248421,32.2357894 18.2863157,32.2753683 C18.3258947,32.3183157 18.3663157,32.3578946 18.3957894,32.4058946 C18.4033684,32.4185262 18.4159999,32.4261051 18.4235789,32.4387367 C18.4421052,32.473263 18.4429473,32.5103157 18.456421,32.5465262 C18.4774736,32.6004209 18.4985262,32.6526315 18.5077894,32.7098946 C18.5162105,32.7654736 18.5136841,32.8185262 18.5111578,32.8741051 C18.5094736,32.9263157 18.5086315,32.9759999 18.496842,33.0273683 C18.4833684,33.0863157 18.4589473,33.1393683 18.432842,33.1941051 C18.4176841,33.2269472 18.4143157,33.2631578 18.3941052,33.2951578 C18.3856841,33.3069472 18.3730526,33.3136841 18.3646315,33.3254736 C18.3326315,33.3701051 18.2913684,33.4063157 18.2501052,33.4450525 C18.2071578,33.4846315 18.1675789,33.5250525 18.1187368,33.5545262 C18.1069473,33.5621051 18.1002105,33.5747367 18.0867368,33.5814736 L-2.52637417e-14,43.449263 L-2.52637417e-14,46.3157893 C-2.52637417e-14,46.7797893 0.352842104,47.1578946 0.786526313,47.1578946 L46.3713682,47.1578946 C46.8050525,47.1578946 47.1578946,46.7797893 47.1578946,46.3157893 L47.1578946,43.4450525 Z" id="Icon_Customer-Service_Run-Machine"></path>
        </g>
    </g>
</svg>