<?xml version="1.0" encoding="UTF-8"?>
<svg width="21px" height="21px" viewBox="0 0 21 21" version="1.1" xmlns="http://www.w3.org/2000/svg" xmlns:xlink="http://www.w3.org/1999/xlink">
    <!-- Generator: sketchtool 55 (78076) - https://sketchapp.com -->
    <title>A04CF72C-BA34-47ED-AEA5-61AB3CF7169C</title>
    <desc>Created with sketchtool.</desc>
    <g id="Cents-Admin" stroke="none" stroke-width="1" fill="none" fill-rule="evenodd">
        <g id="GLOBAL-VIEW-(Account-Info)" transform="translate(-246.000000, -489.000000)" stroke="#000000" stroke-width="0.65">
            <g id="Icon_Phone_Account-Settings" transform="translate(247.000000, 490.000000)">
                <path d="M11.6870007,13.7007048 C11.6870007,13.7007048 13.3066007,12.7735048 13.7306007,12.5507048 C14.1534007,12.3271048 14.5914007,12.2707048 14.8574007,12.4331048 C15.2602007,12.6795048 18.6426007,14.9295048 18.9274007,15.1287048 C19.2122007,15.3283048 19.3494007,15.8983048 18.9578007,16.4567048 C18.5678007,17.0151048 16.7686007,19.2231048 16.0062007,19.1995048 C15.2426007,19.1747048 12.0678007,19.1051048 6.08100066,13.1167048 C0.0954006561,7.13030485 0.0246006561,3.95470485 0.000200656083,3.19110485 C-0.0241993439,2.42790485 2.18380066,0.628304848 2.74220066,0.237904848 C3.30140066,-0.152095152 3.87220066,-0.00529515169 4.07060066,0.269104848 C4.29620066,0.581504848 6.52020066,3.95310485 6.76500066,4.33950485 C6.93260066,4.60350485 6.87100066,5.04390485 6.64740066,5.46710485 C6.42500066,5.89110485 5.49780066,7.51070485 5.49780066,7.51070485 C5.49780066,7.51070485 6.15140066,8.62550485 8.36180066,10.8355048 C10.5726007,13.0459048 11.6870007,13.7007048 11.6870007,13.7007048 Z"></path>
            </g>
        </g>
    </g>
</svg>