<?xml version="1.0" encoding="UTF-8"?>
<svg width="22px" height="22px" viewBox="0 0 22 22" version="1.1" xmlns="http://www.w3.org/2000/svg" xmlns:xlink="http://www.w3.org/1999/xlink">
    <!-- Generator: sketchtool 55 (78076) - https://sketchapp.com -->
    <title>1C33BC02-F3FF-400A-A26D-72D4EB9BDDC0</title>
    <desc>Created with sketchtool.</desc>
    <g id="Cents-Admin" stroke="none" stroke-width="1" fill="none" fill-rule="evenodd">
        <g id="MACHINES-(Side-Panel---Run-Machine---Wash-Cycle-Details_2)" transform="translate(-688.000000, -426.000000)">
            <g id="SIDE-PANEL" transform="translate(547.000000, 200.000000)">
                <g id="Reason" transform="translate(131.000000, 216.000000)">
                    <g id="Icon_Reason_Cycle-Details" transform="translate(11.000000, 11.000000)">
                        <g>
                            <circle id="Oval" stroke="#000000" stroke-width="0.65" cx="10" cy="10" r="10"></circle>
                            <path d="M9.31313922,12.3828125 C9.31834758,11.7005174 9.37563867,11.2252618 9.48501422,10.9570312 C9.59438976,10.6888007 9.89126179,10.3333355 10.3756392,9.890625 C10.938142,9.30728875 11.3482942,8.81901238 11.606108,8.42578125 C11.8639218,8.03255012 11.9928267,7.53385719 11.9928267,6.9296875 C11.9928267,6.2630175 11.8157452,5.74739766 11.4615767,5.3828125 C11.1074083,5.01822734 10.602205,4.8359375 9.94595172,4.8359375 C9.33136531,4.8359375 8.83657859,5.01432113 8.46157672,5.37109375 C8.08657484,5.72786637 7.89647258,6.21093445 7.89126422,6.8203125 L7.01626422,6.8203125 L7.00063922,6.7734375 C6.98501414,5.9140582 7.25584476,5.23698164 7.81313922,4.7421875 C8.37043367,4.24739336 9.08136406,4 9.94595172,4 C10.878248,4 11.6087095,4.2630182 12.137358,4.7890625 C12.6660064,5.3151068 12.9303267,6.02603719 12.9303267,6.921875 C12.9303267,7.62500352 12.7571514,8.2486952 12.4107955,8.79296875 C12.0644396,9.3372423 11.5735591,9.90624703 10.9381392,10.5 C10.6152209,10.776043 10.4186083,11.033853 10.3482955,11.2734375 C10.2779826,11.513022 10.2428267,11.88281 10.2428267,12.3828125 L9.31313922,12.3828125 Z M10.3678267,15.5390625 L9.28188922,15.5390625 L9.28188922,14.3359375 L10.3678267,14.3359375 L10.3678267,15.5390625 Z" id="?" fill="#000000" fill-rule="nonzero"></path>
                        </g>
                    </g>
                </g>
            </g>
        </g>
    </g>
</svg>