<?xml version="1.0" encoding="UTF-8"?>
<svg width="20px" height="20px" viewBox="0 0 20 20" version="1.1" xmlns="http://www.w3.org/2000/svg" xmlns:xlink="http://www.w3.org/1999/xlink">
    <!-- Generator: Sketch 55 (78076) - https://sketchapp.com -->
    <title>Icon_Report Type</title>
    <desc>Created with Sketch.</desc>
    <g id="Cents-Admin" stroke="none" stroke-width="1" fill="none" fill-rule="evenodd">
        <g id="ORDERS-Copy-2" transform="translate(-753.000000, -324.000000)" fill="#000000">
            <g id="Report-Popover" transform="translate(722.000000, 245.000000)">
                <g id="Icon_Report-Type" transform="translate(31.000000, 79.000000)">
                    <g>
                        <path d="M0.25,20 L14.8046875,20 C14.9428711,20 15.0546875,19.8880615 15.0546875,19.75 L15.0546875,16.8023834 C15.3391266,16.9098968 15.549881,17.1688385 15.5834961,17.487793 C15.5908203,17.5583496 15.6279297,17.6224365 15.6853027,17.6640625 C15.7282715,17.6953125 15.7797852,17.7116699 15.8320313,17.7116699 C15.8496094,17.7116699 15.8671875,17.7098389 15.8845215,17.7060547 C16.5131836,17.5712891 17.107666,17.324707 17.651123,16.9735107 C17.7106933,16.9350586 17.7509766,16.8730469 17.762207,16.8029785 C17.7734375,16.7330322 17.7543945,16.661499 17.7097168,16.6063232 C17.4433594,16.2768555 17.46875,15.8022461 17.7687988,15.5021973 C18.0688476,15.2023926 18.5441894,15.1768799 18.8730469,15.4431152 C18.9284668,15.4876709 19,15.5072022 19.0698242,15.4954834 C19.1398926,15.484375 19.2016602,15.4439697 19.2402344,15.3843994 C19.5913086,14.8411865 19.8376465,14.2469483 19.9726562,13.618042 C19.9875488,13.5487061 19.9724121,13.4761963 19.930664,13.4188233 C19.8891601,13.3614502 19.8249511,13.3243408 19.7543945,13.3168946 C19.3327637,13.272461 19.0148926,12.9188233 19.0148926,12.4941407 C19.0148926,12.0694581 19.3327637,11.7158204 19.7543945,11.6715088 C19.8249512,11.6640625 19.888916,11.6270752 19.930664,11.5695801 C19.9724121,11.5122071 19.9875488,11.4398194 19.9726562,11.3703614 C19.8378906,10.7414551 19.5913086,10.1470948 19.2402344,9.60388188 C19.2016601,9.54431158 19.1398926,9.5039063 19.0698242,9.4927979 C19,9.48132325 18.9284668,9.50073243 18.8730469,9.54516603 C18.5441894,9.81164552 18.0688476,9.7862549 17.7687988,9.486084 C17.46875,9.18603518 17.4433594,8.7114258 17.7097168,8.38195802 C17.7543945,8.32678225 17.7734375,8.25524905 17.762207,8.18530275 C17.7509765,8.1152344 17.7106933,8.05322268 17.651123,8.01477052 C17.107666,7.66357422 16.5131836,7.4169922 15.8845215,7.28222657 C15.8154297,7.267334 15.7429199,7.28247072 15.6853027,7.32421877 C15.6279297,7.36584475 15.5908203,7.42993167 15.5834961,7.5004883 C15.5483551,7.83399965 15.3186035,8.09974672 15.0143585,8.19744875 L15.0546875,4.89343262 C15.0547485,4.8880005 15.052063,4.88343812 15.0517883,4.87808227 C15.0506286,4.85520935 15.0464783,4.8331604 15.0391846,4.81147765 C15.0363769,4.8031616 15.0341644,4.7950897 15.0305328,4.78720092 C15.0199432,4.76400757 15.006073,4.7424469 14.9883881,4.7230072 C14.9860992,4.7204895 14.984787,4.71733092 14.9824066,4.71492005 C14.9820251,4.71452333 14.9818268,4.71400453 14.9814453,4.71362305 L10.3412781,0.0734558 C10.3409424,0.0731201 10.3405151,0.07292175 10.3401947,0.0726013 C10.3193512,0.0519409 10.295105,0.03684995 10.2694855,0.024917575 C10.261734,0.021270725 10.2536316,0.01922605 10.2454681,0.0163879 C10.2242737,0.009048425 10.2027435,0.0046844 10.1803589,0.003234825 C10.1747589,0.0028534 10.1699982,0 10.1643066,0 L0.25,0 C0.1118164,0 0,0.111938475 0,0.25 L0,19.75 C0,19.8880615 0.1118164,20 0.25,20 Z M16.0214844,7.82958985 C16.4223633,7.9375 16.8059082,8.0966797 17.1672363,8.30493165 C16.9138183,8.8067627 17.0021973,9.42651367 17.4152832,9.83959962 C17.8283692,10.2528076 18.4484863,10.3411865 18.9499512,10.0876465 C19.1582031,10.4487305 19.3173828,10.8325196 19.425293,11.2332764 C18.8908692,11.4084473 18.5148926,11.9093018 18.5148926,12.4941406 C18.5148926,13.0788574 18.8908691,13.5797119 19.425293,13.7550049 C19.3173828,14.1557617 19.1582031,14.5395508 18.9499512,14.9006348 C18.4484863,14.6473389 17.8283692,14.7354736 17.4152832,15.1486816 C17.0021973,15.5617676 16.9138183,16.1815186 17.1672363,16.6833496 C16.8059082,16.8916016 16.4223633,17.0507813 16.0214844,17.1586914 C15.8464355,16.6242676 15.345459,16.248291 14.7607422,16.248291 C14.1760254,16.248291 13.6750488,16.6242676 13.5,17.1586914 C13.0991211,17.0507812 12.7155762,16.8916015 12.354248,16.6833496 C12.607666,16.1815185 12.5192871,15.5617676 12.1062012,15.1486816 C11.6931152,14.7357177 11.0734863,14.6469726 10.5715332,14.9006347 C10.3632812,14.5395508 10.2041015,14.1560058 10.0961914,13.7551269 C10.6306152,13.579834 11.0065918,13.0788574 11.0065918,12.4941406 C11.0065918,11.9093017 10.6306152,11.4084473 10.0961914,11.2332764 C10.2041015,10.8323975 10.3632812,10.4486084 10.5715332,10.0876465 C11.0737305,10.3411865 11.6928711,10.2528076 12.1062012,9.83959962 C12.5192871,9.42651367 12.607666,8.8067627 12.354248,8.30493165 C12.7155762,8.0966797 13.0991211,7.9375 13.5,7.82958985 C13.67453,8.36244203 14.1732025,8.73736572 14.7556915,8.73957825 C14.7563629,8.7395935 14.756897,8.73997497 14.7575683,8.73999022 C14.758789,8.73999022 14.7597656,8.73999022 14.7607422,8.73999022 C15.345459,8.73999022 15.8464355,8.36401367 16.0214844,7.82958985 Z M10.4143067,0.853515625 L14.2011719,4.64038085 L10.4143067,4.64038085 L10.4143067,0.853515625 Z M0.5,0.5 L9.91430665,0.5 L9.91430665,4.89038085 C9.91430665,5.02844238 10.0261231,5.14038085 10.1643067,5.14038085 L14.5516052,5.14038085 L14.5142517,8.19947815 C14.2064972,8.10369873 13.9734039,7.83657837 13.9379883,7.50048827 C13.930664,7.42993162 13.8935547,7.36584472 13.8361816,7.32421875 C13.7788086,7.2824707 13.7060547,7.26757812 13.6369629,7.28222655 C13.0080566,7.41711425 12.4138183,7.6635742 11.8706054,8.0147705 C11.8110351,8.05322265 11.7707519,8.11523438 11.7595215,8.18518065 C11.748291,8.255249 11.767334,8.32666015 11.8117676,8.38183592 C12.0781193,8.71142577 12.0527344,9.18603515 11.7526855,9.48608397 C11.4526367,9.78588867 10.9780273,9.81127928 10.6486816,9.545166 C10.5932617,9.5007324 10.5224609,9.48132323 10.4519043,9.49279783 C10.3820801,9.50390622 10.3200683,9.5443115 10.2814941,9.6038818 C9.9301758,10.1468505 9.6838379,10.7412109 9.54882812,11.3703613 C9.53393555,11.4398193 9.54907227,11.512207 9.59082032,11.56958 C9.63256837,11.6270752 9.69653322,11.6640625 9.76708985,11.6715087 C10.1887207,11.7158203 10.5065918,12.069458 10.5065918,12.4941406 C10.5065918,12.9188232 10.1887207,13.272583 9.76708985,13.3168945 C9.6965332,13.3243408 9.63232422,13.3614501 9.59082032,13.4188232 C9.54907227,13.4761962 9.53393555,13.548706 9.54882812,13.6180419 C9.6838379,14.2471923 9.93041992,14.8415527 10.2814941,15.3843993 C10.3200684,15.4439696 10.3820801,15.4843749 10.4519043,15.4954833 C10.5224609,15.5072021 10.5932617,15.4876708 10.6486816,15.4431151 C10.9782715,15.1768798 11.4528809,15.2023925 11.7526855,15.5021972 C12.0527344,15.802246 12.0781193,16.2768554 11.8117676,16.6064452 C11.767334,16.661621 11.748291,16.7330321 11.7595215,16.8031005 C11.7707519,16.8730468 11.8110351,16.9350585 11.8706054,16.9735106 C12.4138183,17.3247069 13.0080566,17.5711669 13.6369629,17.7060546 C13.7058105,17.7210692 13.7788086,17.7056884 13.8361816,17.6640624 C13.8935547,17.6224364 13.930664,17.5583495 13.9379883,17.4877929 C13.974945,17.1371154 14.2269287,16.8611754 14.5546875,16.7772368 L14.5546875,19.5 L0.5,19.5 L0.5,0.5 Z" id="Shape" fill-rule="nonzero"></path>
                        <path d="M12.4807129,12.4941406 C12.4807129,13.7513428 13.503418,14.7741699 14.7607422,14.7741699 C16.0180664,14.7741699 17.0407715,13.7513428 17.0407715,12.4941406 C17.0407715,11.2369385 16.0180664,10.2141113 14.7607422,10.2141113 C13.503418,10.2141113 12.4807129,11.2369385 12.4807129,12.4941406 Z M16.5407715,12.4941406 C16.5407715,13.475708 15.7421875,14.2741699 14.7607422,14.2741699 C13.7792969,14.2741699 12.9807129,13.475708 12.9807129,12.4941406 C12.9807129,11.5125732 13.7792969,10.7141113 14.7607422,10.7141113 C15.7421875,10.7141113 16.5407715,11.5125732 16.5407715,12.4941406 Z" id="Shape" fill-rule="nonzero"></path>
                        <path d="M4.20654298,2.52526855 L2.251709,2.52526855 C2.1135254,2.52526855 2.001709,2.63720702 2.001709,2.77526855 C2.001709,2.91333007 2.1135254,3.02526855 2.251709,3.02526855 L4.20654298,3.02526855 C4.34472658,3.02526855 4.45654298,2.91333007 4.45654298,2.77526855 C4.45654298,2.63720702 4.34472655,2.52526855 4.20654298,2.52526855 Z" id="Path" fill-rule="nonzero"></path>
                        <path d="M8.22729492,2.52526855 L6.27270507,2.52526855 C6.13452147,2.52526855 6.02270507,2.63720702 6.02270507,2.77526855 C6.02270507,2.91333007 6.13452147,3.02526855 6.27270507,3.02526855 L8.22729492,3.02526855 C8.36547852,3.02526855 8.47729492,2.91333007 8.47729492,2.77526855 C8.47729492,2.63720702 8.36547852,2.52526855 8.22729492,2.52526855 Z" id="Path" fill-rule="nonzero"></path>
                        <path d="M4.20654298,4.64038085 L2.251709,4.64038085 C2.1135254,4.64038085 2.001709,4.75231932 2.001709,4.89038085 C2.001709,5.02844237 2.1135254,5.14038085 2.251709,5.14038085 L4.20654298,5.14038085 C4.34472658,5.14038085 4.45654298,5.02844237 4.45654298,4.89038085 C4.45654298,4.75231932 4.34472655,4.64038085 4.20654298,4.64038085 Z" id="Path" fill-rule="nonzero"></path>
                        <path d="M8.22729492,4.64038085 L6.27270507,4.64038085 C6.13452147,4.64038085 6.02270507,4.75231932 6.02270507,4.89038085 C6.02270507,5.02844237 6.13452147,5.14038085 6.27270507,5.14038085 L8.22729492,5.14038085 C8.36547852,5.14038085 8.47729492,5.02844237 8.47729492,4.89038085 C8.47729492,4.75231932 8.36547852,4.64038085 8.22729492,4.64038085 Z" id="Path" fill-rule="nonzero"></path>
                        <path d="M4.20654298,6.75549318 L2.251709,6.75549318 C2.1135254,6.75549318 2.001709,6.86743165 2.001709,7.00549318 C2.001709,7.1435547 2.1135254,7.25549318 2.251709,7.25549318 L4.20654298,7.25549318 C4.34472658,7.25549318 4.45654298,7.1435547 4.45654298,7.00549318 C4.45654298,6.86743165 4.34472655,6.75549318 4.20654298,6.75549318 Z" id="Path" fill-rule="nonzero"></path>
                        <path d="M8.22729492,6.75549318 L6.27270507,6.75549318 C6.13452147,6.75549318 6.02270507,6.86743165 6.02270507,7.00549318 C6.02270507,7.1435547 6.13452147,7.25549318 6.27270507,7.25549318 L8.22729492,7.25549318 C8.36547852,7.25549318 8.47729492,7.1435547 8.47729492,7.00549318 C8.47729492,6.86743165 8.36547852,6.75549318 8.22729492,6.75549318 Z" id="Path" fill-rule="nonzero"></path>
                        <path d="M4.20654298,8.81445312 L2.251709,8.81445312 C2.1135254,8.81445312 2.001709,8.9263916 2.001709,9.06445312 C2.001709,9.20251465 2.1135254,9.31445312 2.251709,9.31445312 L4.20654298,9.31445312 C4.34472658,9.31445312 4.45654298,9.20251465 4.45654298,9.06445312 C4.45654298,8.9263916 4.34472655,8.81445312 4.20654298,8.81445312 Z" id="Path" fill-rule="nonzero"></path>
                        <path d="M8.22729492,8.81445312 L6.27270507,8.81445312 C6.13452147,8.81445312 6.02270507,8.9263916 6.02270507,9.06445312 C6.02270507,9.20251465 6.13452147,9.31445312 6.27270507,9.31445312 L8.22729492,9.31445312 C8.36547852,9.31445312 8.47729492,9.20251465 8.47729492,9.06445312 C8.47729492,8.9263916 8.36547852,8.81445312 8.22729492,8.81445312 Z" id="Path" fill-rule="nonzero"></path>
                        <path d="M4.20654298,10.873291 L2.251709,10.873291 C2.1135254,10.873291 2.001709,10.9852295 2.001709,11.123291 C2.001709,11.2613526 2.1135254,11.373291 2.251709,11.373291 L4.20654298,11.373291 C4.34472658,11.373291 4.45654298,11.2613526 4.45654298,11.123291 C4.45654298,10.9852295 4.34472655,10.873291 4.20654298,10.873291 Z" id="Path" fill-rule="nonzero"></path>
                        <path d="M8.22729492,10.873291 L6.27270507,10.873291 C6.13452147,10.873291 6.02270507,10.9852295 6.02270507,11.123291 C6.02270507,11.2613526 6.13452147,11.373291 6.27270507,11.373291 L8.22729492,11.373291 C8.36547852,11.373291 8.47729492,11.2613526 8.47729492,11.123291 C8.47729492,10.9852295 8.36547852,10.873291 8.22729492,10.873291 Z" id="Path" fill-rule="nonzero"></path>
                        <path d="M4.20654298,12.932251 L2.251709,12.932251 C2.1135254,12.932251 2.001709,13.0441894 2.001709,13.182251 C2.001709,13.3203125 2.1135254,13.432251 2.251709,13.432251 L4.20654298,13.432251 C4.34472658,13.432251 4.45654298,13.3203125 4.45654298,13.182251 C4.45654298,13.0441894 4.34472655,12.932251 4.20654298,12.932251 Z" id="Path" fill-rule="nonzero"></path>
                        <path d="M8.22729492,12.932251 L6.27270507,12.932251 C6.13452147,12.932251 6.02270507,13.0441894 6.02270507,13.182251 C6.02270507,13.3203125 6.13452147,13.432251 6.27270507,13.432251 L8.22729492,13.432251 C8.36547852,13.432251 8.47729492,13.3203125 8.47729492,13.182251 C8.47729492,13.0441894 8.36547852,12.932251 8.22729492,12.932251 Z" id="Path" fill-rule="nonzero"></path>
                        <path d="M4.20654298,14.991211 L2.251709,14.991211 C2.1135254,14.991211 2.001709,15.1031494 2.001709,15.241211 C2.001709,15.3792725 2.1135254,15.491211 2.251709,15.491211 L4.20654298,15.491211 C4.34472658,15.491211 4.45654298,15.3792725 4.45654298,15.241211 C4.45654298,15.1031494 4.34472655,14.991211 4.20654298,14.991211 Z" id="Path" fill-rule="nonzero"></path>
                        <path d="M8.22729492,14.991211 L6.27270507,14.991211 C6.13452147,14.991211 6.02270507,15.1031494 6.02270507,15.241211 C6.02270507,15.3792725 6.13452147,15.491211 6.27270507,15.491211 L8.22729492,15.491211 C8.36547852,15.491211 8.47729492,15.3792725 8.47729492,15.241211 C8.47729492,15.1031494 8.36547852,14.991211 8.22729492,14.991211 Z" id="Path" fill-rule="nonzero"></path>
                        <path d="M4.20654298,17.0500488 L2.251709,17.0500488 C2.1135254,17.0500488 2.001709,17.1619873 2.001709,17.3000488 C2.001709,17.4381103 2.1135254,17.5500488 2.251709,17.5500488 L4.20654298,17.5500488 C4.34472658,17.5500488 4.45654298,17.4381103 4.45654298,17.3000488 C4.45654298,17.1619873 4.34472655,17.0500488 4.20654298,17.0500488 Z" id="Path" fill-rule="nonzero"></path>
                        <path d="M8.22729492,17.0500488 L6.27270507,17.0500488 C6.13452147,17.0500488 6.02270507,17.1619873 6.02270507,17.3000488 C6.02270507,17.4381103 6.13452147,17.5500488 6.27270507,17.5500488 L8.22729492,17.5500488 C8.36547852,17.5500488 8.47729492,17.4381103 8.47729492,17.3000488 C8.47729492,17.1619873 8.36547852,17.0500488 8.22729492,17.0500488 Z" id="Path" fill-rule="nonzero"></path>
                    </g>
                </g>
            </g>
        </g>
    </g>
</svg>