<?xml version="1.0" encoding="UTF-8"?>
<svg width="20px" height="20px" viewBox="0 0 20 20" version="1.1" xmlns="http://www.w3.org/2000/svg" xmlns:xlink="http://www.w3.org/1999/xlink">
    <!-- Generator: sketchtool 55 (78076) - https://sketchapp.com -->
    <title>F8E12CA4-3D86-4DF8-A9F1-E8B5646964BF</title>
    <desc>Created with sketchtool.</desc>
    <defs>
        <path d="M12,2 C6.48,2 2,6.48 2,12 C2,17.52 6.48,22 12,22 C17.52,22 22,17.52 22,12 C22,6.48 17.52,2 12,2 Z M12,20 C7.58,20 4,16.42 4,12 C4,7.58 7.58,4 12,4 C16.42,4 20,7.58 20,12 C20,16.42 16.42,20 12,20 Z M12,7 C9.23857625,7 7,9.23857625 7,12 C7,14.7614237 9.23857625,17 12,17 C14.7614237,17 17,14.7614237 17,12 C17,9.23857625 14.7614237,7 12,7 L12,7 Z" id="path-1"></path>
    </defs>
    <g id="Cents-Admin" stroke="none" stroke-width="1" fill="none" fill-rule="evenodd">
        <g id="MACHINES-(Set-Up-Machine)" transform="translate(-687.000000, -486.000000)">
            <g id="SIDE-PANEL" transform="translate(546.000000, 203.000000)">
                <g id="Washer" transform="translate(91.000000, 159.000000)">
                    <g id="Icon_Radio-Button-Selected_Side-Panel" transform="translate(48.000000, 122.000000)">
                        <g>
                            <mask id="mask-2" fill="white">
                                <use xlink:href="#path-1"></use>
                            </mask>
                            <g id="icon/toggle/radio_button_checked_24px" fill-rule="nonzero"></g>
                            <g id="↳-Color" mask="url(#mask-2)" fill="#3790F4">
                                <g id="↳-Tonal-Palette">
                                    <g id="Rectangle-13">
                                        <rect x="0" y="0" width="24" height="24"></rect>
                                    </g>
                                </g>
                            </g>
                        </g>
                    </g>
                </g>
            </g>
        </g>
    </g>
</svg>