<svg width="91" height="79" viewBox="0 0 91 79" fill="none" xmlns="http://www.w3.org/2000/svg">
<path d="M43.8356 75.9281C34.4935 79.1691 15.5073 83.5821 4.07417 67.0157C-7.96398 49.5727 9.67406 28.6331 18.3072 18.3667C26.9404 8.10019 43.0401 -8.81614 65.5563 5.53358C88.0725 19.8833 94.8391 34.1164 87.4892 49.7494C80.1394 65.3824 53.7996 72.4714 43.8356 75.9281Z" fill="#1773C6"/>
<path d="M14.9832 22.3685C5.9831 33.4453 -6.51275 51.5367 4.01492 66.9281H67.6299C73.5476 64.027 79.2378 60.4141 83.3184 55.8972V22.3685H14.9832Z" fill="#105A91"/>
<path d="M13.237 24.556C4.93076 35.1663 -4.81171 50.8412 2.68042 64.7406H71.7846C75.1934 62.808 78.4055 60.6075 81.1309 58.0987V24.556H13.237Z" fill="#98C7E5"/>
<path d="M3.11719 56.9424L30.6491 24.556H32.4676L5.87619 61.4951L3.11719 56.9424Z" fill="#DCECFF"/>
<path d="M24.4397 57.0915L64.6429 24.556H66.0947L26.0923 61.9288L24.4397 57.0915Z" fill="#DCECFF"/>
<path d="M81.1553 27.5743L49.2888 62.6744L51.5456 62.8004L81.131 33.196L81.1553 27.5743Z" fill="#DCECFF"/>
<path d="M10.6574 63.0465H1.85498C2.43969 64.3852 3.17321 65.7103 4.07414 67.0157C6.28848 70.2243 8.78628 72.6453 11.4423 74.4409V63.8315C11.4423 63.398 11.0909 63.0465 10.6574 63.0465Z" fill="#ADD0EA"/>
<path d="M11.4424 62.3262V56.0836C11.4424 55.6858 11.1199 55.3633 10.7221 55.3633H0.0380859C0.182209 57.9464 0.751755 60.5207 1.85501 63.0465H10.7221C11.1199 63.0465 11.4424 62.7241 11.4424 62.3262Z" fill="#ADD0EA"/>
<path d="M11.4424 54.0335H0.000732422C0.00098836 54.4769 0.0133938 54.9202 0.0381145 55.3633H11.4424V54.0335Z" fill="#1773C6"/>
<path d="M2.41686 56.4246H0.121338C0.128278 56.4928 0.135798 56.5609 0.143364 56.6291H2.21229V61.7807H1.34775C1.37266 61.8489 1.39726 61.9171 1.42292 61.9852H2.41686V56.4246Z" fill="white"/>
<path d="M1.06771 57.201C1.06771 57.0582 0.951939 56.9424 0.809133 56.9424H0.555182L0.297852 57.7665C0.462247 58.777 0.697476 59.7844 1.00998 60.7861C1.04585 60.7266 1.06771 60.6577 1.06771 60.5832V57.201Z" fill="#CC630D"/>
<path d="M7.79996 56.5269H3.45044V61.883H7.79996V56.5269Z" fill="#F2B283"/>
<path d="M6.30377 57.5157H4.21214C4.15566 57.5157 4.10986 57.4699 4.10986 57.4134C4.10986 57.3569 4.15566 57.3111 4.21214 57.3111H6.30377C6.36025 57.3111 6.40604 57.3569 6.40604 57.4134C6.40604 57.4699 6.36025 57.5157 6.30377 57.5157Z" fill="#CC630D"/>
<path d="M6.30377 58.4288H4.21214C4.15566 58.4288 4.10986 58.383 4.10986 58.3266C4.10986 58.2701 4.15566 58.2243 4.21214 58.2243H6.30377C6.36025 58.2243 6.40604 58.2701 6.40604 58.3266C6.40604 58.383 6.36025 58.4288 6.30377 58.4288Z" fill="#CC630D"/>
<path d="M6.30377 58.8958H4.21214C4.15566 58.8958 4.10986 58.85 4.10986 58.7935C4.10986 58.7371 4.15566 58.6913 4.21214 58.6913H6.30377C6.36025 58.6913 6.40604 58.7371 6.40604 58.7935C6.40604 58.85 6.36025 58.8958 6.30377 58.8958Z" fill="#CC630D"/>
<path d="M6.30377 59.3628H4.21214C4.15566 59.3628 4.10986 59.317 4.10986 59.2605C4.10986 59.204 4.15566 59.1582 4.21214 59.1582H6.30377C6.36025 59.1582 6.40604 59.204 6.40604 59.2605C6.40605 59.317 6.36025 59.3628 6.30377 59.3628Z" fill="#CC630D"/>
<path d="M6.30377 60.7889H4.21214C4.15566 60.7889 4.10986 60.7431 4.10986 60.6866C4.10986 60.6301 4.15566 60.5844 4.21214 60.5844H6.30377C6.36025 60.5844 6.40604 60.6301 6.40604 60.6866C6.40604 60.7431 6.36025 60.7889 6.30377 60.7889Z" fill="#CC630D"/>
<path d="M10.6858 63.0465C10.6858 62.99 10.64 62.9442 10.5835 62.9442H1.81006C1.83946 63.0124 1.86963 63.0806 1.89981 63.1488H10.5835C10.64 63.1488 10.6858 63.103 10.6858 63.0465Z" fill="white"/>
<path d="M10.6857 55.3633C10.6857 55.3069 10.6399 55.261 10.5835 55.261H0.0319824C0.0354903 55.3292 0.0398789 55.3974 0.0439739 55.4656H10.5834C10.6399 55.4656 10.6857 55.4198 10.6857 55.3633Z" fill="white"/>
<path d="M0.179443 56.9424C0.223864 57.298 0.277716 57.6532 0.339442 58.008L0.555221 56.9424H0.179443Z" fill="#EF9D59"/>
<path d="M49.9009 63.0465H12.6114C12.1778 63.0465 11.8264 63.398 11.8264 63.8315V74.6961C22.8179 81.8387 36.3898 78.5112 43.8355 75.9281C45.648 75.2994 48.0026 74.5502 50.6858 73.6516V63.8315C50.6858 63.398 50.3344 63.0465 49.9009 63.0465Z" fill="#ADD0EA"/>
<path d="M49.9655 63.0466H12.5467C12.1489 63.0466 11.8264 62.7241 11.8264 62.3263V56.0836C11.8264 55.6858 12.1489 55.3633 12.5467 55.3633H49.9655C50.3633 55.3633 50.6858 55.6858 50.6858 56.0836V62.3263C50.6858 62.7241 50.3633 63.0466 49.9655 63.0466Z" fill="#ADD0EA"/>
<path d="M50.6858 54.0335H11.8264V55.3633H50.6858V54.0335Z" fill="#1773C6"/>
<path d="M31.2562 69.6031C25.7814 69.6031 21.1301 73.1272 19.4458 78.0306C27.8244 80.2066 36.5326 78.2985 42.3807 76.4149C40.3145 72.3715 36.1087 69.6031 31.2562 69.6031Z" fill="#3790F4"/>
<path d="M31.2562 71.9118C26.8902 71.9118 23.1669 74.6615 21.7222 78.5234C28.3511 79.683 35.0057 78.5372 40.1253 77.0959C38.3797 74.0016 35.0622 71.9118 31.2562 71.9118Z" fill="#1773C6"/>
<path d="M36.5426 74.9776C35.4125 74.4683 33.9318 74.681 33.9318 74.681C34.3984 73.7698 35.2167 73.2856 35.9016 73.0295C32.3045 71.1808 27.7938 71.5885 24.5595 74.4082C23.2358 75.5623 22.2859 76.9842 21.7139 78.522C26.8357 79.4195 31.9733 78.9401 36.4068 78.0109C36.8119 76.314 36.5426 74.9776 36.5426 74.9776Z" fill="#EF9D59"/>
<path d="M18.3145 56.5269H14.2512V61.883H18.3145V56.5269Z" stroke="white" stroke-width="0.204555" stroke-linecap="round"/>
<path d="M17.9381 59.7821H14.6274V61.5136H17.9381V59.7821Z" fill="#3790F4"/>
<path d="M15.3317 58.1799C15.4337 58.1799 15.5164 58.0972 15.5164 57.9952C15.5164 57.8932 15.4337 57.8105 15.3317 57.8105C15.2297 57.8105 15.147 57.8932 15.147 57.9952C15.147 58.0972 15.2297 58.1799 15.3317 58.1799Z" fill="#EF9D59"/>
<path d="M14.3757 59.5004H18.1897" stroke="white" stroke-width="0.204555" stroke-linecap="round"/>
<path d="M15.0962 57.0533L15.8073 57.7643" stroke="#EF9D59" stroke-width="0.204555" stroke-linecap="round"/>
<path d="M15.0962 58.4846L15.8073 59.1957" stroke="#EF9D59" stroke-width="0.204555" stroke-linecap="round"/>
<path d="M17.137 57.3673H16.3428C16.2332 57.3673 16.1443 57.2784 16.1443 57.1687C16.1443 57.059 16.2332 56.9702 16.3428 56.9702H17.137C17.2467 56.9702 17.3356 57.059 17.3356 57.1687C17.3356 57.2784 17.2467 57.3673 17.137 57.3673Z" fill="#EF9D59"/>
<path d="M16.2828 60.9353C16.4415 60.9353 16.5702 60.8066 16.5702 60.6478C16.5702 60.4891 16.4415 60.3604 16.2828 60.3604C16.124 60.3604 15.9954 60.4891 15.9954 60.6478C15.9954 60.8066 16.124 60.9353 16.2828 60.9353Z" fill="white"/>
<path d="M41.558 56.5269H21.5835V61.883H41.558V56.5269Z" stroke="white" stroke-width="0.204555" stroke-linecap="round"/>
<path d="M28.5776 56.7855V61.6244" stroke="white" stroke-width="0.204555" stroke-linecap="round" stroke-linejoin="round"/>
<path d="M26.5737 57.2887H24.0803V58.4246H26.5737V57.2887Z" fill="#EF9D59"/>
<path d="M27.5986 58.1799C27.7771 58.1799 27.9218 58.0352 27.9218 57.8567C27.9218 57.6782 27.7771 57.5334 27.5986 57.5334C27.4201 57.5334 27.2754 57.6782 27.2754 57.8567C27.2754 58.0352 27.4201 58.1799 27.5986 58.1799Z" fill="#3790F4"/>
<path d="M22.8891 57.7736C22.9694 57.7736 23.0345 57.7084 23.0345 57.6281C23.0345 57.5478 22.9694 57.4827 22.8891 57.4827C22.8088 57.4827 22.7437 57.5478 22.7437 57.6281C22.7437 57.7084 22.8088 57.7736 22.8891 57.7736Z" stroke="white" stroke-width="0.102277" stroke-linecap="round" stroke-linejoin="round"/>
<path d="M23.4016 58.2861C23.4819 58.2861 23.547 58.221 23.547 58.1406C23.547 58.0603 23.4819 57.9952 23.4016 57.9952C23.3212 57.9952 23.2561 58.0603 23.2561 58.1406C23.2561 58.221 23.3212 58.2861 23.4016 58.2861Z" stroke="white" stroke-width="0.102277" stroke-linecap="round" stroke-linejoin="round"/>
<path d="M22.6743 58.3484L23.5747 57.448" stroke="white" stroke-width="0.102277" stroke-linecap="round" stroke-linejoin="round"/>
<path d="M24.0052 58.8956C24.0702 58.8956 24.1229 58.8429 24.1229 58.7778C24.1229 58.7128 24.0702 58.6601 24.0052 58.6601C23.9402 58.6601 23.8875 58.7128 23.8875 58.7778C23.8875 58.8429 23.9402 58.8956 24.0052 58.8956Z" fill="#3790F4"/>
<path d="M24.8433 58.8956C24.9083 58.8956 24.9611 58.8429 24.9611 58.7778C24.9611 58.7128 24.9083 58.6601 24.8433 58.6601C24.7783 58.6601 24.7256 58.7128 24.7256 58.7778C24.7256 58.8429 24.7783 58.8956 24.8433 58.8956Z" fill="#3790F4"/>
<path d="M25.6812 58.8956C25.7462 58.8956 25.799 58.8429 25.799 58.7778C25.799 58.7128 25.7462 58.6601 25.6812 58.6601C25.6162 58.6601 25.5635 58.7128 25.5635 58.7778C25.5635 58.8429 25.6162 58.8956 25.6812 58.8956Z" fill="#3790F4"/>
<path d="M26.5194 58.8956C26.5844 58.8956 26.6371 58.8429 26.6371 58.7778C26.6371 58.7128 26.5844 58.6601 26.5194 58.6601C26.4543 58.6601 26.4016 58.7128 26.4016 58.7778C26.4016 58.8429 26.4543 58.8956 26.5194 58.8956Z" fill="#3790F4"/>
<path d="M23.9349 60.0107H22.9445C22.8642 60.0107 22.7991 59.9455 22.7991 59.8652V59.6228C22.7991 59.5425 22.8642 59.4774 22.9445 59.4774H23.9349C24.0153 59.4774 24.0804 59.5425 24.0804 59.6228V59.8652C24.0804 59.9455 24.0153 60.0107 23.9349 60.0107Z" fill="white"/>
<path d="M25.6871 60.0107H24.6967C24.6164 60.0107 24.5513 59.9455 24.5513 59.8652V59.6228C24.5513 59.5425 24.6164 59.4774 24.6967 59.4774H25.6871C25.7675 59.4774 25.8326 59.5425 25.8326 59.6228V59.8652C25.8326 59.9455 25.7675 60.0107 25.6871 60.0107Z" fill="white"/>
<path d="M23.9349 60.9526H22.9445C22.8642 60.9526 22.7991 60.8875 22.7991 60.8071V60.5647C22.7991 60.4844 22.8642 60.4193 22.9445 60.4193H23.9349C24.0153 60.4193 24.0804 60.4844 24.0804 60.5647V60.8071C24.0804 60.8875 24.0153 60.9526 23.9349 60.9526Z" fill="#3790F4"/>
<path d="M25.6871 60.9526H24.6967C24.6164 60.9526 24.5513 60.8875 24.5513 60.8071V60.5647C24.5513 60.4844 24.6164 60.4193 24.6967 60.4193H25.6871C25.7675 60.4193 25.8326 60.4844 25.8326 60.5647V60.8071C25.8326 60.8875 25.7675 60.9526 25.6871 60.9526Z" fill="white"/>
<path d="M27.391 60.9526H26.4006C26.3202 60.9526 26.2551 60.8875 26.2551 60.8071V60.5647C26.2551 60.4844 26.3202 60.4193 26.4006 60.4193H27.391C27.4713 60.4193 27.5364 60.4844 27.5364 60.5647V60.8071C27.5364 60.8875 27.4713 60.9526 27.391 60.9526Z" fill="white"/>
<path d="M31.5528 58.2999C31.8665 58.2999 32.1207 58.0457 32.1207 57.732C32.1207 57.4183 31.8665 57.1641 31.5528 57.1641C31.2391 57.1641 30.9849 57.4183 30.9849 57.732C30.9849 58.0457 31.2391 58.2999 31.5528 58.2999Z" fill="white"/>
<path d="M39.9166 60.978H38.5386L39.7989 56.9424H40.0528C40.1956 56.9424 40.3114 57.0582 40.3114 57.201V60.5832C40.3114 60.8012 40.1346 60.978 39.9166 60.978Z" fill="#CC630D"/>
<path d="M35.5647 61.4674H39.1477" stroke="#CC630D" stroke-width="0.102277" stroke-linecap="round"/>
<path d="M47.0434 56.5269H42.6938V61.883H47.0434V56.5269Z" fill="#F2B283"/>
<path d="M43.4558 57.4134H45.5474" stroke="#CC630D" stroke-width="0.204555" stroke-linecap="round"/>
<path d="M43.4558 58.3266H45.5474" stroke="#CC630D" stroke-width="0.204555" stroke-linecap="round"/>
<path d="M43.4558 58.7935H45.5474" stroke="#CC630D" stroke-width="0.204555" stroke-linecap="round"/>
<path d="M43.4558 59.2605H45.5474" stroke="#CC630D" stroke-width="0.204555" stroke-linecap="round"/>
<path d="M43.4558 60.6866H45.5474" stroke="#CC630D" stroke-width="0.204555" stroke-linecap="round"/>
<path d="M36.2615 75.1716C36.2615 76.0897 37.0057 76.8339 37.9237 76.8339C38.5542 76.8339 39.1026 76.4828 39.3844 75.9655C38.7378 75.1086 37.958 74.3586 37.0771 73.743C36.5894 74.0327 36.2615 74.5632 36.2615 75.1716Z" fill="#DCECFF"/>
<path d="M35.3471 75.0054C35.7602 75.0054 36.0951 74.6705 36.0951 74.2574C36.0951 73.8443 35.7602 73.5094 35.3471 73.5094C34.934 73.5094 34.5991 73.8443 34.5991 74.2574C34.5991 74.6705 34.934 75.0054 35.3471 75.0054Z" fill="#DCECFF"/>
<path d="M37.3785 75.3655C34.2827 75.3655 31.6283 76.8138 30.5027 78.8751C31.8438 78.7688 33.1547 78.5995 34.4208 78.3865C34.4672 78.3654 34.5123 78.3426 34.5596 78.3226C35.3082 78.0064 36.0959 77.8768 36.8679 77.9122C38.006 77.6631 39.0949 77.3859 40.1221 77.0968C39.8027 76.5308 39.432 75.9975 39.0138 75.5053C38.4874 75.4148 37.9406 75.3655 37.3785 75.3655Z" fill="#DCECFF"/>
<path d="M30.9906 74.7991C32.1755 74.1089 31.659 72.2959 30.2896 72.3696C28.722 72.454 27.1513 72.8903 25.6958 73.709C25.2319 73.97 24.7957 74.2622 24.3873 74.5806C23.2124 75.6561 22.2914 77.0038 21.7227 78.5235C23.6647 78.8632 25.609 79.0052 27.5163 78.9997C27.8196 78.1405 28.2791 77.3147 28.902 76.5682C29.5106 75.8389 30.2206 75.2476 30.9906 74.7991Z" fill="#DCECFF"/>
<path d="M37.0926 75.3655C37.3221 75.3655 37.5081 75.1795 37.5081 74.95C37.5081 74.7205 37.3221 74.5344 37.0926 74.5344C36.8631 74.5344 36.677 74.7205 36.677 74.95C36.677 75.1795 36.8631 75.3655 37.0926 75.3655Z" fill="#3790F4"/>
<path d="M30.1572 74.0912C30.4785 74.0912 30.739 73.8307 30.739 73.5094C30.739 73.1881 30.4785 72.9276 30.1572 72.9276C29.8359 72.9276 29.5754 73.1881 29.5754 73.5094C29.5754 73.8307 29.8359 74.0912 30.1572 74.0912Z" fill="#3790F4"/>
<path d="M30.282 73.9704C30.3988 73.9704 30.4936 73.8756 30.4936 73.7587C30.4936 73.6418 30.3988 73.5471 30.282 73.5471C30.1651 73.5471 30.0703 73.6418 30.0703 73.7587C30.0703 73.8756 30.1651 73.9704 30.282 73.9704Z" fill="#DCECFF"/>
<path d="M23.515 77.7235L22.6149 77.2159C22.309 77.0435 21.9229 77.167 21.7692 77.4828C21.6153 77.7989 21.4776 78.1242 21.3552 78.4569C22.1154 78.5998 22.8762 78.7118 23.6355 78.7961C23.6775 78.699 23.7207 78.6026 23.7663 78.5075C23.9032 78.2219 23.7909 77.879 23.515 77.7235Z" fill="#105A91"/>
<path d="M12.6853 63.0465H49.8271" stroke="white" stroke-width="0.204555" stroke-linecap="round" stroke-linejoin="round"/>
<path d="M12.6853 55.3633H49.8271" stroke="white" stroke-width="0.204555" stroke-linecap="round" stroke-linejoin="round"/>
<path d="M38.5386 60.978H35.3272C34.8963 60.978 34.5735 60.5832 34.6591 60.1609L35.2154 57.4139C35.2709 57.1396 35.5121 56.9424 35.7919 56.9424H39.7989L39.0696 60.5438C39.0184 60.7964 38.7964 60.978 38.5386 60.978Z" fill="#EF9D59"/>
<path d="M38.8083 59.8837H35.0959L35.6569 57.2241H39.3693L38.8083 59.8837Z" fill="white"/>
<path d="M35.0959 60.3546H38.6213" stroke="#CC630D" stroke-width="0.102277" stroke-linecap="round"/>
<path d="M31.5527 57.4194V58.0446" stroke="#3790F4" stroke-width="0.102277" stroke-linecap="round"/>
<path d="M37.2454 58.677C37.2469 58.7348 37.2483 58.7926 37.25 58.8504C37.2512 58.8948 37.2672 58.9176 37.3071 58.9325C37.3124 58.9345 37.3178 58.9364 37.3232 58.9384C37.3289 58.9405 37.3337 58.9437 37.333 58.9511C37.3322 58.9586 37.3265 58.9599 37.3207 58.9603C37.3151 58.9608 37.3094 58.9608 37.3038 58.9608C37.2079 58.9608 37.112 58.9608 37.0161 58.9607C37.0096 58.9607 37.0029 58.9613 36.9968 58.9595C36.9857 58.9565 36.9843 58.9496 36.9924 58.9413C36.9941 58.9397 36.9965 58.9385 36.9988 58.9379C37.062 58.9225 37.0724 58.8747 37.0696 58.8142C37.0647 58.7105 37.0636 58.6068 37.0608 58.5031C37.0598 58.4654 37.0591 58.4647 37.0233 58.4563C37.0146 58.4543 37.0059 58.4523 36.9973 58.4496C36.9916 58.4479 36.9866 58.4441 36.9863 58.4373C36.9861 58.4305 36.991 58.4267 36.9965 58.4248C37.0124 58.4193 37.0286 58.4146 37.0446 58.4092C37.1004 58.3903 37.1528 58.364 37.2024 58.3316C37.2257 58.3163 37.2344 58.3214 37.2368 58.3518C37.2392 58.3813 37.239 58.3809 37.2633 58.365C37.3013 58.3402 37.343 58.3263 37.3884 58.327C37.4173 58.3275 37.4461 58.3245 37.4752 58.3308C37.5651 58.3503 37.6163 58.4147 37.6244 58.5115C37.6338 58.6228 37.632 58.7339 37.6368 58.8452C37.639 58.8975 37.6532 58.9173 37.7013 58.935C37.7095 58.938 37.7241 58.9371 37.722 58.9516C37.72 58.9652 37.7066 58.9607 37.6977 58.9607C37.5986 58.961 37.4994 58.961 37.4003 58.9606C37.3914 58.9606 37.378 58.9645 37.376 58.9507C37.374 58.9373 37.3879 58.9373 37.3964 58.9343C37.4405 58.9187 37.4578 58.8933 37.4565 58.8437C37.4541 58.7469 37.4518 58.65 37.4488 58.5531C37.448 58.526 37.4439 58.4989 37.4368 58.4726C37.4198 58.4099 37.3808 58.3832 37.3174 58.39C37.2724 58.3947 37.241 58.4372 37.2414 58.496C37.2419 58.5563 37.2443 58.6167 37.2459 58.677C37.2457 58.677 37.2456 58.677 37.2454 58.677Z" fill="#3790F4"/>
<path d="M36.7646 58.5985C36.7138 58.5985 36.663 58.5988 36.6122 58.5982C36.5944 58.598 36.5845 58.6037 36.5864 58.6243C36.5915 58.6795 36.5968 58.7344 36.623 58.7849C36.6505 58.8383 36.6928 58.864 36.7492 58.8679C36.8078 58.8721 36.8608 58.8586 36.9084 58.8235C36.9163 58.8176 36.9263 58.8078 36.9364 58.818C36.947 58.8288 36.9391 58.8407 36.9334 58.8504C36.8983 58.91 36.8478 58.9486 36.7836 58.9676C36.7161 58.9876 36.6482 58.985 36.5815 58.9596C36.5102 58.9326 36.4583 58.8806 36.4307 58.8068C36.3839 58.6815 36.3853 58.5587 36.4585 58.4476C36.5103 58.3688 36.5845 58.3303 36.6783 58.3257C36.8167 58.3189 36.9123 58.4211 36.9404 58.5497C36.9493 58.591 36.9439 58.5984 36.905 58.5985C36.8582 58.5985 36.8114 58.5985 36.7646 58.5985ZM36.6572 58.5564C36.6846 58.5576 36.7117 58.5549 36.7388 58.5516C36.7668 58.5482 36.7774 58.5374 36.7747 58.5071C36.7713 58.4704 36.7619 58.4352 36.7409 58.4042C36.7058 58.3525 36.6506 58.3547 36.622 58.4089C36.6014 58.4478 36.5952 58.4912 36.5896 58.5347C36.5876 58.5497 36.5944 58.5569 36.609 58.5565C36.625 58.5561 36.6411 58.5564 36.6572 58.5564Z" fill="#3790F4"/>
<path d="M38.4068 58.327C38.461 58.3237 38.5168 58.3403 38.5719 58.3627C38.5887 58.3695 38.5986 58.3803 38.6017 58.3993C38.6065 58.4278 38.6127 58.4561 38.6182 58.4845C38.6197 58.4921 38.6216 58.5006 38.613 58.5045C38.6045 58.5083 38.5995 58.501 38.595 58.495C38.5655 58.4552 38.5305 58.4217 38.4886 58.3972C38.4519 58.3758 38.4139 58.3589 38.3708 58.3677C38.3427 58.3734 38.3239 58.39 38.3196 58.4199C38.3149 58.4521 38.3188 58.4828 38.3472 58.5048C38.38 58.5303 38.4174 58.5443 38.4555 58.5569C38.5078 58.5742 38.557 58.5972 38.5998 58.6357C38.6848 58.712 38.6928 58.9187 38.5332 58.9652C38.4288 58.9957 38.3265 58.981 38.226 58.9366C38.2097 58.9294 38.2021 58.9171 38.1992 58.9C38.1937 58.8681 38.1877 58.8364 38.1826 58.8045C38.1811 58.7957 38.1773 58.784 38.1874 58.7794C38.1981 58.7744 38.2026 58.786 38.2078 58.7932C38.2451 58.8464 38.2871 58.8939 38.3455 58.9219C38.3636 58.9305 38.3823 58.9358 38.4016 58.9384C38.4394 58.9435 38.4713 58.9283 38.4838 58.9006C38.4994 58.866 38.4924 58.8235 38.4659 58.7942C38.4332 58.7579 38.3904 58.7405 38.3477 58.7239C38.305 58.7074 38.2671 58.684 38.2359 58.648C38.1413 58.5391 38.191 58.3629 38.325 58.3322C38.3504 58.3263 38.3761 58.3276 38.4068 58.327Z" fill="#3790F4"/>
<path d="M37.7894 58.6116C37.7877 58.5453 37.7859 58.479 37.7844 58.4128C37.784 58.3965 37.7813 58.384 37.7618 58.3843C37.7529 58.3844 37.74 58.3876 37.7387 58.3727C37.7374 58.3589 37.7449 58.3458 37.7577 58.3444C37.7813 58.3418 37.7827 58.3272 37.7818 58.3075C37.78 58.2693 37.7807 58.231 37.7782 58.1928C37.7765 58.1684 37.783 58.1559 37.8071 58.1505C37.8455 58.1418 37.8815 58.1252 37.9159 58.1055C37.9479 58.0873 37.9513 58.0895 37.9524 58.1294C37.9541 58.1897 37.9564 58.25 37.9567 58.3103C37.9569 58.3349 37.9654 58.3436 37.9884 58.3424C38.0189 58.3409 38.0496 58.3418 38.0802 58.3423C38.091 58.3424 38.1056 58.3397 38.1068 58.3567C38.108 58.3738 38.0967 58.3833 38.0814 58.3839C38.0541 58.385 38.0266 58.3844 37.9993 58.3845C37.9591 58.3846 37.9591 58.3846 37.9602 58.4266C37.9633 58.5481 37.9662 58.6696 37.9698 58.7911C37.9719 58.8642 38.0124 58.8962 38.0797 58.8786C38.0929 58.8751 38.1056 58.8701 38.1185 58.8656C38.1223 58.8643 38.1258 58.8621 38.1295 58.8607C38.1373 58.8577 38.1453 58.856 38.1514 58.8645C38.1569 58.8721 38.153 58.8792 38.1494 58.8857C38.1306 58.9194 38.1036 58.9438 38.0697 58.9589C37.9978 58.9909 37.9258 58.9926 37.8587 58.9413C37.8148 58.9078 37.7972 58.8575 37.7946 58.8027C37.7916 58.739 37.791 58.6753 37.7893 58.6116C37.7894 58.6116 37.7894 58.6116 37.7894 58.6116Z" fill="#3790F4"/>
<path d="M35.9915 58.6194C35.9893 58.673 35.9999 58.7241 36.0245 58.7721C36.0666 58.8542 36.1471 58.8904 36.2303 58.8643C36.2707 58.8516 36.3064 58.83 36.3392 58.8029C36.3476 58.7959 36.3573 58.785 36.3686 58.7967C36.3784 58.8068 36.3699 58.8172 36.3648 58.8264C36.3051 58.9357 36.1886 58.9936 36.0682 58.9775C36.0047 58.969 35.9464 58.9498 35.8977 58.9034C35.8426 58.8509 35.817 58.7829 35.8091 58.7083C35.7983 58.6066 35.8131 58.511 35.8794 58.4334C35.9353 58.3679 36.0069 58.3316 36.0917 58.3268C36.135 58.3243 36.1785 58.3244 36.221 58.3408C36.2426 58.3491 36.2628 58.3595 36.2813 58.374C36.3107 58.3971 36.3235 58.4349 36.3135 58.4691C36.303 58.5051 36.2757 58.5167 36.2436 58.5199C36.2115 58.523 36.1795 58.5022 36.1659 58.4688C36.1578 58.4492 36.1526 58.4284 36.1446 58.4087C36.1266 58.3644 36.0878 58.3549 36.0532 58.3855C36.025 58.4103 36.0119 58.4445 36.003 58.4808C35.992 58.526 35.9876 58.5722 35.9915 58.6194Z" fill="#3790F4"/>
<path d="M36.9273 73.6378L23.0133 76.1232C22.4822 76.8559 22.0475 77.6624 21.7253 78.524C23.1271 78.769 24.5298 78.911 25.9191 78.9688L38.7399 75.1944C38.1994 74.6079 37.5915 74.0844 36.9273 73.6378Z" fill="white"/>
<path d="M51.855 63.0465C51.4215 63.0465 51.0701 63.398 51.0701 63.8315V73.5226C58.0164 71.1859 67.0513 67.8592 74.6068 63.0465H51.855Z" fill="#ADD0EA"/>
<path d="M83.7891 55.3633H51.7904C51.3926 55.3633 51.0701 55.6858 51.0701 56.0836V62.3262C51.0701 62.7241 51.3926 63.0465 51.7904 63.0465H74.6068C78.1023 60.82 81.2805 58.275 83.7891 55.3633Z" fill="#ADD0EA"/>
<path d="M51.0701 54.0335V55.3633H83.7891C84.1639 54.9283 84.5238 54.4851 84.8675 54.0335H51.0701Z" fill="#1773C6"/>
<path d="M57.6602 61.9852H53.3923V56.4246H57.6602V61.9852ZM53.5969 61.7807H57.4556V56.6291H53.5969V61.7807Z" fill="white"/>
<path d="M57.1815 59.7821H53.8708V61.5136H57.1815V59.7821Z" fill="#3790F4"/>
<path d="M54.5751 58.1799C54.6771 58.1799 54.7598 58.0972 54.7598 57.9952C54.7598 57.8932 54.6771 57.8105 54.5751 57.8105C54.4731 57.8105 54.3904 57.8932 54.3904 57.9952C54.3904 58.0972 54.4731 58.1799 54.5751 58.1799Z" fill="#EF9D59"/>
<path d="M57.4333 59.6027H53.6194C53.5629 59.6027 53.5171 59.5569 53.5171 59.5004C53.5171 59.444 53.5629 59.3982 53.6194 59.3982H57.4333C57.4898 59.3982 57.5356 59.444 57.5356 59.5004C57.5356 59.5569 57.4898 59.6027 57.4333 59.6027Z" fill="white"/>
<path d="M55.0507 57.8666C55.0245 57.8666 54.9983 57.8566 54.9784 57.8366L54.2673 57.1255C54.2273 57.0856 54.2273 57.0208 54.2673 56.9809C54.3071 56.9409 54.3721 56.9409 54.4119 56.9809L55.123 57.692C55.163 57.7319 55.163 57.7967 55.123 57.8366C55.1031 57.8566 55.0768 57.8666 55.0507 57.8666Z" fill="#EF9D59"/>
<path d="M55.0507 59.298C55.0245 59.298 54.9983 59.288 54.9784 59.268L54.2673 58.5569C54.2273 58.517 54.2273 58.4522 54.2673 58.4123C54.3071 58.3723 54.3721 58.3723 54.4119 58.4123L55.123 59.1234C55.163 59.1633 55.163 59.2281 55.123 59.268C55.1031 59.288 55.0768 59.298 55.0507 59.298Z" fill="#EF9D59"/>
<path d="M56.3804 57.3673H55.5862C55.4766 57.3673 55.3877 57.2784 55.3877 57.1687C55.3877 57.059 55.4766 56.9702 55.5862 56.9702H56.3804C56.4901 56.9702 56.579 57.059 56.579 57.1687C56.579 57.2784 56.4901 57.3673 56.3804 57.3673Z" fill="#EF9D59"/>
<path d="M55.5262 60.9353C55.6849 60.9353 55.8136 60.8066 55.8136 60.6478C55.8136 60.4891 55.6849 60.3604 55.5262 60.3604C55.3675 60.3604 55.2388 60.4891 55.2388 60.6478C55.2388 60.8066 55.3675 60.9353 55.5262 60.9353Z" fill="white"/>
<path d="M60.7246 56.4246V61.9852H76.2114C76.3104 61.9173 76.4093 61.8492 76.5076 61.7807H60.9292V56.6291H80.6991V58.4903C80.7676 58.4292 80.8358 58.368 80.9037 58.3065V56.4246H60.7246Z" fill="white"/>
<path d="M67.821 61.7267C67.7646 61.7267 67.7188 61.6809 67.7188 61.6244V56.7854C67.7188 56.7289 67.7646 56.6831 67.821 56.6831C67.8775 56.6831 67.9233 56.7289 67.9233 56.7854V61.6244C67.9233 61.6809 67.8775 61.7267 67.821 61.7267Z" fill="white"/>
<path d="M65.8171 57.2887H63.3237V58.4246H65.8171V57.2887Z" fill="#EF9D59"/>
<path d="M66.8423 58.1799C67.0208 58.1799 67.1655 58.0352 67.1655 57.8567C67.1655 57.6782 67.0208 57.5334 66.8423 57.5334C66.6638 57.5334 66.519 57.6782 66.519 57.8567C66.519 58.0352 66.6638 58.1799 66.8423 58.1799Z" fill="#3790F4"/>
<path d="M62.1326 57.8246C62.0242 57.8246 61.936 57.7365 61.936 57.6281C61.936 57.5198 62.0242 57.4316 62.1326 57.4316C62.2409 57.4316 62.3291 57.5198 62.3291 57.6281C62.3291 57.7365 62.2409 57.8246 62.1326 57.8246ZM62.1326 57.5338C62.0806 57.5338 62.0382 57.5762 62.0382 57.6281C62.0382 57.6801 62.0806 57.7224 62.1326 57.7224C62.1845 57.7224 62.2269 57.6801 62.2269 57.6281C62.2269 57.5762 62.1845 57.5338 62.1326 57.5338Z" fill="white"/>
<path d="M62.645 58.3372C62.5367 58.3372 62.4485 58.249 62.4485 58.1406C62.4485 58.0323 62.5367 57.9441 62.645 57.9441C62.7534 57.9441 62.8415 58.0323 62.8415 58.1406C62.8415 58.249 62.7534 58.3372 62.645 58.3372ZM62.645 58.0463C62.5931 58.0463 62.5507 58.0887 62.5507 58.1406C62.5507 58.1926 62.5931 58.235 62.645 58.235C62.697 58.235 62.7394 58.1926 62.7394 58.1406C62.7394 58.0887 62.697 58.0463 62.645 58.0463Z" fill="white"/>
<path d="M61.9178 58.3995C61.9048 58.3995 61.8917 58.3946 61.8817 58.3846C61.8617 58.3646 61.8617 58.3323 61.8817 58.3123L62.7821 57.4119C62.802 57.3919 62.8343 57.3919 62.8543 57.4119C62.8743 57.4319 62.8743 57.4642 62.8543 57.4842L61.954 58.3846C61.944 58.3946 61.9309 58.3995 61.9178 58.3995Z" fill="white"/>
<path d="M63.2488 58.8956C63.3139 58.8956 63.3666 58.8429 63.3666 58.7778C63.3666 58.7128 63.3139 58.6601 63.2488 58.6601C63.1838 58.6601 63.1311 58.7128 63.1311 58.7778C63.1311 58.8429 63.1838 58.8956 63.2488 58.8956Z" fill="#3790F4"/>
<path d="M64.0867 58.8956C64.1518 58.8956 64.2045 58.8429 64.2045 58.7778C64.2045 58.7128 64.1518 58.6601 64.0867 58.6601C64.0217 58.6601 63.969 58.7128 63.969 58.7778C63.969 58.8429 64.0217 58.8956 64.0867 58.8956Z" fill="#3790F4"/>
<path d="M64.9249 58.8956C64.9899 58.8956 65.0426 58.8429 65.0426 58.7778C65.0426 58.7128 64.9899 58.6601 64.9249 58.6601C64.8598 58.6601 64.8071 58.7128 64.8071 58.7778C64.8071 58.8429 64.8598 58.8956 64.9249 58.8956Z" fill="#3790F4"/>
<path d="M65.7628 58.8956C65.8278 58.8956 65.8805 58.8429 65.8805 58.7778C65.8805 58.7128 65.8278 58.6601 65.7628 58.6601C65.6977 58.6601 65.645 58.7128 65.645 58.7778C65.645 58.8429 65.6977 58.8956 65.7628 58.8956Z" fill="#3790F4"/>
<path d="M63.1783 60.0107H62.1879C62.1076 60.0107 62.0425 59.9455 62.0425 59.8652V59.6228C62.0425 59.5425 62.1076 59.4774 62.1879 59.4774H63.1783C63.2587 59.4774 63.3238 59.5425 63.3238 59.6228V59.8652C63.3238 59.9455 63.2587 60.0107 63.1783 60.0107Z" fill="white"/>
<path d="M64.9305 60.0107H63.9401C63.8598 60.0107 63.7947 59.9455 63.7947 59.8652V59.6228C63.7947 59.5425 63.8598 59.4774 63.9401 59.4774H64.9305C65.0109 59.4774 65.076 59.5425 65.076 59.6228V59.8652C65.076 59.9455 65.0109 60.0107 64.9305 60.0107Z" fill="white"/>
<path d="M63.1783 60.9526H62.1879C62.1076 60.9526 62.0425 60.8875 62.0425 60.8071V60.5647C62.0425 60.4844 62.1076 60.4193 62.1879 60.4193H63.1783C63.2587 60.4193 63.3238 60.4844 63.3238 60.5647V60.8071C63.3238 60.8875 63.2587 60.9526 63.1783 60.9526Z" fill="#3790F4"/>
<path d="M64.9305 60.9526H63.9401C63.8598 60.9526 63.7947 60.8875 63.7947 60.8071V60.5647C63.7947 60.4844 63.8598 60.4193 63.9401 60.4193H64.9305C65.0109 60.4193 65.076 60.4844 65.076 60.5647V60.8071C65.076 60.8875 65.0109 60.9526 64.9305 60.9526Z" fill="white"/>
<path d="M66.6344 60.9526H65.644C65.5637 60.9526 65.4985 60.8875 65.4985 60.8071V60.5647C65.4985 60.4844 65.5637 60.4193 65.644 60.4193H66.6344C66.7147 60.4193 66.7798 60.4844 66.7798 60.5647V60.8071C66.7798 60.8875 66.7147 60.9526 66.6344 60.9526Z" fill="white"/>
<path d="M70.7962 58.2999C71.1099 58.2999 71.3641 58.0457 71.3641 57.732C71.3641 57.4183 71.1099 57.1641 70.7962 57.1641C70.4825 57.1641 70.2283 57.4183 70.2283 57.732C70.2283 58.0457 70.4825 58.2999 70.7962 58.2999Z" fill="white"/>
<path d="M79.2961 56.9424H79.0422L77.8289 60.8276C78.4189 60.387 78.9949 59.9354 79.5547 59.4726V57.201C79.5547 57.0582 79.4389 56.9424 79.2961 56.9424Z" fill="#CC630D"/>
<path d="M81.9373 57.3336C82.2083 57.0681 82.4738 56.7991 82.7335 56.5269H81.9373V57.3336Z" fill="#F2B283"/>
<path d="M51.9287 62.9442C51.8722 62.9442 51.8264 62.99 51.8264 63.0465C51.8264 63.103 51.8722 63.1488 51.9287 63.1488H74.4448C74.5521 63.0809 74.6592 63.0127 74.7659 62.9442H51.9287Z" fill="white"/>
<path d="M75.0353 56.9424C74.7555 56.9424 74.5143 57.1396 74.4588 57.4139L73.9025 60.161C73.817 60.5833 74.1397 60.978 74.5706 60.978H77.6267C77.8643 60.8025 78.0997 60.6253 78.3327 60.4463L79.0423 56.9424L75.0353 56.9425V56.9424Z" fill="#EF9D59"/>
<path d="M78.0519 59.8837H74.3396L74.9006 57.2241H78.6129L78.0519 59.8837Z" fill="white"/>
<path d="M77.865 60.4058H74.3397C74.3114 60.4058 74.2886 60.3829 74.2886 60.3547C74.2886 60.3264 74.3114 60.3036 74.3397 60.3036H77.865C77.8933 60.3036 77.9161 60.3264 77.9161 60.3547C77.9161 60.3829 77.8933 60.4058 77.865 60.4058Z" fill="#CC630D"/>
<path d="M70.7962 58.0957C70.7679 58.0957 70.7451 58.0729 70.7451 58.0446V57.4194C70.7451 57.3912 70.7679 57.3683 70.7962 57.3683C70.8245 57.3683 70.8473 57.3912 70.8473 57.4194V58.0446C70.8473 58.0729 70.8245 58.0957 70.7962 58.0957Z" fill="#3790F4"/>
<path d="M76.4891 58.677C76.4906 58.7348 76.492 58.7926 76.4936 58.8504C76.4949 58.8948 76.5109 58.9176 76.5507 58.9325C76.5561 58.9345 76.5615 58.9364 76.5669 58.9384C76.5726 58.9405 76.5774 58.9437 76.5766 58.9511C76.5759 58.9586 76.5701 58.9599 76.5643 58.9603C76.5587 58.9608 76.5531 58.9608 76.5474 58.9608C76.4515 58.9608 76.3556 58.9608 76.2597 58.9607C76.2533 58.9607 76.2466 58.9613 76.2404 58.9595C76.2294 58.9565 76.228 58.9496 76.2361 58.9413C76.2377 58.9397 76.2401 58.9385 76.2424 58.9379C76.3056 58.9225 76.3161 58.8747 76.3132 58.8142C76.3083 58.7105 76.3072 58.6068 76.3045 58.5031C76.3035 58.4654 76.3028 58.4647 76.2669 58.4563C76.2583 58.4543 76.2496 58.4523 76.241 58.4496C76.2353 58.4479 76.2303 58.4441 76.23 58.4373C76.2297 58.4305 76.2347 58.4267 76.2401 58.4248C76.2561 58.4193 76.2723 58.4146 76.2882 58.4092C76.344 58.3903 76.3965 58.364 76.446 58.3316C76.4694 58.3163 76.478 58.3214 76.4805 58.3518C76.4829 58.3813 76.4826 58.3809 76.507 58.365C76.545 58.3402 76.5866 58.3263 76.6321 58.327C76.6609 58.3275 76.6897 58.3245 76.7188 58.3308C76.8087 58.3503 76.86 58.4147 76.8681 58.5115C76.8774 58.6228 76.8757 58.7339 76.8805 58.8452C76.8827 58.8975 76.8969 58.9173 76.945 58.935C76.9531 58.938 76.9678 58.9371 76.9657 58.9516C76.9636 58.9652 76.9502 58.9607 76.9414 58.9607C76.8422 58.961 76.7431 58.961 76.6439 58.9606C76.635 58.9606 76.6216 58.9645 76.6196 58.9507C76.6177 58.9373 76.6316 58.9373 76.64 58.9343C76.6842 58.9187 76.7014 58.8933 76.7002 58.8437C76.6978 58.7469 76.6955 58.65 76.6925 58.5531C76.6917 58.526 76.6876 58.4989 76.6805 58.4726C76.6635 58.4099 76.6245 58.3832 76.5611 58.39C76.516 58.3947 76.4846 58.4372 76.4851 58.496C76.4856 58.5563 76.488 58.6167 76.4896 58.677C76.4894 58.677 76.4892 58.677 76.4891 58.677Z" fill="#3790F4"/>
<path d="M76.0083 58.5985C75.9575 58.5985 75.9067 58.5988 75.8559 58.5982C75.8381 58.598 75.8281 58.6037 75.8301 58.6243C75.8352 58.6795 75.8405 58.7344 75.8666 58.7849C75.8942 58.8383 75.9365 58.864 75.9928 58.8679C76.0515 58.8721 76.1045 58.8586 76.1521 58.8235C76.16 58.8176 76.17 58.8078 76.1801 58.818C76.1906 58.8288 76.1827 58.8407 76.1771 58.8504C76.142 58.91 76.0915 58.9486 76.0273 58.9676C75.9598 58.9876 75.8919 58.985 75.8251 58.9596C75.7539 58.9326 75.7019 58.8806 75.6744 58.8068C75.6276 58.6815 75.6289 58.5587 75.7021 58.4476C75.754 58.3688 75.8281 58.3303 75.922 58.3257C76.0603 58.3189 76.156 58.4211 76.184 58.5497C76.193 58.591 76.1876 58.5984 76.1486 58.5985C76.1019 58.5985 76.0551 58.5985 76.0083 58.5985ZM75.9009 58.5564C75.9283 58.5576 75.9553 58.5549 75.9824 58.5516C76.0105 58.5482 76.0211 58.5374 76.0183 58.5071C76.015 58.4704 76.0056 58.4352 75.9845 58.4042C75.9495 58.3525 75.8943 58.3547 75.8656 58.4089C75.8451 58.4478 75.8389 58.4912 75.8332 58.5347C75.8313 58.5497 75.8381 58.5569 75.8527 58.5565C75.8687 58.5561 75.8848 58.5564 75.9009 58.5564Z" fill="#3790F4"/>
<path d="M77.6503 58.327C77.7044 58.3237 77.7602 58.3403 77.8153 58.3627C77.8321 58.3695 77.842 58.3803 77.8451 58.3993C77.8499 58.4278 77.8561 58.4561 77.8616 58.4845C77.8631 58.4921 77.865 58.5006 77.8565 58.5045C77.848 58.5083 77.8429 58.501 77.8384 58.495C77.8089 58.4552 77.7739 58.4217 77.732 58.3972C77.6954 58.3758 77.6574 58.3589 77.6142 58.3677C77.5861 58.3734 77.5673 58.39 77.563 58.4199C77.5583 58.4521 77.5622 58.4828 77.5906 58.5048C77.6235 58.5303 77.6609 58.5443 77.6989 58.5569C77.7512 58.5742 77.8004 58.5972 77.8432 58.6357C77.9282 58.712 77.9362 58.9187 77.7766 58.9652C77.6722 58.9957 77.5699 58.981 77.4694 58.9366C77.4531 58.9294 77.4455 58.9171 77.4426 58.9C77.4371 58.8681 77.4311 58.8364 77.426 58.8045C77.4246 58.7957 77.4207 58.784 77.4308 58.7794C77.4415 58.7744 77.4461 58.786 77.4512 58.7932C77.4885 58.8464 77.5305 58.8939 77.5889 58.9219C77.607 58.9305 77.6257 58.9358 77.645 58.9384C77.6828 58.9435 77.7147 58.9283 77.7272 58.9006C77.7428 58.866 77.7358 58.8235 77.7093 58.7942C77.6766 58.7579 77.6338 58.7405 77.5911 58.7239C77.5484 58.7074 77.5105 58.684 77.4792 58.648C77.3847 58.5391 77.4344 58.3629 77.5683 58.3322C77.5938 58.3263 77.6195 58.3276 77.6503 58.327Z" fill="#3790F4"/>
<path d="M77.0329 58.6116C77.0311 58.5453 77.0293 58.479 77.0278 58.4128C77.0274 58.3965 77.0247 58.384 77.0052 58.3843C76.9963 58.3844 76.9834 58.3876 76.9821 58.3727C76.9808 58.3589 76.9883 58.3458 77.0011 58.3444C77.0247 58.3418 77.0261 58.3272 77.0252 58.3075C77.0234 58.2693 77.0241 58.231 77.0216 58.1928C77.0199 58.1684 77.0263 58.1559 77.0505 58.1505C77.0889 58.1418 77.1249 58.1252 77.1593 58.1055C77.1913 58.0873 77.1947 58.0895 77.1958 58.1294C77.1975 58.1897 77.1998 58.25 77.2001 58.3103C77.2003 58.3349 77.2088 58.3436 77.2318 58.3424C77.2623 58.3409 77.293 58.3418 77.3236 58.3423C77.3344 58.3424 77.349 58.3397 77.3502 58.3567C77.3515 58.3738 77.3402 58.3833 77.3248 58.3839C77.2975 58.385 77.27 58.3844 77.2427 58.3845C77.2025 58.3846 77.2025 58.3846 77.2036 58.4266C77.2067 58.5481 77.2096 58.6696 77.2132 58.7911C77.2153 58.8642 77.2558 58.8962 77.3231 58.8786C77.3363 58.8751 77.349 58.8701 77.3619 58.8656C77.3657 58.8643 77.3692 58.8621 77.3729 58.8607C77.3807 58.8577 77.3887 58.856 77.3948 58.8645C77.4003 58.8721 77.3964 58.8792 77.3928 58.8857C77.374 58.9194 77.347 58.9438 77.3131 58.9589C77.2412 58.9909 77.1692 58.9926 77.1021 58.9413C77.0582 58.9078 77.0406 58.8575 77.038 58.8027C77.035 58.739 77.0344 58.6753 77.0327 58.6116C77.0328 58.6116 77.0328 58.6116 77.0329 58.6116Z" fill="#3790F4"/>
<path d="M75.2349 58.6194C75.2327 58.673 75.2433 58.7241 75.2679 58.7721C75.31 58.8542 75.3905 58.8904 75.4737 58.8643C75.5141 58.8516 75.5498 58.83 75.5826 58.8029C75.591 58.7959 75.6007 58.785 75.612 58.7967C75.6218 58.8068 75.6133 58.8172 75.6082 58.8264C75.5485 58.9357 75.432 58.9936 75.3116 58.9775C75.2481 58.969 75.1897 58.9498 75.1411 58.9034C75.086 58.8509 75.0605 58.7829 75.0525 58.7083C75.0417 58.6066 75.0565 58.511 75.1228 58.4334C75.1787 58.3679 75.2503 58.3316 75.3351 58.3268C75.3784 58.3243 75.4219 58.3244 75.4644 58.3408C75.486 58.3491 75.5062 58.3595 75.5247 58.374C75.5541 58.3971 75.5669 58.4349 75.5569 58.4691C75.5464 58.5051 75.5192 58.5167 75.487 58.5199C75.4549 58.523 75.4229 58.5022 75.4093 58.4688C75.4012 58.4492 75.396 58.4284 75.388 58.4087C75.37 58.3644 75.3312 58.3549 75.2966 58.3855C75.2684 58.4103 75.2553 58.4445 75.2464 58.4808C75.2354 58.526 75.231 58.5722 75.2349 58.6194Z" fill="#3790F4"/>
<path d="M51.9287 55.261C51.8722 55.261 51.8264 55.3069 51.8264 55.3633C51.8264 55.4198 51.8722 55.4656 51.9287 55.4656H83.7007C83.7598 55.3976 83.8188 55.3295 83.8772 55.2611H51.9287V55.261Z" fill="white"/>
<path d="M30.7831 72.8101C30.7831 72.8101 30.6491 75.7007 30.8618 78.8449C35.8977 78.4024 40.4865 77.09 43.8357 75.9281C46.2857 75.0782 49.7261 74.0084 53.6304 72.6462C53.5293 70.7785 53.0733 69.1935 53.0733 69.1935L30.7831 72.8101Z" fill="white"/>
<path d="M31.581 37.7589C29.1181 33.7664 33.0587 31.4849 33.9661 28.9961C34.8735 26.5072 31.7884 25.211 32.4365 22.074C33.0847 18.937 36.3253 18.8852 36.3253 18.8852C36.3253 18.8852 35.7809 13.8816 41.5493 13.8816C47.3177 13.8816 46.0733 18.237 47.9918 20.0518C49.9103 21.8666 53.7991 21.7974 53.488 25.6689C53.1769 29.5405 50.5325 30.6812 52.5028 33.3256C54.4731 35.97 54.7158 37.8367 53.5056 38.9255C52.2954 40.0144 31.581 37.7589 31.581 37.7589Z" fill="#EA8021"/>
<path d="M41.5493 33.7664L30.5991 37.2176C29.0956 37.6915 27.8841 38.8151 27.2987 40.2787L20.9905 56.0493C20.9905 56.0493 22.8571 55.9326 25.9682 57.4103C29.0792 58.8881 31.2699 59.4066 31.2699 59.4066C31.2699 59.4066 32.2923 65.2657 30.783 72.81C30.783 72.81 38.9461 71.7257 43.2734 73.1989C47.6007 74.6721 53.851 70.1916 53.851 70.1916C53.851 70.1916 53.851 67.3657 52.7621 64.138C51.9135 61.6226 51.8288 51.7327 51.8288 51.7327L60.6953 46.8328L56.3928 38.5147C55.6257 37.0315 54.2102 35.9914 52.5656 35.7024L41.5493 33.7664Z" fill="#3790F4"/>
<path d="M48.9517 41.8568C49.1803 41.8827 49.3697 41.7025 49.3743 41.4553C49.3789 41.208 49.1971 40.985 48.9685 40.958C48.7393 40.931 48.5487 41.111 48.544 41.3593C48.5394 41.6076 48.7225 41.8308 48.9517 41.8568ZM48.9641 41.1936C49.0729 41.2063 49.1596 41.3124 49.1573 41.4302C49.1551 41.548 49.0649 41.6336 48.9561 41.6212C48.8471 41.6087 48.7602 41.5025 48.7624 41.3845C48.7646 41.2665 48.8551 41.1809 48.9641 41.1936Z" fill="white"/>
<path d="M47.9997 41.7489C48.2306 41.7751 48.4219 41.5942 48.4266 41.3457C48.4312 41.0972 48.2476 40.8729 48.0167 40.8457C47.7852 40.8184 47.5927 40.9992 47.588 41.2487C47.5833 41.4983 47.7682 41.7227 47.9997 41.7489ZM48.0122 41.0824C48.1222 41.0953 48.2097 41.202 48.2074 41.3203C48.2052 41.4387 48.1141 41.5247 48.0041 41.5121C47.8941 41.4995 47.8063 41.3928 47.8085 41.2742C47.8108 41.1556 47.9022 41.0696 48.0122 41.0824Z" fill="white"/>
<path d="M47.0435 41.7908C45.7401 41.6442 44.6448 42.6664 44.6179 44.0714C44.5911 45.4768 45.6437 46.7131 46.9483 46.8256C48.2355 46.9366 49.2909 45.9098 49.3166 44.5382C49.3422 43.167 48.3295 41.9354 47.0435 41.7908ZM48.7863 43.2556C48.511 43.3966 48.3512 43.6697 48.1695 43.9809C47.9184 44.4109 47.633 44.8996 46.9387 45.2591C46.0855 45.7008 45.2931 45.3711 45.1237 45.2902C45.1017 45.2472 45.0811 45.2035 45.0615 45.1592C45.1377 45.1743 45.2308 45.1893 45.3358 45.1991C45.8213 45.2447 46.5547 45.1801 47.0031 44.5059C47.279 44.091 47.4169 43.7422 47.5384 43.4349C47.6969 43.0341 47.8139 42.7394 48.1684 42.5118C48.4177 42.7137 48.6285 42.9677 48.7863 43.2556ZM44.9577 44.8824C44.9929 44.8876 45.0322 44.8927 45.0753 44.8968C45.4448 44.932 46.0721 44.8997 46.4575 44.3729C46.7274 44.004 46.8326 43.5632 46.9343 43.1373C47.0295 42.7386 47.1198 42.3613 47.3372 42.085C47.5594 42.1436 47.7694 42.2379 47.9617 42.3616C47.6163 42.615 47.4895 42.9345 47.3339 43.3274C47.2162 43.6246 47.0827 43.9619 46.8191 44.3577C46.2812 45.1653 45.2225 44.9582 44.9605 44.8921C44.9595 44.8889 44.9587 44.8856 44.9577 44.8824ZM47.039 42.0288C47.0539 42.0305 47.0686 42.033 47.0834 42.0349C46.8929 42.3332 46.8043 42.702 46.7184 43.0611C46.6218 43.4652 46.5218 43.8835 46.2778 44.2165C45.8774 44.7629 45.1295 44.6732 44.8937 44.6288C44.8591 44.4551 44.8419 44.2761 44.8453 44.094C44.8696 42.8233 45.8596 41.8976 47.039 42.0288ZM46.9528 46.5874C46.2967 46.5301 45.7112 46.1582 45.3243 45.6196C45.457 45.6612 45.6238 45.7007 45.8156 45.7182C46.1654 45.7502 46.5959 45.7093 47.0458 45.4757C47.7913 45.0888 48.1056 44.5499 48.3573 44.1181C48.5281 43.8251 48.667 43.5875 48.8916 43.4715C49.0307 43.7936 49.1064 44.1491 49.0995 44.5167C49.0762 45.7599 48.119 46.6894 46.9528 46.5874Z" fill="white"/>
<path d="M56.5732 44.0328C56.5732 44.0328 59.9565 40.1829 62.6009 40.7662C65.2453 41.3495 66.9953 43.0995 67.3064 47.9605C67.6175 52.8215 67.8508 55.4919 65.9453 54.74C64.0398 53.9882 61.2205 51.8046 60.6954 52.5104L56.5732 44.0328Z" fill="#1773C6"/>
<path d="M61.0454 49.6035C61.0454 49.6035 62.7565 49.9535 63.4565 52.2091C64.1565 54.4646 63.0676 60.1811 65.6342 63.2144" stroke="#3790F4" stroke-width="0.874985" stroke-linecap="round" stroke-linejoin="round"/>
<path d="M61.0454 50.4202C61.0454 50.4202 62.8343 52.2479 62.0176 57.0701C61.201 61.8922 61.9398 63.8755 63.1454 64.8477" stroke="#3790F4" stroke-width="0.874985" stroke-linecap="round" stroke-linejoin="round"/>
<path d="M32.5403 43.8384C32.5403 43.8384 30.9313 47.7272 30.7831 50.5661C30.6348 53.4049 31.8015 54.5327 32.8514 55.1549" stroke="#1773C6" stroke-width="0.874985" stroke-linecap="round" stroke-linejoin="round"/>
<path d="M49.1065 69.8157C51.9454 66.1602 59.7175 56.0882 60.9285 54.3771C62.1395 52.666 60.8119 48.3883 60.0341 46.5217C59.0464 44.1511 57.1953 42.1662 54.862 42.2829C52.5287 42.3995 42.4178 48.3494 39.2289 49.4966C36.0401 50.6438 27.6672 51.9546 25.126 57.0352C22.5848 62.1158 25.307 69.349 28.8458 73.6656C31.0027 76.2966 33.5638 77.6688 35.9574 78.1031C38.7287 77.5476 41.2396 76.8084 43.32 76.1047C45.3191 74.5324 47.2214 72.2431 49.1065 69.8157Z" fill="#1773C6"/>
<path d="M43.3024 50.1336C43.3024 50.1336 42.6319 49.6068 42.1975 48.9846C41.7632 48.3624 41.2253 47.0272 40.9272 47.4291C40.629 47.8309 40.9272 49.3605 40.9272 49.3605L43.3024 50.1336Z" fill="#EFC6BD"/>
<path d="M37.3105 23.2406L37.9471 27.7192C38.0051 28.1271 38.1953 28.5046 38.4887 28.7939L39.9975 30.2815C40.9337 31.2046 42.4614 31.1206 43.2908 30.1004L44.6779 28.394C44.8954 28.1265 45.0351 27.8044 45.0819 27.4628L45.7882 22.3073C45.7882 22.3073 45.4252 21.2962 42.5216 21.4259C39.6179 21.5555 38.7624 21.1148 38.2179 20.4148C38.2179 20.4148 38.8142 22.6703 37.3105 23.2406Z" fill="#EFC6BD"/>
<path d="M37.9209 26.9641C38.2968 26.8505 38.3292 25.8578 37.9935 24.7468C37.6577 23.6358 37.0808 22.8272 36.7049 22.9408C36.3291 23.0544 36.2966 24.0471 36.6324 25.1581C36.9682 26.2691 37.5451 27.0777 37.9209 26.9641Z" fill="#EFC6BD"/>
<path d="M46.4664 25.1577C46.8021 24.0467 46.7697 23.054 46.3938 22.9404C46.018 22.8268 45.4411 23.6354 45.1053 24.7464C44.7695 25.8574 44.802 26.8501 45.1778 26.9637C45.5537 27.0773 46.1306 26.2687 46.4664 25.1577Z" fill="#EFC6BD"/>
<path d="M38.8596 28.3609C38.8596 28.3609 38.9569 31.9386 38.6457 34.6802C38.3346 37.4219 40.7846 37.7913 41.7957 37.7913C42.8068 37.7913 44.8873 36.7996 44.6345 34.3108C44.3817 31.822 44.0901 29.0803 44.0706 27.8748L38.8596 28.3609Z" fill="#EFC6BD"/>
<path d="M39.6568 72.7517C39.6568 72.7517 39.9981 72.5366 40.6778 72.6364C41.3575 72.7361 41.1151 72.0517 39.1318 71.5656C37.1486 71.0795 33.2403 71.7017 32.5209 71.449C31.8014 71.1962 31.9375 70.8656 32.3264 70.574C32.7153 70.2823 33.3764 69.3296 33.2014 68.4546C33.0264 67.5796 32.1255 68.7787 31.4514 69.1546C30.7774 69.5305 29.4941 70.2564 28.9885 70.5675C28.483 70.8786 28.2626 71.1119 28.2626 71.1119C28.2626 71.1119 25.0479 66.562 24.5293 63.8658C24.0108 61.1695 24.3748 58.3711 25.1261 57.0352C23.6194 56.409 22.472 56.1777 21.7722 56.0937L20.2216 60.2773C19.7817 61.464 19.9047 62.7863 20.5559 63.8716L26.4435 73.6843C26.5974 73.9408 26.8338 74.1366 27.1146 74.2397C28.3801 74.7042 32.0824 76.0601 33.6932 76.6161C34.0701 76.7462 34.4789 76.7459 34.8554 76.615C35.9926 76.2194 38.5374 75.3767 39.5791 75.3767C40.9402 75.3767 39.9679 74.7739 39.9679 74.7739C39.9679 74.7739 40.3763 74.6378 41.0179 74.6573C41.6596 74.6767 40.9402 73.9573 40.9402 73.9573C40.9402 73.9573 41.3485 73.9767 41.7568 73.9962C42.1651 74.0156 41.0763 72.9267 39.6568 72.7517Z" fill="#EFC6BD"/>
<path d="M61.0365 54.2062C61.0365 54.2062 63.236 63.1917 59.9694 65.4213C56.7028 67.6509 49.6511 59.4585 48.0437 57.7992C46.4363 56.14 43.0141 53.6313 43.0141 53.6313C43.0141 53.6313 41.5623 54.1559 40.6549 53.6313C39.7475 53.1067 37.1031 52.303 36.5069 51.9142C35.9106 51.5253 35.4763 50.6049 35.4763 50.6049C35.4763 50.6049 34.3092 50.9793 33.8425 51.109C33.8425 51.109 34.2773 50.0994 34.5106 49.8661C34.7439 49.6327 35.8846 49.2438 37.1809 48.855C38.4772 48.4661 39.0735 48.2068 39.7994 48.5179C40.5253 48.829 44.7252 50.7994 44.7252 50.7994C44.7252 50.7994 49.3773 53.3844 50.8939 54.3955C52.4106 55.4065 55.7326 56.225 57.9882 58.2861L61.0365 54.2062Z" fill="#EFC6BD"/>
<path d="M39.3854 64.0757C39.1641 64.2164 38.9425 64.3567 38.7216 64.498C38.5517 64.6066 38.5009 64.721 38.5372 64.9084C38.542 64.9336 38.5476 64.9586 38.5525 64.9838C38.5577 65.0107 38.5564 65.0367 38.5261 65.051C38.4949 65.0658 38.4765 65.0465 38.4611 65.0255C38.4461 65.005 38.4326 64.9834 38.4193 64.9618C38.1926 64.5945 37.9659 64.2272 37.7395 63.8597C37.7243 63.835 37.7062 63.8107 37.6984 63.7833C37.6842 63.7337 37.7078 63.7122 37.7589 63.7241C37.7692 63.7265 37.7795 63.733 37.787 63.7404C37.9967 63.9465 38.2074 63.8748 38.4361 63.7225C38.8277 63.4618 39.2287 63.2155 39.6256 62.9629C39.7699 62.871 39.771 62.8665 39.7189 62.7098C39.7062 62.6718 39.6936 62.6337 39.6835 62.5948C39.6768 62.5689 39.68 62.5407 39.7055 62.5239C39.7314 62.5068 39.758 62.5169 39.7782 62.5335C39.8371 62.5818 39.8937 62.6328 39.9525 62.6813C40.1582 62.8508 40.3844 62.9902 40.6277 63.1044C40.7423 63.1582 40.7428 63.2032 40.6304 63.2835C40.5213 63.3615 40.5223 63.3595 40.6418 63.4157C40.8281 63.5033 40.9805 63.6304 41.0852 63.8061C41.1518 63.9178 41.2311 64.0211 41.2755 64.1473C41.4124 64.537 41.2829 64.8837 40.9255 65.1408C40.5146 65.4363 40.0779 65.6892 39.6565 65.9672C39.4582 66.098 39.4146 66.1986 39.4594 66.424C39.467 66.4624 39.5053 66.5163 39.4439 66.542C39.3863 66.566 39.372 66.5041 39.3509 66.4702C39.1154 66.0912 38.8812 65.7115 38.6482 65.331C38.6272 65.2968 38.5804 65.2546 38.6291 65.2148C38.6766 65.176 38.7097 65.2292 38.7413 65.2546C38.9062 65.3872 39.0459 65.394 39.2359 65.2735C39.6071 65.0381 39.9786 64.8031 40.3485 64.5654C40.452 64.4989 40.5478 64.4201 40.6333 64.3314C40.8371 64.12 40.8486 63.9084 40.6726 63.6813C40.5474 63.5199 40.3081 63.4987 40.0802 63.6379C39.8466 63.7805 39.6176 63.9307 39.3865 64.0776C39.3861 64.077 39.3857 64.0764 39.3854 64.0757Z" fill="white"/>
<path d="M38.5549 62.0515C38.4347 61.8569 38.3132 61.6632 38.1955 61.4672C38.1542 61.3985 38.1084 61.3737 38.0328 61.4292C37.8305 61.5777 37.6293 61.7262 37.4944 61.9442C37.352 62.1744 37.3521 62.3964 37.4698 62.6214C37.5924 62.8556 37.77 63.0271 38.0193 63.1273C38.0609 63.144 38.1225 63.1595 38.1066 63.2219C38.0899 63.2874 38.0247 63.2852 37.9737 63.286C37.6587 63.2908 37.3891 63.1876 37.1635 62.986C36.9263 62.774 36.7758 62.5081 36.7166 62.1933C36.6533 61.8572 36.733 61.5368 36.9549 61.2589C37.3316 60.7873 37.8125 60.5058 38.4179 60.5267C38.847 60.5414 39.1723 60.7352 39.4121 61.084C39.7653 61.598 39.594 62.2029 39.1598 62.6106C39.0207 62.7413 38.9788 62.738 38.8866 62.5888C38.7758 62.4098 38.6655 62.2306 38.5549 62.0515ZM38.4644 61.5419C38.5247 61.6496 38.599 61.747 38.676 61.8429C38.7557 61.9423 38.8226 61.9579 38.9342 61.8765C39.0689 61.7781 39.1835 61.6598 39.2544 61.5068C39.3726 61.2519 39.2335 61.0455 38.9551 61.0624C38.7551 61.0746 38.5717 61.1522 38.389 61.232C38.3261 61.2595 38.3141 61.3023 38.3501 61.3574C38.3896 61.418 38.4264 61.4803 38.4644 61.5419Z" fill="white"/>
<path d="M43.493 67.706C43.6337 67.9056 43.7012 68.1583 43.7443 68.4214C43.7574 68.5016 43.7388 68.5647 43.6723 68.6212C43.5726 68.706 43.4772 68.7958 43.3797 68.8832C43.3536 68.9066 43.3252 68.9337 43.29 68.9101C43.2548 68.8866 43.2712 68.8501 43.284 68.8191C43.3692 68.6129 43.4168 68.4007 43.4129 68.1832C43.4095 67.9928 43.3858 67.8077 43.2494 67.6631C43.1605 67.5687 43.0516 67.5354 42.9251 67.5888C42.789 67.6462 42.6785 67.7326 42.66 67.8929C42.6386 68.0781 42.6724 68.2541 42.7134 68.4294C42.7698 68.67 42.7964 68.9119 42.7481 69.1656C42.6522 69.6694 41.8667 70.1828 41.3083 69.6801C40.9432 69.3513 40.7583 68.9253 40.6935 68.4369C40.683 68.3578 40.7131 68.2999 40.7727 68.2486C40.8836 68.1532 40.9931 68.0561 41.105 67.9619C41.1358 67.936 41.1721 67.8942 41.214 67.9218C41.2588 67.9513 41.2244 67.9957 41.2082 68.0322C41.0897 68.2995 41.0042 68.571 41.0334 68.8603C41.0424 68.9496 41.0665 69.0336 41.1017 69.1133C41.1711 69.27 41.3057 69.357 41.4429 69.3402C41.6146 69.3191 41.7634 69.1928 41.815 69.0231C41.8787 68.8131 41.8452 68.6088 41.8087 68.4064C41.7722 68.204 41.7734 68.0046 41.8397 67.8007C42.04 67.1844 42.843 66.9634 43.2791 67.4045C43.3621 67.4885 43.4177 67.5896 43.493 67.706Z" fill="white"/>
<path d="M40.9263 66.0063C41.18 65.845 41.4334 65.6831 41.6877 65.5227C41.7502 65.4833 41.7921 65.4437 41.7452 65.3697C41.7237 65.3358 41.6805 65.2939 41.7354 65.2541C41.7863 65.2172 41.855 65.2152 41.8906 65.2609C41.9565 65.3453 42.0166 65.3166 42.0913 65.2669C42.2358 65.1708 42.3864 65.0841 42.5289 64.9853C42.6199 64.9222 42.6837 64.9175 42.7619 64.9971C42.8865 65.124 43.0361 65.2232 43.1941 65.3091C43.3407 65.3888 43.3402 65.407 43.1876 65.5044C42.9569 65.6516 42.7277 65.8014 42.4939 65.9435C42.3987 66.0014 42.3848 66.0544 42.4437 66.1398C42.5218 66.2531 42.5907 66.3729 42.6615 66.4911C42.6864 66.5328 42.7316 66.5822 42.6681 66.6267C42.6045 66.6713 42.541 66.6501 42.5022 66.5928C42.4332 66.4908 42.3707 66.3844 42.3057 66.2796C42.2105 66.1261 42.2105 66.1259 42.0494 66.2283C41.5842 66.524 41.1184 66.8188 40.6542 67.116C40.3747 67.2949 40.346 67.5247 40.5736 67.7413C40.6181 67.7837 40.6679 67.8207 40.7158 67.8595C40.7298 67.8709 40.7464 67.8793 40.7609 67.8902C40.7912 67.9131 40.8167 67.9398 40.7979 67.9831C40.7811 68.0218 40.7443 68.0235 40.7104 68.0248C40.5351 68.0315 40.3762 67.985 40.2377 67.8906C39.9431 67.6899 39.7662 67.4182 39.8071 67.0414C39.8338 66.795 39.9878 66.6103 40.1948 66.4723C40.4354 66.312 40.682 66.1609 40.9259 66.0058C40.9261 66.0059 40.9262 66.0061 40.9263 66.0063Z" fill="white"/>
<path d="M36.645 59.139C36.4314 59.2556 36.2577 59.4154 36.129 59.6219C35.9091 59.9749 35.9585 60.3675 36.2569 60.6253C36.4016 60.7503 36.5702 60.8365 36.7534 60.8991C36.8003 60.9151 36.8656 60.9264 36.8469 60.9969C36.8306 61.0581 36.77 61.0499 36.7221 61.0521C36.1559 61.0787 35.6551 60.7676 35.4331 60.2687C35.3161 60.0057 35.253 59.7375 35.3183 59.443C35.3922 59.1093 35.5966 58.8527 35.8682 58.6481C36.2381 58.3694 36.6451 58.2028 37.1036 58.2754C37.4907 58.3368 37.8013 58.5259 38.0206 58.8396C38.1324 58.9995 38.2349 59.1664 38.2716 59.3673C38.2903 59.4697 38.298 59.5712 38.2852 59.6758C38.2648 59.8423 38.1479 59.9798 37.9912 60.0214C37.8262 60.0652 37.7168 59.9877 37.6284 59.8719C37.5403 59.7565 37.5457 59.5854 37.6431 59.4553C37.7005 59.3786 37.7693 59.31 37.8269 59.2335C37.9565 59.0611 37.902 58.8902 37.7012 58.829C37.5379 58.7793 37.3738 58.8087 37.2115 58.8597C37.0098 58.923 36.8196 59.0138 36.645 59.139Z" fill="white"/>
<path d="M38.8131 45.3867H31.1711V47.5624H38.8131V45.3867Z" fill="#EF9D59"/>
<path d="M50.688 42.278L51.5695 45.718" stroke="#1773C6" stroke-width="0.874985" stroke-linecap="round" stroke-linejoin="round"/>
<path d="M43.2907 30.1004C42.8477 30.6453 42.2057 30.9231 41.5608 30.9231C40.9983 30.9231 40.4336 30.7116 39.9974 30.2815L38.8718 29.1717C38.874 29.447 38.8749 29.7807 38.8724 30.1553L39.5059 30.78C40.0573 31.3237 40.7871 31.6231 41.5608 31.6231C42.4468 31.6231 43.2753 31.229 43.8338 30.542L44.2159 30.072C44.184 29.7119 44.1559 29.3731 44.1332 29.064L43.2907 30.1004Z" fill="#DBA59C"/>
<path d="M41.7956 39.3663C42.6645 39.3663 44.0426 38.964 45.067 37.8303C45.6338 37.2029 46.2677 36.1471 46.2287 34.5888L45.7004 34.4959C45.7663 35.9422 45.1908 36.9102 44.6774 37.4784C43.7685 38.4843 42.5569 38.8413 41.7956 38.8413C41.1327 38.8413 39.4768 38.7133 38.418 37.5275C38.001 37.0606 37.5427 36.2596 37.572 35.0199L37.0457 35.1858C37.0585 36.4942 37.5648 37.3603 38.0264 37.8771C39.2265 39.2212 41.0621 39.3663 41.7956 39.3663Z" fill="#1773C6"/>
<path d="M59.8599 60.1127C59.9375 60.1979 60.044 60.2411 60.1509 60.2411C60.2456 60.2411 60.3406 60.2072 60.4161 60.1383C60.5768 59.9918 60.5883 59.7428 60.4418 59.582C59.8146 58.8943 58.8755 58.0315 58.4592 57.6556L57.9881 58.2861C57.9084 58.2133 57.8271 58.1424 57.7449 58.0726C57.9068 58.217 59.1284 59.3105 59.8599 60.1127Z" fill="#DBA59C"/>
<path d="M10.7112 54.0141V73.9273C11.1559 74.2512 11.6054 74.5569 12.0593 74.8448V54.0141H10.7112Z" fill="#105A91"/>
</svg>
