<?xml version="1.0" encoding="UTF-8"?>
<svg width="25px" height="24px" viewBox="0 0 25 24" version="1.1" xmlns="http://www.w3.org/2000/svg" xmlns:xlink="http://www.w3.org/1999/xlink">
    <!-- Generator: sketchtool 55 (78076) - https://sketchapp.com -->
    <title>E2FF382E-2703-4AB7-9EC2-EFF10B30CFD9</title>
    <desc>Created with sketchtool.</desc>
    <g id="Asset-Artboard-Page" stroke="none" stroke-width="1" fill="none" fill-rule="evenodd" stroke-linecap="round" stroke-linejoin="round">
        <g id="Icon_For-Sale_Side-Panel" stroke="#000000" stroke-width="0.65">
            <g transform="translate(12.500000, 12.000000) rotate(-315.000000) translate(-12.500000, -12.000000) translate(6.000000, 2.000000)" id="Path">
                <path d="M11.6091139,3.95696203 L7.68936709,0.696202532 C6.80151899,-0.0425316456 5.51088608,-0.0341772152 4.63265823,0.715949367 L0.835696203,3.95822785 C0.308101266,4.40886076 0.00430379747,5.0678481 0.00430379747,5.76177215 L0.00430379747,19.8946835 L12.4640506,19.8946835 L12.4640506,5.78025316 C12.4640506,5.07544304 12.1508861,4.40759494 11.6091139,3.95696203 Z"></path>
                <path d="M7.14962025,2.77037975 C7.14962025,3.29341772 6.72556962,3.71746835 6.20253165,3.71746835 C5.67949367,3.71746835 5.25544304,3.29341772 5.25544304,2.77037975 C5.25544304,2.24734177 5.67949367,1.82329114 6.20253165,1.82329114 C6.72556962,1.82329114 7.14962025,2.24734177 7.14962025,2.77037975 Z"></path>
            </g>
        </g>
    </g>
</svg>