<?xml version="1.0" encoding="UTF-8"?>
<svg width="22px" height="22px" viewBox="0 0 22 22" version="1.1" xmlns="http://www.w3.org/2000/svg" xmlns:xlink="http://www.w3.org/1999/xlink">
    <!-- Generator: sketchtool 55 (78076) - https://sketchapp.com -->
    <title>3ED3A6E1-A42A-45BA-866C-37EBAF572A1E</title>
    <desc>Created with sketchtool.</desc>
    <g id="Cents-Admin" stroke="none" stroke-width="1" fill="none" fill-rule="evenodd" stroke-linecap="round" stroke-linejoin="round">
        <g id="GLOBAL-VIEW-(Devices---Assign-Batch-to-Location)-Copy-2" transform="translate(-574.000000, -323.000000)" stroke="#000000" stroke-width="0.65">
            <g id="SIDE-PANEL" transform="translate(546.000000, 168.000000)">
                <g id="Task-Description" transform="translate(29.000000, 152.000000)">
                    <g id="Icon_Task-Description_Side-Panel" transform="translate(0.000000, 4.000000)">
                        <path d="M19.7467848,19.7649114 L4.4118481,19.7649114 L4.4118481,1.27275949 L19.7467848,1.27275949 L19.7467848,19.7649114 Z M16.6455696,4.99417722 L7.51316456,4.99417722 L16.6455696,4.99417722 Z M16.6455696,7.7564557 L7.51316456,7.7564557 L16.6455696,7.7564557 Z M16.6455696,10.5189873 L7.51316456,10.5189873 L16.6455696,10.5189873 Z M16.6455696,13.2812658 L7.51316456,13.2812658 L16.6455696,13.2812658 Z M16.6455696,16.0437975 L7.51316456,16.0437975 L16.6455696,16.0437975 Z M4.27392405,18.0551899 L-3.25073302e-13,17.5253165 L2.17265823,3.94351218e-13 L11.8488608,1.25974684"></path>
                    </g>
                </g>
            </g>
        </g>
    </g>
</svg>