<?xml version="1.0" encoding="UTF-8"?>
<svg width="17px" height="22px" viewBox="0 0 17 22" version="1.1" xmlns="http://www.w3.org/2000/svg" xmlns:xlink="http://www.w3.org/1999/xlink">
    <!-- Generator: sketchtool 55 (78076) - https://sketchapp.com -->
    <title>29C9EEED-E1CC-4FA4-BACB-8FCE869D2B1A</title>
    <desc>Created with sketchtool.</desc>
    <g id="Cents-Admin" stroke="none" stroke-width="1" fill="none" fill-rule="evenodd" stroke-linecap="round" stroke-linejoin="round">
        <g id="GLOBAL-VIEW-(Devices---Assign-Batch-to-Location)-Copy-2" transform="translate(-578.000000, -278.000000)" stroke="#000000" stroke-width="0.65">
            <g id="SIDE-PANEL" transform="translate(546.000000, 168.000000)">
                <g id="Task-Title" transform="translate(16.000000, 93.000000)">
                    <g id="Icon_Tasks_Side-Panel" transform="translate(17.000000, 18.000000)">
                        <path d="M0.621265823,19.7468354 L14.2734177,19.7468354 C14.6164557,19.7468354 14.8946835,19.4686076 14.8946835,19.1255696 L14.8946835,0.621265823 C14.8946835,0.278227848 14.6164557,2.29150032e-13 14.2734177,2.29150032e-13 L0.621265823,2.29150032e-13 C0.278227848,2.29150032e-13 5.86197757e-14,0.278227848 5.86197757e-14,0.621265823 L5.86197757e-14,19.1255696 C5.86197757e-14,19.4686076 0.278227848,19.7468354 0.621265823,19.7468354 Z M11.181519,1.39589873 L13.396557,1.39589873 L13.396557,18.1822278 L1.49782278,18.1822278 L1.49782278,1.39589873 L3.71316456,1.39589873 L3.71316456,0.168607595 L11.181519,0.168607595 L11.181519,1.39589873 Z M11.181519,1.39589873 L3.71316456,1.39589873 L3.71316456,1.97974684 C3.71316456,2.47088608 4.11139241,2.86911392 4.60253165,2.86911392 L10.2921519,2.86911392 C10.7832911,2.86911392 11.181519,2.47088608 11.181519,1.97974684 L11.181519,1.39589873 Z M11.181519,6.15164557 L3.71316456,6.15164557 L11.181519,6.15164557 Z M11.181519,8.91417722 L3.71316456,8.91417722 L11.181519,8.91417722 Z M11.181519,11.6764557 L3.71316456,11.6764557 L11.181519,11.6764557 Z M11.181519,14.4387342 L3.71316456,14.4387342 L11.181519,14.4387342 Z"></path>
                    </g>
                </g>
            </g>
        </g>
    </g>
</svg>