<?xml version="1.0" encoding="UTF-8"?>
<svg width="56px" height="56px" viewBox="0 0 56 56" version="1.1" xmlns="http://www.w3.org/2000/svg" xmlns:xlink="http://www.w3.org/1999/xlink">
    <!-- Generator: sketchtool 55 (78076) - https://sketchapp.com -->
    <title>41DFC712-0292-4191-AE1F-6D62972CDC6C</title>
    <desc>Created with sketchtool.</desc>
    <g id="Cents-Admin" stroke="none" stroke-width="1" fill="none" fill-rule="evenodd">
        <g id="MACHINES-(Side-Panel---Run-Machine---Wash-Type_1" transform="translate(-663.000000, -391.000000)" fill-rule="nonzero" stroke="#757575">
            <g id="SIDE-PANEL" transform="translate(546.000000, 203.000000)">
                <g id="Technical---Unselected" transform="translate(79.000000, 163.000000)">
                    <g id="Icon_Technical_Run-Machine" transform="translate(39.174533, 26.184860)">
                        <path d="M6.76572665,53.28504 C7.34163665,53.40897 7.92483665,53.46972 8.51289665,53.46972 C9.53835665,53.46972 10.5492366,53.28261 11.5212366,52.91568 C13.6474866,52.11378 15.3314766,50.52942 16.2670266,48.46149 C17.2730466,46.23561 17.2730466,43.68411 16.2670266,41.46066 C16.0604766,41.00139 16.1601066,40.45464 16.5148866,40.09986 L40.1053266,16.50942 C40.3361766,16.281 40.6399266,16.15464 40.9655466,16.15464 C41.1405066,16.15464 41.3081766,16.19109 41.4661266,16.26156 C42.5717766,16.76214 43.7454666,17.01486 44.9531766,17.01486 C48.2968566,17.01486 51.3440766,15.05142 52.7194566,12.01149 C53.4654666,10.3518 53.6622966,8.52201 53.2905066,6.76026 L49.4681166,10.58265 C49.2396966,10.81107 48.9335166,10.93743 48.6078966,10.93743 L43.7478966,10.93743 C43.0772166,10.93743 42.5328966,10.39311 42.5328966,9.72243 L42.5328966,4.86243 C42.5328966,4.53681 42.6592566,4.23306 42.8876766,4.00221 L46.7100666,0.17982 C46.1390166,0.06075 45.5582466,4.79616347e-13 44.9750466,4.79616347e-13 C41.6313666,4.79616347e-13 38.5841466,1.96344 37.2111966,5.00337 C36.2051766,7.22925 36.2051766,9.78075 37.2111966,12.00663 C37.4177466,12.46347 37.3181166,13.01022 36.9633366,13.365 L13.3728966,36.95544 C13.1444766,37.18386 12.8382966,37.31022 12.5151066,37.31022 C12.3425766,37.31022 12.1724766,37.27377 12.0145266,37.2033 C10.8991566,36.70029 9.72303665,36.44514 8.51775665,36.44514 C7.49229665,36.44514 6.48141665,36.63225 5.50941665,36.99918 C3.38316665,37.80108 1.69917665,39.38544 0.763626646,41.45337 C0.0151866462,43.11306 -0.181643354,44.94285 0.190146646,46.70217 L4.01253665,42.87978 C4.24095665,42.65136 4.54713665,42.525 4.87275665,42.525 L9.73275665,42.525 C10.4034366,42.525 10.9477566,43.06932 10.9477566,43.74 L10.9477566,48.6 C10.9477566,48.92562 10.8213966,49.22937 10.5929766,49.46022 L6.76572665,53.28504 Z M36.9633366,40.09986 C37.3181166,40.45464 37.4177466,41.00139 37.2111966,41.46066 C36.2756466,43.53102 36.2027466,45.83952 37.0070766,47.96577 C37.8114066,50.09202 39.3933366,51.77601 41.4612666,52.71156 C42.5693466,53.21214 43.7478966,53.46486 44.9628966,53.46486 C45.5533866,53.46486 46.1365866,53.40411 46.7100666,53.28261 L42.8901066,49.46265 C42.6616866,49.23423 42.5353266,48.92805 42.5353266,48.60243 L42.5353266,43.74243 C42.5353266,43.07175 43.0796466,42.52743 43.7503266,42.52743 L48.6103266,42.52743 C48.9359466,42.52743 49.2396966,42.65379 49.4705466,42.88221 L53.2953666,46.70703 C53.6331366,45.1251 53.5092066,43.49943 52.9235766,41.94909 C52.1216766,39.82284 50.5373166,38.13885 48.4693866,37.2033 C47.3613066,36.70272 46.1851866,36.45 44.9677566,36.45 C43.7503266,36.45 42.5742066,36.70272 41.4661266,37.2033 C41.3081766,37.2762 41.1405066,37.31022 40.9655466,37.31022 C40.6399266,37.31022 40.3361766,37.18386 40.1053266,36.95544 L31.9528882,28.9999191 L28.8108982,32.1419091 L36.9633366,40.09986 Z M12.5151066,16.15221 C12.8382966,16.15221 13.1444766,16.27857 13.3728966,16.50942 L20.93897,24.2821516 L24.08096,21.1401616 L16.5148866,13.36743 C16.1601066,13.01265 16.0604766,12.4659 16.2670266,12.00906 C18.1964466,7.73469 16.2913266,2.68758 12.0169566,0.75816 C10.9088766,0.25758 9.73032665,0.00486 8.51532665,0.00486 C7.92483665,0.00486 7.33920665,0.06561 6.76815665,0.18711 L10.5881166,4.00464 C10.8189666,4.23306 10.9453266,4.53924 10.9453266,4.86243 L10.9453266,9.72243 C10.9453266,10.39311 10.4010066,10.93743 9.73032665,10.93743 L4.87032665,10.93743 C4.54470665,10.93743 4.24095665,10.81107 4.01010665,10.58265 L0.187716646,6.76026 C-0.638483354,10.63125 1.31523665,14.59215 5.01126665,16.26156 C6.11934665,16.76214 7.29789665,17.01486 8.51289665,17.01486 C9.72789665,17.01486 10.9064466,16.76214 12.0145266,16.26156 C12.1724766,16.18866 12.3401466,16.15221 12.5151066,16.15221 Z"></path>
                    </g>
                </g>
            </g>
        </g>
    </g>
</svg>