<?xml version="1.0" encoding="UTF-8"?>
<svg width="20px" height="20px" viewBox="0 0 20 20" version="1.1" xmlns="http://www.w3.org/2000/svg" xmlns:xlink="http://www.w3.org/1999/xlink">
    <!-- Generator: sketchtool 55 (78076) - https://sketchapp.com -->
    <title>236917A7-16FE-4A03-BAB9-567D763FA78C</title>
    <desc>Created with sketchtool.</desc>
    <defs>
        <path d="M12,2 C6.48,2 2,6.48 2,12 C2,17.52 6.48,22 12,22 C17.52,22 22,17.52 22,12 C22,6.48 17.52,2 12,2 Z M12,20 C7.58,20 4,16.42 4,12 C4,7.58 7.58,4 12,4 C16.42,4 20,7.58 20,12 C20,16.42 16.42,20 12,20 Z" id="path-1"></path>
    </defs>
    <g id="Cents-Admin" stroke="none" stroke-width="1" fill="none" fill-rule="evenodd">
        <g id="MACHINES-(Set-Up-Machine)" transform="translate(-837.000000, -486.000000)">
            <g id="SIDE-PANEL" transform="translate(546.000000, 203.000000)">
                <g id="Dryer" transform="translate(241.000000, 159.000000)">
                    <g id="Icon_Radio-Button-Unselected_Side-Panel" transform="translate(48.000000, 122.000000)">
                        <g>
                            <mask id="mask-2" fill="white">
                                <use xlink:href="#path-1"></use>
                            </mask>
                            <g id="icon/toggle/radio_button_unchecked_24px" fill-rule="nonzero"></g>
                            <g id="↳-Color" mask="url(#mask-2)" fill="#000000" fill-opacity="0.54">
                                <rect id="Rectangle" x="0" y="0" width="24" height="24"></rect>
                            </g>
                        </g>
                    </g>
                </g>
            </g>
        </g>
    </g>
</svg>