<svg width="26" height="25" viewBox="0 0 26 25" fill="none" xmlns="http://www.w3.org/2000/svg">
<path fill-rule="evenodd" clip-rule="evenodd" d="M24.6878 22.7225L15.6571 17.7903C15.6567 17.7903 15.6563 17.7899 15.6558 17.7895C15.6525 17.7878 15.6504 17.784 15.647 17.7819C15.5906 17.7491 15.5472 17.7036 15.5131 17.6522C15.5089 17.6459 15.5013 17.6434 15.4975 17.6371C15.4887 17.6219 15.4878 17.6051 15.4807 17.5895C15.4689 17.5625 15.4579 17.5368 15.452 17.5078C15.4462 17.4813 15.4449 17.456 15.4445 17.4295C15.444 17.4025 15.444 17.3764 15.4487 17.3495C15.4537 17.3208 15.4634 17.2947 15.4739 17.2678C15.4807 17.2518 15.4807 17.2349 15.4891 17.2189C15.4937 17.2109 15.5017 17.2059 15.5068 17.1983C15.5219 17.1747 15.5409 17.1549 15.5603 17.1347C15.5805 17.1137 15.5998 17.0935 15.6234 17.0775C15.631 17.0724 15.6352 17.0644 15.6432 17.0598C18.7501 15.2042 18.7931 10.2446 18.7931 10.1945L18.7897 5.424C18.335 2.82779 15.3556 1.01768 12.9341 1C12.9224 1.00126 12.9101 1.00168 12.8984 1.00168C10.4697 1.00168 7.46426 2.81642 7.00868 5.42484L7.00362 10.1971C7.00362 10.2446 7.04699 15.0703 10.1775 17.0661C10.1838 17.0703 10.1872 17.0771 10.1935 17.0813C10.2158 17.0973 10.2331 17.1179 10.252 17.1377C10.2718 17.1592 10.292 17.1789 10.3068 17.2029C10.3106 17.2093 10.3169 17.2131 10.3207 17.2194C10.3299 17.2366 10.3304 17.2552 10.3371 17.2733C10.3476 17.3002 10.3581 17.3263 10.3628 17.3549C10.367 17.3827 10.3657 17.4093 10.3645 17.4371C10.3636 17.4632 10.3632 17.488 10.3573 17.5137C10.3506 17.5432 10.3384 17.5697 10.3253 17.5971C10.3177 17.6135 10.316 17.6316 10.3059 17.6476C10.3017 17.6535 10.2954 17.6568 10.2912 17.6627C10.2752 17.6851 10.2546 17.7032 10.2339 17.7225C10.2125 17.7423 10.1927 17.7625 10.1683 17.7773C10.1624 17.7811 10.159 17.7874 10.1523 17.7907L1.10889 22.7246V24.1579C1.10889 24.3899 1.28531 24.5789 1.50215 24.5789H24.2946C24.5114 24.5789 24.6878 24.3899 24.6878 24.1579V22.7225Z" stroke="black" stroke-width="0.65"/>
</svg>
