<svg width="24" height="24" viewBox="0 0 24 24" fill="none" xmlns="http://www.w3.org/2000/svg">
<path d="M22.9973 12.0002C22.9973 11.8207 22.8518 11.6752 22.6723 11.6752C22.4928 11.6752 22.3473 11.8207 22.3473 12.0002H22.9973ZM11.6764 1.32898C11.8559 1.32898 12.0014 1.18348 12.0014 1.00398C12.0014 0.82449 11.8559 0.678983 11.6764 0.678983V1.32898ZM23.3078 12.7374C23.4347 12.8643 23.6405 12.8643 23.7674 12.7374C23.8943 12.6104 23.8943 12.4047 23.7674 12.2777L23.3078 12.7374ZM22.6723 11.6423L22.9021 11.4125C22.8412 11.3516 22.7585 11.3173 22.6723 11.3173C22.5861 11.3173 22.5035 11.3516 22.4425 11.4125L22.6723 11.6423ZM21.5773 12.2777C21.4504 12.4047 21.4504 12.6104 21.5773 12.7374C21.7042 12.8643 21.91 12.8643 22.0369 12.7374L21.5773 12.2777ZM11.9944 7.59739C11.9944 7.4179 11.8489 7.27239 11.6694 7.27239C11.4899 7.27239 11.3444 7.4179 11.3444 7.59739H11.9944ZM11.6694 11.993H11.3444V12.318L11.6694 12.318V11.993ZM16.065 12.318C16.2445 12.318 16.39 12.1725 16.39 11.993C16.39 11.8135 16.2445 11.668 16.065 11.668V12.318ZM22.3473 12.0002C22.3473 17.8936 17.5698 22.6712 11.6764 22.6712V23.3212C17.9287 23.3212 22.9973 18.2526 22.9973 12.0002H22.3473ZM11.6764 22.6712C5.78299 22.6712 1.00542 17.8936 1.00542 12.0002H0.35542C0.35542 18.2526 5.424 23.3212 11.6764 23.3212V22.6712ZM1.00542 12.0002C1.00542 6.10684 5.783 1.32898 11.6764 1.32898V0.678983C5.42399 0.678983 0.35542 5.74788 0.35542 12.0002H1.00542ZM23.7674 12.2777L22.9021 11.4125L22.4425 11.8721L23.3078 12.7374L23.7674 12.2777ZM22.4425 11.4125L21.5773 12.2777L22.0369 12.7374L22.9021 11.8721L22.4425 11.4125ZM18.817 11.993C18.817 15.9405 15.6169 19.1405 11.6694 19.1405V19.7905C15.9759 19.7905 19.467 16.2994 19.467 11.993H18.817ZM11.6694 19.1405C7.72196 19.1405 4.5219 15.9405 4.5219 11.993H3.8719C3.8719 16.2994 7.36298 19.7905 11.6694 19.7905V19.1405ZM4.5219 11.993C4.5219 8.04552 7.72196 4.84547 11.6694 4.84547V4.19547C7.36298 4.19547 3.8719 7.68654 3.8719 11.993H4.5219ZM11.6694 4.84547C15.6169 4.84547 18.817 8.04552 18.817 11.993H19.467C19.467 7.68654 15.9759 4.19547 11.6694 4.19547V4.84547ZM17.4983 11.993C17.4983 15.2122 14.8886 17.8218 11.6694 17.8218V18.4718C15.2476 18.4718 18.1483 15.5712 18.1483 11.993H17.4983ZM11.6694 17.8218C8.45025 17.8218 5.84058 15.2122 5.84058 11.993H5.19058C5.19058 15.5712 8.09126 18.4718 11.6694 18.4718V17.8218ZM5.84058 11.993C5.84058 8.77381 8.45025 6.16415 11.6694 6.16415V5.51415C8.09126 5.51415 5.19058 8.41483 5.19058 11.993H5.84058ZM11.6694 6.16415C14.8886 6.16415 17.4983 8.77381 17.4983 11.993H18.1483C18.1483 8.41483 15.2476 5.51415 11.6694 5.51415V6.16415ZM11.3444 7.59739V11.993H11.9944V7.59739H11.3444ZM11.6694 12.318L16.065 12.318V11.668L11.6694 11.668V12.318Z" fill="#212121"/>
</svg>
