<svg width="110" height="53" viewBox="0 0 110 53" fill="none" xmlns="http://www.w3.org/2000/svg">
<path d="M80.611 45.8325L102.108 45.8325L102.108 32.2863L80.611 32.2863L80.611 45.8325Z" fill="#0C4D75"/>
<path d="M21.7963 45.8325L43.2932 45.8325L43.2932 32.2863L21.7963 32.2863L21.7963 45.8325Z" fill="#0C4D75"/>
<path d="M6.42412 23.6478L15.3623 19.3234L29.2206 2.42891C30.4862 0.890977 32.3703 0 34.3565 0H106.344C108.364 0 109.999 1.6344 109.999 3.65471V42.4888C109.999 44.3332 108.501 45.8314 106.656 45.8314H100.612C100.675 45.3888 100.709 44.9291 100.709 44.4694C100.709 39.1349 96.3844 34.8049 91.0442 34.8049C85.7041 34.8049 81.3797 39.1292 81.3797 44.4694C81.3797 44.9348 81.4138 45.3888 81.4762 45.8314H42.1086C42.171 45.3888 42.2051 44.9291 42.2051 44.4694C42.2051 39.1349 37.8807 34.8049 32.5405 34.8049C27.2003 34.8049 22.876 39.1292 22.876 44.4694C22.876 44.9348 22.91 45.3888 22.9725 45.8314H5.14156C2.30406 45.8314 0 43.5274 0 40.6899V33.8855C0 29.5271 2.49701 25.5489 6.42412 23.6478Z" fill="#3790F4"/>
<path d="M32.5462 52.3633C36.9059 52.3633 40.4401 48.8291 40.4401 44.4694C40.4401 40.1097 36.9059 36.5754 32.5462 36.5754C28.1865 36.5754 24.6522 40.1097 24.6522 44.4694C24.6522 48.8291 28.1865 52.3633 32.5462 52.3633Z" fill="#3790F4"/>
<path d="M32.5462 48.4022C34.7182 48.4022 36.479 46.6414 36.479 44.4694C36.479 42.2974 34.7182 40.5366 32.5462 40.5366C30.3742 40.5366 28.6134 42.2974 28.6134 44.4694C28.6134 46.6414 30.3742 48.4022 32.5462 48.4022Z" fill="#1773C6"/>
<path d="M91.0442 52.3633C95.4039 52.3633 98.9382 48.8291 98.9382 44.4694C98.9382 40.1097 95.4039 36.5754 91.0442 36.5754C86.6845 36.5754 83.1503 40.1097 83.1503 44.4694C83.1503 48.8291 86.6845 52.3633 91.0442 52.3633Z" fill="#3790F4"/>
<path d="M91.0442 48.4022C93.2162 48.4022 94.977 46.6414 94.977 44.4694C94.977 42.2974 93.2162 40.5366 91.0442 40.5366C88.8722 40.5366 87.1115 42.2974 87.1115 44.4694C87.1115 46.6414 88.8722 48.4022 91.0442 48.4022Z" fill="#1773C6"/>
<path d="M107.74 35.4292H109.999V26.6953H107.74C106.815 26.6953 106.066 27.4444 106.066 28.3694V33.7607C106.066 34.6801 106.815 35.4292 107.74 35.4292Z" fill="white"/>
<path d="M55.3428 22.9157H104.023C104.897 22.9157 105.601 22.2063 105.601 21.338V5.51039C105.601 4.63644 104.891 3.93274 104.023 3.93274H55.3428C54.4689 3.93274 53.7652 4.64212 53.7652 5.51039V21.338C53.7595 22.212 54.4689 22.9157 55.3428 22.9157Z" stroke="#DCECFF" stroke-width="1.1261" stroke-miterlimit="10" stroke-linecap="round" stroke-linejoin="round"/>
<path d="M21.1507 21.7695L21.4345 22.2689C22.0701 23.3869 21.4912 24.8 20.2541 25.1518L10.5612 27.8985" stroke="#DCECFF" stroke-width="1.1261" stroke-miterlimit="10" stroke-linecap="round" stroke-linejoin="round"/>
<path d="M42.9372 40.5366H49.6791V3.80225H36.8309C35.6051 3.80225 34.4474 4.38677 33.721 5.3799L28.1198 13.0128V29.3909C28.1198 29.3909 39.5492 27.7168 42.9372 40.5366Z" stroke="#DCECFF" stroke-width="1.1261" stroke-miterlimit="10" stroke-linecap="round" stroke-linejoin="round"/>
<path d="M38.9419 20.4697H46.7848C47.3579 20.4697 47.8233 20.0043 47.8233 19.4312V6.94612C47.8233 6.37294 47.3579 5.90759 46.7848 5.90759H38.9419C38.3687 5.90759 37.9034 6.37294 37.9034 6.94612V19.4312C37.8977 20.0043 38.363 20.4697 38.9419 20.4697Z" fill="#A6C7E8"/>
<path d="M30.5884 20.4697H32.6314C34.4587 20.4697 35.9342 18.9885 35.9342 17.1668V7.2469C35.9342 6.78155 35.3554 6.56589 35.0546 6.91774L28.9426 13.9831V18.8239C28.9426 19.7319 29.6804 20.4697 30.5884 20.4697Z" fill="#A6C7E8"/>
<path d="M47.5056 23.9087H41.7455" stroke="#DCECFF" stroke-width="1.1261" stroke-miterlimit="10" stroke-linecap="round" stroke-linejoin="round"/>
<path d="M28.6191 25.0835H31.1558V14.1194H28.6191C27.5579 14.1194 26.7009 14.9763 26.7009 16.0375V23.1654C26.7009 24.2266 27.5579 25.0835 28.6191 25.0835Z" fill="#105A91"/>
<path d="M30.5373 15.1125H31.1558V24.6182H30.5373C30.0265 24.6182 29.6066 24.2039 29.6066 23.6875V16.0433C29.6066 15.5268 30.0208 15.1125 30.5373 15.1125Z" fill="white"/>
<path d="M28.1196 13.0127L22.6716 20.0667C22.6716 20.0667 26.5874 22.6035 26.7009 26.4455" stroke="#DCECFF" stroke-width="1.1261" stroke-miterlimit="10" stroke-linecap="round" stroke-linejoin="round"/>
<path d="M20.3392 18.1771L31.5019 4.73295C31.8084 4.36407 31.5473 3.80225 31.0649 3.80225H27.9834L15.3622 19.3234H17.8989C18.841 19.3234 19.7376 18.9035 20.3392 18.1771Z" fill="#A6C7E8"/>
<path d="M22.9781 45.8315H5.14156C2.30406 45.8315 0 43.5274 0 40.6899V38.0283H21.7296C22.7682 38.0283 23.7556 38.4256 24.5047 39.1179C23.4832 40.6502 22.8873 42.4889 22.8873 44.4751C22.8817 44.9348 22.9157 45.3888 22.9781 45.8315Z" fill="#105A91"/>
<path d="M81.3853 44.4694C81.3853 44.9347 81.4194 45.3887 81.4818 45.8314H42.1086C42.171 45.3887 42.205 44.9291 42.205 44.4694C42.205 43.8565 42.1426 43.2549 42.0348 42.6704H81.5499C81.4421 43.2549 81.3853 43.8565 81.3853 44.4694Z" fill="#105A91"/>
<path d="M109.999 38.0283V42.4889C109.999 44.3333 108.501 45.8315 106.656 45.8315H100.612C100.675 45.3888 100.709 44.9291 100.709 44.4695C100.709 42.2392 99.9541 40.1905 98.6829 38.5561C99.3639 38.2213 100.13 38.0283 100.936 38.0283H109.999V38.0283Z" fill="#105A91"/>
<path d="M8.79627 29.7768V33.5961C8.79627 34.0955 8.39335 34.5041 7.88827 34.5041H0V33.8969C0 32.83 0.153225 31.7801 0.436976 30.7869L7.57047 28.8461C8.18905 28.6702 8.79627 29.1355 8.79627 29.7768Z" fill="white"/>
<path d="M3.2348 34.4983C3.85851 34.4983 4.36412 33.5074 4.36412 32.285C4.36412 31.0627 3.85851 30.0718 3.2348 30.0718C2.61109 30.0718 2.10547 31.0627 2.10547 32.285C2.10547 33.5074 2.61109 34.4983 3.2348 34.4983Z" fill="#F2B283"/>
<path d="M1.37899 34.4985C1.78017 34.4985 2.10539 33.8608 2.10539 33.0741C2.10539 32.2874 1.78017 31.6497 1.37899 31.6497C0.977809 31.6497 0.652588 32.2874 0.652588 33.0741C0.652588 33.8608 0.977809 34.4985 1.37899 34.4985Z" fill="#F7931E"/>
<path d="M106.067 33.1038L110 33.1038L110 31.6623L106.067 31.6623L106.067 33.1038Z" fill="#F7931E"/>
</svg>
