<svg width="138" height="113" viewBox="0 0 138 113" fill="none" xmlns="http://www.w3.org/2000/svg">
<g clip-path="url(#clip0)">
<path d="M46.9285 98.6785L93.2119 98.6785L93.2119 69.5131L46.9285 69.5131L46.9285 98.6785Z" fill="#0C4D75"/>
<path d="M13.8313 50.9142L33.0753 41.6038L62.9127 5.22949C65.6375 1.9183 69.694 0 73.9704 0H228.961C233.311 0 236.83 3.51891 236.83 7.86868V91.4795C236.83 95.4505 233.604 98.6761 229.633 98.6761H216.621C216.755 97.7231 216.828 96.7334 216.828 95.7437C216.828 84.2584 207.518 74.9357 196.02 74.9357C184.523 74.9357 175.212 84.2461 175.212 95.7437C175.212 96.7456 175.286 97.7231 175.42 98.6761H90.6608C90.7952 97.7231 90.8685 96.7334 90.8685 95.7437C90.8685 84.2584 81.5581 74.9357 70.0605 74.9357C58.563 74.9357 49.2525 84.2461 49.2525 95.7437C49.2525 96.7456 49.3258 97.7231 49.4602 98.6761H11.0699C4.96069 98.6761 0 93.7154 0 87.6062V72.9563C0 63.5725 5.37611 55.0074 13.8313 50.9142Z" fill="#3790F4"/>
<path d="M70.073 112.739C79.4595 112.739 87.0688 105.13 87.0688 95.7437C87.0688 86.3571 79.4595 78.7478 70.073 78.7478C60.6864 78.7478 53.0771 86.3571 53.0771 95.7437C53.0771 105.13 60.6864 112.739 70.073 112.739Z" fill="#3790F4"/>
<path d="M70.0728 104.211C74.7493 104.211 78.5402 100.42 78.5402 95.7435C78.5402 91.0671 74.7493 87.2761 70.0728 87.2761C65.3964 87.2761 61.6055 91.0671 61.6055 95.7435C61.6055 100.42 65.3964 104.211 70.0728 104.211Z" fill="#1773C6"/>
<path d="M119.155 49.338H223.964C225.846 49.338 227.361 47.8107 227.361 45.9412V11.864C227.361 9.98237 225.834 8.46729 223.964 8.46729H119.155C117.273 8.46729 115.758 9.99459 115.758 11.864V45.9412C115.746 47.8229 117.273 49.338 119.155 49.338Z" stroke="#DCECFF" stroke-width="1.37592" stroke-miterlimit="10" stroke-linecap="round" stroke-linejoin="round"/>
<path d="M45.5379 46.8701L46.1488 47.9453C47.5173 50.3524 46.271 53.3948 43.6074 54.1523L22.7383 60.066" stroke="#DCECFF" stroke-width="1.37592" stroke-miterlimit="10" stroke-linecap="round" stroke-linejoin="round"/>
<path d="M92.4443 87.2762H106.96V8.18628H79.2973C76.6581 8.18628 74.1655 9.44478 72.6016 11.583L60.542 28.0168V63.2792C60.542 63.2792 85.1499 59.6748 92.4443 87.2762Z" stroke="#DCECFF" stroke-width="1.37592" stroke-miterlimit="10" stroke-linecap="round" stroke-linejoin="round"/>
<path d="M83.8425 44.0718H100.728C101.962 44.0718 102.964 43.0698 102.964 41.8358V14.9552C102.964 13.7212 101.962 12.7192 100.728 12.7192H83.8425C82.6085 12.7192 81.6066 13.7212 81.6066 14.9552V41.8358C81.5943 43.0698 82.5963 44.0718 83.8425 44.0718Z" fill="#A6C7E8"/>
<path d="M65.8578 44.0718H70.2564C74.1908 44.0718 77.3676 40.8828 77.3676 36.9607V15.6029C77.3676 14.6009 76.1213 14.1366 75.4737 14.8942L62.3145 30.1061V40.5285C62.3145 42.4834 63.9029 44.0718 65.8578 44.0718Z" fill="#A6C7E8"/>
<path d="M102.281 51.4761H89.8789" stroke="#DCECFF" stroke-width="1.37592" stroke-miterlimit="10" stroke-linecap="round" stroke-linejoin="round"/>
<path d="M61.6181 54.0054H67.0798V30.3994H61.6181C59.3333 30.3994 57.4883 32.2444 57.4883 34.5292V49.8756C57.4883 52.1605 59.3333 54.0054 61.6181 54.0054Z" fill="#105A91"/>
<path d="M65.747 32.5376H67.0788V53.0035H65.747C64.6473 53.0035 63.7432 52.1115 63.7432 50.9997V34.5414C63.7432 33.4295 64.6351 32.5376 65.747 32.5376Z" fill="white"/>
<path d="M60.5422 28.0168L48.8125 43.2044C48.8125 43.2044 57.2432 48.666 57.4876 56.9379" stroke="#DCECFF" stroke-width="1.37592" stroke-miterlimit="10" stroke-linecap="round" stroke-linejoin="round"/>
<path d="M43.7908 39.1356L67.8244 10.1901C68.4842 9.39591 67.9222 8.18628 66.8836 8.18628H60.249L33.0752 41.6037H38.5368C40.5651 41.6037 42.4956 40.6995 43.7908 39.1356Z" fill="#A6C7E8"/>
<path d="M49.4725 98.6761H11.0699C4.96069 98.6761 0 93.7154 0 87.6062V81.8757H46.7844C49.0204 81.8757 51.1464 82.731 52.7592 84.2217C50.5599 87.5206 49.277 91.4794 49.277 95.7559C49.2648 96.7456 49.3381 97.723 49.4725 98.6761Z" fill="#105A91"/>
<path d="M175.225 95.7436C175.225 96.7455 175.298 97.723 175.432 98.676H90.6608C90.7952 97.723 90.8685 96.7333 90.8685 95.7436C90.8685 94.424 90.7341 93.1289 90.502 91.8704H175.579C175.347 93.1289 175.225 94.424 175.225 95.7436Z" fill="#105A91"/>
<path d="M18.9386 64.1102V72.3332C18.9386 73.4084 18.0711 74.2881 16.9836 74.2881H0V72.9808C0 70.6837 0.329898 68.4233 0.94082 66.2851L16.2994 62.1064C17.6312 61.7276 18.9386 62.7295 18.9386 64.1102Z" fill="white"/>
<path d="M6.96467 74.276C8.30754 74.276 9.39614 72.1425 9.39614 69.5108C9.39614 66.8791 8.30754 64.7456 6.96467 64.7456C5.62181 64.7456 4.5332 66.8791 4.5332 69.5108C4.5332 72.1425 5.62181 74.276 6.96467 74.276Z" fill="#F2B283"/>
<path d="M2.96923 74.276C3.83298 74.276 4.53319 72.9029 4.53319 71.2092C4.53319 69.5154 3.83298 68.1423 2.96923 68.1423C2.10548 68.1423 1.40527 69.5154 1.40527 71.2092C1.40527 72.9029 2.10548 74.276 2.96923 74.276Z" fill="#F7931E"/>
</g>
<defs>
<clipPath id="clip0">
<rect width="236.83" height="112.752" fill="white"/>
</clipPath>
</defs>
</svg>
