<?xml version="1.0" encoding="UTF-8"?>
<svg width="92px" height="33px" viewBox="0 0 92 33" version="1.1" xmlns="http://www.w3.org/2000/svg" xmlns:xlink="http://www.w3.org/1999/xlink">
    <!-- Generator: sketchtool 55 (78076) - https://sketchapp.com -->
    <title>B8AEA5A0-1F63-4FBB-A309-781933777A3F</title>
    <desc>Created with sketchtool.</desc>
    <g id="ORDER-FORM" stroke="none" stroke-width="1" fill="none" fill-rule="evenodd">
        <g id="DRIVER_Drop-Off-&amp;-Pick-Up-Locations-Copy-45" transform="translate(-243.000000, -637.000000)" fill-rule="nonzero">
            <g id="Group-Copy" transform="translate(20.000000, 536.000000)">
                <g id="Car" transform="translate(223.000000, 101.000000)">
                    <polygon id="Path" fill="#104768" points="84.4236441 15.3431652 90.1405085 16.5385828 91.0488136 24.2496181 84.4236441 24.2496181"></polygon>
                    <path d="M82.1431356,16.331456 C78.839322,16.331456 76.1592373,19.9689973 76.1592373,24.4547723 C76.1592373,28.9405473 78.8373729,32.5780886 82.1431356,32.5780886 L84.8933898,32.5780886 L84.8933898,16.331456 L82.1431356,16.331456 Z" id="Path" fill="#104768"></path>
                    <path d="M56.5897458,16.331456 C53.3307627,16.331456 50.689661,19.9689973 50.689661,24.4547723 C50.689661,28.9405473 53.3307627,32.5780886 56.5897458,32.5780886 L59.3010169,32.5780886 L59.3010169,16.331456 L56.5897458,16.331456 Z" id="Path" fill="#104768"></path>
                    <polygon id="Path" fill="#104768" points="48.3214407 15.3431652 38.3047458 15.3431652 38.3047458 24.0503819 48.3214407 24.0503819"></polygon>
                    <path d="M39.1818644,16.331456 C35.7240678,16.331456 32.9211864,19.992669 32.9211864,24.5100061 C32.9211864,29.0273433 35.7240678,32.6885563 39.1818644,32.6885563 L42.0588136,32.6885563 L42.0588136,16.331456 L39.1818644,16.331456 Z" id="Path" fill="#104768"></path>
                    <path d="M42.0588136,32.6905289 C45.5164153,32.6905289 48.3194915,29.0289214 48.3194915,24.5119788 C48.3194915,19.9950361 45.5164153,16.3334286 42.0588136,16.3334286 C38.6012119,16.3334286 35.7981356,19.9950361 35.7981356,24.5119788 C35.7981356,29.0289214 38.6012119,32.6905289 42.0588136,32.6905289 Z" id="Path" fill="#105A91"></path>
                    <path d="M42.3083051,30.5443006 C44.7260339,30.5443006 46.6861017,27.8435642 46.6861017,24.5119788 C46.6861017,21.1803933 44.7260339,18.4796372 42.3083051,18.4796372 C39.8905763,18.4796372 37.9305085,21.1803933 37.9305085,24.5119788 C37.9305085,27.8435642 39.8905763,30.5443006 42.3083051,30.5443006 Z" id="Path" fill="#7DB8FB"></path>
                    <path d="M42.3083051,26.0723341 C41.8054237,26.0723341 41.3961017,27.3663835 41.3961017,28.9622463 C41.3961017,29.5047213 41.4428814,30.0116888 41.5247458,30.4436961 C41.7781356,30.5068205 42.039322,30.542328 42.3063559,30.542328 C42.5733898,30.542328 42.8345763,30.5068205 43.0879661,30.4436961 C43.1698305,30.0097162 43.2166102,29.5027486 43.2166102,28.9622463 C43.2185593,27.3663835 42.8111864,26.0723341 42.3083051,26.0723341 Z" id="Path" fill="#AED4FF"></path>
                    <path d="M42.3083051,22.9496508 C42.8111864,22.9496508 43.2205085,21.6556014 43.2205085,20.0597386 C43.2205085,19.5172439 43.1737288,19.0102764 43.0918644,18.578269 C42.8384746,18.5151447 42.5772881,18.4796372 42.3102542,18.4796372 C42.0432203,18.4796372 41.7820339,18.5151447 41.5286441,18.578269 C41.4467797,19.012249 41.4,19.5192165 41.4,20.0597386 C41.3961017,21.6556014 41.8054237,22.9496508 42.3083051,22.9496508 Z" id="Path" fill="#AED4FF"></path>
                    <path d="M43.6259322,23.6992526 C43.8871186,24.1352052 45.1911017,23.8156381 46.5399153,22.9851583 C46.5418644,22.9851583 46.5418644,22.9831856 46.5438136,22.9831856 C46.4210169,22.3381336 46.2241525,21.7364795 45.9649153,21.1940045 C45.8421186,21.2610741 45.7173729,21.332089 45.5926271,21.4090219 C44.2457627,22.2395017 43.3647458,23.2652726 43.6259322,23.6992526 Z" id="Path" fill="#AED4FF"></path>
                    <path d="M40.9887288,25.3227323 C40.7275424,24.8867797 39.4235593,25.2063467 38.0747458,26.0368266 C38.0727966,26.0368266 38.0727966,26.0387993 38.0708475,26.0387993 C38.1936441,26.6838513 38.3905085,27.2855054 38.6497458,27.8279804 C38.7725424,27.7609108 38.8972881,27.6898959 39.0220339,27.612963 C40.3708475,26.7824832 41.2518644,25.7586849 40.9887288,25.3227323 Z" id="Path" fill="#AED4FF"></path>
                    <path d="M46.5399153,26.0368266 C45.1930508,25.2083194 43.8871186,24.8887523 43.6259322,25.3227323 C43.3647458,25.7586849 44.2457627,26.7824832 45.5926271,27.612963 C45.7173729,27.6898959 45.8421186,27.7609108 45.9649153,27.8279804 C46.2241525,27.2855054 46.4229661,26.6838513 46.5438136,26.0387993 C46.5438136,26.0387993 46.5418644,26.0368266 46.5399153,26.0368266 Z" id="Path" fill="#AED4FF"></path>
                    <path d="M40.9887288,23.6992526 C41.2499153,23.2633 40.3688983,22.2395017 39.0220339,21.4090219 C38.8972881,21.332089 38.7725424,21.2610741 38.6497458,21.1940045 C38.3905085,21.7364795 38.1916949,22.3381336 38.0708475,22.9831856 C38.0727966,22.9831856 38.0727966,22.9851583 38.0747458,22.9851583 C39.4235593,23.8156381 40.7275424,24.1352052 40.9887288,23.6992526 Z" id="Path" fill="#AED4FF"></path>
                    <path d="M42.3083051,25.5081601 C42.694822,25.5081601 43.0080508,25.062147 43.0080508,24.5119788 C43.0080508,23.9618105 42.694822,23.5157974 42.3083051,23.5157974 C41.9217881,23.5157974 41.6085593,23.9618105 41.6085593,24.5119788 C41.6085593,25.062147 41.9217881,25.5081601 42.3083051,25.5081601 Z" id="Path" fill="#105A91"></path>
                    <path d="M59.2990678,32.5780886 C62.557661,32.5780886 65.1991525,28.9411391 65.1991525,24.4547723 C65.1991525,19.9684056 62.557661,16.331456 59.2990678,16.331456 C56.0404746,16.331456 53.3989831,19.9684056 53.3989831,24.4547723 C53.3989831,28.9411391 56.0404746,32.5780886 59.2990678,32.5780886 Z" id="Path" fill="#105A91"></path>
                    <path d="M59.7805085,30.6389871 C62.0594576,30.6389871 63.9068644,27.8701948 63.9068644,24.4547723 C63.9068644,21.0393498 62.0594576,18.2705772 59.7805085,18.2705772 C57.5015593,18.2705772 55.6541525,21.0393498 55.6541525,24.4547723 C55.6541525,27.8701948 57.5015593,30.6389871 59.7805085,30.6389871 Z" id="Path" fill="#7DB8FB"></path>
                    <path d="M85.380678,30.7395916 C83.0202542,30.7395916 81.0983898,27.9206943 81.0983898,24.4567449 C81.0983898,20.9927956 83.0183051,18.173918 85.380678,18.173918 C87.7411017,18.173918 89.6629661,20.9927956 89.6629661,24.4567449 C89.6629661,27.9206943 87.7411017,30.7395916 85.380678,30.7395916 Z M85.380678,18.369209 C83.1274576,18.369209 81.2933051,21.0993179 81.2933051,24.4547723 C81.2933051,27.8102267 83.1274576,30.5403553 85.380678,30.5403553 C87.6338983,30.5403553 89.4680508,27.8102267 89.4680508,24.4547723 C89.4680508,21.0993179 87.6338983,18.369209 85.380678,18.369209 Z" id="Shape" fill="#FF00FF"></path>
                    <path d="M84.8933898,32.5780886 C88.198178,32.5780886 90.8772881,28.9411391 90.8772881,24.4547723 C90.8772881,19.9684056 88.198178,16.331456 84.8933898,16.331456 C81.5886017,16.331456 78.9094915,19.9684056 78.9094915,24.4547723 C78.9094915,28.9411391 81.5886017,32.5780886 84.8933898,32.5780886 Z" id="Path" fill="#105A91"></path>
                    <path d="M85.1077966,30.5127384 C87.4191017,30.5127384 89.2926271,27.8005608 89.2926271,24.4547723 C89.2926271,21.1089839 87.4191017,18.3968062 85.1077966,18.3968062 C82.7964915,18.3968062 80.9229661,21.1089839 80.9229661,24.4547723 C80.9229661,27.8005608 82.7964915,30.5127384 85.1077966,30.5127384 Z" id="Path" fill="#7DB8FB"></path>
                    <path d="M85.380678,26.1591301 C84.8524576,26.1591301 84.4236441,27.569565 84.4236441,29.3114029 C84.4236441,29.7138207 84.4470339,30.0965122 84.4879661,30.449614 C84.690678,30.493012 84.895339,30.5166837 85.1058475,30.5166837 C85.5171186,30.5166837 85.9147458,30.4298877 86.2909322,30.2681315 C86.3201695,29.9663182 86.3357627,29.6447784 86.3357627,29.3114029 C86.3357627,27.569565 85.9088983,26.1591301 85.380678,26.1591301 Z" id="Path" fill="#AED4FF"></path>
                    <path d="M85.380678,22.7523872 C85.9088983,22.7523872 86.3377119,21.3419522 86.3377119,19.6001144 C86.3377119,19.2667388 86.3221186,18.9451991 86.2928814,18.6433857 C85.9166949,18.4836022 85.5190678,18.3948336 85.1077966,18.3948336 C84.8972881,18.3948336 84.690678,18.4185052 84.4899153,18.4619032 C84.4489831,18.8150051 84.4255932,19.1976965 84.4255932,19.6001144 C84.4236441,21.3419522 84.8524576,22.7523872 85.380678,22.7523872 Z" id="Path" fill="#AED4FF"></path>
                    <path d="M86.7626271,23.5710312 C86.9965254,23.9754217 88.0217797,23.7821033 89.1932203,23.1587503 C89.0860169,22.4525465 88.895,21.7917133 88.6338136,21.201895 C87.3317797,22.0797182 86.5014407,23.1173249 86.7626271,23.5710312 Z" id="Path" fill="#AED4FF"></path>
                    <path d="M83.9967797,25.340486 C83.7297458,24.8808618 82.4355085,25.1964836 81.0672034,26.0387993 C81.1997458,26.7450031 81.4161017,27.3999183 81.7026271,27.9779008 C81.7786441,27.9325301 81.854661,27.8851868 81.9326271,27.8358709 C83.3477119,26.9324035 84.2716102,25.8139187 83.9967797,25.340486 Z" id="Path" fill="#AED4FF"></path>
                    <path d="M86.7626271,25.340486 C86.5014407,25.7922197 87.3298305,26.8298264 88.6338136,27.7096222 C88.895,27.119804 89.0860169,26.4589708 89.1932203,25.752767 C88.0237288,25.1294139 86.9965254,24.9360956 86.7626271,25.340486 Z" id="Path" fill="#AED4FF"></path>
                    <path d="M83.9967797,23.5710312 C84.2716102,23.0956259 83.3477119,21.9791137 81.9326271,21.0736737 C81.8566102,21.0243578 81.7786441,20.9770145 81.7026271,20.9316439 C81.4161017,21.5096263 81.1977966,22.1645416 81.0672034,22.8707454 C82.4355085,23.7150337 83.7316949,24.0306555 83.9967797,23.5710312 Z" id="Path" fill="#AED4FF"></path>
                    <path d="M15.7160169,16.331456 C12.2582203,16.331456 9.45533898,19.992669 9.45533898,24.5100061 C9.45533898,29.0273433 12.2582203,32.6885563 15.7160169,32.6885563 L18.5929661,32.6885563 L18.5929661,16.331456 L15.7160169,16.331456 Z" id="Path" fill="#104768"></path>
                    <path d="M18.5929661,32.6905289 C22.0505678,32.6905289 24.8536441,29.0289214 24.8536441,24.5119788 C24.8536441,19.9950361 22.0505678,16.3334286 18.5929661,16.3334286 C15.1352864,16.3334286 12.3322881,19.9950361 12.3322881,24.5119788 C12.3322881,29.0289214 15.1352864,32.6905289 18.5929661,32.6905289 Z" id="Path" fill="#105A91"></path>
                    <path d="M19.1016949,30.7395916 C21.5194237,30.7395916 23.4794915,27.9514674 23.4794915,24.5119788 C23.4794915,21.0724901 21.5194237,18.2843462 19.1016949,18.2843462 C16.6839076,18.2843462 14.7238983,21.0724901 14.7238983,24.5119788 C14.7238983,27.9514674 16.6839076,30.7395916 19.1016949,30.7395916 Z" id="Path" fill="#7DB8FB"></path>
                    <path d="M84.4255932,12.8773698 C76.845339,11.5300592 73.3738983,10.6522361 73.3738983,10.6522361 C73.3738983,10.6522361 69.2066102,7.78205023 65.4466949,5.61609557 C64.7820339,5.23340412 63.9965254,4.76786196 63.0336441,4.27075761 C55.0128814,1.39859914 46.5925424,2.05154176 41.3532203,3.01813355 C35.2192373,4.15042679 26.4227119,8.75653257 21.9864407,8.38173167 C17.5501695,8.00693077 9.1629661,7.81953032 9.1629661,7.81953032 C9.1629661,7.81953032 5.14576271,8.30677149 3.23559322,8.95182357 L1.55932203,17.9135103 L0.814745763,17.9135103 L0,25.4371452 C0,25.4371452 7.71474576,27.5241944 23.9901695,27.5241944 L35.0574576,27.5241944 C35.0574576,27.5241944 35.7084746,16.0592322 42.3492373,16.0592322 C48.99,16.0592322 48.0777966,27.5241944 48.0777966,27.5241944 L80.4980508,27.5241944 C80.4980508,27.5241944 79.9776271,16.3235654 86.2266102,16.3235654 C92.4755932,16.3235654 90.1327119,26.9975005 90.1327119,26.9975005 L91.9551695,26.9975005 L91.9551695,19.2608209 C91.9551695,19.2608209 92.0058475,14.2227078 84.4255932,12.8773698 Z" id="Path" fill="#1773C6"></path>
                    <path d="M22.3723729,18.9116643 C22.2983051,18.9116643 22.2261864,18.8682663 22.195,18.7952787 C22.1501695,18.6966469 22.195,18.5782887 22.2944068,18.5348907 L25.044661,17.2941025 C25.1245763,16.46165 25.6001695,11.3406861 25.4968644,10.1827486 C25.4871186,10.0742536 25.5670339,9.97759445 25.6742373,9.96773126 C25.7814407,9.95786808 25.8769492,10.0387462 25.8866949,10.1472412 C26.0036441,11.4393179 25.4481356,17.2013886 25.4227966,17.4459955 L25.4111017,17.5604084 L22.4522881,18.8958832 C22.4269492,18.9057464 22.399661,18.9116643 22.3723729,18.9116643 Z" id="Path" fill="#3790F4"></path>
                    <path d="M35.3615254,4.72840923 C35.3615254,4.72840923 33.0283898,2.38097202 25.2395763,1.70435974 C18.029661,3.15227282 12.790339,5.55691648 9.16491525,7.82150296 C9.16491525,7.82150296 17.5501695,8.00890341 21.9883898,8.38370431 C25.1050847,8.64606494 30.3755932,6.45052073 35.3615254,4.72840923 Z" id="Path" fill="#3790F4"></path>
                    <path d="M35.3615254,4.72840923 C37.4705085,4.00050643 39.5288136,3.35545436 41.3532203,3.02010619 C46.5925424,2.05352031 55.0128814,1.4005777 63.0316949,4.27075761 C58.5525424,1.96277904 50.2238136,-0.992230145 32.1707627,0.694373898 C29.6797458,0.927144983 27.3738983,1.27432897 25.2376271,1.70239105 C33.0283898,2.38097202 35.3615254,4.72840923 35.3615254,4.72840923 Z" id="Path" fill="#1773C6"></path>
                    <path d="M64.3532203,13.8617351 L61.2716102,13.8617351 C61.0513559,13.8617351 60.8739831,13.6822252 60.8739831,13.4593173 C60.8739831,13.2364094 61.0513559,13.0568994 61.2716102,13.0568994 L64.3532203,13.0568994 C64.5734746,13.0568994 64.7508475,13.2364094 64.7508475,13.4593173 C64.7508475,13.6802525 64.5734746,13.8617351 64.3532203,13.8617351 Z" id="Path" fill="#3790F4"></path>
                    <path d="M85.380678,25.5910108 C85.8048136,25.5910108 86.1486441,25.0822679 86.1486441,24.4547723 C86.1486441,23.8272767 85.8048136,23.3185338 85.380678,23.3185338 C84.9565424,23.3185338 84.6127119,23.8272767 84.6127119,24.4547723 C84.6127119,25.0822679 84.9565424,25.5910108 85.380678,25.5910108 Z" id="Path" fill="#105A91"></path>
                    <path d="M22.374322,21.9929222 C22.31,21.9061262 22.1872034,21.8863998 22.1014407,21.9534695 C22.015678,22.0185665 21.9981356,22.1428426 22.0624576,22.2296386 C24.5183898,25.5653666 27.5688136,26.9521299 29.8025424,27.526167 L32.3734746,27.526167 C30.8531356,27.46107 25.964661,26.8692792 22.374322,21.9929222 Z" id="Path" fill="#3790F4"></path>
                    <path d="M47.5261864,9.50021646 C56.9776271,9.9697039 65.4272034,9.77441291 69.9784746,10.983639 L69.2280508,7.92013478 C68.0390678,7.16461507 66.7194915,6.34991628 65.4447458,5.61609557 C64.7800847,5.23340412 63.9945763,4.76786196 63.0316949,4.27075761 C55.0128814,1.39859914 46.5925424,2.05154176 41.3532203,3.01813355 C40.735339,3.13254646 40.0921186,3.28246682 39.4274576,3.45803145 C39.5171186,3.46394936 38.1020339,9.03270165 47.5261864,9.50021646 Z" id="Path" fill="#7DB8FB"></path>
                    <path d="M75.9136441,26.056553 L53.0305932,26.056553 C51.1672034,26.056553 50.3095763,23.6834715 50.2725424,23.5828671 C47.1422034,15.662752 42.9690678,12.1849942 40.7255932,10.3169076 C38.0747458,8.10755495 37.4627119,4.17411815 37.4373729,4.0084167 L37.4120339,3.84074262 L37.5718644,3.79142671 C39.0239831,3.339693 40.2480508,3.02407119 41.3142373,2.82680756 C45.8148305,1.99631978 54.6288983,1.05537029 63.0921186,4.08534952 L63.1155085,4.0952127 C63.9341525,4.51735687 64.6183051,4.91385677 65.2225424,5.2630134 L65.5363559,5.44449594 C69.2611864,7.59072424 73.4362712,10.4609101 73.4772034,10.488527 L73.5044915,10.5062807 L76.3814407,14.3765931 L75.9136441,26.056553 Z M40.9750847,10.011149 C44.3471186,12.8221557 47.8516949,16.3946001 50.6389831,23.4428099 C50.6487288,23.4723994 51.4439831,25.6620257 53.0305932,25.6620257 L75.5394068,25.6620257 L75.9916102,14.5008692 L73.2374576,10.7962582 C72.8749153,10.5477061 68.9044915,7.83533114 65.3492373,5.78576202 L65.0334746,5.60427948 C64.4370339,5.25906812 63.760678,4.8665135 62.9537288,4.45225987 C54.5782203,1.45581743 45.8479661,2.39085493 41.3863559,3.21344427 C40.3766949,3.40084472 39.2188983,3.69476753 37.8525424,4.11493906 C38.0026271,4.88623986 38.7394068,8.14700768 40.9750847,10.011149 Z" id="Shape" fill="#3790F4"></path>
                    <polygon id="Path" fill="#7DB8FB" points="16.1233898 24.218056 3.89440678 23.3205064 3.89440678 20.0557933 16.1233898 20.6258852"></polygon>
                    <path d="M71.7444068,11.303206 L70.2766949,11.17893 L70.2766949,8.39751276 L71.7444068,8.27323668 C72.6215254,8.1982765 73.3738983,8.89856239 73.3738983,9.78822136 C73.3738983,10.6778803 72.6215254,11.3781662 71.7444068,11.303206 Z" id="Path" fill="#1773C6"></path>
                    <path d="M71.1869492,11.0369001 L70.2766949,10.9343231 L70.2766949,8.61450276 L71.1869492,8.53756994 C71.9100847,8.47641822 72.5299153,9.05242802 72.5299153,9.78822136 C72.5318644,10.5220421 71.9100847,11.0980519 71.1869492,11.0369001 Z" id="Path" fill="#7DB8FB"></path>
                    <path d="M59.6830508,26.056553 C59.6772034,26.056553 59.6733051,26.056553 59.6674576,26.056553 C59.5602542,26.0486624 59.480339,25.9520033 59.4881356,25.8435083 C59.6577119,23.7229242 60.0241525,18.4579777 59.7551695,15.3629113 C59.4199153,11.5340242 57.5740678,10.0308754 57.5545763,10.0170669 L57.5175424,9.97958681 C54.8238136,6.32626437 53.9505932,2.45003402 53.9427966,2.41058129 C53.9194068,2.30405893 53.985678,2.19950921 54.0909322,2.17583757 C54.1961864,2.15216002 54.2994915,2.21923557 54.3228814,2.32575793 C54.330678,2.36323802 55.1863559,6.14675446 57.8157627,9.72314409 C58.0457627,9.91448981 59.8097458,11.4965441 60.1430508,15.3293765 C60.4159322,18.4540324 60.0475424,23.7465959 59.8779661,25.8770431 C59.8682203,25.9776475 59.7824576,26.056553 59.6830508,26.056553 Z" id="Path" fill="#3790F4"></path>
                    <path d="M4.07957627,18.1285474 L16.700339,18.3100299 L19.805339,12.674208 C19.8579661,12.5795215 19.8248305,12.4591906 19.729322,12.4059295 C19.6357627,12.3526683 19.5168644,12.3861834 19.4642373,12.4828426 L16.4722881,17.9115574 L4.38949153,17.7379457 C4.02889831,16.2762222 2.88864407,13.1870737 2.59237288,12.3980192 L2.4520339,13.1456681 C2.9159322,14.410128 3.79110169,16.8620952 4.04449153,17.9766347 L4.07957627,18.1285474 Z" id="Path" fill="#3790F4"></path>
                    <path d="M25.6878814,11.3761936 C25.6878814,11.3761936 25.1499153,10.5536042 22.9122881,9.88882581 C20.674661,9.22404738 15.4665254,8.13120686 15.4665254,9.22602001 C15.4665254,10.3208332 16.7042373,12.388156 18.5929661,12.5439943 C20.4816949,12.6998326 23.9550847,12.2323177 24.5710169,12.2697978 C25.1869492,12.3072779 25.7054237,12.2461262 25.6878814,11.3761936 Z" id="Path" fill="#F7A961"></path>
                    <path d="M6.91169492,9.21615683 C7.0520339,8.61844803 6.60762712,8.37186849 5.92152542,8.31663467 C4.945,8.49614458 3.9470339,8.71313457 3.23754237,8.95182357 L2.60016949,12.3506759 C2.60211864,12.3506759 6.44974576,11.17893 6.91169492,9.21615683 Z" id="Path" fill="#F7A961"></path>
                </g>
            </g>
        </g>
    </g>
</svg>