<svg width="92" height="44" viewBox="0 0 92 44" fill="none" xmlns="http://www.w3.org/2000/svg">
<g id="Car-Return">
<g id="Group 57">
<path id="Path" d="M7.53516 21.1543L1.81551 22.3503L0.906762 30.0651H7.53516V21.1543Z" fill="#104768"/>
<path id="Path_2" d="M9.8169 22.1426C13.1223 22.1426 15.8037 25.7819 15.8037 30.2699C15.8037 34.7578 13.1243 38.3971 9.8169 38.3971H7.0653V22.1426H9.8169Z" fill="#104768"/>
<path id="Path_3" d="M35.3822 22.1426C38.6428 22.1426 41.2852 25.7819 41.2852 30.2699C41.2852 34.7578 38.6428 38.3971 35.3822 38.3971H32.6696V22.1426H35.3822Z" fill="#104768"/>
<path id="Path_4" d="M43.6552 21.1543H53.6768V29.8658H43.6552V21.1543Z" fill="#104768"/>
<path id="Path_5" d="M52.7988 22.1426C56.2583 22.1426 59.0625 25.8056 59.0625 30.3251C59.0625 34.8447 56.2583 38.5077 52.7988 38.5077H49.9204V22.1426H52.7988Z" fill="#104768"/>
<path id="Path_6" d="M49.9208 38.5096C46.4616 38.5096 43.6571 34.8462 43.6571 30.3271C43.6571 25.8079 46.4616 22.1445 49.9208 22.1445C53.3801 22.1445 56.1846 25.8079 56.1846 30.3271C56.1846 34.8462 53.3801 38.5096 49.9208 38.5096Z" fill="#105A91"/>
<path id="Path_7" d="M49.6709 36.3625C47.2519 36.3625 45.2909 33.6605 45.2909 30.3273C45.2909 26.9941 47.2519 24.292 49.6709 24.292C52.0898 24.292 54.0508 26.9941 54.0508 30.3273C54.0508 33.6605 52.0898 36.3625 49.6709 36.3625Z" fill="#7DB8FB"/>
<path id="Path_8" d="M49.6713 31.8887C50.1745 31.8887 50.584 33.1834 50.584 34.78C50.584 35.3227 50.5372 35.8299 50.4553 36.2622C50.2018 36.3253 49.9405 36.3608 49.6733 36.3608C49.4061 36.3608 49.1448 36.3253 48.8913 36.2622C48.8094 35.828 48.7626 35.3208 48.7626 34.78C48.7606 33.1834 49.1682 31.8887 49.6713 31.8887Z" fill="#AED4FF"/>
<path id="Path_9" d="M49.6713 28.7642C49.1682 28.7642 48.7587 27.4695 48.7587 25.8729C48.7587 25.3301 48.8055 24.8229 48.8874 24.3907C49.1409 24.3275 49.4022 24.292 49.6694 24.292C49.9365 24.292 50.1978 24.3275 50.4513 24.3907C50.5332 24.8249 50.5801 25.3321 50.5801 25.8729C50.584 27.4695 50.1744 28.7642 49.6713 28.7642Z" fill="#AED4FF"/>
<path id="Path_10" d="M48.3526 29.5143C48.0912 29.9504 46.7866 29.6307 45.4372 28.7998C45.4352 28.7998 45.4352 28.7979 45.4333 28.7979C45.5561 28.1525 45.7531 27.5506 46.0124 27.0078C46.1353 27.0749 46.2601 27.146 46.3849 27.2229C47.7324 28.0538 48.6139 29.0801 48.3526 29.5143Z" fill="#AED4FF"/>
<path id="Path_11" d="M50.9909 31.1384C51.2522 30.7023 52.5568 31.022 53.9063 31.8529C53.9082 31.8529 53.9082 31.8549 53.9102 31.8549C53.7873 32.5002 53.5903 33.1022 53.331 33.6449C53.2081 33.5778 53.0833 33.5068 52.9585 33.4298C51.609 32.5989 50.7276 31.5746 50.9909 31.1384Z" fill="#AED4FF"/>
<path id="Path_12" d="M45.4372 31.8526C46.7847 31.0237 48.0912 30.704 48.3526 31.1382C48.6139 31.5743 47.7324 32.5986 46.3849 33.4295C46.2601 33.5065 46.1353 33.5775 46.0124 33.6446C45.7531 33.1019 45.5542 32.5 45.4333 31.8546C45.4333 31.8546 45.4352 31.8526 45.4372 31.8526Z" fill="#AED4FF"/>
<path id="Path_13" d="M50.9909 29.5143C50.7295 29.0781 51.611 28.0538 52.9585 27.2229C53.0833 27.146 53.2081 27.0749 53.331 27.0078C53.5903 27.5506 53.7892 28.1525 53.9102 28.7979C53.9082 28.7979 53.9082 28.7998 53.9063 28.7998C52.5568 29.6307 51.2522 29.9504 50.9909 29.5143Z" fill="#AED4FF"/>
<path id="Path_14" d="M49.6713 31.3224C49.2848 31.3224 48.9716 30.8764 48.9716 30.3263C48.9716 29.7761 49.2848 29.3301 49.6713 29.3301C50.0579 29.3301 50.3711 29.7761 50.3711 30.3263C50.3711 30.8764 50.0579 31.3224 49.6713 31.3224Z" fill="#105A91"/>
<path id="Path_15" d="M32.6722 38.3971C29.4121 38.3971 26.7693 34.7584 26.7693 30.2699C26.7693 25.7813 29.4121 22.1426 32.6722 22.1426C35.9324 22.1426 38.5752 25.7813 38.5752 30.2699C38.5752 34.7584 35.9324 38.3971 32.6722 38.3971Z" fill="#105A91"/>
<path id="Path_16" d="M32.19 36.4574C29.9099 36.4574 28.0616 33.6873 28.0616 30.2702C28.0616 26.8531 29.9099 24.083 32.19 24.083C34.4701 24.083 36.3184 26.8531 36.3184 30.2702C36.3184 33.6873 34.4701 36.4574 32.19 36.4574Z" fill="#7DB8FB"/>
<path id="Shape" fill-rule="evenodd" clip-rule="evenodd" d="M10.8623 30.2722C10.8623 33.7379 8.9395 36.5581 6.57793 36.5581C4.21635 36.5581 2.29355 33.7379 2.29355 30.2722C2.29355 26.8066 4.21635 23.9863 6.57793 23.9863C8.94145 23.9863 10.8623 26.8066 10.8623 30.2722ZM10.6674 30.2701C10.6674 26.9131 8.83234 24.1816 6.57802 24.1816C4.3237 24.1816 2.48866 26.9131 2.48866 30.2701C2.48866 33.6272 4.3237 36.3587 6.57802 36.3587C8.83234 36.3587 10.6674 33.6272 10.6674 30.2701Z" fill="#FF00FF"/>
<path id="Path_17" d="M7.06494 38.3971C3.75855 38.3971 1.07813 34.7584 1.07813 30.2699C1.07813 25.7813 3.75855 22.1426 7.06494 22.1426C10.3713 22.1426 13.0518 25.7813 13.0518 30.2699C13.0518 34.7584 10.3713 38.3971 7.06494 38.3971Z" fill="#105A91"/>
<path id="Path_18" d="M6.85024 36.3308C4.53781 36.3308 2.66337 33.6173 2.66337 30.2699C2.66337 26.9225 4.53781 24.209 6.85024 24.209C9.16267 24.209 11.0371 26.9225 11.0371 30.2699C11.0371 33.6173 9.16267 36.3308 6.85024 36.3308Z" fill="#7DB8FB"/>
<path id="Path_19" d="M6.57766 31.9746C7.10613 31.9746 7.53516 33.3857 7.53516 35.1284C7.53516 35.531 7.51176 35.9139 7.4708 36.2672C7.26799 36.3106 7.06323 36.3343 6.85262 36.3343C6.44115 36.3343 6.04333 36.2474 5.66696 36.0856C5.63771 35.7837 5.62211 35.462 5.62211 35.1284C5.62211 33.3857 6.04918 31.9746 6.57766 31.9746Z" fill="#AED4FF"/>
<path id="Path_20" d="M6.57765 28.5667C6.04917 28.5667 5.62015 27.1556 5.62015 25.4129C5.62015 25.0794 5.63575 24.7577 5.665 24.4557C6.04137 24.2958 6.43919 24.207 6.85066 24.207C7.06127 24.207 7.26798 24.2307 7.46884 24.2741C7.5098 24.6274 7.5332 25.0103 7.5332 25.4129C7.53515 27.1556 7.10612 28.5667 6.57765 28.5667Z" fill="#AED4FF"/>
<path id="Path_21" d="M5.19515 29.3859C4.96113 29.7905 3.93538 29.5971 2.76337 28.9734C2.87062 28.2669 3.06173 27.6057 3.32305 27.0156C4.62572 27.8939 5.45646 28.932 5.19515 29.3859Z" fill="#AED4FF"/>
<path id="Path_22" d="M7.96255 31.1558C8.22972 30.696 9.52458 31.0117 10.8936 31.8545C10.7609 32.561 10.5445 33.2162 10.2578 33.7945C10.1818 33.7491 10.1057 33.7017 10.0277 33.6524C8.61194 32.7485 7.68759 31.6295 7.96255 31.1558Z" fill="#AED4FF"/>
<path id="Path_23" d="M5.19507 31.1557C5.45638 31.6076 4.62759 32.6457 3.32297 33.526C3.06166 32.9358 2.87055 32.2747 2.76329 31.5681C3.93335 30.9445 4.96106 30.7511 5.19507 31.1557Z" fill="#AED4FF"/>
<path id="Path_24" d="M7.96255 29.3858C7.68759 28.9102 8.61194 27.7931 10.0277 26.8872C10.1038 26.8379 10.1818 26.7905 10.2578 26.7451C10.5445 27.3234 10.7629 27.9786 10.8936 28.6852C9.52458 29.5299 8.22777 29.8456 7.96255 29.3858Z" fill="#AED4FF"/>
<path id="Path_25" d="M76.2763 22.1426C79.7358 22.1426 82.54 25.8056 82.54 30.3251C82.54 34.8447 79.7358 38.5077 76.2763 38.5077H73.398V22.1426H76.2763Z" fill="#104768"/>
<path id="Path_26" d="M73.3984 38.5096C69.9391 38.5096 67.1346 34.8462 67.1346 30.3271C67.1346 25.8079 69.9391 22.1445 73.3984 22.1445C76.8577 22.1445 79.6621 25.8079 79.6621 30.3271C79.6621 34.8462 76.8577 38.5096 73.3984 38.5096Z" fill="#105A91"/>
<path id="Path_27" d="M72.8886 36.558C70.4697 36.558 68.5087 33.7685 68.5087 30.3273C68.5087 26.8862 70.4697 24.0967 72.8886 24.0967C75.3076 24.0967 77.2686 26.8862 77.2686 30.3273C77.2686 33.7685 75.3076 36.558 72.8886 36.558Z" fill="#7DB8FB"/>
<path id="Path_28" d="M7.53326 18.6857C15.1172 17.3377 18.5903 16.4594 18.5903 16.4594C18.5903 16.4594 22.7597 13.5879 26.5214 11.4209C27.1864 11.038 27.9723 10.5722 28.9356 10.0749C36.9603 7.2013 45.3847 7.85456 50.6266 8.82163C56.7636 9.95447 65.5644 14.5628 70.0028 14.1878C74.4413 13.8129 82.8326 13.6254 82.8326 13.6254C82.8326 13.6254 86.8517 14.1128 88.7628 14.7582L90.4399 23.7243H91.1849L92 31.2516C92 31.2516 84.2815 33.3396 67.9981 33.3396H56.9255C56.9255 33.3396 56.2741 21.8691 49.6301 21.8691C42.9861 21.8691 43.8988 33.3396 43.8988 33.3396H11.4627C11.4627 33.3396 11.9834 22.1335 5.73136 22.1335C-0.520668 22.1335 1.82335 32.8127 1.82335 32.8127H7.07044e-06V25.0722C7.07044e-06 25.0722 -0.0506925 20.0317 7.53326 18.6857Z" fill="#1773C6"/>
<path id="Path_29" d="M69.6167 24.7245C69.6908 24.7245 69.7629 24.6811 69.7941 24.6081C69.839 24.5094 69.7941 24.391 69.6947 24.3475L66.9431 23.1061C66.8631 22.2733 66.3873 17.1498 66.4906 15.9913C66.5004 15.8828 66.4204 15.7861 66.3132 15.7762C66.2059 15.7663 66.1104 15.8473 66.1006 15.9558C65.9836 17.2485 66.5394 23.0134 66.5647 23.2581L66.5764 23.3726L69.5367 24.7087C69.562 24.7186 69.5893 24.7245 69.6167 24.7245Z" fill="#3790F4"/>
<path id="Path_30" d="M56.6217 10.5343C56.6217 10.5343 58.9559 8.18573 66.7486 7.50879C73.962 8.95741 79.2039 11.3632 82.8311 13.6289C82.8311 13.6289 74.4417 13.8164 70.0013 14.1914C66.8831 14.4539 61.61 12.2573 56.6217 10.5343Z" fill="#3790F4"/>
<path id="Path_31" d="M56.6212 10.5339C54.5112 9.80563 52.4518 9.16026 50.6265 8.82475C45.3847 7.85769 36.9602 7.20443 28.9375 10.076C33.4188 7.76691 41.7516 4.81046 59.8135 6.49788C62.3057 6.73077 64.6127 7.07812 66.75 7.50639C58.9554 8.1853 56.6212 10.5339 56.6212 10.5339Z" fill="#1773C6"/>
<path id="Path_32" d="M27.6157 19.6714H30.6989C30.9192 19.6714 31.0967 19.4918 31.0967 19.2688C31.0967 19.0458 30.9192 18.8662 30.6989 18.8662H27.6157C27.3954 18.8662 27.2179 19.0458 27.2179 19.2688C27.2179 19.4899 27.3954 19.6714 27.6157 19.6714Z" fill="#3790F4"/>
<path id="Path_33" d="M6.57736 31.4064C6.15302 31.4064 5.80902 30.8974 5.80902 30.2696C5.80902 29.6418 6.15302 29.1328 6.57736 29.1328C7.0017 29.1328 7.3457 29.6418 7.3457 30.2696C7.3457 30.8974 7.0017 31.4064 6.57736 31.4064Z" fill="#105A91"/>
<path id="Path_34" d="M69.615 27.8071C69.6794 27.7203 69.8022 27.7005 69.888 27.7676C69.9738 27.8328 69.9914 27.9571 69.927 28.044C67.4699 31.3813 64.418 32.7687 62.1832 33.3431H59.611C61.1321 33.2779 66.0229 32.6859 69.615 27.8071Z" fill="#3790F4"/>
<path id="Path_35" d="M44.4511 15.3078C34.995 15.7776 26.5413 15.5822 21.9878 16.792L22.7386 13.727C23.9282 12.9711 25.2484 12.156 26.5238 11.4218C27.1888 11.039 27.9746 10.5732 28.938 10.0758C36.9607 7.20228 45.3852 7.85554 50.627 8.8226C51.2452 8.93707 51.8888 9.08707 52.5537 9.26272C52.464 9.26864 53.8798 14.8401 44.4511 15.3078Z" fill="#7DB8FB"/>
<path id="Shape_2" fill-rule="evenodd" clip-rule="evenodd" d="M38.9432 31.8729H16.049L15.5809 20.1873L18.4593 16.3151L18.4866 16.2973C18.4878 16.2965 18.4929 16.293 18.5017 16.287C18.7812 16.0956 22.818 13.3328 26.4313 11.2508L26.7453 11.0692L26.7849 11.0463C27.3797 10.7026 28.0521 10.314 28.8533 9.90086L28.8767 9.89099C37.3441 6.85954 46.1624 7.80094 50.6652 8.63184C51.7319 8.8292 52.9566 9.14497 54.4094 9.59693L54.5693 9.64627L54.544 9.81402C54.5186 9.9798 53.9063 13.9152 51.2542 16.1256C49.0096 17.9946 44.8344 21.474 41.7026 29.398L41.7016 29.4006C41.653 29.5329 40.794 31.8729 38.9432 31.8729ZM41.3362 29.2577C44.1248 22.2061 47.6311 18.6319 51.0048 15.8195C53.2415 13.9544 53.9787 10.6921 54.1288 9.92041C52.7618 9.50003 51.6034 9.20596 50.5933 9.01847C46.1295 8.19548 37.395 7.25999 29.0154 10.2579C28.224 10.6642 27.5581 11.0496 26.9701 11.39L26.9346 11.4105L26.6187 11.592C23.0617 13.6426 19.0894 16.3563 18.7267 16.605L15.9712 20.3114L16.4236 31.478H38.9434C40.5308 31.478 41.3264 29.2873 41.3362 29.2577Z" fill="#3790F4"/>
<path id="Path_36" d="M75.8686 30.0334L88.1035 29.1354V25.8691L75.8686 26.4395V30.0334Z" fill="#7DB8FB"/>
<path id="Path_37" d="M20.221 17.1121L21.6895 16.9878V14.205L20.221 14.0807C19.3435 14.0057 18.5907 14.7063 18.5907 15.5964C18.5907 16.4865 19.3435 17.1871 20.221 17.1121Z" fill="#1773C6"/>
<path id="Path_38" d="M20.7788 16.8458L21.6895 16.7432V14.4222L20.7788 14.3453C20.0553 14.2841 19.4351 14.8604 19.4351 15.5965C19.4332 16.3307 20.0553 16.907 20.7788 16.8458Z" fill="#7DB8FB"/>
<path id="Path_39" d="M32.2874 31.8727C32.2933 31.8727 32.2972 31.8727 32.303 31.8727C32.4103 31.8648 32.4902 31.7681 32.4824 31.6595C32.3128 29.5379 31.9461 24.2704 32.2153 21.1738C32.5507 17.3431 34.3974 15.8392 34.4169 15.8254L34.454 15.7879C37.149 12.1328 38.0227 8.25467 38.0305 8.2152C38.0539 8.10863 37.9876 8.00403 37.8823 7.98034C37.7769 7.95665 37.6736 8.02376 37.6502 8.13034C37.6424 8.16783 36.7863 11.9532 34.1556 15.5313C33.9255 15.7228 32.1607 17.3056 31.8272 21.1403C31.5542 24.2665 31.9227 29.5616 32.0924 31.6931C32.1021 31.7938 32.188 31.8727 32.2874 31.8727Z" fill="#3790F4"/>
<path id="Path_40" d="M87.9185 23.9401L75.2916 24.1217L72.1851 18.4831C72.1325 18.3884 72.1656 18.268 72.2612 18.2147C72.3548 18.1614 72.4737 18.195 72.5264 18.2917L75.5198 23.723L87.6085 23.5493C87.9692 22.0869 89.1101 18.9962 89.4065 18.2068L89.5469 18.9548C89.0828 20.2199 88.2072 22.673 87.9536 23.7881L87.9185 23.9401Z" fill="#3790F4"/>
<path id="Path_41" d="M66.3 17.1853C66.3 17.1853 66.8383 16.3623 69.077 15.6972C71.3157 15.0321 76.5264 13.9387 76.5264 15.034C76.5264 16.1294 75.2881 18.1977 73.3984 18.3536C71.5088 18.5095 68.0337 18.0418 67.4174 18.0793C66.8012 18.1168 66.2825 18.0556 66.3 17.1853Z" fill="#F7A961"/>
<path id="Path_42" d="M85.0848 15.024C84.9444 14.426 85.389 14.1793 86.0755 14.124C87.0525 14.3036 88.0509 14.5207 88.7608 14.7595L89.3984 18.16C89.3965 18.16 85.547 16.9877 85.0848 15.024Z" fill="#F7A961"/>
</g>
</g>
</svg>
