<?xml version="1.0" encoding="UTF-8"?>
<svg width="82px" height="24px" viewBox="0 0 82 24" version="1.1" xmlns="http://www.w3.org/2000/svg" xmlns:xlink="http://www.w3.org/1999/xlink">
    <!-- Generator: sketchtool 55 (78076) - https://sketchapp.com -->
    <title>960CD886-906D-448B-A5A7-6C3E36E11CCC</title>
    <desc>Created with sketchtool.</desc>
    <g id="Asset-Artboard-Page" stroke="none" stroke-width="1" fill="none" fill-rule="evenodd">
        <g id="Cents-LOGO_Grey" fill="#7B7B7B" fill-rule="nonzero">
            <g id="path-1">
                <path d="M8.55214723,7.3178007 C8.05528797,7.3178007 7.59880539,7.4886595 7.18268574,7.83038227 C6.76656613,8.172105 6.40945389,8.65361617 6.11133834,9.27493023 C5.81322279,9.8962443 5.58342883,10.6449165 5.42194955,11.5209694 C5.26047029,12.3970222 5.17973189,13.3631511 5.17973189,14.419385 C5.17973189,15.4880452 5.31326079,16.441748 5.58032264,17.280522 C5.84738452,18.119296 6.21691802,18.8306899 6.68893432,19.4147251 C7.16095062,19.9987603 7.71369826,20.4460998 8.34719382,20.7567568 C8.98068937,21.0674138 9.66386062,21.22274 10.396728,21.22274 C11.1047525,21.22274 11.7537651,21.1171182 12.3437855,20.9058714 C12.9338059,20.6946246 13.4555003,20.4585288 13.9088843,20.1975769 C14.3622684,19.936625 14.7349073,19.6881031 15.0268121,19.4520038 C15.3187169,19.2159044 15.520563,19.0730043 15.6323563,19.0232992 C15.806257,18.9487415 15.9459966,18.9642741 16.0515792,19.0698975 C16.1571618,19.1755209 16.1540565,19.3339536 16.0422631,19.5452004 C15.9677342,19.6818895 15.8435213,19.8869201 15.6696205,20.1602983 C15.4957198,20.4336765 15.2628205,20.7350093 14.9709157,21.0643057 C14.6790109,21.3936022 14.3281093,21.7322133 13.9182004,22.0801491 C13.5082915,22.428085 13.033177,22.7449504 12.4928425,23.0307549 C11.9525081,23.3165594 11.3438646,23.5495487 10.6668939,23.7297297 C9.98992314,23.9099108 9.23532946,24 8.4030902,24 C7.11125615,24 5.94986504,23.8136086 4.91888209,23.4408201 C3.8878991,23.0680317 3.00598715,22.5212835 2.27311974,21.8005592 C1.54025234,21.0798349 0.978188734,20.1944756 0.586912065,19.1444548 C0.195635399,18.0944341 7.62610827e-17,16.8984224 0,15.556384 C7.62610827e-17,14.3758873 0.149055542,13.3258823 0.447171099,12.4063375 C0.745286654,11.4867927 1.13966278,10.6853095 1.63031129,10.0018641 C2.12095981,9.3184186 2.68302342,8.74060517 3.31651897,8.26840647 C3.95001454,7.7962078 4.5990272,7.41410537 5.26357645,7.12208777 C5.92812571,6.83007013 6.58334905,6.61882653 7.22926606,6.48835057 C7.87518311,6.35787463 8.45898398,6.29263763 8.98068622,6.29263763 C9.82534693,6.29263763 10.6016779,6.37030073 11.3097023,6.52562923 C12.0177268,6.68095777 12.6263702,6.8984144 13.135651,7.17800573 C13.6449317,7.45759707 14.0424132,7.7868886 14.3281072,8.16589017 C14.6138013,8.54489177 14.7566462,8.95184637 14.7566462,9.3867662 C14.7566462,9.77198093 14.6914344,10.0950594 14.5610089,10.3560113 C14.4305833,10.6169632 14.2628958,10.8313134 14.0579414,10.9990681 C13.8529869,11.1668229 13.623193,11.2879774 13.3685526,11.3625351 C13.1139122,11.4370927 12.8561704,11.474371 12.5953193,11.474371 C12.2226748,11.474371 11.8717732,11.4060275 11.542604,11.2693384 C11.2134347,11.1326493 10.9432715,10.9027666 10.7321063,10.5796833 C10.5706271,10.3435839 10.4402035,10.0391446 10.3408316,9.66635613 C10.2414598,9.2935677 10.1265628,8.93321093 9.99613724,8.58527507 C9.86571169,8.2373392 9.69491887,7.9391129 9.48375368,7.6905873 C9.27258852,7.44206167 8.96205612,7.3178007 8.55214723,7.3178007 Z M22.6939332,13.6551725 C22.4951895,13.6551725 22.3958191,13.7607943 22.3958191,13.9720411 C22.3958191,15.2395218 22.5076108,16.3268051 22.7311974,17.2339236 C22.9547841,18.1410422 23.2808431,18.8835014 23.7093842,19.4613234 C24.1379253,20.0391455 24.672041,20.4647393 25.3117473,20.7381175 C25.9514536,21.0114956 26.693626,21.1481827 27.5382868,21.1481827 C28.1842038,21.1481827 28.7586887,21.0798392 29.2617587,20.9431501 C29.7648287,20.806461 30.2026794,20.6480283 30.5753238,20.4678472 C30.9479682,20.2876661 31.25229,20.1168073 31.4882981,19.9552656 C31.7243063,19.793724 31.8982044,19.6881022 32.0099977,19.6383971 C32.1838985,19.5638394 32.3205327,19.579372 32.4199046,19.6849954 C32.5192764,19.7906188 32.5192764,19.9490515 32.4199046,20.1602983 C32.3826401,20.234856 32.2987964,20.3808626 32.1683708,20.5983225 C32.0379453,20.8157824 31.8485205,21.0674108 31.6000909,21.3532153 C31.3516612,21.6390198 31.0411289,21.9372461 30.6684844,22.2479031 C30.29584,22.5585601 29.8517787,22.8443603 29.3362872,23.1053122 C28.8207957,23.3662641 28.2307842,23.5806143 27.5662349,23.7483691 C26.9016857,23.9161239 26.1595133,24 25.3396955,24 C24.0975474,24 22.9734202,23.804289 21.9672802,23.4128611 C20.9611402,23.0214333 20.1009655,22.4529394 19.3867303,21.7073626 C18.6724951,20.9617857 18.1197475,20.0546807 17.7284708,18.9860205 C17.3371941,17.9173604 17.1415587,16.7120291 17.1415587,15.3699908 C17.1415587,13.9036896 17.383774,12.6051626 17.8682118,11.474371 C18.3526495,10.3435794 18.9861356,9.3960897 19.7686889,8.6318734 C20.5512423,7.8676571 21.4393649,7.28673713 22.4330834,6.88909613 C23.4268019,6.49145513 24.4391375,6.29263763 25.4701204,6.29263763 C26.438996,6.29263763 27.29296,6.42621813 28.0320382,6.6933832 C28.7711163,6.96054823 29.410813,7.3084789 29.9511475,7.7371856 C30.4914819,8.1658923 30.9386485,8.64429697 31.2926608,9.17241393 C31.646673,9.70053087 31.9323628,10.2255334 32.1497387,10.7474372 C32.3671146,11.269341 32.5192755,11.7601718 32.6062259,12.2199442 C32.6931762,12.6797166 32.7366507,13.0462864 32.7366507,13.3196646 C32.7366507,13.4439274 32.6962815,13.5309101 32.6155419,13.5806152 C32.5348023,13.6303203 32.4261159,13.6551725 32.2894796,13.6551725 L22.6939332,13.6551725 Z M22.4889798,12.4249768 C22.4641368,12.5865185 22.5386646,12.6672881 22.7125653,12.6672881 C22.7498298,12.6672881 22.8740427,12.6641816 23.0852079,12.6579684 C23.2963731,12.6517553 23.554115,12.6424357 23.8584413,12.6300094 C24.1627676,12.6175831 24.4888265,12.605157 24.836628,12.5927308 C25.1844295,12.5803045 25.5166992,12.5678784 25.8334469,12.5554521 C26.1501947,12.5430258 26.4234632,12.5337063 26.6532606,12.5274931 C26.883058,12.52128 27.0290083,12.5119604 27.0911157,12.4995341 C27.2898594,12.4871078 27.497916,12.4001252 27.715292,12.2385835 C27.9326679,12.0770419 28.0413542,11.7974547 28.0413542,11.3998137 C28.0413542,11.0394516 27.9916691,10.6231774 27.8922972,10.1509787 C27.7929253,9.67878 27.6345539,9.23144057 27.4171779,8.808947 C27.199802,8.38645343 26.9234282,8.02920323 26.5880482,7.7371856 C26.2526682,7.445168 25.8427654,7.29916137 25.3583277,7.29916137 C24.9732617,7.29916137 24.6378867,7.40167667 24.3521927,7.6067103 C24.0664986,7.81174393 23.821178,8.078905 23.6162236,8.40820143 C23.4112691,8.7374979 23.2404763,9.10096117 23.10384,9.49860217 C22.9672038,9.89624317 22.8554121,10.2845587 22.7684617,10.6635602 C22.6815113,11.0425618 22.6162995,11.3904925 22.5728243,11.7073626 C22.5293492,12.0242328 22.5014012,12.2634351 22.4889798,12.4249768 Z M54.6852986,22.9934762 C54.7846706,23.0183288 54.8560932,23.0587136 54.8995683,23.1146319 C54.9430434,23.1705501 54.9585702,23.2295741 54.9461487,23.2917055 C54.9337272,23.3538369 54.8995686,23.4097543 54.8436718,23.4594595 C54.7877752,23.5091646 54.7101423,23.5340168 54.6107703,23.5340168 L45.2574413,23.5340168 C45.1580697,23.5340168 45.0804365,23.5091646 45.0245399,23.4594595 C44.9686434,23.4097543 44.9344845,23.3538369 44.922063,23.2917055 C44.9096419,23.2295741 44.9251683,23.1705501 44.9686434,23.1146319 C45.0121188,23.0587136 45.0835411,23.0183288 45.182913,22.9934762 C45.2822847,22.98105 45.4530776,22.9406652 45.6952966,22.8723206 C45.9375155,22.8039761 46.1859414,22.6859282 46.4405819,22.5181734 C46.695222,22.3504186 46.9219108,22.1143228 47.1206544,21.8098789 C47.3193979,21.505435 47.4187686,21.1046934 47.4187686,20.6076422 L47.4187686,12.5740914 C47.4063471,12.0521876 47.3659776,11.514759 47.2976596,10.9617895 C47.2293415,10.40882 47.0864965,9.90556313 46.8691205,9.45200387 C46.6517446,8.9984446 46.3350017,8.62566173 45.9188821,8.33364413 C45.5027626,8.04162653 44.9469093,7.8956199 44.2513064,7.8956199 C43.5308607,7.8956199 42.9719022,8.03852 42.5744151,8.32432447 C42.1769276,8.61012893 41.8819217,8.96427263 41.6893887,9.3867662 C41.4968557,9.80925977 41.3788534,10.2597057 41.3353783,10.7381175 C41.2919033,11.2165294 41.2701659,11.6421231 41.2701659,12.0149116 L41.2701659,20.6076422 C41.2701659,21.1046934 41.3695362,21.505435 41.5682801,21.8098789 C41.7670236,22.1143228 41.9937121,22.3504186 42.2483526,22.5181734 C42.5029931,22.6859282 42.7514189,22.8039761 42.9936379,22.8723206 C43.2358568,22.9406652 43.4066495,22.98105 43.5060214,22.9934762 C43.6053934,23.0183288 43.6768157,23.0587136 43.7202908,23.1146319 C43.7637662,23.1705501 43.7792926,23.2295741 43.7668711,23.2917055 C43.7544496,23.3538369 43.7202911,23.4097543 43.6643945,23.4594595 C43.6084976,23.5091646 43.5308647,23.5340168 43.4314928,23.5340168 L34.0781641,23.5340168 C33.9787922,23.5340168 33.9011593,23.5091646 33.8452624,23.4594595 C33.7893658,23.4097543 33.7552073,23.3538369 33.7427858,23.2917055 C33.7303643,23.2295741 33.7458908,23.1705501 33.7893661,23.1146319 C33.8328412,23.0587136 33.9042635,23.0183288 34.0036355,22.9934762 C34.1030074,22.98105 34.2738001,22.9406652 34.516019,22.8723206 C34.758238,22.8039761 35.0066638,22.6859282 35.2613043,22.5181734 C35.5159448,22.3504186 35.7426333,22.1143228 35.9413768,21.8098789 C36.1401207,21.505435 36.239491,21.1046934 36.239491,20.6076422 L36.239491,10.2441753 C36.239491,10.0826337 36.1649634,9.9832249 36.0159055,9.94594607 C35.9910625,9.94594607 35.9010081,9.92730693 35.7457396,9.8900281 C35.590471,9.85274923 35.4134675,9.8092579 35.214724,9.7595528 C35.0159804,9.70984767 34.8327663,9.66635633 34.6650763,9.62907747 C34.4973863,9.59179863 34.3949104,9.56694643 34.3576459,9.55452017 C34.1961668,9.51724133 34.112323,9.43336517 34.1061124,9.30288923 C34.0999015,9.17241327 34.1899559,9.0823241 34.376278,9.03261897 C34.8607159,8.92078243 35.3855156,8.76856277 35.950693,8.5759554 C36.5158705,8.38334803 37.0841446,8.16589137 37.6555329,7.9235789 C38.226921,7.6812664 38.7796686,7.4203184 39.3137922,7.1407271 C39.8479161,6.86113577 40.326136,6.5784421 40.7484662,6.29263763 C40.8602596,6.21807993 40.9751567,6.1870147 41.0931607,6.19944097 C41.2111647,6.21186727 41.2701659,6.30506297 41.2701659,6.4790309 L41.2701659,8.0820132 C41.5310169,7.84591383 41.8291281,7.6191376 42.1645081,7.4016777 C42.4998881,7.18421777 42.8756322,6.9947198 43.2917517,6.83317817 C43.7078716,6.6716365 44.1736701,6.5411625 44.6891616,6.44175227 C45.2046531,6.342342 45.7729271,6.29263763 46.3940015,6.29263763 C47.412563,6.29263763 48.2665267,6.40447247 48.9559191,6.62814553 C49.6453112,6.8518186 50.2166909,7.1500449 50.6700749,7.52283333 C51.1234589,7.89562177 51.4712554,8.32432203 51.7134744,8.808947 C51.955693,9.293572 52.1295912,9.79682883 52.2351738,10.3187326 C52.3407563,10.8406365 52.4028628,11.3594259 52.4214952,11.8751166 C52.4401272,12.3908073 52.4494435,12.8723185 52.4494435,13.3196646 L52.4494435,20.6076422 C52.4494435,21.1046934 52.5488137,21.505435 52.7475573,21.8098789 C52.9463012,22.1143228 53.1729897,22.3504186 53.4276302,22.5181734 C53.6822706,22.6859282 53.9306965,22.8039761 54.1729151,22.8723206 C54.4151341,22.9406652 54.585927,22.98105 54.6852986,22.9934762 Z M66.833447,20.8313141 C67.0570336,20.7194776 67.2185103,20.7319037 67.3178823,20.8685928 C67.4172542,21.0052819 67.4234648,21.1481819 67.3365143,21.2972973 C67.1129278,21.6949383 66.8303434,22.0584016 66.4887525,22.3876981 C66.1471619,22.7169945 65.7589963,23.0027947 65.3242444,23.2451072 C64.8894928,23.4874197 64.4143781,23.6738111 63.8988866,23.804287 C63.3833951,23.934763 62.8399633,24 62.2685753,24 C61.6475013,24 61.0326472,23.9192304 60.4239947,23.7576887 C59.8153418,23.5961471 59.2688051,23.3072404 58.7843672,22.8909599 C58.2999292,22.4746795 57.9055534,21.9092922 57.601227,21.194781 C57.2969006,20.4802698 57.1447397,19.5700584 57.1447397,18.4641193 L57.1447397,7.98881653 C57.1447397,7.8894063 57.0950547,7.8397019 56.9956828,7.8397019 L56.5112475,7.8397019 C56.213132,7.8397019 56.0299179,7.82106277 55.9615995,7.78378393 C55.8932815,7.7465051 55.8591229,7.66573547 55.8591229,7.54147267 C55.8591229,7.379931 55.9305453,7.2090722 56.0733923,7.0288911 C56.2162393,6.84871003 56.3932428,6.75862083 56.6044082,6.75862083 L57.0143148,6.75862083 C57.1012653,6.75862083 57.1447397,6.70891647 57.1447397,6.6095062 L57.1447397,2.15470663 C57.1447397,1.88132844 57.2565315,1.72600225 57.480118,1.68872341 C57.790655,1.626592 58.1229247,1.54271586 58.4769371,1.43709247 C58.8309492,1.33146908 59.1911668,1.20720813 59.5576004,1.06430589 C59.9240343,0.921403653 60.2842519,0.766077467 60.638264,0.59832267 C60.9922764,0.43056787 61.3183352,0.253496019 61.6164507,0.0671017983 C61.7530871,-0.00745588959 61.8804054,-0.0198819845 61.9984094,0.0298231408 C62.1164134,0.0795282663 62.1754146,0.203789216 62.1754146,0.402609717 L62.1754146,6.62814553 C62.1754146,6.7151295 62.2250999,6.75862083 62.3244718,6.75862083 L65.827312,6.75862083 C66.1254276,6.75862083 66.3086417,6.77726 66.3769597,6.81453883 C66.4452781,6.85181767 66.4794366,6.9325873 66.4794366,7.0568501 C66.4794366,7.21839177 66.3924875,7.38925057 66.2185866,7.56943163 C66.044686,7.74961273 65.852156,7.8397019 65.6409906,7.8397019 L62.3058394,7.8397019 C62.2188893,7.8397019 62.1754146,7.88319323 62.1754146,7.97017723 L62.1754146,19.4333644 C62.1754146,19.768874 62.2344158,20.0639938 62.3524198,20.3187326 C62.4704238,20.5734713 62.6256903,20.790928 62.8182233,20.9711091 C63.010756,21.1512901 63.2343395,21.2848707 63.4889796,21.3718546 C63.7436201,21.4588386 64.0013621,21.5023299 64.2622132,21.5023299 C64.7963367,21.5023299 65.2931888,21.4246668 65.7527834,21.2693383 C66.2123783,21.1140098 66.572596,20.9680032 66.833447,20.8313141 Z M68.864349,22.2479031 C68.864349,22.2230505 68.8364011,22.0459787 68.7805045,21.7166822 C68.7246077,21.3873858 68.6656065,21.0239225 68.6034993,20.6262815 C68.5413919,20.2286405 68.4823907,19.8527511 68.4264938,19.4986021 C68.3705973,19.1444531 68.3364387,18.9238899 68.3240172,18.8369059 C68.2991743,18.662938 68.3488596,18.5604227 68.4730742,18.529357 C68.5972891,18.4982913 68.6904488,18.532463 68.7525563,18.6318733 C68.7649778,18.6691521 68.8457163,18.7996261 68.9947739,19.0232992 C69.1438318,19.2469723 69.348783,19.5203464 69.6096343,19.8434297 C69.8704854,20.166513 70.184123,20.5144436 70.5505565,20.8872321 C70.9169904,21.2600205 71.3268931,21.6048447 71.7802771,21.9217148 C72.2336614,22.238585 72.7274079,22.499533 73.2615314,22.7045666 C73.7956553,22.9096003 74.3670347,23.0121156 74.9756872,23.0121156 C75.6837117,23.0121156 76.2395646,22.8195111 76.643263,22.4342964 C77.046961,22.0490817 77.2488072,21.5396118 77.2488072,20.9058714 C77.2488072,20.5703618 77.2053325,20.2410703 77.118382,19.917987 C77.0314319,19.5949037 76.8451125,19.2718252 76.5594181,18.9487419 C76.2737241,18.6256586 75.8638215,18.3056866 75.329698,17.9888165 C74.795574,17.6719463 74.0813497,17.3519743 73.1870028,17.028891 C72.3671852,16.7430866 71.6778032,16.4013689 71.1188366,16.0037279 C70.5598701,15.6060869 70.1064927,15.161854 69.7586912,14.6710159 C69.4108898,14.1801778 69.1593586,13.6520688 69.0040901,13.086673 C68.8488216,12.5212772 68.7711883,11.9217181 68.7711883,11.2879777 C68.7711883,10.8033528 68.8581375,10.2721372 69.032038,9.69431513 C69.205939,9.11649307 69.5195766,8.57595793 69.9729606,8.07269353 C70.4263446,7.56942913 71.0443043,7.1469419 71.8268574,6.80521917 C72.6094109,6.46349643 73.6093252,6.29263763 74.8266303,6.29263763 C75.5967622,6.29263763 76.3109866,6.3547681 76.9693251,6.4790309 C77.6276636,6.60329373 78.2021486,6.7430873 78.6927971,6.8984158 C79.1834456,7.05374433 79.5747165,7.19975093 79.8666211,7.33644003 C80.158526,7.47312913 80.323108,7.5476857 80.3603725,7.56011197 C80.4349015,7.59739083 80.4783762,7.62845607 80.4907977,7.65330863 C80.5032192,7.6781612 80.5156404,7.72165253 80.5280618,7.78378393 C80.5280618,7.8086365 80.5591151,7.9794953 80.6212225,8.29636547 C80.68333,8.61323563 80.7454365,8.95805977 80.8075436,9.33084823 C80.8696511,9.70363667 80.9317576,10.0453543 80.993865,10.3560113 C81.0559725,10.6666683 81.0870257,10.8406337 81.0870257,10.8779125 C81.1118687,11.0021753 81.068394,11.0922645 80.9566009,11.1481828 C80.8448074,11.204101 80.7454372,11.1699293 80.6584867,11.0456665 C80.4845861,10.7971408 80.2113176,10.4616363 79.8386731,10.0391427 C79.4660286,9.61664917 79.0126513,9.20037497 78.4785277,8.7903077 C77.9444038,8.3802404 77.3512871,8.02299017 76.6991592,7.71854627 C76.0470316,7.4141024 75.3545443,7.26188273 74.6216768,7.26188273 C73.8515452,7.26188273 73.2863761,7.4669133 72.9261531,7.87698057 C72.5659301,8.28704787 72.3858213,8.78409167 72.3858213,9.36812687 C72.3858213,9.66635763 72.429296,9.95526433 72.5162462,10.2348557 C72.6031966,10.514447 72.789516,10.7847146 73.07521,11.0456665 C73.3609044,11.3066184 73.7739123,11.5706729 74.3142468,11.8378379 C74.8545812,12.105003 75.5781218,12.3752706 76.4848899,12.6486488 C78.298426,13.2078314 79.6709791,13.9658232 80.6025905,14.9226469 C81.5342015,15.8794705 82,17.115867 82,18.6318733 C82,19.4023027 81.8695765,20.1136967 81.6087255,20.7660765 C81.3478741,21.4184562 80.9441821,21.9838435 80.397637,22.4622554 C79.8510916,22.9406672 79.1554993,23.3165566 78.3108384,23.5899348 C77.4661778,23.863313 76.4600529,24 75.2924335,24 C74.3111365,24 73.4385407,23.92855 72.6746193,23.7856477 C71.9106982,23.6427455 71.2647909,23.4843128 70.736878,23.3103448 C70.208965,23.1363769 69.7959571,22.9717311 69.4978416,22.8164026 C69.1997257,22.6610741 69.0258278,22.5647719 68.9761418,22.527493 C68.9512988,22.5026405 68.9295615,22.4653622 68.9109294,22.4156571 C68.892297,22.3659519 68.8767705,22.3100345 68.864349,22.2479031 Z"></path>
            </g>
        </g>
    </g>
</svg>