<svg width="157" height="188" viewBox="0 0 157 188" fill="none" xmlns="http://www.w3.org/2000/svg">
<path d="M3.81635 122.285L46.9999 30.1176L63.5721 17.0704C63.5721 17.0704 85.0324 10.6502 108.429 11.5432L130.209 28.811C130.209 28.811 131.544 55.3378 135.163 67.868C138.782 80.3982 148.887 104.932 151.547 115.658L3.81635 122.285Z" fill="#3790F4"/>
<path d="M66.7587 59.5113C78.5434 59.5113 88.0967 49.958 88.0967 38.1733C88.0967 26.3887 78.5434 16.8353 66.7587 16.8353C54.9741 16.8353 45.4207 26.3887 45.4207 38.1733C45.4207 49.958 54.9741 59.5113 66.7587 59.5113Z" fill="#3790F4"/>
<path d="M108.871 54.4729C120.655 54.4729 130.209 44.9195 130.209 33.1349C130.209 21.3502 120.655 11.7969 108.871 11.7969C97.0861 11.7969 87.5327 21.3502 87.5327 33.1349C87.5327 44.9195 97.0861 54.4729 108.871 54.4729Z" fill="#3790F4"/>
<path d="M36.0114 164.867C54.493 164.867 69.4754 149.884 69.4754 131.403C69.4754 112.921 54.493 97.9386 36.0114 97.9386C17.5297 97.9386 2.54736 112.921 2.54736 131.403C2.54736 149.884 17.5297 164.867 36.0114 164.867Z" fill="#3790F4"/>
<path d="M120.987 162.789C139.469 162.789 154.451 147.807 154.451 129.325C154.451 110.844 139.469 95.8612 120.987 95.8612C102.506 95.8612 87.5233 110.844 87.5233 129.325C87.5233 147.807 102.506 162.789 120.987 162.789Z" fill="#3790F4"/>
<path d="M66.0913 18.3393C69.7046 18.3393 72.6337 15.4102 72.6337 11.7969C72.6337 8.18365 69.7046 5.25452 66.0913 5.25452C62.4781 5.25452 59.549 8.18365 59.549 11.7969C59.549 15.4102 62.4781 18.3393 66.0913 18.3393Z" fill="#3790F4"/>
<path d="M111.625 14.9554C115.238 14.9554 118.167 12.0263 118.167 8.41301C118.167 4.79974 115.238 1.87061 111.625 1.87061C108.012 1.87061 105.083 4.79974 105.083 8.41301C105.083 12.0263 108.012 14.9554 111.625 14.9554Z" fill="#3790F4"/>
<path d="M63.4124 5.82799C63.4124 5.82799 77.8977 -4.46501 113.984 2.31239L108.871 17.4558L65.5368 22.2404L63.4124 5.82799Z" fill="#3790F4"/>
<path d="M101.388 11.7969C101.388 11.7969 112.255 13.9213 109.538 28.8109C106.822 43.7005 81.5449 78.9035 98.8879 95.3535" stroke="#1773C6" stroke-width="3.76" stroke-miterlimit="10" stroke-linecap="round"/>
<path d="M108.429 11.5431C108.429 11.5431 121.871 18.6495 119.991 38.1733C118.111 57.6971 111.428 77.6157 122.501 94.1879" stroke="#1773C6" stroke-width="3.76" stroke-miterlimit="10" stroke-linecap="round"/>
<path d="M12.5865 155.288C12.5865 155.288 30.5499 185.001 70.8289 185.001C126.073 185.001 140.041 159.584 145.277 152.336C150.513 145.089 125.631 96.1808 125.631 96.1808L41.031 106.709L12.5865 155.288Z" fill="#3790F4"/>
<path d="M46.1427 146.773C46.1427 147.081 46.2066 147.329 46.3345 147.517C46.4698 147.705 46.6202 147.855 46.7857 147.968C46.9586 148.074 47.1241 148.149 47.282 148.194C47.4474 148.239 47.5602 148.265 47.6204 148.273C47.6805 148.288 47.7219 148.314 47.7445 148.352C47.7745 148.382 47.7858 148.416 47.7783 148.453C47.7708 148.491 47.7482 148.525 47.7106 148.555C47.6805 148.585 47.6354 148.6 47.5753 148.6H41.6645C41.6044 148.6 41.5555 148.585 41.5179 148.555C41.4878 148.525 41.469 148.491 41.4615 148.453C41.454 148.416 41.4615 148.382 41.4841 148.352C41.5141 148.314 41.5593 148.288 41.6194 148.273C41.6796 148.265 41.7886 148.239 41.9465 148.194C42.112 148.149 42.2774 148.074 42.4429 147.968C42.6158 147.855 42.7662 147.705 42.8941 147.517C43.0294 147.329 43.0971 147.081 43.0971 146.773V134.128C43.0971 134.03 43.052 133.97 42.9617 133.947C42.9467 133.947 42.8903 133.936 42.7925 133.913C42.7023 133.891 42.597 133.865 42.4767 133.834C42.3564 133.804 42.2436 133.778 42.1383 133.755C42.0405 133.733 41.9804 133.718 41.9578 133.71C41.8601 133.688 41.8074 133.639 41.7999 133.564C41.7999 133.481 41.8563 133.425 41.9691 133.395C42.2624 133.327 42.5782 133.237 42.9166 133.124C43.2625 133.003 43.6085 132.872 43.9544 132.729C44.3003 132.579 44.6349 132.421 44.9583 132.255C45.2817 132.082 45.5712 131.909 45.8269 131.736C45.8945 131.691 45.9622 131.672 46.0299 131.68C46.1051 131.687 46.1427 131.744 46.1427 131.849V146.773ZM58.2137 147.562C58.319 147.54 58.4017 147.562 58.4619 147.63C58.522 147.69 58.5258 147.773 58.4732 147.878C58.428 147.961 58.3528 148.059 58.2476 148.171C58.1498 148.284 58.0144 148.389 57.8415 148.487C57.676 148.585 57.4692 148.668 57.2211 148.735C56.9804 148.803 56.6947 148.837 56.3638 148.837C55.9051 148.837 55.5178 148.747 55.202 148.566C54.8936 148.378 54.6793 148.164 54.559 147.923C54.5289 147.863 54.4838 147.837 54.4236 147.844C54.371 147.852 54.3259 147.874 54.2883 147.912C54.2657 147.934 54.1943 147.998 54.074 148.104C53.9612 148.201 53.7957 148.31 53.5776 148.431C53.3671 148.544 53.1114 148.645 52.8106 148.735C52.5098 148.833 52.1639 148.882 51.7728 148.882C51.1036 148.882 50.5396 148.788 50.0808 148.6C49.6296 148.412 49.2612 148.171 48.9754 147.878C48.6972 147.577 48.4941 147.243 48.3663 146.874C48.246 146.498 48.1858 146.126 48.1858 145.757C48.1858 145.163 48.3512 144.644 48.6821 144.201C49.0205 143.757 49.4567 143.426 49.9906 143.208C50.2764 143.095 50.5734 143.016 50.8817 142.971C51.1976 142.919 51.5096 142.866 51.818 142.813C52.1263 142.761 52.4271 142.697 52.7204 142.622C53.0212 142.539 53.3032 142.407 53.5664 142.227C53.8446 142.039 54.0364 141.798 54.1416 141.505C54.2544 141.212 54.3108 140.899 54.3108 140.569C54.3108 140.328 54.277 140.099 54.2093 139.881C54.1492 139.655 54.0589 139.459 53.9386 139.294C53.8258 139.129 53.6904 138.997 53.5325 138.899C53.3821 138.801 53.2167 138.753 53.0362 138.753C52.7128 138.753 52.476 138.835 52.3256 139.001C52.1752 139.166 52.0548 139.365 51.9646 139.599C51.8819 139.832 51.8029 140.076 51.7277 140.332C51.6525 140.58 51.5322 140.794 51.3668 140.975C51.2314 141.118 51.0547 141.227 50.8366 141.302C50.626 141.369 50.423 141.403 50.2275 141.403C50.0244 141.403 49.844 141.369 49.686 141.302C49.5281 141.234 49.3928 141.144 49.28 141.031C49.1672 140.911 49.0807 140.775 49.0205 140.625C48.9679 140.467 48.9416 140.302 48.9416 140.129C48.9416 139.896 48.998 139.662 49.1108 139.429C49.2236 139.196 49.4228 138.986 49.7086 138.798C50.0019 138.61 50.3929 138.459 50.8817 138.346C51.3705 138.226 51.9909 138.166 52.7429 138.166C53.5776 138.166 54.2883 138.252 54.8748 138.425C55.4689 138.591 55.9502 138.835 56.3187 139.159C56.6947 139.482 56.9654 139.884 57.1308 140.366C57.3038 140.839 57.3903 141.381 57.3903 141.99C57.3903 142.719 57.3677 143.404 57.3226 144.043C57.2775 144.682 57.2436 145.25 57.2211 145.746C57.206 146.235 57.2173 146.641 57.2549 146.964C57.2925 147.28 57.3978 147.476 57.5708 147.551C57.646 147.589 57.74 147.607 57.8528 147.607C57.9656 147.6 58.0859 147.585 58.2137 147.562ZM54.2996 142.52C54.2996 142.475 54.2808 142.445 54.2432 142.43C54.2056 142.415 54.1717 142.426 54.1416 142.464C54.0815 142.531 54.0251 142.595 53.9724 142.655C53.9273 142.716 53.8634 142.787 53.7807 142.87C53.6378 143.02 53.4912 143.163 53.3408 143.298C53.1904 143.426 53.04 143.558 52.8896 143.693C52.7392 143.813 52.5888 143.934 52.4384 144.054C52.2955 144.174 52.1601 144.306 52.0323 144.449C51.8368 144.675 51.6901 144.923 51.5924 145.193C51.5021 145.457 51.457 145.739 51.457 146.039C51.457 146.242 51.4871 146.449 51.5472 146.66C51.6074 146.863 51.6976 147.047 51.818 147.213C51.9458 147.37 52.1037 147.502 52.2917 147.607C52.4872 147.705 52.7204 147.754 52.9911 147.754C53.2618 147.754 53.4799 147.698 53.6453 147.585C53.8183 147.472 53.9499 147.337 54.0401 147.179C54.1379 147.021 54.2056 146.863 54.2432 146.705C54.2808 146.539 54.2996 146.412 54.2996 146.321V142.52ZM71.307 148.273C71.3671 148.288 71.4085 148.314 71.4311 148.352C71.4611 148.382 71.4724 148.416 71.4649 148.453C71.4574 148.491 71.4348 148.525 71.3972 148.555C71.3671 148.585 71.322 148.6 71.2619 148.6H67.1785C67.0958 148.6 67.0281 148.581 66.9755 148.544C66.9303 148.506 66.9078 148.446 66.9078 148.363V147.698C66.5919 148.013 66.1821 148.292 65.6783 148.532C65.1744 148.765 64.5503 148.882 63.8058 148.882C63.1891 148.882 62.6703 148.814 62.2491 148.679C61.8355 148.544 61.4896 148.363 61.2114 148.137C60.9407 147.912 60.7301 147.652 60.5797 147.359C60.4368 147.066 60.3315 146.761 60.2639 146.445C60.2037 146.13 60.1661 145.818 60.1511 145.509C60.1435 145.193 60.1398 144.9 60.1398 144.629V140.219C60.1398 139.918 60.0796 139.677 59.9593 139.497C59.839 139.309 59.6999 139.166 59.5419 139.068C59.3915 138.963 59.2411 138.892 59.0907 138.854C58.9479 138.816 58.8463 138.79 58.7862 138.775C58.726 138.768 58.6847 138.745 58.6621 138.707C58.632 138.67 58.6207 138.632 58.6283 138.595C58.6358 138.557 58.6583 138.523 58.6959 138.493C58.726 138.463 58.7711 138.448 58.8313 138.448H62.9147C63.0951 138.448 63.1854 138.546 63.1854 138.741V145.34C63.1929 145.641 63.2192 145.942 63.2643 146.242C63.317 146.543 63.4072 146.818 63.5351 147.066C63.6704 147.307 63.8547 147.502 64.0878 147.652C64.3284 147.803 64.648 147.878 65.0466 147.878C65.4677 147.878 65.7986 147.792 66.0392 147.619C66.2874 147.438 66.4754 147.213 66.6032 146.942C66.7311 146.671 66.8138 146.374 66.8514 146.051C66.889 145.72 66.9078 145.404 66.9078 145.103V140.219C66.9078 139.918 66.8476 139.677 66.7273 139.497C66.607 139.309 66.4679 139.166 66.3099 139.068C66.1595 138.963 66.0091 138.892 65.8587 138.854C65.7159 138.816 65.6143 138.79 65.5542 138.775C65.494 138.768 65.4489 138.745 65.4188 138.707C65.3963 138.67 65.3887 138.632 65.3963 138.595C65.4038 138.557 65.4226 138.523 65.4527 138.493C65.4903 138.463 65.5391 138.448 65.5993 138.448H69.6827C69.8631 138.448 69.9534 138.546 69.9534 138.741V146.829C69.9534 147.13 70.0135 147.374 70.1339 147.562C70.2542 147.743 70.3895 147.886 70.5399 147.991C70.6979 148.089 70.8483 148.16 70.9911 148.205C71.1415 148.243 71.2468 148.265 71.307 148.273ZM84.5782 148.273C84.6384 148.288 84.6798 148.314 84.7023 148.352C84.7324 148.382 84.7437 148.416 84.7362 148.453C84.7286 148.491 84.7061 148.525 84.6685 148.555C84.6384 148.585 84.5933 148.6 84.5331 148.6H83.2246H83.1231H80.2806H80.179H78.8706C78.8104 148.6 78.7615 148.585 78.7239 148.555C78.6938 148.525 78.675 148.491 78.6675 148.453C78.66 148.416 78.6675 148.382 78.6901 148.352C78.7202 148.314 78.7653 148.288 78.8254 148.273C78.8856 148.265 78.9871 148.243 79.13 148.205C79.2804 148.16 79.4308 148.089 79.5812 147.991C79.7391 147.886 79.8782 147.743 79.9986 147.562C80.1189 147.374 80.179 147.13 80.179 146.829V142.689V142.599V141.967C80.1715 141.651 80.1452 141.328 80.1001 140.997C80.0625 140.659 79.976 140.354 79.8406 140.084C79.7128 139.805 79.521 139.58 79.2654 139.407C79.0172 139.226 78.6826 139.136 78.2614 139.136C77.8253 139.136 77.4869 139.223 77.2462 139.395C77.0056 139.568 76.8251 139.783 76.7048 140.038C76.592 140.294 76.5206 140.569 76.4905 140.862C76.4679 141.148 76.4566 141.403 76.4566 141.629V146.829C76.4566 147.13 76.5168 147.374 76.6371 147.562C76.7574 147.743 76.8928 147.886 77.0432 147.991C77.2011 148.089 77.3515 148.16 77.4944 148.205C77.6448 148.243 77.7501 148.265 77.8102 148.273C77.8704 148.288 77.9118 148.314 77.9343 148.352C77.9644 148.382 77.9757 148.416 77.9682 148.453C77.9606 148.491 77.9381 148.525 77.9005 148.555C77.8704 148.585 77.8253 148.6 77.7651 148.6H72.1026C72.0424 148.6 71.9935 148.585 71.9559 148.555C71.9258 148.525 71.907 148.491 71.8995 148.453C71.892 148.416 71.8995 148.382 71.9221 148.352C71.9522 148.314 71.9973 148.288 72.0574 148.273C72.1176 148.265 72.2191 148.243 72.362 148.205C72.5124 148.16 72.6628 148.089 72.8132 147.991C72.9711 147.886 73.1102 147.743 73.2306 147.562C73.3509 147.374 73.411 147.13 73.411 146.829V140.557C73.411 140.46 73.3659 140.399 73.2757 140.377C73.2606 140.377 73.2042 140.366 73.1065 140.343C73.0162 140.32 72.911 140.294 72.7906 140.264C72.6703 140.234 72.5575 140.208 72.4522 140.185C72.3545 140.163 72.2943 140.147 72.2718 140.14C72.174 140.117 72.1214 140.069 72.1138 139.993C72.1138 139.911 72.1702 139.854 72.283 139.824C72.5763 139.756 72.8922 139.666 73.2306 139.553C73.5765 139.433 73.9224 139.301 74.2683 139.159C74.6142 139.008 74.9489 138.85 75.2722 138.685C75.5956 138.512 75.8851 138.339 76.1408 138.166C76.2085 138.121 76.2762 138.102 76.3438 138.11C76.419 138.117 76.4566 138.173 76.4566 138.279V139.249C76.6146 139.106 76.795 138.971 76.9981 138.843C77.2011 138.707 77.4267 138.591 77.6749 138.493C77.9306 138.395 78.2126 138.316 78.5209 138.256C78.8367 138.196 79.1826 138.166 79.5586 138.166C80.1753 138.166 80.6904 138.234 81.104 138.369C81.5251 138.504 81.871 138.685 82.1418 138.91C82.42 139.136 82.6306 139.395 82.7734 139.689C82.9238 139.982 83.0291 140.287 83.0893 140.602C83.157 140.918 83.1946 141.234 83.2021 141.55C83.2171 141.858 83.2246 142.148 83.2246 142.419V142.475V146.829C83.2246 147.13 83.2848 147.374 83.4051 147.562C83.5254 147.743 83.6608 147.886 83.8112 147.991C83.9691 148.089 84.1195 148.16 84.2624 148.205C84.4128 148.243 84.5181 148.265 84.5782 148.273ZM97.3645 148.273C97.4246 148.288 97.466 148.314 97.4886 148.352C97.5186 148.382 97.5299 148.416 97.5224 148.453C97.5149 148.491 97.4923 148.525 97.4547 148.555C97.4246 148.585 97.3795 148.6 97.3194 148.6H93.236C93.1533 148.6 93.0856 148.581 93.033 148.544C92.9878 148.506 92.9653 148.446 92.9653 148.363V147.37C92.9653 147.318 92.9465 147.284 92.9089 147.269C92.8713 147.254 92.8374 147.265 92.8074 147.303C92.7397 147.385 92.6269 147.517 92.469 147.698C92.311 147.871 92.093 148.047 91.8147 148.228C91.544 148.401 91.2056 148.551 90.7995 148.679C90.401 148.814 89.931 148.882 89.3895 148.882C88.7879 148.882 88.2615 148.803 87.8103 148.645C87.3591 148.487 86.9681 148.273 86.6372 148.002C86.3138 147.731 86.0431 147.423 85.825 147.077C85.6145 146.731 85.4453 146.367 85.3174 145.983C85.1971 145.599 85.1106 145.216 85.058 144.832C85.0129 144.449 84.9903 144.088 84.9903 143.75C84.9903 142.907 85.0918 142.144 85.2949 141.46C85.5054 140.768 85.8175 140.178 86.2311 139.689C86.6522 139.2 87.1749 138.824 87.799 138.561C88.4307 138.298 89.1714 138.166 90.0212 138.166C90.495 138.166 90.9048 138.196 91.2507 138.256C91.5966 138.309 91.8824 138.373 92.108 138.448C92.3336 138.516 92.5028 138.583 92.6156 138.651C92.7284 138.711 92.7923 138.745 92.8074 138.753C92.845 138.783 92.8788 138.79 92.9089 138.775C92.9465 138.76 92.9653 138.734 92.9653 138.696V134.128C92.9653 134.03 92.9202 133.97 92.8299 133.947C92.8149 133.947 92.7585 133.936 92.6607 133.913C92.5705 133.891 92.4652 133.865 92.3449 133.834C92.2246 133.804 92.1118 133.778 92.0065 133.755C91.9087 133.733 91.8486 133.718 91.826 133.71C91.7282 133.688 91.6756 133.639 91.6681 133.564C91.6681 133.481 91.7245 133.425 91.8373 133.395C92.1306 133.327 92.4464 133.237 92.7848 133.124C93.1307 133.003 93.4766 132.872 93.8226 132.729C94.1685 132.579 94.5031 132.421 94.8265 132.255C95.1498 132.082 95.4394 131.909 95.695 131.736C95.7627 131.691 95.8304 131.672 95.8981 131.68C95.9733 131.687 96.0109 131.744 96.0109 131.849V146.829C96.0109 147.13 96.071 147.374 96.1914 147.562C96.3117 147.743 96.447 147.886 96.5974 147.991C96.7554 148.089 96.9058 148.16 97.0486 148.205C97.199 148.243 97.3043 148.265 97.3645 148.273ZM92.954 141.888C92.954 141.7 92.939 141.494 92.9089 141.268C92.8863 141.042 92.8412 140.817 92.7735 140.591C92.7134 140.358 92.6269 140.136 92.5141 139.926C92.4088 139.715 92.2734 139.527 92.108 139.362C91.9426 139.196 91.747 139.065 91.5214 138.967C91.2958 138.862 91.0364 138.809 90.7431 138.809C90.2994 138.809 89.9197 138.922 89.6038 139.147C89.288 139.373 89.0323 139.685 88.8368 140.084C88.6413 140.475 88.4984 140.941 88.4082 141.482C88.3179 142.016 88.2728 142.595 88.2728 143.219C88.2728 143.385 88.2728 143.61 88.2728 143.896C88.2803 144.174 88.3029 144.475 88.3405 144.799C88.3856 145.122 88.4533 145.449 88.5435 145.78C88.6338 146.111 88.7654 146.408 88.9383 146.671C89.1113 146.934 89.3331 147.152 89.6038 147.325C89.8746 147.491 90.2092 147.573 90.6078 147.573C91.1191 147.573 91.529 147.479 91.8373 147.291C92.1456 147.103 92.3825 146.874 92.5479 146.603C92.7134 146.333 92.8224 146.047 92.875 145.746C92.9277 145.438 92.954 145.167 92.954 144.934V141.888ZM104.994 138.166C105.309 138.166 105.576 138.207 105.795 138.29C106.013 138.365 106.189 138.471 106.325 138.606C106.46 138.734 106.558 138.888 106.618 139.068C106.678 139.241 106.708 139.426 106.708 139.621C106.708 139.982 106.592 140.264 106.359 140.467C106.133 140.67 105.828 140.772 105.445 140.772C105.152 140.772 104.922 140.719 104.757 140.614C104.591 140.508 104.448 140.396 104.328 140.275C104.215 140.147 104.11 140.031 104.012 139.926C103.915 139.82 103.794 139.768 103.651 139.768C103.523 139.768 103.384 139.813 103.234 139.903C103.091 139.986 102.956 140.147 102.828 140.388C102.708 140.629 102.606 140.96 102.523 141.381C102.441 141.802 102.399 142.347 102.399 143.016V146.919C102.399 147.22 102.448 147.457 102.546 147.63C102.651 147.803 102.768 147.934 102.896 148.025C103.031 148.115 103.163 148.179 103.29 148.216C103.418 148.247 103.512 148.265 103.572 148.273C103.633 148.288 103.674 148.314 103.696 148.352C103.727 148.382 103.738 148.416 103.73 148.453C103.723 148.491 103.7 148.525 103.663 148.555C103.633 148.585 103.587 148.6 103.527 148.6H102.399H102.298H99.4552H99.3536H98.2256C98.1655 148.6 98.1166 148.585 98.079 148.555C98.0489 148.525 98.0301 148.491 98.0226 148.453C98.0151 148.416 98.0226 148.382 98.0452 148.352C98.0752 148.314 98.1204 148.288 98.1805 148.273C98.2407 148.265 98.3347 148.247 98.4625 148.216C98.5904 148.179 98.7182 148.115 98.846 148.025C98.9814 147.934 99.098 147.803 99.1957 147.63C99.301 147.457 99.3536 147.22 99.3536 146.919V140.557C99.3536 140.46 99.3085 140.399 99.2183 140.377C99.2032 140.377 99.1468 140.366 99.0491 140.343C98.9588 140.32 98.8536 140.294 98.7332 140.264C98.6129 140.234 98.5001 140.208 98.3948 140.185C98.2971 140.163 98.2369 140.147 98.2144 140.14C98.1166 140.117 98.064 140.069 98.0564 139.993C98.0564 139.911 98.1128 139.854 98.2256 139.824C98.5189 139.756 98.8348 139.666 99.1732 139.553C99.5191 139.433 99.865 139.301 100.211 139.159C100.557 139.008 100.891 138.85 101.215 138.685C101.538 138.512 101.828 138.339 102.083 138.166C102.151 138.121 102.219 138.102 102.286 138.11C102.362 138.117 102.399 138.173 102.399 138.279V139.892C102.662 139.313 103.02 138.88 103.471 138.595C103.922 138.309 104.43 138.166 104.994 138.166ZM109.521 151.296L110.998 148.002C110.878 147.724 110.72 147.355 110.525 146.897C110.329 146.438 110.115 145.942 109.882 145.408C109.649 144.866 109.412 144.314 109.171 143.75C108.93 143.186 108.705 142.667 108.494 142.193C108.284 141.712 108.103 141.302 107.953 140.963C107.802 140.617 107.701 140.392 107.648 140.287C107.536 140.069 107.426 139.881 107.321 139.723C107.216 139.557 107.103 139.414 106.983 139.294C106.862 139.174 106.727 139.076 106.577 139.001C106.426 138.918 106.25 138.85 106.047 138.798C105.986 138.783 105.945 138.756 105.922 138.719C105.892 138.681 105.881 138.643 105.889 138.606C105.889 138.561 105.907 138.523 105.945 138.493C105.975 138.463 106.02 138.448 106.08 138.448H111.72C111.773 138.448 111.818 138.463 111.856 138.493C111.893 138.523 111.916 138.561 111.923 138.606C111.931 138.643 111.923 138.685 111.901 138.73C111.878 138.768 111.833 138.794 111.766 138.809C111.653 138.839 111.529 138.88 111.393 138.933C111.265 138.978 111.153 139.053 111.055 139.159C110.957 139.256 110.893 139.392 110.863 139.565C110.833 139.73 110.859 139.948 110.942 140.219C110.98 140.339 111.044 140.516 111.134 140.749C111.224 140.982 111.326 141.238 111.438 141.516C111.551 141.794 111.668 142.084 111.788 142.385C111.908 142.678 112.021 142.949 112.126 143.197C112.232 143.437 112.322 143.644 112.397 143.817C112.472 143.983 112.518 144.077 112.533 144.099C112.585 144.197 112.638 144.197 112.69 144.099C112.713 144.047 112.762 143.93 112.837 143.75C112.912 143.569 112.995 143.355 113.085 143.107C113.183 142.851 113.288 142.576 113.401 142.283C113.514 141.99 113.619 141.712 113.717 141.448C113.815 141.178 113.901 140.933 113.976 140.715C114.059 140.49 114.116 140.324 114.146 140.219C114.228 139.948 114.255 139.73 114.225 139.565C114.202 139.392 114.146 139.256 114.055 139.159C113.965 139.053 113.856 138.978 113.728 138.933C113.6 138.88 113.48 138.839 113.367 138.809C113.3 138.794 113.254 138.768 113.232 138.73C113.209 138.685 113.202 138.643 113.209 138.606C113.217 138.561 113.236 138.523 113.266 138.493C113.303 138.463 113.352 138.448 113.412 138.448H116.785C116.838 138.448 116.879 138.463 116.909 138.493C116.947 138.523 116.969 138.561 116.977 138.606C116.984 138.643 116.973 138.681 116.943 138.719C116.92 138.756 116.879 138.783 116.819 138.798C116.623 138.85 116.45 138.918 116.3 139.001C116.15 139.076 116.011 139.174 115.883 139.294C115.762 139.414 115.65 139.557 115.544 139.723C115.439 139.881 115.33 140.069 115.217 140.287C115.172 140.377 115.074 140.584 114.924 140.907C114.781 141.223 114.608 141.606 114.405 142.058C114.202 142.509 113.98 143.001 113.74 143.535C113.499 144.069 113.262 144.599 113.029 145.126C112.796 145.645 112.574 146.137 112.363 146.603C112.153 147.07 111.98 147.457 111.844 147.765L109.904 152.097C109.656 152.661 109.363 153.112 109.024 153.45C108.694 153.789 108.28 153.958 107.784 153.958C107.611 153.958 107.438 153.932 107.265 153.879C107.092 153.834 106.938 153.759 106.802 153.653C106.667 153.556 106.554 153.424 106.464 153.259C106.381 153.101 106.34 152.905 106.34 152.672C106.34 152.461 106.377 152.281 106.453 152.131C106.535 151.98 106.641 151.856 106.768 151.758C106.904 151.661 107.054 151.589 107.22 151.544C107.385 151.499 107.554 151.476 107.727 151.476C107.96 151.476 108.163 151.51 108.336 151.578C108.509 151.653 108.667 151.709 108.81 151.747C108.953 151.785 109.081 151.777 109.194 151.725C109.306 151.679 109.416 151.537 109.521 151.296Z" fill="white"/>
<path d="M74.307 14.894L92.261 21.803C92.261 21.803 87.6832 44.3066 87.9746 56.5078L68.62 49.6458C68.62 49.6458 71.2238 26.5876 74.307 14.894Z" fill="white"/>
<path d="M72.3517 47.3242C73.0379 41.7406 74.7393 28.7028 76.7415 19.5096L88.3505 23.9746C87.3071 29.5112 85.1263 41.9568 84.6375 51.6858L72.3517 47.3242Z" fill="#EF9D59"/>
<path d="M82.9268 20.5626C82.9268 20.5626 88.1532 7.63756 99.6212 12.2906" stroke="#1773C6" stroke-width="1.88" stroke-miterlimit="10" stroke-linecap="round"/>
</svg>
