<svg width="138" height="113" viewBox="0 0 138 113" fill="none" xmlns="http://www.w3.org/2000/svg">
<g clip-path="url(#clip0)">
<path d="M139 59H110V84H139V59Z" fill="#104768"/>
<path d="M112.499 62C102.282 62 94 72.52 94 85.5C94 98.48 102.282 109 112.499 109H121V62H112.499Z" fill="#104768"/>
<path d="M121.5 109C131.717 109 140 98.4788 140 85.5C140 72.5212 131.717 62 121.5 62C111.283 62 103 72.5212 103 85.5C103 98.4788 111.283 109 121.5 109Z" fill="#105A91"/>
<path d="M122 103C129.18 103 135 95.1651 135 85.5C135 75.835 129.18 68 122 68C114.82 68 109 75.835 109 85.5C109 95.1651 114.82 103 122 103Z" fill="#7DB8FB"/>
<path d="M121.505 90C120.124 90 119 93.7635 119 98.4047C119 99.9823 119.128 101.457 119.353 102.713C120.049 102.897 120.767 103 121.5 103C122.233 103 122.951 102.897 123.647 102.713C123.872 101.451 124 99.9766 124 98.4047C124.005 93.7635 122.886 90 121.505 90Z" fill="#AED4FF"/>
<path d="M121.495 81C122.876 81 124 77.2366 124 72.5954C124 71.0176 123.872 69.5432 123.647 68.2868C122.951 68.1033 122.233 68 121.5 68C120.767 68 120.049 68.1033 119.353 68.2868C119.129 69.549 119 71.0234 119 72.5954C118.989 77.2366 120.114 81 121.495 81Z" fill="#AED4FF"/>
<path d="M125.139 83.4223C125.932 84.7139 129.892 83.7671 133.988 81.3066C133.994 81.3066 133.994 81.3008 134 81.3008C133.627 79.3897 133.029 77.6072 132.242 76C131.869 76.1987 131.49 76.4091 131.112 76.637C127.022 79.0975 124.346 82.1365 125.139 83.4223Z" fill="#AED4FF"/>
<path d="M117.859 87.5777C117.066 86.2861 113.107 87.2329 109.012 89.6934C109.006 89.6934 109.006 89.6992 109 89.6992C109.373 91.6103 109.971 93.3928 110.758 95C111.13 94.8013 111.509 94.5909 111.888 94.363C115.983 91.9025 118.658 88.8693 117.859 87.5777Z" fill="#AED4FF"/>
<path d="M133.988 89.6909C129.898 87.2351 125.932 86.2879 125.139 87.5743C124.346 88.8665 127.022 91.9011 131.112 94.3627C131.49 94.5907 131.869 94.8012 132.242 95C133.029 93.3921 133.633 91.6087 134 89.6967C134 89.6967 133.994 89.6909 133.988 89.6909Z" fill="#AED4FF"/>
<path d="M117.861 83.4223C118.654 82.1307 115.978 79.0975 111.888 76.637C111.51 76.4091 111.131 76.1987 110.758 76C109.971 77.6072 109.367 79.3897 109 81.3008C109.006 81.3008 109.006 81.3066 109.012 81.3066C113.108 83.7671 117.068 84.7139 117.861 83.4223Z" fill="#AED4FF"/>
<path d="M122 88C123.105 88 124 86.6568 124 85C124 83.3432 123.105 82 122 82C120.895 82 120 83.3432 120 85C120 86.6568 120.895 88 122 88Z" fill="#105A91"/>
<path d="M44.4991 62C34.282 62 26 72.52 26 85.5C26 98.48 34.282 109 44.4991 109H53V62H44.4991Z" fill="#104768"/>
<path d="M52.5 109C62.717 109 71 98.4788 71 85.5C71 72.5212 62.717 62 52.5 62C42.2827 62 34 72.5212 34 85.5C34 98.4788 42.2827 109 52.5 109Z" fill="#105A91"/>
<path d="M54 103C61.1795 103 67 94.9413 67 85C67 75.0587 61.1795 67 54 67C46.8203 67 41 75.0587 41 85C41 94.9413 46.8203 103 54 103Z" fill="#7DB8FB"/>
<path d="M244.973 51.7856C222.799 47.9024 212.643 45.3724 212.643 45.3724C212.643 45.3724 200.453 37.1001 189.454 30.8574C187.509 29.7545 185.211 28.4127 182.395 26.98C158.931 18.702 134.299 20.5838 118.972 23.3697C101.028 26.6332 75.2954 39.9087 62.3178 38.8284C49.3402 37.7482 24.8048 37.2081 24.8048 37.2081C24.8048 37.2081 13.0531 38.6124 7.4652 40.4715L2.56154 66.3005H0.383407L-2 87.9848C-2 87.9848 20.5682 94 68.1794 94H100.555C100.555 94 102.459 60.9562 121.886 60.9562C141.312 60.9562 138.644 94 138.644 94H233.484C233.484 94 231.962 61.718 250.242 61.718C268.522 61.718 261.669 92.482 261.669 92.482H267V70.1837C267 70.1837 267.148 55.663 244.973 51.7856Z" fill="#1773C6"/>
<path d="M63.5751 69C63.3564 69 63.1435 68.8739 63.0514 68.6617C62.919 68.375 63.0514 68.031 63.3449 67.9048L71.4659 64.2982C71.7019 61.8785 73.1062 46.9932 72.8012 43.6274C72.7724 43.312 73.0084 43.031 73.3249 43.0024C73.6415 42.9737 73.9235 43.2088 73.9523 43.5242C74.2976 47.2799 72.6573 64.0287 72.5825 64.7397L72.548 65.0723L63.8111 68.9541C63.7363 68.9828 63.6557 69 63.5751 69Z" fill="#3790F4"/>
<path d="M102 27.5746C102 27.5746 95.1422 20.9185 72.2484 19C51.0562 23.1055 35.6562 29.9238 25 36.345C25 36.345 49.6469 36.8764 62.6922 37.9391C71.8531 38.683 87.3448 32.4576 102 27.5746Z" fill="#3790F4"/>
<path d="M101.734 28C107.928 25.9119 113.973 24.0614 119.331 23.0994C134.719 20.3266 159.449 18.4535 183 26.6871C169.845 20.0662 145.384 11.5892 92.3624 16.4276C85.0464 17.0953 78.2742 18.0913 72 19.3193C94.8812 21.2659 101.734 28 101.734 28Z" fill="#1773C6"/>
<path d="M64.0164 78.2267C63.8299 77.9793 63.474 77.9231 63.2254 78.1143C62.9768 78.2998 62.9259 78.6541 63.1124 78.9015C70.2312 88.4105 79.0732 92.3636 85.5479 94H93C88.5931 93.8144 74.4234 92.1275 64.0164 78.2267Z" fill="#3790F4"/>
<path d="M136.919 41.7798C164.736 43.1155 189.605 42.5599 203 46L200.791 37.2847C197.292 35.1353 193.408 32.8176 189.656 30.73C187.7 29.6413 185.388 28.3168 182.554 26.9026C158.954 18.7317 134.171 20.5892 118.751 23.3391C116.933 23.6646 115.039 24.0911 113.083 24.5905C113.347 24.6074 109.182 40.4498 136.919 41.7798Z" fill="#7DB8FB"/>
<path fill-rule="evenodd" clip-rule="evenodd" d="M153.69 90H220.632L222 56.0052L213.584 44.7405L213.504 44.6889C213.5 44.6864 213.485 44.6763 213.46 44.6587C212.641 44.1012 200.839 36.0643 190.274 30.0081L189.356 29.4799L189.24 29.4132C187.501 28.4133 185.535 27.2828 183.192 26.0809L183.124 26.0522C158.366 17.2334 132.581 19.9721 119.415 22.3892C116.296 22.9634 112.716 23.882 108.468 25.1968L108 25.3403L108.074 25.8283C108.148 26.3106 109.939 37.759 117.693 44.1894C124.256 49.6265 136.464 59.7486 145.622 82.8003L145.625 82.8077C145.767 83.1928 148.278 90 153.69 90ZM146.694 82.3926C138.54 61.8786 128.288 51.4809 118.423 43.2994C111.883 37.8738 109.728 28.3833 109.289 26.1384C113.286 24.9154 116.673 24.06 119.626 23.5145C132.678 21.1204 158.217 18.3989 182.719 27.1201C185.033 28.302 186.98 29.4232 188.699 30.4134L188.803 30.4731L189.727 31.0013C200.127 36.9667 211.742 44.8611 212.803 45.5845L220.86 56.3669L219.537 88.8517H153.69C149.049 88.8517 146.722 82.4788 146.694 82.3926Z" fill="#3790F4"/>
<path d="M45 84L9 81.4123V72L45 73.6436V84Z" fill="#7DB8FB"/>
<path d="M9.77635 66.4797L46.8145 67L55.9268 50.8416C56.0812 50.5701 55.984 50.2251 55.7037 50.0724C55.4291 49.9197 55.0802 50.0158 54.9258 50.2929L46.1453 65.8575L10.6859 65.3598C9.62763 61.1689 6.28132 52.312 5.41185 50.0497L5 52.1933C6.3614 55.8186 8.92977 62.8486 9.67339 66.0441L9.77635 66.4797Z" fill="#3790F4"/>
<path d="M72.9987 47.5411C72.9987 47.5411 71.4199 45.1695 64.8526 43.2529C58.2854 41.3363 43 38.1855 43 41.342C43 44.4984 46.6326 50.4587 52.1758 50.908C57.7191 51.3573 67.9131 50.0094 69.7208 50.1175C71.5285 50.2255 73.0502 50.0492 72.9987 47.5411Z" fill="#F7A961"/>
<path d="M17.9224 40.6758C18.343 38.8978 17.0111 38.1643 14.9547 38C12.0279 38.534 9.03679 39.1795 6.91032 39.8895L5 50C5.00584 50 16.5379 46.5144 17.9224 40.6758Z" fill="#F7A961"/>
</g>
<defs>
<clipPath id="clip0">
<rect width="236.83" height="112.752" fill="white"/>
</clipPath>
</defs>
</svg>
