<svg width="237" height="19" viewBox="0 0 237 19" fill="none" xmlns="http://www.w3.org/2000/svg">
<path d="M1.24929 15V3.36364H5.61293C6.50687 3.36364 7.25687 3.5303 7.86293 3.86364C8.47278 4.19697 8.933 4.6553 9.24361 5.23864C9.558 5.81818 9.7152 6.47727 9.7152 7.21591C9.7152 7.96212 9.558 8.625 9.24361 9.20455C8.92921 9.78409 8.4652 10.2405 7.85156 10.5739C7.23793 10.9034 6.48224 11.0682 5.58452 11.0682H2.69247V9.33523H5.30043C5.82315 9.33523 6.25118 9.24432 6.58452 9.0625C6.91785 8.88068 7.16406 8.63068 7.32315 8.3125C7.48603 7.99432 7.56747 7.62879 7.56747 7.21591C7.56747 6.80303 7.48603 6.43939 7.32315 6.125C7.16406 5.81061 6.91596 5.56629 6.57884 5.39205C6.2455 5.21402 5.81558 5.125 5.28906 5.125H3.35724V15H1.24929ZM15.1371 15.1705C14.2848 15.1705 13.5462 14.983 12.9212 14.608C12.2962 14.233 11.8113 13.7083 11.4666 13.0341C11.1257 12.3598 10.9553 11.572 10.9553 10.6705C10.9553 9.76894 11.1257 8.97917 11.4666 8.30114C11.8113 7.62311 12.2962 7.09659 12.9212 6.72159C13.5462 6.34659 14.2848 6.15909 15.1371 6.15909C15.9893 6.15909 16.728 6.34659 17.353 6.72159C17.978 7.09659 18.4609 7.62311 18.8018 8.30114C19.1465 8.97917 19.3189 9.76894 19.3189 10.6705C19.3189 11.572 19.1465 12.3598 18.8018 13.0341C18.4609 13.7083 17.978 14.233 17.353 14.608C16.728 14.983 15.9893 15.1705 15.1371 15.1705ZM15.1484 13.5227C15.6106 13.5227 15.9969 13.3958 16.3075 13.142C16.6181 12.8845 16.8492 12.5398 17.0007 12.108C17.156 11.6761 17.2337 11.1951 17.2337 10.6648C17.2337 10.1307 17.156 9.64773 17.0007 9.21591C16.8492 8.7803 16.6181 8.43371 16.3075 8.17614C15.9969 7.91856 15.6106 7.78977 15.1484 7.78977C14.675 7.78977 14.281 7.91856 13.9666 8.17614C13.656 8.43371 13.4231 8.7803 13.2678 9.21591C13.1162 9.64773 13.0405 10.1307 13.0405 10.6648C13.0405 11.1951 13.1162 11.6761 13.2678 12.108C13.4231 12.5398 13.656 12.8845 13.9666 13.142C14.281 13.3958 14.675 13.5227 15.1484 13.5227ZM22.6158 15L20.1499 6.27273H22.2464L23.7805 12.4091H23.8601L25.4283 6.27273H27.5021L29.0703 12.375H29.1555L30.6669 6.27273H32.7692L30.2976 15H28.1555L26.5192 9.10227H26.3999L24.7635 15H22.6158ZM37.8189 15.1705C36.9439 15.1705 36.1882 14.9886 35.5518 14.625C34.9193 14.2576 34.4325 13.7386 34.0916 13.0682C33.7507 12.3939 33.5803 11.6004 33.5803 10.6875C33.5803 9.78977 33.7507 9.00189 34.0916 8.32386C34.4363 7.64205 34.9174 7.11174 35.5348 6.73295C36.1522 6.35038 36.8776 6.15909 37.7109 6.15909C38.2488 6.15909 38.7564 6.24621 39.2337 6.42045C39.7147 6.59091 40.139 6.85606 40.5064 7.21591C40.8776 7.57576 41.1693 8.03409 41.3814 8.59091C41.5935 9.14394 41.6996 9.80303 41.6996 10.5682V11.1989H34.5462V9.8125H39.728C39.7242 9.41856 39.639 9.06818 39.4723 8.76136C39.3056 8.45076 39.0727 8.20644 38.7734 8.02841C38.478 7.85038 38.1333 7.76136 37.7393 7.76136C37.3189 7.76136 36.9496 7.86364 36.6314 8.06818C36.3132 8.26894 36.0651 8.53409 35.8871 8.86364C35.7128 9.18939 35.6238 9.54735 35.62 9.9375V11.1477C35.62 11.6553 35.7128 12.0909 35.8984 12.4545C36.084 12.8144 36.3435 13.0909 36.6768 13.2841C37.0102 13.4735 37.4003 13.5682 37.8473 13.5682C38.1465 13.5682 38.4174 13.5265 38.6598 13.4432C38.9022 13.3561 39.1125 13.2292 39.2905 13.0625C39.4685 12.8958 39.603 12.6894 39.6939 12.4432L41.6143 12.6591C41.4931 13.1667 41.2621 13.6098 40.9212 13.9886C40.584 14.3636 40.1522 14.6553 39.6257 14.8636C39.0992 15.0682 38.4969 15.1705 37.8189 15.1705ZM43.4396 15V6.27273H45.4339V7.72727H45.5249C45.6839 7.22348 45.9567 6.83523 46.343 6.5625C46.7332 6.28598 47.1783 6.14773 47.6783 6.14773C47.7919 6.14773 47.9188 6.15341 48.0589 6.16477C48.2029 6.17235 48.3222 6.18561 48.4169 6.20455V8.09659C48.3298 8.06629 48.1915 8.03977 48.0021 8.01705C47.8165 7.99053 47.6366 7.97727 47.4624 7.97727C47.0874 7.97727 46.7502 8.05871 46.451 8.22159C46.1555 8.38068 45.9226 8.60227 45.7521 8.88636C45.5817 9.17045 45.4964 9.49811 45.4964 9.86932V15H43.4396ZM53.2876 15.1705C52.4126 15.1705 51.657 14.9886 51.0206 14.625C50.388 14.2576 49.9013 13.7386 49.5604 13.0682C49.2195 12.3939 49.049 11.6004 49.049 10.6875C49.049 9.78977 49.2195 9.00189 49.5604 8.32386C49.9051 7.64205 50.3861 7.11174 51.0036 6.73295C51.621 6.35038 52.3464 6.15909 53.1797 6.15909C53.7176 6.15909 54.2251 6.24621 54.7024 6.42045C55.1835 6.59091 55.6077 6.85606 55.9751 7.21591C56.3464 7.57576 56.638 8.03409 56.8501 8.59091C57.0623 9.14394 57.1683 9.80303 57.1683 10.5682V11.1989H50.0149V9.8125H55.1967C55.1929 9.41856 55.1077 9.06818 54.9411 8.76136C54.7744 8.45076 54.5414 8.20644 54.2422 8.02841C53.9467 7.85038 53.602 7.76136 53.2081 7.76136C52.7876 7.76136 52.4183 7.86364 52.1001 8.06818C51.782 8.26894 51.5339 8.53409 51.3558 8.86364C51.1816 9.18939 51.0926 9.54735 51.0888 9.9375V11.1477C51.0888 11.6553 51.1816 12.0909 51.3672 12.4545C51.5528 12.8144 51.8123 13.0909 52.1456 13.2841C52.4789 13.4735 52.8691 13.5682 53.3161 13.5682C53.6153 13.5682 53.8861 13.5265 54.1286 13.4432C54.371 13.3561 54.5812 13.2292 54.7592 13.0625C54.9373 12.8958 55.0717 12.6894 55.1626 12.4432L57.0831 12.6591C56.9619 13.1667 56.7308 13.6098 56.3899 13.9886C56.0528 14.3636 55.621 14.6553 55.0945 14.8636C54.5679 15.0682 53.9657 15.1705 53.2876 15.1705ZM62.147 15.1534C61.4614 15.1534 60.8478 14.9773 60.3061 14.625C59.7644 14.2727 59.3364 13.7614 59.022 13.0909C58.7076 12.4205 58.5504 11.6061 58.5504 10.6477C58.5504 9.67803 58.7095 8.85985 59.0277 8.19318C59.3497 7.52273 59.7834 7.01705 60.3288 6.67614C60.8743 6.33144 61.4822 6.15909 62.1527 6.15909C62.6641 6.15909 63.0845 6.24621 63.4141 6.42045C63.7436 6.59091 64.005 6.79735 64.1982 7.03977C64.3913 7.27841 64.541 7.50379 64.647 7.71591H64.7322V3.36364H66.7947V15H64.772V13.625H64.647C64.541 13.8371 64.3875 14.0625 64.1868 14.3011C63.986 14.536 63.7209 14.7367 63.3913 14.9034C63.0618 15.0701 62.647 15.1534 62.147 15.1534ZM62.7209 13.4659C63.1565 13.4659 63.5277 13.3485 63.8345 13.1136C64.1413 12.875 64.3743 12.5436 64.5334 12.1193C64.6925 11.6951 64.772 11.2008 64.772 10.6364C64.772 10.072 64.6925 9.58144 64.5334 9.16477C64.3781 8.74811 64.147 8.42424 63.8402 8.19318C63.5372 7.96212 63.1641 7.84659 62.7209 7.84659C62.2625 7.84659 61.88 7.96591 61.5732 8.20455C61.2663 8.44318 61.0353 8.77273 60.88 9.19318C60.7247 9.61364 60.647 10.0947 60.647 10.6364C60.647 11.1818 60.7247 11.6686 60.88 12.0966C61.0391 12.5208 61.272 12.8561 61.5788 13.1023C61.8894 13.3447 62.2701 13.4659 62.7209 13.4659ZM73.0462 15V3.36364H75.103V7.71591H75.1882C75.2943 7.50379 75.4439 7.27841 75.6371 7.03977C75.8303 6.79735 76.0916 6.59091 76.4212 6.42045C76.7507 6.24621 77.1712 6.15909 77.6825 6.15909C78.3568 6.15909 78.9647 6.33144 79.5064 6.67614C80.0518 7.01705 80.4837 7.52273 80.8018 8.19318C81.1238 8.85985 81.2848 9.67803 81.2848 10.6477C81.2848 11.6061 81.1276 12.4205 80.8132 13.0909C80.4988 13.7614 80.0708 14.2727 79.5291 14.625C78.9875 14.9773 78.3738 15.1534 77.6882 15.1534C77.1882 15.1534 76.7734 15.0701 76.4439 14.9034C76.1143 14.7367 75.8492 14.536 75.6484 14.3011C75.4515 14.0625 75.2981 13.8371 75.1882 13.625H75.0689V15H73.0462ZM75.0632 10.6364C75.0632 11.2008 75.1428 11.6951 75.3018 12.1193C75.4647 12.5436 75.6977 12.875 76.0007 13.1136C76.3075 13.3485 76.6787 13.4659 77.1143 13.4659C77.5689 13.4659 77.9496 13.3447 78.2564 13.1023C78.5632 12.8561 78.7943 12.5208 78.9496 12.0966C79.1087 11.6686 79.1882 11.1818 79.1882 10.6364C79.1882 10.0947 79.1106 9.61364 78.9553 9.19318C78.8 8.77273 78.5689 8.44318 78.2621 8.20455C77.9553 7.96591 77.5727 7.84659 77.1143 7.84659C76.675 7.84659 76.3018 7.96212 75.995 8.19318C75.6882 8.42424 75.4553 8.74811 75.2962 9.16477C75.1409 9.58144 75.0632 10.072 75.0632 10.6364ZM84.0149 18.2727C83.7346 18.2727 83.4751 18.25 83.2365 18.2045C83.0017 18.1629 82.8142 18.1136 82.674 18.0568L83.1513 16.4545C83.4505 16.5417 83.7176 16.5833 83.9524 16.5795C84.1873 16.5758 84.3937 16.5019 84.5717 16.358C84.7536 16.2178 84.907 15.983 85.032 15.6534L85.2081 15.1818L82.0433 6.27273H84.2251L86.2365 12.8636H86.3274L88.3445 6.27273H90.532L87.0376 16.0568C86.8748 16.5189 86.6589 16.9148 86.3899 17.2443C86.121 17.5777 85.7914 17.8314 85.4013 18.0057C85.0149 18.1837 84.5528 18.2727 84.0149 18.2727Z" fill="#303651"/>
<g clip-path="url(#clip0_615_13837)">
<path d="M138.82 5.51026V12.5014H140.568C141.014 12.4948 141.454 12.399 141.863 12.2198C142.271 12.0405 142.639 11.7814 142.945 11.4578C143.574 10.7944 143.917 9.91252 143.903 9.00004C143.917 8.54681 143.84 8.09542 143.678 7.6718C143.516 7.24819 143.271 6.8607 142.959 6.5316C142.651 6.20754 142.28 5.94966 141.869 5.77386C141.458 5.59806 141.015 5.50805 140.568 5.50937H138.821L138.82 5.51026ZM140.568 3.31826C143.826 3.31826 146.29 5.8356 146.29 9.00004C146.29 12.1645 143.826 14.696 140.568 14.696H136.713C136.676 14.6956 136.64 14.6879 136.606 14.6734C136.572 14.659 136.542 14.638 136.516 14.6118C136.491 14.5855 136.47 14.5545 136.457 14.5205C136.443 14.4864 136.436 14.45 136.437 14.4134V3.61249C136.437 3.45604 136.561 3.32893 136.713 3.32893L140.568 3.31826V3.31826ZM154.687 12.7449C156.167 12.7494 157.503 11.8418 158.073 10.4454C158.352 9.76309 158.426 9.01474 158.287 8.29104C158.148 7.56734 157.802 6.89935 157.29 6.36804C156.787 5.84546 156.137 5.48734 155.426 5.34102C154.714 5.19469 153.975 5.26703 153.306 5.54849C151.939 6.12449 151.046 7.48715 151.043 9.00004C151.043 11.0623 152.672 12.7352 154.688 12.7449H154.687ZM154.688 3.06049C158.117 3.06049 160.739 5.7556 160.739 9.00004C160.739 12.2445 158.117 14.9396 154.687 14.9396C151.259 14.9396 148.659 12.2578 148.659 9.00004C148.659 5.74226 151.281 3.06049 154.687 3.06049H154.688ZM169.068 12.7449C171.085 12.7396 172.717 11.0649 172.715 9.00271C172.713 6.93871 171.077 5.2676 169.061 5.26671C167.043 5.26671 165.406 6.93693 165.404 9.00004C165.404 9.99382 165.79 10.9467 166.477 11.6489C166.813 11.995 167.216 12.2703 167.661 12.4585C168.106 12.6468 168.584 12.7442 169.067 12.7449H169.068ZM169.067 3.06049C172.485 3.06049 175.107 5.74226 175.107 9.00004C175.107 12.2578 172.475 14.9396 169.067 14.9396C165.66 14.9396 163.017 12.2578 163.017 9.00004C163.017 5.74226 165.638 3.06049 169.067 3.06049ZM183.102 5.51026H180.637V8.51915H183.102C183.297 8.52776 183.491 8.49647 183.673 8.42722C183.855 8.35796 184.021 8.25221 184.161 8.11649C184.446 7.84093 184.608 7.45871 184.612 7.05693C184.619 6.8531 184.585 6.64992 184.511 6.45959C184.438 6.26927 184.326 6.09572 184.184 5.94937C184.044 5.80535 183.876 5.69211 183.689 5.61695C183.503 5.54178 183.303 5.50635 183.102 5.51293V5.51026ZM178.253 3.61249C178.253 3.45604 178.378 3.32893 178.53 3.32893H183.17C185.383 3.32893 186.984 4.98671 186.984 7.06849C187 8.47649 186.229 9.76982 184.999 10.4L187.139 14.2694C187.168 14.3138 187.185 14.3656 187.187 14.419C187.189 14.4723 187.176 14.5252 187.149 14.5716C187.124 14.6173 187.085 14.6547 187.039 14.6793C186.992 14.7039 186.94 14.7146 186.887 14.7103H185.009C184.957 14.711 184.906 14.697 184.861 14.67C184.817 14.6429 184.781 14.6039 184.758 14.5574L182.695 10.728H180.628V14.4045C180.629 14.4412 180.622 14.4777 180.609 14.5118C180.595 14.546 180.575 14.5771 180.549 14.6035C180.524 14.6298 180.493 14.6508 180.459 14.6654C180.425 14.6799 180.389 14.6876 180.352 14.688H178.543C178.506 14.6876 178.47 14.6799 178.436 14.6654C178.402 14.6508 178.371 14.6298 178.346 14.6035C178.32 14.5771 178.3 14.546 178.286 14.5118C178.273 14.4777 178.266 14.4412 178.266 14.4045L178.254 3.61337L178.253 3.61249ZM193.198 5.5636V12.5556H194.945C195.391 12.5496 195.831 12.4544 196.239 12.2758C196.648 12.0972 197.016 11.8387 197.323 11.5156C197.951 10.8529 198.296 9.97173 198.283 9.0596C198.297 8.60581 198.221 8.15369 198.059 7.72928C197.898 7.30487 197.653 6.91656 197.341 6.58671C197.033 6.2621 196.661 6.00391 196.249 5.82809C195.837 5.65227 195.394 5.56255 194.946 5.56449L193.198 5.5636V5.5636ZM194.945 3.36893C198.203 3.36893 200.667 5.88893 200.667 9.0596C200.667 12.2303 198.203 14.7503 194.945 14.7503H191.101C191.065 14.7498 191.028 14.7421 190.994 14.7276C190.961 14.7131 190.93 14.692 190.904 14.6657C190.879 14.6393 190.858 14.6082 190.845 14.5741C190.831 14.5399 190.825 14.5034 190.825 14.4667V3.66671C190.825 3.50937 190.949 3.38226 191.101 3.38226L194.946 3.36893H194.945ZM207.937 6.14937L206.585 9.88804H209.286L207.937 6.14937V6.14937ZM205.791 12.0009L204.906 14.4898C204.888 14.5484 204.852 14.5994 204.802 14.6348C204.752 14.6702 204.691 14.688 204.63 14.6854H202.71C202.661 14.6899 202.612 14.6813 202.567 14.6603C202.523 14.6393 202.485 14.6069 202.458 14.5663C202.43 14.5252 202.413 14.4776 202.408 14.4281C202.404 14.3786 202.413 14.3288 202.434 14.2836L206.582 3.49337C206.601 3.43647 206.639 3.38744 206.689 3.35374C206.738 3.32004 206.798 3.30352 206.858 3.30671H209.006C209.067 3.30333 209.126 3.31975 209.176 3.35346C209.226 3.38717 209.264 3.43632 209.283 3.49337L213.432 14.2836C213.452 14.3289 213.461 14.3787 213.456 14.4282C213.452 14.4777 213.435 14.5253 213.407 14.5663C213.379 14.6067 213.341 14.639 213.297 14.6598C213.252 14.6806 213.203 14.6891 213.154 14.6845H211.235C211.174 14.6871 211.114 14.6693 211.064 14.6339C211.014 14.5985 210.977 14.5475 210.959 14.4889L210.074 12H205.791V12.0009ZM215.657 6.39204C215.657 4.60537 217.167 3.06049 219.551 3.06049C220.835 3.03189 222.079 3.51088 223.01 4.39293C223.038 4.41968 223.061 4.45193 223.076 4.48769C223.092 4.52346 223.1 4.56199 223.1 4.60093C223.1 4.63987 223.092 4.6784 223.076 4.71417C223.061 4.74993 223.038 4.78218 223.01 4.80893L221.946 5.88893C221.921 5.91517 221.891 5.93603 221.857 5.95028C221.823 5.96453 221.787 5.97187 221.75 5.97187C221.714 5.97187 221.678 5.96453 221.644 5.95028C221.61 5.93603 221.58 5.91517 221.554 5.88893C221.053 5.42077 220.396 5.15552 219.709 5.14493C218.755 5.14493 218.05 5.71115 218.05 6.36449C218.05 8.47649 223.686 7.25782 223.686 11.3218C223.684 13.3814 222.162 14.9396 219.472 14.9396C218.725 14.9472 217.984 14.8049 217.293 14.5212C216.603 14.2375 215.976 13.8181 215.451 13.288C215.423 13.2613 215.4 13.229 215.385 13.1933C215.369 13.1575 215.362 13.119 215.362 13.08C215.362 13.0411 215.369 13.0026 215.385 12.9668C215.4 12.931 215.423 12.8988 215.451 12.872L216.48 11.8196C216.506 11.7921 216.537 11.7701 216.571 11.7551C216.606 11.7401 216.643 11.7324 216.68 11.7324C216.718 11.7324 216.755 11.7401 216.79 11.7551C216.824 11.7701 216.855 11.7921 216.881 11.8196C217.528 12.4595 218.4 12.823 219.312 12.8329C220.503 12.8329 221.289 12.1823 221.289 11.3672C221.289 9.25426 215.655 10.4738 215.655 6.40893L215.657 6.39204ZM233.906 3.59826V7.86849H229.136V3.59826C229.136 3.56161 229.129 3.52522 229.116 3.49118C229.102 3.45713 229.082 3.4261 229.056 3.39985C229.031 3.37361 229 3.35265 228.966 3.3382C228.933 3.32374 228.896 3.31606 228.859 3.3156H227.05C227.013 3.31606 226.977 3.32374 226.943 3.3382C226.909 3.35265 226.879 3.37361 226.853 3.39985C226.828 3.4261 226.807 3.45713 226.794 3.49118C226.78 3.52522 226.773 3.56161 226.774 3.59826V14.3867C226.774 14.5432 226.899 14.6703 227.05 14.6703H228.859C229.011 14.6703 229.136 14.5432 229.136 14.3867V10.0489H233.903V14.3867C233.903 14.5432 234.027 14.6703 234.179 14.6703H235.988C236.141 14.6703 236.265 14.5432 236.265 14.3867V3.59826C236.265 3.56161 236.258 3.52522 236.245 3.49118C236.231 3.45713 236.211 3.4261 236.185 3.39985C236.159 3.37361 236.129 3.35265 236.095 3.3382C236.061 3.32374 236.025 3.31606 235.988 3.3156H234.179C234.105 3.31746 234.035 3.34818 233.984 3.40109C233.933 3.454 233.905 3.52484 233.906 3.59826V3.59826ZM126.28 4.7556C125.025 2.4356 122.57 0.991152 119.899 1.00004H99.6948C99.5584 1.00059 99.4251 1.04117 99.3117 1.11673C99.1982 1.19228 99.1095 1.29947 99.0567 1.42493C99.0046 1.54959 98.991 1.6869 99.0177 1.81929C99.0444 1.95168 99.1101 2.07312 99.2064 2.16804L103.608 6.5236C103.996 6.90937 104.526 7.12537 105.077 7.12537H119.32C120.335 7.11471 121.165 7.91649 121.176 8.91471C121.186 9.91293 120.373 10.7307 119.357 10.7405H109.538C109.401 10.7405 109.268 10.7807 109.154 10.8559C109.04 10.9312 108.951 11.0382 108.898 11.1636C108.845 11.2884 108.831 11.426 108.858 11.5588C108.884 11.6915 108.95 11.8133 109.047 11.9085L113.451 16.2676C113.842 16.6532 114.37 16.8691 114.919 16.8685H119.361C125.139 16.8685 129.509 10.7885 126.28 4.75293" fill="#FF3008"/>
</g>
<defs>
<clipPath id="clip0_615_13837">
<rect width="137.263" height="16" fill="white" transform="translate(99 1)"/>
</clipPath>
</defs>
</svg>
