<svg width="125" height="110" viewBox="0 0 125 110" fill="none" xmlns="http://www.w3.org/2000/svg">
<path d="M99.6087 12.3945V110H102.581V12.3945C102.581 8.90517 99.8546 5.96521 96.3756 5.70182L78.1855 4.32716V7.30976L96.1523 8.66686C98.0912 8.81235 99.6087 10.4504 99.6087 12.3945Z" fill="#105A91"/>
<path d="M57.0332 78.3553L60.6703 73.1427C61.0064 72.6585 61.6635 72.4779 62.2053 72.7137L63.2086 73.1502L71.7318 72.9646L69.7327 85.5497C69.7327 85.5497 62.707 86.4929 57.0884 79.9257C56.7072 79.4817 56.6921 78.8445 57.0332 78.3553Z" fill="#EA8021"/>
<path d="M62.6843 76.1002L62.4134 76.1052C62.1074 76.1128 61.819 76.2583 61.6384 76.4966L58.6661 80.4474C58.5733 80.5703 58.5131 80.7158 58.493 80.8638L58.4303 81.3304" stroke="#F2B283" stroke-width="0.410481" stroke-miterlimit="10" stroke-linecap="round"/>
<path d="M58.6261 77.357C59.1403 77.3444 59.5591 76.9405 59.5591 76.4539C59.5591 76.0676 59.2958 75.749 58.9296 75.6386L57.9313 77.071C58.0993 77.2516 58.3476 77.362 58.6261 77.357Z" fill="white"/>
<path d="M83.7289 16.1196L96.8246 15.4498L89.7412 22.6893L88.4896 23.7856L86.2472 21.9318L83.7289 16.1196Z" fill="#CC630D"/>
<path d="M90.2855 18.3697L90.3482 12.9764C90.3482 12.9764 93.9576 11.6294 94.0103 7.61078C94.063 3.57963 87.8675 4.15658 87.6217 7.95444" stroke="#CC630D" stroke-width="0.820962" stroke-miterlimit="10" stroke-linecap="round"/>
<path d="M92.6935 16.0468C92.6985 15.7258 91.6977 15.4699 90.4586 15.4749C89.2195 15.4799 88.2087 15.7433 88.2061 16.0644L88.1811 18.3221L83.7013 19.1022L83.6561 23.8182L96.7092 23.7329L96.7845 18.4124L92.6057 17.8429L92.6935 16.0468Z" fill="#E1E8EF"/>
<path d="M110.512 89.0716L109.183 29.0584L99.2451 18.761L93.5588 18.7886L89.7438 22.6893L88.4921 23.7855L86.2497 21.9318L84.9053 18.8338L81.9505 18.8488L71.5161 22.5062C68.9476 23.4068 67.1818 25.7196 67.0664 28.346C66.8156 34.0177 66.6275 44.4907 67.8164 55.656C69.5621 72.0565 68.4861 88.7004 68.4861 88.7004C68.4861 88.7004 74.9474 92.6688 84.0725 92.6011C84.0725 92.6011 85.9989 87.9528 85.6528 83.0688C85.6528 83.0688 87.9428 90.9003 89.2973 93.1103C89.2948 93.1103 103.65 91.0282 110.512 89.0716Z" fill="#F2B283"/>
<path d="M67.6357 40.0682C67.6357 40.0682 66.4895 64.0695 62.0047 74.0758C61.9093 74.2916 61.8993 74.5274 61.9821 74.7431C62.4461 75.9221 64.3424 79.6999 69.7527 80.3722L69.9408 40.0431L67.6357 40.0682Z" fill="#F2B283"/>
<path d="M88.4896 23.7856C88.4896 23.7856 83.8167 36.0496 85.0934 56.3032C86.35 76.2507 85.6502 83.0688 85.6502 83.0688" stroke="#CC630D" stroke-width="0.615721" stroke-miterlimit="10" stroke-linecap="round" stroke-linejoin="round"/>
<path d="M91.1759 27.2724C91.181 26.7732 90.7696 26.3718 90.2579 26.3768C89.7437 26.3818 89.3223 26.7882 89.3173 27.2874C89.3123 27.7866 89.7236 28.188 90.2378 28.1829C90.747 28.1779 91.1684 27.7715 91.1759 27.2724Z" fill="white"/>
<path d="M90.3181 33.8597C90.3231 33.363 89.9143 32.9641 89.4001 32.9691C88.8884 32.9742 88.467 33.3805 88.462 33.8772C88.4569 34.3739 88.8683 34.7728 89.38 34.7677C89.8917 34.7627 90.3106 34.3563 90.3181 33.8597Z" fill="white"/>
<path d="M89.543 39.8148C89.548 39.3207 89.1392 38.9243 88.6275 38.9293C88.1158 38.9344 87.6969 39.3407 87.6894 39.8374C87.6844 40.3316 88.0957 40.7279 88.6074 40.7229C89.1191 40.7129 89.538 40.309 89.543 39.8148Z" fill="white"/>
<path d="M89.4677 46.372C89.4727 45.8804 89.0639 45.4865 88.5522 45.4916C88.0405 45.4991 87.6216 45.903 87.6166 46.3971C87.6116 46.8888 88.0205 47.2826 88.5321 47.2751C89.0438 47.2676 89.4627 46.8637 89.4677 46.372Z" fill="white"/>
<path d="M89.7261 52.7336C89.7312 52.2444 89.3248 51.8531 88.8131 51.8606C88.3039 51.8681 87.8851 52.272 87.8801 52.7637C87.875 53.2528 88.2839 53.6442 88.7931 53.6366C89.3048 53.6266 89.7211 53.2227 89.7261 52.7336Z" fill="white"/>
<path d="M89.9368 59.1077C89.9418 58.621 89.5355 58.2322 89.0263 58.2397C88.5171 58.2498 88.1008 58.6511 88.0957 59.1403C88.0907 59.6294 88.4971 60.0157 89.0063 60.0082C89.5154 59.9982 89.9318 59.5943 89.9368 59.1077Z" fill="white"/>
<path d="M90.1575 65.9508C90.1625 65.4642 89.7562 65.0804 89.2495 65.0904C88.7429 65.1005 88.3265 65.5018 88.3215 65.9885C88.3164 66.4751 88.7228 66.8589 89.2295 66.8489C89.7386 66.8363 90.1525 66.435 90.1575 65.9508Z" fill="white"/>
<path d="M90.278 72.508C90.283 72.0239 89.8792 71.6426 89.3725 71.6526C88.8658 71.6627 88.452 72.064 88.4469 72.5482C88.4419 73.0323 88.8483 73.4136 89.3524 73.4036C89.8591 73.391 90.273 72.9897 90.278 72.508Z" fill="white"/>
<path d="M90.1976 79.4089C90.2027 78.9273 89.7988 78.5485 89.2947 78.561C88.7905 78.5736 88.3766 78.9724 88.3716 79.4541C88.3666 79.9357 88.7704 80.3145 89.2746 80.3019C89.7763 80.2869 90.1901 79.888 90.1976 79.4089Z" fill="white"/>
<path d="M83.4229 25.1326L86.794 21.3122C86.9621 21.1215 86.9796 20.8481 86.8392 20.6449L83.7264 16.1221L79.4247 19.481C79.4247 19.481 80.596 22.5765 82.7406 25.1301C82.9162 25.3333 83.2423 25.3383 83.4229 25.1326Z" fill="#EA8021"/>
<path d="M67.8138 55.656C67.5003 52.7235 67.2846 49.8388 67.1391 47.0744C66.9961 48.7175 66.8155 50.5662 66.5973 52.5204C66.6876 53.594 66.7904 54.6752 66.9083 55.7638C67.8564 64.6364 67.9718 73.6444 67.879 79.9808C68.1675 80.0661 68.4685 80.1439 68.782 80.2091C68.8823 73.8551 68.7795 64.7217 67.8138 55.656Z" fill="#CC630D"/>
<path d="M104.876 39.7622C105.069 41.2096 105.937 48.0577 106.246 56.7672C106.594 66.5654 108.333 85.2938 108.35 85.4795C108.38 85.8131 108.576 86.1041 108.877 86.2621C109.045 86.3524 109.233 86.3951 109.424 86.3901C109.574 86.385 109.725 86.3524 109.868 86.2897L110.442 86.0338L110.417 84.9075L109.444 85.339C109.444 85.339 107.703 66.5704 107.354 56.692C107.006 46.7408 105.945 39.3006 105.945 39.3006L104.876 39.7622Z" fill="#CC630D"/>
<path d="M99.2451 18.761L113.643 23.8056C114.791 24.2095 115.709 25.0548 116.188 26.1511L119.617 34.0277C119.913 34.705 120.064 35.4375 120.064 36.1825C120.064 42.3459 120.154 71.7354 121.88 79.8278L109.446 85.339C109.446 85.339 107.705 66.5704 107.357 56.692C107.008 46.7408 105.947 39.3006 105.947 39.3006L93.767 24.2245L99.2451 18.761Z" fill="#F2B283"/>
<path d="M96.1899 20.0454L111.408 25.7322C112.228 26.0382 112.89 26.6402 113.259 27.4154L116.622 34.4617C116.991 35.2368 117.174 36.0872 117.152 36.9501C117.024 42.2631 116.627 62.6823 117.611 80.5277" stroke="#E8A272" stroke-width="0.410481" stroke-miterlimit="10" stroke-linecap="round" stroke-linejoin="round" stroke-dasharray="1.03 1.03"/>
<path d="M89.3123 21.0337L96.8246 15.4473L101.274 19.1172L93.1951 26.4772C92.7712 26.8635 92.0915 26.7707 91.8156 26.284C91.1108 25.0498 89.8892 22.9151 89.1668 21.7261C89.0289 21.4953 89.0916 21.1993 89.3123 21.0337Z" fill="#EA8021"/>
<path d="M108.531 84.0772C110.57 82.7226 116.384 79.1154 122.1 77.9741C122.86 77.8235 123.57 78.3002 123.691 79.0251L124.998 86.9168L110.041 93.1755L107.984 85.4243C107.853 84.9226 108.072 84.3808 108.531 84.0772Z" fill="#EA8021"/>
<path d="M110.021 93.1203C110.296 93.7901 113.868 92.9447 117.992 91.239C122.11 89.5357 125.228 87.6117 124.96 86.9444C124.689 86.2747 121.132 87.1125 117.006 88.8158C112.875 90.524 109.745 92.4531 110.021 93.1203Z" fill="#EA8021"/>
<path d="M117.706 84.2001C117.716 83.7486 117.342 83.3949 116.873 83.4049C116.404 83.4175 116.015 83.7912 116.005 84.2428C115.995 84.6943 116.369 85.048 116.838 85.038C117.31 85.0254 117.696 84.6517 117.706 84.2001Z" fill="white"/>
<path d="M117.831 79.3061C118.338 79.5394 118.702 79.9834 118.82 80.5152L120.056 86.1141C120.119 86.4001 120.071 86.7011 119.918 86.9645L118.772 89.0792" stroke="#F2B283" stroke-width="0.410481" stroke-miterlimit="10" stroke-linecap="round"/>
<path d="M111.403 92.5509C111.578 92.9799 114.453 92.1997 117.819 90.8075C121.18 89.4178 123.761 87.9428 123.588 87.5138C123.415 87.0849 120.548 87.86 117.184 89.2522C113.816 90.6419 111.225 92.1194 111.403 92.5509Z" fill="#CC630D"/>
<path d="M69.966 34.8856C69.966 34.8856 75.5494 35.7586 79.8034 36.032L79.7232 45.8854C79.7131 47.2199 78.5016 48.2785 77.1196 48.1581L72.0102 47.7141C70.8138 47.6112 69.9108 46.6555 69.9158 45.4991L69.966 34.8856Z" stroke="#E8A272" stroke-width="0.410481" stroke-miterlimit="10"/>
<path d="M69.9584 36.7469C69.9584 36.7469 70.1741 36.8071 70.5629 36.905" stroke="#E8A272" stroke-width="0.410481" stroke-linecap="round" stroke-linejoin="round"/>
<path d="M71.7744 37.1884C73.3822 37.5396 75.878 37.9937 78.5367 38.1366" stroke="#E8A272" stroke-width="0.410481" stroke-linecap="round" stroke-linejoin="round" stroke-dasharray="1.02 1.02"/>
<path d="M79.1587 38.1642C79.3669 38.1718 79.5776 38.1768 79.7858 38.1793" stroke="#E8A272" stroke-width="0.410481" stroke-linecap="round" stroke-linejoin="round"/>
<path d="M74.5811 17.4516V11.9128C74.5811 11.9128 78.1855 10.5407 78.1855 6.42425C78.1855 2.30781 72.0051 2.8973 71.7994 6.77042" stroke="#CC630D" stroke-width="0.820962" stroke-miterlimit="10" stroke-linecap="round"/>
<path d="M83.6385 18.9717L100.203 24.9695L105.182 36.1499C105.182 36.1499 105.32 70.1425 107.525 80.2894C107.55 80.3997 107.492 80.5101 107.389 80.5553L94.991 86.0037C94.8455 86.0689 94.6775 85.9711 94.6599 85.8131C94.3815 83.1817 93.0496 68.6725 92.5479 58.8819C92.0062 48.3111 90.7871 40.452 90.7871 40.452L78.1855 24.5958L83.6385 18.9717Z" fill="#EA8021"/>
<path d="M66.2612 18.9717L51.7282 24.1543C51.7282 24.1543 50.5092 39.7044 52.3378 57.0858C54.1663 74.4647 53.1504 92.2524 53.1504 92.2524C53.1504 92.2524 59.7572 96.725 69.1056 96.9282C69.1056 96.9282 71.037 91.9489 70.6306 86.6635C70.6306 86.6635 73.0687 95.1999 74.4934 97.6406C74.4934 97.6406 91.8732 96.552 98.9867 94.6204L93.9049 29.7457L83.6411 18.9717H66.2612Z" fill="#EA8021"/>
<path d="M90.2404 40.6878C90.5163 40.5674 90.8323 40.743 90.875 41.0415C91.1634 43.0583 92.094 50.0144 92.548 58.8794C93.0496 68.6675 94.3815 83.1767 94.66 85.8106L93.7495 85.9059C93.4986 83.5228 92.1442 68.8958 91.6325 58.927C91.1835 50.1473 90.2504 43.1737 89.967 41.1719C89.9394 40.9687 90.0497 40.7706 90.2404 40.6878Z" fill="#CC630D"/>
<path d="M68.0145 16.1748L81.1504 15.5401L73.8287 21.9819L72.8655 24.1041L71.1198 21.1692L68.0145 16.1748Z" fill="#CC630D"/>
<path d="M78.6045 18.2292L76.9315 17.9884L76.9992 16.1371C76.9992 15.8085 75.9909 15.5401 74.7468 15.5401C73.5027 15.5401 72.4943 15.8085 72.4943 16.1371V18.4625L69.2411 19.0294L71.0496 21.0011L72.8656 24.1041L73.9215 21.8239L78.6045 18.2292Z" fill="#E1E8EF"/>
<path d="M80.7164 20.0629L96.2527 26.0708C97.0955 26.3969 97.7828 27.0315 98.1791 27.8443L101.773 35.2619C102.17 36.0797 102.375 36.9777 102.373 37.8883C102.358 43.4948 102.398 65.2434 103.82 84.5463" stroke="#E8A272" stroke-width="0.410481" stroke-miterlimit="10" stroke-linecap="round" stroke-linejoin="round" stroke-dasharray="1.03 1.03"/>
<path d="M54.5475 35.2167C54.5475 35.2167 60.1334 36.1825 64.4025 36.5111V46.7985C64.4025 48.1982 63.191 49.2894 61.7989 49.1439L56.662 48.6046C55.4605 48.4792 54.55 47.4657 54.55 46.2591V35.2167H54.5475Z" stroke="#E8A272" stroke-width="0.410481" stroke-miterlimit="10"/>
<path d="M54.5475 37.1458C54.5475 37.1458 54.7632 37.211 55.1495 37.3164" stroke="#E8A272" stroke-width="0.410481" stroke-linecap="round" stroke-linejoin="round"/>
<path d="M56.361 37.6224C57.9713 38.0062 60.477 38.5079 63.1484 38.686" stroke="#E8A272" stroke-width="0.410481" stroke-linecap="round" stroke-linejoin="round" stroke-dasharray="1.02 1.02"/>
<path d="M63.7729 38.7236C63.9811 38.7337 64.1918 38.7412 64.4 38.7462" stroke="#E8A272" stroke-width="0.410481" stroke-linecap="round" stroke-linejoin="round"/>
<path d="M93.8623 84.6341C96.047 83.1716 101.751 79.6397 107.482 78.5134C108.415 78.3302 109.318 78.9473 109.489 79.883L110.986 88.1134C111.006 88.2237 110.946 88.3316 110.843 88.3742L95.7209 94.6028C95.588 94.658 95.44 94.5828 95.4024 94.4448L93.2202 86.3474C93.0446 85.6977 93.3055 85.0104 93.8623 84.6341Z" fill="#F2B283"/>
<path d="M103.766 92.8275C108.055 91.0839 111.288 89.07 110.987 88.3295C110.686 87.5889 106.965 88.4021 102.676 90.1458C98.3873 91.8895 95.1545 93.9033 95.4556 94.6438C95.7566 95.3844 99.4774 94.5712 103.766 92.8275Z" fill="#F2B283"/>
<path d="M102.41 86.0138C102.902 86.0138 103.301 85.6151 103.301 85.1232C103.301 84.6314 102.902 84.2327 102.41 84.2327C101.919 84.2327 101.52 84.6314 101.52 85.1232C101.52 85.6151 101.919 86.0138 102.41 86.0138Z" fill="white"/>
<path d="M103.218 79.7501C103.818 80.0486 104.252 80.5979 104.405 81.2501L105.787 87.1953C105.872 87.564 105.822 87.9528 105.641 88.2865L105.134 89.2246" stroke="#CC630D" stroke-width="0.410481" stroke-miterlimit="10" stroke-linecap="round" stroke-linejoin="round"/>
<path d="M103.544 92.2814C107.144 90.8179 109.918 89.2757 109.739 88.8368C109.561 88.3979 106.498 89.2284 102.898 90.6919C99.2985 92.1554 96.525 93.6976 96.7034 94.1365C96.8818 94.5755 99.9447 93.7449 103.544 92.2814Z" fill="#CC630D"/>
<path d="M67.7937 25.4587L71.1373 21.5354C71.3028 21.3398 71.3179 21.0588 71.1749 20.8456L68.0145 16.1748L63.7454 19.6039C63.7454 19.6039 64.9393 22.7972 67.109 25.4487C67.287 25.6644 67.6131 25.6719 67.7937 25.4587Z" fill="#F2B283"/>
<path d="M73.6631 21.2645L81.1503 15.5401L85.6979 19.3505L77.6388 26.9262C77.2149 27.325 76.5301 27.2222 76.2442 26.7155C75.5193 25.4311 74.2626 23.2136 73.5252 21.9769C73.3822 21.7411 73.4424 21.4351 73.6631 21.2645Z" fill="#F2B283"/>
<path d="M60.9235 16.4256V10.8869C60.9235 10.8869 64.5279 9.51471 64.5279 5.39828C64.5279 1.28184 58.3475 1.87133 58.1418 5.74445" stroke="#CC630D" stroke-width="0.820962" stroke-miterlimit="10" stroke-linecap="round"/>
<path d="M69.9835 18.9717L85.0031 24.4102C85.9913 24.7664 86.789 25.5114 87.2179 26.4696L91.0656 35.1089C91.3666 35.7862 91.492 36.5312 91.4243 37.2687C90.88 43.2239 88.477 71.2011 90.441 80.2467C90.4661 80.3571 90.4084 80.4675 90.3056 80.5126L77.9072 85.9611C77.7617 86.0263 77.5936 85.931 77.5761 85.7704C77.2977 83.1415 76.5828 69.7813 76.0811 59.9932C75.5394 49.4224 77.1321 40.4495 77.1321 40.4495L64.5305 24.5933L69.9835 18.9717Z" fill="#105A91"/>
<path d="M52.6036 18.9717L38.0707 24.1543C38.0707 24.1543 36.8516 39.7045 38.6802 57.0858C40.5087 74.4672 39.4928 92.2524 39.4928 92.2524C39.4928 92.2524 46.0997 96.725 55.448 96.9282C55.448 96.9282 57.3794 91.9489 56.973 86.6635C56.973 86.6635 59.4111 95.1999 60.8358 97.6406C60.8358 97.6406 78.2156 96.552 85.3291 94.6204L80.2473 29.7457L69.9835 18.9717H52.6036Z" fill="#105A91"/>
<path d="M77.5735 85.7729C77.2951 83.144 76.5802 69.7838 76.0786 59.9957C75.6246 51.1532 76.6655 43.4271 77.0167 41.1368C77.0668 40.8132 76.7683 40.5448 76.4498 40.6276C76.2717 40.6727 76.1413 40.8182 76.1137 40.9988C75.7575 43.3393 74.709 51.1808 75.1655 60.0408C75.5995 68.4919 76.3695 83.0838 76.663 85.8683L77.5735 85.7729Z" fill="#0B2E44"/>
<path d="M54.3569 16.1748L67.4928 15.5401L60.1009 21.8214L59.2104 24.1041L57.2038 21.2194L54.3569 16.1748Z" fill="#5FA6F6"/>
<path d="M64.9469 18.2292L63.2739 17.9884L63.3416 16.1371C63.3416 15.8085 62.3333 15.5401 61.0892 15.5401C59.8451 15.5401 58.8367 15.8085 58.8367 16.1371V18.4625L55.5835 19.0294L57.3293 21.3573L59.208 24.1041L60.0984 21.8239L64.9469 18.2292Z" fill="#E1E8EF"/>
<path d="M64.5781 21.8214L81.5943 26.427C83.32 26.8936 84.7171 28.1629 85.3467 29.836L86.5531 33.0369C87.2931 34.9985 87.5389 37.1132 87.2655 39.1927C86.2898 46.6153 84.1903 66.2819 86.212 86.0213" stroke="#0B2E44" stroke-width="0.410481" stroke-miterlimit="10" stroke-linecap="round" stroke-linejoin="round" stroke-dasharray="1.03 1.03"/>
<path d="M38.4067 36.9752C38.4067 36.9752 43.9927 37.941 48.2618 38.2696V48.5569C48.2618 49.9567 47.0503 51.0479 45.6582 50.9024L40.5212 50.363C39.3198 50.2376 38.4092 49.2242 38.4092 48.0176V36.9752H38.4067Z" stroke="#0B2E44" stroke-width="0.410481" stroke-miterlimit="10" stroke-linecap="round" stroke-linejoin="round"/>
<path d="M38.4067 38.9067C38.4067 38.9067 43.2477 40.3792 48.2618 40.5072" stroke="#0B2E44" stroke-width="0.410481" stroke-miterlimit="10" stroke-linecap="round" stroke-linejoin="round" stroke-dasharray="1.03 1.03"/>
<path d="M53.8 25.2956C53.7775 25.2956 53.7348 25.2906 53.6997 25.248C51.9063 23.0581 50.7776 20.4593 50.4716 19.7067L54.2866 16.6413L57.2539 21.0262C57.3166 21.119 57.3091 21.2444 57.2364 21.3297L53.8928 25.253C53.8627 25.2906 53.8201 25.2956 53.8 25.2956Z" fill="white"/>
<path d="M54.2164 17.1079L56.9604 21.1642L53.8025 24.8667C52.2624 22.9276 51.2441 20.7151 50.8578 19.8046L54.2164 17.1079ZM54.3569 16.1748L50.0878 19.6039C50.0878 19.6039 51.2817 22.7972 53.4514 25.4487C53.5417 25.559 53.6696 25.6142 53.7975 25.6142C53.9229 25.6142 54.0458 25.5616 54.1336 25.4587L57.4771 21.5354C57.6427 21.3398 57.6577 21.0588 57.5148 20.8456L54.3569 16.1748Z" fill="#5FA6F6"/>
<path d="M63.3692 26.8534C63.1585 26.8534 62.9704 26.7431 62.8675 26.5599C62.1677 25.3207 60.886 23.0581 60.1435 21.8164C60.0833 21.7185 60.1084 21.5906 60.2012 21.5204L67.4853 15.9515L71.5612 19.3681L63.7655 26.6979C63.6551 26.7957 63.5147 26.8534 63.3692 26.8534Z" fill="white"/>
<path d="M67.4752 16.3579L71.0796 19.3806L63.5447 26.4646C63.482 26.5223 63.4143 26.5349 63.3666 26.5349C63.3315 26.5349 63.2111 26.5248 63.1409 26.4044C62.4561 25.1903 61.2095 22.9878 60.4545 21.7236L67.4752 16.3579ZM67.4927 15.5401L60.0055 21.2645C59.7848 21.4326 59.7271 21.7386 59.8676 21.9769C60.605 23.2111 61.8617 25.4286 62.5866 26.7155C62.7546 27.0115 63.0581 27.172 63.3666 27.172C63.5848 27.172 63.8056 27.0917 63.9812 26.9287L72.0402 19.353L67.4927 15.5401Z" fill="#5FA6F6"/>
<path d="M76.7759 84.5965C78.9606 83.134 84.6644 79.602 90.3959 78.4757C91.3289 78.2926 92.2319 78.9097 92.4025 79.8454L93.8999 88.0757C93.92 88.1861 93.8598 88.294 93.7569 88.3366L78.6345 94.5652C78.5016 94.6204 78.3536 94.5451 78.316 94.4072L76.1338 86.3098C75.9582 85.6576 76.2166 84.9702 76.7759 84.5965Z" fill="white" stroke="#5FA6F6" stroke-width="0.522111" stroke-miterlimit="10" stroke-linecap="round" stroke-linejoin="round"/>
<path d="M85.324 85.9761C85.8158 85.9761 86.2145 85.5774 86.2145 85.0856C86.2145 84.5938 85.8158 84.1951 85.324 84.1951C84.8323 84.1951 84.4336 84.5938 84.4336 85.0856C84.4336 85.5774 84.8323 85.9761 85.324 85.9761Z" fill="#EA8021"/>
<path d="M86.1293 79.7124C86.7288 80.0109 87.1627 80.5603 87.3157 81.2125L88.6977 87.1576C88.783 87.5264 88.7329 87.9152 88.5523 88.2488L88.0456 89.187" fill="white"/>
<path d="M86.1293 79.7124C86.7288 80.0109 87.1627 80.5603 87.3157 81.2125L88.6977 87.1576C88.783 87.5264 88.7329 87.9152 88.5523 88.2488L88.0456 89.187" stroke="#5FA6F6" stroke-width="0.522111" stroke-miterlimit="10" stroke-linecap="round" stroke-linejoin="round"/>
<path d="M86.6777 92.7909C90.9666 91.0472 94.1994 89.0334 93.8983 88.2928C93.5973 87.5523 89.8765 88.3655 85.5876 90.1091C81.2987 91.8528 78.0659 93.8667 78.3669 94.6072C78.668 95.3477 82.3888 94.5345 86.6777 92.7909Z" fill="white" stroke="#5FA6F6" stroke-width="0.522111" stroke-miterlimit="10" stroke-linecap="round" stroke-linejoin="round"/>
<path d="M45.7409 15.3269V9.78815C45.7409 9.78815 49.3453 8.41601 49.3453 4.29957C49.3453 0.183126 43.1649 0.772623 42.9592 4.64574" stroke="#CC630D" stroke-width="0.820962" stroke-miterlimit="10" stroke-linecap="round"/>
<path d="M54.7983 18.5252L68.8246 23.6024C70.4474 24.1894 71.7592 25.4111 72.4616 26.9889L75.4088 33.6038C76.0208 34.9759 76.2892 36.476 76.1939 37.9761C75.637 46.643 73.8311 77.5601 75.7198 86.2546C75.7449 86.365 75.6872 86.4753 75.5844 86.5205L63.1859 91.9689C63.0405 92.0342 62.8724 91.9363 62.8549 91.7783C62.5764 89.1469 61.4 69.3373 60.8984 59.5492C60.3566 48.9784 61.9494 40.0055 61.9494 40.0055L49.3478 24.1493L54.7983 18.5252Z" fill="#7DB8FB"/>
<path d="M37.4184 18.5252L22.8855 23.7078C22.8855 23.7078 21.6665 39.2579 23.495 56.6393C25.3235 74.0182 24.3077 91.8059 24.3077 91.8059C24.3077 91.8059 30.9145 96.2785 40.2628 96.4817C40.2628 96.4817 42.1942 91.5024 41.7879 86.217C41.7879 86.217 44.2259 94.7534 45.6506 97.1941C45.6506 97.1941 63.0305 96.1055 70.1439 94.1739L65.0622 29.2992L54.7983 18.5252H37.4184Z" fill="#7DB8FB"/>
<path d="M38.9509 25.0147L42.2945 21.0914C42.46 20.8958 42.4751 20.6148 42.3321 20.4016L39.1717 15.7308L34.9026 19.1599C34.9026 19.1599 36.0965 22.3532 38.2662 25.0047C38.4443 25.2204 38.7704 25.2254 38.9509 25.0147Z" fill="#1773C6"/>
<path d="M44.8204 20.8205L52.3076 15.0961L56.8551 18.9065L48.796 26.4822C48.3721 26.881 47.6873 26.7782 47.4014 26.2715C46.6765 24.9871 45.4198 22.7696 44.6824 21.5329C44.5419 21.2946 44.5996 20.9886 44.8204 20.8205Z" fill="#1773C6"/>
<path d="M39.1718 15.7308L52.3076 15.0961L45.2719 22.5338L44.0253 23.6576L41.7528 21.7261L39.1718 15.7308Z" fill="#105A91"/>
<path d="M49.7641 17.7852L48.0911 17.5444L48.1589 15.6931C48.1589 15.3645 47.1505 15.0961 45.9064 15.0961C44.6623 15.0961 43.654 15.3645 43.654 15.6931V18.0185L40.4008 18.5854L41.7552 21.7311L44.0277 23.6626L45.2743 22.5388L49.7641 17.7852Z" fill="#E1E8EF"/>
<path d="M62.0547 90.6018C64.2394 89.1394 69.9432 85.6074 75.6747 84.4811C76.6077 84.298 77.5107 84.915 77.6813 85.8507L79.1787 94.0811C79.1988 94.1915 79.1386 94.2993 79.0357 94.342L63.9133 100.571C63.7804 100.626 63.6324 100.55 63.5948 100.413L61.4126 92.3151C61.237 91.6629 61.4954 90.9756 62.0547 90.6018Z" fill="#1773C6"/>
<path d="M71.9561 98.7963C76.245 97.0526 79.4778 95.0388 79.1768 94.2982C78.8758 93.5577 75.1549 94.3709 70.866 96.1145C66.5772 97.8582 63.3444 99.872 63.6454 100.613C63.9464 101.353 67.6672 100.54 71.9561 98.7963Z" fill="#1773C6"/>
<path d="M70.6004 91.9815C71.0922 91.9815 71.4908 91.5828 71.4908 91.091C71.4908 90.5992 71.0922 90.2004 70.6004 90.2004C70.1086 90.2004 69.71 90.5992 69.71 91.091C69.71 91.5828 70.1086 91.9815 70.6004 91.9815Z" fill="white"/>
<path d="M71.0519 85.4544L71.4081 85.7178C72.0075 86.0163 72.4415 86.5656 72.5945 87.2178L73.9765 93.163C74.0618 93.5317 74.0117 93.9205 73.8311 94.2542L72.8905 95.8797" stroke="#7DB8FB" stroke-width="0.410481" stroke-miterlimit="10" stroke-linecap="round" stroke-linejoin="round"/>
<path d="M71.8069 98.4291C75.3886 96.9729 78.115 95.3565 77.8964 94.8188C77.6778 94.281 74.597 95.0255 71.0153 96.4817C67.4335 97.9379 64.7071 99.5543 64.9257 100.092C65.1443 100.63 68.2251 99.8853 71.8069 98.4291Z" fill="#105A91"/>
<path d="M50.2507 21.0011L65.787 27.009C66.6298 27.3351 67.3171 27.9697 67.7134 28.7825L71.3077 36.2001C71.704 37.0179 71.9097 37.9159 71.9072 38.8265C71.8922 44.433 71.9323 66.1816 73.3545 85.4845" stroke="#1773C6" stroke-width="0.410481" stroke-miterlimit="10" stroke-linecap="round" stroke-dasharray="1.03 1.03"/>
<path d="M24.0795 36.1524C24.0795 36.1524 29.6654 37.1182 33.9345 37.4468V47.7341C33.9345 49.1339 32.723 50.2251 31.3309 50.0796L26.1939 49.5403C24.9925 49.4148 24.082 48.4014 24.082 47.1948V36.1524H24.0795Z" stroke="#E8A272" stroke-width="0.410481" stroke-miterlimit="10"/>
<path d="M24.0795 38.084C24.0795 38.084 24.2952 38.1492 24.6815 38.2545" stroke="#E8A272" stroke-width="0.410481" stroke-linecap="round" stroke-linejoin="round"/>
<path d="M25.8955 38.5606C27.5058 38.9444 30.0116 39.4461 32.6829 39.6242" stroke="#E8A272" stroke-width="0.410481" stroke-linecap="round" stroke-linejoin="round" stroke-dasharray="1.02 1.02"/>
<path d="M33.3074 39.6618C33.5156 39.6718 33.7263 39.6794 33.9344 39.6844" stroke="#E8A272" stroke-width="0.410481" stroke-linecap="round" stroke-linejoin="round"/>
<path d="M0.245794 78.7993L3.90035 73.3434C4.23897 72.8392 4.89614 72.6586 5.44545 72.9245L6.45629 73.4111H15.0597L13.0957 86.8265C13.0957 86.8265 5.97721 87.6468 0.303485 80.4725C-0.0827898 79.9909 -0.0978395 79.3111 0.245794 78.7993Z" fill="#EA8021"/>
<path d="M5.92951 76.5367H5.65611C5.34759 76.5367 5.05663 76.6847 4.87604 76.9355L1.88868 81.072C1.79587 81.2025 1.73567 81.353 1.7131 81.5135L1.65039 82.0102" stroke="#F2B283" stroke-width="0.410481" stroke-miterlimit="10" stroke-linecap="round"/>
<path d="M1.84605 77.7759C2.36275 77.7759 2.78415 77.357 2.78415 76.8377C2.78415 76.4263 2.51827 76.0801 2.14955 75.9547L1.14624 77.4523C1.3168 77.6479 1.56763 77.7759 1.84605 77.7759Z" fill="white"/>
<path d="M26.7031 14.1053L39.839 13.4706L32.8007 20.9083L31.5566 22.0321L29.2841 20.1031L26.7031 14.1053Z" fill="#CC630D"/>
<path d="M33.2697 14.3636V8.82238C33.2697 8.82238 36.8741 7.45024 36.8741 3.3338C36.8741 -0.78264 30.6937 -0.193144 30.488 3.67997" stroke="#CC630D" stroke-width="0.820962" stroke-miterlimit="10" stroke-linecap="round"/>
<path d="M35.6878 14.0676C35.6878 13.739 34.6794 13.4706 33.4353 13.4706C32.1912 13.4706 31.1829 13.739 31.1829 14.0676V16.393L26.7031 17.1732V22.0346H39.839V16.5285L35.6226 15.9189L35.6878 14.0676Z" fill="#E1E8EF"/>
<path d="M55.1345 91.8084L52.5936 27.6762L42.3297 16.9022H36.5958L32.8033 20.9108L31.5567 22.0346L29.2842 20.1031L27.9071 16.9022H24.9499L14.5731 20.6023C12.0247 21.5103 10.2815 23.8759 10.1761 26.58C9.94534 32.4348 9.79484 43.3092 11.0264 55.0138C12.8549 72.3952 11.8391 90.1804 11.8391 90.1804C11.8391 90.1804 18.4459 94.653 27.7942 94.8562C27.7942 94.8562 29.7256 89.8768 29.3193 84.5915C29.3193 84.5915 31.7573 93.1279 33.182 95.5686C33.182 95.5686 48.0185 93.7374 55.1345 91.8084Z" fill="#F2B283"/>
<path d="M10.7881 38.7186C10.7881 38.7186 9.72709 63.8562 5.24229 74.3643C5.14697 74.5901 5.13694 74.8409 5.22222 75.0717C5.69127 76.336 7.61261 80.4123 13.0932 81.2702V38.7186H10.7881Z" fill="#F2B283"/>
<path d="M31.5566 22.0321C31.5566 22.0321 26.984 34.7226 28.4739 55.9971C29.9638 77.2717 29.3217 84.5915 29.3217 84.5915" stroke="#CC630D" stroke-width="0.615721" stroke-miterlimit="10" stroke-linecap="round" stroke-linejoin="round"/>
<path d="M33.3625 26.6026C33.8806 26.6026 34.3006 26.1826 34.3006 25.6644C34.3006 25.1463 33.8806 24.7262 33.3625 24.7262C32.8444 24.7262 32.4244 25.1463 32.4244 25.6644C32.4244 26.1826 32.8444 26.6026 33.3625 26.6026Z" fill="white"/>
<path d="M32.5749 33.4483C33.093 33.4483 33.513 33.0282 33.513 32.5101C33.513 31.992 33.093 31.5719 32.5749 31.5719C32.0568 31.5719 31.6368 31.992 31.6368 32.5101C31.6368 33.0282 32.0568 33.4483 32.5749 33.4483Z" fill="white"/>
<path d="M31.8651 39.6568C32.3832 39.6568 32.8032 39.2368 32.8032 38.7186C32.8032 38.2005 32.3832 37.7804 31.8651 37.7804C31.347 37.7804 30.927 38.2005 30.927 38.7186C30.927 39.2368 31.347 39.6568 31.8651 39.6568Z" fill="white"/>
<path d="M31.8651 46.5351C32.3832 46.5351 32.8032 46.1151 32.8032 45.5969C32.8032 45.0788 32.3832 44.6587 31.8651 44.6587C31.347 44.6587 30.927 45.0788 30.927 45.5969C30.927 46.1151 31.347 46.5351 31.8651 46.5351Z" fill="white"/>
<path d="M32.2037 53.2428C32.7218 53.2428 33.1418 52.8228 33.1418 52.3046C33.1418 51.7865 32.7218 51.3665 32.2037 51.3665C31.6856 51.3665 31.2656 51.7865 31.2656 52.3046C31.2656 52.8228 31.6856 53.2428 32.2037 53.2428Z" fill="white"/>
<path d="M32.4922 59.9957C33.0103 59.9957 33.4303 59.5756 33.4303 59.0575C33.4303 58.5394 33.0103 58.1193 32.4922 58.1193C31.9741 58.1193 31.5541 58.5394 31.5541 59.0575C31.5541 59.5756 31.9741 59.9957 32.4922 59.9957Z" fill="white"/>
<path d="M32.8008 67.2803C33.3189 67.2803 33.7389 66.8603 33.7389 66.3422C33.7389 65.824 33.3189 65.404 32.8008 65.404C32.2827 65.404 31.8627 65.824 31.8627 66.3422C31.8627 66.8603 32.2827 67.2803 32.8008 67.2803Z" fill="white"/>
<path d="M33.0039 74.2941C33.522 74.2941 33.942 73.8741 33.942 73.3559C33.942 72.8378 33.522 72.4177 33.0039 72.4177C32.4858 72.4177 32.0658 72.8378 32.0658 73.3559C32.0658 73.8741 32.4858 74.2941 33.0039 74.2941Z" fill="white"/>
<path d="M33.0039 81.7042C33.522 81.7042 33.942 81.2841 33.942 80.766C33.942 80.2479 33.522 79.8278 33.0039 79.8278C32.4858 79.8278 32.0658 80.2479 32.0658 80.766C32.0658 81.2841 32.4858 81.7042 33.0039 81.7042Z" fill="white"/>
<path d="M26.4823 23.3892L29.8259 19.4659C29.9914 19.2703 30.0064 18.9893 29.8635 18.7761L26.703 14.1053L22.434 17.5369C22.434 17.5369 23.6279 20.7302 25.7976 23.3817C25.9756 23.5949 26.3017 23.5999 26.4823 23.3892Z" fill="#EA8021"/>
<path d="M11.0263 55.0138C10.7027 51.9283 10.4745 48.9031 10.3165 46.0108C10.1785 47.7266 10.0054 49.6582 9.79224 51.7001C9.88755 52.8264 9.99541 53.9652 10.1158 55.1091C11.1016 64.4809 11.2546 74.0457 11.1868 80.8036C11.4778 80.904 11.7838 80.9918 12.1024 81.072C12.1776 74.2941 12.0346 64.5937 11.0263 55.0138Z" fill="#CC630D"/>
<path d="M48.7909 38.6785C48.5552 38.7813 48.4172 39.0272 48.4523 39.2805C48.7583 41.4554 49.6563 48.3011 50.0952 56.8676C50.632 67.3481 52.7891 87.6242 52.8092 87.8274C52.8468 88.1911 53.0575 88.5122 53.3736 88.6954C53.5491 88.7982 53.7473 88.8484 53.948 88.8484C54.1035 88.8484 54.2615 88.8158 54.407 88.7505L55.0014 88.4897L54.9538 87.263L53.948 87.7045C53.948 87.7045 51.7808 67.3782 51.239 56.8074C50.7951 48.1506 49.8971 41.3099 49.5861 39.1175C49.5309 38.7462 49.1371 38.528 48.7909 38.6785Z" fill="#CC630D"/>
<path d="M42.3272 16.8997L57.0433 22.2253C58.2247 22.6542 59.1828 23.5447 59.6945 24.6936L63.3892 32.9867C63.7077 33.7041 63.8808 34.4768 63.8984 35.2619C64.0413 41.774 64.8214 73.2255 66.8205 82.0504L53.948 87.707C53.948 87.707 51.7809 67.3807 51.2391 56.8099C50.6973 46.2391 49.4783 38.38 49.4783 38.38L36.8767 22.5238L42.3272 16.8997Z" fill="#F2B283"/>
<path d="M39.2621 18.2142L54.7984 24.222C55.6411 24.5481 56.3284 25.1828 56.7247 25.9955L60.3191 33.4132C60.7154 34.2309 60.9211 35.129 60.9185 36.0395C60.9035 41.646 60.9436 63.3947 62.3658 82.6975" stroke="#E8A272" stroke-width="0.410481" stroke-miterlimit="10" stroke-linecap="round" stroke-linejoin="round" stroke-dasharray="1.03 1.03"/>
<path d="M32.3517 19.195L39.8389 13.4706L44.3864 17.281L36.3274 24.8567C35.9035 25.2555 35.2187 25.1527 34.9328 24.646C34.2079 23.3616 32.9512 21.1441 32.2138 19.9074C32.0708 19.6691 32.131 19.3631 32.3517 19.195Z" fill="#EA8021"/>
<path d="M52.9698 86.3098C55.0667 84.8925 61.054 81.1297 67.0061 80.0385C67.7987 79.893 68.5562 80.4299 68.7017 81.2225L70.2769 89.8769L54.7281 96.281L52.4305 87.7597C52.2825 87.2103 52.4982 86.6284 52.9698 86.3098Z" fill="#EA8021"/>
<path d="M63.0161 94.4045C67.3049 92.6608 70.5377 90.647 70.2367 89.9064C69.9357 89.1659 66.2149 89.9791 61.926 91.7228C57.6371 93.4664 54.4043 95.4803 54.7053 96.2208C55.0063 96.9614 58.7272 96.1482 63.0161 94.4045Z" fill="#EA8021"/>
<path d="M61.6635 87.5916C62.1553 87.5916 62.5539 87.1929 62.5539 86.7011C62.5539 86.2093 62.1553 85.8106 61.6635 85.8106C61.1717 85.8106 60.7731 86.2093 60.7731 86.7011C60.7731 87.1929 61.1717 87.5916 61.6635 87.5916Z" fill="white"/>
<path d="M62.569 81.3756C63.1057 81.6415 63.4945 82.1331 63.63 82.7176L65.0572 88.8584C65.1299 89.172 65.0848 89.5006 64.9343 89.784L63.783 92.0643" stroke="#F2B283" stroke-width="0.410481" stroke-miterlimit="10" stroke-linecap="round"/>
<path d="M62.8215 93.9258C66.3198 92.5035 68.9989 90.9645 68.8053 90.4884C68.6118 90.0122 65.6189 90.7792 62.1206 92.2015C58.6222 93.6237 55.9432 95.1627 56.1367 95.6389C56.3303 96.115 59.3231 95.3481 62.8215 93.9258Z" fill="#CC630D"/>
<path d="M13.0931 33.368C13.0931 33.368 18.6791 34.3338 22.9482 34.6624V44.9497C22.9482 46.3495 21.7367 47.4407 20.3446 47.2952L15.2076 46.7558C14.0062 46.6304 13.0956 45.617 13.0956 44.4104V33.368H13.0931Z" stroke="#E8A272" stroke-width="0.410481" stroke-miterlimit="10"/>
<path d="M13.0931 35.297C13.0931 35.297 13.3089 35.3623 13.6951 35.4676" stroke="#E8A272" stroke-width="0.410481" stroke-linecap="round" stroke-linejoin="round"/>
<path d="M14.9066 35.7736C16.5169 36.1574 19.0227 36.6591 21.694 36.8373" stroke="#E8A272" stroke-width="0.410481" stroke-linecap="round" stroke-linejoin="round" stroke-dasharray="1.02 1.02"/>
<path d="M22.3186 36.8749C22.5268 36.8849 22.7375 36.8924 22.9457 36.8975" stroke="#E8A272" stroke-width="0.410481" stroke-linecap="round" stroke-linejoin="round"/>
<path d="M27.9021 0.52679C24.6212 0.21072 21.5636 3.04281 21.6339 6.33897V110H24.6062V6.33897C24.6062 5.53375 24.9298 4.79123 25.5192 4.24438C26.1086 3.69753 26.8787 3.43163 27.6763 3.48932L78.183 7.30725V4.32716L27.9021 0.52679Z" fill="#105A91"/>
<path d="M33.2698 8.82238C33.2698 8.82238 36.8742 7.45024 36.8742 3.3338C36.8742 1.4449 35.5724 0.546862 34.1427 0.501709" stroke="#CC630D" stroke-width="0.820962" stroke-miterlimit="10" stroke-linecap="round"/>
<path d="M45.741 9.78815C45.741 9.78815 49.3454 8.41601 49.3454 4.29957C49.3454 2.49847 48.164 1.60043 46.817 1.48002" stroke="#CC630D" stroke-width="0.820962" stroke-miterlimit="10" stroke-linecap="round"/>
</svg>
