<svg width="339" height="206" viewBox="0 0 339 206" fill="none" xmlns="http://www.w3.org/2000/svg">
<g id="07 - Employee Counter Intake_V1 1">
<path id="Path" d="M0.294776 205.997C0.294776 205.997 -5.23005 97.2061 31.5967 50.7509C68.4234 4.29573 120.393 -24.3133 168.717 28.1792C217.042 80.6717 241.504 80.6717 264.389 84.215C287.274 87.7583 319.89 85.4393 328.044 109.038C336.198 132.636 348.037 173.582 326.993 205.994H0.294776V205.997Z" fill="#DCECFF"/>
<path id="Path_2" d="M183.796 43.6385C179.037 39.0685 174.022 33.9414 168.718 28.1794C165.241 24.4029 161.745 21.0506 158.239 18.0903L69.1379 14.9194C55.5628 23.9818 42.8707 36.5292 31.5938 50.7511C6.43025 82.4986 1.04177 143.357 0.152344 178.709L185.399 164.089L183.796 43.6385Z" fill="#1773C6"/>
<path id="Path_3" d="M178.946 38.874C175.658 35.5736 172.253 32.0173 168.718 28.1792C167.348 26.6893 165.975 25.2707 164.599 23.9104L61.6593 20.325C50.892 28.7072 40.774 39.1752 31.5941 50.751C7.69654 80.8984 1.63612 137.3 0.324707 173.18L180.55 159.137L178.946 38.874Z" fill="#105A91"/>
<path id="Path_4" d="M176.538 36.4352C174.002 33.8377 171.396 31.0911 168.718 28.1793C167.965 27.3631 167.212 26.5631 166.458 25.7858L59.4809 22.0579C49.5252 30.1324 40.1537 39.9591 31.5971 50.7511C8.08578 80.4095 1.83708 135.467 0.392578 171.409L178.151 157.556L176.538 36.4352Z" fill="#7DB8FB"/>
<path id="Path_5" d="M145.518 25.0571L16.8664 77.42C14.0975 84.4743 11.7733 91.9788 9.82568 99.6776L161.498 25.6142L145.518 25.0571Z" fill="#9BCAFC"/>
<path id="Path_6" d="M176.814 57.1379L13.5718 170.382L47.068 167.771L176.904 64.0011L176.814 57.1379Z" fill="#9BCAFC"/>
<path id="Shape" fill-rule="evenodd" clip-rule="evenodd" d="M68.206 74.1841C68.404 76.772 66.4693 78.8416 63.879 78.7963C61.2756 78.7509 58.9871 76.5841 58.7891 73.9703C58.5911 71.3566 60.5582 69.2902 63.1616 69.3614C65.752 69.4327 68.008 71.5962 68.206 74.1841ZM65.7518 74.1292C65.6576 72.892 64.5799 71.862 63.3464 71.8329C62.1097 71.8037 61.178 72.7851 61.2722 74.0256C61.3663 75.2661 62.4505 76.296 63.6873 76.3219C64.9208 76.3479 65.8459 75.3632 65.7518 74.1292Z" fill="white"/>
<path id="Shape_2" fill-rule="evenodd" clip-rule="evenodd" d="M57.4463 73.941C57.6443 76.5581 55.6642 78.6504 53.0186 78.6018C50.3601 78.5532 48.0229 76.3637 47.8249 73.724C47.6237 71.0811 49.6362 68.992 52.298 69.0633C54.9435 69.1378 57.2483 71.324 57.4463 73.941ZM54.9431 73.8859C54.8457 72.6357 53.7453 71.596 52.4858 71.5636C51.2231 71.5312 50.2687 72.5255 50.3629 73.7822C50.4603 75.0389 51.5672 76.0786 52.8299 76.1045C54.0926 76.1304 55.0372 75.1328 54.9431 73.8859Z" fill="white"/>
<path id="Shape_3" fill-rule="evenodd" clip-rule="evenodd" d="M42.1341 79.9982C26.8776 79.7488 15.0326 91.8784 16.1558 107.059C17.2789 122.259 30.9319 134.175 46.1625 133.615C60.9484 133.07 71.7675 120.912 70.6703 106.505C69.5732 92.1213 56.9459 80.2411 42.1341 79.9982ZM63.4347 93.647C60.4776 95.4284 58.9487 98.4794 57.2088 101.964C54.7969 106.794 52.0443 112.3 44.4582 116.96C35.0446 122.745 25.4492 120.222 23.3782 119.568C23.0763 119.134 22.7874 118.69 22.5115 118.237C23.4236 118.301 24.5338 118.347 25.777 118.321C31.5031 118.201 39.9526 116.594 44.4322 108.876C47.1727 104.152 48.3967 100.3 49.4737 96.9113L49.4737 96.9112L49.4766 96.9021C50.8789 92.4875 51.9112 89.2486 55.7091 86.4761C58.7312 88.3417 61.367 90.7903 63.4347 93.647ZM22.4011 115.396C21.8915 115.406 21.424 115.399 21.002 115.386C21.0147 115.412 21.0254 115.439 21.0356 115.465L21.0356 115.465L21.0356 115.465L21.0442 115.487C24.1962 115.872 36.765 116.776 42.16 107.516C44.7893 103.004 45.9806 99.2729 47.0258 95.9886C48.4054 91.6583 49.5318 88.1408 53.2063 85.106C50.8951 83.9983 48.4022 83.2145 45.802 82.8226C43.5915 85.974 42.9358 90.0745 42.2476 94.4113L42.2426 94.4426C41.504 99.071 40.7385 103.869 38.0017 108.105C34.0675 114.198 26.7768 115.315 22.4011 115.396ZM42.3255 82.5279C42.4402 82.5301 42.5549 82.5351 42.6696 82.5402C42.7269 82.5427 42.7843 82.5452 42.8416 82.5474C40.9524 85.9093 40.3064 89.9223 39.6832 93.8348C38.9788 98.2429 38.2484 102.813 35.7619 106.648C31.6621 112.97 22.8134 112.922 19.9893 112.734C19.4017 110.904 19.0154 108.999 18.8694 107.033C17.8533 93.3199 28.5329 82.3368 42.3255 82.5279ZM26.0732 122.855C31.1533 128.131 38.3434 131.338 45.9749 131.075C59.3812 130.615 69.22 119.606 68.2267 106.534C67.9346 102.67 66.727 99.0298 64.8411 95.8007C62.4325 97.2679 61.1081 99.9205 59.4753 103.198C57.0635 108.044 54.0414 114.11 45.9132 119.134C40.9694 122.188 36.0257 123.176 31.9226 123.283C29.6634 123.341 27.6735 123.13 26.0732 122.855Z" fill="white"/>
<path id="Path_7" d="M163.417 50.0774L166.757 50.1875V64.688L158.084 64.4029V61.7147L163.417 61.8896V50.0774Z" fill="white"/>
<path id="Shape_4" fill-rule="evenodd" clip-rule="evenodd" d="M147.174 57.5978V64.0464L148.576 64.0885C148.865 64.0982 149.083 64.0658 149.232 63.9913C149.381 63.9168 149.505 63.7549 149.602 63.5055L149.819 62.9452C150.076 63.1751 150.323 63.3727 150.559 63.5476C150.796 63.7225 151.043 63.8715 151.296 63.9945C151.55 64.1176 151.819 64.2148 152.105 64.2796C152.394 64.3443 152.712 64.3832 153.059 64.3962C153.53 64.4124 153.952 64.3638 154.335 64.2537C154.718 64.1435 155.042 63.9751 155.308 63.7419C155.575 63.5087 155.779 63.2172 155.925 62.8674C156.071 62.5144 156.143 62.1063 156.143 61.6399C156.143 61.2739 156.052 60.8949 155.867 60.503C155.682 60.1111 155.364 59.7484 154.909 59.418C154.455 59.0877 153.841 58.8026 153.072 58.563C152.299 58.3265 151.329 58.1872 150.157 58.1484V57.7079C150.157 57.099 150.28 56.6617 150.527 56.3994C150.774 56.137 151.124 56.0107 151.579 56.0269C151.942 56.0399 152.238 56.0885 152.468 56.1759C152.699 56.2634 152.903 56.3573 153.085 56.4642C153.267 56.5678 153.442 56.665 153.614 56.7492C153.786 56.8334 153.991 56.882 154.228 56.8885C154.439 56.8949 154.617 56.8496 154.766 56.7524C154.916 56.6553 155.033 56.5289 155.117 56.38L155.672 55.4342C155.052 54.8642 154.364 54.4301 153.611 54.1386C152.858 53.8439 152.049 53.6852 151.186 53.6561C150.566 53.6366 150.008 53.7208 149.511 53.9054C149.014 54.0933 148.592 54.3621 148.245 54.7119C147.901 55.0617 147.635 55.4828 147.45 55.9751C147.265 56.4674 147.174 57.0083 147.174 57.5978ZM153.222 61.4002C153.222 61.7532 153.127 62.0026 152.936 62.1386C152.744 62.2747 152.465 62.3394 152.095 62.3297C151.699 62.3168 151.352 62.2358 151.056 62.0868C150.761 61.9378 150.459 61.7014 150.157 61.3807V59.9686C150.771 59.988 151.274 60.0431 151.67 60.137C152.066 60.2277 152.378 60.3378 152.608 60.4674C152.839 60.5969 153.001 60.7394 153.088 60.8949C153.176 61.0504 153.222 61.2188 153.222 61.4002Z" fill="white"/>
<path id="Path_8" d="M144.35 53.6337V60.1827C144.35 60.7528 144.275 61.2742 144.122 61.7471C143.97 62.22 143.746 62.6281 143.451 62.9682C143.155 63.3115 142.792 63.5738 142.36 63.7552C141.928 63.9366 141.431 64.0176 140.873 64.0014C140.545 63.9917 140.24 63.9496 139.964 63.8783C139.688 63.807 139.429 63.7099 139.188 63.5933C138.948 63.4767 138.724 63.3374 138.513 63.1722C138.302 63.0103 138.098 62.8289 137.9 62.6313L137.711 63.2208C137.595 63.5609 137.341 63.7261 136.962 63.7131L135.066 63.6516V53.3325L138.127 53.4329V60.7884C138.403 61.0508 138.689 61.2548 138.981 61.4038C139.273 61.5528 139.588 61.6338 139.925 61.6435C140.373 61.6597 140.711 61.5301 140.941 61.258C141.172 60.986 141.285 60.5973 141.285 60.0856V53.5366L144.35 53.6337Z" fill="white"/>
<path id="Path_9" d="M128.782 63.447V56.0915C128.512 55.8356 128.23 55.6316 127.931 55.4761C127.636 55.3207 127.318 55.2365 126.983 55.2267C126.535 55.2105 126.195 55.3401 125.967 55.6154C125.737 55.8907 125.62 56.2794 125.62 56.7846V63.3434L122.556 63.243V56.6842C122.556 56.1207 122.63 55.5992 122.783 55.1231C122.935 54.647 123.159 54.2389 123.455 53.902C123.75 53.562 124.114 53.3028 124.546 53.1215C124.977 52.9401 125.474 52.8591 126.032 52.8753C126.36 52.885 126.665 52.9271 126.948 52.9984C127.227 53.0696 127.486 53.1636 127.727 53.2834C127.967 53.4 128.194 53.5425 128.405 53.7077C128.616 53.8729 128.821 54.0543 129.019 54.2454L129.197 53.6526C129.249 53.481 129.34 53.3547 129.47 53.2737C129.596 53.1927 129.759 53.1539 129.95 53.1603L131.846 53.2219V63.5409L128.782 63.447Z" fill="white"/>
<path id="Shape_5" fill-rule="evenodd" clip-rule="evenodd" d="M110.445 47.9526V62.8515L112.331 62.9162C112.522 62.9227 112.681 62.8871 112.811 62.8029C112.941 62.7219 113.032 62.5956 113.084 62.4239L113.321 61.6466C113.525 61.8733 113.74 62.0806 113.964 62.2652C114.188 62.4498 114.431 62.6118 114.691 62.7511C114.95 62.8871 115.233 62.9972 115.531 63.075C115.833 63.1527 116.155 63.198 116.505 63.211C117.041 63.2272 117.534 63.1235 117.989 62.9001C118.443 62.6766 118.836 62.343 119.164 61.9025C119.495 61.462 119.751 60.9179 119.94 60.2701C120.128 59.6223 120.222 58.8806 120.222 58.045C120.222 57.2774 120.118 56.5583 119.907 55.8911C119.699 55.2239 119.401 54.6409 119.014 54.1486C118.628 53.6531 118.164 53.2612 117.625 52.9729C117.086 52.6846 116.489 52.5292 115.837 52.5065C115.311 52.4903 114.866 52.5551 114.499 52.6976C114.132 52.8401 113.801 53.0344 113.506 53.2773V48.053L110.445 47.9526ZM116.615 60.199C116.472 60.4224 116.304 60.5811 116.106 60.6751C115.908 60.769 115.687 60.8111 115.447 60.8014C115.223 60.7949 115.021 60.7658 114.84 60.7172C114.658 60.6686 114.492 60.6006 114.34 60.5164C114.19 60.4289 114.048 60.3253 113.911 60.2022C113.778 60.0791 113.645 59.9366 113.512 59.7714V55.3925C113.749 55.1398 114.002 54.9682 114.268 54.8742C114.534 54.7803 114.817 54.7382 115.112 54.7479C115.395 54.7576 115.654 54.8224 115.891 54.9423C116.128 55.0653 116.333 55.25 116.508 55.5058C116.68 55.7617 116.82 56.0888 116.917 56.4904C117.018 56.8921 117.066 57.3747 117.066 57.9382C117.066 58.4824 117.024 58.939 116.946 59.3083C116.868 59.6775 116.758 59.9755 116.615 60.199Z" fill="white"/>
<path id="Path_10" d="M104.16 62.6441V56.3153C103.699 55.4376 103.066 54.9874 102.264 54.9582C102.033 54.9518 101.842 54.9582 101.689 54.9842C101.537 55.0101 101.407 55.0198 101.293 55.0165C101.16 55.0133 101.056 54.9809 100.978 54.9226C100.901 54.8643 100.849 54.7639 100.819 54.6246L100.423 52.3412C100.706 52.1242 101.082 52.0238 101.55 52.04C102.102 52.0595 102.614 52.2441 103.082 52.5971C103.549 52.9501 103.971 53.4263 104.348 54.0222L104.517 53.0635C104.543 52.9307 104.575 52.8206 104.611 52.7299C104.646 52.6392 104.698 52.5647 104.77 52.5097C104.838 52.4546 104.926 52.4157 105.026 52.3931C105.13 52.3704 105.257 52.3607 105.406 52.3671L107.224 52.4254V62.7445L104.16 62.6441Z" fill="white"/>
<path id="Path_11" d="M88.5527 51.8164L91.023 51.8974C91.2015 51.9039 91.3671 51.9589 91.5229 52.069C91.6787 52.1759 91.7826 52.3087 91.8345 52.4609L93.3569 56.9403C93.4283 57.1541 93.5062 57.3678 93.5841 57.5751C93.6621 57.7824 93.7367 57.9962 93.8016 58.2099C93.899 57.8018 94.0289 57.3938 94.1879 56.9889L95.8661 52.5937C95.9181 52.4512 96.0122 52.3249 96.1421 52.2245C96.2751 52.1241 96.4569 52.0755 96.6939 52.0852L99.4011 52.1727L95.3111 61.4553L97.2879 65.6982L94.9962 65.6237C94.7073 65.614 94.4963 65.559 94.3632 65.4586C94.2334 65.3581 94.1198 65.2027 94.0289 64.9954L88.5527 51.8164Z" fill="white"/>
<path id="Path_12" d="M72.9233 48.5126C73.1797 48.2827 73.4718 48.0786 73.7964 47.9005C74.1211 47.7224 74.4716 47.5701 74.8482 47.4471C75.2247 47.324 75.6207 47.2333 76.0395 47.1782C76.4582 47.1232 76.8867 47.1005 77.3282 47.1167C78.1202 47.1426 78.8181 47.2851 79.4316 47.5475C80.0451 47.8098 80.5613 48.1499 80.9833 48.5677C81.4052 48.9855 81.7234 49.4584 81.9408 49.9831C82.1583 50.5078 82.2655 51.0422 82.2655 51.5863C82.2655 52.2633 82.1746 52.8301 81.9895 53.2835C81.8045 53.7402 81.5643 54.1159 81.2624 54.4139C80.9638 54.7119 80.6229 54.9515 80.2399 55.1264C79.8569 55.3013 79.4673 55.4503 79.0648 55.5669C78.6623 55.6835 78.2695 55.7872 77.8897 55.8811C77.5067 55.975 77.1659 56.0851 76.8672 56.2147C76.5686 56.3443 76.3251 56.5127 76.1401 56.72C75.9551 56.9272 75.8642 57.1993 75.8642 57.5362C75.8642 58.1192 76.033 58.5532 76.3673 58.8317C76.7017 59.1103 77.1724 59.2625 77.7794 59.2819C78.2273 59.2981 78.6169 59.2463 78.9447 59.1297C79.2726 59.0163 79.5647 58.8835 79.8179 58.741C80.0711 58.5985 80.2983 58.4657 80.4996 58.3459C80.7008 58.226 80.8989 58.171 81.0969 58.1775C81.2494 58.1839 81.389 58.2228 81.5221 58.3005C81.6552 58.3783 81.7558 58.4787 81.8272 58.5985L82.814 60.2018C82.5316 60.4771 82.1973 60.7265 81.8175 60.9467C81.4345 61.1669 81.0255 61.3548 80.5937 61.5103C80.1588 61.6657 79.7108 61.7823 79.2434 61.8601C78.7792 61.9378 78.3215 61.9702 77.8768 61.954C77.0588 61.9281 76.3316 61.7791 75.6889 61.5103C75.0462 61.2414 74.5073 60.8819 74.0691 60.4317C73.6309 59.9815 73.2966 59.4633 73.0661 58.8706C72.8356 58.2779 72.7188 57.6495 72.7188 56.9791C72.7188 56.3766 72.8129 55.8617 72.9947 55.4406C73.1797 55.0196 73.4199 54.6633 73.7218 54.375C74.0204 54.0868 74.3645 53.8536 74.7508 53.6722C75.1371 53.4908 75.5299 53.3386 75.9324 53.209C76.3349 53.0795 76.7277 52.9629 77.1139 52.8592C77.5002 52.7556 77.8411 52.639 78.1397 52.5094C78.4383 52.3799 78.6818 52.2212 78.8668 52.0365C79.0518 51.8519 79.1427 51.6123 79.1427 51.3175C79.1427 50.8608 78.9902 50.4916 78.685 50.2131C78.3799 49.9345 77.9125 49.7855 77.286 49.7629C76.9224 49.7499 76.6011 49.7888 76.3186 49.8762C76.0362 49.9637 75.783 50.0641 75.5623 50.1742C75.3416 50.2876 75.1436 50.388 74.9683 50.4786C74.793 50.5693 74.6307 50.6114 74.4781 50.605C74.3061 50.5985 74.1665 50.5564 74.0594 50.4722C73.9523 50.388 73.8484 50.2649 73.7478 50.1029L72.9233 48.5126Z" fill="white"/>
<path id="Shape_6" fill-rule="evenodd" clip-rule="evenodd" d="M69.5273 52.552C69.089 52.0727 68.5599 51.6872 67.9367 51.3957C67.3167 51.101 66.6123 50.9423 65.83 50.9196C65.1516 50.8969 64.5283 50.9812 63.9667 51.1755C63.4052 51.3698 62.9215 51.6613 62.5157 52.0532C62.11 52.4451 61.7951 52.931 61.5679 53.5107C61.3407 54.0905 61.2271 54.7544 61.2271 55.4962C61.2271 55.7261 61.2368 55.9172 61.2563 56.063C61.2757 56.2119 61.3114 56.3285 61.3634 56.416C61.4153 56.5067 61.4867 56.5682 61.5744 56.6038C61.6653 56.6395 61.7756 56.6621 61.9152 56.6654L67.8231 56.8565C67.7224 57.7148 67.4628 58.3302 67.0408 58.7059C66.6188 59.0783 66.0767 59.2565 65.4112 59.2338C65.0574 59.2209 64.749 59.169 64.4926 59.0751C64.2362 58.9812 64.0089 58.8775 63.8077 58.7642C63.6097 58.6508 63.4246 58.5472 63.2558 58.4565C63.0871 58.3658 62.9118 58.3172 62.7267 58.3107C62.4833 58.301 62.2983 58.3852 62.1749 58.5601L61.2855 59.6354C61.6003 60.0111 61.9412 60.3188 62.308 60.5585C62.6748 60.7982 63.0481 60.9893 63.4344 61.1318C63.8207 61.2743 64.2037 61.378 64.59 61.4395C64.973 61.501 65.3398 61.5367 65.6904 61.5496C66.4078 61.5723 67.0797 61.4751 67.7095 61.2614C68.3392 61.0476 68.8878 60.7172 69.3585 60.267C69.8291 59.8201 70.2024 59.2532 70.4751 58.5731C70.7478 57.8929 70.8841 57.0962 70.8841 56.1796C70.8841 55.4897 70.7673 54.8322 70.5335 54.2071C70.3031 53.582 69.9655 53.0314 69.5273 52.552ZM64.373 53.611C64.5158 53.4328 64.7009 53.2903 64.9313 53.1867C65.1618 53.083 65.441 53.0345 65.7721 53.0409C66.3564 53.0604 66.8141 53.2418 67.1452 53.5883C67.4763 53.9349 67.6937 54.4239 67.7976 55.0588L63.9737 54.9357C63.9737 54.6895 64.0062 54.4531 64.0679 54.2231C64.1296 53.9932 64.2302 53.7891 64.373 53.611Z" fill="white"/>
<path id="Path_13" d="M55.5565 61.0635V54.7348C55.0956 53.857 54.4626 53.4068 53.6608 53.3777C53.4304 53.3712 53.2388 53.3777 53.0863 53.4036C52.9337 53.4295 52.8039 53.4392 52.6903 53.436C52.5572 53.4327 52.4533 53.4004 52.3754 53.3421C52.2975 53.2838 52.2455 53.1833 52.2163 53.0441L51.8203 50.7607C52.1027 50.5437 52.4793 50.4433 52.9467 50.4595C53.4985 50.4789 54.0114 50.6635 54.4788 51.0165C54.9463 51.3696 55.3683 51.8457 55.7448 52.4416L55.9136 51.4829C55.9396 51.3501 55.972 51.24 56.0077 51.1493C56.0435 51.0586 56.0954 50.9841 56.1668 50.9291C56.235 50.874 56.3226 50.8352 56.4232 50.8125C56.5271 50.7898 56.6537 50.7801 56.803 50.7866L58.6208 50.8449V61.1639L55.5565 61.0635Z" fill="white"/>
<path id="Path_14" d="M39.9658 50.2329L42.3971 50.3106C42.5951 50.3171 42.7672 50.3754 42.91 50.4823C43.0561 50.5892 43.1535 50.722 43.2054 50.8742L44.6889 55.5511C44.8057 55.9333 44.9193 56.3058 45.0232 56.6653C45.1271 57.0281 45.218 57.3876 45.2894 57.7503C45.3608 57.3941 45.4484 57.0378 45.5523 56.6848C45.6529 56.3317 45.7601 55.9657 45.8737 55.59L47.2955 51.007C47.3474 50.858 47.448 50.7317 47.5973 50.6345C47.7467 50.5374 47.9284 50.492 48.1459 50.4985L50.6941 50.5827L46.7241 60.7722L43.939 60.6815L39.9658 50.2329Z" fill="white"/>
<path id="Path_15" d="M34.8691 48.4998C35.0411 48.6682 35.2391 48.8042 35.4663 48.9079C35.6936 49.0115 35.937 49.0666 36.1935 49.0763C36.4434 49.086 36.6771 49.0439 36.8946 48.9564C37.1121 48.8658 37.3036 48.7459 37.4724 48.5872C37.6412 48.4317 37.7711 48.2471 37.8684 48.0334C37.9626 47.8196 38.0113 47.5929 38.0113 47.3467C38.0113 47.0941 37.9626 46.8577 37.8684 46.6374C37.7711 46.4139 37.6412 46.2196 37.4724 46.0479C37.3036 45.8763 37.1121 45.7402 36.8946 45.6398C36.6771 45.5394 36.4434 45.4844 36.1935 45.4779C36.0928 45.4747 35.9987 45.4811 35.9013 45.4908C35.3722 46.1192 34.8463 46.7475 34.3237 47.3824C34.34 47.5702 34.3854 47.7516 34.4633 47.9232C34.5607 48.1402 34.697 48.3313 34.8691 48.4998Z" fill="white"/>
<path id="Path_16" d="M34.6719 60.3799L37.7329 60.4803V50.1612L34.6719 50.0608V60.3799Z" fill="white"/>
<path id="Path_17" d="M27.3226 60.3024C27.9491 60.3219 28.5464 60.2214 29.1144 60.0012C29.6857 59.781 30.1856 59.4506 30.6141 59.0101C31.0458 58.5696 31.3899 58.0223 31.6431 57.368C31.8963 56.7137 32.0229 55.9591 32.0229 55.1105C32.0229 54.3688 31.9125 53.6692 31.6918 53.0149C31.5133 52.4838 31.2601 52.0109 30.942 51.5898C30.2311 52.5162 29.5332 53.4619 28.8547 54.4336C28.871 54.6182 28.8807 54.806 28.8807 55.0069C28.8807 55.9947 28.6924 56.7494 28.3126 57.2676C27.9329 57.7858 27.4102 58.0352 26.748 58.0125C26.6572 58.0093 26.5728 58.0028 26.4916 57.9963C26.0891 58.6376 25.6931 59.2854 25.3003 59.9397C25.6119 60.0498 25.9268 60.1372 26.2417 60.1923C26.6117 60.2538 26.972 60.2895 27.3226 60.3024Z" fill="white"/>
<path id="Path_18" d="M91.1891 56.0788L88.8519 72.4481L84.645 76.0789V87.3631H107.023V73.1931H101.041L102.485 53.4424L91.1891 56.0788Z" fill="#EFC6BD"/>
<path id="Path_19" d="M98.8426 68.8626L94.0384 64.4253C93.3568 63.797 92.9705 62.9128 92.9705 61.9865V59.4148L95.6452 55.0391L94.4312 55.3208L92.2109 58.9516L92.0811 59.1654V59.4148V61.9865C92.0811 63.1557 92.5745 64.2828 93.4347 65.0763L98.2389 69.5136C99.0601 70.2715 100.105 70.7152 101.212 70.7897L101.277 69.9055C100.375 69.844 99.5146 69.4812 98.8426 68.8626Z" fill="#DBA59C"/>
<path id="Path_20" d="M124.056 155.474H81.5776V87.3633L106.173 83.033L124.056 155.474Z" fill="white"/>
<path id="Path_21" d="M88.4136 54.9193C88.4136 54.9193 88.8193 59.6902 90.0788 63.8521L92.9743 57.6432L96.0159 55.5444L98.9049 50.7541L89.2056 50.427L88.4136 54.9193Z" fill="#514132"/>
<path id="Path_22" d="M106.176 84.4384C95.4576 89.0959 87.3554 87.8716 87.3554 87.8716L86.5698 84.8724C86.5698 84.8724 94.461 86.1355 105.18 81.478L106.176 84.4384Z" fill="#EF9D59"/>
<path id="Path_23" d="M102.793 71.2239L118.793 77.0474C120.991 77.8474 122.724 79.5705 123.536 81.7599L139.971 126.207L145.612 138.307C147.515 142.382 146.638 147.211 143.428 150.366L140.367 153.375L108.406 152.588C108.406 152.588 113.863 119.386 110.182 101.277C106.5 83.1689 104.205 79.6514 104.205 79.6514L102.793 71.2239Z" fill="#EA8021"/>
<path id="Path_24" d="M142.477 148.989C144.051 147.979 145.34 146.686 146.317 145.219C146.849 142.952 146.641 140.519 145.612 138.307L145.586 138.252C145.343 141.417 143.694 144.432 140.863 146.317L135.235 150.074C134.504 150.56 133.611 150.741 132.751 150.576L127.213 149.507L125.574 150.223L128.872 152.711L131.128 153.145L135.796 153.261C135.861 153.226 135.929 153.19 135.994 153.148L142.477 148.989Z" fill="white"/>
<path id="Path_25" d="M126.39 150.223C126.39 150.223 128.133 153.427 134.907 154.353" stroke="#CC630D" stroke-width="3.61483" stroke-linecap="round"/>
<path id="Path_26" d="M110.773 152.585C110.773 152.585 116.229 119.383 112.548 101.274C108.867 83.1659 106.572 79.6484 106.572 79.6484" stroke="#CC630D" stroke-width="3.61483" stroke-linecap="round"/>
<path id="Path_27" d="M122.351 98.7803L119.585 122.754" stroke="#CC630D" stroke-width="3.61483" stroke-linecap="round"/>
<path id="Path_28" d="M124.383 144.517L103.209 142.22L102.793 155.474L124.055 151.668L127.214 147.73L124.383 144.517Z" fill="#EFC6BD"/>
<path id="Path_29" d="M112.265 146.997L112.291 146.978L112.317 146.955C112.632 146.683 113.041 146.09 113.035 145.313C113.587 144.963 114.161 144.358 114.434 143.438L113.538 143.341C113.116 144.523 112.041 144.801 112.041 144.801C112.392 145.721 111.733 146.288 111.733 146.288L103.339 152.497C103.186 152.61 103.03 152.714 102.871 152.814L102.839 153.86C103.193 153.666 103.537 153.449 103.868 153.206L112.265 146.997Z" fill="#DBA59C"/>
<path id="Path_30" d="M122.471 144.309C122.471 144.309 119.507 138.214 116.456 136.478L114.125 139.457C114.125 139.457 116.125 140.869 116.343 143.645C116.56 146.418 122.471 144.309 122.471 144.309Z" fill="#EFC6BD"/>
<path id="Path_31" d="M89.9906 154.512C89.9906 154.512 92.5323 118.816 92.331 109.106C92.1298 99.3957 89.3998 90.4207 89.3998 90.4207L86.5725 83.8231L87.345 73.7502L79.733 76.9243C73.8641 79.3729 68.9755 83.7065 65.8917 89.258C64.681 91.441 63.4442 93.854 62.123 96.5519L65.6548 156.656L89.9906 154.512Z" fill="#EA8021"/>
<path id="Path_32" d="M87.0336 154.512C87.0336 154.512 89.5753 118.816 89.3741 109.106C89.1728 99.3957 86.4428 90.4208 86.4428 90.4208L84.2939 83.4734" stroke="#CC630D" stroke-width="3.61483" stroke-linecap="round"/>
<path id="Path_33" d="M124.383 144.517L126.954 142.564C126.574 141.517 125.574 137.997 127.713 134.243C126.593 126.262 121.624 119.308 114.375 115.671L109.315 113.129C101.011 108.957 93.7594 102.965 88.108 95.5999C85.8065 92.6007 82.3494 90.7092 78.5775 90.3821L69.7352 89.6177L56.9781 102.997L57.5267 106.395C57.939 108.951 57.9325 111.555 57.5072 114.107L57.2281 115.785C56.1212 122.405 57.7767 128.4 62.899 132.753L77.2369 144.973L103.033 147.921L103.212 142.217L124.383 144.517Z" fill="#91C8ED"/>
<path id="Path_34" d="M102.806 128.837C103.173 129.164 103.543 129.491 103.91 129.815C104.192 130.064 104.429 130.097 104.753 129.938C104.796 129.915 104.841 129.893 104.883 129.873C104.929 129.851 104.977 129.838 105.02 129.886C105.062 129.935 105.036 129.977 105.007 130.016C104.977 130.055 104.945 130.087 104.913 130.123C104.354 130.719 103.796 131.315 103.238 131.907C103.199 131.946 103.166 131.992 103.117 132.021C103.033 132.073 102.984 132.04 102.978 131.943C102.978 131.924 102.984 131.901 102.994 131.885C103.267 131.402 103.03 131.059 102.637 130.725C101.965 130.155 101.313 129.559 100.65 128.973C100.41 128.759 100.401 128.759 100.141 128.934C100.079 128.976 100.014 129.018 99.9493 129.057C99.9039 129.083 99.8519 129.093 99.8097 129.054C99.7643 129.015 99.7708 128.963 99.7902 128.918C99.8487 128.788 99.9136 128.659 99.972 128.529C100.18 128.073 100.319 127.596 100.407 127.098C100.449 126.864 100.53 126.839 100.735 127C100.933 127.156 100.926 127.156 100.972 126.913C101.04 126.534 101.196 126.194 101.462 125.915C101.634 125.737 101.783 125.543 101.991 125.4C102.634 124.957 103.335 125.012 103.984 125.524C104.731 126.113 105.412 126.767 106.133 127.383C106.471 127.671 106.678 127.7 107.068 127.502C107.133 127.47 107.214 127.373 107.292 127.47C107.363 127.561 107.259 127.619 107.208 127.674C106.633 128.29 106.055 128.905 105.477 129.52C105.425 129.575 105.37 129.682 105.273 129.614C105.179 129.549 105.26 129.462 105.289 129.391C105.448 129.028 105.39 128.772 105.075 128.49C104.458 127.943 103.841 127.396 103.221 126.851C103.049 126.699 102.855 126.566 102.65 126.46C102.16 126.2 101.767 126.288 101.442 126.722C101.209 127.03 101.29 127.47 101.66 127.81C102.037 128.157 102.426 128.494 102.806 128.837C102.809 128.837 102.809 128.834 102.806 128.837Z" fill="white"/>
<path id="Shape_7" fill-rule="evenodd" clip-rule="evenodd" d="M99.2305 131.675C99.3276 131.571 99.4245 131.467 99.5219 131.363C99.7945 131.075 100.067 130.784 100.333 130.492C100.561 130.249 100.544 130.175 100.236 129.99C99.2719 129.42 98.0806 129.42 97.3178 130.317C96.8016 130.926 96.6101 131.61 96.7984 132.39C97.0646 133.488 97.8209 134.21 98.8726 134.648C99.4926 134.904 100.116 134.884 100.7 134.599C101.249 134.334 101.658 133.925 101.927 133.391C102.184 132.883 102.236 132.345 102.07 131.781C102.068 131.776 102.066 131.77 102.064 131.764C102.037 131.676 102.004 131.571 101.885 131.574C101.775 131.577 101.766 131.671 101.758 131.751C101.757 131.76 101.756 131.769 101.755 131.778C101.697 132.277 101.473 132.685 101.106 133.025C100.755 133.352 100.35 133.466 99.8562 133.326C99.392 133.193 99.0187 132.908 98.6454 132.62C98.5058 132.513 98.5286 132.419 98.6324 132.309C98.8349 132.099 99.0329 131.886 99.2305 131.675ZM99.0807 131.253C98.9444 131.441 98.8015 131.626 98.636 131.788C98.6052 131.821 98.5744 131.853 98.5438 131.886C98.4806 131.952 98.418 132.018 98.3568 132.086C98.2724 132.176 98.188 132.18 98.1069 132.079C97.8699 131.791 97.6362 131.5 97.5129 131.147C97.3408 130.654 97.6492 130.301 98.175 130.382C98.4899 130.434 98.7658 130.58 99.0125 130.771C99.217 130.933 99.2235 131.059 99.0807 131.253Z" fill="white"/>
<path id="Path_35" d="M107.387 119.596C107.682 119.24 108.111 118.991 108.568 118.78C108.708 118.715 108.835 118.715 108.971 118.806C109.175 118.942 109.39 119.068 109.597 119.198C109.653 119.234 109.717 119.269 109.691 119.347C109.666 119.421 109.591 119.412 109.529 119.405C109.11 119.357 108.698 119.379 108.302 119.499C107.955 119.603 107.63 119.739 107.432 120.059C107.306 120.267 107.299 120.481 107.458 120.681C107.63 120.898 107.844 121.051 108.146 121.002C108.497 120.947 108.802 120.795 109.101 120.633C109.513 120.409 109.941 120.238 110.428 120.196C111.399 120.111 112.73 121.261 112.09 122.521C111.672 123.347 110.987 123.894 110.126 124.26C109.987 124.319 109.867 124.296 109.743 124.215C109.513 124.063 109.282 123.917 109.052 123.765C108.99 123.723 108.893 123.677 108.925 123.59C108.958 123.496 109.055 123.535 109.13 123.545C109.678 123.622 110.217 123.635 110.733 123.438C110.893 123.376 111.035 123.289 111.162 123.185C111.415 122.981 111.506 122.693 111.405 122.456C111.282 122.158 110.974 121.954 110.639 121.948C110.224 121.941 109.867 122.103 109.516 122.275C109.166 122.443 108.799 122.544 108.393 122.528C107.166 122.482 106.358 121.151 106.945 120.14C107.056 119.943 107.211 119.791 107.387 119.596Z" fill="white"/>
<path id="Path_36" d="M105.566 125.08C105.144 124.707 104.722 124.331 104.3 123.956C104.196 123.865 104.102 123.807 103.992 123.93C103.94 123.985 103.885 124.085 103.784 124.008C103.69 123.936 103.654 123.813 103.719 123.726C103.839 123.564 103.758 123.47 103.628 123.363C103.381 123.152 103.144 122.926 102.894 122.718C102.732 122.586 102.693 122.476 102.8 122.294C102.969 122.006 103.076 121.685 103.154 121.358C103.226 121.054 103.261 121.044 103.514 121.271C103.901 121.611 104.287 121.948 104.667 122.294C104.819 122.437 104.923 122.433 105.05 122.284C105.219 122.087 105.404 121.902 105.582 121.714C105.647 121.65 105.712 121.543 105.826 121.633C105.939 121.724 105.933 121.85 105.848 121.948C105.696 122.122 105.534 122.291 105.374 122.459C105.141 122.709 105.141 122.709 105.41 122.945C106.183 123.632 106.955 124.318 107.734 125.002C108.202 125.413 108.637 125.348 108.919 124.827C108.974 124.727 109.017 124.616 109.065 124.51C109.078 124.477 109.085 124.445 109.098 124.412C109.124 124.348 109.159 124.286 109.25 124.299C109.328 124.309 109.351 124.374 109.37 124.435C109.471 124.746 109.465 125.057 109.361 125.355C109.14 125.986 108.734 126.443 108.023 126.563C107.559 126.641 107.144 126.459 106.79 126.155C106.371 125.805 105.972 125.439 105.566 125.08Z" fill="white"/>
<path id="Path_37" d="M95.1522 136.286C95.4736 136.61 95.8534 136.84 96.2948 136.966C97.0512 137.183 97.7426 136.892 98.0672 136.225C98.223 135.901 98.2977 135.554 98.3204 135.191C98.3269 135.098 98.3139 134.974 98.4535 134.974C98.5736 134.971 98.5898 135.085 98.6158 135.172C98.9469 136.176 98.6288 137.235 97.8302 137.889C97.4083 138.233 96.9506 138.485 96.3792 138.518C95.7333 138.557 95.1587 138.32 94.6491 137.935C93.9544 137.413 93.4448 136.766 93.3474 135.904C93.2663 135.175 93.4545 134.521 93.9187 133.967C94.1557 133.685 94.4089 133.413 94.7595 133.245C94.938 133.157 95.1198 133.093 95.3178 133.064C95.6326 133.015 95.941 133.154 96.0968 133.417C96.2591 133.692 96.1715 133.928 96.0059 134.145C95.8404 134.362 95.5223 134.44 95.2366 134.33C95.0678 134.265 94.9088 134.178 94.74 134.113C94.3602 133.967 94.0745 134.152 94.0648 134.547C94.0551 134.868 94.1914 135.146 94.3667 135.412C94.5744 135.739 94.8374 136.037 95.1522 136.286Z" fill="white"/>
<path id="Path_38" d="M69.7386 89.6172C69.7386 89.6172 67.8624 83.865 62.1266 80.1694L49.2202 102.997L50.0772 103.47C51.6126 104.322 53.4531 104.429 55.0826 103.768L56.9816 102.997" fill="#91C8ED"/>
<path id="Path_39" d="M57.2416 92.5486C53.6255 98.7964 50.2723 103.49 49.068 102.92C48.3668 102.589 50.3405 96.6652 53.9566 90.4207C57.5727 84.1729 61.0038 79.632 62.1594 80.2992C63.315 80.9632 60.8577 86.3008 57.2416 92.5486Z" fill="#3790F4"/>
<path id="Path_40" d="M67.5509 91.9106C67.5509 91.9106 72.631 96.5941 68.687 108.186C64.743 119.778 65.3987 121.802 65.3987 121.802" stroke="#3790F4" stroke-width="4.51854" stroke-linecap="round" stroke-linejoin="round"/>
<path id="Path_41" d="M68.9722 90.4172C68.9722 90.4172 74.6041 91.0035 73.8121 102.242C73.0233 113.478 71.595 119.114 73.8867 121.808" stroke="#3790F4" stroke-width="4.51854" stroke-linecap="round" stroke-linejoin="round"/>
<path id="Path_42" d="M88.8513 72.4481C88.8513 72.4481 85.7156 79.4311 89.3999 90.4174L84.9073 86.0417C84.0666 85.2255 83.518 84.1566 83.3362 83.0004L82.2877 76.2473C82.1676 75.4667 82.4533 74.6797 83.0505 74.1582C84.3068 73.057 86.6634 71.1687 89.2019 69.9995L88.8513 72.4481Z" fill="white"/>
<path id="Path_43" d="M101.04 73.1932C101.04 73.1932 105.182 81.3454 107.733 90.4207L109.324 80.675C109.324 80.675 105.906 71.6871 101.037 67.6838V73.1932H101.04Z" fill="white"/>
<path id="Path_44" d="M111.123 50.926L107.221 68.2864C107.039 69.0896 106.345 69.6758 105.52 69.7179L101.752 69.9123C100.68 69.9673 99.6318 69.5884 98.8463 68.8596L94.0421 64.4224C93.3604 63.794 92.9741 62.9098 92.9741 61.9835V59.4118L99.5507 48.6523C99.5474 48.6523 109.545 46.9033 111.123 50.926Z" fill="#EFC6BD"/>
<path id="Path_45" d="M93.9309 60.1932C95.2679 60.0931 96.208 58.0944 96.0301 55.7294C95.8522 53.364 94.6239 51.5276 93.2869 51.6277C91.9495 51.7278 91.0097 53.7265 91.1876 56.0918C91.3655 58.4569 92.5935 60.2933 93.9309 60.1932Z" fill="#EFC6BD"/>
<path id="Path_46" d="M88.2829 56.2151L87.4909 51.7455C86.952 48.7074 87.9323 45.6046 90.1137 43.4183C92.5645 40.96 96.3851 38.0223 101.666 36.445C105.883 35.1883 110.321 37.6434 111.567 41.8539C111.687 42.2588 111.804 42.6896 111.911 43.1398L99.0826 48.9471L88.2829 56.2151Z" fill="#217ACC"/>
<path id="Path_47" d="M91.2012 54.1354C91.2012 54.1354 104.26 48.273 108.701 50.4237C111.223 51.6447 110.233 54.8933 110.233 54.8933C110.233 54.8933 118.205 50.7832 120.539 48.3411C122.873 45.8989 118.238 40.7459 109.95 43.3402C101.663 45.9346 91.2012 54.1354 91.2012 54.1354Z" fill="#0C4D75"/>
<path id="Path_48" d="M57.2289 115.787L57.508 114.11C57.93 111.587 57.9397 109.012 57.5405 106.485C53.7783 115.081 50.3504 123.94 47.7114 131.091C44.7574 139.104 48.9546 146.984 57.1737 150.453L65.9186 153.886C67.4865 154.502 69.1517 154.832 70.8364 154.864L75.9165 154.949L84.4959 157.559L85.4178 143.35L78.8088 141.562L77.9161 140.111C77.4714 139.389 76.8157 138.819 76.0366 138.482L62.8965 132.756C57.7742 128.403 56.1219 122.408 57.2289 115.787Z" fill="#EA8021"/>
<path id="Path_49" d="M54.4302 145.242L68.2552 152.607C68.7031 152.847 69.1998 152.983 69.7062 153.009L76.8378 153.371L75.9614 151.564L70.7936 150.784C70.3911 150.722 70.0048 150.592 69.6478 150.398L56.3453 143.185C51.2587 140.426 48.2886 135.205 48.2139 129.737C48.0451 130.194 47.8763 130.644 47.714 131.088C46.9707 133.106 46.6818 135.117 46.7954 137.051C48.3081 140.448 50.9212 143.373 54.4302 145.242Z" fill="white"/>
<path id="Path_50" d="M62.0231 131.962C60.2378 131.933 58.05 132.073 55.5667 132.588C55.2453 132.652 55.0408 132.966 55.1058 133.287C55.1707 133.608 55.4856 133.812 55.8069 133.744C58.8939 133.106 61.5297 133.077 63.4384 133.219L62.8963 132.759C62.5945 132.497 62.3023 132.231 62.0231 131.962Z" fill="#CC630D"/>
<path id="Path_51" d="M85.4235 143.351L78.8145 141.563C72.8287 147.007 75.9222 154.949 75.9222 154.949L84.5016 157.56L85.4235 143.351Z" fill="#EF9D59"/>
<path id="Path_52" d="M88.4731 150.686C88.7282 146.763 87.3626 143.481 85.4234 143.355C83.4842 143.23 81.7053 146.309 81.4505 150.232C81.1957 154.156 82.561 157.438 84.5002 157.564C86.4394 157.689 88.2182 154.61 88.4731 150.686Z" fill="#CC630D"/>
<path id="Path_53" d="M127.081 142.874C127.081 142.874 123.003 134.045 134.644 128.257" stroke="#CC630D" stroke-width="3.61483" stroke-linecap="round"/>
<path id="Path_54" d="M124.383 144.517L127.457 142.21C127.457 142.21 130.368 145.174 129.511 150.946L124.055 151.668C124.055 151.668 124.645 149.699 124.383 144.517Z" fill="#EF9D59"/>
<path id="Path_55" fill-rule="evenodd" clip-rule="evenodd" d="M107.439 43.4439C108.566 42.6701 108.746 40.9797 107.842 39.6683C106.937 38.3569 105.291 37.9209 104.164 38.6947C103.037 39.4681 102.857 41.1588 103.761 42.4702C104.666 43.7817 106.312 44.2176 107.439 43.4439Z" stroke="white" stroke-width="1.80741"/>
<path id="Path_56" d="M104.167 42.9645L107.403 39.0164" stroke="white" stroke-width="1.80741"/>
<path id="Path_57" d="M103.807 39.3762L107.764 42.6054" stroke="white" stroke-width="1.80741"/>
<path id="Path_58" d="M105.643 56.7883L107.023 60.6361L105.38 62.3268" stroke="#DBA59C" stroke-width="2.71112" stroke-linecap="round"/>
<path id="Path_59" d="M0.911815 161.213C0.171709 173.158 -0.0133176 183.687 0.00291276 191.532L337.358 144.665C336.556 139.428 335.481 134.359 334.274 129.556L0.911815 161.213Z" fill="#ADD0EA"/>
<path id="Path_60" d="M159.567 160.546C159.567 160.546 160.609 164.458 166.724 168.568L184.244 165.938L170.837 158.402L159.567 160.546Z" fill="#7DB8FB"/>
<path id="Path_61" d="M251.957 154.272L311.594 146.074C313.204 145.854 313.438 143.629 311.912 143.078L299.493 138.599C297.604 137.916 295.585 137.663 293.582 137.857L233.484 143.645C231.978 143.791 231.546 145.776 232.854 146.534L243.316 152.581C245.929 154.087 248.968 154.683 251.957 154.272Z" fill="#7DB8FB"/>
<path id="Path_62" d="M141.642 161.148L183.016 156.186L164.264 148.711L124.055 151.982L141.642 161.148Z" fill="#7DB8FB"/>
<path id="Path_63" d="M174.98 159.755L155.357 162.981L142.701 155.487L162.476 152.584L174.98 159.755Z" fill="#7DB8FB"/>
<path id="Path_64" d="M67.041 154.936C67.041 154.936 71.4492 156.131 75.3932 156.131C79.3371 156.131 93.3245 159.347 93.3245 159.347L104.228 158.408L92.7726 152.299L67.041 154.936Z" fill="#7DB8FB"/>
<path id="Path_65" d="M84.9595 159.477L111.561 170.039L137.098 165.708L107.185 157.116L84.9595 159.477Z" fill="#7DB8FB"/>
<path id="Path_66" d="M132.479 169.265C124.815 168.309 122.5 166.628 121.848 165.919C121.666 165.721 121.387 165.647 121.127 165.715C120.582 165.854 120.381 166.521 120.76 166.936C121.793 168.053 124.61 169.773 132.294 170.732C135.228 171.098 137.624 171.567 139.529 172.154L142.545 171.736C140.247 170.618 136.965 169.822 132.479 169.265Z" fill="#7DB8FB"/>
<path id="Path_67" d="M0 191.535C0.00973822 196.546 0.0973822 200.458 0.175288 202.942L338.111 150.437C337.9 148.497 337.647 146.57 337.355 144.668L0 191.535Z" fill="#5EA2E4"/>
<path id="Path_68" fill-rule="evenodd" clip-rule="evenodd" d="M261.896 148.584V144.568L275.76 143.117L275.731 146.845L261.896 148.584Z" stroke="#FF00FF" stroke-width="1.0332"/>
<path id="Path_69" d="M253.479 134.077L275.433 132.545L283.23 134.12L261.897 136.05L253.479 134.077Z" fill="#0B2E44"/>
<path id="Path_70" d="M292.153 96.0564L306.871 98.4532" stroke="#0B2E44" stroke-width="2.71112" stroke-linecap="round" stroke-linejoin="round"/>
<path id="Path_71" d="M230.646 97.2548L292.153 96.0564" stroke="#105A91" stroke-width="2.71112" stroke-linecap="round" stroke-linejoin="round"/>
<path id="Path_72" d="M267.482 134.903C267.482 134.903 249.902 137.303 242.686 119.911C235.47 102.518 241.033 84.5227 249.298 77.1769C257.562 69.8312 271.387 60.6846 271.387 60.6846L294.379 78.2263C294.379 78.2263 296.408 88.8725 298.135 94.7964C299.862 100.72 300.388 108.066 296.934 113.391C293.48 118.716 286.868 134.903 267.482 134.903Z" fill="#91C8ED"/>
<path id="Path_73" d="M271.391 60.6811L273.868 46.9612L302.196 74.4009L294.383 78.2261L277.552 77.1022L271.391 60.6811Z" fill="#91C8ED"/>
<path id="Path_74" d="M286.794 75.7778C286.794 75.7778 287.07 81.5754 288.972 87.2726C290.874 92.9698 290.173 99.6192 288.07 102.518" stroke="#3790F4" stroke-width="4.51854" stroke-linecap="round" stroke-linejoin="round"/>
<path id="Path_75" d="M288.069 75.7778C288.069 75.7778 291.348 83.3957 293.25 89.0929C295.152 94.79 295.354 99.888 293.25 102.787" stroke="#3790F4" stroke-width="4.51854" stroke-linecap="round" stroke-linejoin="round"/>
<path id="Path_76" d="M290.081 58.7833C297.791 66.4756 303.059 73.5396 302.196 74.4012C301.332 75.2627 294.499 69.2708 286.793 61.5817C279.084 53.8894 273.004 47.8262 273.871 46.9614C274.734 46.0999 282.375 51.091 290.081 58.7833Z" fill="#91C8ED"/>
<path id="Path_77" d="M300.135 71.7358C300.34 72.037 299.963 72.39 299.674 72.1698C297.464 70.4888 293.591 67.1107 287.424 60.9568L287.382 60.9147C283.256 56.7981 278.737 52.2896 276.358 49.5301C276.098 49.2288 276.468 48.7948 276.806 49.0021C279.61 50.7252 284.259 54.2199 289.459 59.4086C294.802 64.7431 298.376 69.1382 300.135 71.7358Z" fill="#3790F4"/>
<path id="Path_78" d="M259.008 150.881V142.939L291.024 139.593V145.958L259.008 150.881Z" fill="#EF9D59"/>
<path id="Path_79" d="M279.694 145.349C280.325 145.349 280.837 144.838 280.837 144.209C280.837 143.579 280.325 143.069 279.694 143.069C279.063 143.069 278.552 143.579 278.552 144.209C278.552 144.838 279.063 145.349 279.694 145.349Z" fill="white"/>
<path id="Path_80" d="M284.881 144.662C285.512 144.662 286.024 144.152 286.024 143.522C286.024 142.893 285.512 142.382 284.881 142.382C284.25 142.382 283.739 142.893 283.739 143.522C283.739 144.152 284.25 144.662 284.881 144.662Z" fill="white"/>
<path id="Path_81" d="M259.008 142.939L291.024 139.593L277.345 136.445L249.126 139.856L259.008 142.939Z" fill="#CC630D"/>
<path id="Path_82" d="M259.008 150.881L249.126 146.155V139.855L259.008 142.939V150.881Z" fill="#EA8021"/>
<path id="Path_83" d="M259.303 141.388L261.897 136.05L253.479 134.078V139.694L259.303 141.388Z" fill="#E8A272"/>
<path id="Path_84" d="M259.303 141.387L285.652 138.806C285.652 138.806 285.937 135.03 283.23 134.119L261.897 136.05C261.897 136.05 259.599 138.239 259.303 141.387Z" fill="#F2B283"/>
<path id="Path_85" fill-rule="evenodd" clip-rule="evenodd" d="M283.23 134.12L306.871 98.4563L245.361 99.6514L261.897 136.05L283.23 134.12Z" stroke="#105A91" stroke-width="2.71112" stroke-linecap="round" stroke-linejoin="round"/>
<path id="Path_86" d="M265.454 135.729L255.612 99.4507" stroke="#105A91" stroke-width="2.71112" stroke-linecap="round" stroke-linejoin="round"/>
<path id="Path_87" d="M269.008 135.405L265.863 99.2529" stroke="#105A91" stroke-width="2.71112" stroke-linecap="round" stroke-linejoin="round"/>
<path id="Path_88" d="M272.563 135.085L276.118 99.0522" stroke="#105A91" stroke-width="2.71112" stroke-linecap="round" stroke-linejoin="round"/>
<path id="Path_89" d="M276.117 134.764L286.368 98.855" stroke="#105A91" stroke-width="2.71112" stroke-linecap="round" stroke-linejoin="round"/>
<path id="Path_90" d="M279.675 134.44L296.619 98.6541" stroke="#105A91" stroke-width="2.71112" stroke-linecap="round" stroke-linejoin="round"/>
<path id="Path_91" d="M283.229 134.12L306.871 98.4563" stroke="#105A91" stroke-width="2.71112" stroke-linecap="round" stroke-linejoin="round"/>
<path id="Path_92" d="M253.479 134.077L230.646 97.2546" stroke="#105A91" stroke-width="2.71112" stroke-linecap="round" stroke-linejoin="round"/>
<path id="Path_93" d="M257.69 135.066L238.002 98.4534" stroke="#105A91" stroke-width="2.71112" stroke-linecap="round" stroke-linejoin="round"/>
<path id="Path_94" d="M261.897 136.05L245.361 99.6514" stroke="#105A91" stroke-width="2.71112" stroke-linecap="round" stroke-linejoin="round"/>
<path id="Path_95" d="M230.646 97.2546L245.36 99.6514" stroke="#105A91" stroke-width="2.71112" stroke-linecap="round" stroke-linejoin="round"/>
<path id="Path_96" d="M235.214 104.62L248.669 106.932" stroke="#105A91" stroke-width="2.71112" stroke-linecap="round" stroke-linejoin="round"/>
<path id="Path_97" d="M239.781 111.985L251.977 114.21" stroke="#105A91" stroke-width="2.71112" stroke-linecap="round" stroke-linejoin="round"/>
<path id="Path_98" d="M244.348 119.347L255.284 121.491" stroke="#105A91" stroke-width="2.71112" stroke-linecap="round" stroke-linejoin="round"/>
<path id="Path_99" d="M248.912 126.712L258.588 128.772" stroke="#105A91" stroke-width="2.71112" stroke-linecap="round" stroke-linejoin="round"/>
<path id="Path_100" d="M253.479 134.078L261.897 136.05" stroke="#105A91" stroke-width="2.71112" stroke-linecap="round" stroke-linejoin="round"/>
<path id="Path_101" d="M306.871 98.4563L245.361 99.6514" stroke="#105A91" stroke-width="2.71112" stroke-linecap="round" stroke-linejoin="round"/>
<path id="Path_102" d="M302.141 105.588L248.668 106.933" stroke="#105A91" stroke-width="2.71112" stroke-linecap="round" stroke-linejoin="round"/>
<path id="Path_103" d="M297.415 112.72L251.976 114.21" stroke="#105A91" stroke-width="2.71112" stroke-linecap="round" stroke-linejoin="round"/>
<path id="Path_104" d="M292.686 119.852L255.285 121.491" stroke="#105A91" stroke-width="2.71112" stroke-linecap="round" stroke-linejoin="round"/>
<path id="Path_105" d="M287.956 126.988L258.589 128.772" stroke="#105A91" stroke-width="2.71112" stroke-linecap="round" stroke-linejoin="round"/>
<path id="Path_106" d="M283.23 134.119L261.896 136.05" stroke="#105A91" stroke-width="2.71112" stroke-linecap="round" stroke-linejoin="round"/>
<path id="Path_107" d="M142.866 154.408L155.523 161.595L168.51 159.609V157.802L142.866 152.293V154.408Z" fill="#EA8021"/>
<path id="Path_108" d="M168.51 157.802L155.523 159.788L142.866 152.293L156.006 150.635L168.51 157.802Z" fill="#CC630D"/>
<path id="Path_109" d="M159.567 127.062H154.37V155.538L159.567 154.949V127.062Z" fill="#EA8021"/>
<path id="Path_110" d="M150.689 115.645H154.37V155.538L150.689 153.767V115.645Z" fill="#EF9D59"/>
<path id="Path_111" d="M175.856 126.392L137.098 128.526L131.612 102.593L132.875 101.006L176.992 124.85L175.856 126.392Z" fill="#CC630D"/>
<path id="Path_112" d="M138.344 126.913L132.875 101.005L171.993 100.076L176.992 124.85L138.344 126.913Z" fill="#EF9D59"/>
<path id="Path_113" d="M176.054 124.121L139.03 126.061L133.911 101.795L171.361 100.872L176.054 124.121Z" fill="white"/>
<path id="Path_114" d="M170.877 102.311C170.799 101.928 170.429 101.627 170.046 101.637C169.663 101.647 169.416 101.964 169.491 102.346C169.569 102.728 169.942 103.03 170.325 103.02C170.708 103.007 170.955 102.69 170.877 102.311Z" fill="#3790F4"/>
<path id="Path_115" d="M134.495 104.555L171.893 103.515" stroke="#3790F4" stroke-width="1.80741"/>
<path id="Path_116" fill-rule="evenodd" clip-rule="evenodd" d="M164.264 120.662L140.013 121.819L136.874 106.894L161.297 106.149L164.264 120.662Z" stroke="#E1E8EF" stroke-width="1.80741"/>
<path id="Path_117" fill-rule="evenodd" clip-rule="evenodd" d="M166.563 120.552L173.113 120.241L170.205 105.876L163.609 106.077L166.563 120.552Z" stroke="#E1E8EF" stroke-width="1.80741"/>
<path id="Path_118" d="M165.991 117.75L172.552 117.459" stroke="#E1E8EF" stroke-width="1.80741"/>
<path id="Path_119" fill-rule="evenodd" clip-rule="evenodd" d="M148.095 112.804L140.366 113.096L139.402 108.497L147.147 108.244L148.095 112.804Z" stroke="#E1E8EF" stroke-width="1.80741"/>
<path id="Path_120" d="M140.022 108.477C139.954 108.15 139.62 107.891 139.279 107.901C138.935 107.91 138.714 108.186 138.782 108.516C138.851 108.846 139.185 109.102 139.529 109.093C139.87 109.08 140.091 108.804 140.022 108.477Z" fill="#3790F4"/>
<path id="Path_121" fill-rule="evenodd" clip-rule="evenodd" d="M149.41 119.117L141.704 119.464L140.74 114.878L148.463 114.57L149.41 119.117Z" stroke="#E1E8EF" stroke-width="1.80741"/>
<path id="Path_122" d="M141.36 114.855C141.292 114.528 140.957 114.272 140.617 114.285C140.276 114.298 140.055 114.576 140.123 114.903C140.191 115.23 140.526 115.486 140.867 115.473C141.207 115.457 141.428 115.182 141.36 114.855Z" fill="#3790F4"/>
<path id="Path_123" fill-rule="evenodd" clip-rule="evenodd" d="M159.398 112.377L151.871 112.662L150.929 108.121L158.473 107.878L159.398 112.377Z" stroke="#E1E8EF" stroke-width="1.80741"/>
<path id="Path_124" d="M151.533 108.102C151.464 107.778 151.14 107.522 150.809 107.535C150.474 107.545 150.26 107.817 150.325 108.144C150.393 108.468 150.718 108.724 151.052 108.711C151.383 108.698 151.601 108.426 151.533 108.102Z" fill="#3790F4"/>
<path id="Path_125" fill-rule="evenodd" clip-rule="evenodd" d="M160.678 118.609L153.173 118.949L152.235 114.421L159.756 114.123L160.678 118.609Z" stroke="#E1E8EF" stroke-width="1.80741"/>
<path id="Path_126" d="M152.835 114.398C152.767 114.074 152.446 113.822 152.111 113.835C151.777 113.848 151.563 114.12 151.631 114.444C151.699 114.768 152.024 115.02 152.355 115.004C152.689 114.994 152.903 114.719 152.835 114.398Z" fill="#3790F4"/>
<path id="Path_127" d="M164.884 107.224L169.094 107.088" stroke="#3790F4" stroke-width="1.80741"/>
<path id="Path_128" d="M165.189 108.727L169.396 108.584" stroke="#BEC6CC" stroke-width="1.0332"/>
<path id="Path_129" d="M165.322 109.381L169.529 109.235" stroke="#BEC6CC" stroke-width="1.0332"/>
<path id="Path_130" d="M165.456 110.035L169.659 109.886" stroke="#BEC6CC" stroke-width="1.0332"/>
<path id="Path_131" d="M165.936 112.383L168.728 112.276" stroke="#BEC6CC" stroke-width="1.0332"/>
<path id="Path_132" d="M166.4 114.67L169.188 114.556" stroke="#BEC6CC" stroke-width="1.0332"/>
<path id="Path_133" d="M167.25 118.835L170.032 118.709" stroke="#3790F4" stroke-width="1.0332"/>
<path id="Shape_8" fill-rule="evenodd" clip-rule="evenodd" d="M170.924 113.615C170.789 113.606 170.662 113.587 170.535 113.555C170.408 113.522 170.302 113.48 170.203 113.433L170.295 113.307C170.302 113.297 170.316 113.288 170.33 113.279C170.34 113.272 170.353 113.27 170.367 113.268C170.374 113.267 170.38 113.266 170.387 113.265C170.408 113.265 170.436 113.269 170.472 113.279C170.5 113.288 170.542 113.302 170.578 113.316L170.578 113.316C170.62 113.33 170.662 113.344 170.712 113.358C170.761 113.372 170.818 113.382 170.881 113.386L170.797 112.891C170.712 112.877 170.627 112.863 170.549 112.844C170.465 112.825 170.387 112.802 170.316 112.769C170.246 112.736 170.182 112.699 170.126 112.648C170.069 112.601 170.034 112.535 170.013 112.461C169.998 112.405 169.998 112.348 170.013 112.297C170.034 112.241 170.062 112.194 170.118 112.152C170.168 112.11 170.239 112.073 170.323 112.04C170.408 112.012 170.514 111.993 170.634 111.993L170.613 111.853C170.613 111.834 170.613 111.82 170.634 111.806C170.655 111.792 170.676 111.783 170.705 111.783L170.853 111.778L170.888 111.993C171.008 112.002 171.121 112.021 171.213 112.049C171.305 112.077 171.397 112.115 171.468 112.152L171.397 112.255C171.392 112.259 171.389 112.264 171.385 112.268L171.385 112.268C171.378 112.277 171.371 112.284 171.362 112.288C171.347 112.297 171.333 112.302 171.305 112.302C171.295 112.302 171.281 112.299 171.263 112.296L171.242 112.292C171.213 112.288 171.185 112.278 171.157 112.269L171.051 112.241C171.016 112.232 170.973 112.222 170.924 112.218L171.001 112.676C171.086 112.69 171.171 112.704 171.256 112.722C171.34 112.741 171.418 112.765 171.489 112.793C171.559 112.821 171.623 112.858 171.679 112.905C171.729 112.952 171.771 113.008 171.792 113.073C171.814 113.143 171.814 113.204 171.8 113.265C171.785 113.326 171.75 113.382 171.694 113.428C171.644 113.475 171.574 113.517 171.482 113.545C171.397 113.578 171.291 113.597 171.164 113.606L171.192 113.77C171.192 113.788 171.192 113.802 171.171 113.816C171.157 113.83 171.129 113.84 171.1 113.84L170.952 113.844L170.924 113.615ZM170.394 112.433C170.401 112.461 170.415 112.484 170.437 112.507C170.458 112.526 170.486 112.545 170.514 112.564C170.542 112.578 170.578 112.592 170.62 112.606C170.663 112.62 170.705 112.629 170.747 112.638L170.677 112.232C170.632 112.235 170.592 112.245 170.557 112.253L170.528 112.26C170.486 112.274 170.458 112.288 170.437 112.306C170.415 112.325 170.401 112.344 170.394 112.367C170.387 112.386 170.387 112.409 170.394 112.433ZM171.383 113.059C171.404 113.078 171.418 113.101 171.425 113.129C171.446 113.199 171.432 113.255 171.39 113.302C171.347 113.344 171.262 113.372 171.149 113.386L171.072 112.938L171.199 112.966C171.234 112.975 171.269 112.989 171.305 113.003C171.333 113.022 171.361 113.04 171.383 113.059Z" fill="#3790F4"/>
<path id="Shape_9" fill-rule="evenodd" clip-rule="evenodd" d="M171.31 115.518C171.176 115.508 171.049 115.49 170.922 115.457C170.795 115.424 170.689 115.382 170.59 115.335L170.682 115.209C170.689 115.2 170.703 115.191 170.717 115.181L170.717 115.181C170.727 115.175 170.74 115.173 170.754 115.171C170.76 115.17 170.767 115.169 170.774 115.167C170.795 115.167 170.823 115.172 170.858 115.181L170.858 115.181C170.887 115.191 170.929 115.205 170.964 115.219C171 115.233 171.049 115.247 171.099 115.261C171.148 115.275 171.204 115.284 171.268 115.289L171.183 114.793C171.099 114.779 171.014 114.765 170.936 114.746C170.851 114.728 170.774 114.704 170.703 114.672C170.632 114.639 170.569 114.601 170.512 114.55C170.456 114.503 170.42 114.438 170.399 114.363C170.385 114.307 170.385 114.251 170.399 114.199C170.413 114.143 170.449 114.097 170.505 114.054C170.555 114.012 170.625 113.975 170.71 113.942C170.795 113.914 170.901 113.896 171.021 113.891L171 113.751C171 113.732 171 113.718 171.021 113.704C171.035 113.69 171.063 113.68 171.091 113.68L171.24 113.676L171.275 113.891C171.395 113.9 171.508 113.919 171.6 113.947C171.692 113.975 171.784 114.008 171.854 114.05L171.784 114.153C171.779 114.157 171.775 114.162 171.772 114.166L171.772 114.166C171.764 114.175 171.758 114.182 171.748 114.185C171.734 114.195 171.72 114.199 171.692 114.199C171.681 114.199 171.667 114.197 171.649 114.194L171.628 114.19C171.6 114.185 171.572 114.176 171.543 114.167L171.438 114.139C171.402 114.129 171.36 114.12 171.31 114.115L171.388 114.573C171.473 114.587 171.558 114.601 171.642 114.62C171.727 114.639 171.805 114.662 171.875 114.69C171.946 114.718 172.01 114.756 172.066 114.802C172.116 114.849 172.158 114.905 172.179 114.971C172.2 115.041 172.2 115.102 172.186 115.162C172.172 115.223 172.137 115.279 172.087 115.326C172.038 115.373 171.967 115.415 171.875 115.443C171.791 115.476 171.685 115.494 171.558 115.504L171.586 115.667C171.586 115.686 171.586 115.7 171.565 115.714C171.551 115.728 171.522 115.738 171.494 115.738L171.346 115.742L171.31 115.518ZM170.781 114.34C170.788 114.368 170.802 114.391 170.823 114.414C170.844 114.433 170.872 114.452 170.901 114.471C170.924 114.486 170.952 114.495 170.985 114.506L171.007 114.513C171.049 114.527 171.091 114.536 171.134 114.545L171.063 114.139C171.019 114.142 170.979 114.152 170.943 114.16L170.915 114.167C170.872 114.181 170.844 114.195 170.823 114.213C170.802 114.232 170.788 114.251 170.781 114.274C170.774 114.293 170.774 114.316 170.781 114.34ZM171.769 114.966C171.79 114.985 171.804 115.008 171.811 115.036C171.833 115.106 171.818 115.162 171.776 115.209C171.734 115.251 171.649 115.279 171.536 115.293L171.458 114.845L171.585 114.873C171.621 114.882 171.656 114.896 171.691 114.91C171.72 114.929 171.748 114.947 171.769 114.966Z" fill="#3790F4"/>
<path id="Shape_10" fill-rule="evenodd" clip-rule="evenodd" d="M172.02 119.778C171.865 119.771 171.724 119.752 171.582 119.718C171.441 119.688 171.319 119.647 171.21 119.598L171.312 119.471C171.319 119.459 171.332 119.448 171.351 119.441C171.37 119.433 171.39 119.429 171.415 119.429C171.441 119.429 171.473 119.433 171.512 119.444C171.55 119.456 171.589 119.467 171.634 119.482C171.679 119.497 171.73 119.512 171.788 119.523C171.846 119.538 171.91 119.546 171.981 119.553L171.885 119.058C171.788 119.047 171.698 119.032 171.602 119.013C171.505 118.994 171.422 118.972 171.338 118.942C171.255 118.912 171.184 118.871 171.126 118.822C171.068 118.773 171.023 118.709 170.997 118.634C170.978 118.578 170.978 118.522 170.997 118.469C171.017 118.417 171.055 118.364 171.113 118.323C171.171 118.278 171.248 118.241 171.345 118.211C171.441 118.181 171.563 118.166 171.698 118.162L171.672 118.023C171.666 118.004 171.679 117.989 171.692 117.974C171.711 117.959 171.737 117.952 171.775 117.952L171.949 117.948L171.994 118.166C172.129 118.173 172.258 118.192 172.36 118.222C172.47 118.252 172.566 118.286 172.65 118.323L172.573 118.424C172.56 118.439 172.547 118.451 172.534 118.458C172.521 118.466 172.502 118.469 172.476 118.469C172.457 118.469 172.431 118.466 172.405 118.462C172.38 118.454 172.348 118.447 172.309 118.439C172.293 118.436 172.277 118.432 172.26 118.429C172.237 118.423 172.213 118.417 172.187 118.413C172.142 118.406 172.097 118.398 172.045 118.391L172.135 118.848L172.425 118.893C172.521 118.912 172.611 118.934 172.688 118.961C172.772 118.991 172.843 119.028 172.901 119.069C172.958 119.114 173.003 119.171 173.029 119.238C173.055 119.306 173.055 119.369 173.036 119.433C173.016 119.493 172.978 119.549 172.92 119.594C172.862 119.643 172.785 119.681 172.682 119.714C172.585 119.744 172.463 119.767 172.322 119.778L172.354 119.939C172.36 119.954 172.348 119.973 172.335 119.988C172.315 120.003 172.29 120.011 172.251 120.011L172.078 120.014L172.02 119.778ZM171.421 118.6C171.434 118.627 171.447 118.653 171.473 118.672C171.498 118.69 171.524 118.709 171.563 118.728C171.595 118.743 171.64 118.758 171.685 118.769C171.73 118.78 171.775 118.792 171.826 118.799L171.743 118.39C171.672 118.398 171.621 118.409 171.576 118.42C171.531 118.435 171.498 118.45 171.473 118.469C171.447 118.488 171.434 118.507 171.421 118.529C171.408 118.552 171.408 118.574 171.421 118.6ZM172.534 119.223C172.56 119.242 172.579 119.268 172.585 119.294C172.611 119.362 172.598 119.418 172.54 119.463C172.489 119.508 172.392 119.534 172.264 119.55L172.174 119.103C172.196 119.108 172.218 119.112 172.24 119.116C172.268 119.122 172.296 119.127 172.322 119.133C172.367 119.141 172.405 119.156 172.444 119.171L172.444 119.171C172.482 119.186 172.508 119.204 172.534 119.223Z" fill="#3790F4"/>
<path id="Path_134" fill-rule="evenodd" clip-rule="evenodd" d="M169.423 122.353L167.407 122.453C167.157 122.466 166.917 122.275 166.865 122.029C166.816 121.783 166.975 121.572 167.225 121.563L169.241 121.465C169.488 121.453 169.731 121.644 169.78 121.887C169.828 122.129 169.669 122.34 169.423 122.353Z" stroke="#3790F4" stroke-width="1.0332"/>
<path id="Path_135" d="M173.051 122.171L171.052 122.272C170.805 122.285 170.565 122.097 170.516 121.851C170.467 121.605 170.626 121.397 170.873 121.384L172.873 121.287C173.119 121.274 173.356 121.462 173.408 121.708C173.457 121.951 173.298 122.159 173.051 122.171Z" fill="#3790F4"/>
<path id="Path_136" d="M140.808 109.546L145.45 109.391" stroke="#3790F4" stroke-width="1.0332"/>
<path id="Path_137" d="M140.948 110.22L145.59 110.061" stroke="#BEC6CC" stroke-width="1.0332"/>
<path id="Path_138" d="M152.51 109.822L157.032 109.666" stroke="#3790F4" stroke-width="1.0332"/>
<path id="Path_139" d="M152.702 110.741L157.221 110.58" stroke="#BEC6CC" stroke-width="1.0332"/>
<path id="Path_140" d="M153.753 115.827L158.259 115.639" stroke="#3790F4" stroke-width="1.0332"/>
<path id="Path_141" d="M153.919 116.633L158.424 116.442" stroke="#BEC6CC" stroke-width="1.0332"/>
<path id="Path_142" d="M141.269 111.746L145.904 111.577" stroke="#BEC6CC" stroke-width="1.0332"/>
<path id="Path_143" d="M142.12 115.817L146.752 115.625" stroke="#3790F4" stroke-width="1.0332"/>
<path id="Path_144" d="M142.48 117.527L147.106 117.33" stroke="#BEC6CC" stroke-width="1.0332"/>
<path id="Path_145" d="M142.659 118.385L147.284 118.185" stroke="#BEC6CC" stroke-width="1.0332"/>
<path id="Path_146" d="M137.098 128.526L138.345 126.913L176.992 124.85L175.856 126.392L137.098 128.526Z" fill="#BC580D"/>
<path id="Path_147" d="M155.523 161.595V159.787L142.866 152.293V154.408L155.523 161.595Z" fill="#EF9D59"/>
<path id="Path_148" d="M119.15 133.77L108.766 131.046C108.11 130.874 107.412 130.942 106.802 131.24L85.4235 141.682C85.1444 141.818 84.9658 142.1 84.9658 142.411V143.567L119.657 135.716V134.427C119.657 134.119 119.449 133.851 119.15 133.77Z" fill="#3790F4"/>
<path id="Path_149" d="M85.1607 143.247L106.835 132.879C107.425 132.597 108.097 132.526 108.734 132.681L119.3 135.269C119.722 135.373 119.793 135.943 119.407 136.144L100.583 146.045L85.2613 143.888C84.9237 143.843 84.8555 143.392 85.1607 143.247Z" fill="#1773C6"/>
<path id="Path_150" d="M117.04 137.582C117.04 137.582 105.773 141.255 99.4173 142.22C93.0615 143.182 85.7838 144.843 85.7838 144.843L83.4272 144.383C82.3884 145.592 81.6126 147.739 81.4503 150.226C81.3724 151.428 81.4471 152.568 81.6418 153.575L89.2019 154.508L98.9596 154.051C100.544 153.977 102.069 153.436 103.342 152.494L111.736 146.285C111.736 146.285 112.395 145.715 112.045 144.798C112.045 144.798 113.755 144.361 113.71 142.217C113.71 142.217 116.602 140.685 116.865 139.285C117.128 137.886 117.04 137.582 117.04 137.582Z" fill="#EFC6BD"/>
<path id="Path_151" d="M113.71 142.22L102.793 145.433" stroke="#DBA59C" stroke-width="1.80741" stroke-linecap="round"/>
<path id="Path_152" d="M112.044 144.798L104.591 149.174" stroke="#DBA59C" stroke-width="1.80741" stroke-linecap="round"/>
<path id="Path_153" d="M85.7842 144.844C85.7842 144.844 88.1506 135.788 88.5466 133.624C88.9426 131.457 91.0461 134.411 91.1759 136.38C91.309 138.35 92.3315 143.47 92.3315 143.47L88.0175 146.049L85.7842 144.844Z" fill="#EFC6BD"/>
<path id="Path_154" d="M326.993 205.997C338.287 188.601 340.108 168.75 338.111 150.437L0.178711 202.943C0.240386 204.922 0.29557 205.997 0.29557 205.997H326.993Z" fill="#7DB8FB"/>
<path id="Path_155" d="M325.809 169.974C327.516 169.974 328.899 168.594 328.899 166.891C328.899 165.188 327.516 163.807 325.809 163.807C324.102 163.807 322.718 165.188 322.718 166.891C322.718 168.594 324.102 169.974 325.809 169.974Z" fill="#EA8021"/>
<path id="Path_156" d="M257.69 182.9C259.397 182.9 260.78 181.52 260.78 179.817C260.78 178.114 259.397 176.733 257.69 176.733C255.983 176.733 254.6 178.114 254.6 179.817C254.6 181.52 255.983 182.9 257.69 182.9Z" fill="#EA8021"/>
<path id="Path_157" d="M178.151 196.685C179.858 196.685 181.242 195.305 181.242 193.602C181.242 191.899 179.858 190.518 178.151 190.518C176.445 190.518 175.061 191.899 175.061 193.602C175.061 195.305 176.445 196.685 178.151 196.685Z" fill="#EA8021"/>
<path id="Path_158" d="M325.809 201.861C327.516 201.861 328.899 200.48 328.899 198.777C328.899 197.074 327.516 195.694 325.809 195.694C324.102 195.694 322.718 197.074 322.718 198.777C322.718 200.48 324.102 201.861 325.809 201.861Z" fill="#EA8021"/>
<path id="Path_159" d="M142.876 183.309V205.997H140.747V183.649" fill="#ADD0EA"/>
<path id="Path_160" d="M153.516 181.637V205.997H155.646V181.21" fill="#ADD0EA"/>
<path id="Path_161" d="M279.033 161.644V205.997H276.903V161.974" fill="#ADD0EA"/>
<path id="Path_162" d="M291.802 159.609V205.997H289.673V159.949" fill="#ADD0EA"/>
<path id="Path_163" d="M338.25 151.772L0.272461 205.55C0.285445 205.842 0.291937 205.994 0.291937 205.994H3.10953L338.332 152.653C338.309 152.361 338.28 152.066 338.25 151.772Z" fill="#ADD0EA"/>
<path id="Path_164" d="M179.881 205.996H185.279L337.127 180.746C337.189 180.438 337.247 180.128 337.306 179.82L179.881 205.996Z" fill="#ADD0EA"/>
<path id="Path_165" d="M113.437 166.933L126.038 164.484C126.038 164.484 128.869 156.688 120.364 154.418C111.86 152.147 101.206 153.226 101.206 153.226L90.8965 154.946L113.437 166.933Z" fill="#105A91"/>
<path id="Path_166" d="M114.145 159.979L125.574 157.961" stroke="#0B2E44" stroke-width="1.80741"/>
<path id="Path_167" d="M115.19 158.405L122.818 157.116" stroke="white" stroke-width="1.80741" stroke-linecap="round"/>
<path id="Path_168" d="M144.168 184.209C145.336 181.974 146.346 180.04 146.7 178.47C147.232 176.102 146.959 174.198 145.865 172.649C144.038 170.055 139.909 168.487 132.479 167.558C124.815 166.602 122.5 164.921 121.848 164.212C121.666 164.014 121.387 163.94 121.127 164.008C120.582 164.147 120.381 164.814 120.76 165.229C121.793 166.346 124.61 168.066 132.294 169.025C139.179 169.883 143.106 171.305 144.655 173.501C145.492 174.69 145.69 176.212 145.255 178.149C144.944 179.532 143.976 181.385 142.856 183.529C139.808 189.359 135.332 197.919 140.35 206H142.129C136.751 198.402 141.009 190.246 144.168 184.209Z" fill="#EA8021"/>
<path id="Path_169" d="M90.377 159.198L113.437 166.933C113.437 166.933 117.086 157.048 109.561 155.295C102.037 153.546 90.8931 154.946 90.8931 154.946L90.377 159.198Z" fill="#0B2E44"/>
<path id="Path_170" d="M111.626 155.373L119.248 154.716C119.248 154.716 115.502 153.533 111.129 153.763L105.202 154.35C105.205 154.353 108.997 154.061 111.626 155.373Z" fill="white"/>
<path id="Path_171" d="M102.057 153.556C102.491 153.556 102.842 153.495 102.842 153.42C102.842 153.345 102.491 153.284 102.057 153.284C101.623 153.284 101.271 153.345 101.271 153.42C101.271 153.495 101.623 153.556 102.057 153.556Z" fill="#EA8021"/>
<path id="Path_172" d="M99.7255 153.977C100.159 153.977 100.511 153.916 100.511 153.841C100.511 153.766 100.159 153.705 99.7255 153.705C99.2915 153.705 98.9399 153.766 98.9399 153.841C98.9399 153.916 99.2915 153.977 99.7255 153.977Z" fill="#EA8021"/>
<path id="Path_173" d="M96.8886 154.379C97.3226 154.379 97.6741 154.318 97.6741 154.243C97.6741 154.168 97.3226 154.107 96.8886 154.107C96.4546 154.107 96.103 154.168 96.103 154.243C96.103 154.318 96.4546 154.379 96.8886 154.379Z" fill="#EA8021"/>
<path id="Path_174" d="M106.787 153.472C107.221 153.472 107.572 153.411 107.572 153.336C107.572 153.261 107.221 153.2 106.787 153.2C106.353 153.2 106.001 153.261 106.001 153.336C106.001 153.411 106.353 153.472 106.787 153.472Z" fill="#EA8021"/>
<path id="Path_175" d="M104.232 153.776C104.666 153.776 105.017 153.715 105.017 153.64C105.017 153.565 104.666 153.504 104.232 153.504C103.798 153.504 103.446 153.565 103.446 153.64C103.446 153.715 103.798 153.776 104.232 153.776Z" fill="#EA8021"/>
<path id="Path_176" d="M101.677 154.078C102.111 154.078 102.463 154.017 102.463 153.941C102.463 153.866 102.111 153.805 101.677 153.805C101.243 153.805 100.892 153.866 100.892 153.941C100.892 154.017 101.243 154.078 101.677 154.078Z" fill="#EA8021"/>
<path id="Path_177" d="M109.659 153.692C110.08 153.692 110.422 153.634 110.422 153.563C110.422 153.491 110.08 153.433 109.659 153.433C109.237 153.433 108.896 153.491 108.896 153.563C108.896 153.634 109.237 153.692 109.659 153.692Z" fill="#EA8021"/>
<path id="Path_178" d="M107.186 153.984C107.607 153.984 107.949 153.926 107.949 153.854C107.949 153.783 107.607 153.725 107.186 153.725C106.764 153.725 106.423 153.783 106.423 153.854C106.423 153.926 106.764 153.984 107.186 153.984Z" fill="#EA8021"/>
<path id="Path_179" d="M104.709 154.278C105.13 154.278 105.471 154.22 105.471 154.149C105.471 154.077 105.13 154.019 104.709 154.019C104.287 154.019 103.946 154.077 103.946 154.149C103.946 154.22 104.287 154.278 104.709 154.278Z" fill="#EA8021"/>
<path id="Path_180" d="M212.482 45.5299C212.482 45.5299 204.941 43.0425 210.553 34.1194C210.553 34.1194 210.466 35.7388 211.605 37.0052C212.745 38.2716 214.673 40.1502 214.368 41.7923C214.059 43.4344 212.482 45.5299 212.482 45.5299Z" fill="#EF9D59"/>
<path id="Path_181" d="M249.217 143.001L234.782 137.945V121.702L253.226 127.636L249.217 143.001Z" fill="#514132"/>
<path id="Path_182" d="M236.042 122.829L234.987 123.379L235.542 124.429L242.466 137.494L242.738 138.009C242.862 138.243 243.141 138.346 243.388 138.252C243.68 138.142 243.81 137.802 243.664 137.524L236.042 122.829Z" fill="#3A2C20"/>
<path id="Path_183" d="M240.446 147.253L236.704 137.18L219.46 138.803V141.705L208.492 143.389L203.717 170.035L192.313 205.993H219.457H222.34H243.728L244.712 191.739C245.718 177.177 245.533 160.944 240.446 147.253Z" fill="white"/>
<path id="Path_184" d="M231 188.4C234.327 180.782 235.934 172.364 235.638 164.06C235.622 163.571 235.216 163.195 234.72 163.205C234.23 163.221 233.847 163.632 233.863 164.121C234.149 172.164 232.594 180.313 229.37 187.691L221.528 205.641C221.476 205.757 221.453 205.877 221.453 205.994H223.31L231 188.4Z" fill="#5FA6F6"/>
<path id="Path_185" d="M235.911 138.443L239.336 147.664C243.498 158.864 244.832 172.843 243.533 191.661L242.628 204.814L242.556 205.997H243.731L244.715 191.742C245.718 177.177 245.533 160.944 240.446 147.253L236.704 137.18L219.46 138.803V141.705L208.492 143.389L203.717 170.035L192.313 205.993H193.563L193.93 204.811L204.843 170.392C204.86 170.343 204.873 170.294 204.879 170.243L209.505 144.429L219.636 142.871C220.213 142.783 220.639 142.288 220.639 141.705V139.878L235.911 138.443Z" fill="#5FA6F6"/>
<path id="Path_186" d="M175.954 151.985C180.532 151.985 184.244 148.282 184.244 143.713C184.244 139.145 180.532 135.441 175.954 135.441C171.375 135.441 167.663 139.145 167.663 143.713C167.663 148.282 171.375 151.985 175.954 151.985Z" fill="#514132"/>
<path id="Path_187" d="M162.424 115.046C165.075 115.046 167.224 112.901 167.224 110.256C167.224 107.61 165.075 105.465 162.424 105.465C159.772 105.465 157.623 107.61 157.623 110.256C157.623 112.901 159.772 115.046 162.424 115.046Z" fill="#514132"/>
<path id="Path_188" d="M169.77 138.207L182.495 121.089L194.859 134.038L181.865 149.507L169.77 138.207Z" fill="#514132"/>
<path id="Path_189" d="M169.075 148.328C169.075 148.328 161.17 136.503 157.879 111.81L166.757 108.189L176.401 132.043L169.075 148.328Z" fill="#514132"/>
<path id="Path_190" d="M166.758 108.186C166.758 108.186 158.821 80.8888 158.516 80.3641C158.211 79.8394 156.717 80.0564 157.376 84.9569C158.035 89.8573 158.256 94.9747 157.883 95.1043C157.509 95.2371 151.108 84.6071 150.011 83.1172C148.914 81.6305 147.557 83.467 148.346 85.6111C148.346 85.6111 147.206 84.6913 146.46 85.1285C145.713 85.5658 145.976 87.4476 149.047 94.5763C149.047 94.5763 145.541 90.4759 144.619 90.8872C143.697 91.2953 143.522 92.2152 148.696 99.6517C153.871 107.088 155.315 108.75 156.325 109.844C157.334 110.939 157.883 111.804 157.883 111.804L166.758 108.186Z" fill="#514132"/>
<path id="Path_191" d="M166.435 107.085C166.435 107.085 166.685 93.2254 166.435 91.3468C166.185 89.465 165.179 90.7347 164.52 92.6165C163.861 94.4982 162.634 97.342 162.634 97.342L166.435 107.085Z" fill="#514132"/>
<path id="Path_192" d="M218.046 49.9963H212.131V53.6271H218.046V49.9963Z" fill="#25272B"/>
<path id="Path_193" d="M228.264 72.0921C228.134 72.0921 228.004 72.0824 227.874 72.0565C226.667 71.8427 225.862 70.6961 226.076 69.4913C226.975 64.4062 226.599 59.0135 226.576 58.7058C225.729 49.7471 221.928 49.6888 216.179 49.6013C215.835 49.5949 215.494 49.5916 215.153 49.5819C210.436 49.4718 206.272 54.8192 206.23 54.8742C205.493 55.8524 204.1 56.0467 203.123 55.3115C202.143 54.5763 201.948 53.1868 202.685 52.2086C202.906 51.9171 208.093 45.1511 215.02 45.1511C215.098 45.1511 215.176 45.1511 215.254 45.1544C215.585 45.1608 215.916 45.1673 216.25 45.1706C221.963 45.258 229.786 45.3746 231.004 58.3074C231.004 58.3172 231.007 58.3301 231.007 58.3398C231.026 58.5892 231.478 64.4743 230.455 70.2589C230.257 71.3374 229.319 72.0921 228.264 72.0921Z" fill="#25272B"/>
<path id="Path_194" d="M209.719 74.1L211.955 91.5965L228.001 86.8709L220.827 62.8579L209.719 74.1Z" fill="#514132"/>
<path id="Path_195" d="M215.753 72.6035L216.334 67.4019L215.328 68.4221L214.87 72.5063C214.676 74.2553 213.553 75.7646 211.933 76.4578L210.118 77.2351L210.235 78.1484L212.283 77.2707C214.195 76.4513 215.523 74.6634 215.753 72.6035Z" fill="#3A2C20"/>
<path id="Path_196" d="M207.813 112.186C214.059 112.186 219.123 107.134 219.123 100.902C219.123 94.6697 214.059 89.6177 207.813 89.6177C201.567 89.6177 196.504 94.6697 196.504 100.902C196.504 107.134 201.567 112.186 207.813 112.186Z" fill="#3790F4"/>
<path id="Path_197" d="M199.04 93.7793L178.768 120.432C178.768 120.432 188 133.368 198.15 136.52L209.719 115.421L199.04 93.7793Z" fill="#3790F4"/>
<path id="Path_198" d="M251.701 143.392C256.102 143.392 259.67 139.833 259.67 135.441C259.67 131.049 256.102 127.49 251.701 127.49C247.299 127.49 243.731 131.049 243.731 135.441C243.731 139.833 247.299 143.392 251.701 143.392Z" fill="#514132"/>
<path id="Path_199" d="M259.008 132.264L251.701 117.329L237.213 124.879L244.137 137.945L259.008 132.264Z" fill="#514132"/>
<path id="Path_200" d="M203.718 90.382L230.673 82.0225C236.13 80.3285 241.538 84.7723 240.921 90.4435L237.081 125.728L238.684 136.222C238.808 137.022 238.574 137.838 238.038 138.447C235.825 140.976 229.472 147.509 222.21 148.329C216.221 149.006 210.619 146.615 207.525 144.928C206.039 144.118 205.298 142.398 205.743 140.769L206.665 137.385C206.857 136.678 206.905 135.94 206.801 135.218L203.714 113.187V90.382H203.718Z" fill="#3790F4"/>
<path id="Path_201" d="M207.262 127.746C211.638 127.746 215.186 124.206 215.186 119.839C215.186 115.473 211.638 111.933 207.262 111.933C202.886 111.933 199.338 115.473 199.338 119.839C199.338 124.206 202.886 127.746 207.262 127.746Z" fill="#3790F4"/>
<path id="Path_202" d="M237.083 96.3577C241.151 96.3577 244.448 93.0673 244.448 89.0087C244.448 84.95 241.151 81.6597 237.083 81.6597C233.015 81.6597 229.718 84.95 229.718 89.0087C229.718 93.0673 233.015 96.3577 237.083 96.3577Z" fill="#3790F4"/>
<path id="Path_203" d="M243.816 86.0352C243.816 86.0352 251.869 106.343 259.004 119.839C259.004 119.839 249.59 130.317 239.242 132.053L235.889 116.717V93.3583L243.816 86.0352Z" fill="#3790F4"/>
<path id="Shape_11" fill-rule="evenodd" clip-rule="evenodd" d="M233.678 100.526C233.737 101.711 233.217 102.757 232.516 102.858C231.815 102.958 231.201 102.068 231.149 100.879C231.094 99.6966 231.62 98.657 232.315 98.563C233.009 98.4691 233.62 99.3468 233.678 100.526ZM233.016 100.62C232.99 100.056 232.698 99.6383 232.367 99.6836C232.036 99.729 231.786 100.224 231.815 100.788C231.841 101.352 232.133 101.773 232.464 101.727C232.795 101.679 233.042 101.183 233.016 100.62Z" fill="white"/>
<path id="Shape_12" fill-rule="evenodd" clip-rule="evenodd" d="M230.79 100.931C230.842 102.12 230.313 103.172 229.608 103.273C228.904 103.373 228.29 102.479 228.245 101.287C228.196 100.099 228.728 99.0588 229.43 98.9617C230.128 98.8645 230.738 99.7455 230.79 100.931ZM230.124 101.021C230.098 100.458 229.809 100.037 229.475 100.082C229.141 100.131 228.888 100.626 228.913 101.19C228.936 101.757 229.228 102.181 229.563 102.132C229.897 102.087 230.147 101.588 230.124 101.021Z" fill="white"/>
<path id="Shape_13" fill-rule="evenodd" clip-rule="evenodd" d="M226.732 104.406C222.775 104.973 219.652 110.991 219.811 117.981C219.974 125.151 223.506 130.541 227.651 129.828C231.754 129.122 234.776 122.703 234.429 115.681C234.088 108.837 230.653 103.846 226.732 104.406ZM232.409 109.822C231.604 110.787 231.189 112.296 230.715 114.026C230.056 116.429 229.299 119.182 227.228 121.705C224.671 124.824 222.132 123.914 221.59 123.668C221.512 123.471 221.441 123.267 221.373 123.059C221.613 123.062 221.905 123.046 222.233 122.991C223.752 122.742 226.018 121.686 227.248 117.815C227.998 115.458 228.335 113.582 228.631 111.937C229.014 109.806 229.296 108.248 230.315 106.794C231.13 107.529 231.844 108.562 232.409 109.822ZM221.369 121.702C221.236 121.722 221.113 121.738 221.002 121.744C221.005 121.76 221.009 121.777 221.018 121.796C221.84 121.874 225.17 121.88 226.65 117.252C227.364 115.017 227.692 113.214 227.98 111.633L227.98 111.633L227.985 111.607L227.987 111.593L227.987 111.593C228.366 109.513 228.672 107.833 229.656 106.266C229.039 105.854 228.381 105.602 227.692 105.537C227.099 107.086 226.914 109.005 226.716 111.052L226.716 111.052L226.715 111.062L226.712 111.098C226.499 113.29 226.276 115.576 225.534 117.683C224.456 120.73 222.521 121.518 221.369 121.702ZM226.911 105.543L226.911 105.543L226.911 105.543C226.405 107.169 226.22 109.048 226.038 110.887L226.038 110.887L226.038 110.897L226.035 110.923C225.831 113.004 225.619 115.17 224.944 117.073C223.824 120.228 221.493 120.513 220.756 120.52C220.617 119.674 220.532 118.79 220.509 117.87C220.36 111.541 223.184 106.074 226.774 105.556C226.82 105.549 226.865 105.546 226.911 105.543ZM222.279 125.161C223.6 127.567 225.521 128.928 227.602 128.571C231.312 127.937 234.052 122.146 233.74 115.784C233.65 113.935 233.312 112.235 232.789 110.777C232.134 111.574 231.773 112.892 231.329 114.521C230.67 116.941 229.839 119.985 227.615 122.706C226.265 124.358 224.931 124.999 223.83 125.18C223.23 125.281 222.701 125.245 222.279 125.161Z" fill="white"/>
<path id="Path_204" d="M206.125 53.3417C206.125 53.3417 201.097 62.0867 200.419 77.0729C200.328 79.1102 202.409 80.5385 204.288 79.7353L211.936 76.4576C213.556 75.7644 214.679 74.2551 214.874 72.5061L217.253 51.2559L206.125 53.3417Z" fill="#514132"/>
<path id="Path_205" d="M234.863 87.5122C234.084 87.5122 233.328 87.1008 232.922 86.3721C230.776 82.5178 230.478 77.0571 230.192 71.7777C229.867 65.8376 229.533 59.6967 226.621 56.9113C221.561 52.0724 212.689 57.287 212.598 57.342C211.55 57.9704 210.187 57.6335 209.554 56.5874C208.921 55.5412 209.255 54.1841 210.303 53.5526C210.784 53.2611 222.171 46.5242 229.692 53.7177C233.87 57.7145 234.253 64.7461 234.626 71.5413C234.886 76.3219 235.155 81.2644 236.804 84.2247C237.398 85.2935 237.012 86.6409 235.941 87.2369C235.6 87.4215 235.23 87.5122 234.863 87.5122Z" fill="#25272B"/>
<path id="Path_206" d="M232.562 92.3674C231.757 92.3674 230.978 91.927 230.585 91.1626C226.388 82.9779 226.105 75.4087 225.882 69.3293C225.735 65.352 225.609 61.9188 224.255 60.3868C220.788 56.4677 215.014 60.9244 214.77 61.1155C213.809 61.8702 212.414 61.7082 211.654 60.7528C210.894 59.7973 211.053 58.4078 212.008 57.6467C215.205 55.1042 222.577 51.7973 227.582 57.4556C229.985 60.1698 230.131 64.1406 230.316 69.1641C230.523 74.8095 230.783 81.8346 234.536 89.1448C235.094 90.233 234.662 91.5674 233.571 92.1245C233.247 92.2897 232.903 92.3674 232.562 92.3674Z" fill="#25272B"/>
<path id="Path_207" d="M229.537 97.5526C228.771 97.5526 228.024 97.1542 227.612 96.4449C223.85 89.9445 222.506 83.9979 222.645 74.5047C222.765 66.4723 220.639 62.4561 220.62 62.4173C220.019 61.3517 220.406 60.0075 221.473 59.4116C222.541 58.8124 223.898 59.2011 224.499 60.2666C224.609 60.4642 227.222 65.2254 227.083 74.5695C226.953 83.2821 228.099 88.4287 231.455 94.2295C232.069 95.2886 231.705 96.6425 230.644 97.2546C230.296 97.4554 229.913 97.5526 229.537 97.5526Z" fill="#25272B"/>
<path id="Path_208" d="M226.053 101.621C225.323 101.621 224.606 101.261 224.184 100.6C220.022 94.1195 219.818 90.1778 219.363 81.5429C218.912 72.9469 218.071 66.4238 218.065 66.3591C217.906 65.1477 218.766 64.0368 219.98 63.8781C221.194 63.7194 222.307 64.5744 222.467 65.789C222.502 66.0611 223.336 72.5356 223.797 81.313C224.262 90.1648 224.544 92.9502 227.923 98.2134C228.585 99.2434 228.283 100.613 227.251 101.274C226.878 101.507 226.462 101.621 226.053 101.621Z" fill="#25272B"/>
<path id="Path_209" d="M221.516 103.72C220.876 103.72 220.24 103.444 219.802 102.913C215.926 98.2136 215.286 94.8581 215.218 86.4986C215.153 78.3074 215.218 69.9479 215.218 69.8637C215.228 68.6459 216.221 67.6677 217.439 67.6677C217.445 67.6677 217.452 67.6677 217.455 67.6677C218.682 67.6774 219.665 68.6783 219.656 69.8993C219.656 69.9835 219.591 78.3107 219.656 86.4662C219.717 94.369 220.285 96.5358 223.226 100.102C224.005 101.048 223.869 102.44 222.921 103.218C222.509 103.554 222.012 103.72 221.516 103.72Z" fill="#25272B"/>
<path id="Path_210" d="M231.65 73.3126C231.517 73.3061 231.38 73.2835 231.241 73.2511C229.978 72.9499 229.128 71.677 229.335 70.4041C230.17 65.2608 229.78 59.7935 229.722 59.0648C229.154 55.6866 227.294 51.2494 218.211 50.9514C213.433 50.7862 209.46 54.7992 209.421 54.8413C208.599 55.6802 207.288 55.6413 206.489 54.7571C205.694 53.8761 205.701 52.4899 206.506 51.6478C206.713 51.4308 211.699 46.2971 218.276 46.4494C229.835 46.7117 233.399 53.1571 234.299 58.5692C234.308 58.6275 234.315 58.6826 234.321 58.7409C234.347 59.0065 234.912 65.3126 233.919 71.4762C233.737 72.6195 232.76 73.3774 231.65 73.3126Z" fill="#25272B"/>
<path id="Path_211" d="M202.574 63.71L199.542 67.6387C198.792 68.6071 199.007 70.0063 200.013 70.7092L202.577 72.5035V63.71H202.574Z" fill="#514132"/>
<path id="Path_212" d="M212.644 45.8117C212.644 45.8117 216.639 53.6725 215.623 62.5308C214.607 71.3891 215.185 74.1454 215.185 74.1454C215.185 74.1454 223.154 73.6855 225.128 59.6449C227.102 45.6044 221.577 43.6514 221.577 43.6514L212.644 45.8117Z" fill="#EA8021"/>
<path id="Path_213" fill-rule="evenodd" clip-rule="evenodd" d="M221.977 51.7747C222.659 51.7747 223.213 51.2221 223.213 50.5407C223.213 49.8592 222.659 49.3066 221.977 49.3066C221.294 49.3066 220.74 49.8592 220.74 50.5407C220.74 51.2221 221.294 51.7747 221.977 51.7747Z" stroke="#CC630D" stroke-width="1.80741" stroke-linecap="round"/>
<path id="Path_214" fill-rule="evenodd" clip-rule="evenodd" d="M216.321 48.4348C217.004 48.4348 217.558 47.8823 217.558 47.2008C217.558 46.5193 217.004 45.9668 216.321 45.9668C215.638 45.9668 215.084 46.5193 215.084 47.2008C215.084 47.8823 215.638 48.4348 216.321 48.4348Z" stroke="#CC630D" stroke-width="1.80741" stroke-linecap="round"/>
<path id="Path_215" fill-rule="evenodd" clip-rule="evenodd" d="M217.078 68.8982C217.761 68.8982 218.315 68.3456 218.315 67.6642C218.315 66.9827 217.761 66.4302 217.078 66.4302C216.395 66.4302 215.841 66.9827 215.841 67.6642C215.841 68.3456 216.395 68.8982 217.078 68.8982Z" stroke="#CC630D" stroke-width="1.80741" stroke-linecap="round"/>
<path id="Path_216" d="M217.343 65.8243C218.108 62.7775 217.691 60.0481 216.411 59.7281C215.131 59.4081 213.473 61.6186 212.708 64.6654C211.942 67.7122 212.36 70.4416 213.64 70.7616C214.919 71.0816 216.578 68.8714 217.343 65.8243Z" fill="#514132"/>
<path id="Path_217" d="M213.842 72.3736C214.501 72.3736 215.036 71.8398 215.036 71.1817C215.036 70.5235 214.501 69.9897 213.842 69.9897C213.182 69.9897 212.647 70.5235 212.647 71.1817C212.647 71.8398 213.182 72.3736 213.842 72.3736Z" fill="#EF9D59"/>
<path id="Path_218" d="M215.199 47.6316C217.06 47.6316 218.568 46.1265 218.568 44.2697C218.568 42.4128 217.06 40.9077 215.199 40.9077C213.338 40.9077 211.83 42.4128 211.83 44.2697C211.83 46.1265 213.338 47.6316 215.199 47.6316Z" fill="#EF9D59"/>
<path id="Path_219" d="M215.623 47.6318C216.787 47.6318 217.73 46.6906 217.73 45.5298C217.73 44.369 216.787 43.4277 215.623 43.4277C214.46 43.4277 213.517 44.369 213.517 45.5298C213.517 46.6906 214.46 47.6318 215.623 47.6318Z" fill="#EA8021"/>
<path id="Path_220" d="M217.886 42.2458C217.886 42.2458 223.486 37.4166 230.017 40.9081C230.017 40.9081 228.264 41.4685 227.563 43.13C226.862 44.7915 223.528 47.9786 219.409 47.632C215.286 47.2855 217.886 42.2458 217.886 42.2458Z" fill="#EF9D59"/>
<path id="Path_221" d="M151.939 98.6569C152.033 98.6569 152.131 98.6277 152.212 98.563C152.406 98.414 152.442 98.1354 152.29 97.9411L148.287 92.7913C148.518 93.3484 148.771 93.9443 149.044 94.5824C149.044 94.5824 147.752 93.0731 146.528 91.9751L151.585 98.482C151.676 98.5954 151.806 98.6569 151.939 98.6569Z" fill="#3A2C20"/>
<path id="Path_222" d="M149.657 88.8533C149.657 88.8533 152.156 91.0687 152.77 94.7934C152.77 94.7934 149.965 91.6063 149.657 88.8533Z" fill="#3A2C20"/>
<path id="Path_223" d="M209.437 115.94L203.49 126.787C203.838 126.975 204.198 127.14 204.571 127.272L210.473 116.506C210.628 116.221 210.524 115.862 210.239 115.706C209.953 115.548 209.593 115.655 209.437 115.94Z" fill="#1773C6"/>
<path id="Path_224" d="M240.498 94.3332L237.083 125.728L238.08 132.247L239.249 132.053L238.278 125.702L241.677 94.4627C241.709 94.1583 241.505 93.8797 241.206 93.8214C240.862 93.7502 240.537 93.9898 240.498 94.3332Z" fill="#1773C6"/>
<path id="Path_225" d="M168.857 138.518C169.088 138.706 169.428 138.667 169.607 138.427L175.68 130.259L175.194 129.051L168.77 137.812C168.604 138.032 168.643 138.343 168.857 138.518Z" fill="#3A2C20"/>
<path id="Path_226" d="M166.426 107.053C166.432 106.78 166.452 105.621 166.475 104.044C165.553 100.882 164.618 97.676 163.738 94.6768C163.55 95.1496 163.365 95.6031 163.199 96.0015C164.563 100.659 165.845 105.054 166.426 107.053Z" fill="#3A2C20"/>
<path id="Path_227" d="M222.826 64.7849C221.762 64.7849 220.895 63.9201 220.895 62.8577C220.895 61.7954 221.762 60.9306 222.826 60.9306C223.68 60.9306 224.407 61.4877 224.66 62.2553C224.725 61.9606 224.787 61.6594 224.845 61.3517C224.384 60.7395 223.651 60.3379 222.826 60.3379C221.434 60.3379 220.301 61.4683 220.301 62.8577C220.301 64.2472 221.434 65.3776 222.826 65.3776C223.193 65.3776 223.544 65.2966 223.858 65.1541C223.956 64.8658 224.05 64.5711 224.144 64.2666C223.8 64.5873 223.336 64.7849 222.826 64.7849Z" fill="#CC630D"/>
<path id="Path_228" d="M217.714 54.6636C217.714 53.2742 216.581 52.1438 215.188 52.1438C215.078 52.1438 214.967 52.1535 214.86 52.1665C214.906 52.3543 214.951 52.5487 214.997 52.743C215.062 52.7365 215.123 52.7333 215.188 52.7333C216.253 52.7333 217.12 53.5981 217.12 54.6604C217.12 55.5738 216.477 56.3414 215.62 56.539C215.639 56.7365 215.659 56.9341 215.678 57.1317C216.84 56.9049 217.714 55.8847 217.714 54.6636Z" fill="#CC630D"/>
<path id="Path_229" d="M122.095 203.61C122.095 201.906 120.712 200.526 119.005 200.526C117.297 200.526 115.915 201.906 115.915 203.61C115.915 204.572 116.356 205.43 117.047 205.997H120.962C121.654 205.43 122.095 204.572 122.095 203.61Z" fill="#EA8021"/>
<path id="Path_230" d="M257.69 205.077C256.83 205.077 256.051 205.43 255.492 205.994H259.891C259.329 205.43 258.55 205.077 257.69 205.077Z" fill="#EA8021"/>
<path id="Path_231" d="M198.388 68.9695L199.767 77.9088C200.092 80.0173 202.341 81.2383 204.292 80.3671L213.865 76.0885C214.722 75.7063 215.254 74.8383 215.209 73.9023L215.027 70.278C215.027 70.278 213.579 69.0148 213.677 64.3994L206.607 66.1225C205.785 66.3233 204.925 66.3298 204.101 66.1419L201.186 65.478C200.553 65.3322 199.887 65.5363 199.446 66.0091L199.232 66.2391C198.547 66.9711 198.235 67.9784 198.388 68.9695Z" fill="#1773C6"/>
<path id="Path_232" d="M95.834 54.5308L99.1158 56.7656C100.223 57.5202 101.55 57.8862 102.888 57.8085L105.03 57.6854C105.946 57.6336 106.832 58.0158 107.419 58.7186C107.741 59.1041 108.221 59.3275 108.724 59.3275C109.205 59.3275 109.562 59.7713 109.458 60.2377L107.552 68.8272C107.244 70.2231 106.001 71.2175 104.569 71.2175H101.93C100.593 71.2175 99.3106 70.6992 98.3497 69.7729L93.9545 65.5332C92.8606 64.4774 92.377 62.9421 92.6691 61.4555L92.9677 59.93C92.9742 59.9364 95.4607 59.1235 95.834 54.5308Z" fill="#1773C6"/>
</g>
</svg>
