<svg width="31" height="31" viewBox="0 0 31 31" fill="none" xmlns="http://www.w3.org/2000/svg">
<path d="M2.92088 1.75409L3.50424 1.17072L2.92088 1.75409ZM29.1215 27.9547L28.5381 28.538L28.5381 28.538L29.1215 27.9547ZM29.1215 29.1214L28.5381 28.538L28.5381 28.538L29.1215 29.1214ZM27.9547 29.1214L28.5381 28.538L28.5381 28.538L27.9547 29.1214ZM1.75415 2.92081L1.17079 3.50418L1.75415 2.92081ZM28.0791 1.75409L27.4958 1.17072L28.0791 1.75409ZM1.87857 27.9547L2.46193 28.538L2.46193 28.538L1.87857 27.9547ZM1.87857 29.1214L2.46193 28.538L2.46193 28.538L1.87857 29.1214ZM3.04529 29.1214L2.46193 28.538L2.46193 28.538L3.04529 29.1214ZM29.2459 2.92081L29.8292 3.50418L29.2459 2.92081ZM3.50424 1.17072C2.85987 0.52636 1.81515 0.52636 1.17079 1.17072L2.33751 2.33745L3.50424 1.17072ZM29.7048 27.3713L3.50424 1.17072L2.33751 2.33745L28.5381 28.538L29.7048 27.3713ZM29.7048 29.7048C30.3492 29.0604 30.3492 28.0157 29.7048 27.3713L28.5381 28.538V28.538L29.7048 29.7048ZM27.3714 29.7048C28.0157 30.3491 29.0605 30.3491 29.7048 29.7048L28.5381 28.538H28.5381L27.3714 29.7048ZM1.17079 3.50418L27.3714 29.7048L28.5381 28.538L2.33751 2.33745L1.17079 3.50418ZM1.17079 1.17072C0.526421 1.81509 0.526421 2.85981 1.17079 3.50418L2.33751 2.33745L1.17079 1.17072ZM28.6625 2.33745L29.8292 1.17072C29.1849 0.52636 28.1402 0.52636 27.4958 1.17072L28.6625 2.33745ZM2.46193 28.538L28.6625 2.33745L27.4958 1.17072L1.29521 27.3713L2.46193 28.538ZM2.46193 28.538V28.538L1.29521 27.3713C0.65084 28.0157 0.65084 29.0604 1.29521 29.7048L2.46193 28.538ZM2.46193 28.538H2.46193L1.2952 29.7048C1.93957 30.3491 2.98429 30.3491 3.62866 29.7048L2.46193 28.538ZM28.6625 2.33745L2.46193 28.538L3.62866 29.7048L29.8292 3.50418L28.6625 2.33745ZM28.6625 2.33745L29.8292 3.50418C30.4736 2.85981 30.4736 1.81509 29.8292 1.17072L28.6625 2.33745Z" fill="black"/>
</svg>
