<?xml version="1.0" encoding="UTF-8"?>
<svg width="25px" height="25px" viewBox="0 0 25 25" version="1.1" xmlns="http://www.w3.org/2000/svg" xmlns:xlink="http://www.w3.org/1999/xlink">
    <!-- Generator: sketchtool 55 (78076) - https://sketchapp.com -->
    <title>7EB270F1-4EF0-44CB-991E-8874B361A3EF</title>
    <desc>Created with sketchtool.</desc>
    <g id="Asset-Artboard-Page" stroke="none" stroke-width="1" fill="none" fill-rule="evenodd">
        <g id="Icon_Phone" stroke="#000000">
            <path d="M15.1931009,17.8109163 C15.1931009,17.8109163 17.2985809,16.6055563 17.8497809,16.3159163 C18.3994209,16.0252363 18.9688209,15.9519163 19.3146209,16.1630363 C19.8382609,16.4833563 24.2353809,19.4083563 24.6056209,19.6673163 C24.9758609,19.9267963 25.1542209,20.6677963 24.6451409,21.3937163 C24.1381409,22.1196363 21.7991809,24.9900363 20.8080609,24.9593563 C19.8153809,24.9271163 15.6881409,24.8366363 7.90530085,17.0517163 C0.124020853,9.2693963 0.0319808529,5.1411163 0.000260852908,4.1484363 C-0.0314591471,3.1562763 2.83894085,0.816796303 3.56486085,0.309276303 C4.29182085,-0.197723697 5.03386085,-0.0068836972 5.29178085,0.349836303 C5.58506085,0.755956303 8.47626085,5.1390363 8.79450085,5.6413563 C9.01238085,5.9845563 8.93230085,6.5570763 8.64162085,7.1072363 C8.35250085,7.6584363 7.14714085,9.7639163 7.14714085,9.7639163 C7.14714085,9.7639163 7.99682085,11.2131563 10.8703409,14.0861563 C13.7443809,16.9596763 15.1931009,17.8109163 15.1931009,17.8109163 Z"></path>
        </g>
    </g>
</svg>