<?xml version="1.0" encoding="UTF-8"?>
<svg width="27px" height="19px" viewBox="0 0 27 19" version="1.1" xmlns="http://www.w3.org/2000/svg" xmlns:xlink="http://www.w3.org/1999/xlink">
    <!-- Generator: Sketch 55 (78076) - https://sketchapp.com -->
    <title>Icon_Credit Card</title>
    <desc>Created with Sketch.</desc>
    <g id="Customer-LIVE-LINK" stroke="none" stroke-width="1" fill="none" fill-rule="evenodd" stroke-linecap="round" stroke-linejoin="round">
        <g id="DRIVER_Drop-Off-&amp;-Pick-Up-Locations-Copy-11" transform="translate(-19.000000, -502.000000)" stroke="#000000" stroke-width="0.65">
            <g id="Icon_Credit-Card_Customers-List" transform="translate(20.000000, 503.000000)">
                <path d="M19.6367468,10.7249501 C19.3879026,10.5801627 19.0989757,10.4972931 18.7907595,10.4972931 C17.8564051,10.4972931 17.0987848,11.2593963 17.0987848,12.1992795 C17.0987848,13.1391626 17.8564051,13.9012658 18.7907595,13.9012658 C19.0989532,13.9012658 19.3879185,13.8183859 19.6368091,13.6735599 C19.1310667,13.3792593 18.7907595,12.8291969 18.7907595,12.1992795 C18.7907595,11.5693271 19.1309565,11.0192387 19.6367468,10.7249501 Z M23.319038,16.8738656 L2.35217722,16.8738656 C1.05843038,16.8738656 3.55271368e-13,15.8091723 3.55271368e-13,14.5081013 L3.55271368e-13,2.36576436 C3.55271368e-13,1.06436222 1.05843038,-7.99360578e-14 2.35217722,-7.99360578e-14 L23.319038,-7.99360578e-14 C24.6127848,-7.99360578e-14 25.6712152,1.06469328 25.6712152,2.36576436 L25.6712152,14.5081013 C25.6712152,15.8091723 24.6127848,16.8738656 23.319038,16.8738656 Z M0.192202532,3.09409932 L25.4928354,3.09409932 L0.192202532,3.09409932 Z M0.192202532,6.3024148 L25.4928354,6.3024148 L0.192202532,6.3024148 Z M3.54291139,12.1992795 L4.75010127,12.1992795 L3.54291139,12.1992795 Z M6.50592405,12.1992795 L7.71311392,12.1992795 L6.50592405,12.1992795 Z M9.46893671,12.1992795 L10.6761266,12.1992795 L9.46893671,12.1992795 Z M12.4322785,12.1992795 L13.6394684,12.1992795 L12.4322785,12.1992795 Z M19.6367468,10.7249501 C20.1425371,11.0192387 20.4827342,11.5693271 20.4827342,12.1992795 C20.4827342,12.8293671 20.1424828,13.3793155 19.6368091,13.6735599 C19.8856715,13.8183775 20.1745918,13.9012658 20.4827342,13.9012658 C21.4170886,13.9012658 22.1747089,13.1394937 22.1747089,12.1992795 C22.1747089,11.2593963 21.4174177,10.4972931 20.4827342,10.4972931 C20.174518,10.4972931 19.8855911,10.5801627 19.6367468,10.7249501 Z"></path>
            </g>
        </g>
    </g>
</svg>