<svg width="27" height="27" viewBox="0 0 27 27" fill="none" xmlns="http://www.w3.org/2000/svg">
<path d="M20.345 10.1022L19.8147 9.5719V9.5719L20.345 10.1022ZM20.345 9.64261L20.8753 9.11228L20.345 9.64261ZM11.6001 18.8471L12.1304 19.3775L11.6001 18.8471ZM11.1405 18.8471L11.6708 18.3168L11.1405 18.8471ZM6.97444 14.6811L6.44411 15.2114L6.44411 15.2115L6.97444 14.6811ZM6.97444 14.2215L6.44411 13.6912L6.97444 14.2215ZM7.43406 14.2215L7.96439 13.6912L7.96439 13.6912L7.43406 14.2215ZM11.3703 18.1577L10.8399 18.688C10.9806 18.8287 11.1714 18.9077 11.3703 18.9077C11.5692 18.9077 11.7599 18.8287 11.9006 18.688L11.3703 18.1577ZM19.8854 9.64261L19.355 9.11228V9.11228L19.8854 9.64261ZM3.14292 13.9865C3.14292 7.99772 7.99778 3.14286 13.9865 3.14286V1.64286C7.16935 1.64286 1.64292 7.16929 1.64292 13.9865H3.14292ZM13.9865 24.8301C7.99778 24.8301 3.14292 19.9753 3.14292 13.9865H1.64292C1.64292 20.8037 7.16935 26.3301 13.9865 26.3301V24.8301ZM24.8302 13.9865C24.8302 19.9753 19.9753 24.8301 13.9865 24.8301V26.3301C20.8037 26.3301 26.3302 20.8037 26.3302 13.9865H24.8302ZM13.9865 3.14286C19.9753 3.14286 24.8302 7.99772 24.8302 13.9865H26.3302C26.3302 7.16929 20.8037 1.64286 13.9865 1.64286V3.14286ZM13.9865 0.992859C6.81036 0.992859 0.99292 6.8103 0.99292 13.9865H2.49292C2.49292 7.63873 7.63879 2.49286 13.9865 2.49286V0.992859ZM26.9802 13.9865C26.9802 6.8103 21.1627 0.992859 13.9865 0.992859V2.49286C20.3343 2.49286 25.4802 7.63873 25.4802 13.9865H26.9802ZM13.9865 26.9801C21.1627 26.9801 26.9802 21.1627 26.9802 13.9865H25.4802C25.4802 20.3342 20.3343 25.4801 13.9865 25.4801V26.9801ZM0.99292 13.9865C0.99292 21.1627 6.81036 26.9801 13.9865 26.9801V25.4801C7.63879 25.4801 2.49292 20.3342 2.49292 13.9865H0.99292ZM20.8753 10.6326C21.2951 10.2127 21.2951 9.53209 20.8753 9.11228L19.8147 10.1729C19.6487 10.007 19.6487 9.73787 19.8147 9.5719L20.8753 10.6326ZM12.1304 19.3775L20.8753 10.6326L19.8147 9.5719L11.0697 18.3168L12.1304 19.3775ZM11.3703 19.6923C11.6554 19.6923 11.9288 19.5791 12.1304 19.3775L11.0697 18.3168C11.1495 18.2371 11.2576 18.1923 11.3703 18.1923V19.6923ZM10.6101 19.3775C10.8117 19.5791 11.0852 19.6923 11.3703 19.6923V18.1923C11.483 18.1923 11.5911 18.2371 11.6708 18.3168L10.6101 19.3775ZM6.44411 15.2115L10.6101 19.3775L11.6708 18.3168L7.50477 14.1508L6.44411 15.2115ZM6.44411 13.6912C6.02429 14.111 6.0243 14.7916 6.44411 15.2114L7.50477 14.1508C7.67074 14.3168 7.67074 14.5859 7.50477 14.7518L6.44411 13.6912ZM7.96439 13.6912C7.54457 13.2714 6.86392 13.2714 6.44411 13.6912L7.50477 14.7518C7.3388 14.9178 7.0697 14.9178 6.90373 14.7518L7.96439 13.6912ZM11.9006 17.6274L7.96439 13.6912L6.90373 14.7518L10.8399 18.688L11.9006 17.6274ZM19.355 9.11228L10.8399 17.6274L11.9006 18.688L20.4157 10.1729L19.355 9.11228ZM20.8753 9.11228C20.4555 8.69247 19.7749 8.69247 19.355 9.11228L20.4157 10.1729C20.2497 10.3389 19.9806 10.3389 19.8147 10.1729L20.8753 9.11228Z" fill="#B1B1B1"/>
</svg>
