<?xml version="1.0" encoding="UTF-8"?>
<svg width="26px" height="26px" viewBox="0 0 26 26" version="1.1" xmlns="http://www.w3.org/2000/svg" xmlns:xlink="http://www.w3.org/1999/xlink">
    <!-- Generator: Sketch 55 (78076) - https://sketchapp.com -->
    <title>Icon_Remember Me</title>
    <desc>Created with Sketch.</desc>
    <g id="Customer-LIVE-LINK" stroke="none" stroke-width="1" fill="none" fill-rule="evenodd">
        <g id="DRIVER_Drop-Off-&amp;-Pick-Up-Locations-Copy-11" transform="translate(-20.000000, -609.000000)" fill="#1B1B1B">
            <g id="Icon_Customer-Service_Tools" transform="translate(20.000000, 609.000000)">
                <path d="M24.7286,26 L1.2714,26 C0.570266667,26 0,25.4167333 0,24.7 L0,22.9675333 C0,22.8089333 0.0866666667,22.6629 0.225766667,22.5870667 L9.1598,17.7133667 C6.1074,15.2420667 6.06666667,10.5421333 6.06666667,10.3315333 L6.07186667,5.3833 C6.07186667,5.35946667 6.07403333,5.33606667 6.0775,5.31266667 C6.50173333,2.7573 9.3652,0.0216666667 12.9601333,0.00173333333 C12.9731333,0.000866666667 12.9865667,0 13,0 C16.6127,0 19.4969667,2.74646667 19.9242333,5.3118 C19.9277,5.3352 19.9298667,5.3586 19.9298667,5.38243333 L19.9333333,10.3293667 C19.9073333,13.6793222 18.8862556,16.1436889 16.8701,17.7224667 L25.7742333,22.5857667 C25.9137667,22.6616 26,22.8072 26,22.9658 L26,24.7 L24.7286,26 Z M25.1333333,23.2227667 L15.8392,18.1467 C15.8387667,18.1467 15.8383333,18.1462667 15.8379,18.1458333 C15.8344333,18.1441 15.8322667,18.1402 15.8288,18.1380333 C15.7707333,18.1042333 15.7261,18.0574333 15.691,18.0045667 C15.6866667,17.9980667 15.6788667,17.9954667 15.6749667,17.9889667 C15.6658667,17.9733667 15.665,17.9560333 15.6576333,17.94 C15.6455,17.9122667 15.6342333,17.8858333 15.6281667,17.8559333 C15.6221,17.8286333 15.6208,17.8026333 15.6203667,17.7753333 C15.6199333,17.7476 15.6199333,17.7207333 15.6247,17.693 C15.6299,17.6635333 15.6398667,17.6366667 15.6507,17.6089333 C15.6576333,17.5924667 15.6576333,17.5751333 15.6663,17.5586667 C15.6710667,17.5504333 15.6793,17.5452333 15.6845,17.5374333 C15.7001,17.5131667 15.7196,17.4928 15.7395333,17.472 C15.7603333,17.4503333 15.7802667,17.4295333 15.8045333,17.4130667 C15.8123333,17.4078667 15.8166667,17.3996333 15.8249,17.3948667 C19.0224667,15.4851667 19.0666667,10.3809333 19.0666667,10.3293667 L19.0632,5.4197 C18.5952,2.74776667 15.5289333,0.884866667 13.0368333,0.866666667 C13.0247,0.867966667 13.0121333,0.8684 13,0.8684 C10.5005333,0.8684 7.4074,2.73606667 6.93853333,5.42056667 L6.93333333,10.3319667 C6.93333333,10.3809333 6.97796667,15.3473667 10.1998,17.4013667 C10.2063,17.4057 10.2097667,17.4126333 10.2162667,17.4169667 C10.2392333,17.4334333 10.257,17.4546667 10.2765,17.4750333 C10.2968667,17.4971333 10.3176667,17.5175 10.3328333,17.5422 C10.3367333,17.5487 10.3432333,17.5526 10.3471333,17.5591 C10.3566667,17.5768667 10.3571,17.5959333 10.3640333,17.6145667 C10.3748667,17.6423 10.3857,17.6691667 10.3904667,17.6986333 C10.3948,17.7272333 10.3935,17.7545333 10.3922,17.7831333 C10.3913333,17.81 10.3909,17.8355667 10.3848333,17.862 C10.3779,17.8923333 10.3653333,17.9196333 10.3519,17.9478 C10.3441,17.9647 10.3423667,17.9833333 10.3319667,17.9998 C10.3276333,18.0058667 10.3211333,18.0093333 10.3168,18.0154 C10.3003333,18.0383667 10.2791,18.057 10.2578667,18.0769333 C10.2357667,18.0973 10.2154,18.1181 10.1902667,18.1332667 C10.1842,18.1371667 10.1807333,18.1436667 10.1738,18.1471333 L0.866666667,23.2249333 L0.866666667,24.7 C0.866666667,24.9387667 1.04823333,25.1333333 1.2714,25.1333333 L24.7286,25.1333333 C24.9517667,25.1333333 25.1333333,24.9387667 25.1333333,24.7 L25.1333333,23.2227667 Z"></path>
            </g>
        </g>
    </g>
</svg>