<?xml version="1.0" encoding="UTF-8"?>
<svg width="26px" height="26px" viewBox="0 0 26 26" version="1.1" xmlns="http://www.w3.org/2000/svg" xmlns:xlink="http://www.w3.org/1999/xlink">
    <!-- Generator: Sketch 55 (78076) - https://sketchapp.com -->
    <title>Icon_Filter_Machines Panel</title>
    <desc>Created with Sketch.</desc>
    <g id="ORDER-FORM" stroke="none" stroke-width="1" fill="none" fill-rule="evenodd" stroke-linecap="round" stroke-linejoin="round">
        <g id="DRIVER_Drop-Off-&amp;-Pick-Up-Locations-Copy-13" transform="translate(-19.000000, -183.000000)" stroke="#000000">
            <g id="Preferences-&amp;-Order-Notes" transform="translate(19.000000, 182.000000)">
                <g id="Icon_Filter_Machines-Panel" transform="translate(13.000000, 14.000000) rotate(-270.000000) translate(-13.000000, -14.000000) translate(0.000000, 1.000000)">
                    <g transform="translate(0.684211, 0.684211)" id="Combined-Shape">
                        <path d="M24.4756829,3.52138041 L11.224517,3.52138041 L24.4756829,3.52138041 Z M4.0532978,3.52138041 L0.155896069,3.52138041 L4.0532978,3.52138041 Z M7.60118984,6.89746382 C5.73542404,6.89951616 4.22125995,5.39021343 4.21920969,3.52634181 C4.21715944,1.66247019 5.7279994,0.149839945 7.59376519,0.147787603 C9.45953099,0.145735261 10.9736951,1.655038 10.9757453,3.51890962 C10.9777956,5.38278124 9.46695564,6.89541148 7.60118984,6.89746382 Z M0.155896069,12.3064357 L13.407062,12.3064357 L0.155896069,12.3064357 Z M20.5782811,12.3064357 L24.4756829,12.3064357 L20.5782811,12.3064357 Z M16.97949,15.6829594 C15.1137242,15.6850117 13.5995602,14.175709 13.5975099,12.3118374 C13.5954596,10.4479657 15.1062996,8.93533549 16.9720654,8.93328315 C18.8378312,8.93123081 20.3519953,10.4405335 20.3540455,12.3044052 C20.3560958,14.1682768 18.8452558,15.680907 16.97949,15.6829594 Z M24.4756829,21.091491 L11.224517,21.091491 L24.4756829,21.091491 Z M4.0532978,21.091491 L0.155896069,21.091491 L4.0532978,21.091491 Z M7.62643571,24.4663291 C5.76066991,24.4663291 4.24816789,22.9553626 4.24816789,21.091491 C4.24816789,19.2276194 5.76066991,17.7166529 7.62643571,17.7166529 C9.49220151,17.7166529 11.0047035,19.2276194 11.0047035,21.091491 C11.0047035,22.9553626 9.49220151,24.4663291 7.62643571,24.4663291 Z"></path>
                    </g>
                </g>
            </g>
        </g>
    </g>
</svg>