<svg width="34" height="20" viewBox="0 0 34 20" fill="none" xmlns="http://www.w3.org/2000/svg">
<g clip-path="url(#clip0_4090_39072)">
<path d="M32.5177 4.48905C31.0217 1.71593 28.0945 -0.0106373 24.9112 -1.22769e-05H0.826473C0.663822 0.000647945 0.504961 0.0491553 0.369685 0.139466C0.234408 0.229776 0.128697 0.357896 0.0657226 0.507863C0.00366881 0.656868 -0.0124927 0.821004 0.0193079 0.97925C0.0511086 1.1375 0.129424 1.28265 0.244223 1.39611L5.49085 6.60236C5.9541 7.06349 6.58522 7.32167 7.24185 7.32167H24.2206C25.4308 7.30892 26.42 8.2673 26.4327 9.46049C26.4455 10.6537 25.4754 11.6312 24.2652 11.6429H12.5597C12.3969 11.6429 12.2377 11.6909 12.1021 11.7809C11.9664 11.8708 11.8602 11.9987 11.7968 12.1486C11.7341 12.2978 11.7176 12.4623 11.7492 12.621C11.7808 12.7796 11.8592 12.9252 11.9742 13.039L17.224 18.2495C17.6902 18.7104 18.3195 18.9685 18.975 18.9677H24.2695C31.1577 18.9677 36.366 11.7002 32.5177 4.48586" fill="#FF3008"/>
</g>
<defs>
<clipPath id="clip0_4090_39072">
<rect width="34" height="19.125" fill="white"/>
</clipPath>
</defs>
</svg>
