<?xml version="1.0" encoding="UTF-8"?>
<svg width="31px" height="30px" viewBox="0 0 31 30" version="1.1" xmlns="http://www.w3.org/2000/svg" xmlns:xlink="http://www.w3.org/1999/xlink">
    <!-- Generator: Sketch 55 (78076) - https://sketchapp.com -->
    <title>Icon_Delivery Tracking_Status Complete (1)</title>
    <desc>Created with Sketch.</desc>
    <g id="ORDER-FORM" stroke="none" stroke-width="1" fill="none" fill-rule="evenodd">
        <g id="DRIVER_Drop-Off-&amp;-Pick-Up-Locations-Copy-9" transform="translate(-29.000000, -65.000000)" fill-rule="nonzero">
            <g id="Group-3" transform="translate(5.000000, 48.000000)">
                <g id="Icon_Delivery-Tracking_Status-Complete-(1)" transform="translate(24.000000, 17.000000)">
                    <circle id="Oval" fill="#B00020" cx="15.5" cy="15" r="15"></circle>
                    <path d="M16.7305,17.6348 L14.3867,17.6348 L14.0547,7.78125 L17.0625,7.78125 L16.7305,17.6348 Z M15.5586,19.1777 C16.0339,19.1777 16.4147,19.3177 16.7012,19.5977 C16.9941,19.8776 17.1406,20.2357 17.1406,20.6719 C17.1406,21.1016 16.9941,21.4564 16.7012,21.7363 C16.4147,22.0163 16.0339,22.1562 15.5586,22.1562 C15.0898,22.1562 14.709,22.0163 14.416,21.7363 C14.1296,21.4564 13.9863,21.1016 13.9863,20.6719 C13.9863,20.2422 14.1296,19.8874 14.416,19.6074 C14.709,19.321 15.0898,19.1777 15.5586,19.1777 Z" id="Shape" fill="#FFFFFF"></path>
                </g>
            </g>
        </g>
    </g>
</svg>