<?xml version="1.0" encoding="UTF-8"?>
<svg width="27px" height="26px" viewBox="0 0 27 26" version="1.1" xmlns="http://www.w3.org/2000/svg" xmlns:xlink="http://www.w3.org/1999/xlink">
    <!-- Generator: sketchtool 55 (78076) - https://sketchapp.com -->
    <title>A8009A39-E45C-4427-BC66-4BEC664A1CDE</title>
    <desc>Created with sketchtool.</desc>
    <g id="Asset-Artboard-Page" stroke="none" stroke-width="1" fill="none" fill-rule="evenodd" stroke-linecap="round" stroke-linejoin="round">
        <g id="Icon_Location_Side-Panel" transform="translate(0.230769, 0.000000)" stroke="#000000" stroke-width="0.65">
            <g id="Icon_For-Sale_Side-Panel" transform="translate(15.080000, 11.916667) rotate(-315.000000) translate(-15.080000, -11.916667) translate(7.280000, -1.083333)">
                <path d="M13.7763436,4.89944374 L9.1958722,0.785029439 C8.1583657,-0.147102621 6.65017974,-0.136561031 5.62391511,0.809945924 L1.18692552,4.90104095 C0.570397557,5.4696479 0.215391055,6.3011557 0.215391055,7.1767465 L0.215391055,25.009602 L14.7753911,25.009602 L14.7753911,7.20006578 C14.7753911,6.31073896 14.4094385,5.46805069 13.7763436,4.89944374 Z" id="Path"></path>
                <path d="M8.90308678,3.74189661 C8.90308678,4.34017693 8.43743588,4.82522994 7.86308678,4.82522994 C7.28873767,4.82522994 6.82308678,4.34017693 6.82308678,3.74189661 C6.82308678,3.14361629 7.28873767,2.65856328 7.86308678,2.65856328 C8.43743588,2.65856328 8.90308678,3.14361629 8.90308678,3.74189661 Z" id="Path"></path>
            </g>
        </g>
    </g>
</svg>