<?xml version="1.0" encoding="UTF-8"?>
<svg width="19px" height="27px" viewBox="0 0 19 27" version="1.1" xmlns="http://www.w3.org/2000/svg" xmlns:xlink="http://www.w3.org/1999/xlink">
    <!-- Generator: Sketch 55 (78076) - https://sketchapp.com -->
    <title>Icon_CVC</title>
    <desc>Created with Sketch.</desc>
    <g id="Customer-LIVE-LINK" stroke="none" stroke-width="1" fill="none" fill-rule="evenodd" stroke-linecap="round" stroke-linejoin="round">
        <g id="DRIVER_Drop-Off-&amp;-Pick-Up-Locations-Copy-11" transform="translate(-23.000000, -572.000000)" stroke="#000000" stroke-width="0.65">
            <g id="Icon_Lock_Account-Settings" transform="translate(24.000000, 573.000000)">
                <path d="M12.0359132,9.95536709 L12.0359132,5.57913924 C12.0359132,3.57220253 10.4269801,1.94539241 8.44209765,1.94539241 C6.45721519,1.94539241 4.8482821,3.57220253 4.8482821,5.57913924 L4.8482821,9.95536709 L2.85949367,9.95536709 L2.85949367,5.64463291 C2.85949367,2.52726582 5.35898734,-9.50350909e-14 8.44209765,-9.50350909e-14 C11.525208,-9.50350909e-14 14.0247016,2.52726582 14.0247016,5.64463291 L14.0247016,9.95536709 L12.0359132,9.95536709 Z M8.44209765,25.6708861 C3.7796745,25.6708861 -3.55271368e-14,21.8492152 -3.55271368e-14,17.1349873 L-3.55271368e-14,11.7078987 C-3.55271368e-14,10.8051392 0.723905967,10.0728608 1.61674503,10.0728608 L15.2667993,10.0728608 C16.1596383,10.0728608 16.8835443,10.8048101 16.8835443,11.7078987 L16.8835443,17.1349873 C16.8841953,21.8492152 13.1045208,25.6708861 8.44209765,25.6708861 Z M9.97356239,15.9442532 C9.97356239,15.0888861 9.2877396,14.3957722 8.44209765,14.3957722 C7.5964557,14.3957722 6.91063291,15.0892152 6.91063291,15.9442532 C6.91063291,16.5225063 7.22473779,17.0260506 7.68954792,17.2919747 L7.68954792,18.7696962 C7.68954792,19.1899747 8.02643761,19.5306076 8.44209765,19.5306076 C8.85775769,19.5306076 9.19464738,19.1899747 9.19464738,18.7696962 L9.19464738,17.2919747 C9.6594575,17.0260506 9.97356239,16.5225063 9.97356239,15.9442532 Z"></path>
            </g>
        </g>
    </g>
</svg>