<?xml version="1.0" encoding="UTF-8"?>
<svg width="95px" height="128px" viewBox="0 0 95 128" version="1.1" xmlns="http://www.w3.org/2000/svg" xmlns:xlink="http://www.w3.org/1999/xlink">
    <!-- Generator: sketchtool 55 (78076) - https://sketchapp.com -->
    <title>641E4D35-EA49-40B4-A1EB-239409CB53A6</title>
    <desc>Created with sketchtool.</desc>
    <g id="Asset-Artboard-Page" stroke="none" stroke-width="1" fill="none" fill-rule="evenodd" stroke-linecap="round" stroke-linejoin="round">
        <g id="Icon_Washer_Live-Link-Status" stroke="#FFFFFF">
            <g id="Icon_Washer-Selected_Side-Panel">
                <path d="M18,68.2386022 C18,68.2386022 31.3638365,57.4311016 49.5490008,64.265575 C67.7341651,71.1000484 76,65.8004567 76,65.8004567 L73.9698026,74.7834175 L67.5849901,85.2300523 L55.3144063,92.5152418 L42.4545763,93 L30.0055022,88.1913858 L23.1373378,81.1090698 L18,68.2386022 Z" id="Path" stroke-width="1.5" fill="#FFFFFF"></path>
                <path d="M-1.42108547e-14,0 L95,0 L95,128 L-1.42108547e-14,128 L-1.42108547e-14,0 Z M0.709741246,15.561613 L94.2886383,15.561613 L0.709741246,15.561613 Z M0.709741246,113.168964 L94.2886383,113.168964 L0.709741246,113.168964 Z M47.4991898,93.7595372 C34.450261,93.7595372 23.4089611,85.0702253 19.728616,73.1032395 C18.8797566,70.343094 18.4224845,67.4085832 18.4224845,64.3661074 C18.4224845,48.1325644 31.4405689,34.9726776 47.4991898,34.9726776 C63.5578107,34.9726776 76.5758951,48.1325644 76.5758951,64.3661074 C76.5758951,80.5996505 63.5578107,93.7595372 47.4991898,93.7595372 Z M47.4991898,102.768892 C68.4799248,102.768892 85.488171,85.5753798 85.488171,64.3661074 C85.488171,43.1568351 68.4799248,25.9633227 47.4991898,25.9633227 C26.5184548,25.9633227 9.51020861,43.1568351 9.51020861,64.3661074 C9.51020861,85.5753798 26.5184548,102.768892 47.4991898,102.768892 Z M77.7685196,7.91840391 L84.0233169,7.91840391 L77.7685196,7.91840391 Z M62.6516793,7.91840391 L68.908097,7.91840391 L62.6516793,7.91840391 Z" stroke-width="2.5"></path>
            </g>
        </g>
    </g>
</svg>