<svg width="78" height="10" viewBox="0 0 78 10" fill="none" xmlns="http://www.w3.org/2000/svg">
<g clip-path="url(#clip0_114_8090)">
<path d="M22.6278 2.56296V6.53567H23.6211C23.8745 6.53192 24.1247 6.47751 24.3567 6.37565C24.5887 6.27379 24.7979 6.12656 24.9719 5.94267C25.3289 5.56568 25.5243 5.06455 25.5164 4.54604C25.5239 4.28849 25.4804 4.03198 25.3883 3.79126C25.2961 3.55054 25.1572 3.33035 24.9795 3.14334C24.8048 2.95919 24.5941 2.81265 24.3605 2.71275C24.1269 2.61285 23.8753 2.56171 23.6211 2.56246H22.6283L22.6278 2.56296ZM23.6211 1.31736C25.4723 1.31736 26.8728 2.74783 26.8728 4.54604C26.8728 6.34424 25.4723 7.7828 23.6211 7.7828H21.4305C21.4096 7.78253 21.389 7.77817 21.3698 7.76995C21.3506 7.76174 21.3332 7.74983 21.3186 7.73492C21.304 7.72 21.2925 7.70237 21.2848 7.68302C21.277 7.66368 21.2732 7.643 21.2735 7.62217V1.48455C21.2735 1.39565 21.3439 1.32342 21.4305 1.32342L23.6211 1.31736ZM31.6444 6.67407C32.4852 6.6766 33.2444 6.16088 33.5681 5.36735C33.7266 4.97964 33.769 4.55439 33.6901 4.14314C33.6111 3.7319 33.4143 3.35231 33.1234 3.0504C32.8376 2.75344 32.4682 2.54994 32.0639 2.46679C31.6597 2.38364 31.2397 2.42475 30.8594 2.58468C30.0824 2.912 29.5749 3.68633 29.5734 4.54604C29.5734 5.7179 30.4992 6.66852 31.6449 6.67407H31.6444ZM31.6449 1.17087C33.5934 1.17087 35.083 2.70237 35.083 4.54604C35.083 6.3897 33.5934 7.9212 31.6444 7.9212C29.6959 7.9212 28.219 6.39727 28.219 4.54604C28.219 2.6948 29.7086 1.17087 31.6444 1.17087H31.6449ZM39.8162 6.67407C40.9624 6.67104 41.8898 5.71941 41.8888 4.54755C41.8872 3.37468 40.9578 2.42507 39.8121 2.42456C38.6654 2.42456 37.7355 3.37367 37.734 4.54604C37.734 5.11075 37.9533 5.65223 38.3438 6.05127C38.535 6.24792 38.7637 6.40436 39.0165 6.51133C39.2693 6.61831 39.5411 6.67365 39.8157 6.67407H39.8162ZM39.8157 1.17087C41.7581 1.17087 43.2477 2.6948 43.2477 4.54604C43.2477 6.39727 41.752 7.9212 39.8157 7.9212C37.8799 7.9212 36.3776 6.39727 36.3776 4.54604C36.3776 2.6948 37.8672 1.17087 39.8157 1.17087ZM47.7909 2.56296H46.3905V4.27277H47.7909C47.9016 4.27766 48.0121 4.25988 48.1156 4.22053C48.2191 4.18117 48.3134 4.12108 48.3927 4.04395C48.5547 3.88737 48.6469 3.67017 48.6489 3.44186C48.653 3.32603 48.6336 3.21057 48.5918 3.10242C48.55 2.99427 48.4868 2.89565 48.4058 2.81249C48.3264 2.73065 48.2306 2.6663 48.1247 2.62359C48.0188 2.58087 47.9051 2.56074 47.7909 2.56448V2.56296ZM45.0356 1.48455C45.0356 1.39565 45.1065 1.32342 45.1931 1.32342H47.8299C49.0871 1.32342 49.9967 2.26545 49.9967 3.44843C50.0063 4.24852 49.5682 4.98346 48.8688 5.34159L50.0848 7.54034C50.1017 7.56561 50.1111 7.59504 50.1122 7.62535C50.1133 7.65567 50.1059 7.68569 50.0909 7.71208C50.0763 7.73806 50.0545 7.7593 50.0281 7.77326C50.0017 7.78723 49.9718 7.79335 49.942 7.79088H48.8748C48.8452 7.7913 48.8161 7.78336 48.7908 7.76799C48.7656 7.75262 48.7452 7.73043 48.732 7.704L47.56 5.52797H46.3854V7.61712C46.3858 7.63799 46.382 7.65872 46.3742 7.67813C46.3665 7.69753 46.355 7.71522 46.3405 7.73019C46.3259 7.74516 46.3085 7.75711 46.2892 7.76536C46.27 7.77361 46.2493 7.77799 46.2284 7.77825H45.2002C45.1793 7.77799 45.1586 7.77361 45.1394 7.76536C45.1202 7.75711 45.1028 7.74516 45.0882 7.73019C45.0736 7.71522 45.0621 7.69753 45.0544 7.67813C45.0467 7.65872 45.0429 7.63799 45.0432 7.61712L45.0361 1.48505L45.0356 1.48455ZM53.528 2.59327V6.56649H54.5207C54.7741 6.56306 55.0243 6.50899 55.2564 6.40749C55.4885 6.30598 55.6978 6.15909 55.872 5.9755C56.2293 5.59895 56.425 5.0982 56.4175 4.57988C56.4256 4.32201 56.3825 4.06509 56.2906 3.82392C56.1987 3.58275 56.0599 3.36209 55.8822 3.17465C55.7072 2.9902 55.4961 2.84348 55.2621 2.74357C55.028 2.64366 54.7758 2.59268 54.5212 2.59378L53.528 2.59327ZM54.5207 1.34615C56.3719 1.34615 57.7724 2.77814 57.7724 4.57988C57.7724 6.38161 56.3719 7.81361 54.5207 7.81361H52.3367C52.3158 7.81334 52.2951 7.80896 52.2759 7.80072C52.2567 7.79247 52.2393 7.78052 52.2247 7.76555C52.2101 7.75058 52.1986 7.73289 52.1909 7.71348C52.1832 7.69408 52.1794 7.67335 52.1797 7.65248V1.51536C52.1797 1.42596 52.2501 1.35372 52.3367 1.35372L54.5212 1.34615H54.5207ZM61.9034 2.92614L61.135 5.05064H62.6702L61.9034 2.92614ZM60.6842 6.2513L60.1813 7.66561C60.1712 7.69889 60.1503 7.72787 60.1219 7.74799C60.0934 7.76811 60.0591 7.77822 60.0243 7.77673H58.9333C58.9055 7.77932 58.8775 7.7744 58.8523 7.76249C58.8271 7.75058 58.8056 7.73212 58.7899 7.70905C58.774 7.68571 58.7644 7.65866 58.762 7.63053C58.7596 7.60239 58.7645 7.57411 58.7763 7.54842L61.1335 1.41686C61.1445 1.38453 61.1658 1.35666 61.1941 1.33752C61.2225 1.31837 61.2563 1.30898 61.2905 1.31079H62.5112C62.5454 1.30887 62.5794 1.3182 62.6078 1.33736C62.6363 1.35651 62.6577 1.38444 62.6687 1.41686L65.0259 7.54842C65.0376 7.57415 65.0424 7.60245 65.0399 7.63059C65.0375 7.65873 65.0277 7.68576 65.0117 7.70905C64.996 7.73203 64.9745 7.75038 64.9493 7.7622C64.924 7.77402 64.8961 7.77887 64.8684 7.77623H63.7779C63.7431 7.77772 63.7087 7.7676 63.6803 7.74748C63.6519 7.72736 63.631 7.69838 63.6209 7.6651L63.1179 6.25079H60.6842V6.2513ZM66.2906 3.06404C66.2906 2.04876 67.1486 1.17087 68.5035 1.17087C69.2331 1.15463 69.9395 1.42681 70.4687 1.92804C70.4848 1.94324 70.4977 1.96156 70.5064 1.98189C70.5152 2.00221 70.5197 2.0241 70.5197 2.04623C70.5197 2.06836 70.5152 2.09026 70.5064 2.11058C70.4977 2.13091 70.4848 2.14923 70.4687 2.16443L69.8644 2.77814C69.85 2.79305 69.8327 2.80491 69.8135 2.813C69.7944 2.8211 69.7738 2.82527 69.753 2.82527C69.7322 2.82527 69.7116 2.8211 69.6925 2.813C69.6733 2.80491 69.656 2.79305 69.6416 2.77814C69.357 2.51211 68.9832 2.36138 68.5931 2.35536C68.0512 2.35536 67.6506 2.67712 67.6506 3.04838C67.6506 4.24852 70.8531 3.55602 70.8531 5.86539C70.8516 7.03574 69.987 7.9212 68.4584 7.9212C68.0339 7.92553 67.6129 7.84468 67.2204 7.68345C66.8279 7.52223 66.4719 7.28392 66.1736 6.9827C66.1575 6.9675 66.1446 6.94917 66.1359 6.92885C66.1271 6.90853 66.1226 6.88663 66.1226 6.8645C66.1226 6.84237 66.1271 6.82048 66.1359 6.80015C66.1446 6.77983 66.1575 6.76151 66.1736 6.74631L66.7581 6.14825C66.7727 6.13262 66.7903 6.12014 66.8099 6.11161C66.8295 6.10308 66.8507 6.09868 66.8721 6.09868C66.8935 6.09868 66.9146 6.10308 66.9342 6.11161C66.9538 6.12014 66.9715 6.13262 66.986 6.14825C67.3539 6.51189 67.8493 6.71842 68.3672 6.72408C69.0444 6.72408 69.4906 6.35434 69.4906 5.89115C69.4906 4.6905 66.2896 5.38351 66.2896 3.07363L66.2906 3.06404ZM76.6606 1.47647V3.90303H73.9498V1.47647C73.9501 1.45564 73.9462 1.43496 73.9385 1.41562C73.9307 1.39627 73.9192 1.37864 73.9047 1.36372C73.8901 1.3488 73.8727 1.3369 73.8535 1.32868C73.8343 1.32047 73.8137 1.3161 73.7928 1.31584H72.7646C72.7437 1.3161 72.7231 1.32047 72.7039 1.32868C72.6847 1.3369 72.6673 1.3488 72.6527 1.36372C72.6382 1.37864 72.6267 1.39627 72.6189 1.41562C72.6112 1.43496 72.6073 1.45564 72.6076 1.47647V7.60702C72.6076 7.69592 72.6785 7.76815 72.7646 7.76815H73.7928C73.8789 7.76815 73.9498 7.69592 73.9498 7.60702V5.14207H76.6585V7.60702C76.6585 7.69592 76.7294 7.76815 76.8156 7.76815H77.8437C77.9303 7.76815 78.0007 7.69592 78.0007 7.60702V1.47647C78.001 1.45564 77.9972 1.43496 77.9894 1.41562C77.9817 1.39627 77.9702 1.37864 77.9556 1.36372C77.941 1.3488 77.9236 1.3369 77.9044 1.32868C77.8852 1.32047 77.8646 1.3161 77.8437 1.31584H76.8156C76.7737 1.3169 76.734 1.33435 76.705 1.36442C76.676 1.39449 76.66 1.43474 76.6606 1.47647ZM15.502 2.13412C14.7888 0.81578 13.3934 -0.00502794 11.876 2.31797e-05H0.394791C0.317256 0.000337049 0.241527 0.0233974 0.177041 0.0663309C0.112554 0.109264 0.0621618 0.170173 0.032142 0.241467C0.00256098 0.312304 -0.00514321 0.390334 0.0100162 0.465565C0.0251755 0.540795 0.0625083 0.6098 0.117233 0.663741L2.6183 3.13879C2.83913 3.35801 3.13999 3.48075 3.453 3.48075H11.5468C12.1237 3.47469 12.5952 3.9303 12.6013 4.49754C12.6074 5.06479 12.1449 5.52949 11.568 5.53505H5.988C5.91041 5.53508 5.83454 5.5579 5.76987 5.60065C5.70519 5.64341 5.65458 5.70422 5.62434 5.77548C5.59447 5.8464 5.58657 5.9246 5.60164 6.00004C5.61671 6.07547 5.65408 6.14468 5.70892 6.19876L8.21151 8.67584C8.43372 8.89494 8.73372 9.01766 9.04621 9.01729H11.5701C14.8537 9.01729 17.3365 5.56232 15.502 2.13261" fill="#FF3008"/>
</g>
<defs>
<clipPath id="clip0_114_8090">
<rect width="78" height="9.09202" fill="white"/>
</clipPath>
</defs>
</svg>
