<svg width="129" height="218" viewBox="0 0 129 218" fill="none" xmlns="http://www.w3.org/2000/svg">
<path d="M102.846 188.771H26.583C21.8455 188.771 18 184.878 18 180.082V15.6884C18 10.8927 21.8455 7 26.583 7H102.846C107.583 7 111.429 10.8927 111.429 15.6884V180.082C111.429 184.878 107.583 188.771 102.846 188.771Z" fill="white" stroke="#1773C6" stroke-width="6.4497"/>
<path d="M101.071 214.033C101.071 184.049 126.143 175.517 126.143 175.517C126.143 175.517 101.071 166.984 101.071 137C101.071 166.984 76 175.517 76 175.517C76 175.517 101.071 184.049 101.071 214.033Z" fill="white" stroke="#FF9900" stroke-width="3.72464" stroke-linejoin="round"/>
<rect x="27.583" y="21.5415" width="74.2637" height="24.2361" rx="3.86982" fill="#BCDAFB"/>
<circle cx="99.2663" cy="23.7692" r="3.86982" fill="#3790F4"/>
<rect x="27.6748" y="67.627" width="9.02958" height="14.1893" rx="1.28994" fill="#E9F1FB"/>
<rect x="40.5742" y="67.627" width="9.02958" height="14.1893" rx="1.28994" fill="#E9F1FB"/>
<rect x="53.4736" y="67.627" width="9.02958" height="14.1893" rx="1.28994" fill="#E9F1FB"/>
<rect x="66.373" y="67.627" width="9.02958" height="14.1893" rx="1.28994" fill="#E9F1FB"/>
<rect x="79.2725" y="67.627" width="9.02958" height="14.1893" rx="1.28994" fill="#E9F1FB"/>
<rect x="92.1719" y="67.627" width="9.02958" height="14.1893" rx="1.28994" fill="#E9F1FB"/>
</svg>
