<svg width="72" height="95" viewBox="0 0 72 95" fill="none" xmlns="http://www.w3.org/2000/svg">
<path d="M42.1833 80.9916C19.141 80.9916 0.461548 84.1254 0.461548 87.9912C0.461548 91.857 19.141 94.9908 42.1833 94.9908C53.781 94.9908 64.2719 94.1967 71.8336 92.9151V83.0672C64.2719 81.7857 53.781 80.9916 42.1833 80.9916Z" fill="#B3D6F4"/>
<path d="M70.5556 14.6753H9.83948C9.13362 14.6753 8.5614 15.2475 8.5614 15.9534V70.5348C8.5614 71.2406 9.13362 71.8129 9.83948 71.8129H70.5556C71.2615 71.8129 71.8337 71.2406 71.8337 70.5348V15.9534C71.8337 15.2475 71.2615 14.6753 70.5556 14.6753Z" fill="#ADD0EA"/>
<path d="M70.4353 83.9621H9.95977C9.18747 83.9621 8.5614 83.336 8.5614 82.5637V73.2112C8.5614 72.4389 9.18747 71.8128 9.95977 71.8128H70.4353C71.2076 71.8128 71.8337 72.4389 71.8337 73.2112V82.5637C71.8337 83.336 71.2076 83.9621 70.4353 83.9621Z" fill="#91C8ED"/>
<path d="M70.6609 14.6753H9.73422C9.08649 14.6753 8.5614 14.1502 8.5614 13.5025V3.33803C8.5614 2.6903 9.08649 2.16521 9.73422 2.16521H70.6609C71.3086 2.16521 71.8337 2.6903 71.8337 3.33803V13.5025C71.8337 14.1502 71.3086 14.6753 70.6609 14.6753Z" fill="#ADD0EA"/>
<path d="M71.8337 0H8.5614V2.16521H71.8337V0Z" fill="#1773C6"/>
<path d="M40.1975 66.0089C51.4248 66.0089 60.5264 56.9073 60.5264 45.6799C60.5264 34.4526 51.4248 25.351 40.1975 25.351C28.9701 25.351 19.8685 34.4526 19.8685 45.6799C19.8685 56.9073 28.9701 66.0089 40.1975 66.0089Z" fill="#3790F4"/>
<path d="M40.1974 62.2498C49.3487 62.2498 56.7673 54.8312 56.7673 45.6799C56.7673 36.5287 49.3487 29.1101 40.1974 29.1101C31.0462 29.1101 23.6276 36.5287 23.6276 45.6799C23.6276 54.8312 31.0462 62.2498 40.1974 62.2498Z" fill="#1773C6"/>
<path d="M19.1252 4.05978H12.5093V12.7808H19.1252V4.05978Z" stroke="white" stroke-width="0.45764" stroke-linecap="round"/>
<path d="M18.5124 9.36003H13.1219V12.1793H18.5124V9.36003Z" fill="#3790F4"/>
<path d="M14.2685 6.75125C14.4346 6.75125 14.5692 6.61661 14.5692 6.45052C14.5692 6.28444 14.4346 6.1498 14.2685 6.1498C14.1024 6.1498 13.9678 6.28444 13.9678 6.45052C13.9678 6.61661 14.1024 6.75125 14.2685 6.75125Z" fill="#EF9D59"/>
<path d="M12.7123 8.90143H18.9223" stroke="#105A91" stroke-width="0.22882"/>
<path d="M13.8851 4.91683L15.0429 6.07462" stroke="#EF9D59" stroke-width="0.45764" stroke-linecap="round"/>
<path d="M13.8851 7.24744L15.0429 8.40523" stroke="#EF9D59" stroke-width="0.45764" stroke-linecap="round"/>
<path d="M17.2081 5.42807H15.915C15.7364 5.42807 15.5917 5.28333 15.5917 5.10479C15.5917 4.92625 15.7364 4.78152 15.915 4.78152H17.2081C17.3866 4.78152 17.5314 4.92626 17.5314 5.10479C17.5314 5.28333 17.3866 5.42807 17.2081 5.42807Z" fill="#EF9D59"/>
<path d="M15.8172 11.2377C16.0757 11.2377 16.2852 11.0281 16.2852 10.7697C16.2852 10.5112 16.0757 10.3017 15.8172 10.3017C15.5588 10.3017 15.3492 10.5112 15.3492 10.7697C15.3492 11.0281 15.5588 11.2377 15.8172 11.2377Z" fill="white"/>
<path d="M56.9713 4.05978H24.448V12.7808H56.9713V4.05978Z" stroke="white" stroke-width="0.45764" stroke-linecap="round"/>
<path d="M35.8361 4.48079V12.3598" stroke="white" stroke-width="0.45764" stroke-linecap="round" stroke-linejoin="round"/>
<path d="M32.5732 5.30026H28.5134V7.14971H32.5732V5.30026Z" fill="#EF9D59"/>
<path d="M34.2422 6.75125C34.5329 6.75125 34.7685 6.51563 34.7685 6.22498C34.7685 5.93434 34.5329 5.69872 34.2422 5.69872C33.9516 5.69872 33.7159 5.93434 33.7159 6.22498C33.7159 6.51563 33.9516 6.75125 34.2422 6.75125Z" fill="#3790F4"/>
<path d="M26.5737 6.08966C26.7045 6.08966 26.8105 5.98363 26.8105 5.85284C26.8105 5.72205 26.7045 5.61602 26.5737 5.61602C26.4429 5.61602 26.3369 5.72205 26.3369 5.85284C26.3369 5.98363 26.4429 6.08966 26.5737 6.08966Z" stroke="white" stroke-width="0.22882" stroke-linecap="round" stroke-linejoin="round"/>
<path d="M27.4082 6.92417C27.539 6.92417 27.645 6.81814 27.645 6.68735C27.645 6.55656 27.539 6.45053 27.4082 6.45053C27.2774 6.45053 27.1714 6.55656 27.1714 6.68735C27.1714 6.81814 27.2774 6.92417 27.4082 6.92417Z" stroke="white" stroke-width="0.22882" stroke-linecap="round" stroke-linejoin="round"/>
<path d="M26.2241 7.02566L27.6901 5.55963" stroke="white" stroke-width="0.22882" stroke-linecap="round" stroke-linejoin="round"/>
<path d="M28.3912 7.91655C28.4971 7.91655 28.5829 7.83072 28.5829 7.72484C28.5829 7.61896 28.4971 7.53313 28.3912 7.53313C28.2853 7.53313 28.1995 7.61896 28.1995 7.72484C28.1995 7.83072 28.2853 7.91655 28.3912 7.91655Z" fill="#3790F4"/>
<path d="M29.7558 7.91655C29.8617 7.91655 29.9475 7.83072 29.9475 7.72484C29.9475 7.61896 29.8617 7.53313 29.7558 7.53313C29.6499 7.53313 29.5641 7.61896 29.5641 7.72484C29.5641 7.83072 29.6499 7.91655 29.7558 7.91655Z" fill="#3790F4"/>
<path d="M31.1203 7.91655C31.2262 7.91655 31.312 7.83072 31.312 7.72484C31.312 7.61896 31.2262 7.53313 31.1203 7.53313C31.0144 7.53313 30.9286 7.61896 30.9286 7.72484C30.9286 7.83072 31.0144 7.91655 31.1203 7.91655Z" fill="#3790F4"/>
<path d="M32.4848 7.91655C32.5907 7.91655 32.6765 7.83072 32.6765 7.72484C32.6765 7.61896 32.5907 7.53313 32.4848 7.53313C32.3789 7.53313 32.2931 7.61896 32.2931 7.72484C32.2931 7.83072 32.3789 7.91655 32.4848 7.91655Z" fill="#3790F4"/>
<path d="M28.2766 9.73218H26.6639C26.5332 9.73218 26.4271 9.62615 26.4271 9.49536V9.10066C26.4271 8.96986 26.5332 8.86384 26.6639 8.86384H28.2766C28.4074 8.86384 28.5134 8.96986 28.5134 9.10066V9.49536C28.5134 9.62614 28.4074 9.73218 28.2766 9.73218Z" fill="white"/>
<path d="M31.1297 9.73218H29.5171C29.3863 9.73218 29.2803 9.62615 29.2803 9.49536V9.10066C29.2803 8.96986 29.3863 8.86384 29.5171 8.86384H31.1297C31.2605 8.86384 31.3665 8.96986 31.3665 9.10066V9.49536C31.3665 9.62614 31.2605 9.73218 31.1297 9.73218Z" fill="white"/>
<path d="M28.2766 11.2659H26.6639C26.5332 11.2659 26.4271 11.1598 26.4271 11.029V10.6343C26.4271 10.5036 26.5332 10.3975 26.6639 10.3975H28.2766C28.4074 10.3975 28.5134 10.5036 28.5134 10.6343V11.029C28.5134 11.1598 28.4074 11.2659 28.2766 11.2659Z" fill="#3790F4"/>
<path d="M31.1297 11.2659H29.5171C29.3863 11.2659 29.2803 11.1598 29.2803 11.029V10.6343C29.2803 10.5036 29.3863 10.3975 29.5171 10.3975H31.1297C31.2605 10.3975 31.3665 10.5036 31.3665 10.6343V11.029C31.3665 11.1598 31.2605 11.2659 31.1297 11.2659Z" fill="white"/>
<path d="M33.9039 11.2659H32.2913C32.1605 11.2659 32.0544 11.1598 32.0544 11.029V10.6343C32.0544 10.5036 32.1605 10.3975 32.2913 10.3975H33.9039C34.0347 10.3975 34.1407 10.5036 34.1407 10.6343V11.029C34.1407 11.1598 34.0347 11.2659 33.9039 11.2659Z" fill="white"/>
<path d="M40.6805 6.94672C41.1912 6.94672 41.6052 6.53271 41.6052 6.02199C41.6052 5.51128 41.1912 5.09727 40.6805 5.09727C40.1697 5.09727 39.7557 5.51128 39.7557 6.02199C39.7557 6.53271 40.1697 6.94672 40.6805 6.94672Z" fill="white"/>
<path d="M54.2986 11.3072H52.0548L54.1068 4.7364H54.5203C54.7529 4.7364 54.9413 4.92489 54.9413 5.15741V10.6644C54.9413 11.0194 54.6536 11.3072 54.2986 11.3072Z" fill="#CC630D"/>
<path d="M47.2128 12.1041H53.0468" stroke="#CC630D" stroke-width="0.22882" stroke-linecap="round"/>
<path d="M9.95972 71.8128H70.4353" stroke="white" stroke-width="0.45764" stroke-linecap="round" stroke-linejoin="round"/>
<path d="M9.95972 14.6753H70.4353" stroke="white" stroke-width="0.45764" stroke-linecap="round" stroke-linejoin="round"/>
<path d="M9.95972 2.16521H70.4353" stroke="white" stroke-width="0.45764" stroke-linecap="round" stroke-linejoin="round"/>
<path d="M67.0997 74.8269H50.377V81.2774H67.0997V74.8269Z" stroke="#105A91" stroke-width="0.45764" stroke-linecap="round"/>
<path d="M51.5674 76.3605C51.7916 76.3605 51.9733 76.1788 51.9733 75.9546C51.9733 75.7303 51.7916 75.5486 51.5674 75.5486C51.3431 75.5486 51.1614 75.7303 51.1614 75.9546C51.1614 76.1788 51.3431 76.3605 51.5674 76.3605Z" fill="#105A91"/>
<path d="M51.5674 80.6007C51.7916 80.6007 51.9733 80.419 51.9733 80.1948C51.9733 79.9706 51.7916 79.7888 51.5674 79.7888C51.3431 79.7888 51.1614 79.9706 51.1614 80.1948C51.1614 80.419 51.3431 80.6007 51.5674 80.6007Z" fill="#105A91"/>
<path d="M65.8066 76.3605C66.0308 76.3605 66.2126 76.1788 66.2126 75.9546C66.2126 75.7303 66.0308 75.5486 65.8066 75.5486C65.5824 75.5486 65.4006 75.7303 65.4006 75.9546C65.4006 76.1788 65.5824 76.3605 65.8066 76.3605Z" fill="#105A91"/>
<path d="M65.8066 80.6007C66.0308 80.6007 66.2126 80.419 66.2126 80.1948C66.2126 79.9706 66.0308 79.7888 65.8066 79.7888C65.5824 79.7888 65.4006 79.9706 65.4006 80.1948C65.4006 80.419 65.5824 80.6007 65.8066 80.6007Z" fill="#105A91"/>
<path d="M52.0549 11.3072H46.826C46.1244 11.3072 45.5988 10.6645 45.738 9.9769L46.6439 5.50409C46.7343 5.05747 47.1269 4.7364 47.5826 4.7364H54.1069L52.9194 10.6002C52.8361 11.0115 52.4746 11.3072 52.0549 11.3072Z" fill="#EF9D59"/>
<path d="M52.4943 9.52543H46.4497L47.3632 5.195H53.4077L52.4943 9.52543Z" fill="white"/>
<path d="M46.4497 10.2923H52.1898" stroke="#CC630D" stroke-width="0.22882" stroke-linecap="round"/>
<path d="M49.9495 7.56073C49.9519 7.65482 49.9542 7.74892 49.9569 7.84301C49.9589 7.91536 49.985 7.95244 50.0499 7.9767C50.0586 7.97996 50.0674 7.98298 50.0761 7.98624C50.0854 7.98973 50.0933 7.99502 50.0921 8.00697C50.0908 8.01927 50.0814 8.02126 50.072 8.022C50.0629 8.02272 50.0537 8.02276 50.0445 8.02276C49.8883 8.02275 49.7322 8.02272 49.576 8.02259C49.5655 8.02257 49.5546 8.02351 49.5446 8.02073C49.5266 8.01571 49.5244 8.00447 49.5375 7.9911C49.5402 7.98839 49.5442 7.98647 49.5478 7.98557C49.6508 7.9604 49.6678 7.88256 49.6631 7.78401C49.6551 7.61528 49.6534 7.44641 49.6489 7.27759C49.6473 7.21619 49.6461 7.21501 49.5878 7.2014C49.5736 7.1981 49.5595 7.19476 49.5455 7.1905C49.5362 7.18766 49.5281 7.18139 49.5276 7.17042C49.5271 7.15931 49.5352 7.15309 49.5441 7.15005C49.5701 7.14117 49.5965 7.13349 49.6225 7.12467C49.7133 7.09383 49.7987 7.05103 49.8794 6.99827C49.9174 6.9734 49.9315 6.98173 49.9355 7.03119C49.9393 7.07922 49.9389 7.07851 49.9786 7.05262C50.0405 7.01225 50.1083 6.98967 50.1823 6.99082C50.2293 6.99155 50.2761 6.9868 50.3236 6.99704C50.4699 7.02867 50.5534 7.13359 50.5666 7.29121C50.5818 7.47236 50.5789 7.65341 50.5867 7.83447C50.5904 7.91968 50.6135 7.95197 50.6918 7.98078C50.7051 7.98568 50.7289 7.98417 50.7254 8.00775C50.7222 8.02987 50.7003 8.02257 50.6859 8.02262C50.5245 8.02308 50.363 8.02302 50.2016 8.02247C50.1871 8.02242 50.1653 8.02874 50.162 8.00636C50.1588 7.98454 50.1815 7.98448 50.1953 7.97962C50.2671 7.95425 50.2952 7.91287 50.2932 7.83217C50.2893 7.67443 50.2855 7.51668 50.2807 7.35894C50.2793 7.31477 50.2727 7.27067 50.2611 7.22783C50.2334 7.12577 50.17 7.08236 50.0667 7.0933C49.9933 7.10109 49.9422 7.17017 49.943 7.266C49.9437 7.36421 49.9477 7.46247 49.9502 7.56071C49.95 7.56073 49.9497 7.56073 49.9495 7.56073Z" fill="#3790F4"/>
<path d="M49.1668 7.43279C49.084 7.4328 49.0013 7.43342 48.9186 7.4324C48.8896 7.43205 48.8734 7.44137 48.8765 7.4749C48.8849 7.56467 48.8935 7.65412 48.9361 7.73641C48.981 7.82327 49.0499 7.86508 49.1416 7.87155C49.2371 7.87829 49.3233 7.85638 49.4008 7.79915C49.4138 7.78958 49.43 7.7737 49.4464 7.79033C49.4636 7.80777 49.4508 7.82726 49.4415 7.84298C49.3844 7.94009 49.3022 8.00295 49.1976 8.03384C49.0877 8.06631 48.9772 8.06213 48.8685 8.02089C48.7525 7.97684 48.6679 7.89212 48.623 7.77196C48.5469 7.56802 48.5491 7.36811 48.6682 7.18719C48.7527 7.05892 48.8734 6.99612 49.0262 6.98867C49.2514 6.97769 49.4072 7.14402 49.4529 7.35348C49.4675 7.42058 49.4587 7.43276 49.3952 7.43281C49.3191 7.43286 49.2429 7.43278 49.1668 7.43279ZM48.9918 7.36437C49.0365 7.36625 49.0805 7.36191 49.1246 7.35649C49.1703 7.35087 49.1876 7.33342 49.1831 7.28398C49.1777 7.2243 49.1623 7.16697 49.128 7.1165C49.0709 7.03237 48.981 7.03594 48.9344 7.12415C48.901 7.1875 48.8909 7.25814 48.8817 7.32899C48.8785 7.35337 48.8895 7.36509 48.9133 7.3645C48.9395 7.36385 48.9657 7.36437 48.9918 7.36437Z" fill="#3790F4"/>
<path d="M51.8404 6.99075C51.9285 6.98542 52.0195 7.01245 52.1092 7.04888C52.1365 7.05998 52.1526 7.07755 52.1578 7.10853C52.1655 7.15496 52.1756 7.20102 52.1846 7.24726C52.187 7.25963 52.1901 7.2734 52.1762 7.27972C52.1624 7.28601 52.1541 7.27416 52.1468 7.26439C52.0987 7.19949 52.0418 7.14498 51.9735 7.10515C51.9139 7.0703 51.852 7.04265 51.7818 7.05703C51.7359 7.06641 51.7053 7.09337 51.6983 7.14206C51.6908 7.19445 51.6971 7.24449 51.7433 7.28033C51.7968 7.32176 51.8577 7.34465 51.9197 7.36516C52.0049 7.39332 52.0848 7.43078 52.1546 7.49336C52.293 7.61759 52.3061 7.95426 52.0461 8.02999C51.8762 8.07951 51.7096 8.05566 51.546 7.98339C51.5195 7.97169 51.5071 7.95156 51.5023 7.92371C51.4934 7.87186 51.4836 7.82013 51.4753 7.7682C51.4729 7.75392 51.4667 7.73493 51.4831 7.72734C51.5006 7.71924 51.508 7.73811 51.5163 7.74994C51.5771 7.83649 51.6454 7.9138 51.7406 7.95942C51.77 7.9735 51.8005 7.98198 51.8318 7.98623C51.8934 7.99459 51.9454 7.96989 51.9657 7.92483C51.9912 7.86844 51.9797 7.79918 51.9366 7.75143C51.8834 7.69238 51.8137 7.66411 51.7441 7.6371C51.6746 7.6101 51.6129 7.57213 51.562 7.51348C51.4081 7.33613 51.489 7.04923 51.7071 6.99924C51.7486 6.98972 51.7903 6.99179 51.8404 6.99075Z" fill="#3790F4"/>
<path d="M50.8353 7.45415C50.8324 7.34626 50.8294 7.23836 50.827 7.13048C50.8264 7.10398 50.8219 7.0837 50.7902 7.08407C50.7757 7.08424 50.7547 7.08953 50.7525 7.06528C50.7506 7.04278 50.7627 7.02143 50.7835 7.01916C50.822 7.01496 50.8243 6.99118 50.8228 6.959C50.8199 6.89678 50.821 6.83443 50.8169 6.7723C50.8142 6.73261 50.8247 6.71225 50.8639 6.70338C50.9265 6.68924 50.9851 6.66228 51.0412 6.63021C51.0932 6.60046 51.0988 6.60405 51.1005 6.669C51.1033 6.76721 51.1071 6.86545 51.1076 6.96361C51.1079 7.00361 51.1217 7.01782 51.1592 7.01595C51.2089 7.01347 51.2588 7.01499 51.3087 7.01568C51.3263 7.01593 51.35 7.01142 51.352 7.03921C51.354 7.06704 51.3356 7.08244 51.3106 7.08347C51.2661 7.08532 51.2215 7.08435 51.1769 7.08444C51.1115 7.08458 51.1114 7.08454 51.1132 7.15303C51.1183 7.35083 51.1231 7.54863 51.1289 7.74643C51.1323 7.8655 51.1983 7.91759 51.3079 7.8889C51.3293 7.88329 51.35 7.8751 51.371 7.86779C51.3771 7.86565 51.3828 7.86216 51.3889 7.85979C51.4017 7.85485 51.4147 7.8521 51.4246 7.866C51.4335 7.87843 51.4272 7.88998 51.4213 7.90057C51.3907 7.95537 51.3467 7.99512 51.2916 8.01962C51.1745 8.07174 51.0573 8.07454 50.948 7.99103C50.8765 7.93642 50.8479 7.8546 50.8437 7.76537C50.8387 7.66168 50.8377 7.5579 50.835 7.45416C50.8351 7.45415 50.8352 7.45415 50.8353 7.45415Z" fill="#3790F4"/>
<path d="M47.9076 7.46693C47.9041 7.55412 47.9213 7.63728 47.9614 7.7155C48.03 7.84923 48.1609 7.90812 48.2965 7.86561C48.3622 7.84501 48.4203 7.80977 48.4738 7.76562C48.4875 7.75432 48.5032 7.73649 48.5216 7.7555C48.5376 7.77201 48.5237 7.78897 48.5155 7.80401C48.4183 7.98192 48.2286 8.07621 48.0325 8.04995C47.9291 8.03611 47.8341 8.00481 47.7549 7.92936C47.6652 7.84387 47.6236 7.73311 47.6107 7.6116C47.5931 7.44611 47.6172 7.29043 47.7251 7.16411C47.8162 7.05745 47.9327 6.99827 48.0708 6.99044C48.1413 6.98644 48.2121 6.98659 48.2813 7.01325C48.3165 7.02685 48.3495 7.04365 48.3795 7.06728C48.4274 7.10489 48.4483 7.16649 48.432 7.2222C48.4149 7.28082 48.3705 7.29962 48.3181 7.3048C48.2659 7.30997 48.2138 7.27604 48.1916 7.22175C48.1785 7.18979 48.17 7.15583 48.157 7.12384C48.1276 7.05175 48.0645 7.03618 48.0081 7.08598C47.9623 7.12647 47.9409 7.18211 47.9264 7.24126C47.9085 7.3148 47.9013 7.39001 47.9076 7.46693Z" fill="#3790F4"/>
<path d="M22.1219 33.466C22.1219 30.6751 24.4881 29.8803 24.4881 29.8803C24.4881 29.8803 22.1219 29.0855 22.1219 26.2947C22.1219 29.0855 19.7556 29.8803 19.7556 29.8803C19.7556 29.8803 22.1219 30.6751 22.1219 33.466Z" fill="white" stroke="#3790F4" stroke-width="0.388057"/>
<path d="M24.4481 62.5842C24.4481 59.7933 26.8143 58.9986 26.8143 58.9986C26.8143 58.9986 24.4481 58.2038 24.4481 55.4129C24.4481 58.2038 22.0818 58.9986 22.0818 58.9986C22.0818 58.9986 24.4481 59.7933 24.4481 62.5842Z" fill="white" stroke="#3790F4" stroke-width="0.388057"/>
<path d="M62.4417 36.0269C62.4417 33.236 64.808 32.4413 64.808 32.4413C64.808 32.4413 62.4417 31.6465 62.4417 28.8556C62.4417 31.6465 60.0754 32.4413 60.0754 32.4413C60.0754 32.4413 62.4417 33.236 62.4417 36.0269Z" fill="white" stroke="#3790F4" stroke-width="0.388057"/>
<path d="M42.4153 32.0365L53.1528 35.5743C53.1528 35.5743 56.77 46.2514 50.2271 53.5068L43.14 49.4862C43.14 49.4862 45.254 41.1616 42.4153 32.0365Z" fill="#105A91"/>
<path d="M45.1149 56.1681C42.0683 52.5077 38.8568 47.5466 38.8568 47.5466L49.6104 44.0427C49.6104 44.0427 53.2648 49.0245 54.7756 53.5794C53.5364 55.8639 51.7435 57.8912 49.4336 59.437C48.6209 59.9809 47.7762 60.4384 46.9118 60.8213C46.9713 59.651 46.6511 58.0137 45.1149 56.1681Z" fill="#91C8ED"/>
<path d="M38.8568 47.5466C38.8568 47.5466 38.6061 47.253 39.6624 46.7632C40.7187 46.2734 44.9685 45.7318 47.571 44.1846C50.1499 42.6513 50.7155 45.2341 47.256 46.5122C43.7718 47.7993 42.0775 47.0467 40.7208 47.4933C39.3642 47.9398 39.0137 47.8215 38.8568 47.5466Z" fill="#3790F4"/>
<path d="M38.4721 36.5866L41.3272 38.9853L40.3135 45.8842C40.3135 45.8842 34.1102 47.1045 30.4873 50.0718L24.9141 52.0203C24.1959 50.2957 23.7914 48.4939 23.6815 46.6888C25.8912 43.8564 31.5112 37.5626 38.4721 36.5866Z" fill="#105A91"/>
<path d="M40.3884 38.8589C40.3884 38.8589 39.3461 45.9527 40.3134 45.8842C41.2808 45.8158 41.9825 39.1862 41.9825 39.1862L40.3884 38.8589Z" fill="#0B2E44"/>
<path d="M33.2009 43.937C38.6325 49.0281 41.2606 48.5432 41.2606 48.5432L41.2645 54.9564C41.2645 54.9564 27.4339 51.1138 25.2795 49.7246C24.6444 49.3151 24.1671 48.6804 23.8083 47.9895C23.2311 43.8913 24.2153 39.6876 26.5774 36.2599C27.3248 37.4766 29.2398 40.2243 33.2009 43.937Z" fill="white"/>
<path d="M27.3391 48.4876L28.8727 49.2052C28.8727 49.2052 29.6598 45.2596 31.7095 42.4901C31.1773 41.9553 30.6915 41.4457 30.2492 40.9633C29.4456 41.9435 26.802 45.4445 27.3391 48.4876Z" fill="#D0DAE2"/>
<path d="M25.4182 48.3926C25.4182 48.3926 26.8732 42.5368 28.9173 39.4442C28.4045 38.8301 27.9768 38.2799 27.6239 37.8002C26.8001 39.2943 24.0852 44.4377 23.8845 47.675L25.4182 48.3926Z" fill="#D0DAE2"/>
<path d="M33.2356 43.969C32.2787 45.8051 30.7232 49.0497 30.2053 51.6406C30.7676 51.8256 31.3511 52.013 31.9435 52.2C32.446 50.467 33.4303 47.4159 34.6753 45.2437C34.2196 44.8638 33.7396 44.4403 33.2356 43.969Z" fill="#D0DAE2"/>
<path d="M36.3199 46.5089C35.4437 48.2818 34.3646 50.716 33.885 52.802C34.4864 52.9856 35.0819 53.1649 35.6589 53.3369C36.1263 51.7699 36.909 49.4155 37.8839 47.4939C37.4125 47.2334 36.8917 46.9104 36.3199 46.5089Z" fill="#D0DAE2"/>
<path d="M41.2607 48.5432C41.2607 48.5432 40.7081 48.6433 39.5899 48.2651C38.7972 49.9045 37.8946 51.9968 37.4246 53.8578C38.0854 54.0509 38.6922 54.2261 39.2199 54.3773C39.6793 52.8717 40.3897 50.7857 41.2609 49.0244L41.2607 48.5432Z" fill="#D0DAE2"/>
<path d="M42.4153 32.0365C42.4153 32.0365 42.6379 31.4196 44.133 31.4233C45.628 31.4269 47.1419 32.9185 49.0544 33.0594C50.0144 33.1301 51.2629 33.6324 52.1583 34.181C52.547 34.5859 52.9178 35.0139 53.2694 35.4647C53.2443 35.5057 53.2061 35.5425 53.1528 35.5743C52.2795 36.0943 43.0588 34.272 42.4153 32.0365Z" fill="#0B2E44"/>
<path d="M45.0638 35.5718L45.0799 43.382C41.5153 43.9763 33.7565 35.7077 32.8952 33.8959C32.4007 32.8556 31.5196 32.291 30.8578 31.9976C30.9067 31.9642 30.9531 31.9284 31.0025 31.8954C33.0058 30.5547 35.196 29.7135 37.4279 29.3336C37.9382 29.8244 38.6275 30.611 39.4922 31.8693C41.5619 34.8808 45.0638 35.5718 45.0638 35.5718Z" fill="#91C8ED"/>
<path d="M52.175 44.1702C53.1114 44.4664 55.3503 44.1121 56.6877 43.8551C57.0738 47.3942 56.312 50.9856 54.5068 54.0626L50.6581 49.5275L52.175 44.1702Z" fill="#EF9D59"/>
<path d="M26.4473 54.8818C24.8169 52.4454 23.9217 49.7334 23.703 47.0051L31.3832 47.3012C33.2728 49.9084 37.4657 48.5499 37.4657 48.5499C40.1896 51.3225 46.3113 51.17 46.3113 51.17C47.2865 55.547 45.5245 59.0782 45.5245 59.0782C43.5317 59.3987 41.2947 58.4351 41.2947 58.4351C41.641 60.0655 42.7215 61.1745 43.6893 61.8679C37.2498 63.2454 30.3329 60.6881 26.4473 54.8818Z" fill="#91C8ED"/>
<path d="M31.4953 54.1736L34.9319 59.0385C34.9319 59.0385 34.0731 59.8176 32.9105 60.5355C30.4242 59.3165 28.2116 57.4596 26.5408 55.0142C27.9301 55.0416 29.9343 54.9208 31.4953 54.1736Z" fill="white"/>
<path d="M32.4915 57.095C33.4074 58.4637 34.6206 59.3051 34.9372 59.0464C35.2604 58.7824 34.6071 57.6609 33.6911 56.2922C32.7752 54.9236 31.9253 53.9865 31.4953 54.1736C31.0874 54.3512 31.5756 55.7264 32.4915 57.095Z" fill="#BFCEDB"/>
<path d="M31.3831 47.3012C31.3679 48.1436 31.4291 49.6949 33.9069 50.0992C36.3848 50.5035 37.4656 48.5499 37.4656 48.5499C37.4656 48.5499 36.2623 49.132 34.2724 48.859C32.1949 48.5739 31.3831 47.3012 31.3831 47.3012Z" fill="#1773C6"/>
<path d="M39.0171 34.3765C43.4327 36.2704 48.4412 38.672 47.2266 40.4257C46.012 42.1793 41.8428 40.1567 40.5011 39.752C39.1593 39.3472 36.5017 41.0534 34.5379 38.93C32.8749 37.1318 29.9031 35.9619 26.0308 37.1045C26.9636 35.5564 28.1601 34.142 29.61 32.9367C31.2816 32.8745 35.5487 32.8888 39.0171 34.3765Z" fill="#F2B283"/>
<path d="M34.5379 38.93C34.2047 38.5698 33.8182 38.2355 33.3833 37.9392C33.3847 37.8665 33.3856 37.8239 33.3856 37.8239C33.3856 37.8239 35.9482 35.9768 38.9838 39.7988L38.9837 39.7989C37.6198 40.0281 35.9097 40.4134 34.5379 38.93Z" fill="#EA8021"/>
<path d="M43.763 36.6006C46.2617 37.9397 47.9972 39.313 47.2266 40.4257C46.3683 41.6647 44.0359 41.0186 42.2672 40.3899C42.3992 37.7468 43.7592 36.6038 43.763 36.6006Z" fill="#EF9D59"/>
<path d="M26.7692 50.7073C27.2602 50.7073 27.6582 50.3093 27.6582 49.8183C27.6582 49.3273 27.2602 48.9293 26.7692 48.9293C26.2783 48.9293 25.8802 49.3273 25.8802 49.8183C25.8802 50.3093 26.2783 50.7073 26.7692 50.7073Z" stroke="#1773C6" stroke-width="0.22882"/>
<path d="M29.7749 53.7407C30.1363 53.7407 30.4292 53.4477 30.4292 53.0864C30.4292 52.725 30.1363 52.432 29.7749 52.432C29.4135 52.432 29.1206 52.725 29.1206 53.0864C29.1206 53.4477 29.4135 53.7407 29.7749 53.7407Z" stroke="#1773C6" stroke-width="0.22882"/>
<path d="M35.3004 56.7215C35.6618 56.7215 35.9547 56.4286 35.9547 56.0672C35.9547 55.7058 35.6618 55.4129 35.3004 55.4129C34.9391 55.4129 34.6461 55.7058 34.6461 56.0672C34.6461 56.4286 34.9391 56.7215 35.3004 56.7215Z" stroke="#1773C6" stroke-width="0.22882"/>
<path d="M36.8209 52.7934C37.4832 52.7934 38.0201 52.2564 38.0201 51.5941C38.0201 50.9317 37.4832 50.3948 36.8209 50.3948C36.1585 50.3948 35.6216 50.9317 35.6216 51.5941C35.6216 52.2564 36.1585 52.7934 36.8209 52.7934Z" stroke="#1773C6" stroke-width="0.22882"/>
<path d="M34.932 60.4339C34.5471 60.4339 34.232 60.7243 34.1855 61.0968C34.2504 61.122 34.3159 61.1455 34.3811 61.1699C34.3918 60.8744 34.6339 60.6369 34.932 60.6369C35.2369 60.6369 35.4849 60.8849 35.4849 61.1898C35.4849 61.3094 35.4457 61.4195 35.3809 61.5101C35.4477 61.5304 35.5149 61.5495 35.582 61.5689C35.6476 61.457 35.6878 61.3285 35.6878 61.1898C35.6878 60.7731 35.3487 60.4339 34.932 60.4339Z" fill="#1773C6"/>
<path d="M42.2544 52.1447C42.2544 52.9517 42.9109 53.6082 43.7179 53.6082C44.5247 53.6082 45.1813 52.9517 45.1813 52.1447C45.1813 51.7444 45.0194 51.3813 44.7579 51.1168C44.644 51.1085 44.5247 51.0986 44.4019 51.0876C44.7483 51.3124 44.9783 51.7019 44.9783 52.1447C44.9783 52.8397 44.4129 53.4052 43.7179 53.4052C43.0229 53.4052 42.4574 52.8397 42.4574 52.1447C42.4574 51.5982 42.8077 51.1332 43.2951 50.9588C43.1797 50.9422 43.0626 50.9243 42.9441 50.905C42.5307 51.1639 42.2544 51.6221 42.2544 52.1447Z" fill="#1773C6"/>
<path d="M41.0022 57.5285C40.2805 57.5285 39.6931 58.1158 39.6931 58.8378C39.6931 59.5595 40.2805 60.1469 41.0022 60.1469C41.3161 60.1469 41.6043 60.0356 41.8301 59.8508C41.7964 59.7905 41.7643 59.7286 41.7326 59.6663C41.5376 59.8385 41.2823 59.9439 41.0022 59.9439C40.3923 59.9439 39.8961 59.4477 39.8961 58.8378C39.8961 58.2278 40.3923 57.7314 41.0022 57.7314C41.5728 57.7314 42.0437 58.1659 42.1021 58.7213C42.1676 58.7414 42.237 58.7618 42.3085 58.7822C42.2791 58.0861 41.7052 57.5285 41.0022 57.5285Z" fill="#1773C6"/>
<path d="M26.6799 45.6799C26.6799 43.5914 27.1558 41.6148 28.0022 39.8495C28.2252 39.3845 28.0423 38.8261 27.5931 38.5729L26.1275 37.7465C25.6294 37.4656 25.0009 37.6669 24.7506 38.181C23.6474 40.4469 23.0261 42.9903 23.0261 45.6799C23.0261 48.3696 23.6475 50.913 24.7506 53.1789C25.0009 53.693 25.6294 53.8943 26.1275 53.6134L27.5931 52.787C28.0423 52.5338 28.2252 51.9754 28.0022 51.5104C27.1558 49.7451 26.6799 47.7685 26.6799 45.6799Z" fill="#105A91"/>
<path d="M35.3121 36.9715C35.3121 35.2084 36.8069 34.7064 36.8069 34.7064C36.8069 34.7064 35.3121 34.2043 35.3121 32.4413C35.3121 34.2043 33.8173 34.7064 33.8173 34.7064C33.8173 34.7064 35.3121 35.2084 35.3121 36.9715Z" fill="white" stroke="#3790F4" stroke-width="0.388057"/>
<path d="M65.9027 4.05978H58.8207V12.7808H65.9027V4.05978Z" fill="#F2B283"/>
<path d="M60.0612 5.50325H63.4669" stroke="#CC630D" stroke-width="0.45764" stroke-linecap="round"/>
<path d="M60.0612 6.99009H63.4669" stroke="#CC630D" stroke-width="0.45764" stroke-linecap="round"/>
<path d="M60.0612 7.75041H63.4669" stroke="#CC630D" stroke-width="0.45764" stroke-linecap="round"/>
<path d="M60.0612 8.51073H63.4669" stroke="#CC630D" stroke-width="0.45764" stroke-linecap="round"/>
<path d="M60.0612 10.8328H63.4669" stroke="#CC630D" stroke-width="0.45764" stroke-linecap="round"/>
<path d="M55.4322 58.3308C55.4322 58.3308 40.127 67.7297 34.1659 74.8513L40.5804 85.7824L67.824 80.3129L65.3976 70.5887L64.6288 69.6394C64.6288 69.6394 66.0271 67.9102 65.8918 66.1359L55.4322 58.3308Z" fill="#105A91"/>
<path d="M70.7149 83.9454L70.6586 84.5653C70.9924 84.6507 71.4075 84.7125 71.8336 84.7573V83.473L70.7149 83.9454Z" fill="white"/>
<path d="M71.203 72.2231L71.8336 74.7511V69.741L71.203 72.2231Z" fill="white"/>
<path d="M71.6729 72.364C71.6729 71.8701 71.7359 71.4438 71.8336 71.0731V68.7289H70.2753C69.8265 68.7289 69.4232 69.0035 69.2588 69.4212C69.0914 69.8463 69.1111 70.3222 69.3128 70.7321L70.2932 72.7228C70.488 73.1185 70.4883 73.5821 70.294 73.978L69.4335 75.7316C69.2361 76.134 69.2945 76.615 69.5827 76.9583L71.8336 79.641L71.8336 73.4523C71.7322 73.0649 71.6729 72.6983 71.6729 72.364Z" fill="#EF9D59"/>
<path d="M70.7149 83.9454C70.7149 83.9454 71.1861 84.0577 71.8336 84.1479V82.2835C71.2652 82.5382 70.636 83.0293 70.7149 83.9454Z" fill="#EF9D59"/>
<path d="M58.5635 71.0815C59.2184 71.0814 60.2264 73.0791 60.8602 75.6693C61.5181 78.3575 61.5238 80.6658 60.873 80.8251C60.8492 80.8309 60.8249 80.8338 60.8001 80.8338C60.1452 80.8338 59.1373 78.8361 58.5034 76.246C57.8455 73.5578 57.8398 71.2495 58.4906 71.0902C58.5144 71.0844 58.5387 71.0815 58.5635 71.0815ZM58.5636 70.4725H58.5635C58.49 70.4725 58.4167 70.4813 58.3459 70.4987C56.6613 70.9109 57.6888 75.4792 57.9119 76.3908C58.1183 77.2344 59.2279 81.4427 60.8001 81.4427C60.8736 81.4427 60.9468 81.4339 61.0177 81.4166C62.7023 81.0044 61.6748 76.4361 61.4517 75.5245C61.2453 74.6809 60.1357 70.4725 58.5636 70.4725Z" fill="#0B2E44"/>
<path d="M35.7386 66.4287C37.7904 66.4287 39.4537 64.7654 39.4537 62.7136C39.4537 60.6618 37.7904 58.9986 35.7386 58.9986C33.6868 58.9986 32.0236 60.6618 32.0236 62.7136C32.0236 64.7654 33.6868 66.4287 35.7386 66.4287Z" fill="#EFC6BD"/>
<path d="M32.0236 87.6646C35.9362 87.6646 39.1081 84.4928 39.1081 80.5801C39.1081 76.6674 35.9362 73.4956 32.0236 73.4956C28.1109 73.4956 24.9391 76.6674 24.9391 80.5801C24.9391 84.4928 28.1109 87.6646 32.0236 87.6646Z" fill="#105A91"/>
<path d="M48.5032 58.8377C48.5032 58.8377 32.4142 69.0809 26.4531 76.2026L33.6933 87.4648L60.8949 80.8197L58.4686 71.0956C58.4686 71.0956 66.1502 68.5877 65.6008 65.0372L48.5032 58.8377Z" fill="#105A91"/>
<path d="M60.8702 80.8225C61.521 80.6632 61.5153 78.355 60.8574 75.6668C60.1996 72.9787 59.1387 70.9287 58.4879 71.0879C57.8371 71.2472 57.8429 73.5555 58.5007 76.2436C59.1586 78.9317 60.2194 80.9817 60.8702 80.8225Z" fill="#0B2E44"/>
<path d="M64.4455 76.5622L64.1637 70.222V70.222C63.0858 69.8089 61.8844 69.8644 60.8492 70.3752L58.0886 71.7374C57.8993 72.6322 58.0378 74.3434 58.5034 76.246C58.6564 76.8712 58.8313 77.4612 59.0177 77.9976L62.642 76.5622H64.4455Z" fill="#EFC6BD"/>
<path d="M71.0111 71.0956C70.5602 69.2921 68.5878 69.5598 68.5878 69.5598L66.8971 70.7292L68.9823 80.4227L67.7706 85.386C67.7706 85.386 69.0723 85.7494 71.8336 84.5387V75.5309C71.288 73.8564 71.3644 72.5086 71.0111 71.0956Z" fill="#F2B283"/>
<path d="M30.9834 81.0144C32.9277 79.9155 36.9009 79.2815 42.5648 77.8021C48.2287 76.3227 58.4687 71.0956 58.4687 71.0956C58.4687 71.0956 62.614 69.5506 62.9147 66.0089" stroke="#0B2E44" stroke-width="0.68646" stroke-linecap="round"/>
<path d="M66.6575 69.5598H68.5877C68.5877 69.5598 67.3475 71.0956 67.8831 73.4062C68.4186 75.7169 70.7011 79.6337 70.7011 82.6206C70.7011 85.6076 67.6295 85.3821 67.6295 85.3821C67.6295 85.3821 65.3472 85.3821 64.1355 85.0722L64.1919 84.4522L67.996 82.8461L65.6289 76.534L64.6799 72.7299L65.4317 69.7712L66.6575 69.5598Z" fill="white"/>
<path d="M66.6576 69.5598C66.4171 69.3509 66.1092 69.2358 65.7906 69.2358H63.7524C63.3035 69.2358 62.9003 69.5103 62.7358 69.928C62.5685 70.3531 62.5881 70.8291 62.7899 71.239L63.7703 73.2297C63.9651 73.6254 63.9654 74.089 63.7711 74.4849L62.9106 76.2385C62.7131 76.6408 62.7716 77.1218 63.0597 77.4652L66.3474 81.3834C66.5544 81.6301 66.5663 81.9862 66.3763 82.2461L66.1644 82.5361C66.1644 82.5361 64.051 82.8179 64.1919 84.4523C64.1919 84.4523 66.1923 84.9313 67.6296 84.7059C69.0668 84.4804 69.7149 83.4096 68.9823 81.4371C68.2496 79.4646 65.15 75.3224 65.15 72.8708C65.15 70.4193 66.6576 69.5598 66.6576 69.5598Z" fill="#EF9D59"/>
<path d="M66.6998 63.0365L67.6295 67.6578C67.6295 67.6578 63.7692 66.7561 56.8373 66.9815C49.9053 67.2069 48.4871 61.5593 47.6464 58.8037L50.2022 57.1685L66.6998 63.0365Z" fill="white"/>
<path d="M66.2416 56.5697C68.7144 56.5697 70.7191 54.565 70.7191 52.0921C70.7191 49.6193 68.7144 47.6146 66.2416 47.6146C63.7687 47.6146 61.764 49.6193 61.764 52.0921C61.764 54.565 63.7687 56.5697 66.2416 56.5697Z" fill="#EFC6BD"/>
<path d="M70.1434 49.8943L65.629 41.0856L59.7271 45.6799L63.9673 52.0921L70.1434 49.8943Z" fill="#EFC6BD"/>
<path d="M32.3044 61.2956L36.0901 50.8291L42.6459 56.5697L38.9157 64.6403L32.3044 61.2956Z" fill="#EFC6BD"/>
<path d="M28.3252 53.7759L32.2113 63.8799L35.9547 55.9264L29.7749 49.3856C29.7749 49.3856 26.527 47.3783 24.0686 47.2655L24.3763 44.8285C24.425 44.4427 23.8976 44.2837 23.725 44.6322L22.4127 47.2821C22.3313 47.4464 22.3094 47.6338 22.3507 47.8124L23.2183 51.5663C23.3238 52.0225 23.69 52.3725 24.1504 52.4572L27.4725 53.0681C27.8606 53.1395 28.1836 53.4076 28.3252 53.7759Z" fill="#EFC6BD"/>
<path d="M35.4139 50.9083L32.098 60.0761C32.0384 60.2407 32.1296 60.4215 32.2973 60.4714C32.452 60.5175 32.6157 60.4349 32.6706 60.2832L35.9866 51.1154C36.0438 50.9573 35.962 50.7827 35.8038 50.7255C35.6457 50.6683 35.4711 50.7502 35.4139 50.9083Z" fill="#DBA59C"/>
<path d="M29.775 49.3856C29.775 49.3856 26.8579 45.3725 26.467 44.7026C26.076 44.0327 25.249 44.5903 25.6475 45.9354C26.046 47.2806 26.3467 48.4867 26.3467 48.4867L29.775 49.3856Z" fill="#EFC6BD"/>
<path d="M45.9153 33.8548L51.4269 29.9239L48.0659 24.4364L42.5266 25.7132L45.9153 33.8548Z" fill="#EFC6BD"/>
<path d="M43.3681 23.7233C46.1786 23.7233 48.4569 21.445 48.4569 18.6345C48.4569 15.8239 46.1786 13.5456 43.3681 13.5456C40.5575 13.5456 38.2792 15.8239 38.2792 18.6345C38.2792 21.445 40.5575 23.7233 43.3681 23.7233Z" fill="#514132"/>
<path d="M48.4565 18.5745L48.5289 25.2879C48.5421 26.5136 47.3165 27.3675 46.1712 26.9304L43.9942 26.0996L35.2152 19.5569L39.6128 15.1675L44.8068 18.6551L48.4565 18.5745Z" fill="#514132"/>
<path d="M44.2524 32.8162L51.8607 28.4236L50.7496 26.9445L43.6847 31.0234L44.2524 32.8162Z" fill="white"/>
<path d="M57.8952 29.7613L58.8057 31.4377C61.4153 36.2425 63.1021 41.4935 63.7791 46.9193L64.3891 51.8084L49.398 55.2592L41.0022 39.2208L41.5315 33.8548L51.607 27.9982C53.8254 26.7088 56.6706 27.5065 57.8952 29.7613Z" fill="#EF9D59"/>
<path d="M44.5962 45.4085C48.0135 45.4085 50.7838 42.6382 50.7838 39.2209C50.7838 35.8035 48.0135 33.0332 44.5962 33.0332C41.1789 33.0332 38.4086 35.8035 38.4086 39.2209C38.4086 42.6382 41.1789 45.4085 44.5962 45.4085Z" fill="#EF9D59"/>
<path d="M64.3891 51.8084L67.4278 60.0245C67.6512 60.6287 67.69 61.2856 67.5392 61.9119L67.1055 63.7128C67.1055 63.7128 62.5857 63.6001 57.6826 63.7128C52.7795 63.8255 49.5448 59.9765 49.3077 57.3051L49.3981 55.2592L57.0627 51.3705L64.3891 51.8084Z" fill="#EF9D59"/>
<path d="M51.1014 28.2922L51.4903 28.0675C54.302 26.4432 57.8799 27.1313 59.8883 29.6827L69.0495 41.32C69.0495 41.32 68.6302 47.7617 64.3891 52.0921L51.1014 28.2922Z" fill="#EF9D59"/>
<path d="M38.7583 37.1695L33.8647 53.6942C33.8647 53.6942 37.7189 58.7852 45.6406 59.8057L47.9306 44.4319L38.7583 37.1695Z" fill="#EF9D59"/>
<path d="M37.5177 22.8115C37.5177 22.8115 40.1565 27.7344 42.2134 30.3745C42.5206 30.7688 43.1149 30.771 43.4307 30.3836L44.8774 28.6091C45.1138 28.319 45.1385 27.9103 44.9386 27.5939L40.1975 20.0915L37.5177 22.8115Z" fill="#EFC6BD"/>
<path d="M39.2256 24.8615L39.4214 28.0608C39.4411 28.3833 39.7591 28.601 40.0668 28.5027L41.2544 28.1235L39.2256 24.8615Z" fill="#EFC6BD"/>
<path d="M36.8069 23.5582C38.0874 23.5582 39.1254 22.5202 39.1254 21.2397C39.1254 19.9593 38.0874 18.9212 36.8069 18.9212C35.5264 18.9212 34.4884 19.9593 34.4884 21.2397C34.4884 22.5202 35.5264 23.5582 36.8069 23.5582Z" fill="#514132"/>
<path d="M41.015 24.2345C42.1744 24.2345 43.1143 23.0991 43.1143 21.6984C43.1143 20.2978 42.1744 19.1624 41.015 19.1624C39.8555 19.1624 38.9156 20.2978 38.9156 21.6984C38.9156 23.0991 39.8555 24.2345 41.015 24.2345Z" fill="#514132"/>
<path d="M44.024 26.0885C44.4326 25.9127 44.4456 25.0302 44.0529 24.1173C43.6603 23.2044 43.0107 22.6069 42.6021 22.7826C42.1935 22.9584 42.1805 23.8409 42.5731 24.7538C42.9658 25.6667 43.6153 26.2642 44.024 26.0885Z" fill="#EFC6BD"/>
<path d="M52.2165 40.47C52.4499 40.3696 52.7033 40.3255 52.9785 40.3381C53.2525 40.3499 53.5292 40.4315 53.8067 40.5825C54.0854 40.7343 54.3548 40.9597 54.6158 41.261C54.8761 41.5625 55.1083 41.9496 55.3122 42.4235C55.4978 42.8551 55.6174 43.2881 55.6723 43.7233C55.7264 44.1588 55.7131 44.5645 55.6326 44.943C55.5521 45.3214 55.4035 45.6569 55.1875 45.9504C54.9703 46.2433 54.6868 46.4655 54.3359 46.6164C53.9757 46.7714 53.6172 46.8289 53.2615 46.7899C52.9053 46.7498 52.5648 46.627 52.2396 46.4207C51.9155 46.2151 51.6134 45.9315 51.3345 45.5707C51.0543 45.2091 50.8106 44.7854 50.6015 44.2991C50.4034 43.8387 50.2678 43.3526 50.1954 42.8429C50.123 42.3333 50.1058 41.789 50.1433 41.2113L50.3869 37.7763C50.3976 37.6224 50.4487 37.4732 50.541 37.3307C50.6334 37.1882 50.7625 37.0814 50.9282 37.0101L52.1493 36.4849L51.6449 40.5801C51.6358 40.6403 51.6274 40.7002 51.6202 40.7608C51.613 40.8214 51.606 40.8807 51.6001 40.9383C51.6796 40.8392 51.7694 40.7504 51.8704 40.6715C51.9713 40.5926 52.0868 40.5258 52.2165 40.47ZM52.0344 43.9985C52.1325 44.2266 52.2404 44.4237 52.3567 44.589C52.473 44.7543 52.5996 44.8858 52.736 44.9825C52.8723 45.0793 53.0155 45.1363 53.1668 45.1545C53.3176 45.1716 53.4753 45.1454 53.641 45.0741C53.7822 45.0133 53.8983 44.9181 53.9879 44.7891C54.078 44.661 54.1379 44.5105 54.1692 44.3392C54.2005 44.1679 54.2034 43.9819 54.178 43.78C54.1519 43.5783 54.0934 43.371 54.0024 43.1593C53.9007 42.9229 53.7859 42.7215 53.657 42.5567C53.5281 42.3919 53.3921 42.2645 53.2489 42.1756C53.1057 42.0867 52.9573 42.0355 52.8031 42.0223C52.6484 42.0081 52.494 42.0341 52.3406 42.1001C52.2022 42.1596 52.0905 42.2493 52.0055 42.3691C51.9199 42.4878 51.864 42.6317 51.8361 42.7991C51.8083 42.9665 51.8097 43.1506 51.8411 43.3524C51.8717 43.5546 51.9363 43.7703 52.0344 43.9985Z" fill="white"/>
<path d="M55.594 34.8833C55.9124 34.7464 56.2231 34.6886 56.5264 34.7111C56.8297 34.7336 57.1144 34.8179 57.3805 34.964C57.6458 35.1105 57.8859 35.3094 58.0985 35.5617C58.3115 35.8127 58.4876 36.0991 58.6257 36.4202C58.7514 36.7124 58.841 36.9784 58.8954 37.2181C58.9491 37.458 58.9705 37.6764 58.96 37.8742C58.9487 38.0724 58.9081 38.2538 58.8373 38.4188C58.767 38.5848 58.6717 38.7384 58.5511 38.8808C59.4178 38.9289 60.0745 39.471 60.5198 40.5066C60.7308 40.997 60.8527 41.4511 60.885 41.8678C60.9172 42.2858 60.8811 42.6586 60.7768 42.9897C60.6728 43.3195 60.5092 43.604 60.2867 43.8429C60.0641 44.0817 59.8032 44.2649 59.5056 44.3929C59.1987 44.5249 58.9053 44.5948 58.6252 44.6027C58.3452 44.6106 58.0692 44.5544 57.7967 44.433C57.5242 44.3116 57.2513 44.1256 56.9766 43.8719C56.7015 43.6194 56.4199 43.3001 56.1313 42.9129L56.5894 42.295C56.6274 42.2383 56.6702 42.1929 56.7163 42.1572C56.7621 42.1228 56.8106 42.0946 56.861 42.0729C56.9554 42.0323 57.0512 42.0229 57.1495 42.043C57.2471 42.0635 57.3373 42.1164 57.419 42.2012C57.7033 42.4949 57.9534 42.6895 58.1705 42.7833C58.388 42.8782 58.5973 42.8824 58.7976 42.7962C58.951 42.7302 59.069 42.6354 59.1502 42.5124C59.2325 42.3902 59.286 42.2546 59.3107 42.1057C59.3362 41.9565 59.3363 41.7999 59.3109 41.6358C59.2856 41.4717 59.2402 41.3126 59.175 41.1609C59.0893 40.9616 59.0031 40.787 58.9152 40.6364C58.8278 40.4868 58.7159 40.3735 58.578 40.297C58.4406 40.2215 58.2688 40.1914 58.0642 40.206C57.8594 40.2219 57.5975 40.2978 57.2784 40.4351L56.6944 39.0774C56.9631 38.9619 57.1676 38.8397 57.3075 38.7085C57.4472 38.5787 57.5396 38.4423 57.5852 38.3003C57.6304 38.1573 57.6365 38.0067 57.6021 37.8453C57.5681 37.685 57.5124 37.5157 57.436 37.3381C57.2797 36.9747 57.0977 36.7202 56.8908 36.5767C56.684 36.4332 56.4548 36.4143 56.2041 36.5222C56.101 36.5665 56.016 36.6287 55.9485 36.7079C55.8809 36.7872 55.829 36.8768 55.7917 36.9785C55.7546 37.0789 55.7326 37.1886 55.7261 37.3064C55.7193 37.4256 55.7257 37.5476 55.7454 37.6749C55.7796 37.8853 55.7789 38.0484 55.7432 38.164C55.7076 38.2797 55.6278 38.3641 55.5039 38.4174C55.4744 38.4301 55.4411 38.442 55.4054 38.4525C55.3698 38.4629 55.3326 38.4716 55.2933 38.4775L54.488 38.606C54.3375 38.1251 54.2556 37.6844 54.2421 37.284C54.2294 36.8833 54.2728 36.5258 54.3743 36.2118C54.475 35.8981 54.6294 35.6298 54.8386 35.4077C55.0467 35.1848 55.2986 35.0104 55.594 34.8833Z" fill="white"/>
<path d="M59.0707 31.2937C58.9239 31.3734 58.87 31.556 58.9488 31.7033C61.477 36.4358 63.1146 41.5934 63.7791 46.9193L64.3891 51.8084L64.4644 52.0119C64.6362 51.8335 64.8008 51.6512 64.9601 51.4664L64.3834 46.8439C63.7069 41.4218 62.0598 36.2335 59.4866 31.4178C59.4069 31.2685 59.2195 31.2129 59.0707 31.2937Z" fill="#EA8021"/>
<path d="M47.8857 44.7331L47.0001 50.6785L47.4794 51.5941L48.4881 44.8228C48.5128 44.6565 48.3981 44.5016 48.2318 44.4768C48.0654 44.452 47.9105 44.5668 47.8857 44.7331Z" fill="#EA8021"/>
<path d="M60.4267 78.9429L60.895 80.8197L40.5807 85.7823L54.9824 82.891L61.0395 81.4113H61.0395C61.3673 81.3312 61.5675 80.9997 61.4858 80.6723L61.0108 78.7686L60.4267 78.9429Z" fill="#0B2E44"/>
<path d="M48.7418 71.8655H1.15066C0.515167 71.8655 0 71.3503 0 70.7149V70.7148C0 70.0794 0.515167 69.5642 1.15066 69.5642H48.7418C49.3773 69.5642 49.8925 70.0794 49.8925 70.7148V70.7149C49.8925 71.3503 49.3773 71.8655 48.7418 71.8655Z" fill="#EA8021"/>
<path d="M1.51538 71.8655L7.14489 86.4508C7.77765 88.0902 9.35386 89.1714 11.1111 89.1714H38.7814C40.5386 89.1714 42.1149 88.0902 42.7476 86.4508L48.3771 71.8655H1.51538ZM12.9595 86.6292C12.8284 86.6791 12.6938 86.7029 12.5614 86.7029C12.1118 86.7029 11.6882 86.4293 11.5181 85.9843L7.64845 75.849C7.42861 75.2729 7.71724 74.6277 8.2933 74.4076C8.86955 74.1884 9.5146 74.4764 9.73463 75.0525L13.6043 85.1878C13.8241 85.7639 13.5355 86.4091 12.9595 86.6292ZM18.8994 86.6827C18.8287 86.6962 18.7583 86.7027 18.6889 86.7027C18.1636 86.7027 17.6956 86.3304 17.5935 85.7954L15.6586 75.66C15.543 75.0545 15.9403 74.4697 16.5459 74.3541C17.1526 74.2389 17.7362 74.6358 17.8518 75.2414L19.7867 85.3767C19.9023 85.9823 19.505 86.5671 18.8994 86.6827ZM25.9355 85.5861C25.9355 86.2026 25.4355 86.7025 24.819 86.7025C24.2025 86.7025 23.7026 86.2026 23.7026 85.5861V75.4507C23.7026 74.8342 24.2025 74.3343 24.819 74.3343C25.4355 74.3343 25.9355 74.8342 25.9355 75.4507V85.5861ZM33.9795 75.66L32.0445 85.7954C31.9425 86.3302 31.4744 86.7027 30.9491 86.7027C30.8797 86.7027 30.8094 86.6962 30.7386 86.6827C30.133 86.5671 29.7357 85.9823 29.8513 85.3767L31.7862 75.2414C31.9018 74.636 32.4856 74.2391 33.0922 74.3541C33.6978 74.4697 34.095 75.0544 33.9795 75.66ZM41.9896 75.849L38.1199 85.9843C37.9499 86.4293 37.5262 86.7029 37.0766 86.7029C36.9442 86.7029 36.8096 86.6791 36.6786 86.6292C36.1025 86.4091 35.8139 85.7639 36.0337 85.1878L39.9034 75.0525C40.1237 74.4764 40.7689 74.188 41.3448 74.4076C41.9208 74.6277 42.2094 75.2729 41.9896 75.849Z" fill="#EF9D59"/>
</svg>
