<svg width="31" height="30" viewBox="0 0 31 30" fill="none" xmlns="http://www.w3.org/2000/svg">
<circle cx="15.5" cy="15" r="15" fill="#3790F4"/>
<path fill-rule="evenodd" clip-rule="evenodd" d="M14.3867 17.6348H16.7305L17.0625 7.78125H14.0547L14.3867 17.6348ZM16.7012 19.5977C16.4147 19.3177 16.0339 19.1777 15.5586 19.1777C15.0898 19.1777 14.709 19.321 14.416 19.6074C14.1296 19.8874 13.9863 20.2422 13.9863 20.6719C13.9863 21.1016 14.1296 21.4564 14.416 21.7363C14.709 22.0163 15.0898 22.1562 15.5586 22.1562C16.0339 22.1562 16.4147 22.0163 16.7012 21.7363C16.9941 21.4564 17.1406 21.1016 17.1406 20.6719C17.1406 20.2357 16.9941 19.8776 16.7012 19.5977Z" fill="white"/>
</svg>
