<svg width="140" height="82" viewBox="0 0 140 82" fill="none" xmlns="http://www.w3.org/2000/svg">
<g clip-path="url(#clip0)">
<path d="M103.257 62.4817C103.257 62.4817 105.61 62.9872 111.451 63.3234C117.293 63.6595 119.725 63.0693 122.587 62.7173C125.448 62.3652 127.801 62.9925 128.624 64.091L139.918 58.7179C139.918 58.7179 139.802 57.9741 137.449 58.207C135.096 58.4426 131.763 56.2854 129.762 56.4416C127.761 56.5977 121.176 57.2489 120.233 56.4336C120.233 56.4336 120.803 54.9779 120.792 54.1812H103.254V62.4817H103.257Z" fill="#105A91"/>
<path d="M116.354 36.2884C116.354 36.2884 117.413 37.5827 117.728 38.6017L111.139 45.4412L105.417 36.5637L114.594 33.6865L116.354 36.2884Z" fill="#105A91"/>
<path d="M89.5512 28.6655H60.3193V54.7529H89.5512V28.6655Z" fill="#105A91"/>
<path d="M72.6718 52.6247C72.6718 52.6247 70.9328 53.3526 70.9328 51.9419C70.9328 50.5311 71.7004 50.1737 71.2054 49.1468C70.7105 48.1224 69.1594 46.0711 71.2054 45.5365C73.2514 45.0018 74.2546 45.3168 74.7548 44.491C75.2551 43.6651 76.7268 43.3078 77.0841 44.9118C77.4414 46.5158 74.4981 47.9425 75.3451 48.6571C76.1921 49.3691 77.4467 49.8164 77.1529 50.7534C76.8591 51.6904 74.6966 50.8752 74.1725 51.3728C73.6485 51.8704 72.9788 52.5215 72.6718 52.6247Z" fill="#0B467B"/>
<path d="M72.6299 5.70127C72.6299 5.70127 77.1004 2.36889 79.8055 1.46631L92.3966 5.21955C92.3966 5.21955 95.4696 5.68275 97.8835 9.68214C100.297 13.6815 103.648 21.2701 106.47 24.5045L85.7662 35.5631L72.6299 5.70127Z" fill="#DCECFF"/>
<path d="M96.825 73.323C96.825 73.323 97.6191 74.2944 95.9436 74.882C94.2682 75.4696 88.4742 74.9984 85.65 75.324C82.8258 75.6496 81.828 76.0016 81.7671 75.324C81.7089 74.6464 81.7671 73.5876 81.7671 73.5876L94.4429 72.3516L96.825 73.323Z" fill="#105A91"/>
<path d="M58.594 60.6157C58.594 60.6157 53.3002 65.56 60.5341 68.7362C67.7679 71.9124 78.4745 72.5 81.7672 75.3242C81.7672 75.3242 93.0613 72.3836 96.8251 73.3232C96.8251 73.3232 94.0009 71.1475 91.4732 67.913C88.9428 64.6786 85.1789 57.0054 85.1789 57.0054H60.2403L58.594 60.6157Z" fill="#FF952D"/>
<path d="M63.4168 20.1507C63.4168 20.1507 63.5942 23.0332 63.0648 23.8563C62.5354 24.6795 56.7256 35.0711 56.7256 35.0711L63.0039 43.9142C63.0039 43.9142 70.6507 37.522 73.062 32.0113C75.4733 26.5005 70.1213 10.6221 70.1213 10.6221L63.6524 16.6807L63.4168 20.1507Z" fill="#1773C6"/>
<path d="M14.6084 50.5731C14.6084 50.5731 19.6559 50.7954 24.0471 47.9713C28.4382 45.1471 30.5954 41.2668 37.4587 44.2074V54.9907H14.6084V50.5731Z" fill="#DCECFF"/>
<path d="M34.2239 49.6231C32.9905 49.6231 31.9873 48.6199 31.9873 47.3865C31.9873 46.1531 32.9905 45.1499 34.2239 45.1499C35.4573 45.1499 36.4605 46.1531 36.4605 47.3865C36.4605 48.6199 35.4573 49.6231 34.2239 49.6231ZM34.2239 45.6793C33.2816 45.6793 32.5167 46.4442 32.5167 47.3865C32.5167 48.3288 33.2816 49.0937 34.2239 49.0937C35.1662 49.0937 35.9311 48.3288 35.9311 47.3865C35.9311 46.4442 35.1662 45.6793 34.2239 45.6793Z" fill="#105A91"/>
<path d="M36.7525 44.3265C36.7525 44.3265 35.7731 47.59 34.3597 49.0749C32.9489 50.5598 31.1517 52.0288 31.2073 55.5888H42.4194V42.209H37.2421L36.7525 44.3265Z" fill="#EA8021"/>
<path d="M52.5928 66.441C52.5928 66.441 52.6511 67.6771 57.8866 64.0297C63.122 60.3823 67.2988 57.8546 69.7683 57.2643L67.0923 54.5884L50.7109 64.7946L52.5928 66.441Z" fill="#EA8021"/>
<path d="M40.9864 48.1676C40.9864 48.1676 40.7508 43.3847 39.4962 42.7574C38.2416 42.1301 37.1432 42.8368 36.7514 44.327C36.7514 44.327 36.0924 40.7988 38.853 38.5225C41.6137 36.2488 51.0259 31.3071 55.3376 27.6201C59.6494 23.933 65.2183 20.9526 68.7492 20.7197C68.7492 20.7197 72.6692 26.0531 74.9455 28.4062C77.2192 30.7592 75.9646 32.0138 75.9646 32.0138C75.9646 32.0138 69.6121 35.3065 62.7118 35.2298C62.7118 35.2298 63.2597 40.3276 68.3575 46.2883C73.4554 52.249 74.6306 55.4438 74.6306 55.4438C74.6306 55.4438 74.1594 57.7122 67.3358 58.8238C60.5122 59.9355 52.5135 63.9349 52.5929 66.4441C52.5929 66.4415 43.4956 65.343 40.9864 48.1676Z" fill="#CC630D"/>
<path d="M59.1552 39.168C56.9901 40.2744 58.0462 42.249 59.4146 42.6592C60.783 43.0721 60.7063 44.6232 62.2308 47.3548C63.7554 50.0863 66.1164 47.106 67.4028 46.0154C67.5643 45.8778 67.7178 45.7746 67.866 45.6952C66.3758 43.8662 65.3118 42.1299 64.5521 40.6212C63.3425 40.5603 60.9259 38.2655 59.1552 39.168Z" fill="#BF4F09"/>
<path d="M61.1855 30.481C61.1855 30.481 57.1411 41.1107 51.1804 48.5616C46.9772 53.813 45.6961 58.5164 45.3018 60.8377C46.5431 62.7144 47.8507 63.9663 49.01 64.8027C48.2954 60.5783 51.8024 52.8998 55.8733 48.4849C60.6456 43.3076 62.9378 36.3887 62.9378 36.3887C62.7525 35.6503 62.7075 35.2321 62.7075 35.2321C64.7138 35.2559 66.6725 34.9912 68.4432 34.6074C68.467 30.5657 61.1855 30.481 61.1855 30.481Z" fill="#EF9D59"/>
<path d="M48.9459 43.1594C52.535 39.5041 59.0383 28.8135 59.6683 24.4224C58.1702 25.3779 56.6906 26.4631 55.338 27.6198C54.364 28.4535 53.1253 29.3508 51.7648 30.2666C49.6129 34.3454 46.4552 39.8641 43.1916 43.9111C42.2837 45.0387 41.5347 46.1689 40.918 47.2779C40.9683 47.8073 40.9868 48.1673 40.9868 48.1673C41.3732 50.8035 41.9132 53.0587 42.5511 54.9935L42.5537 54.9909C42.5537 54.9909 45.3594 46.8147 48.9459 43.1594Z" fill="#EF9D59"/>
<path d="M74.9436 28.4061C73.4323 26.8418 71.1931 23.962 69.8617 22.2072C68.7024 21.8101 67.5219 21.4502 66.3943 21.1802C64.3509 21.789 61.982 22.9483 59.666 24.4226C59.674 24.4226 69.9437 25.9366 73.0591 32.0137C73.2497 32.387 73.4376 32.7284 73.6176 33.0407C75.0786 32.4717 75.96 32.0137 75.96 32.0137C75.96 32.0137 77.2199 30.7591 74.9436 28.4061Z" fill="#EF9D59"/>
<path d="M38.8531 38.5225C36.0924 40.7962 36.7514 44.3271 36.7514 44.3271C37.122 42.919 38.1225 42.2123 39.2898 42.6675C39.9859 40.7168 40.9811 38.2658 42.1802 36.2568C40.7561 37.1488 39.5756 37.927 38.8531 38.5225Z" fill="#EF9D59"/>
<path d="M30.9868 73.225C30.9868 73.225 39.6923 72.206 41.5346 76.0095C43.3768 79.813 43.9273 81.8908 46.2804 81.0676C48.6334 80.2444 49.4963 77.8914 53.6916 76.8723C57.8868 75.8533 62.6326 73.6167 61.4177 72.0498C60.2028 70.4802 52.7916 71.9333 47.1432 70.639C41.4949 69.3447 35.5765 67.9736 35.5765 67.9736C35.5765 67.9736 30.7116 69.5776 30.9868 73.225Z" fill="#1773C6"/>
<path d="M41.7617 76.4833C43.4266 79.9825 44.0274 81.8564 46.2799 81.0677C47.9342 80.488 48.8526 79.154 50.7107 78.0582C46.5552 75.6363 41.7617 76.4833 41.7617 76.4833Z" fill="#3790F4"/>
<path d="M61.4153 72.0498C60.825 71.2875 58.7658 71.2372 56.1613 71.2398C53.7685 73.4897 54.9172 76.5441 54.9172 76.5441C58.7499 75.4272 62.5137 73.4658 61.4153 72.0498Z" fill="#3790F4"/>
<path d="M41.5475 71.2188C42.4289 71.4041 42.5454 73.1272 44.1335 73.6645C45.7216 74.1992 46.0101 72.4126 46.0101 72.4126C46.4521 71.6264 46.4733 71.8303 47.8126 72.5687C48.6331 73.0213 49.3107 71.9255 49.4219 71.015C48.6437 70.9277 47.8788 70.8059 47.1403 70.6365C44.737 70.086 42.2834 69.5196 40.2585 69.0537C40.2029 69.0908 40.1447 69.1305 40.0918 69.1781C38.9536 70.1574 40.6661 71.0336 41.5475 71.2188Z" fill="#0E59B4"/>
<path d="M93.3339 65.7346L102.476 63.7786C102.476 63.7786 116.356 58.6463 116.708 54.0434C117.06 49.4432 117.296 44.5598 113.847 42.5217C110.398 40.4836 107.728 38.9934 106.473 35.0708L84.9063 42.13C84.9063 42.13 80.2796 45.8938 80.7508 51.6189C80.7508 51.6189 69.5863 49.9223 65.3223 54.1361C65.3223 54.1361 65.5367 57.5002 66.1825 60.912C66.8283 64.3238 70.301 65.7346 70.301 65.7346C70.301 65.7346 72.1829 61.1476 77.2993 62.9104C82.4157 64.6785 89.1995 66.5869 93.3339 65.7346Z" fill="#DCECFF"/>
<path d="M69.6845 54.7926C69.6845 53.7815 69.0016 52.9054 68.0011 52.4634C67.7099 52.5798 67.4267 52.7069 67.1541 52.8472C68.2472 53.0669 69.0625 53.8556 69.0625 54.7953C69.0625 55.9043 67.9323 56.8042 66.54 56.8042C66.1906 56.8042 65.8571 56.746 65.5527 56.6428C65.5766 56.8572 65.603 57.0822 65.6321 57.3151C65.9206 57.3892 66.225 57.4289 66.54 57.4289C68.2737 57.4263 69.6845 56.2457 69.6845 54.7926Z" fill="#3790F4"/>
<path d="M89.5514 62.7461C87.8177 62.7461 86.4043 63.9266 86.4043 65.3797C86.4043 65.4035 86.4069 65.4247 86.4096 65.4485C86.6213 65.4882 86.8304 65.5253 87.0395 65.5623C87.0316 65.5015 87.0289 65.4406 87.0289 65.3797C87.0289 64.2707 88.1592 63.3708 89.5514 63.3708C90.941 63.3708 92.0738 64.2733 92.0738 65.3797C92.0738 65.565 92.0394 65.7423 91.9812 65.9117C92.2088 65.8959 92.4285 65.8747 92.6456 65.8482C92.6773 65.6973 92.6985 65.5412 92.6985 65.3797C92.6985 63.9266 91.2851 62.7461 89.5514 62.7461Z" fill="#3790F4"/>
<path d="M111.004 54.8086C109.252 54.8086 107.825 56.2352 107.825 57.9875C107.825 59.1336 108.437 60.1367 109.347 60.6952C109.593 60.5655 109.839 60.4332 110.086 60.2982C109.167 59.9329 108.513 59.0356 108.513 57.9875C108.513 56.6137 109.63 55.4968 111.004 55.4968C112.378 55.4968 113.495 56.6137 113.495 57.9875C113.495 58.0483 113.489 58.1092 113.484 58.1701C113.72 57.9981 113.947 57.8207 114.164 57.646C113.995 56.0526 112.642 54.8086 111.004 54.8086Z" fill="#3790F4"/>
<path d="M103.474 42.9372C103.474 42.9372 101.521 43.1569 101.619 41.3385C101.717 39.5202 103.485 38.8955 103.424 37.9188C103.363 36.9421 103.781 34.8961 105.136 35.8013C106.492 36.7066 105.907 38.7261 106.854 39.5016C107.804 40.2772 110.97 42.1988 109.422 43.1331C107.873 44.0675 106.478 43.8531 106.875 45.1791C107.272 46.5052 103.453 46.484 103.834 44.8668C104.215 43.2522 104.424 43.1728 103.474 42.9372Z" fill="#BFCEDB"/>
<path d="M99.2312 55.441C100.56 55.441 101.637 54.5593 101.637 53.4717C101.637 52.3841 100.56 51.5024 99.2312 51.5024C97.9024 51.5024 96.8252 52.3841 96.8252 53.4717C96.8252 54.5593 97.9024 55.441 99.2312 55.441Z" fill="#3790F4"/>
<path d="M89.9958 59.3819C91.3246 59.3819 92.4018 58.5002 92.4018 57.4126C92.4018 56.325 91.3246 55.4434 89.9958 55.4434C88.667 55.4434 87.5898 56.325 87.5898 57.4126C87.5898 58.5002 88.667 59.3819 89.9958 59.3819Z" stroke="#3790F4" stroke-width="2" stroke-miterlimit="10"/>
<path d="M29.4336 53.9295C30.2713 53.9295 30.9503 53.3737 30.9503 52.6882C30.9503 52.0026 30.2713 51.4468 29.4336 51.4468C28.596 51.4468 27.917 52.0026 27.917 52.6882C27.917 53.3737 28.596 53.9295 29.4336 53.9295Z" fill="#105A91"/>
<path d="M104.879 49.6129C105.777 49.6129 106.504 49.0169 106.504 48.2816C106.504 47.5463 105.777 46.9502 104.879 46.9502C103.982 46.9502 103.254 47.5463 103.254 48.2816C103.254 49.0169 103.982 49.6129 104.879 49.6129Z" stroke="#3790F4" stroke-width="2" stroke-miterlimit="10"/>
<path d="M107.352 39.8429C108.249 39.8429 108.977 39.2468 108.977 38.5115C108.977 37.7762 108.249 37.1802 107.352 37.1802C106.454 37.1802 105.727 37.7762 105.727 38.5115C105.727 39.2468 106.454 39.8429 107.352 39.8429Z" stroke="#3790F4" stroke-width="2" stroke-miterlimit="10"/>
<path d="M88.461 50.3964C89.6217 50.3964 90.5626 49.6249 90.5626 48.6733C90.5626 47.7217 89.6217 46.9502 88.461 46.9502C87.3003 46.9502 86.3594 47.7217 86.3594 48.6733C86.3594 49.6249 87.3003 50.3964 88.461 50.3964Z" stroke="#3790F4" stroke-width="2" stroke-miterlimit="10"/>
<path d="M101.06 43.4324C101.708 43.4324 102.233 43.0022 102.233 42.4716C102.233 41.9409 101.708 41.5107 101.06 41.5107C100.413 41.5107 99.8877 41.9409 99.8877 42.4716C99.8877 43.0022 100.413 43.4324 101.06 43.4324Z" fill="#3790F4"/>
<path d="M77.3389 61.579C78.2978 61.579 79.0752 60.9414 79.0752 60.155C79.0752 59.3685 78.2978 58.731 77.3389 58.731C76.3799 58.731 75.6025 59.3685 75.6025 60.155C75.6025 60.9414 76.3799 61.579 77.3389 61.579Z" fill="#3790F4"/>
<path d="M104.589 62.246C104.369 61.1423 100.856 60.5017 96.9179 61.2852C92.9768 62.0687 89.9488 63.9665 90.1685 65.0702C90.3882 66.174 93.3738 65.6658 97.315 64.8823C101.256 64.1015 104.808 63.3498 104.589 62.246Z" fill="#105A91"/>
<path d="M94.6279 63.4608L95.3426 65.2606C95.9646 65.1468 96.6237 65.0198 97.3145 64.8821C98.6988 64.6069 100.035 64.3369 101.179 64.051L100.745 62.0474C97.7274 62.402 94.6279 63.4608 94.6279 63.4608Z" fill="#EF9D59"/>
<path d="M111.026 55.9786C111.026 55.9786 108.471 56.68 108.823 52.797C109.175 48.9141 114.117 37.0933 117.352 37.9164C120.586 38.7396 119.585 41.2091 121.764 43.9168C123.94 46.6219 124.233 49.4567 123.881 50.5102C123.881 50.5102 125.096 52.7891 123.397 53.7049L111.026 55.9786Z" fill="#EF9D59"/>
<path d="M128.627 64.0883C128.627 64.0883 128.706 60.3536 131.999 59.9407C135.292 59.5278 136.882 59.2181 137.88 58.7046C138.878 58.1911 139.693 58.1355 139.918 58.7152C140.143 59.2949 139.937 60.1471 138.849 60.3536C137.761 60.5601 133.555 62.2064 132.232 63.0005C130.909 63.7945 128.873 65.1179 128.627 64.0883Z" fill="#3790F4"/>
<path d="M0.259766 57.4683C0.259766 57.4683 2.99132 55.1868 5.81286 53.109C8.63441 51.0312 10.1272 50.3245 13.1076 50.4039C16.0879 50.4833 21.1858 52.6775 25.696 53.3048C30.2063 53.9321 32.5964 54.0883 35.5767 53.461L30.5186 57.9712L25.1084 58.5774C25.1084 58.5774 23.4621 58.4397 22.3636 59.1067L0.259766 57.4683Z" fill="#FF952D"/>
<path d="M63.4164 20.1506C63.4164 20.1506 65.1819 14.0337 68.4746 16.1512C71.7673 18.2686 72.1219 24.15 71.5343 29.3854C70.9467 34.6209 71.0632 42.1486 75.5337 45.6795C75.5337 45.6795 84.586 43.0061 87.9237 38.1518C87.9237 38.1518 84.4166 29.5045 83.064 20.2114C81.7115 10.9183 75.7111 2.97778 71.1823 5.09526C66.6535 7.21274 60.182 18.5624 63.4164 20.1506Z" fill="#3790F4"/>
<path d="M77.8477 1.74155C77.8477 1.74155 80.2404 -0.611502 83.4749 0.153438C86.7093 0.918379 87.1805 2.09358 89.1206 2.50649C91.0607 2.9194 92.8262 4.91777 92.768 6.91879C92.7097 8.91982 97.1194 24.8009 100.531 29.6235C100.531 29.6235 93.5911 33.3953 88.4721 35.2692C88.4721 35.2692 85.3965 23.5649 82.17 18.9752C78.9461 14.3882 78.9064 5.03424 77.8477 1.74155Z" fill="#EF9D59"/>
<path d="M87.6905 3.06994C86.2321 3.42462 87.357 4.98362 88.0585 5.55004C88.7572 6.11647 88.0796 7.70458 89.2495 8.90361C90.4195 10.1026 91.4888 8.64421 91.4888 8.64421C92.2405 8.14661 92.1664 8.33718 93.0213 9.60502C93.0981 9.71884 93.1881 9.80089 93.286 9.85647C92.9446 8.406 92.754 7.34726 92.7646 6.91847C92.7937 5.9259 92.3728 4.93333 91.7058 4.13662C91.5391 4.16839 91.3882 4.19485 91.2664 4.21338C90.1521 4.37219 89.149 2.71526 87.6905 3.06994Z" fill="#DB8646"/>
<path d="M24.1241 61.0312C24.1241 61.0312 25.1246 64.9142 31.1832 62.8549C37.2419 60.7957 38.065 59.5014 41.4186 59.856C44.7722 60.2081 45.3598 57.9159 45.066 54.0912C44.7722 50.2665 48.0066 48.914 48.0066 48.914C48.0066 48.914 47.8293 42.7388 44.7722 40.8569C44.7722 40.8569 39.1264 46.328 36.9481 50.2691C34.7724 54.2103 29.8889 56.5634 27.1256 57.2092C24.3623 57.855 23.5365 59.2076 24.1241 61.0312Z" fill="#3790F4"/>
<path d="M34.0309 55.1473C32.644 55.7905 34.8038 58.5671 35.537 57.5242C36.2702 56.4813 36.9107 57.6142 38.4697 58.2018C40.026 58.7894 39.6131 55.4041 39.6343 54.2765C39.6555 53.149 41.4501 52.4237 41.3336 50.9256C41.2171 49.4275 39.4993 50.293 38.827 50.8938C38.3347 51.3332 37.4215 50.9574 36.4316 51.1029C35.9499 51.8044 35.3835 52.4502 34.7667 53.0378C34.915 53.4745 35.2246 53.7895 35.2246 53.7895C35.5952 54.6074 35.4179 54.5015 34.0309 55.1473Z" fill="#217DC1"/>
<path d="M36.6837 55.364C37.112 55.364 37.4593 55.0168 37.4593 54.5885C37.4593 54.1602 37.112 53.813 36.6837 53.813C36.2554 53.813 35.9082 54.1602 35.9082 54.5885C35.9082 55.0168 36.2554 55.364 36.6837 55.364Z" fill="#DCECFF"/>
<path d="M34.508 57.7786C34.9363 57.7786 35.2835 57.4314 35.2835 57.0031C35.2835 56.5748 34.9363 56.2275 34.508 56.2275C34.0796 56.2275 33.7324 56.5748 33.7324 57.0031C33.7324 57.4314 34.0796 57.7786 34.508 57.7786Z" fill="#DCECFF"/>
<path d="M31.4767 57.5506C31.905 57.5506 32.2522 57.2033 32.2522 56.775C32.2522 56.3467 31.905 55.9995 31.4767 55.9995C31.0484 55.9995 30.7012 56.3467 30.7012 56.775C30.7012 57.2033 31.0484 57.5506 31.4767 57.5506Z" fill="#DCECFF"/>
<path d="M37.3292 59.3557C37.7575 59.3557 38.1048 59.0085 38.1048 58.5802C38.1048 58.1519 37.7575 57.8047 37.3292 57.8047C36.9009 57.8047 36.5537 58.1519 36.5537 58.5802C36.5537 59.0085 36.9009 59.3557 37.3292 59.3557Z" fill="#DCECFF"/>
<path d="M39.629 56.0022C40.0574 56.0022 40.4046 55.655 40.4046 55.2267C40.4046 54.7984 40.0574 54.4512 39.629 54.4512C39.2007 54.4512 38.8535 54.7984 38.8535 55.2267C38.8535 55.655 39.2007 56.0022 39.629 56.0022Z" fill="#DCECFF"/>
<path d="M38.8536 52.5901C39.282 52.5901 39.6292 52.2429 39.6292 51.8146C39.6292 51.3863 39.282 51.0391 38.8536 51.0391C38.4253 51.0391 38.0781 51.3863 38.0781 51.8146C38.0781 52.2429 38.4253 52.5901 38.8536 52.5901Z" fill="#DCECFF"/>
<path d="M42.4191 52.7679C42.8474 52.7679 43.1946 52.4206 43.1946 51.9923C43.1946 51.564 42.8474 51.2168 42.4191 51.2168C41.9908 51.2168 41.6436 51.564 41.6436 51.9923C41.6436 52.4206 41.9908 52.7679 42.4191 52.7679Z" fill="#DCECFF"/>
<path d="M40.7413 49.0755C41.1697 49.0755 41.5169 48.7283 41.5169 48.2999C41.5169 47.8716 41.1697 47.5244 40.7413 47.5244C40.313 47.5244 39.9658 47.8716 39.9658 48.2999C39.9658 48.7283 40.313 49.0755 40.7413 49.0755Z" fill="#DCECFF"/>
<path d="M44.505 49.7581C44.9333 49.7581 45.2806 49.4109 45.2806 48.9826C45.2806 48.5542 44.9333 48.207 44.505 48.207C44.0767 48.207 43.7295 48.5542 43.7295 48.9826C43.7295 49.4109 44.0767 49.7581 44.505 49.7581Z" fill="#DCECFF"/>
<path d="M42.2706 45.7986C42.699 45.7986 43.0462 45.4514 43.0462 45.0231C43.0462 44.5948 42.699 44.2476 42.2706 44.2476C41.8423 44.2476 41.4951 44.5948 41.4951 45.0231C41.4951 45.4514 41.8423 45.7986 42.2706 45.7986Z" fill="#DCECFF"/>
<path d="M45.8605 46.4549C46.2888 46.4549 46.636 46.1076 46.636 45.6793C46.636 45.251 46.2888 44.9038 45.8605 44.9038C45.4322 44.9038 45.085 45.251 45.085 45.6793C45.085 46.1076 45.4322 46.4549 45.8605 46.4549Z" fill="#DCECFF"/>
<path d="M34.508 60.7376C34.9363 60.7376 35.2835 60.3904 35.2835 59.962C35.2835 59.5337 34.9363 59.1865 34.508 59.1865C34.0796 59.1865 33.7324 59.5337 33.7324 59.962C33.7324 60.3904 34.0796 60.7376 34.508 60.7376Z" fill="#DCECFF"/>
<path d="M33.5949 54.6892C34.0237 54.6892 34.3704 54.3425 34.3704 53.9137C34.3704 53.7628 34.3254 53.6225 34.2513 53.5034C33.8596 53.8396 33.4546 54.1545 33.0391 54.4483C33.1767 54.5966 33.3752 54.6892 33.5949 54.6892Z" fill="#DCECFF"/>
<path d="M36.7498 51.2828C36.7498 51.116 36.6969 50.9625 36.6069 50.8354C36.3422 51.2484 36.051 51.6401 35.7334 52.0159C35.8102 52.0424 35.8922 52.0583 35.9769 52.0583C36.4031 52.0556 36.7498 51.7089 36.7498 51.2828Z" fill="#DCECFF"/>
<path d="M38.6928 48.2998C38.6928 48.1304 38.6372 47.9742 38.5445 47.8472C38.2454 48.2495 37.9622 48.6465 37.7002 49.0409C37.769 49.0621 37.8405 49.0753 37.9172 49.0753C38.346 49.0753 38.6928 48.7286 38.6928 48.2998Z" fill="#DCECFF"/>
<path d="M40.2356 45.7266C40.0398 45.9568 39.8465 46.1924 39.6533 46.428C39.9762 46.3486 40.2145 46.068 40.2356 45.7266Z" fill="#DCECFF"/>
<path d="M45.75 42.6884C45.75 43.1172 46.0967 43.4639 46.5255 43.4639C46.6261 43.4639 46.7214 43.4427 46.8087 43.4083C46.597 42.9345 46.3455 42.4846 46.0517 42.0796C45.8691 42.2225 45.75 42.4396 45.75 42.6884Z" fill="#DCECFF"/>
<path d="M44.0557 53.9135C44.0557 54.3423 44.4024 54.689 44.8312 54.689C44.9265 54.689 45.0165 54.6705 45.1012 54.6388C45.0906 54.4588 45.08 54.2788 45.0641 54.0909C45.0403 53.7706 45.0403 53.4662 45.0615 53.1803C44.9874 53.1565 44.9106 53.1406 44.8285 53.1406C44.4024 53.1406 44.0557 53.4874 44.0557 53.9135Z" fill="#DCECFF"/>
<path d="M47.9779 48.4478C47.5623 48.4636 47.2314 48.8024 47.2314 49.2206C47.2314 49.2683 47.2367 49.3159 47.2447 49.3609C47.6788 49.0539 48.0043 48.9162 48.0043 48.9162C48.0043 48.9162 48.0017 48.7389 47.9779 48.4478Z" fill="#DCECFF"/>
<path d="M36.2178 60.8986C36.6519 60.7159 37.0462 60.5518 37.4142 60.4116C37.2897 60.3269 37.1389 60.2739 36.9748 60.2739C36.6016 60.2739 36.2866 60.5439 36.2178 60.8986Z" fill="#DCECFF"/>
<path d="M44.2224 41.9153C44.2224 41.7697 44.18 41.6321 44.1086 41.5156C43.828 41.7988 43.4733 42.1615 43.0684 42.585C43.1795 42.6485 43.3092 42.6882 43.4469 42.6882C43.8756 42.6882 44.2224 42.3414 44.2224 41.9153Z" fill="#DCECFF"/>
<path d="M31.4697 55.4414C29.8869 56.336 28.312 56.9289 27.1262 57.2069C24.3629 57.8527 23.5371 59.2079 24.1273 61.0289C24.1273 61.0289 25.1278 64.9119 31.1865 62.8526C31.8561 62.625 32.457 62.4079 33.0075 62.2015C33.0049 58.2577 31.4697 55.4414 31.4697 55.4414Z" fill="#1773C6"/>
<path d="M41.4193 59.8533C44.7729 60.2053 45.3605 57.9132 45.0667 54.0885C40.8899 53.4426 38.8545 59.9618 38.8545 59.9618C39.6221 59.7924 40.4029 59.7474 41.4193 59.8533Z" fill="#1773C6"/>
<path d="M22.3611 59.1097C22.3611 59.1097 21.7735 57.6433 18.9493 57.2013C16.1251 56.7566 8.94949 57.503 6.40057 57.0716C3.85165 56.6401 -2.14876 56.8519 0.791889 58.8238C3.73254 60.7957 6.00619 59.9937 9.02625 59.7687C12.0463 59.5437 22.5967 61.423 22.3611 59.1097Z" fill="#EA8021"/>
<path d="M88.4325 50.3935C88.4325 50.3935 94.1206 48.9139 98.472 44.6181C102.823 40.3249 112.471 34.1101 114.999 35.0709L116.351 36.2858C116.351 36.2858 116.862 34.3642 114.665 32.6384C112.469 30.9127 109.568 27.4241 108.273 25.2669C106.979 23.1097 103.451 22.5619 101.018 24.1288C98.5858 25.6984 87.9587 33.7554 82.6465 35.2959L88.4325 50.3935Z" fill="#FF952D"/>
<path d="M86.5321 42.2092C88.1281 46.378 89.388 50.028 88.4325 50.396C87.477 50.7612 85.4072 47.6803 83.8111 43.5115C82.2151 39.3427 81.6936 35.6662 82.6491 35.301C83.6046 34.9304 84.936 38.0405 86.5321 42.2092Z" fill="#CC630D"/>
<path d="M123.788 53.0111C123.942 53.9163 120.985 55.1656 117.189 55.8062C113.394 56.4467 110.191 56.2323 110.038 55.3298C109.884 54.4245 112.976 53.7575 116.774 53.117C120.572 52.4765 123.635 52.1085 123.788 53.0111Z" fill="#EA8021"/>
<path d="M86.002 13.3084C86.002 13.3084 88.1989 18.4459 86.1581 21.4633C84.1174 24.4808 84.1201 25.423 85.4514 26.2859C86.7854 27.1488 89.5699 29.1472 90.4302 32.4028C91.293 35.6584 95.2527 38.7552 97.8016 36.2857C100.351 33.8162 98.3892 30.7565 96.0759 26.7968C93.7625 22.8371 92.6244 11.4635 90.2713 8.71875C90.2766 8.7214 86.8649 10.0925 86.002 13.3084Z" fill="#105A91"/>
<path d="M86.8907 19.6421C86.761 20.2906 86.5307 20.9126 86.1602 21.4631C84.1221 24.4832 84.1221 25.4228 85.4535 26.2857C86.274 26.8177 87.6424 27.7785 88.7753 29.1999C89.6699 22.7813 86.8907 19.6421 86.8907 19.6421Z" fill="#DCECFF"/>
<path d="M97.8036 36.2881C99.4949 34.6471 99.1985 32.7493 98.1318 30.4968C94.0715 29.491 90.935 33.6783 90.9297 33.6836C92.3272 36.386 95.5961 38.4294 97.8036 36.2881Z" fill="#DCECFF"/>
<path d="M91.2003 14.5601C91.2797 15.2112 90.221 15.3171 89.7101 15.7353C89.1993 16.1535 89.4348 17.7998 90.3771 17.7998C91.3194 17.7998 91.907 17.9613 91.9467 18.7421C91.9864 19.5256 92.926 20.9602 93.7889 20.1449C93.8101 20.1238 93.8313 20.0999 93.8524 20.0761C93.2437 17.5801 92.6693 14.9201 92.0314 12.7417C91.195 12.7973 91.1262 13.946 91.2003 14.5601Z" fill="#0B467B"/>
<path d="M93.027 31.7012C92.7518 31.3544 92.4341 31.0818 92.0265 31.1215C90.9148 31.2274 90.7719 32.3073 91.1822 32.789C91.2828 32.9055 91.3331 33.0378 91.3516 33.1914C91.7089 32.7996 92.2859 32.2305 93.027 31.7012Z" fill="#0B467B"/>
<path d="M91.2324 34.208C91.9974 35.4308 93.1329 36.4525 94.3372 36.9157C94.5039 36.9316 94.6522 36.9845 94.7924 37.0613C95.8035 37.3233 96.8332 37.1645 97.7093 36.3757V36.3731C97.6457 35.9999 97.0555 35.1105 96.6426 34.47C96.2535 33.8639 97.3678 32.0349 96.5473 31.6696C95.7797 31.3255 95.1789 32.2943 94.4166 32.9057C93.9163 33.3054 93.5537 32.3657 93.0296 31.704C92.2885 32.2308 91.7115 32.7998 91.3542 33.1942C91.3807 33.4483 91.3198 33.7712 91.2324 34.208Z" fill="#BFCEDB"/>
<path d="M59.9384 50.4253C57.2094 52.7519 54.7505 58.1621 56.426 62.622C57.4688 62.0318 58.6679 61.4601 59.9516 60.9413C59.2078 53.7366 66.1135 50.0045 67.3337 45.0258C66.3676 43.7685 65.6 42.5642 64.9912 41.4604C64.348 43.2206 62.3073 48.4058 59.9384 50.4253Z" fill="#EF9D59"/>
<path d="M80.9868 54.7685C80.9868 54.7685 79.5125 53.2757 81.1032 52.156C82.694 51.0391 84.3827 52.1084 85.1608 51.4123C85.939 50.7162 87.9321 49.7156 88.0671 51.4493C88.2021 53.183 86.1217 54.0247 86.0978 55.3323C86.074 56.6398 86.5504 60.5651 84.7479 59.8822C82.9428 59.202 82.199 57.8891 81.3494 59.0987C80.4997 60.3084 77.9958 57.0898 79.6051 56.3434C81.2144 55.597 81.4155 55.7187 80.9868 54.7685Z" fill="#BFCEDB"/>
<path d="M78.5321 68.3709C77.2166 66.6134 75.5782 68.3286 75.5782 68.3286C74.5168 68.8473 74.6465 68.6118 73.7493 66.8199C72.852 65.0279 69.2999 67.9633 70.6948 68.8844C71.8144 69.6229 71.0945 70.3402 70.3983 71.6636C74.403 72.5688 78.1748 73.3311 80.4775 74.4957C80.2632 73.9002 79.8529 73.2941 79.5088 72.9314C78.6936 72.0765 79.8476 70.1284 78.5321 68.3709Z" fill="#EA8021"/>
<path d="M119.638 41.5421C119.392 42.5665 118.246 42.5717 116.301 43.8078C114.355 45.0439 116.645 46.6558 117.5 47.5558C118.355 48.4557 117.677 49.0804 118.146 50.5467C118.614 52.0131 120.178 50.6791 120.178 50.6791C120.464 50.47 120.943 49.5674 121.322 48.8766C121.6 48.3684 123.045 48.3022 123.778 47.8734C123.646 47.3387 123.442 46.7617 123.164 46.1662C122.693 45.9994 122.129 45.8777 121.634 45.6739C121.099 45.4542 121.414 44.7713 121.788 43.9534C121.777 43.9428 121.769 43.9296 121.761 43.919C120.84 42.7729 120.488 41.6718 120.144 40.7163C119.9 40.9307 119.715 41.2271 119.638 41.5421Z" fill="#DB8646"/>
<path d="M102.195 27.0323C102.013 29.3298 104.681 28.4696 105.912 28.3266C107.142 28.1837 107.238 29.1022 108.691 29.6077C110.144 30.1133 110.017 28.0619 110.017 28.0619C110.02 27.9587 109.98 27.8052 109.922 27.6279C109.26 26.7729 108.686 25.9524 108.275 25.2695C107.934 24.7004 107.434 24.2478 106.843 23.9117C106.565 24.0467 106.332 23.8826 106.102 23.5702C105.038 23.1838 103.791 23.1282 102.619 23.4379C102.839 24.1711 102.346 25.1266 102.195 27.0323Z" fill="#EA8021"/>
<path d="M96.9469 45.3273C95.2317 44.5994 96.6822 43.6386 97.1004 41.7541C97.4974 39.9622 93.2704 41.3597 92.0343 41.6191C90.8882 41.8599 90.0995 40.5418 88.8237 40.9865C87.6485 41.3967 88.3314 42.5693 88.8501 43.0272C89.406 43.5142 88.6066 44.9965 89.5569 46.2564C90.65 47.7042 91.9893 46.1558 91.9893 46.1558C92.921 45.6449 92.8204 45.8593 93.8765 47.4819C93.9797 47.638 94.1015 47.7571 94.2365 47.8471C95.2635 47.2384 96.3301 46.5025 97.3624 45.6291C97.2724 45.5126 97.1374 45.4094 96.9469 45.3273Z" fill="#EA8021"/>
<path d="M125.109 62.1615C124.871 61.1822 125.297 61.0657 124.357 60.142C123.304 59.1044 121.62 60.2479 121.62 60.2479C120.527 60.629 120.667 60.4728 119.741 59.3267C118.706 58.043 114.273 60.3352 116.173 60.899C117.878 61.4072 116.882 61.6427 116.136 63.0191C116.057 63.1673 116.022 63.2917 116.025 63.4029C118.846 63.3156 120.615 62.9609 122.586 62.7174C123.492 62.6062 124.347 62.593 125.119 62.6618C125.154 62.4792 125.143 62.3071 125.109 62.1615Z" fill="#0B467B"/>
<path d="M78.8216 24.5045C76.9424 25.8253 78.684 27.5908 78.684 27.5908C79.1922 28.7157 78.9513 28.5728 77.0509 29.4542C75.1505 30.3356 78.1096 34.1391 79.1128 32.7124C80.1159 31.2831 80.9947 32.8342 83.1281 33.6388C85.2588 34.4435 84.695 29.8062 84.7241 28.2604C84.7241 28.2525 84.7241 28.2472 84.7268 28.2393C84.343 26.7755 83.9751 25.2139 83.6521 23.5967C83.6416 23.6073 83.6283 23.6152 83.6177 23.6258C82.6966 24.449 80.6983 23.1838 78.8216 24.5045Z" fill="#2A83D3"/>
<path d="M63.9625 17.0007C65.0662 17.8027 65.7676 14.8964 66.6623 13.6947C67.5569 12.4931 68.0969 13.4883 69.2535 12.9007C70.4076 12.3131 69.6347 10.9473 69.6347 10.9473C69.3726 9.67417 68.3721 8.91717 67.3954 8.36133C65.6326 10.4709 64.0313 13.1548 63.1816 15.4522C63.2928 16.061 63.4728 16.6433 63.9625 17.0007Z" fill="#2A83D3"/>
<path d="M22.3639 50.9677C23.3459 50.9677 24.1426 50.314 24.1426 49.5093C24.1426 49.0329 23.8621 48.6094 23.428 48.3447C22.4804 48.8873 21.5169 49.3002 20.5879 49.6126C20.6541 50.3696 21.4243 50.9677 22.3639 50.9677Z" fill="#105A91"/>
<path d="M9.84195 55.5945C10.9669 57.6061 12.7058 55.4119 13.6508 54.6072C14.5983 53.8026 15.1833 54.5173 16.6735 54.1308C18.1637 53.7444 16.9196 52.1086 16.9196 52.1086C16.7291 51.8095 15.853 51.2801 15.1859 50.8646C15.1092 50.8169 15.0483 50.7402 14.9927 50.6449C14.3019 50.5046 13.6667 50.4146 13.1055 50.4014C12.7032 50.3908 12.33 50.3961 11.9753 50.4146C11.8059 50.7031 11.4856 50.6714 11.0754 50.5046C9.78372 50.6978 8.71439 51.161 7.43066 51.9842C7.53919 52.0477 7.65035 52.1007 7.76946 52.1351C8.77791 52.4395 8.71968 53.5829 9.84195 55.5945Z" fill="#DB8646"/>
<g opacity="0.35">
<path opacity="0.35" d="M66.5107 43.8955C66.5769 43.9908 66.6457 44.0887 66.7145 44.184C66.6431 44.0861 66.5769 43.9908 66.5107 43.8955Z" fill="#EF9D59"/>
<path opacity="0.35" d="M66.0029 43.1411C66.0823 43.2655 66.167 43.3899 66.2491 43.5143C66.1644 43.3899 66.0823 43.2655 66.0029 43.1411Z" fill="#EF9D59"/>
<path opacity="0.35" d="M65.6475 42.5796C65.7057 42.6749 65.7666 42.7728 65.8301 42.8707C65.7666 42.7728 65.7057 42.6749 65.6475 42.5796Z" fill="#EF9D59"/>
<path opacity="0.35" d="M66.9287 44.4805C67.0055 44.5837 67.0822 44.6869 67.1616 44.7928C67.0822 44.6896 67.0028 44.5837 66.9287 44.4805Z" fill="#EF9D59"/>
<path opacity="0.35" d="M65.2217 41.8623C65.309 42.0158 65.399 42.1693 65.4943 42.3255C65.399 42.172 65.309 42.0158 65.2217 41.8623Z" fill="#EF9D59"/>
<path opacity="0.35" d="M59.1552 39.168C56.9901 40.2744 58.0462 42.2489 59.4146 42.6592C59.6052 42.7174 59.7666 42.7995 59.9096 42.9027C60.6533 41.6163 61.2568 40.4014 61.7253 39.3771C60.8492 38.996 59.9387 38.7683 59.1552 39.168Z" fill="#EA8845"/>
<path opacity="0.35" d="M65.082 41.6138C65.127 41.6958 65.1747 41.7779 65.2223 41.8626C65.1747 41.7805 65.127 41.6985 65.082 41.6138Z" fill="#EF9D59"/>
<path opacity="0.35" d="M67.3339 45.0228C67.2756 44.946 67.2174 44.8692 67.1592 44.7925C67.2174 44.8692 67.273 44.946 67.3339 45.0228Z" fill="#EF9D59"/>
<path opacity="0.35" d="M65.4941 42.3281C65.5444 42.4128 65.5974 42.4949 65.6477 42.5796C65.5947 42.4949 65.5444 42.4102 65.4941 42.3281Z" fill="#EF9D59"/>
<path opacity="0.35" d="M66.249 43.5142C66.3337 43.6412 66.4211 43.7683 66.5084 43.8953C66.4211 43.7656 66.3337 43.6386 66.249 43.5142Z" fill="#EF9D59"/>
<path opacity="0.35" d="M65.8311 42.8711C65.8866 42.9611 65.9449 43.0511 66.0031 43.1411C65.9449 43.0511 65.8866 42.9611 65.8311 42.8711Z" fill="#EF9D59"/>
<path opacity="0.35" d="M66.7139 44.1841C66.7853 44.282 66.8541 44.3826 66.9283 44.4805C66.8541 44.3826 66.7827 44.282 66.7139 44.1841Z" fill="#EF9D59"/>
<path opacity="0.35" d="M67.1594 44.7926C67.08 44.6893 67.0032 44.5835 66.9265 44.4802C66.8523 44.3796 66.7835 44.2817 66.7121 44.1838C66.6432 44.0858 66.5744 43.9906 66.5083 43.8953C66.4209 43.7682 66.3336 43.6412 66.2489 43.5141C66.1642 43.3897 66.0821 43.2653 66.0027 43.1409C65.9445 43.0509 65.8862 42.9609 65.8307 42.8709C65.7698 42.773 65.7089 42.6751 65.648 42.5798C65.5951 42.4951 65.5448 42.4104 65.4945 42.3283C65.4019 42.1722 65.3092 42.0187 65.2219 41.8651C65.1742 41.7804 65.1292 41.6984 65.0816 41.6163C65.0525 41.5634 65.0207 41.5105 64.9916 41.4575C64.5734 42.6036 63.5649 45.1869 62.2627 47.4129C63.5517 49.6337 65.4204 47.8761 66.7385 46.6242C66.9926 46.1001 67.1991 45.5707 67.3314 45.0228C67.2732 44.9461 67.2176 44.8693 67.1594 44.7926Z" fill="#EA8845"/>
</g>
</g>
<defs>
<clipPath id="clip0">
<rect width="140" height="81.2478" fill="white"/>
</clipPath>
</defs>
</svg>
