<svg width="167" height="185" viewBox="0 0 167 185" fill="none" xmlns="http://www.w3.org/2000/svg">
<path d="M108.104 2.38618C67.6807 9.81527 25.0817 29.0341 5.14941 82.8665C-16.8663 142.326 34.4293 183.632 107.277 169.06C180.125 154.489 212.178 100.05 209.885 63.2056C207.754 28.9507 176.148 -10.1193 108.104 2.38618Z" fill="#DCECFF"/>
<path d="M85.3999 103.798C85.3999 103.798 81.6125 99.348 83.1619 95.978C84.7113 92.608 99.1725 89.1074 104.395 90.7143C109.617 92.3211 105.714 97.3136 104.395 98.6335C103.075 99.9533 85.3999 103.798 85.3999 103.798Z" fill="#1773C6"/>
<path d="M95.4996 99.6773C95.2856 99.6773 95.0712 99.599 94.9028 99.4409C94.5537 99.1125 94.5351 98.5644 94.8603 98.2136C94.8952 98.1748 97.3879 95.3455 98.3067 87.4006C99.2889 78.9068 100.794 74.4117 106.689 71.839C107.129 71.647 107.644 71.8479 107.836 72.2892C108.029 72.7304 107.827 73.2441 107.386 73.4366C102.241 75.682 100.961 79.6209 100.038 87.6009C99.041 96.2239 96.2531 99.2769 96.1349 99.4027C95.9633 99.5852 95.7316 99.6773 95.4996 99.6773Z" fill="#0B2E44"/>
<path d="M91.5985 99.6774C91.3025 99.6774 91.0139 99.5265 90.8504 99.2541C90.6044 98.8441 90.7349 98.3132 91.1411 98.0633C91.2168 98.014 95.0635 95.415 95.49 85.3405C95.6186 82.3036 95.4584 79.5862 95.3171 77.1887C94.9494 70.9461 94.6837 66.4357 100.04 63.7121C100.469 63.4938 100.994 63.665 101.212 64.0939C101.43 64.523 101.259 65.0476 100.83 65.2658C96.4909 67.4723 96.7041 71.091 97.0572 77.0862C97.2009 79.525 97.3638 82.2892 97.2315 85.4143C96.758 96.6003 92.2383 99.4378 92.0462 99.553C91.9058 99.6373 91.7511 99.6774 91.5985 99.6774Z" fill="#0B2E44"/>
<path d="M141.652 48.7654C141.652 48.7654 145.038 46.7569 142.8 42.5677C140.562 38.3785 127.708 35.3371 123.059 37.9195C118.411 40.5018 122.198 45.8961 122.198 45.8961L141.652 48.7654Z" fill="#3790F4"/>
<path d="M141.25 48.4496C140.825 48.4496 140.479 48.1063 140.475 47.6803C140.472 47.2534 140.815 46.9047 141.242 46.9002C141.293 46.8991 143.686 46.8264 145.529 44.7963C147.311 42.8348 148.044 39.731 147.708 35.5714C146.721 23.3195 149.732 18.9936 149.861 18.8154C150.112 18.4684 150.596 18.3904 150.943 18.641C151.29 18.8915 151.368 19.3757 151.117 19.7226C151.093 19.758 148.32 23.8718 149.253 35.447C149.625 40.0696 148.75 43.5749 146.652 45.8653C144.33 48.3992 141.38 48.4488 141.256 48.4496C141.254 48.4496 141.252 48.4496 141.25 48.4496Z" fill="#7DB8FB"/>
<path d="M142.799 50.0566C142.426 50.0566 142.098 49.7876 142.035 49.4083C141.965 48.9864 142.251 48.5877 142.672 48.5175C143.026 48.4577 151.084 46.9981 151.61 38.8451L151.633 38.4928C152.2 29.6927 152.512 24.8452 157.486 24.07C157.908 24.0032 158.305 24.2932 158.371 24.7162C158.436 25.1389 158.147 25.535 157.724 25.6009C154.16 26.1565 153.773 29.373 153.179 38.5924L153.156 38.9448C152.839 43.8633 150.065 46.6256 147.793 48.0768C145.363 49.6293 143.024 50.0298 142.926 50.0461C142.883 50.0532 142.841 50.0566 142.799 50.0566Z" fill="#7DB8FB"/>
<path d="M36.3921 37.0299C36.3921 37.0299 32.7337 34.3184 31.916 31.8222C31.0982 29.3259 37.6402 24.0751 43.7948 22.7839C49.9494 21.4927 53.5346 21.2951 52.6609 25.4523C51.7873 29.6096 49.7342 31.6931 49.7342 31.6931L36.3921 37.0299Z" fill="#7DB8FB"/>
<path d="M48.7295 30.6029C48.3692 30.6029 48.0465 30.3502 47.9714 29.9835C47.8856 29.5649 48.1548 29.1561 48.573 29.0695C48.833 29.0149 54.9392 27.657 54.7847 21.0661C54.7198 18.2982 53.4448 15.8425 52.2117 13.4678C50.3963 9.97139 48.519 6.35603 52.4164 3.17473C52.7479 2.90389 53.2359 2.95344 53.5064 3.28499C53.7769 3.61646 53.7276 4.10443 53.3961 4.375C50.6102 6.64909 51.5991 8.92565 53.5869 12.7538C54.84 15.1673 56.2604 17.9029 56.3337 21.0298C56.519 28.931 48.9622 30.5713 48.8858 30.5869C48.8334 30.5977 48.781 30.6029 48.7295 30.6029Z" fill="#3790F4"/>
<path d="M49.5911 31.3489C49.2659 31.3489 48.9632 31.1425 48.8558 30.8169C48.7217 30.4107 48.9422 29.9727 49.3484 29.8384C49.3981 29.8219 54.3467 28.1637 56.0686 25.659C56.6912 24.7535 56.3534 23.0927 55.9957 21.3345C55.47 18.7505 54.8159 15.5347 57.4479 13.6984C57.7988 13.4539 58.2818 13.5398 58.5266 13.8906C58.7713 14.2414 58.6854 14.7244 58.3344 14.9692C56.6622 16.1358 56.9238 18.1246 57.514 21.0256C57.9391 23.1154 58.3407 25.0892 57.3455 26.5368C55.327 29.4727 50.0572 31.2361 49.8338 31.3098C49.7533 31.3363 49.6715 31.3489 49.5911 31.3489Z" fill="#3790F4"/>
<path d="M35.8765 34.4476C35.8765 34.4476 31.1422 43.2276 32.6916 61.3902C34.2411 79.5528 39.7501 106.409 57.3962 100.039C75.0423 93.6697 87.4376 77.4869 82.1868 66.8131C76.936 56.1394 64.0243 47.015 61.0115 40.9035C57.9987 34.7919 45.8617 17.7483 35.8765 34.4476Z" fill="#7DB8FB"/>
<path d="M90.5358 97.9735C90.5358 97.9735 83.9078 99.0065 80.5507 109.68C77.1937 120.354 74.6974 128.962 67.4668 144.628C60.2362 160.294 54.5263 187.122 76.7346 184.712C97.2473 182.486 110.305 175.645 114.064 163.766C116.783 155.174 111.453 129.823 110.248 119.407C109.043 108.992 110.506 90.5708 90.5358 97.9735Z" fill="#1773C6"/>
<path d="M135.942 114.415C135.942 114.415 151.953 122.248 158.581 108.045C165.209 93.8419 153.244 68.9651 149.801 59.6686C146.357 50.3721 145.325 46.4125 134.22 43.8302C123.116 41.2478 119.329 45.1213 119.157 49.3392C118.984 53.557 123.461 65.6081 119.157 78.6059C114.853 91.6038 113.217 104.602 135.942 114.415Z" fill="#3790F4"/>
<path d="M27.3973 57.5053C27.3973 53.8092 30.531 52.7567 30.531 52.7567C30.531 52.7567 27.3973 51.7041 27.3973 48.0081C27.3973 51.7041 24.2635 52.7567 24.2635 52.7567C24.2635 52.7567 27.3973 53.8092 27.3973 57.5053Z" fill="white"/>
<path d="M27.6426 57.5053H27.1524C27.1524 54.0258 24.2153 52.9989 24.1857 52.989L23.4939 52.7566L24.1857 52.5243C24.3064 52.4832 27.1524 51.4763 27.1524 48.0081H27.6426C27.6426 51.4876 30.5797 52.5143 30.6093 52.5243L31.301 52.7566L30.6093 52.989C30.4886 53.03 27.6426 54.0371 27.6426 57.5053ZM24.8486 52.7566C25.5688 53.1421 26.8601 54.0504 27.3975 55.7985C27.935 54.0504 29.2262 53.1421 29.9463 52.7566C29.2262 52.3712 27.935 51.4629 27.3975 49.7148C26.8601 51.4629 25.5688 52.3712 24.8486 52.7566Z" fill="#3790F4"/>
<path d="M89.9476 75.5724C89.9476 71.8764 93.0813 70.8238 93.0813 70.8238C93.0813 70.8238 89.9476 69.7713 89.9476 66.0752C89.9476 69.7713 86.8139 70.8238 86.8139 70.8238H86.8138C86.8139 70.8238 89.9476 71.8764 89.9476 75.5724Z" fill="white"/>
<path d="M90.1925 75.5726H89.7023C89.7023 72.1043 86.8563 71.0973 86.7352 71.0562L86.0483 70.8227L86.7357 70.5915C86.8563 70.5505 89.7023 69.5435 89.7023 66.0753H90.1925C90.1925 69.5435 93.0385 70.5505 93.1597 70.5916L93.8467 70.8251L93.1594 71.0563C93.0385 71.0973 90.1925 72.1043 90.1925 75.5726ZM87.3986 70.8239C88.1188 71.2094 89.41 72.1176 89.9474 73.8657C90.4847 72.1176 91.7762 71.2094 92.4962 70.8239C91.7762 70.4384 90.4847 69.5302 89.9474 67.7821C89.41 69.5302 88.1188 70.4384 87.3986 70.8239Z" fill="#3790F4"/>
<path d="M62.697 146.956C62.697 143.26 65.8307 142.208 65.8307 142.208C65.8307 142.208 62.697 141.155 62.697 137.459C62.697 141.155 59.5632 142.208 59.5632 142.208C59.5632 142.208 62.697 143.26 62.697 146.956Z" fill="white"/>
<path d="M62.943 146.957H62.4528C62.4528 143.488 59.6068 142.481 59.4857 142.44L58.7988 142.207L59.4862 141.975C59.6068 141.935 62.4528 140.927 62.4528 137.459H62.943C62.943 140.927 65.789 141.935 65.9101 141.976L66.597 142.209L65.9097 142.44C65.789 142.481 62.943 143.488 62.943 146.957ZM60.1491 142.208C60.8693 142.593 62.1604 143.502 62.6979 145.25C63.2353 143.502 64.5265 142.593 65.2467 142.208C64.5265 141.822 63.2353 140.914 62.6979 139.166C62.1604 140.914 60.8693 141.822 60.1491 142.208Z" fill="#3790F4"/>
<path d="M127.314 156.454C127.314 151.919 131.159 150.627 131.159 150.627C131.159 150.627 127.314 149.336 127.314 144.8C127.314 149.335 123.469 150.627 123.469 150.627C123.469 150.627 127.314 151.919 127.314 156.454Z" fill="white"/>
<path d="M127.615 156.454H127.014C127.014 152.198 123.522 150.963 123.373 150.912L122.53 150.625L123.374 150.342C123.522 150.291 127.014 149.056 127.014 144.8H127.615C127.615 149.07 131.219 150.33 131.255 150.342L132.104 150.627L131.255 150.912C131.107 150.963 127.615 152.198 127.615 156.454ZM124.187 150.627C125.071 151.1 126.655 152.214 127.314 154.359C127.974 152.214 129.558 151.1 130.442 150.627C129.558 150.154 127.974 149.04 127.314 146.895C126.655 149.04 125.071 150.154 124.187 150.627Z" fill="#3790F4"/>
<path d="M163.682 76.6826C163.682 72.9865 166.815 71.9339 166.815 71.9339C166.815 71.9339 163.682 70.8814 163.682 67.1853C163.682 70.8814 160.548 71.9339 160.548 71.9339C160.548 71.9339 163.682 72.9865 163.682 76.6826Z" fill="white"/>
<path d="M163.927 76.6825H163.436C163.436 73.2143 160.591 72.2073 160.469 72.1661L159.782 71.9326L160.47 71.7015C160.591 71.6605 163.436 70.6535 163.436 67.1852H163.927C163.927 70.6535 166.773 71.6605 166.894 71.7016L167.581 71.9351L166.893 72.1662C166.772 72.2073 163.927 73.2143 163.927 76.6825ZM161.133 71.9339C161.853 72.3193 163.144 73.2276 163.682 74.9756C164.219 73.2276 165.51 72.3193 166.23 71.9339C165.51 71.5484 164.219 70.6402 163.682 68.8921C163.144 70.6402 161.853 71.5484 161.133 71.9339Z" fill="#3790F4"/>
<path d="M117.961 55.4232C117.961 51.7271 121.094 50.6745 121.094 50.6745H121.094C121.094 50.6745 117.961 49.622 117.961 45.9259C117.961 49.622 114.827 50.6745 114.827 50.6745C114.827 50.6745 117.961 51.7271 117.961 55.4232Z" fill="white"/>
<path d="M118.206 55.4232H117.716C117.716 51.9548 114.87 50.9479 114.748 50.9067L114.061 50.6732L114.749 50.4421C114.87 50.4011 117.716 49.3941 117.716 45.9259H118.206C118.206 49.3941 121.052 50.4011 121.173 50.4422L121.86 50.6757L121.172 50.9069C121.052 50.9479 118.206 51.9548 118.206 55.4232ZM115.412 50.6745C116.132 51.0599 117.423 51.9682 117.961 53.7163C118.498 51.9682 119.789 51.0599 120.509 50.6745C119.789 50.289 118.498 49.3808 117.961 47.6328C117.423 49.3808 116.132 50.289 115.412 50.6745Z" fill="#3790F4"/>
<path d="M73.0269 163.288C73.0368 163.452 73.0788 163.581 73.1527 163.677C73.2307 163.772 73.3154 163.847 73.4069 163.902C73.5021 163.952 73.5924 163.987 73.6777 164.006C73.767 164.024 73.8277 164.035 73.8599 164.037C73.8923 164.043 73.9151 164.055 73.9283 164.075C73.9453 164.09 73.9523 164.107 73.9496 164.127C73.9468 164.148 73.9359 164.166 73.9169 164.183C73.9019 164.2 73.8784 164.21 73.8465 164.212L70.7083 164.403C70.6764 164.405 70.6499 164.398 70.629 164.384C70.612 164.369 70.601 164.351 70.5958 164.331C70.5906 164.312 70.5935 164.294 70.6045 164.277C70.6192 164.256 70.6423 164.24 70.6738 164.231C70.7055 164.225 70.7625 164.207 70.8449 164.178C70.9313 164.149 71.0167 164.103 71.1011 164.042C71.1893 163.977 71.2643 163.892 71.3261 163.788C71.3919 163.684 71.4198 163.55 71.4099 163.386L71.0014 156.673C70.9982 156.621 70.9723 156.59 70.9237 156.581C70.9157 156.582 70.8854 156.578 70.8327 156.569C70.7841 156.56 70.7274 156.549 70.6625 156.537C70.5976 156.525 70.5369 156.515 70.4803 156.506C70.4277 156.497 70.3952 156.491 70.383 156.488C70.3304 156.479 70.3008 156.455 70.2944 156.415C70.2918 156.371 70.3199 156.339 70.3788 156.32C70.5323 156.274 70.6971 156.216 70.8731 156.145C71.0529 156.07 71.2323 155.989 71.4113 155.902C71.5901 155.811 71.7627 155.717 71.9291 155.618C72.0951 155.516 72.2433 155.415 72.3734 155.315C72.4079 155.289 72.4432 155.277 72.4794 155.278C72.5196 155.28 72.5414 155.309 72.5448 155.365L73.0269 163.288ZM79.4613 163.317C79.5164 163.302 79.5611 163.311 79.5952 163.345C79.6291 163.375 79.6338 163.419 79.6092 163.476C79.5879 163.522 79.5512 163.576 79.4989 163.639C79.4507 163.703 79.3822 163.763 79.2935 163.82C79.2088 163.878 79.1017 163.928 78.9721 163.972C78.8466 164.016 78.6959 164.043 78.5203 164.054C78.2767 164.068 78.0682 164.033 77.8947 163.947C77.7249 163.858 77.6042 163.751 77.5325 163.627C77.5146 163.596 77.4898 163.583 77.4581 163.589C77.4304 163.595 77.4072 163.608 77.3884 163.63C77.3772 163.642 77.3413 163.679 77.2808 163.738C77.2241 163.794 77.1398 163.857 77.0279 163.928C76.9197 163.995 76.7873 164.057 76.6305 164.115C76.4739 164.176 76.2918 164.213 76.0842 164.226C75.7289 164.248 75.4264 164.216 75.1768 164.131C74.9312 164.046 74.7277 163.93 74.5665 163.783C74.4091 163.633 74.2905 163.461 74.2107 163.27C74.1347 163.074 74.0907 162.879 74.0788 162.683C74.0596 162.367 74.1307 162.087 74.292 161.84C74.4574 161.594 74.6783 161.404 74.9547 161.271C75.1028 161.202 75.2579 161.15 75.4202 161.117C75.5862 161.078 75.7501 161.04 75.9121 161.002C76.0741 160.965 76.2318 160.921 76.3851 160.871C76.5421 160.818 76.6876 160.739 76.8215 160.635C76.9631 160.526 77.0572 160.392 77.1036 160.233C77.154 160.073 77.1739 159.906 77.1632 159.73C77.1554 159.602 77.13 159.482 77.0871 159.368C77.0478 159.25 76.9936 159.149 76.9244 159.065C76.8591 158.981 76.783 158.916 76.696 158.869C76.613 158.822 76.5236 158.801 76.4278 158.807C76.2561 158.818 76.133 158.869 76.0585 158.962C75.984 159.054 75.9265 159.164 75.8861 159.291C75.8498 159.417 75.8157 159.55 75.7841 159.688C75.7522 159.822 75.6952 159.94 75.6132 160.041C75.5459 160.121 75.4556 160.185 75.3423 160.232C75.2327 160.274 75.126 160.299 75.0222 160.305C74.9144 160.312 74.8174 160.3 74.7314 160.269C74.6454 160.238 74.5706 160.194 74.5071 160.138C74.4433 160.078 74.393 160.009 74.3562 159.931C74.3231 159.849 74.3038 159.762 74.2982 159.67C74.2907 159.546 74.3131 159.421 74.3655 159.293C74.4178 159.166 74.5168 159.048 74.6625 158.939C74.8121 158.829 75.0149 158.737 75.2708 158.661C75.5264 158.581 75.8538 158.529 76.2531 158.505C76.6963 158.478 77.0764 158.501 77.3934 158.574C77.7142 158.643 77.9776 158.757 78.1837 158.917C78.3937 159.076 78.5505 159.281 78.6539 159.531C78.761 159.777 78.8244 160.062 78.8441 160.385C78.8676 160.773 78.8778 161.137 78.8745 161.477C78.8711 161.818 78.8715 162.121 78.8756 162.385C78.8834 162.645 78.9025 162.86 78.9329 163.031C78.9631 163.197 79.0253 163.298 79.1195 163.332C79.1607 163.349 79.2112 163.356 79.2711 163.353C79.3307 163.345 79.3941 163.333 79.4613 163.317ZM77.2202 160.767C77.2188 160.743 77.2078 160.727 77.1874 160.72C77.1669 160.714 77.1493 160.721 77.1346 160.742C77.1048 160.78 77.0769 160.815 77.0509 160.849C77.0289 160.882 76.9973 160.922 76.956 160.969C76.885 161.053 76.8118 161.134 76.7363 161.211C76.6606 161.283 76.585 161.358 76.5095 161.435C76.4335 161.504 76.3576 161.572 76.2816 161.641C76.2096 161.71 76.142 161.784 76.0788 161.864C75.9822 161.99 75.9124 162.126 75.8693 162.273C75.8298 162.416 75.815 162.567 75.8247 162.727C75.8313 162.835 75.8539 162.944 75.8927 163.053C75.9312 163.159 75.985 163.254 76.0543 163.338C76.1272 163.418 76.2153 163.483 76.3185 163.532C76.4255 163.578 76.5509 163.596 76.6946 163.588C76.8383 163.579 76.9523 163.542 77.0365 163.477C77.1247 163.411 77.1902 163.335 77.233 163.248C77.2798 163.161 77.3106 163.075 77.3255 162.99C77.3401 162.901 77.3459 162.833 77.343 162.785L77.2202 160.767ZM86.4359 163.271C86.4683 163.278 86.4911 163.29 86.5043 163.309C86.5212 163.324 86.5283 163.342 86.5255 163.362C86.5228 163.382 86.5119 163.401 86.4929 163.418C86.4779 163.435 86.4544 163.445 86.4225 163.447L84.2545 163.579C84.2106 163.581 84.174 163.573 84.1449 163.555C84.1197 163.537 84.1058 163.505 84.1031 163.462L84.0816 163.108C83.9241 163.286 83.7155 163.447 83.4558 163.591C83.1958 163.731 82.8682 163.813 82.4729 163.837C82.1455 163.857 81.8678 163.838 81.6399 163.78C81.4159 163.721 81.2264 163.637 81.0714 163.526C80.9204 163.415 80.8002 163.284 80.7109 163.133C80.6256 162.982 80.5598 162.824 80.5137 162.658C80.4715 162.492 80.4415 162.328 80.4236 162.165C80.4094 161.997 80.3979 161.842 80.3891 161.698L80.2467 159.356C80.2369 159.196 80.1972 159.071 80.1275 158.979C80.0576 158.883 79.9791 158.811 79.8921 158.765C79.8088 158.714 79.7267 158.68 79.6456 158.665C79.5685 158.65 79.5138 158.639 79.4813 158.633C79.4492 158.631 79.4265 158.621 79.4133 158.601C79.3961 158.582 79.3889 158.563 79.3917 158.543C79.3944 158.522 79.4053 158.504 79.4243 158.486C79.4393 158.47 79.4628 158.46 79.4947 158.458L81.6627 158.326C81.7585 158.32 81.8096 158.369 81.8159 158.473L82.0291 161.977C82.0428 162.136 82.0665 162.295 82.1002 162.453C82.1378 162.611 82.1946 162.754 82.2705 162.882C82.3502 163.005 82.4543 163.103 82.5829 163.175C82.7155 163.247 82.8877 163.277 83.0993 163.264C83.3229 163.251 83.4957 163.194 83.6179 163.094C83.7438 162.99 83.8364 162.865 83.8955 162.717C83.9546 162.569 83.9889 162.408 83.9985 162.236C84.0077 162.059 84.0075 161.89 83.9978 161.731L83.84 159.138C83.8303 158.978 83.7906 158.852 83.7209 158.76C83.6509 158.664 83.5724 158.593 83.4854 158.546C83.4022 158.495 83.32 158.462 83.239 158.447C83.1619 158.431 83.1071 158.421 83.0747 158.415C83.0425 158.413 83.0178 158.402 83.0006 158.383C82.9875 158.364 82.9822 158.344 82.985 158.324C82.9878 158.304 82.9967 158.285 83.0117 158.268C83.0307 158.251 83.0561 158.241 83.0881 158.24L85.2561 158.108C85.3519 158.102 85.403 158.151 85.4093 158.255L85.6706 162.549C85.6803 162.708 85.7201 162.836 85.7901 162.932C85.8598 163.024 85.9363 163.095 86.0195 163.147C86.1065 163.193 86.1887 163.226 86.266 163.246C86.3471 163.261 86.4037 163.269 86.4359 163.271ZM93.482 162.843C93.5145 162.849 93.5373 162.861 93.5505 162.881C93.5674 162.896 93.5745 162.913 93.5717 162.933C93.5689 162.954 93.558 162.972 93.5391 162.99C93.5241 163.007 93.5006 163.016 93.4686 163.018L92.7739 163.06L92.72 163.063L91.2108 163.155L91.1569 163.159L90.4622 163.201C90.4303 163.203 90.4038 163.196 90.3829 163.182C90.3659 163.167 90.3549 163.149 90.3497 163.13C90.3445 163.11 90.3474 163.092 90.3584 163.075C90.3731 163.054 90.3962 163.039 90.4277 163.029C90.4594 163.023 90.5125 163.007 90.5872 162.983C90.6656 162.954 90.7431 162.911 90.8198 162.854C90.9003 162.793 90.9695 162.713 91.0276 162.613C91.0854 162.51 91.1094 162.378 91.0997 162.218L90.966 160.02L90.9631 159.972L90.9427 159.637C90.9285 159.47 90.904 159.299 90.8694 159.125C90.8385 158.946 90.7827 158.787 90.7021 158.648C90.6253 158.504 90.5162 158.391 90.3748 158.307C90.2372 158.219 90.0567 158.182 89.8331 158.196C89.6015 158.21 89.4246 158.267 89.3024 158.366C89.1803 158.466 89.0914 158.586 89.0358 158.725C88.9841 158.865 88.9551 159.013 88.9486 159.169C88.9458 159.322 88.9481 159.458 88.9554 159.578L89.1234 162.339C89.1331 162.498 89.1729 162.626 89.2429 162.722C89.3126 162.814 89.3891 162.885 89.4723 162.936C89.5593 162.983 89.6415 163.016 89.7188 163.036C89.7999 163.051 89.8565 163.059 89.8887 163.061C89.9211 163.067 89.9439 163.08 89.9571 163.099C89.974 163.114 89.9811 163.132 89.9784 163.152C89.9756 163.172 89.9647 163.191 89.9457 163.208C89.9307 163.225 89.9072 163.235 89.8753 163.237L86.8688 163.419C86.8369 163.421 86.8105 163.415 86.7895 163.4C86.7726 163.385 86.7615 163.368 86.7563 163.348C86.7511 163.328 86.754 163.31 86.765 163.294C86.7798 163.273 86.8029 163.257 86.8343 163.247C86.866 163.241 86.9192 163.226 86.9938 163.201C87.0722 163.173 87.1498 163.13 87.2265 163.073C87.3069 163.012 87.3762 162.932 87.4342 162.832C87.492 162.728 87.5161 162.597 87.5064 162.437L87.3037 159.107C87.3006 159.055 87.2747 159.025 87.2261 159.016C87.2181 159.016 87.1878 159.012 87.1351 159.003C87.0865 158.994 87.0297 158.983 86.9649 158.971C86.9 158.959 86.8393 158.949 86.7827 158.94C86.73 158.932 86.6976 158.926 86.6854 158.922C86.6328 158.913 86.6032 158.889 86.5968 158.85C86.5941 158.806 86.6223 158.774 86.6812 158.754C86.8347 158.709 86.9995 158.651 87.1755 158.58C87.3553 158.505 87.5347 158.424 87.7137 158.337C87.8925 158.246 88.0651 158.151 88.2314 158.053C88.3975 157.951 88.5457 157.849 88.6758 157.749C88.7103 157.723 88.7456 157.711 88.7818 157.713C88.822 157.714 88.8437 157.743 88.8471 157.799L88.8785 158.314C88.9577 158.233 89.0492 158.155 89.1528 158.081C89.2563 158.002 89.3723 157.933 89.5009 157.873C89.6335 157.813 89.7806 157.762 89.9424 157.72C90.1081 157.678 90.2908 157.651 90.4905 157.639C90.8179 157.619 91.0935 157.638 91.3175 157.697C91.5455 157.755 91.735 157.84 91.886 157.951C92.041 158.061 92.1612 158.192 92.2465 158.343C92.3358 158.494 92.4016 158.653 92.4437 158.818C92.4898 158.984 92.52 159.15 92.5342 159.318C92.5521 159.481 92.5655 159.634 92.5742 159.778L92.5761 159.808L92.7167 162.12C92.7264 162.28 92.7663 162.407 92.8362 162.503C92.9059 162.595 92.9824 162.667 93.0657 162.718C93.1527 162.765 93.2348 162.798 93.3122 162.817C93.3932 162.832 93.4498 162.841 93.482 162.843ZM100.271 162.43C100.303 162.436 100.326 162.448 100.339 162.468C100.356 162.483 100.363 162.5 100.36 162.52C100.358 162.541 100.347 162.559 100.328 162.577C100.313 162.593 100.289 162.603 100.257 162.605L98.0893 162.737C98.0454 162.739 98.0088 162.732 97.9797 162.713C97.9545 162.695 97.9406 162.664 97.9379 162.62L97.9058 162.093C97.9041 162.065 97.8931 162.047 97.8726 162.041C97.8522 162.034 97.8346 162.041 97.8198 162.062C97.7865 162.108 97.7309 162.181 97.6529 162.282C97.5746 162.379 97.4646 162.48 97.3227 162.585C97.1845 162.686 97.0097 162.776 96.7982 162.857C96.591 162.942 96.3436 162.993 96.0562 163.011C95.7368 163.03 95.4547 163.005 95.2101 162.936C94.9654 162.867 94.7509 162.766 94.5665 162.633C94.386 162.499 94.2323 162.344 94.1054 162.168C93.9824 161.991 93.8808 161.803 93.8005 161.603C93.7242 161.403 93.6659 161.203 93.6256 161.001C93.5893 160.798 93.5656 160.608 93.5547 160.428C93.5275 159.981 93.5567 159.572 93.6424 159.202C93.7319 158.828 93.8785 158.505 94.0823 158.232C94.2901 157.959 94.5554 157.742 94.8783 157.582C95.2052 157.422 95.5942 157.328 96.0454 157.301C96.2969 157.286 96.5155 157.288 96.7011 157.309C96.8864 157.326 97.0402 157.351 97.1624 157.383C97.2844 157.412 97.3764 157.442 97.4385 157.475C97.5003 157.503 97.5354 157.519 97.5436 157.522C97.5645 157.537 97.5827 157.54 97.5982 157.531C97.6177 157.522 97.6268 157.507 97.6256 157.487L97.478 155.062C97.4749 155.01 97.449 154.979 97.4003 154.97C97.3923 154.971 97.362 154.967 97.3094 154.958C97.2608 154.949 97.204 154.938 97.1392 154.926C97.0743 154.914 97.0136 154.904 96.9569 154.895C96.9043 154.886 96.8719 154.88 96.8597 154.877C96.807 154.868 96.7775 154.844 96.7711 154.804C96.7684 154.76 96.7965 154.728 96.8555 154.709C97.009 154.663 97.1738 154.605 97.3498 154.535C97.5295 154.459 97.709 154.378 97.888 154.291C98.0668 154.2 98.2394 154.106 98.4057 154.007C98.5718 153.905 98.7199 153.804 98.8501 153.704C98.8846 153.678 98.9199 153.666 98.9561 153.667C98.9962 153.669 99.018 153.698 99.0214 153.754L99.5053 161.707C99.5151 161.867 99.5549 161.994 99.6249 162.09C99.6946 162.182 99.7711 162.254 99.8543 162.305C99.9413 162.352 100.023 162.385 100.101 162.404C100.182 162.419 100.238 162.428 100.271 162.43ZM97.7227 159.182C97.7167 159.083 97.702 158.973 97.6787 158.855C97.6595 158.735 97.6282 158.617 97.585 158.5C97.5455 158.378 97.4925 158.263 97.4258 158.155C97.3631 158.046 97.2851 157.951 97.192 157.868C97.0988 157.786 96.9907 157.722 96.8678 157.678C96.7446 157.629 96.6051 157.609 96.4494 157.619C96.2139 157.633 96.0159 157.705 95.8555 157.835C95.6951 157.965 95.5694 158.139 95.4785 158.357C95.3873 158.571 95.3265 158.823 95.2961 159.114C95.2654 159.4 95.2602 159.709 95.2803 160.04C95.2857 160.128 95.293 160.248 95.3022 160.4C95.3152 160.547 95.3369 160.706 95.3673 160.877C95.4017 161.047 95.4482 161.218 95.5068 161.391C95.5654 161.564 95.6449 161.717 95.7452 161.851C95.8455 161.986 95.9704 162.094 96.1197 162.177C96.2688 162.256 96.4491 162.29 96.6607 162.277C96.9322 162.26 97.1468 162.197 97.3044 162.087C97.462 161.977 97.5804 161.848 97.6595 161.699C97.7386 161.55 97.7872 161.395 97.8054 161.233C97.8234 161.068 97.8287 160.923 97.8211 160.799L97.7227 159.182ZM103.995 156.817C104.162 156.807 104.305 156.82 104.424 156.857C104.542 156.89 104.639 156.94 104.716 157.008C104.792 157.071 104.849 157.15 104.886 157.244C104.924 157.334 104.946 157.431 104.952 157.534C104.964 157.726 104.911 157.879 104.794 157.995C104.681 158.11 104.522 158.174 104.318 158.186C104.163 158.196 104.039 158.175 103.948 158.124C103.857 158.074 103.777 158.019 103.71 157.959C103.646 157.894 103.586 157.836 103.531 157.783C103.475 157.73 103.41 157.706 103.334 157.711C103.266 157.715 103.194 157.744 103.117 157.796C103.043 157.845 102.977 157.935 102.917 158.067C102.861 158.199 102.817 158.378 102.787 158.604C102.757 158.83 102.752 159.121 102.774 159.476L102.9 161.548C102.91 161.708 102.943 161.832 103.001 161.921C103.062 162.009 103.128 162.075 103.199 162.119C103.274 162.163 103.346 162.192 103.415 162.208C103.484 162.22 103.534 162.227 103.567 162.229C103.599 162.235 103.622 162.248 103.635 162.267C103.652 162.282 103.659 162.3 103.656 162.32C103.654 162.34 103.643 162.359 103.624 162.376C103.609 162.393 103.585 162.402 103.553 162.404L102.954 162.441L102.9 162.444L101.391 162.536L101.337 162.539L100.738 162.576C100.707 162.577 100.68 162.571 100.659 162.556C100.642 162.541 100.631 162.524 100.626 162.504C100.621 162.485 100.624 162.466 100.635 162.45C100.649 162.429 100.672 162.413 100.704 162.403C100.736 162.397 100.785 162.384 100.852 162.364C100.918 162.34 100.984 162.302 101.049 162.25C101.118 162.198 101.176 162.124 101.222 162.029C101.272 161.934 101.293 161.806 101.283 161.647L101.078 158.269C101.074 158.217 101.048 158.187 101 158.178C100.992 158.178 100.962 158.174 100.909 158.165C100.86 158.156 100.804 158.145 100.739 158.133C100.674 158.121 100.613 158.111 100.556 158.102C100.504 158.094 100.471 158.087 100.459 158.084C100.407 158.075 100.377 158.051 100.371 158.011C100.368 157.968 100.396 157.936 100.455 157.916C100.608 157.871 100.773 157.813 100.949 157.742C101.129 157.667 101.308 157.586 101.487 157.499C101.666 157.408 101.839 157.313 102.005 157.215C102.171 157.112 102.319 157.011 102.45 156.911C102.484 156.885 102.519 156.873 102.556 156.875C102.596 156.876 102.618 156.905 102.621 156.961L102.673 157.817C102.794 157.501 102.97 157.26 103.2 157.094C103.43 156.928 103.695 156.835 103.995 156.817ZM106.823 163.642L107.501 161.846C107.428 161.702 107.332 161.511 107.213 161.274C107.095 161.037 106.965 160.78 106.824 160.504C106.683 160.224 106.539 159.938 106.393 159.647C106.247 159.355 106.111 159.087 105.983 158.842C105.856 158.593 105.747 158.382 105.656 158.207C105.565 158.028 105.504 157.912 105.473 157.857C105.406 157.745 105.342 157.649 105.281 157.568C105.22 157.484 105.155 157.412 105.087 157.352C105.02 157.292 104.944 157.244 104.862 157.209C104.78 157.17 104.684 157.14 104.574 157.119C104.542 157.112 104.519 157.1 104.506 157.081C104.489 157.062 104.481 157.042 104.484 157.022C104.483 156.998 104.491 156.977 104.51 156.96C104.525 156.943 104.549 156.934 104.581 156.932L107.575 156.75C107.603 156.748 107.628 156.754 107.649 156.769C107.67 156.784 107.683 156.803 107.688 156.827C107.693 156.847 107.691 156.869 107.68 156.893C107.669 156.914 107.646 156.93 107.611 156.94C107.552 156.959 107.487 156.985 107.417 157.018C107.351 157.046 107.293 157.089 107.245 157.148C107.196 157.203 107.167 157.277 107.156 157.37C107.146 157.459 107.167 157.574 107.219 157.715C107.243 157.778 107.283 157.869 107.338 157.99C107.394 158.111 107.456 158.244 107.525 158.388C107.594 158.532 107.665 158.682 107.738 158.838C107.812 158.989 107.88 159.129 107.944 159.258C108.008 159.382 108.063 159.489 108.108 159.578C108.153 159.664 108.18 159.712 108.189 159.724C108.22 159.774 108.248 159.772 108.273 159.719C108.283 159.69 108.305 159.627 108.339 159.528C108.374 159.43 108.411 159.314 108.45 159.179C108.494 159.04 108.541 158.891 108.592 158.732C108.642 158.572 108.689 158.421 108.732 158.278C108.775 158.131 108.813 157.999 108.846 157.88C108.883 157.758 108.908 157.668 108.92 157.611C108.955 157.465 108.962 157.348 108.941 157.262C108.923 157.17 108.889 157.1 108.838 157.051C108.787 156.998 108.726 156.962 108.657 156.942C108.587 156.918 108.522 156.9 108.461 156.888C108.425 156.882 108.4 156.87 108.387 156.85C108.373 156.827 108.368 156.806 108.371 156.785C108.373 156.761 108.382 156.741 108.397 156.724C108.416 156.706 108.442 156.697 108.474 156.695L110.264 156.586C110.292 156.584 110.315 156.591 110.332 156.606C110.353 156.621 110.366 156.64 110.371 156.664C110.376 156.683 110.372 156.704 110.357 156.725C110.346 156.745 110.325 156.761 110.294 156.771C110.191 156.805 110.102 156.846 110.025 156.895C109.947 156.94 109.877 156.996 109.813 157.064C109.753 157.132 109.697 157.212 109.647 157.303C109.596 157.39 109.544 157.493 109.491 157.613C109.47 157.662 109.425 157.775 109.356 157.952C109.29 158.124 109.21 158.333 109.117 158.579C109.024 158.825 108.922 159.094 108.812 159.385C108.701 159.677 108.593 159.966 108.486 160.253C108.379 160.536 108.277 160.804 108.18 161.059C108.083 161.313 108.004 161.524 107.942 161.692L107.052 164.055C106.938 164.362 106.797 164.611 106.629 164.802C106.464 164.992 106.25 165.095 105.986 165.112C105.894 165.117 105.802 165.109 105.708 165.086C105.615 165.068 105.531 165.033 105.455 164.982C105.38 164.934 105.316 164.868 105.263 164.783C105.214 164.702 105.186 164.599 105.178 164.475C105.171 164.364 105.185 164.267 105.22 164.184C105.26 164.102 105.311 164.033 105.376 163.976C105.445 163.92 105.522 163.877 105.609 163.848C105.695 163.819 105.784 163.801 105.876 163.796C106 163.788 106.109 163.8 106.203 163.83C106.297 163.864 106.383 163.889 106.46 163.905C106.537 163.92 106.604 163.912 106.663 163.88C106.721 163.853 106.774 163.773 106.823 163.642Z" fill="white"/>
<path d="M45.5045 87.1254C45.5938 87.263 45.6941 87.3552 45.8056 87.4021C45.9205 87.4468 46.0311 87.4703 46.1376 87.4727C46.2452 87.4696 46.3408 87.4553 46.4244 87.4297C46.5113 87.4019 46.5692 87.381 46.5982 87.3669C46.6294 87.3562 46.6555 87.356 46.6764 87.3662C46.6986 87.3709 46.7134 87.3828 46.7209 87.4017C46.7285 87.4207 46.7282 87.4423 46.7201 87.4666C46.7154 87.4887 46.6997 87.5085 46.6728 87.5259L44.0356 89.2376C44.0087 89.255 43.9826 89.2624 43.9571 89.2599C43.9349 89.2552 43.9168 89.2455 43.9025 89.2309C43.8883 89.2163 43.8818 89.199 43.8832 89.1791C43.8857 89.1536 43.8982 89.1288 43.9207 89.1047C43.9454 89.0839 43.9864 89.0406 44.0438 88.9747C44.1045 88.9067 44.1566 88.8252 44.1999 88.7303C44.2444 88.6299 44.268 88.5193 44.2706 88.3984C44.2765 88.2753 44.2349 88.1449 44.1456 88.0074L40.4839 82.3655C40.4556 82.3219 40.418 82.3081 40.3712 82.3241C40.3645 82.3285 40.3361 82.3398 40.2859 82.358C40.2391 82.3741 40.1845 82.3929 40.1222 82.4143C40.0598 82.4357 40.0018 82.4566 39.9483 82.477C39.8981 82.4953 39.8669 82.506 39.8547 82.5092C39.8046 82.5274 39.7669 82.5208 39.7418 82.4895C39.7178 82.4526 39.7267 82.4111 39.7683 82.365C39.8795 82.2499 39.9943 82.1181 40.1126 81.9698C40.2321 81.816 40.3484 81.6571 40.4614 81.4931C40.5721 81.3259 40.6757 81.1585 40.7721 80.991C40.8663 80.8202 40.9454 80.6592 41.0094 80.508C41.0265 80.4683 41.0513 80.4403 41.0836 80.4241C41.1194 80.4056 41.1525 80.4199 41.183 80.4669L45.5045 87.1254ZM51.119 83.9822C51.1594 83.9417 51.2029 83.9278 51.2493 83.9406C51.2936 83.95 51.3192 83.9858 51.3262 84.048C51.33 84.098 51.3248 84.1634 51.3105 84.2442C51.2995 84.3228 51.2696 84.409 51.2207 84.5027C51.1752 84.5943 51.1069 84.691 51.0158 84.7931C50.928 84.893 50.8103 84.9908 50.6627 85.0867C50.458 85.2195 50.2591 85.2914 50.0659 85.3023C49.8739 85.3077 49.7162 85.2741 49.5928 85.2016C49.562 85.1835 49.5342 85.1848 49.5096 85.2056C49.4883 85.2242 49.4747 85.2473 49.4688 85.275C49.4652 85.2916 49.4519 85.3408 49.4287 85.4226C49.4067 85.4989 49.3644 85.5954 49.302 85.7123C49.2407 85.8236 49.156 85.9429 49.0479 86.0703C48.942 86.201 48.8018 86.323 48.6274 86.4362C48.3287 86.63 48.0499 86.7514 47.7908 86.8004C47.535 86.8471 47.3009 86.8465 47.0885 86.7984C46.8772 86.7447 46.6897 86.6542 46.526 86.5268C46.3634 86.3939 46.2288 86.2452 46.1221 86.0808C45.95 85.8158 45.8736 85.5364 45.8928 85.2426C45.9153 84.9466 46.0141 84.6727 46.1891 84.4208C46.284 84.2877 46.3936 84.1664 46.5181 84.057C46.6438 83.9421 46.7678 83.8282 46.8901 83.7155C47.0125 83.6027 47.1282 83.4871 47.2372 83.3686C47.3475 83.2446 47.4352 83.1042 47.5004 82.9474C47.5701 82.783 47.586 82.6201 47.548 82.4587C47.5134 82.2952 47.4482 82.1396 47.3524 81.992C47.2827 81.8846 47.2012 81.7921 47.1078 81.7144C47.0157 81.6312 46.9188 81.5701 46.8172 81.5311C46.719 81.4899 46.6205 81.4704 46.5217 81.4725C46.4263 81.4725 46.3383 81.4986 46.2578 81.5508C46.1135 81.6445 46.0318 81.75 46.0126 81.8673C45.9934 81.9847 45.9974 82.1085 46.0246 82.2386C46.0552 82.3666 46.0908 82.4985 46.1313 82.6343C46.1696 82.7668 46.1779 82.8973 46.1564 83.0257C46.1374 83.1287 46.0901 83.2285 46.0146 83.3252C45.9402 83.4164 45.8594 83.4903 45.7722 83.5469C45.6816 83.6057 45.5913 83.6429 45.5012 83.6584C45.4111 83.6739 45.3246 83.6729 45.2416 83.6552C45.1565 83.6342 45.0787 83.5988 45.0083 83.5491C44.9391 83.4939 44.8794 83.4277 44.8293 83.3506C44.7618 83.2465 44.7195 83.1262 44.7023 82.9895C44.6851 82.8528 44.7131 82.7012 44.7861 82.5346C44.8625 82.3657 44.9935 82.1854 45.1789 81.9935C45.3621 81.7983 45.6215 81.5918 45.9571 81.374C46.3295 81.1323 46.6716 80.9651 46.9834 80.8724C47.2964 80.7742 47.5819 80.7439 47.8399 80.7815C48.1013 80.8169 48.3386 80.918 48.5518 81.0848C48.7662 81.2461 48.9616 81.4626 49.1379 81.7344C49.3492 82.0599 49.5373 82.3717 49.7022 82.67C49.8672 82.9683 50.0165 83.2314 50.1502 83.4594C50.285 83.6818 50.4076 83.8597 50.5181 83.9931C50.6263 84.1232 50.7299 84.1799 50.8288 84.1634C50.8733 84.1584 50.9207 84.1396 50.971 84.1069C51.0191 84.0709 51.0685 84.0293 51.119 83.9822ZM47.9124 82.866C47.8994 82.8458 47.8823 82.8379 47.8612 82.842C47.84 82.8462 47.8282 82.8611 47.8257 82.8865C47.8184 82.9342 47.8118 82.979 47.8057 83.0211C47.803 83.061 47.7951 83.1114 47.7822 83.1723C47.762 83.2807 47.7379 83.3869 47.71 83.4909C47.68 83.5915 47.651 83.6938 47.623 83.7977C47.5908 83.8949 47.5585 83.9922 47.5263 84.0894C47.4973 84.1845 47.4751 84.2824 47.4594 84.3832C47.4375 84.5404 47.4439 84.6936 47.4787 84.8427C47.5147 84.9863 47.5762 85.1252 47.6633 85.2594C47.7221 85.35 47.7954 85.4335 47.8832 85.5101C47.9688 85.5832 48.0625 85.6393 48.1641 85.6783C48.2668 85.7117 48.3754 85.7247 48.4898 85.7173C48.6053 85.7043 48.7235 85.6586 48.8443 85.5802C48.9651 85.5018 49.046 85.4134 49.0872 85.3152C49.1317 85.2148 49.1512 85.1163 49.1457 85.0197C49.1436 84.9209 49.1281 84.8309 49.0991 84.7495C49.068 84.6648 49.0394 84.6023 49.0132 84.5621L47.9124 82.866ZM57.1667 80.5078C57.1979 80.4971 57.224 80.4968 57.245 80.5071C57.2671 80.5118 57.2819 80.5236 57.2895 80.5426C57.297 80.5615 57.2967 80.5832 57.2887 80.6075C57.2839 80.6296 57.2682 80.6494 57.2413 80.6668L55.4194 81.8492C55.3825 81.8732 55.3469 81.8844 55.3125 81.8829C55.2815 81.8792 55.254 81.8589 55.23 81.822L55.0373 81.525C54.9878 81.7574 54.8855 82.0002 54.7304 82.2535C54.5731 82.5034 54.3284 82.7362 53.9962 82.9517C53.7211 83.1303 53.47 83.2504 53.2429 83.3119C53.0191 83.3713 52.8125 83.3909 52.6231 83.3709C52.4369 83.3486 52.2679 83.2938 52.1158 83.2065C51.9672 83.117 51.832 83.0116 51.7103 82.8903C51.592 82.7668 51.4849 82.6384 51.3889 82.5052C51.2941 82.3665 51.2075 82.2367 51.1291 82.1159L49.8519 80.1481C49.7648 80.0138 49.6683 79.9239 49.5623 79.8782C49.4542 79.8292 49.3507 79.8057 49.252 79.8078C49.1544 79.8044 49.0666 79.8161 48.9886 79.8429C48.9139 79.8674 48.861 79.8851 48.8298 79.8958C48.8008 79.9099 48.7758 79.9118 48.7549 79.9015C48.7306 79.8935 48.7146 79.88 48.7071 79.861C48.6996 79.8421 48.6998 79.8204 48.7079 79.7961C48.7126 79.774 48.7284 79.7542 48.7552 79.7368L50.5772 78.5543C50.6577 78.5021 50.7263 78.5196 50.7829 78.6068L52.6937 81.5511C52.7842 81.6831 52.8831 81.8097 52.9903 81.9308C53.1009 82.0498 53.2206 82.1461 53.3495 82.2198C53.4796 82.288 53.6184 82.3219 53.766 82.3215C53.9169 82.3189 54.0813 82.2599 54.2591 82.1445C54.447 82.0226 54.5696 81.8882 54.6269 81.7413C54.6854 81.5889 54.7039 81.4338 54.6826 81.276C54.6612 81.1182 54.6121 80.9617 54.5352 80.8065C54.4562 80.648 54.3731 80.5016 54.286 80.3674L52.8716 78.1882C52.7845 78.054 52.688 77.964 52.5821 77.9183C52.4739 77.8693 52.3705 77.8458 52.2717 77.8479C52.1741 77.8445 52.0863 77.8562 52.0083 77.883C51.9337 77.9076 51.8808 77.9252 51.8496 77.9359C51.8206 77.95 51.7939 77.953 51.7696 77.9449C51.7486 77.9347 51.7344 77.9201 51.7269 77.9011C51.7193 77.8822 51.7179 77.8617 51.7226 77.8395C51.7307 77.8152 51.7481 77.7943 51.775 77.7769L53.5969 76.5945C53.6774 76.5422 53.746 76.5597 53.8026 76.6469L56.1447 80.2555C56.2318 80.3897 56.3294 80.4814 56.4375 80.5304C56.5435 80.5761 56.6452 80.6006 56.7428 80.6041C56.8416 80.602 56.9294 80.5903 57.0062 80.569C57.0842 80.5423 57.1377 80.5218 57.1667 80.5078ZM63.0881 76.6647C63.1193 76.654 63.1454 76.6537 63.1663 76.664C63.1885 76.6687 63.2033 76.6805 63.2108 76.6995C63.2184 76.7184 63.2181 76.7401 63.21 76.7644C63.2053 76.7865 63.1896 76.8063 63.1627 76.8237L62.5789 77.2026L62.5336 77.232L61.2653 78.0552L61.22 78.0846L60.6362 78.4635C60.6093 78.4809 60.5832 78.4883 60.5577 78.4858C60.5356 78.4811 60.5174 78.4714 60.5031 78.4568C60.4889 78.4422 60.4824 78.425 60.4838 78.405C60.4863 78.3795 60.4988 78.3547 60.5213 78.3306C60.546 78.3098 60.5848 78.2703 60.6376 78.2122C60.6917 78.1485 60.7381 78.0731 60.7769 77.9859C60.8168 77.8932 60.8375 77.7892 60.839 77.6738C60.8382 77.5551 60.7943 77.4286 60.7072 77.2944L59.5084 75.4473L59.4823 75.407L59.2993 75.1252C59.2045 74.9865 59.0991 74.8498 58.9832 74.7152C58.8684 74.5751 58.7416 74.4643 58.6028 74.3827C58.4652 74.2956 58.3143 74.2504 58.1502 74.2473C57.9872 74.2386 57.8117 74.2953 57.6239 74.4172C57.4292 74.5435 57.3033 74.6801 57.246 74.827C57.1887 74.9738 57.1703 75.1217 57.1906 75.2706C57.2143 75.4174 57.2619 75.5605 57.3335 75.7001C57.4061 75.8341 57.4751 75.9515 57.5405 76.0521L59.0463 78.3723C59.1334 78.5065 59.231 78.5982 59.3392 78.6472C59.4451 78.6929 59.5469 78.7174 59.6445 78.7209C59.7432 78.7187 59.831 78.7071 59.9078 78.6858C59.9858 78.659 60.0393 78.6386 60.0684 78.6246C60.0996 78.6139 60.1256 78.6136 60.1466 78.6239C60.1687 78.6286 60.1836 78.6404 60.1911 78.6594C60.1986 78.6783 60.1984 78.6999 60.1903 78.7243C60.1856 78.7464 60.1698 78.7662 60.143 78.7836L57.6164 80.4233C57.5896 80.4408 57.5634 80.4482 57.5379 80.4457C57.5158 80.441 57.4976 80.4313 57.4834 80.4167C57.4691 80.4021 57.4627 80.3848 57.464 80.3649C57.4666 80.3394 57.4791 80.3146 57.5016 80.2905C57.5262 80.2697 57.565 80.2302 57.6179 80.1721C57.6719 80.1084 57.7183 80.0329 57.7571 79.9458C57.7971 79.8531 57.8178 79.749 57.8192 79.6337C57.8185 79.5149 57.7745 79.3885 57.6874 79.2543L55.8713 76.456C55.843 76.4123 55.8054 76.3986 55.7586 76.4146C55.7519 76.419 55.7235 76.4303 55.6733 76.4485C55.6265 76.4646 55.5719 76.4833 55.5095 76.5048C55.4471 76.5262 55.3892 76.5471 55.3357 76.5675C55.2855 76.5858 55.2543 76.5965 55.2421 76.5997C55.1919 76.6179 55.1543 76.6113 55.1292 76.58C55.1052 76.543 55.114 76.5016 55.1557 76.4555C55.2669 76.3403 55.3817 76.2086 55.5 76.0603C55.6195 75.9064 55.7358 75.7475 55.8487 75.5836C55.9595 75.4164 56.0631 75.249 56.1595 75.0815C56.2537 74.9107 56.3328 74.7497 56.3967 74.5985C56.4139 74.5588 56.4386 74.5308 56.471 74.5145C56.5067 74.4961 56.5398 74.5104 56.5703 74.5574L56.8513 74.9902C56.8803 74.8807 56.9217 74.7681 56.9752 74.6522C57.0266 74.533 57.0935 74.4157 57.176 74.3002C57.2617 74.1826 57.3647 74.0657 57.4848 73.9495C57.6083 73.8312 57.754 73.7176 57.9217 73.6088C58.1969 73.4302 58.4463 73.3112 58.67 73.2519C58.8971 73.1903 59.1037 73.1707 59.2898 73.1929C59.4793 73.213 59.6484 73.2678 59.7971 73.3573C59.9491 73.4446 60.0843 73.55 60.2026 73.6735C60.3242 73.7948 60.4325 73.9248 60.5273 74.0636C60.6233 74.1968 60.7105 74.3238 60.7889 74.4446L60.8052 74.4697L62.0661 76.4125C62.1532 76.5467 62.2508 76.6383 62.3589 76.6873C62.4649 76.733 62.5666 76.7576 62.6642 76.761C62.763 76.7589 62.8508 76.7472 62.9276 76.726C63.0056 76.6992 63.0591 76.6788 63.0881 76.6647ZM68.7931 72.9621C68.8243 72.9514 68.8504 72.9511 68.8713 72.9614C68.8934 72.9661 68.9083 72.9779 68.9158 72.9969C68.9233 73.0158 68.9231 73.0374 68.915 73.0618C68.9103 73.0839 68.8945 73.1037 68.8677 73.1211L67.0458 74.3035C67.0089 74.3275 66.9732 74.3387 66.9388 74.3372C66.9078 74.3335 66.8803 74.3132 66.8564 74.2762L66.5689 73.8333C66.5537 73.8099 66.5355 73.8002 66.5144 73.8044C66.4932 73.8086 66.4814 73.8234 66.4789 73.8489C66.4726 73.9054 66.4604 73.9968 66.4422 74.123C66.4218 74.2459 66.3757 74.3879 66.3038 74.549C66.2331 74.7046 66.1257 74.8697 65.9815 75.0443C65.8429 75.2201 65.6528 75.3864 65.4112 75.5432C65.1428 75.7174 64.885 75.8346 64.638 75.8948C64.391 75.955 64.1544 75.9726 63.9284 75.9477C63.7057 75.9205 63.4956 75.8613 63.2982 75.7702C63.104 75.6768 62.9229 75.5631 62.7548 75.429C62.5901 75.2927 62.4405 75.1466 62.3059 74.9907C62.1747 74.8327 62.0601 74.6781 61.9621 74.5272C61.7182 74.1514 61.5425 73.7814 61.4349 73.4173C61.3285 73.0476 61.2968 72.6939 61.3398 72.356C61.3862 72.016 61.5105 71.6968 61.7128 71.3987C61.9184 71.0983 62.2108 70.8251 62.5899 70.579C62.8013 70.4418 62.9929 70.3366 63.1646 70.2632C63.3342 70.1866 63.4802 70.1323 63.6027 70.1006C63.7229 70.0654 63.818 70.0466 63.8879 70.0442C63.9557 70.0383 63.994 70.0349 64.0029 70.0339C64.0284 70.0365 64.0457 70.03 64.0547 70.0146C64.0672 69.997 64.0679 69.9798 64.057 69.963L62.7341 67.9247C62.7058 67.8811 62.6683 67.8673 62.6215 67.8834C62.6148 67.8877 62.5863 67.899 62.5362 67.9173C62.4894 67.9333 62.4348 67.9521 62.3724 67.9735C62.31 67.9949 62.252 68.0158 62.1985 68.0363C62.1484 68.0545 62.1172 68.0652 62.1049 68.0684C62.0548 68.0866 62.0171 68.0801 61.992 68.0487C61.9681 68.0118 61.9769 67.9703 62.0185 67.9242C62.1298 67.8091 62.2446 67.6774 62.3629 67.529C62.4824 67.3752 62.5986 67.2163 62.7116 67.0524C62.8224 66.8851 62.926 66.7177 63.0223 66.5503C63.1165 66.3795 63.1956 66.2184 63.2596 66.0672C63.2767 66.0275 63.3015 65.9995 63.3339 65.9833C63.3696 65.9649 63.4027 65.9791 63.4332 66.0261L67.771 72.7098C67.8581 72.844 67.9558 72.9357 68.0639 72.9847C68.1698 73.0304 68.2716 73.0549 68.3692 73.0584C68.468 73.0562 68.5558 73.0446 68.6326 73.0233C68.7106 72.9966 68.7641 72.9761 68.7931 72.9621ZM64.9764 71.3906C64.922 71.3067 64.8554 71.2188 64.7766 71.1269C64.7012 71.0327 64.6158 70.9452 64.5202 70.8641C64.4259 70.7775 64.3231 70.7036 64.2118 70.6423C64.1038 70.5788 63.989 70.5341 63.8673 70.5082C63.7455 70.4823 63.6202 70.4802 63.4912 70.5019C63.3601 70.5203 63.2291 70.5719 63.0982 70.6569C62.9002 70.7853 62.7635 70.9456 62.6879 71.1378C62.6123 71.3299 62.5886 71.5432 62.6168 71.7776C62.6428 72.0087 62.714 72.2581 62.8305 72.5258C62.9449 72.7902 63.0924 73.0616 63.2732 73.3401C63.3211 73.4139 63.3864 73.5146 63.4692 73.6421C63.5531 73.764 63.6503 73.8917 63.7607 74.0251C63.8745 74.1563 63.9994 74.2827 64.1355 74.4042C64.2715 74.5257 64.4163 74.6201 64.5697 74.6874C64.723 74.7548 64.8852 74.7878 65.0561 74.7866C65.2248 74.782 65.398 74.722 65.5758 74.6066C65.804 74.4585 65.9597 74.2979 66.0428 74.1248C66.1259 73.9516 66.1652 73.7807 66.1606 73.612C66.156 73.4433 66.1219 73.2842 66.0583 73.1347C65.9925 72.9819 65.9259 72.8535 65.8583 72.7495L64.9764 71.3906ZM69.2703 66.2433C69.4113 66.1519 69.5423 66.093 69.6636 66.0668C69.7827 66.0372 69.892 66.033 69.9916 66.0542C70.089 66.072 70.1773 66.1125 70.2564 66.1756C70.3333 66.2353 70.4001 66.3088 70.4567 66.3961C70.5612 66.5571 70.5909 66.7167 70.5457 66.8748C70.5038 67.0307 70.3973 67.1642 70.2262 67.2753C70.0953 67.3602 69.9778 67.4031 69.8735 67.4041C69.7692 67.405 69.6727 67.396 69.5842 67.3772C69.4969 67.3528 69.4161 67.3313 69.342 67.3126C69.2679 67.294 69.199 67.3053 69.1353 67.3467C69.0782 67.3837 69.0292 67.4441 68.9882 67.528C68.9484 67.6062 68.9349 67.7176 68.9475 67.862C68.9635 68.0042 69.014 68.1812 69.0991 68.3931C69.1841 68.6049 69.3235 68.8601 69.5173 69.1588L70.6475 70.9002C70.7346 71.0344 70.825 71.1259 70.9187 71.1748C71.0158 71.2214 71.1059 71.2464 71.1891 71.2497C71.2756 71.2507 71.3528 71.2411 71.4208 71.2209C71.4865 71.1973 71.5339 71.1785 71.5629 71.1644C71.5941 71.1537 71.6202 71.1534 71.6412 71.1637C71.6633 71.1684 71.6781 71.1802 71.6856 71.1992C71.6932 71.2181 71.6929 71.2398 71.6848 71.2641C71.6801 71.2862 71.6644 71.306 71.6375 71.3234L71.1342 71.6501L71.0889 71.6795L69.8206 72.5026L69.7753 72.532L69.272 72.8586C69.2452 72.8761 69.219 72.8835 69.1936 72.881C69.1714 72.8763 69.1532 72.8666 69.139 72.852C69.1247 72.8374 69.1183 72.8201 69.1197 72.8002C69.1222 72.7747 69.1347 72.7499 69.1572 72.7258C69.1819 72.705 69.2184 72.6694 69.2667 72.6189C69.3128 72.5651 69.3514 72.4996 69.3823 72.4223C69.4165 72.3429 69.4304 72.2504 69.424 72.1449C69.4209 72.0372 69.3757 71.9163 69.2886 71.7821L67.4464 68.9435C67.4181 68.8999 67.3805 68.8861 67.3337 68.9022C67.327 68.9066 67.2986 68.9179 67.2484 68.9361C67.2016 68.9522 67.147 68.9709 67.0846 68.9923C67.0222 69.0137 66.9643 69.0347 66.9108 69.0551C66.8606 69.0733 66.8294 69.084 66.8172 69.0872C66.767 69.1055 66.7294 69.0989 66.7043 69.0675C66.6803 69.0306 66.6891 68.9891 66.7307 68.943C66.842 68.8279 66.9568 68.6962 67.0751 68.5479C67.1946 68.394 67.3109 68.2351 67.4238 68.0712C67.5346 67.9039 67.6382 67.7366 67.7346 67.5691C67.8288 67.3983 67.9078 67.2373 67.9718 67.0861C67.989 67.0463 68.0137 67.0184 68.0461 67.0021C68.0818 66.9837 68.1149 66.998 68.1454 67.0449L68.6125 67.7646C68.5623 67.4301 68.5964 67.1337 68.715 66.8755C68.8336 66.6174 69.0187 66.4066 69.2703 66.2433ZM75.0924 70.7907L74.7979 68.8932C74.6637 68.8039 74.4865 68.6852 74.2664 68.5371C74.0464 68.3891 73.807 68.2297 73.5484 68.059C73.2876 67.8849 73.0218 67.7069 72.7511 67.5249C72.4804 67.3429 72.2295 67.1768 71.9984 67.0264C71.7651 66.8726 71.5659 66.742 71.4008 66.6346C71.2335 66.5238 71.1229 66.4525 71.0689 66.4208C70.9554 66.3561 70.8523 66.3038 70.7596 66.2639C70.6647 66.2205 70.573 66.1894 70.4845 66.1706C70.396 66.1518 70.3073 66.1473 70.2184 66.1573C70.1273 66.164 70.0289 66.185 69.923 66.2203C69.8918 66.231 69.8658 66.2312 69.8448 66.221C69.8205 66.2129 69.8046 66.1994 69.7971 66.1804C69.784 66.1603 69.7815 66.1381 69.7896 66.1138C69.7943 66.0916 69.81 66.0719 69.8369 66.0544L72.3533 64.4212C72.3768 64.406 72.4013 64.3996 72.4268 64.4022C72.4523 64.4047 72.4732 64.4149 72.4897 64.4329C72.5039 64.4475 72.5125 64.4681 72.5155 64.4948C72.5164 64.5181 72.5038 64.5429 72.478 64.5692C72.4364 64.6153 72.393 64.6697 72.3478 64.7324C72.3039 64.7895 72.2753 64.8557 72.2622 64.931C72.2469 65.0029 72.2576 65.0818 72.2942 65.1677C72.3287 65.2503 72.4036 65.3399 72.5189 65.4368C72.5705 65.4796 72.6502 65.5399 72.758 65.6178C72.8658 65.6957 72.9851 65.7804 73.116 65.8718C73.2469 65.9633 73.3827 66.0587 73.5235 66.1581C73.6621 66.2541 73.7909 66.3422 73.9097 66.4225C74.0264 66.4994 74.1265 66.5655 74.2102 66.6209C74.2916 66.6729 74.339 66.7018 74.3522 66.7075C74.404 66.7359 74.4275 66.7207 74.4227 66.6618C74.4175 66.6318 74.4055 66.5656 74.3868 66.4633C74.3681 66.361 74.343 66.2414 74.3114 66.1046C74.281 65.9622 74.2484 65.8092 74.2138 65.6457C74.1792 65.4822 74.1456 65.3276 74.113 65.1818C74.0783 65.0327 74.0461 64.8986 74.0165 64.7795C73.9881 64.6549 73.9653 64.5648 73.9483 64.5091C73.9068 64.3644 73.8554 64.2594 73.794 64.1943C73.7339 64.1237 73.6695 64.0796 73.6009 64.0621C73.5302 64.0413 73.4598 64.0393 73.3897 64.0562C73.3174 64.0697 73.2517 64.0861 73.1927 64.1054C73.1581 64.1183 73.1304 64.1196 73.1094 64.1093C73.0863 64.0957 73.071 64.0795 73.0634 64.0605C73.0537 64.0382 73.0512 64.016 73.0559 63.9938C73.064 63.9695 73.0814 63.9487 73.1083 63.9313L74.6131 62.9546C74.6366 62.9393 74.6594 62.9341 74.6816 62.9388C74.707 62.9413 74.728 62.9516 74.7444 62.9695C74.7587 62.9841 74.7645 63.0042 74.762 63.0296C74.7628 63.053 74.752 63.0767 74.7295 63.1008C74.6575 63.1809 74.5999 63.2612 74.5568 63.3417C74.5114 63.4188 74.4777 63.5027 74.4555 63.5934C74.4366 63.6819 74.4277 63.7783 74.4286 63.8826C74.4274 63.9836 74.4332 64.099 74.446 64.229C74.452 64.2823 74.4682 64.4029 74.4948 64.5907C74.5225 64.773 74.5564 64.9942 74.5964 65.2543C74.6365 65.5145 74.6802 65.7985 74.7274 66.1064C74.7747 66.4143 74.8225 66.7194 74.8709 67.0218C74.9171 67.3208 74.9608 67.6048 75.0019 67.8738C75.0429 68.1428 75.0779 68.3657 75.1068 68.5425L75.4955 71.037C75.548 71.3605 75.5479 71.6467 75.4949 71.8957C75.4452 72.1425 75.3097 72.3378 75.0882 72.4815C75.0111 72.5316 74.9263 72.5699 74.8338 72.5965C74.7436 72.6265 74.653 72.6375 74.5622 72.6298C74.4735 72.6253 74.385 72.5993 74.2969 72.5516C74.2142 72.5051 74.1391 72.4298 74.0716 72.3258C74.0107 72.2319 73.9752 72.1405 73.9652 72.0516C73.9585 71.9605 73.9696 71.8747 73.9983 71.794C74.0304 71.7112 74.0768 71.6358 74.1376 71.5678C74.1983 71.4997 74.2673 71.4407 74.3444 71.3906C74.4485 71.3231 74.5488 71.2794 74.6456 71.2595C74.7446 71.2429 74.8314 71.2224 74.906 71.1978C74.9806 71.1732 75.0355 71.1328 75.0706 71.0767C75.1078 71.0239 75.1151 70.9285 75.0924 70.7907Z" fill="white"/>
<path d="M122.071 90.3074C121.996 90.4535 121.967 90.5865 121.982 90.7065C122.001 90.8283 122.035 90.9359 122.087 91.0293C122.143 91.121 122.203 91.1966 122.267 91.2562C122.335 91.3175 122.382 91.3573 122.409 91.3754C122.433 91.397 122.447 91.4195 122.448 91.4428C122.455 91.4643 122.452 91.4831 122.44 91.4991C122.427 91.515 122.408 91.5256 122.383 91.5308C122.362 91.5378 122.337 91.534 122.308 91.5195L119.507 90.0909C119.479 90.0764 119.459 90.0574 119.449 90.0341C119.442 90.0126 119.441 89.992 119.447 89.9724C119.452 89.9527 119.464 89.9385 119.482 89.9297C119.505 89.9192 119.533 89.9176 119.565 89.925C119.595 89.936 119.653 89.9499 119.739 89.9667C119.828 89.9853 119.925 89.9896 120.029 89.9797C120.138 89.9681 120.246 89.9332 120.352 89.875C120.461 89.8186 120.553 89.7174 120.628 89.5713L123.684 83.5797C123.708 83.5334 123.701 83.4939 123.663 83.4614C123.656 83.4578 123.632 83.4388 123.591 83.4045C123.554 83.372 123.511 83.3341 123.461 83.2908C123.411 83.2474 123.364 83.2077 123.32 83.1716C123.279 83.1372 123.254 83.1156 123.245 83.1066C123.204 83.0722 123.191 83.0364 123.206 82.9989C123.226 82.9597 123.266 82.9466 123.327 82.9596C123.482 82.9984 123.653 83.032 123.841 83.0604C124.034 83.087 124.23 83.1082 124.428 83.1241C124.628 83.1364 124.825 83.1425 125.018 83.1423C125.213 83.1385 125.392 83.1265 125.555 83.1063C125.598 83.1013 125.635 83.1087 125.665 83.1287C125.699 83.1504 125.703 83.1862 125.678 83.2361L122.071 90.3074ZM127.6 93.5989C127.655 93.6137 127.689 93.6443 127.701 93.691C127.715 93.734 127.697 93.7741 127.646 93.8113C127.605 93.8396 127.546 93.8677 127.469 93.8957C127.395 93.9255 127.305 93.9427 127.2 93.9472C127.098 93.9536 126.98 93.9428 126.846 93.9149C126.716 93.8888 126.572 93.8357 126.415 93.7558C126.198 93.6449 126.036 93.5086 125.93 93.3467C125.829 93.1831 125.78 93.0298 125.781 92.8866C125.781 92.8509 125.766 92.8275 125.736 92.8165C125.709 92.8074 125.682 92.8071 125.655 92.8159C125.639 92.8211 125.59 92.8341 125.507 92.8549C125.43 92.874 125.326 92.8857 125.193 92.89C125.066 92.8925 124.92 92.8789 124.756 92.8489C124.59 92.8225 124.414 92.7621 124.229 92.6676C123.912 92.5058 123.667 92.325 123.495 92.125C123.327 91.9269 123.211 91.7238 123.146 91.5158C123.087 91.306 123.072 91.0984 123.1 90.8929C123.134 90.6856 123.195 90.4947 123.284 90.3201C123.428 90.0386 123.632 89.8327 123.896 89.7025C124.163 89.574 124.45 89.5227 124.756 89.5484C124.918 89.564 125.078 89.5984 125.235 89.6515C125.398 89.7029 125.558 89.7534 125.717 89.8029C125.876 89.8525 126.034 89.8949 126.191 89.9302C126.353 89.9637 126.519 89.9695 126.687 89.9476C126.864 89.9257 127.013 89.8581 127.134 89.7445C127.259 89.6328 127.361 89.4986 127.441 89.3418C127.499 89.2278 127.538 89.1109 127.559 88.9912C127.585 88.8698 127.589 88.7553 127.572 88.6479C127.559 88.5422 127.527 88.4472 127.475 88.3627C127.428 88.28 127.361 88.2168 127.276 88.1732C127.122 88.0951 126.99 88.077 126.879 88.1191C126.768 88.1611 126.663 88.2264 126.563 88.3151C126.468 88.4056 126.371 88.5023 126.274 88.6053C126.178 88.7047 126.07 88.7771 125.948 88.8227C125.849 88.8577 125.739 88.8666 125.617 88.8496C125.501 88.8307 125.397 88.7977 125.304 88.7504C125.208 88.7014 125.131 88.6417 125.072 88.5715C125.014 88.5012 124.971 88.4258 124.945 88.3451C124.921 88.2608 124.912 88.1757 124.92 88.0899C124.934 88.0024 124.961 87.9176 125.003 87.8357C125.059 87.7252 125.142 87.6284 125.252 87.5452C125.362 87.462 125.507 87.4104 125.688 87.3904C125.872 87.3722 126.094 87.3954 126.353 87.4601C126.614 87.5212 126.922 87.6427 127.278 87.8244C127.674 88.0262 127.99 88.2389 128.226 88.4626C128.467 88.6846 128.636 88.9167 128.733 89.159C128.833 89.4031 128.864 89.6591 128.826 89.9272C128.793 90.1935 128.704 90.4709 128.556 90.7595C128.38 91.1052 128.204 91.424 128.028 91.7159C127.852 92.0079 127.699 92.2688 127.568 92.4985C127.443 92.7265 127.35 92.9216 127.29 93.0839C127.231 93.2426 127.234 93.3607 127.298 93.4382C127.324 93.4742 127.364 93.5058 127.418 93.5331C127.473 93.5568 127.534 93.5787 127.6 93.5989ZM126.964 90.2638C126.975 90.2424 126.973 90.2236 126.959 90.2074C126.945 90.1911 126.926 90.1883 126.903 90.1989C126.858 90.2164 126.815 90.233 126.776 90.2488C126.74 90.2664 126.693 90.2848 126.633 90.304C126.529 90.3408 126.425 90.373 126.321 90.4008C126.219 90.425 126.116 90.4511 126.012 90.4788C125.912 90.4995 125.811 90.5202 125.711 90.5408C125.614 90.5633 125.518 90.5929 125.423 90.6298C125.276 90.6894 125.147 90.7715 125.035 90.8762C124.928 90.9791 124.839 91.1018 124.766 91.2443C124.717 91.3405 124.681 91.4458 124.659 91.5601C124.638 91.6709 124.637 91.78 124.654 91.8874C124.676 91.9932 124.719 92.0937 124.783 92.189C124.852 92.2826 124.95 92.3621 125.079 92.4275C125.207 92.493 125.324 92.5189 125.43 92.5055C125.539 92.4938 125.634 92.4615 125.715 92.4085C125.799 92.3573 125.87 92.2988 125.926 92.2331C125.983 92.1638 126.023 92.1077 126.045 92.065L126.964 90.2638ZM133.632 97.1001C133.657 97.1218 133.67 97.1442 133.672 97.1675C133.679 97.189 133.676 97.2078 133.663 97.2238C133.651 97.2398 133.632 97.2504 133.607 97.2555C133.585 97.2625 133.56 97.2587 133.532 97.2442L131.597 96.2573C131.558 96.2373 131.53 96.2121 131.514 96.1815C131.502 96.1528 131.506 96.1188 131.526 96.0796L131.687 95.7643C131.461 95.8376 131.199 95.8704 130.902 95.8627C130.607 95.8513 130.283 95.7557 129.931 95.5758C129.638 95.4268 129.409 95.2693 129.242 95.1034C129.079 94.9393 128.958 94.7701 128.881 94.596C128.807 94.4237 128.77 94.2498 128.77 94.0745C128.773 93.901 128.797 93.7313 128.841 93.5653C128.889 93.4011 128.947 93.2441 129.014 93.0944C129.087 92.9429 129.156 92.803 129.221 92.6747L130.287 90.5849C130.36 90.4424 130.39 90.3138 130.376 90.1992C130.365 90.0811 130.333 89.9797 130.282 89.8952C130.236 89.809 130.182 89.7388 130.12 89.6846C130.061 89.6323 130.02 89.5953 129.995 89.5736C129.968 89.5555 129.954 89.5348 129.952 89.5116C129.947 89.4865 129.951 89.4659 129.964 89.4499C129.976 89.4339 129.995 89.4233 130.02 89.4182C130.042 89.4112 130.067 89.415 130.095 89.4295L132.03 90.4164C132.116 90.46 132.135 90.5282 132.087 90.6208L130.493 93.7476C130.423 93.8919 130.363 94.0408 130.312 94.1942C130.264 94.3495 130.241 94.5014 130.241 94.6498C130.247 94.7966 130.287 94.9337 130.361 95.0614C130.439 95.1908 130.572 95.3037 130.761 95.4C130.961 95.5018 131.138 95.5408 131.294 95.517C131.455 95.4914 131.599 95.43 131.725 95.3326C131.851 95.2352 131.962 95.1144 132.058 94.9703C132.156 94.8226 132.241 94.6775 132.314 94.535L133.494 92.2206C133.567 92.0781 133.596 91.9495 133.583 91.835C133.571 91.7168 133.54 91.6155 133.489 91.531C133.443 91.4447 133.389 91.3745 133.327 91.3204C133.268 91.268 133.227 91.231 133.202 91.2094C133.175 91.1912 133.159 91.1697 133.154 91.1446C133.152 91.1213 133.158 91.1017 133.17 91.0857C133.183 91.0697 133.2 91.0582 133.222 91.0512C133.247 91.046 133.274 91.0507 133.302 91.0653L135.237 92.0522C135.322 92.0958 135.342 92.1639 135.294 92.2565L133.34 96.0888C133.267 96.2314 133.236 96.3617 133.248 96.4799C133.261 96.5945 133.291 96.6949 133.337 96.7811C133.388 96.8656 133.442 96.9358 133.499 96.9917C133.561 97.0459 133.605 97.082 133.632 97.1001ZM139.92 100.308C139.945 100.329 139.959 100.352 139.96 100.375C139.967 100.397 139.964 100.415 139.952 100.431C139.939 100.447 139.92 100.458 139.895 100.463C139.874 100.47 139.849 100.466 139.82 100.452L139.2 100.135L139.152 100.111L137.805 99.4239L137.757 99.3994L137.137 99.0831C137.108 99.0686 137.089 99.0497 137.078 99.0263C137.071 99.0048 137.071 98.9842 137.076 98.9646C137.082 98.9449 137.093 98.9307 137.111 98.9219C137.135 98.9114 137.162 98.9098 137.195 98.9172C137.225 98.9282 137.278 98.9421 137.355 98.9588C137.437 98.9737 137.526 98.9762 137.621 98.9663C137.721 98.9545 137.822 98.9205 137.922 98.864C138.025 98.804 138.112 98.7028 138.185 98.5602L139.185 96.5987L139.207 96.5559L139.36 96.2566C139.433 96.1051 139.498 95.9455 139.557 95.7779C139.621 95.6084 139.654 95.4432 139.655 95.2822C139.662 95.1195 139.625 94.9662 139.546 94.8225C139.472 94.677 139.335 94.5534 139.136 94.4516C138.929 94.3462 138.748 94.3053 138.592 94.3291C138.436 94.3529 138.299 94.4109 138.18 94.5029C138.065 94.5968 137.964 94.7096 137.879 94.8413C137.8 94.9713 137.732 95.0897 137.678 95.1966L136.421 97.6606C136.348 97.8031 136.318 97.9335 136.329 98.0516C136.343 98.1662 136.372 98.2666 136.418 98.3529C136.469 98.4374 136.523 98.5076 136.58 98.5635C136.642 98.6176 136.687 98.6538 136.714 98.6719C136.738 98.6935 136.752 98.716 136.753 98.7393C136.76 98.7608 136.757 98.7796 136.745 98.7956C136.732 98.8116 136.713 98.8221 136.688 98.8273C136.667 98.8343 136.642 98.8305 136.613 98.816L133.93 97.4474C133.901 97.4329 133.882 97.4139 133.871 97.3906C133.864 97.3691 133.864 97.3485 133.869 97.3288C133.875 97.3092 133.886 97.295 133.904 97.2862C133.928 97.2756 133.956 97.2741 133.988 97.2815C134.018 97.2925 134.072 97.3063 134.148 97.323C134.231 97.338 134.319 97.3405 134.414 97.3305C134.514 97.3188 134.615 97.2847 134.715 97.2283C134.818 97.1683 134.905 97.067 134.978 96.9245L136.494 93.9527C136.517 93.9064 136.511 93.867 136.473 93.8345C136.466 93.8309 136.442 93.8119 136.401 93.7776C136.364 93.7451 136.32 93.7072 136.271 93.6638C136.221 93.6205 136.174 93.5808 136.129 93.5446C136.089 93.5103 136.064 93.4887 136.055 93.4796C136.014 93.4453 136.001 93.4094 136.015 93.372C136.035 93.3328 136.076 93.3197 136.137 93.3327C136.292 93.3715 136.463 93.4051 136.651 93.4334C136.844 93.46 137.04 93.4813 137.238 93.4972C137.438 93.5095 137.635 93.5156 137.828 93.5153C138.023 93.5115 138.202 93.4995 138.365 93.4794C138.408 93.4744 138.445 93.4818 138.475 93.5017C138.509 93.5235 138.513 93.5593 138.488 93.6092L138.253 94.0688C138.363 94.0393 138.481 94.0188 138.608 94.0073C138.737 93.9922 138.872 93.9915 139.013 94.0052C139.158 94.0206 139.311 94.0514 139.471 94.0974C139.635 94.1452 139.807 94.2146 139.985 94.3054C140.277 94.4545 140.505 94.611 140.668 94.7751C140.835 94.941 140.955 95.1102 141.029 95.2825C141.106 95.4566 141.143 95.6305 141.14 95.804C141.14 95.9793 141.117 96.149 141.069 96.3132C141.025 96.4792 140.966 96.638 140.893 96.7895C140.826 96.9392 140.759 97.0782 140.694 97.2065L140.68 97.2332L139.628 99.2963C139.555 99.4388 139.525 99.5692 139.536 99.6874C139.55 99.802 139.579 99.9024 139.625 99.9886C139.676 100.073 139.73 100.143 139.787 100.199C139.849 100.253 139.894 100.29 139.92 100.308ZM145.979 103.398C146.004 103.42 146.017 103.442 146.019 103.465C146.026 103.487 146.023 103.506 146.01 103.522C145.998 103.538 145.979 103.548 145.954 103.553C145.932 103.56 145.907 103.557 145.879 103.542L143.944 102.555C143.905 102.535 143.877 102.51 143.861 102.479C143.849 102.451 143.853 102.417 143.873 102.377L144.113 101.907C144.125 101.882 144.125 101.862 144.11 101.845C144.096 101.829 144.078 101.826 144.054 101.837C144.002 101.86 143.917 101.895 143.798 101.942C143.682 101.986 143.536 102.017 143.36 102.035C143.19 102.052 142.994 102.041 142.77 102.004C142.549 101.971 142.31 101.89 142.053 101.759C141.768 101.614 141.538 101.449 141.362 101.265C141.186 101.081 141.053 100.885 140.962 100.677C140.874 100.471 140.82 100.259 140.8 100.042C140.784 99.8276 140.792 99.6139 140.824 99.4013C140.86 99.1904 140.912 98.9878 140.979 98.7934C141.051 98.6007 141.127 98.4243 141.209 98.2639C141.413 97.8648 141.645 97.5277 141.907 97.2525C142.174 96.9756 142.464 96.7713 142.778 96.6396C143.096 96.5098 143.435 96.458 143.794 96.4841C144.157 96.5121 144.54 96.6287 144.942 96.8341C145.167 96.9486 145.354 97.0619 145.503 97.174C145.654 97.2826 145.774 97.3819 145.863 97.4721C145.953 97.5587 146.017 97.6316 146.054 97.691C146.093 97.7467 146.115 97.7782 146.121 97.7854C146.131 97.8087 146.145 97.8205 146.163 97.8206C146.185 97.8226 146.2 97.8147 146.209 97.7969L147.313 95.6322C147.337 95.5859 147.33 95.5464 147.293 95.5139C147.286 95.5103 147.262 95.4913 147.221 95.457C147.183 95.4245 147.14 95.3866 147.09 95.3433C147.04 95.2999 146.993 95.2602 146.949 95.2241C146.908 95.1898 146.883 95.1681 146.874 95.1591C146.833 95.1248 146.82 95.0889 146.835 95.0514C146.855 95.0122 146.895 94.9991 146.956 95.0121C147.111 95.051 147.283 95.0845 147.47 95.1129C147.663 95.1395 147.859 95.1607 148.058 95.1766C148.258 95.1889 148.455 95.195 148.648 95.1948C148.843 95.191 149.022 95.179 149.185 95.1588C149.228 95.1538 149.264 95.1612 149.295 95.1812C149.328 95.2029 149.333 95.2387 149.307 95.2886L145.687 102.387C145.614 102.529 145.583 102.659 145.595 102.778C145.608 102.892 145.638 102.993 145.684 103.079C145.735 103.163 145.789 103.234 145.846 103.289C145.908 103.344 145.952 103.38 145.979 103.398ZM145.432 99.3067C145.478 99.2176 145.521 99.116 145.561 99.0019C145.605 98.8895 145.638 98.7717 145.66 98.6484C145.688 98.5234 145.701 98.3974 145.698 98.2704C145.699 98.1452 145.68 98.0234 145.642 97.905C145.604 97.7866 145.543 97.677 145.46 97.5762C145.378 97.4718 145.268 97.3841 145.129 97.3132C144.919 97.206 144.711 97.1677 144.507 97.1982C144.303 97.2288 144.107 97.3149 143.918 97.4565C143.73 97.5945 143.55 97.7809 143.376 98.0156C143.205 98.2468 143.043 98.5103 142.892 98.806C142.852 98.8844 142.798 98.9913 142.729 99.1267C142.665 99.2604 142.603 99.4084 142.543 99.5707C142.486 99.7348 142.439 99.9062 142.402 100.085C142.365 100.263 142.355 100.436 142.374 100.602C142.392 100.769 142.444 100.926 142.531 101.073C142.619 101.217 142.758 101.337 142.947 101.433C143.189 101.557 143.406 101.612 143.597 101.597C143.789 101.582 143.956 101.531 144.1 101.443C144.244 101.354 144.365 101.245 144.462 101.116C144.562 100.982 144.64 100.86 144.696 100.75L145.432 99.3067ZM152.037 100.453C152.186 100.529 152.303 100.613 152.386 100.705C152.471 100.793 152.53 100.886 152.561 100.983C152.594 101.076 152.603 101.173 152.588 101.273C152.575 101.369 152.545 101.464 152.497 101.557C152.41 101.728 152.287 101.833 152.127 101.873C151.971 101.915 151.802 101.889 151.621 101.796C151.482 101.726 151.386 101.645 151.333 101.555C151.28 101.465 151.24 101.377 151.212 101.291C151.189 101.204 151.167 101.123 151.146 101.049C151.126 100.976 151.081 100.922 151.014 100.887C150.953 100.856 150.876 100.844 150.783 100.851C150.695 100.855 150.592 100.899 150.473 100.982C150.358 101.067 150.23 101.199 150.089 101.379C149.948 101.559 149.797 101.807 149.635 102.124L148.692 103.973C148.619 104.116 148.585 104.24 148.59 104.345C148.598 104.453 148.621 104.543 148.66 104.617C148.702 104.693 148.749 104.755 148.801 104.803C148.854 104.849 148.894 104.88 148.921 104.898C148.945 104.92 148.959 104.942 148.96 104.966C148.967 104.987 148.964 105.006 148.952 105.022C148.939 105.038 148.92 105.049 148.895 105.054C148.874 105.061 148.849 105.057 148.82 105.042L148.286 104.77L148.238 104.745L146.891 104.058L146.843 104.034L146.308 103.761C146.28 103.746 146.26 103.728 146.249 103.704C146.242 103.683 146.242 103.662 146.247 103.642C146.253 103.623 146.265 103.609 146.283 103.6C146.306 103.589 146.334 103.588 146.366 103.595C146.396 103.606 146.445 103.62 146.513 103.637C146.583 103.65 146.659 103.65 146.741 103.638C146.827 103.628 146.914 103.594 147.002 103.536C147.094 103.479 147.176 103.38 147.249 103.237L148.786 100.223C148.81 100.176 148.803 100.137 148.766 100.105C148.759 100.101 148.735 100.082 148.694 100.048C148.657 100.015 148.613 99.9772 148.563 99.9338C148.514 99.8905 148.466 99.8508 148.422 99.8146C148.381 99.7803 148.356 99.7586 148.347 99.7496C148.307 99.7153 148.293 99.6794 148.308 99.642C148.328 99.6028 148.368 99.5897 148.429 99.6027C148.584 99.6415 148.756 99.6751 148.943 99.7034C149.136 99.73 149.332 99.7513 149.531 99.7672C149.731 99.7795 149.928 99.7856 150.121 99.7853C150.316 99.7815 150.495 99.7695 150.658 99.7494C150.701 99.7444 150.737 99.7518 150.768 99.7717C150.801 99.7935 150.806 99.8293 150.78 99.8792L150.39 100.643C150.655 100.433 150.929 100.314 151.212 100.288C151.494 100.261 151.769 100.316 152.037 100.453ZM151.009 107.768L152.505 106.565C152.515 106.404 152.529 106.191 152.547 105.926C152.566 105.662 152.584 105.375 152.603 105.066C152.623 104.753 152.644 104.434 152.667 104.108C152.689 103.783 152.707 103.482 152.722 103.207C152.739 102.928 152.752 102.69 152.763 102.493C152.775 102.293 152.782 102.162 152.782 102.099C152.781 101.969 152.775 101.853 152.763 101.753C152.753 101.649 152.735 101.554 152.707 101.468C152.679 101.382 152.638 101.303 152.585 101.231C152.534 101.155 152.466 101.081 152.383 101.007C152.358 100.985 152.345 100.962 152.343 100.939C152.338 100.914 152.342 100.894 152.354 100.878C152.365 100.856 152.383 100.843 152.408 100.838C152.43 100.831 152.455 100.834 152.484 100.849L155.156 102.212C155.181 102.225 155.199 102.243 155.209 102.266C155.22 102.29 155.221 102.313 155.214 102.336C155.208 102.356 155.195 102.373 155.173 102.389C155.154 102.402 155.126 102.403 155.09 102.394C155.029 102.381 154.961 102.371 154.884 102.363C154.812 102.353 154.741 102.362 154.669 102.388C154.599 102.411 154.536 102.459 154.48 102.534C154.426 102.605 154.385 102.715 154.359 102.863C154.348 102.929 154.335 103.028 154.322 103.161C154.308 103.293 154.295 103.439 154.281 103.598C154.267 103.757 154.252 103.922 154.237 104.094C154.223 104.262 154.211 104.417 154.201 104.56C154.192 104.7 154.185 104.82 154.179 104.92C154.175 105.016 154.173 105.072 154.175 105.086C154.176 105.145 154.201 105.158 154.25 105.124C154.273 105.105 154.325 105.061 154.404 104.994C154.483 104.927 154.574 104.845 154.677 104.749C154.785 104.652 154.901 104.547 155.025 104.436C155.15 104.324 155.267 104.218 155.377 104.116C155.489 104.012 155.589 103.917 155.677 103.832C155.771 103.745 155.837 103.68 155.877 103.637C155.982 103.529 156.047 103.432 156.073 103.347C156.104 103.259 156.11 103.181 156.091 103.113C156.073 103.041 156.04 102.98 155.99 102.927C155.942 102.871 155.895 102.823 155.849 102.781C155.821 102.758 155.806 102.734 155.804 102.711C155.804 102.684 155.811 102.663 155.823 102.647C155.838 102.627 155.856 102.614 155.877 102.607C155.902 102.602 155.929 102.607 155.958 102.621L157.556 103.436C157.581 103.449 157.597 103.466 157.604 103.488C157.614 103.511 157.616 103.534 157.609 103.557C157.603 103.577 157.589 103.592 157.565 103.603C157.545 103.615 157.519 103.617 157.487 103.61C157.382 103.588 157.284 103.578 157.192 103.581C157.103 103.58 157.013 103.593 156.924 103.619C156.838 103.647 156.75 103.687 156.66 103.74C156.572 103.79 156.475 103.852 156.368 103.928C156.325 103.96 156.229 104.035 156.08 104.152C155.936 104.267 155.761 104.407 155.556 104.571C155.35 104.736 155.126 104.916 154.883 105.111C154.64 105.305 154.4 105.499 154.162 105.693C153.926 105.882 153.702 106.062 153.49 106.232C153.277 106.402 153.102 106.544 152.963 106.657L150.997 108.241C150.743 108.448 150.495 108.591 150.253 108.669C150.014 108.75 149.777 108.73 149.542 108.61C149.46 108.568 149.384 108.514 149.315 108.447C149.244 108.384 149.189 108.311 149.151 108.228C149.11 108.149 149.088 108.06 149.086 107.96C149.085 107.865 149.112 107.762 149.169 107.652C149.22 107.552 149.281 107.475 149.353 107.422C149.429 107.371 149.508 107.338 149.593 107.322C149.68 107.309 149.769 107.311 149.858 107.33C149.947 107.348 150.033 107.379 150.115 107.42C150.226 107.477 150.314 107.542 150.379 107.616C150.443 107.693 150.504 107.758 150.563 107.81C150.621 107.863 150.684 107.89 150.75 107.892C150.814 107.898 150.9 107.857 151.009 107.768Z" fill="white"/>
</svg>
