<svg width="247" height="205" viewBox="0 0 247 205" fill="none" xmlns="http://www.w3.org/2000/svg">
<g clip-path="url(#clip0_4475_40629)">
<path d="M65.6618 116.401C64.1239 116.401 62.8772 115.154 62.8772 113.616V83.7249C62.8772 82.1871 64.1239 80.9404 65.6618 80.9404C67.1996 80.9404 68.4463 82.1871 68.4463 83.7249V113.616C68.4463 115.154 67.1996 116.401 65.6618 116.401Z" fill="#FF952D"/>
<path d="M32.6757 150.843H2.78457C1.24674 150.843 0 149.596 0 148.058C0 146.52 1.24674 145.273 2.78457 145.273H32.6757C34.2135 145.273 35.4603 146.52 35.4603 148.058C35.4603 149.596 34.2135 150.843 32.6757 150.843Z" fill="#FF952D"/>
<path d="M41.0879 126.109C40.3751 126.109 39.6627 125.838 39.1188 125.294L17.9826 104.158C16.8951 103.07 16.8951 101.307 17.9826 100.22C19.0703 99.1324 20.8329 99.1321 21.9207 100.22L43.0569 121.356C44.1444 122.443 44.1444 124.206 43.0569 125.294C42.513 125.838 41.8006 126.109 41.0879 126.109Z" fill="#FF952D"/>
<path d="M87.8273 126.109C87.1146 126.109 86.4022 125.838 85.8583 125.294C84.7709 124.206 84.7709 122.443 85.8583 121.356L106.995 100.22C108.082 99.1323 109.845 99.1323 110.933 100.22C112.02 101.307 112.02 103.07 110.933 104.158L89.7964 125.294C89.2528 125.837 88.5398 126.109 87.8273 126.109Z" fill="#FF952D"/>
<path d="M88.292 143.568C88.292 131.07 78.1601 120.938 65.6619 120.938C53.1636 120.938 43.0317 131.07 43.0317 143.568C43.0317 150.299 45.9728 156.339 50.6362 160.484H80.6875C85.3509 156.339 88.292 150.299 88.292 143.568Z" fill="#FF952D"/>
<path d="M246.744 148.404C242.101 150.219 237.049 151.216 231.763 151.216C209.027 151.216 190.595 132.784 190.595 110.048C190.595 102.594 192.576 95.6032 196.04 89.5725C180.711 95.5641 169.853 110.478 169.853 127.929C169.853 140.837 175.796 152.356 185.093 159.904H236.945C240.875 156.714 244.209 152.818 246.744 148.404Z" fill="#7DB8FB"/>
<path d="M179.458 130.248C182.295 130.248 184.594 127.949 184.594 125.112C184.594 122.276 182.295 119.976 179.458 119.976C176.622 119.976 174.322 122.276 174.322 125.112C174.322 127.949 176.622 130.248 179.458 130.248Z" fill="#3790F4"/>
<path d="M208.058 150.747C208.058 154.897 211.422 158.262 215.573 158.262C219.723 158.262 223.088 154.897 223.088 150.747C223.088 150.595 223.082 150.444 223.073 150.294C218.537 149.319 214.279 147.6 210.433 145.266C208.972 146.637 208.058 148.585 208.058 150.747Z" fill="#3790F4"/>
<path d="M241.125 162.31H1.89508C0.886618 162.31 0.0690918 161.493 0.0690918 160.484C0.0690918 159.476 0.886618 158.658 1.89508 158.658H241.125C242.134 158.658 242.951 159.476 242.951 160.484C242.951 161.493 242.134 162.31 241.125 162.31Z" fill="#1773C6"/>
<path d="M73.071 204.194C73.071 204.194 74.8779 191.382 74.7136 176.434C74.5494 161.486 71.2641 146.21 71.5927 136.518C71.9212 126.827 76.9655 112.923 76.8012 95.3474C76.637 77.7714 72.4693 66.9443 81.2428 71.084C94.2483 77.2206 93.3258 90.7947 91.6325 108.923C90.573 120.265 140.747 53.238 157.994 40.2613C175.242 27.2847 180.826 29.5843 175.734 37.9617C170.642 46.339 154.38 63.0936 145.839 80.1768C145.839 80.1768 160.622 61.7795 172.449 53.7307C184.276 45.6819 179.844 58.0015 177.543 62.6008C177.543 62.6008 182.469 64.0792 180.334 70.4854C178.198 76.8916 159.144 96.9314 159.144 96.9314C159.144 96.9314 169.164 87.5686 174.256 90.8538C179.348 94.139 156.187 112.865 153.23 122.885C150.274 132.905 146.496 148.509 139.925 153.93C133.355 159.351 110.523 179.391 110.523 179.391L112.494 204.194H73.071Z" fill="#EFC6BD"/>
<path d="M85.1271 170.8C84.9815 170.8 84.8335 170.781 84.6862 170.742C83.7775 170.499 83.2377 169.566 83.4805 168.657C83.7554 167.628 90.4024 143.327 107.022 130.808C107.774 130.241 108.842 130.392 109.408 131.143C109.974 131.895 109.823 132.963 109.072 133.529C93.3805 145.348 86.8356 169.296 86.7714 169.536C86.5679 170.298 85.8794 170.8 85.1271 170.8Z" fill="#DBA59C"/>
<path d="M155.764 151.26H99.6995C94.816 151.26 90.8572 147.301 90.8572 142.418V8.84231C90.8572 3.95885 94.816 0 99.6995 0H155.764C160.647 0 164.606 3.95885 164.606 8.84231V142.418C164.606 147.301 160.647 151.26 155.764 151.26Z" fill="#0B467B"/>
<path d="M99.6995 148.447C96.375 148.447 93.6704 145.742 93.6704 142.418V8.84227C93.6704 5.51776 96.375 2.81311 99.6995 2.81311H155.764C159.088 2.81311 161.793 5.51776 161.793 8.84227V142.418C161.793 145.742 159.088 148.447 155.764 148.447L99.6995 148.447Z" fill="white"/>
<path d="M141.393 6.50152H114.07C112.776 6.50152 111.728 5.45298 111.728 4.15957V0.960815H143.735V4.15955C143.735 5.45298 142.687 6.50152 141.393 6.50152Z" fill="#0B467B"/>
<path d="M76.8012 95.3474C76.6369 77.7714 72.4392 67.0084 81.2428 71.084C94.9179 77.4149 92.5505 90.7947 90.8572 108.922L76.8012 95.3474Z" fill="#EFC6BD"/>
<g clip-path="url(#clip1_4475_40629)">
<path d="M127.587 100.343C141.271 100.343 152.365 89.2496 152.365 75.5655C152.365 61.8814 141.271 50.7882 127.587 50.7882C113.903 50.7882 102.81 61.8814 102.81 75.5655C102.81 89.2496 113.903 100.343 127.587 100.343Z" fill="#3790F4"/>
<path d="M142.887 60.2653C138.972 56.3497 133.562 53.9279 127.587 53.9279V75.5654L142.887 60.2653Z" fill="white"/>
<path d="M111.707 76.2017H105.202C104.85 76.2017 104.565 75.9168 104.565 75.5653C104.565 75.2139 104.85 74.929 105.202 74.929H111.707C112.059 74.929 112.344 75.2139 112.344 75.5653C112.344 75.9168 112.059 76.2017 111.707 76.2017Z" fill="white"/>
<path d="M149.393 76.2017H142.887C142.536 76.2017 142.251 75.9168 142.251 75.5653C142.251 75.2139 142.536 74.929 142.887 74.929H149.393C149.744 74.929 150.029 75.2139 150.029 75.5653C150.029 75.9168 149.744 76.2017 149.393 76.2017Z" fill="white"/>
<path d="M127.297 98.2973C126.946 98.2973 126.661 98.0124 126.661 97.6609V91.1556C126.661 90.8041 126.946 90.5192 127.297 90.5192C127.649 90.5192 127.934 90.8041 127.934 91.1556V97.6609C127.934 98.0123 127.649 98.2973 127.297 98.2973Z" fill="white"/>
</g>
</g>
<defs>
<clipPath id="clip0_4475_40629">
<rect width="246.744" height="204.387" fill="white"/>
</clipPath>
<clipPath id="clip1_4475_40629">
<rect width="49.5545" height="49.5545" fill="white" transform="translate(102.81 50.7882)"/>
</clipPath>
</defs>
</svg>
