<svg width="115" height="70" viewBox="0 0 115 70" fill="none" xmlns="http://www.w3.org/2000/svg">
<g clip-path="url(#clip0_5507_44555)">
<path d="M30.8559 31.0482C30.1413 31.0482 29.562 30.4701 29.562 29.7569V15.8953C29.562 15.1822 30.1413 14.604 30.8559 14.604C31.5705 14.604 32.1498 15.1822 32.1498 15.8953V29.7569C32.1498 30.4701 31.5705 31.0482 30.8559 31.0482Z" fill="#FF952D"/>
<path d="M15.5282 47.0202H1.63864C0.92405 47.0202 0.344727 46.4421 0.344727 45.7289C0.344727 45.0158 0.92405 44.4376 1.63864 44.4376H15.5282C16.2428 44.4376 16.8221 45.0158 16.8221 45.7289C16.8221 46.4421 16.2428 47.0202 15.5282 47.0202Z" fill="#FF952D"/>
<path d="M19.4371 35.5505C19.1059 35.5505 18.7749 35.4245 18.5222 35.1723L8.70076 25.3707C8.19545 24.8664 8.19545 24.0488 8.70076 23.5445C9.20619 23.0403 10.0252 23.0402 10.5307 23.5445L20.3521 33.3461C20.8574 33.8504 20.8574 34.668 20.3521 35.1723C20.0994 35.4245 19.7683 35.5505 19.4371 35.5505Z" fill="#FF952D"/>
<path d="M41.1557 35.5505C40.8246 35.5505 40.4935 35.4245 40.2408 35.1723C39.7355 34.668 39.7355 33.8504 40.2408 33.3461L50.0622 23.5445C50.5675 23.0403 51.3868 23.0403 51.8921 23.5445C52.3974 24.0488 52.3974 24.8664 51.8921 25.3707L42.0707 35.1723C41.8181 35.4244 41.4868 35.5505 41.1557 35.5505Z" fill="#FF952D"/>
<path d="M41.3715 43.6469C41.3715 37.851 36.6635 33.1525 30.8559 33.1525C25.0483 33.1525 20.3403 37.851 20.3403 43.6469C20.3403 46.768 21.707 49.5692 23.8739 51.4915H37.8379C40.0049 49.5692 41.3715 46.768 41.3715 43.6469Z" fill="#FF952D"/>
<path d="M115 45.8893C112.843 46.7309 110.495 47.1934 108.039 47.1934C97.4736 47.1934 88.9089 38.6459 88.9089 28.1022C88.9089 24.6456 89.8294 21.4037 91.4391 18.6071C84.3163 21.3856 79.2708 28.3016 79.2708 36.3942C79.2708 42.3804 82.0323 47.7222 86.3525 51.2225H110.446C112.273 49.7432 113.822 47.9364 115 45.8893Z" fill="#7DB8FB"/>
<path d="M83.734 37.4698C85.052 37.4698 86.1205 36.4035 86.1205 35.0881C86.1205 33.7727 85.052 32.7064 83.734 32.7064C82.4159 32.7064 81.3474 33.7727 81.3474 35.0881C81.3474 36.4035 82.4159 37.4698 83.734 37.4698Z" fill="#3790F4"/>
<path d="M97.0232 46.9757C97.0232 48.9004 98.5866 50.4607 100.515 50.4607C102.444 50.4607 104.007 48.9004 104.007 46.9757C104.007 46.9052 104.004 46.8353 104 46.7658C101.893 46.3138 99.9139 45.5166 98.1271 44.4343C97.448 45.0701 97.0232 45.9731 97.0232 46.9757Z" fill="#3790F4"/>
<path d="M112.389 52.3383H1.2252C0.75659 52.3383 0.376709 51.9591 0.376709 51.4915C0.376709 51.0238 0.75659 50.6447 1.2252 50.6447H112.389C112.857 50.6447 113.237 51.0238 113.237 51.4915C113.237 51.9591 112.857 52.3383 112.389 52.3383Z" fill="#1773C6"/>
<path d="M72.7236 70.1449H46.6722C44.403 70.1449 42.5635 68.309 42.5635 66.0444V4.10051C42.5635 1.83586 44.403 0 46.6722 0H72.7236C74.9929 0 76.8324 1.83586 76.8324 4.10051V66.0443C76.8324 68.309 74.9929 70.1449 72.7236 70.1449Z" fill="#0B467B"/>
<path d="M46.6721 68.8403C45.1273 68.8403 43.8706 67.5861 43.8706 66.0444V4.10051C43.8706 2.55881 45.1273 1.30457 46.6721 1.30457H72.7236C74.2684 1.30457 75.5251 2.55881 75.5251 4.10051V66.0444C75.5251 67.5861 74.2684 68.8403 72.7236 68.8403L46.6721 68.8403Z" fill="white"/>
<path d="M66.0462 3.01499H53.3497C52.7487 3.01499 52.2615 2.52874 52.2615 1.92894V0.445557H67.1345V1.92893C67.1345 2.52874 66.6472 3.01499 66.0462 3.01499Z" fill="#0B467B"/>
<g clip-path="url(#clip1_5507_44555)">
<path d="M59.631 46.5326C65.9896 46.5326 71.1443 41.3883 71.1443 35.0425C71.1443 28.6967 65.9896 23.5524 59.631 23.5524C53.2724 23.5524 48.1177 28.6967 48.1177 35.0425C48.1177 41.3883 53.2724 46.5326 59.631 46.5326Z" fill="#3790F4"/>
<path d="M66.7404 27.9472C64.9209 26.1314 62.4073 25.0083 59.6309 25.0083V35.0424L66.7404 27.9472Z" fill="white"/>
<path d="M52.2519 35.3375H49.2291C49.0657 35.3375 48.9333 35.2054 48.9333 35.0424C48.9333 34.8795 49.0657 34.7473 49.2291 34.7473H52.2519C52.4152 34.7473 52.5476 34.8795 52.5476 35.0424C52.5476 35.2054 52.4152 35.3375 52.2519 35.3375Z" fill="white"/>
<path d="M69.7634 35.3375H66.7405C66.5772 35.3375 66.4448 35.2054 66.4448 35.0424C66.4448 34.8795 66.5772 34.7473 66.7405 34.7473H69.7634C69.9267 34.7473 70.0591 34.8795 70.0591 35.0424C70.0591 35.2054 69.9267 35.3375 69.7634 35.3375Z" fill="white"/>
<path d="M59.4962 45.5841C59.3328 45.5841 59.2004 45.4519 59.2004 45.2889V42.2722C59.2004 42.1092 59.3328 41.9771 59.4962 41.9771C59.6595 41.9771 59.7919 42.1092 59.7919 42.2722V45.2889C59.7919 45.4519 59.6595 45.5841 59.4962 45.5841Z" fill="white"/>
</g>
</g>
<defs>
<clipPath id="clip0_5507_44555">
<rect width="114.655" height="70" fill="white" transform="translate(0.344727)"/>
</clipPath>
<clipPath id="clip1_5507_44555">
<rect width="23.0266" height="22.9802" fill="white" transform="translate(48.1177 23.5524)"/>
</clipPath>
</defs>
</svg>
