<svg width="120" height="160" viewBox="0 0 120 160" fill="none" xmlns="http://www.w3.org/2000/svg">
<g clip-path="url(#clip0_4380_40265)">
<path d="M117.574 27.8328H2.42208C1.08694 27.8328 0 28.9197 0 30.2548V133.771C0 135.11 1.08694 136.193 2.42208 136.193H117.574C118.913 136.193 119.996 135.106 119.996 133.771V30.2548C120 28.9197 118.913 27.8328 117.574 27.8328Z" fill="#ADD0EA"/>
<path d="M117.347 159.241H2.65316C1.18964 159.241 0 158.056 0 156.588V138.85C0 137.387 1.18536 136.197 2.65316 136.197H117.347C118.81 136.197 120 137.383 120 138.85V156.588C120 158.052 118.81 159.241 117.347 159.241Z" fill="#91C8ED"/>
<path d="M117.775 27.8326H2.22523C0.997076 27.8326 0 26.8355 0 25.6073V6.32911C0 5.10096 0.997076 4.10388 2.22523 4.10388H117.775C119.003 4.10388 120 5.10096 120 6.32911V25.6073C120 26.8355 119.003 27.8326 117.775 27.8326Z" fill="#ADD0EA"/>
<path d="M120 0H0V4.10812H120V0Z" fill="#1773C6"/>
<path d="M20.0357 7.69849H7.48877V24.238H20.0357V7.69849Z" stroke="white" stroke-width="1.11717" stroke-miterlimit="10" stroke-linecap="round"/>
<path d="M18.8717 17.7507H8.64844V23.0956H18.8717V17.7507Z" fill="#3790F4"/>
<path d="M10.8223 12.8037C11.1367 12.8037 11.3915 12.5489 11.3915 12.2346C11.3915 11.9202 11.1367 11.6654 10.8223 11.6654C10.508 11.6654 10.2532 11.9202 10.2532 12.2346C10.2532 12.5489 10.508 12.8037 10.8223 12.8037Z" fill="#EF9D59"/>
<path d="M7.87378 16.8818H19.6504" stroke="#105A91" stroke-width="0.558584" stroke-miterlimit="10"/>
<path d="M10.095 9.32458L12.2945 11.5199" stroke="#EF9D59" stroke-width="1.11717" stroke-miterlimit="10" stroke-linecap="round"/>
<path d="M10.095 13.7451L12.2945 15.9404" stroke="#EF9D59" stroke-width="1.11717" stroke-miterlimit="10" stroke-linecap="round"/>
<path d="M16.3982 10.2961H13.9462C13.6081 10.2961 13.3342 10.0223 13.3342 9.6842C13.3342 9.34614 13.6081 9.07227 13.9462 9.07227H16.3982C16.7363 9.07227 17.0101 9.34614 17.0101 9.6842C17.0101 10.0223 16.7363 10.2961 16.3982 10.2961Z" fill="#EF9D59"/>
<path d="M13.7623 21.3108C14.2515 21.3108 14.6481 20.9142 14.6481 20.425C14.6481 19.9358 14.2515 19.5392 13.7623 19.5392C13.2731 19.5392 12.8765 19.9358 12.8765 20.425C12.8765 20.9142 13.2731 21.3108 13.7623 21.3108Z" fill="white"/>
<path d="M91.8121 7.69849H30.1304V24.238H91.8121V7.69849Z" stroke="white" stroke-width="1.11717" stroke-miterlimit="10" stroke-linecap="round"/>
<path d="M51.728 8.49878V23.4421" stroke="white" stroke-width="1.11717" stroke-miterlimit="10" stroke-linecap="round" stroke-linejoin="round"/>
<path d="M45.5402 10.0521H37.8418V13.5611H45.5402V10.0521Z" fill="#EF9D59"/>
<path d="M48.707 12.8037C49.2577 12.8037 49.7041 12.3573 49.7041 11.8066C49.7041 11.256 49.2577 10.8096 48.707 10.8096C48.1564 10.8096 47.71 11.256 47.71 11.8066C47.71 12.3573 48.1564 12.8037 48.707 12.8037Z" fill="#3790F4"/>
<path d="M34.1615 11.5499C34.4096 11.5499 34.6108 11.3487 34.6108 11.1006C34.6108 10.8524 34.4096 10.6512 34.1615 10.6512C33.9133 10.6512 33.7122 10.8524 33.7122 11.1006C33.7122 11.3487 33.9133 11.5499 34.1615 11.5499Z" stroke="white" stroke-width="0.558584" stroke-miterlimit="10" stroke-linecap="round" stroke-linejoin="round"/>
<path d="M35.745 13.1333C35.9931 13.1333 36.1943 12.9321 36.1943 12.6839C36.1943 12.4358 35.9931 12.2346 35.745 12.2346C35.4968 12.2346 35.2957 12.4358 35.2957 12.6839C35.2957 12.9321 35.4968 13.1333 35.745 13.1333Z" stroke="white" stroke-width="0.558584" stroke-miterlimit="10" stroke-linecap="round" stroke-linejoin="round"/>
<path d="M33.4983 13.3257L36.2798 10.5442" stroke="white" stroke-width="0.558584" stroke-miterlimit="10" stroke-linecap="round" stroke-linejoin="round"/>
<path d="M37.6064 15.0161C37.8073 15.0161 37.9702 14.8532 37.9702 14.6523C37.9702 14.4514 37.8073 14.2886 37.6064 14.2886C37.4055 14.2886 37.2427 14.4514 37.2427 14.6523C37.2427 14.8532 37.4055 15.0161 37.6064 15.0161Z" fill="#3790F4"/>
<path d="M40.1955 15.0161C40.3964 15.0161 40.5593 14.8532 40.5593 14.6523C40.5593 14.4514 40.3964 14.2886 40.1955 14.2886C39.9946 14.2886 39.8318 14.4514 39.8318 14.6523C39.8318 14.8532 39.9946 15.0161 40.1955 15.0161Z" fill="#3790F4"/>
<path d="M42.7844 15.0161C42.9853 15.0161 43.1481 14.8532 43.1481 14.6523C43.1481 14.4514 42.9853 14.2886 42.7844 14.2886C42.5835 14.2886 42.4207 14.4514 42.4207 14.6523C42.4207 14.8532 42.5835 15.0161 42.7844 15.0161Z" fill="#3790F4"/>
<path d="M45.3733 15.0161C45.5741 15.0161 45.737 14.8532 45.737 14.6523C45.737 14.4514 45.5741 14.2886 45.3733 14.2886C45.1724 14.2886 45.0095 14.4514 45.0095 14.6523C45.0095 14.8532 45.1724 15.0161 45.3733 15.0161Z" fill="#3790F4"/>
<path d="M37.3926 18.4569H34.3329C34.0847 18.4569 33.8835 18.2557 33.8835 18.0075V17.2587C33.8835 17.0105 34.0847 16.8093 34.3329 16.8093H37.3926C37.6408 16.8093 37.8419 17.0105 37.8419 17.2587V18.0075C37.8419 18.2557 37.6408 18.4569 37.3926 18.4569Z" fill="white"/>
<path d="M42.8015 18.4569H39.7418C39.4936 18.4569 39.2925 18.2557 39.2925 18.0075V17.2587C39.2925 17.0105 39.4936 16.8093 39.7418 16.8093H42.8015C43.0497 16.8093 43.2508 17.0105 43.2508 17.2587V18.0075C43.2508 18.2557 43.0497 18.4569 42.8015 18.4569Z" fill="white"/>
<path d="M37.3926 21.3665H34.3329C34.0847 21.3665 33.8835 21.1654 33.8835 20.9172V20.1683C33.8835 19.9201 34.0847 19.719 34.3329 19.719H37.3926C37.6408 19.719 37.8419 19.9201 37.8419 20.1683V20.9172C37.8419 21.1654 37.6408 21.3665 37.3926 21.3665Z" fill="#3790F4"/>
<path d="M42.8015 21.3665H39.7418C39.4936 21.3665 39.2925 21.1654 39.2925 20.9172V20.1683C39.2925 19.9201 39.4936 19.719 39.7418 19.719H42.8015C43.0497 19.719 43.2508 19.9201 43.2508 20.1683V20.9172C43.2508 21.1654 43.0497 21.3665 42.8015 21.3665Z" fill="white"/>
<path d="M48.0649 21.3665H45.0052C44.757 21.3665 44.5559 21.1654 44.5559 20.9172V20.1683C44.5559 19.9201 44.757 19.719 45.0052 19.719H48.0649C48.3131 19.719 48.5143 19.9201 48.5143 20.1683V20.9172C48.5143 21.1654 48.3131 21.3665 48.0649 21.3665Z" fill="white"/>
<path d="M60.9156 13.1761C61.8846 13.1761 62.6702 12.3906 62.6702 11.4216C62.6702 10.4526 61.8846 9.66711 60.9156 9.66711C59.9467 9.66711 59.1611 10.4526 59.1611 11.4216C59.1611 12.3906 59.9467 13.1761 60.9156 13.1761Z" fill="white"/>
<path d="M86.7412 21.4435H82.4875L86.3774 8.98218H87.1605C87.6013 8.98218 87.9608 9.34164 87.9608 9.78241V20.2282C87.9608 20.9 87.4173 21.4435 86.7412 21.4435Z" fill="#CC630D"/>
<path d="M73.3042 22.9542H84.3705" stroke="#CC630D" stroke-width="0.558584" stroke-miterlimit="10" stroke-linecap="round"/>
<path d="M2.65308 136.197H117.347" stroke="white" stroke-width="1.11717" stroke-miterlimit="10" stroke-linecap="round" stroke-linejoin="round"/>
<path d="M2.65308 27.8328H117.347" stroke="white" stroke-width="1.11717" stroke-miterlimit="10" stroke-linecap="round" stroke-linejoin="round"/>
<path d="M2.65308 4.10815H117.347" stroke="white" stroke-width="1.11717" stroke-miterlimit="10" stroke-linecap="round" stroke-linejoin="round"/>
<path d="M111.018 141.914H79.304V154.149H111.018V141.914Z" fill="#1773C6"/>
<path d="M81.5632 144.824C81.9886 144.824 82.3335 144.479 82.3335 144.054C82.3335 143.629 81.9886 143.284 81.5632 143.284C81.1378 143.284 80.793 143.629 80.793 144.054C80.793 144.479 81.1378 144.824 81.5632 144.824Z" fill="#105A91"/>
<path d="M81.5632 152.865C81.9886 152.865 82.3335 152.52 82.3335 152.095C82.3335 151.669 81.9886 151.324 81.5632 151.324C81.1378 151.324 80.793 151.669 80.793 152.095C80.793 152.52 81.1378 152.865 81.5632 152.865Z" fill="#105A91"/>
<path d="M108.57 144.824C108.995 144.824 109.34 144.479 109.34 144.054C109.34 143.629 108.995 143.284 108.57 143.284C108.145 143.284 107.8 143.629 107.8 144.054C107.8 144.479 108.145 144.824 108.57 144.824Z" fill="#105A91"/>
<path d="M108.57 152.865C108.995 152.865 109.34 152.52 109.34 152.095C109.34 151.669 108.995 151.324 108.57 151.324C108.145 151.324 107.8 151.669 107.8 152.095C107.8 152.52 108.145 152.865 108.57 152.865Z" fill="#105A91"/>
<path d="M82.4878 21.4435H72.5726C71.2418 21.4435 70.2447 20.2239 70.51 18.9187L72.226 10.4371C72.3972 9.58984 73.1418 8.98218 74.0062 8.98218H86.3819L84.131 20.1041C83.9684 20.8829 83.2837 21.4435 82.4878 21.4435Z" fill="#EF9D59"/>
<path d="M83.3221 18.0673H71.8579L73.591 9.85107H85.0553L83.3221 18.0673Z" fill="white"/>
<path d="M71.8579 19.5179H82.7444" stroke="#CC630D" stroke-width="0.558584" stroke-miterlimit="10" stroke-linecap="round"/>
<path d="M78.4951 14.3397C78.4993 14.5195 78.5036 14.6949 78.5079 14.8746C78.5122 15.0116 78.5592 15.0801 78.6833 15.1271C78.7005 15.1314 78.7176 15.14 78.7347 15.1442C78.7518 15.1528 78.7689 15.1614 78.7647 15.1828C78.7604 15.2042 78.7433 15.2084 78.7261 15.2127C78.709 15.2127 78.6919 15.2127 78.6748 15.2127C78.3795 15.2127 78.0842 15.2127 77.7847 15.2127C77.7633 15.2127 77.7462 15.2127 77.7248 15.2084C77.6905 15.1999 77.6863 15.1785 77.7119 15.1528C77.7162 15.1485 77.7248 15.1442 77.7333 15.1442C77.9302 15.0972 77.9601 14.9474 77.9516 14.7634C77.9345 14.4424 77.9345 14.1215 77.9259 13.8048C77.9216 13.6893 77.9216 13.685 77.8104 13.6593C77.7847 13.655 77.7547 13.6465 77.7291 13.6379C77.7119 13.6337 77.6948 13.6208 77.6948 13.5994C77.6948 13.578 77.7077 13.5652 77.7248 13.5609C77.7761 13.5438 77.8232 13.5309 77.8746 13.5138C78.0457 13.4539 78.2083 13.3726 78.3624 13.2742C78.4351 13.2271 78.4608 13.2442 78.4694 13.3384C78.4779 13.4282 78.4779 13.4282 78.5507 13.3769C78.6662 13.2999 78.7946 13.2571 78.9358 13.2614C79.0257 13.2614 79.1156 13.2528 79.2054 13.2742C79.4836 13.3341 79.6419 13.5352 79.6676 13.8305C79.6975 14.1728 79.689 14.5195 79.7061 14.8618C79.7147 15.0244 79.7575 15.0843 79.9072 15.14C79.9329 15.1485 79.9757 15.1485 79.9714 15.1913C79.9671 15.2341 79.9243 15.2213 79.8944 15.2213C79.5863 15.2213 79.2825 15.2213 78.9743 15.2213C78.9487 15.2213 78.9059 15.2341 78.8973 15.1913C78.893 15.1485 78.9358 15.1485 78.9615 15.14C79.0984 15.0929 79.1498 15.0116 79.1455 14.8618C79.137 14.5623 79.1327 14.2627 79.1198 13.9632C79.1156 13.8776 79.1027 13.7963 79.0813 13.715C79.03 13.5224 78.9102 13.4411 78.7133 13.4582C78.5721 13.471 78.4779 13.6037 78.4779 13.7877C78.4822 13.9674 78.4908 14.1514 78.4951 14.3397Z" fill="#3790F4"/>
<path d="M77.0102 14.0957C76.8519 14.0957 76.6978 14.0957 76.5395 14.0957C76.4838 14.0957 76.4539 14.1129 76.4582 14.1771C76.4753 14.3482 76.4924 14.5151 76.5694 14.6735C76.655 14.8361 76.7834 14.9174 76.9588 14.9302C77.1386 14.943 77.3055 14.9003 77.451 14.7933C77.4766 14.7762 77.5066 14.7462 77.5366 14.7762C77.5708 14.8104 77.5451 14.8446 77.528 14.8746C77.421 15.0586 77.2627 15.1784 77.0658 15.2383C76.8561 15.2982 76.6465 15.2939 76.4411 15.2126C76.2228 15.1271 76.0602 14.9687 75.9746 14.7419C75.8291 14.3568 75.8334 13.9759 76.0602 13.6336C76.2185 13.3897 76.4496 13.2698 76.7406 13.257C77.1685 13.2356 77.4638 13.5523 77.5494 13.9503C77.5751 14.0786 77.5622 14.1 77.4381 14.1C77.3012 14.0957 77.1557 14.0957 77.0102 14.0957ZM76.6807 13.9674C76.7663 13.9716 76.8476 13.9631 76.9332 13.9545C77.0188 13.946 77.053 13.9117 77.0444 13.8176C77.0359 13.7063 77.0059 13.5951 76.9417 13.5009C76.8347 13.3426 76.6636 13.3469 76.5737 13.5138C76.5095 13.6336 76.4924 13.7662 76.4753 13.9032C76.471 13.9503 76.4881 13.9716 76.5352 13.9716C76.578 13.9674 76.6293 13.9674 76.6807 13.9674Z" fill="#3790F4"/>
<path d="M82.081 13.2572C82.2479 13.2486 82.4191 13.3 82.5903 13.3684C82.6416 13.3898 82.6716 13.4241 82.6844 13.4797C82.6972 13.5695 82.7186 13.6551 82.7357 13.7407C82.74 13.7621 82.7443 13.7921 82.7186 13.8006C82.693 13.8135 82.6758 13.7921 82.663 13.7707C82.5731 13.6466 82.4619 13.5439 82.3335 13.4668C82.2222 13.4027 82.1024 13.347 81.9698 13.377C81.8842 13.3941 81.8243 13.4454 81.8114 13.5396C81.7986 13.638 81.8071 13.7322 81.897 13.8006C81.9997 13.8777 82.1152 13.9247 82.2308 13.9632C82.3934 14.0146 82.5432 14.0873 82.6758 14.2072C82.9369 14.4425 82.9626 15.0801 82.4704 15.2256C82.1495 15.3198 81.8328 15.2727 81.5204 15.1358C81.4691 15.1144 81.4477 15.0759 81.4391 15.0245C81.422 14.9261 81.4049 14.8277 81.3878 14.7292C81.3835 14.7036 81.3706 14.665 81.4006 14.6522C81.4348 14.6351 81.4477 14.6736 81.4648 14.695C81.5803 14.8576 81.7087 15.0074 81.8884 15.093C81.9441 15.1187 82.004 15.1358 82.0596 15.1443C82.1752 15.1614 82.2736 15.1144 82.3121 15.0288C82.3592 14.9218 82.3378 14.7891 82.2565 14.6993C82.1538 14.588 82.0254 14.5324 81.8927 14.481C81.7601 14.4297 81.6445 14.3569 81.5461 14.2457C81.2551 13.9076 81.4092 13.3641 81.82 13.27C81.9056 13.2572 81.9869 13.2614 82.081 13.2572Z" fill="#3790F4"/>
<path d="M80.1769 14.1387C80.1726 13.9333 80.164 13.7279 80.1597 13.5268C80.1597 13.4755 80.1512 13.4369 80.0913 13.4369C80.0656 13.4369 80.0228 13.4455 80.0185 13.4027C80.0143 13.3599 80.0399 13.3214 80.0784 13.3171C80.1512 13.3086 80.1555 13.2658 80.1512 13.2016C80.1469 13.0818 80.1469 12.9662 80.1384 12.8464C80.1341 12.7694 80.1512 12.7309 80.2282 12.7137C80.348 12.6881 80.4593 12.6367 80.5663 12.5768C80.6647 12.5212 80.6775 12.5254 80.6775 12.6495C80.6818 12.8378 80.6904 13.0218 80.6904 13.2101C80.6904 13.2872 80.7161 13.3128 80.7888 13.3086C80.8829 13.3043 80.9771 13.3086 81.0712 13.3086C81.1055 13.3086 81.1483 13.3 81.1525 13.3514C81.1568 13.4027 81.1226 13.4327 81.0755 13.4369C80.9899 13.4412 80.9043 13.4369 80.823 13.4369C80.6989 13.4369 80.6989 13.4369 80.7032 13.5653C80.7118 13.9419 80.7203 14.3142 80.7332 14.6908C80.7417 14.9176 80.8658 15.016 81.0712 14.9604C81.1098 14.9518 81.1525 14.9347 81.1911 14.9219C81.2039 14.9176 81.2125 14.9133 81.2253 14.9047C81.251 14.8962 81.2724 14.8919 81.2938 14.9176C81.3109 14.9433 81.298 14.9646 81.2895 14.9818C81.2296 15.0845 81.1483 15.1615 81.0456 15.2086C80.823 15.307 80.6005 15.3113 80.3951 15.1529C80.2582 15.0502 80.2068 14.8962 80.1983 14.725C80.1811 14.5324 80.1811 14.3356 80.1769 14.1387C80.1726 14.1387 80.1726 14.1387 80.1769 14.1387Z" fill="#3790F4"/>
<path d="M74.6223 14.1601C74.6137 14.327 74.648 14.481 74.725 14.6308C74.8534 14.8833 75.1016 14.9946 75.3626 14.9175C75.4867 14.879 75.598 14.8105 75.7007 14.7292C75.7263 14.7078 75.7563 14.6736 75.7905 14.7121C75.8205 14.7421 75.7948 14.7763 75.7777 14.8063C75.5937 15.1443 75.2342 15.3241 74.8619 15.2727C74.6651 15.247 74.4853 15.1871 74.3356 15.0459C74.1644 14.8833 74.0874 14.6736 74.0617 14.4425C74.0275 14.1301 74.0745 13.8349 74.2799 13.5952C74.4511 13.3941 74.6736 13.2828 74.9347 13.2657C75.0673 13.2572 75.2043 13.2572 75.3326 13.3085C75.4011 13.3342 75.461 13.3641 75.5209 13.4112C75.6108 13.484 75.6493 13.5995 75.6194 13.7065C75.5851 13.8177 75.5038 13.852 75.4054 13.8648C75.307 13.8734 75.2085 13.8092 75.1657 13.7065C75.1401 13.6466 75.123 13.5824 75.1016 13.5225C75.0459 13.3855 74.9261 13.3556 74.8191 13.4497C74.7335 13.5268 74.6907 13.6337 74.6651 13.745C74.6223 13.8734 74.6094 14.0146 74.6223 14.1601Z" fill="#3790F4"/>
<path d="M108.754 7.69849H95.3213V24.238H108.754V7.69849Z" fill="#F2B283"/>
<path d="M97.6707 10.4373H104.132" stroke="#CC630D" stroke-width="1.11717" stroke-miterlimit="10" stroke-linecap="round"/>
<path d="M97.6707 13.2574H104.132" stroke="#CC630D" stroke-width="1.11717" stroke-miterlimit="10" stroke-linecap="round"/>
<path d="M97.6707 14.6995H104.132" stroke="#CC630D" stroke-width="1.11717" stroke-miterlimit="10" stroke-linecap="round"/>
<path d="M97.6707 16.1415H104.132" stroke="#CC630D" stroke-width="1.11717" stroke-miterlimit="10" stroke-linecap="round"/>
<path d="M97.6707 20.545H104.132" stroke="#CC630D" stroke-width="1.11717" stroke-miterlimit="10" stroke-linecap="round"/>
<path d="M59.9999 125.182C81.2917 125.182 98.5521 107.922 98.5521 86.63C98.5521 65.3383 81.2917 48.0779 59.9999 48.0779C38.7082 48.0779 21.4478 65.3383 21.4478 86.63C21.4478 107.922 38.7082 125.182 59.9999 125.182Z" fill="#3790F4"/>
<path d="M59.9998 118.053C77.3541 118.053 91.4226 103.984 91.4226 86.63C91.4226 69.2756 77.3541 55.2072 59.9998 55.2072C42.6454 55.2072 28.5769 69.2756 28.5769 86.63C28.5769 103.984 42.6454 118.053 59.9998 118.053Z" fill="#1773C6"/>
<path d="M59.9998 107.389C71.4646 107.389 80.7587 98.0949 80.7587 86.6301C80.7587 75.1653 71.4646 65.8713 59.9998 65.8713C48.535 65.8713 39.241 75.1653 39.241 86.6301C39.241 98.0949 48.535 107.389 59.9998 107.389Z" fill="#0D63A3"/>
<path d="M88.3675 73.0991L36.6394 107.642C39.5579 110.885 43.1482 113.513 47.1836 115.319L90.4772 78.9702C89.968 76.929 89.2576 74.9606 88.3675 73.0991Z" fill="white"/>
<path d="M75.4952 59.2984L31.9192 72.5257C30.7295 74.8921 29.8266 77.4255 29.2617 80.0829L78.5678 61.2797C77.5878 60.5651 76.5608 59.9018 75.4952 59.2984Z" fill="white"/>
<path d="M34.3626 86.6301C34.3626 82.6675 35.2656 78.9189 36.8703 75.5725C37.2939 74.6909 36.9473 73.6297 36.0957 73.1504L33.3185 71.5841C32.3727 71.0535 31.1831 71.4344 30.7081 72.4101C28.6155 76.7065 27.4387 81.5292 27.4387 86.6301C27.4387 91.7311 28.6155 96.5538 30.7081 100.85C31.1831 101.826 32.3727 102.207 33.3185 101.676L36.0957 100.11C36.9473 99.6306 37.2939 98.5694 36.8703 97.6878C35.2656 94.3372 34.3626 90.5885 34.3626 86.6301Z" fill="#105A91"/>
</g>
<defs>
<clipPath id="clip0_4380_40265">
<rect width="120" height="159.241" fill="white"/>
</clipPath>
</defs>
</svg>
