<svg width="1052" height="758" viewBox="0 0 1052 758" fill="none" xmlns="http://www.w3.org/2000/svg">
<g clip-path="url(#clip0_1818_3675)">
<path d="M10.5908 496.27C10.5908 496.27 -20.5492 394.85 24.8208 321.94C70.1908 249.03 137.361 253.91 194.881 253.91C252.401 253.91 304.241 224.63 421.771 137.64C539.301 50.6503 758.951 -79.2197 869.271 66.6103C979.591 212.44 1076.62 317.16 991.351 496.26H10.5908V496.27Z" fill="#DCE3EF"/>
<path d="M785.35 110.19C790.39 110.42 795.35 110.54 800.22 110.54C835.28 110.54 865.74 104.53 889.34 92.96C888.93 92.43 888.52 91.89 888.11 91.36C825.11 122.21 729.17 107.18 658.97 82.17C623.49 69.52 587.92 59.11 559.07 51.39C558.18 51.84 557.29 52.3 556.41 52.75C585.59 60.52 621.98 71.11 658.3 84.05C701.08 99.29 745.01 108.33 785.35 110.19Z" fill="#FAFFFF"/>
<path d="M785.312 118.87C826.322 118.87 865.012 112.81 893.592 98.5103C893.182 97.9703 892.772 97.4303 892.352 96.8903C831.182 127.28 723.412 119.79 646.442 96.0503C602.762 82.5803 561.252 72.9803 530.402 66.7103C529.512 67.2103 528.622 67.7103 527.742 68.2103C558.752 74.4603 601.162 84.1803 645.852 97.9603C687.392 110.78 737.902 118.87 785.312 118.87Z" fill="#FAFFFF"/>
<path d="M483.231 115.4H452.851C441.881 122.98 431.481 130.46 421.781 137.64C304.251 224.63 252.421 253.91 194.891 253.91C137.361 253.91 70.2113 249.03 24.8313 321.94C19.4613 330.56 15.1813 339.58 11.7812 348.79H483.231V115.4Z" fill="#C4C9D3"/>
<path d="M306.391 328.81L305.441 328.5C305.461 328.44 307.551 321.92 307.551 316.73C307.551 313.5 307.901 305.55 311.151 301.33C313.781 297.93 317.241 294.35 317.281 294.32L318.001 295.02C317.971 295.06 314.541 298.59 311.951 301.95C308.891 305.92 308.551 313.61 308.551 316.73C308.541 322.09 306.481 328.54 306.391 328.81Z" fill="#FA00FF"/>
<path d="M1.42189 394.64C-1.95811 427.25 2.16189 457.74 5.90189 476.65H1000.07C1012.14 447.52 1019.26 420.37 1022.23 394.64H1.42189Z" fill="#F1F6FF"/>
<path d="M97.9317 425.13H57.7617L65.0617 434.25H105.232L97.9317 425.13Z" fill="#9BA0AA"/>
<path d="M175.561 425.13H135.391L142.691 434.25H182.861L175.561 425.13Z" fill="#9BA0AA"/>
<path d="M20.3005 425.13H0.230469C0.290469 428.23 0.410469 431.28 0.570469 434.26H27.6005L20.3005 425.13Z" fill="#9BA0AA"/>
<path d="M253.19 425.13H213.02L220.32 434.25H260.49L253.19 425.13Z" fill="#9BA0AA"/>
<path d="M330.822 425.13H290.652L297.952 434.25H338.122L330.822 425.13Z" fill="#9BA0AA"/>
<path d="M2.89969 383.34C2.29969 387.13 1.80969 390.9 1.42969 394.64H1022.24C1022.68 390.84 1023.02 387.07 1023.28 383.34H2.89969Z" fill="#D1D6E0"/>
<path d="M1023.2 348.71H11.8023C7.58234 360.1 4.72234 371.78 2.90234 383.33H1023.29C1024.1 371.52 1024.05 360 1023.2 348.71Z" fill="#DCE3EF"/>
<path d="M234.101 368.43H196.621L190.951 358.6H228.431L234.101 368.43ZM197.771 366.43H230.631L227.261 360.6H194.401L197.771 366.43Z" fill="#D1D6E0"/>
<path d="M188.281 359H150.801L145.111 349.17H182.591L188.281 359ZM151.951 357H184.811L181.441 351.17H148.581L151.951 357Z" fill="#D1D6E0"/>
<path d="M166.17 376.9H128.69L123 367.06H160.48L166.17 376.9ZM129.84 374.9H162.7L159.33 369.06H126.47L129.84 374.9Z" fill="#D1D6E0"/>
<path d="M57.5216 365.4H20.0416L14.3516 355.57H51.8316L57.5216 365.4ZM21.1916 363.4H54.0516L50.6816 357.57H17.8216L21.1916 363.4Z" fill="#D1D6E0"/>
<path d="M112.111 372.98H74.6314L68.9414 363.15H106.421L112.111 372.98ZM75.7814 370.98H108.641L105.271 365.15H72.4114L75.7814 370.98Z" fill="#D1D6E0"/>
<path d="M273.801 379.79H236.321L230.631 369.96H268.111L273.801 379.79ZM237.471 377.79H270.331L266.961 371.96H234.101L237.471 377.79Z" fill="#D1D6E0"/>
<path d="M289.381 363.63H251.901L246.211 353.8H283.691L289.381 363.63ZM253.051 361.63H285.911L282.541 355.8H249.681L253.051 361.63Z" fill="#D1D6E0"/>
<path d="M352.51 376.9H315.03L309.34 367.06H346.82L352.51 376.9ZM316.18 374.9H349.04L345.67 369.06H312.81L316.18 374.9Z" fill="#D1D6E0"/>
<path d="M173.912 253.84C121.632 253.85 64.7816 257.74 24.8316 321.94C22.5616 325.58 20.5016 329.3 18.6016 333.06H173.912V253.84Z" fill="#DCE3EF"/>
<path d="M53.841 333.06L175.421 254.52L170.551 249.58L32.541 333.06H53.841Z" fill="#DCE3EF"/>
<path d="M105.23 333.06L173.91 281.08V284.47L113.95 333.06H105.23Z" fill="#DCE3EF"/>
<path d="M260.49 348.71V240.25C237.06 249.8 216.5 253.87 195.18 253.91V348.72H260.49V348.71Z" fill="#DCE3EF"/>
<path d="M195.18 289.82L260.49 248.65L260.76 244.29L195.18 284.37V289.82Z" fill="#DCE3EF"/>
<path d="M483.23 348.78H923.35V137.73C917.84 130.36 912.21 122.92 906.49 115.4H483.23V348.78Z" fill="#D1D6E0"/>
<path d="M923.352 348.78H1023.2C1017.51 273.31 976.172 208.46 923.352 137.73V348.78Z" fill="#C4C9D3"/>
<path d="M847.141 137.68H573.891V294.85H847.141V137.68Z" fill="#C4C9D3"/>
<path d="M842.571 142.24H578.451V290.29H842.571V142.24Z" fill="#DCE3EF"/>
<path d="M842.571 165.32L695.971 290.29L671.361 290.85L842.571 152.48V165.32Z" fill="#DCE3EF"/>
<path d="M749.531 142.24L578.451 270.1V259.66L742.231 142.24H749.531Z" fill="#DCE3EF"/>
<path d="M148.82 250.6V69.19C148.82 58.28 157.66 49.4301 168.58 49.4301H280.63C291.54 49.4301 300.39 58.27 300.39 69.19V250.6C300.39 261.51 291.55 270.36 280.63 270.36H168.57C157.66 270.35 148.82 261.51 148.82 250.6Z" fill="#9BA0AA"/>
<path d="M227.352 255.46C236.932 255.46 244.692 247.7 244.692 238.12C244.692 228.54 236.932 220.78 227.352 220.78C217.772 220.78 210.012 228.54 210.012 238.12C210.012 247.7 217.782 255.46 227.352 255.46Z" fill="#FAFFFF"/>
<path d="M474.68 163.03C464.52 161.9 454.27 161.99 444.13 163.28C426.46 165.54 397.39 169.57 376.15 174.03C367.35 175.88 360.44 182.66 358.39 191.41C351.73 219.87 338.95 290.61 345.8 393.03H471.83L474.68 163.03Z" fill="#9BA0AA"/>
<path d="M919.111 361.52H1022.28L1031.61 410.93L1022.28 435.67H919.111V361.52Z" fill="#676C76"/>
<path d="M959.06 481.52C937.4 481.52 919.84 460.45 919.84 434.46C919.84 408.47 937.4 387.4 959.06 387.4H981.3V481.53H959.06V481.52Z" fill="#777C86"/>
<path d="M981.302 481.52C1002.96 481.52 1020.52 460.45 1020.52 434.46C1020.52 408.47 1002.96 387.4 981.302 387.4C959.642 387.4 942.082 408.47 942.082 434.46C942.082 460.45 959.642 481.52 981.302 481.52Z" fill="#9BA0AA"/>
<path d="M981.301 461.15C993.581 461.15 1003.54 449.2 1003.54 434.46C1003.54 419.72 993.591 407.77 981.301 407.77C969.021 407.77 959.061 419.72 959.061 434.46C959.061 449.2 969.021 461.15 981.301 461.15Z" fill="#9BA0AA"/>
<path d="M981.301 457.99C992.131 457.99 1000.91 447.45 1000.91 434.46C1000.91 421.47 992.131 410.93 981.301 410.93C970.471 410.93 961.691 421.47 961.691 434.46C961.691 447.45 970.471 457.99 981.301 457.99Z" fill="#D1D6E0"/>
<path d="M830.01 481.52C809.28 481.52 792.48 461.36 792.48 436.48C792.48 411.61 809.28 391.44 830.01 391.44H851.29V481.51H830.01V481.52Z" fill="#777C86"/>
<path d="M851.292 481.53C872.022 481.53 888.822 461.36 888.822 436.49C888.822 411.62 872.022 391.45 851.292 391.45C830.562 391.45 813.762 411.62 813.762 436.49C813.762 461.36 830.572 481.53 851.292 481.53Z" fill="#9BA0AA"/>
<path d="M851.292 462.03C863.044 462.03 872.572 450.595 872.572 436.49C872.572 422.384 863.044 410.95 851.292 410.95C839.539 410.95 830.012 422.384 830.012 436.49C830.012 450.595 839.539 462.03 851.292 462.03Z" fill="#9BA0AA"/>
<path d="M851.291 459.01C861.652 459.01 870.051 448.928 870.051 436.49C870.051 424.053 861.652 413.97 851.291 413.97C840.93 413.97 832.531 424.053 832.531 436.49C832.531 448.928 840.93 459.01 851.291 459.01Z" fill="#D1D6E0"/>
<path d="M460.309 316.994L459.311 317.043L460.041 331.755L461.04 331.706L460.309 316.994Z" fill="#FA00FF"/>
<path d="M1022.28 435.67L1042.83 427.29C1048.89 424.82 1052.52 418.57 1051.68 412.08L1043.42 348.95C1041.71 335.84 1033.67 324.41 1021.91 318.36L989.33 301.61C986.18 299.99 983.39 297.73 981.15 294.99L917.21 216.8C902.71 199.07 881.5 188.15 858.64 186.65L479.82 163.03V445.01L931.53 437.98C931.53 437.98 943.97 371.17 989.82 372.39C1035.67 373.61 1022.28 435.67 1022.28 435.67Z" fill="#9BA0AA"/>
<path d="M1033.84 342.85C1033.78 342.85 1033.71 342.84 1033.65 342.83C1033.11 342.72 1032.75 342.2 1032.86 341.66C1032.9 341.46 1033.71 336.6 1027.81 332.64C1022.71 329.21 1006.07 322.33 999.162 319.54C996.992 318.66 995.182 317.15 993.932 315.18L983.502 298.78C983.202 298.31 983.342 297.7 983.812 297.4C984.282 297.1 984.892 297.24 985.192 297.71L995.622 314.11C996.652 315.73 998.132 316.96 999.912 317.69C1006.88 320.51 1023.67 327.46 1028.93 330.99C1035.98 335.72 1034.88 341.8 1034.83 342.05C1034.73 342.52 1034.31 342.85 1033.84 342.85Z" fill="#C4C9D3"/>
<path d="M975.311 310.16C964.971 293.44 923.231 226.86 908.881 218.01C908.881 218.01 903.711 215.17 896.511 213.45C889.311 211.73 850.391 203.07 850.951 211.81C851.501 220.39 857.871 260.21 860.531 275.35C861.201 279.19 863.791 282.41 867.391 283.89L907.371 300.35C915.271 303.6 923.501 305.98 931.911 307.44C944.771 309.67 963.951 312.86 973.071 313.76C975.021 313.94 976.341 311.82 975.311 310.16Z" fill="#C4C9D3"/>
<path d="M927.141 431.59H853.331L852.121 354.91C852.091 353.64 851.941 352.39 851.661 351.19L849.481 341.85C848.611 338.11 848.061 334.31 847.841 330.56L839.861 197.15L896.441 205.85C904.081 207.02 910.901 211.02 915.661 217.11L963.751 278.71V279.05C963.751 279.13 963.811 287.36 965.331 292.42C966.901 297.65 963.221 310.65 962.721 312.38C963.351 322.95 961.291 368.26 961.201 370.19L961.181 370.6L960.871 370.88C933.261 396.08 928.181 430.39 928.141 430.73L928.021 431.59H927.141ZM855.301 429.59H926.301C927.281 424.06 933.781 393.1 959.221 369.68C959.431 364.99 961.341 321.93 960.711 312.32L960.701 312.14L960.751 311.97C961.911 308.07 964.641 297.07 963.411 292.98C961.971 288.19 961.781 281.06 961.751 279.39L914.081 218.33C909.641 212.64 903.271 208.91 896.141 207.81L842.001 199.49L849.841 330.43C850.051 334.07 850.591 337.75 851.441 341.38L853.621 350.72C853.931 352.05 854.111 353.45 854.141 354.86L855.301 429.59Z" fill="#C4C9D3"/>
<path d="M880.481 323.69H859.251C856.971 323.69 855.131 321.84 855.131 319.57C855.131 317.29 856.981 315.45 859.251 315.45H880.481C882.761 315.45 884.601 317.3 884.601 319.57C884.601 321.85 882.761 323.69 880.481 323.69Z" fill="#C4C9D3"/>
<path d="M910.432 336.16H910.422L495.502 331.32C494.952 331.31 494.512 330.86 494.512 330.31C494.522 329.76 494.962 329.32 495.512 329.32H495.522L910.442 334.16C910.992 334.17 911.442 334.62 911.432 335.17C911.432 335.72 910.982 336.16 910.432 336.16Z" fill="#C4C9D3"/>
<path d="M353.371 319.57C353.371 319.57 359.891 216.79 362.051 198.73C362.051 198.73 359.701 186.21 369.251 183.85C378.801 181.49 426.671 170.97 444.121 180.49L450.411 324.49L353.371 319.57Z" fill="#C4C9D3"/>
<path d="M365.611 317.42C365.611 317.42 372.511 216.58 379.201 191.02C379.201 191.02 412.471 184.93 439.651 186.35L437.171 328.66L365.611 317.42Z" fill="#DCE3EF"/>
<path d="M808.472 302.87C808.452 302.87 808.432 302.87 808.412 302.87L484.152 301.71L500.812 187.83L814.582 206.08C818.862 206.33 822.792 208.23 825.642 211.43C828.492 214.64 829.922 218.77 829.662 223.06L825.822 286.54C825.262 295.71 817.652 302.87 808.472 302.87ZM486.462 299.71L808.422 300.87C808.442 300.87 808.462 300.87 808.472 300.87C816.592 300.87 823.332 294.54 823.812 286.43L827.652 222.95C827.882 219.19 826.622 215.58 824.132 212.77C821.642 209.96 818.202 208.3 814.452 208.08L502.512 189.93L486.462 299.71Z" fill="#C4C9D3"/>
<path d="M916.941 301.88C913.931 300.92 910.951 299.84 908.071 298.65L868.091 282.19C865.051 280.94 862.901 278.26 862.331 275.02C859.761 260.36 853.321 220.22 852.781 211.68C852.771 211.46 852.811 211.34 852.951 211.19C853.261 210.86 854.721 209.78 860.491 209.78C870.681 209.78 887.661 213.19 896.091 215.21C900.591 216.29 904.291 217.83 906.271 218.74L916.941 301.88Z" fill="#DCE3EF"/>
<path d="M942.972 307.46C939.162 306.82 935.492 306.2 932.222 305.63C928.402 304.97 924.552 304.1 920.762 303.03L910.262 221.33C914.862 225.31 923.352 235.02 939.022 257.69L942.972 307.46Z" fill="#DCE3EF"/>
<path d="M442.782 180.76C442.752 177.23 444.852 174.04 448.102 172.67C457.062 168.91 476.122 161.44 496.862 156.6C496.862 156.6 501.832 155.25 502.642 156.6C503.452 157.95 499.192 166.37 499.192 166.37L505.572 343.47H444.382L442.782 180.76Z" fill="#777C86"/>
<path d="M506.612 344.47H443.392L441.782 180.77C441.752 176.82 444.072 173.28 447.712 171.75C457.142 167.79 476.042 160.43 496.632 155.63C498.722 155.06 502.452 154.35 503.492 156.09C504.212 157.28 503.102 160.82 500.192 166.59L506.612 344.47ZM445.372 342.47H504.532L498.182 166.15L498.302 165.92C500.062 162.44 501.822 158.16 501.752 157.09C501.282 156.84 499.062 157.04 497.122 157.56C476.642 162.34 457.862 169.65 448.492 173.59C445.602 174.81 443.762 177.62 443.782 180.75L445.372 342.47Z" fill="#9BA0AA"/>
<path d="M501.662 156.07L505.582 157.95C505.582 157.95 506.802 164.24 504.372 167.08L512.182 343.47H505.582L497.922 162.23L501.662 156.07Z" fill="#9BA0AA"/>
<path d="M513.232 344.47H504.632L496.922 161.97L501.292 154.78L506.482 157.27L506.582 157.76C506.632 158.03 507.782 164.14 505.402 167.41L513.232 344.47ZM506.542 342.47H511.142L503.362 166.73L503.622 166.43C505.202 164.58 504.982 160.55 504.692 158.63L502.052 157.37L498.942 162.5L506.542 342.47Z" fill="#C4C9D3"/>
<path d="M392.811 188.95L439.531 193.84L439.661 186.36C423.411 185.51 405.001 187.34 392.811 188.95Z" fill="#777C86"/>
<path d="M959.172 268.11V305.71C959.172 305.71 966.702 305.57 966.292 296.92C965.882 288.26 965.072 268.79 965.072 268.79L959.172 268.11Z" fill="#777C86"/>
<path d="M959.171 268.11H953.041V304.62L959.171 305.71V268.11Z" fill="#DCE3EF"/>
<path d="M1045.03 361.29L1043.42 348.94C1042.92 345.1 1041.86 341.42 1040.34 337.96C1039.97 337.81 1030.24 334.03 1020.52 334.03C1010.62 334.04 1034.62 358.63 1045.03 361.29Z" fill="#D1D6E0"/>
<path d="M1034.68 355.34L1037.19 353.41L1025.73 340.8H1020.36C1023.38 345.25 1029.09 351.02 1034.68 355.34Z" fill="#9BA0AA"/>
<path d="M695.781 400.85C695.781 402.51 695.491 404.04 694.921 405.44C694.341 406.85 693.531 408.07 692.481 409.11C691.431 410.15 690.171 410.97 688.691 411.56C687.211 412.16 685.571 412.47 683.781 412.5L674.791 412.65V389.76L683.781 389.61C685.581 389.58 687.221 389.84 688.691 390.39C690.171 390.94 691.431 391.72 692.481 392.71C693.531 393.71 694.341 394.9 694.921 396.29C695.491 397.69 695.781 399.21 695.781 400.85ZM690.291 400.94C690.291 399.81 690.141 398.79 689.851 397.88C689.551 396.97 689.131 396.21 688.571 395.58C688.011 394.96 687.331 394.48 686.531 394.15C685.731 393.82 684.811 393.67 683.781 393.68L680.191 393.74V408.46L683.781 408.4C684.811 408.38 685.721 408.2 686.531 407.84C687.341 407.49 688.011 406.99 688.571 406.34C689.131 405.7 689.551 404.92 689.851 404C690.141 403.11 690.291 402.08 690.291 400.94Z" fill="#FAFFFF"/>
<path d="M714.841 389.1V393.18L705.341 393.34V398.68L712.611 398.56V402.49L705.341 402.61V408.06L714.841 407.9V411.98L699.941 412.23V389.35L714.841 389.1Z" fill="#FAFFFF"/>
<path d="M724.841 407.57L733.411 407.43V411.67L719.471 411.9V389.01L724.841 388.92V407.57Z" fill="#FAFFFF"/>
<path d="M743.42 411.5L738.02 411.59V388.7L743.42 388.61V411.5Z" fill="#FAFFFF"/>
<path d="M747.391 388.55L751.711 388.48C752.181 388.47 752.561 388.57 752.851 388.78C753.151 388.98 753.361 389.26 753.491 389.6L757.971 401.78C758.171 402.31 758.371 402.89 758.581 403.51C758.791 404.14 758.981 404.79 759.161 405.48C759.311 404.79 759.481 404.12 759.681 403.49C759.881 402.86 760.071 402.27 760.261 401.74L764.711 389.41C764.821 389.12 765.021 388.85 765.331 388.61C765.641 388.37 766.011 388.24 766.461 388.24L770.811 388.17L761.541 411.21L756.681 411.29L747.391 388.55Z" fill="#FAFFFF"/>
<path d="M789.181 387.85V391.93L779.681 392.09V397.43L786.951 397.31V401.24L779.681 401.36V406.81L789.181 406.65V410.73L774.281 410.98V388.09L789.181 387.85Z" fill="#FAFFFF"/>
<path d="M799.19 402.11V410.58L793.82 410.67V387.78L801.35 387.65C803.02 387.62 804.45 387.77 805.63 388.09C806.81 388.41 807.77 388.87 808.52 389.46C809.27 390.05 809.81 390.76 810.15 391.58C810.49 392.4 810.66 393.3 810.66 394.27C810.66 395.01 810.56 395.72 810.36 396.38C810.16 397.04 809.86 397.66 809.46 398.23C809.06 398.8 808.58 399.3 808 399.75C807.42 400.2 806.76 400.57 806.01 400.87C806.37 401.04 806.71 401.26 807.02 401.51C807.33 401.77 807.6 402.08 807.84 402.46L812.76 410.34L807.9 410.42C807 410.44 806.35 410.11 805.96 409.45L802.12 402.87C801.95 402.58 801.75 402.37 801.52 402.25C801.29 402.13 800.97 402.07 800.56 402.08L799.19 402.11ZM799.19 398.45L801.35 398.41C802.08 398.4 802.7 398.3 803.22 398.1C803.73 397.91 804.15 397.65 804.48 397.32C804.81 396.99 805.05 396.61 805.19 396.17C805.34 395.73 805.41 395.26 805.41 394.76C805.41 393.76 805.08 392.97 804.42 392.42C803.76 391.86 802.73 391.6 801.35 391.62L799.19 391.66V398.45Z" fill="#FAFFFF"/>
<path d="M828.061 401.39V410.09L822.691 410.18V401.48L814.311 387.44L819.041 387.36C819.511 387.35 819.881 387.45 820.151 387.66C820.431 387.87 820.651 388.14 820.821 388.47L824.091 395.08C824.351 395.61 824.601 396.1 824.821 396.54C825.041 396.99 825.241 397.43 825.411 397.86C825.571 397.41 825.761 396.95 825.981 396.5C826.201 396.05 826.441 395.56 826.691 395.03L829.931 388.31C829.991 388.17 830.081 388.04 830.191 387.9C830.301 387.76 830.431 387.64 830.571 387.52C830.711 387.41 830.881 387.32 831.061 387.24C831.241 387.17 831.451 387.13 831.671 387.13L836.431 387.05L828.061 401.39Z" fill="#FAFFFF"/>
<path d="M215.461 86.9496H233.771C236.811 86.9496 239.471 88.9896 240.261 91.9196L253.701 141.87C255.461 148.4 250.541 154.81 243.781 154.81H205.461C198.701 154.81 193.781 148.4 195.541 141.87L208.981 91.9196C209.771 88.9896 212.431 86.9496 215.461 86.9496Z" fill="#FAFFFF"/>
<path d="M236.311 80.2701C236.311 82.0901 231.061 101.55 224.591 101.55C218.121 101.55 212.871 82.0901 212.871 80.2701C212.871 78.4501 218.121 76.9701 224.591 76.9701C231.071 76.9801 236.311 78.4501 236.311 80.2701Z" fill="#FAFFFF"/>
<path d="M233.042 113.61C232.672 113.61 232.312 113.4 232.142 113.04C230.052 108.65 230.652 103.1 231.342 96.6799C231.982 90.7599 228.422 87.8499 228.262 87.7299C227.832 87.3899 227.762 86.7599 228.102 86.3299C228.442 85.8999 229.062 85.8199 229.502 86.1599C229.692 86.3099 234.092 89.8299 233.332 96.8899C232.672 103.01 232.102 108.3 233.952 112.17C234.192 112.67 233.982 113.27 233.482 113.5C233.342 113.58 233.192 113.61 233.042 113.61Z" fill="#9BA0AA"/>
<path d="M238.121 111.27C237.831 111.27 237.551 111.15 237.351 110.91C234.491 107.47 234.801 103.34 235.101 99.3504C235.211 97.9504 235.311 96.5004 235.291 95.0804C235.191 90.3004 230.551 87.8704 230.511 87.8404C230.021 87.5904 229.821 86.9904 230.071 86.5004C230.321 86.0104 230.921 85.8104 231.411 86.0604C231.651 86.1804 237.171 89.0404 237.291 95.0404C237.321 96.5504 237.201 98.0504 237.101 99.5004C236.801 103.43 236.551 106.82 238.891 109.63C239.241 110.05 239.191 110.68 238.761 111.04C238.581 111.19 238.351 111.27 238.121 111.27Z" fill="#9BA0AA"/>
<path d="M189.181 164.65C189.951 164.65 190.551 164.82 190.991 165.17C191.431 165.52 191.651 166.04 191.651 166.73C191.651 167.15 191.531 167.51 191.291 167.8C191.051 168.09 190.711 168.3 190.271 168.43C190.851 168.55 191.301 168.78 191.631 169.14C191.961 169.49 192.121 169.96 192.121 170.54C192.121 171.33 191.861 171.94 191.341 172.35C190.821 172.76 190.141 172.97 189.301 172.97H187.041V164.66L189.181 164.65ZM188.061 168.01H189.191C189.621 168.01 189.971 167.9 190.241 167.68C190.511 167.46 190.651 167.16 190.651 166.78C190.651 166.4 190.511 166.1 190.241 165.87C189.971 165.64 189.621 165.53 189.191 165.53H188.061V168.01ZM188.061 172.07H189.311C189.861 172.07 190.301 171.93 190.631 171.64C190.961 171.36 191.131 170.96 191.131 170.46C191.131 169.96 190.961 169.57 190.631 169.3C190.301 169.02 189.861 168.88 189.311 168.88H188.061V172.07Z" fill="#FAFFFF"/>
<path d="M193.732 172.96H192.602L196.462 164.23L200.322 172.96H199.192L198.132 170.47H194.782L193.732 172.96ZM197.732 169.52L196.462 166.53L195.192 169.52H197.732Z" fill="#FAFFFF"/>
<path d="M204.822 168.74H208.682C208.682 169.95 208.322 170.98 207.612 171.81C206.902 172.64 205.932 173.07 204.712 173.07C203.502 173.07 202.492 172.67 201.692 171.86C200.892 171.05 200.492 170.03 200.492 168.8C200.492 167.57 200.892 166.54 201.692 165.74C202.492 164.94 203.492 164.53 204.712 164.53C206.282 164.53 207.442 165.12 208.162 166.3L207.452 166.95C206.892 166.01 205.972 165.54 204.712 165.54C203.822 165.54 203.072 165.84 202.472 166.45C201.872 167.06 201.572 167.84 201.572 168.8C201.572 169.76 201.872 170.54 202.472 171.15C203.072 171.76 203.822 172.06 204.712 172.06C205.492 172.06 206.132 171.84 206.632 171.39C207.132 170.94 207.452 170.37 207.592 169.69H204.822V168.74Z" fill="#FAFFFF"/>
<path d="M215.02 171.65C215.37 171.97 215.79 172.12 216.28 172.12C216.75 172.12 217.1 172 217.34 171.76C217.58 171.52 217.7 171.19 217.7 170.77C217.7 170.52 217.65 170.29 217.55 170.09C217.45 169.89 217.29 169.72 217.08 169.57C216.87 169.43 216.67 169.31 216.48 169.22C216.29 169.13 216.05 169.03 215.76 168.93C214.37 168.43 213.67 167.65 213.67 166.59C213.67 165.97 213.9 165.47 214.36 165.09C214.82 164.71 215.39 164.51 216.08 164.51C216.7 164.51 217.23 164.69 217.68 165.04C218.13 165.4 218.45 165.81 218.64 166.29L217.82 166.84C217.6 166.42 217.36 166.09 217.1 165.84C216.84 165.59 216.5 165.47 216.09 165.47C215.67 165.47 215.34 165.58 215.09 165.79C214.84 166 214.72 166.29 214.72 166.66C214.72 167.02 214.88 167.32 215.21 167.54C215.54 167.76 216.01 168 216.65 168.23C218.05 168.74 218.75 169.56 218.75 170.68C218.75 171.4 218.53 171.98 218.09 172.41C217.65 172.84 217.03 173.06 216.22 173.06C215.56 173.06 214.96 172.85 214.44 172.44C213.92 172.03 213.52 171.47 213.25 170.77L214.1 170.26C214.37 170.88 214.67 171.34 215.02 171.65Z" fill="#FAFFFF"/>
<path d="M221.732 171.14C222.342 171.76 223.062 172.07 223.902 172.07C225.032 172.07 225.922 171.66 226.572 170.84V172.17C225.882 172.78 224.992 173.08 223.902 173.08C222.742 173.08 221.752 172.67 220.952 171.86C220.152 171.05 219.742 170.03 219.742 168.8C219.742 167.57 220.142 166.55 220.952 165.74C221.752 164.93 222.742 164.52 223.902 164.52C224.992 164.52 225.882 164.82 226.572 165.43V166.76C225.922 165.94 225.032 165.53 223.902 165.53C223.062 165.53 222.342 165.84 221.732 166.46C221.122 167.08 220.822 167.86 220.822 168.8C220.822 169.75 221.132 170.52 221.732 171.14Z" fill="#FAFFFF"/>
<path d="M228.421 172.96H227.291L231.151 164.23L235.011 172.96H233.881L232.821 170.47H229.471L228.421 172.96ZM232.421 169.52L231.151 166.53L229.881 169.52H232.421Z" fill="#FAFFFF"/>
<path d="M243.312 164.65V173.38L237.022 166.78V172.97H236.012V164.24L242.302 170.84V164.65H243.312Z" fill="#FAFFFF"/>
<path d="M252.511 164.65V173.38L246.221 166.78V172.97H245.211V164.24L251.501 170.84V164.65H252.511Z" fill="#FAFFFF"/>
<path d="M255.412 172.01H259.152V172.96H254.402V164.65H259.152V165.6H255.412V167.97H258.912V168.92H255.412V172.01Z" fill="#FAFFFF"/>
<path d="M260.93 172.96V164.65H263.42C264.64 164.65 265.64 165.03 266.41 165.8C267.19 166.57 267.57 167.57 267.57 168.8C267.57 170.03 267.18 171.04 266.41 171.8C265.63 172.57 264.64 172.95 263.42 172.95L260.93 172.96ZM263.42 171.95C264.36 171.95 265.12 171.67 265.7 171.1C266.28 170.53 266.57 169.77 266.57 168.81C266.57 167.85 266.28 167.09 265.7 166.52C265.12 165.95 264.36 165.67 263.42 165.67H261.94V171.96L263.42 171.95Z" fill="#FAFFFF"/>
<path d="M181.201 181.03V192.53H178.371V181.03H181.201Z" fill="#FAFFFF"/>
<path d="M183.631 192.53V181.03H187.741C189.621 181.03 191.131 181.55 192.241 182.58C193.361 183.62 193.921 185.02 193.921 186.78C193.921 188.54 193.361 189.94 192.241 190.98C191.121 192.02 189.621 192.53 187.741 192.53H183.631ZM187.641 190.07C188.631 190.07 189.441 189.81 190.071 189.29C190.711 188.77 191.021 187.93 191.021 186.78C191.021 185.63 190.701 184.79 190.071 184.27C189.431 183.75 188.621 183.49 187.641 183.49H186.491V190.06L187.641 190.07Z" fill="#FAFFFF"/>
<path d="M195.991 184.2C196.281 183.9 196.651 183.76 197.101 183.76C197.551 183.76 197.921 183.91 198.221 184.2C198.521 184.49 198.661 184.85 198.661 185.27C198.661 185.69 198.511 186.04 198.221 186.34C197.921 186.64 197.551 186.78 197.101 186.78C196.651 186.78 196.281 186.63 195.991 186.34C195.701 186.04 195.551 185.69 195.551 185.27C195.551 184.85 195.701 184.5 195.991 184.2ZM195.991 190.35C196.281 190.05 196.651 189.91 197.101 189.91C197.551 189.91 197.921 190.06 198.221 190.35C198.521 190.64 198.661 191 198.661 191.42C198.661 191.84 198.511 192.19 198.221 192.49C197.931 192.79 197.551 192.93 197.101 192.93C196.651 192.93 196.281 192.78 195.991 192.49C195.701 192.19 195.551 191.84 195.551 191.42C195.561 191 195.701 190.64 195.991 190.35Z" fill="#FAFFFF"/>
<path d="M205.791 181.93L211.311 180.81V192.53H208.651V183.66L205.791 184.35V181.93Z" fill="#FAFFFF"/>
<path d="M218.502 187.23C219.032 186.66 219.402 186.19 219.632 185.83C219.862 185.47 219.972 185.07 219.972 184.65C219.972 184.26 219.842 183.92 219.582 183.63C219.322 183.35 218.952 183.2 218.452 183.2C217.912 183.2 217.482 183.39 217.142 183.78C216.812 184.17 216.642 184.67 216.642 185.28H213.912C213.912 184 214.322 182.93 215.132 182.08C215.952 181.23 217.072 180.8 218.512 180.8C219.862 180.8 220.922 181.17 221.692 181.92C222.462 182.67 222.852 183.53 222.852 184.52C222.852 185.62 222.292 186.65 221.172 187.61L218.512 189.99H223.112V192.54H213.352L218.502 187.23Z" fill="#FAFFFF"/>
<path d="M225.821 191.65C225.011 190.88 224.611 189.96 224.611 188.89H227.351C227.351 189.43 227.521 189.84 227.871 190.13C228.221 190.42 228.641 190.57 229.141 190.57C229.631 190.57 230.031 190.45 230.331 190.2C230.631 189.95 230.781 189.59 230.781 189.12C230.781 188.63 230.571 188.24 230.161 187.95C229.751 187.66 229.141 187.51 228.331 187.51V185.72C228.951 185.72 229.461 185.57 229.861 185.28C230.261 184.99 230.451 184.62 230.451 184.2C230.451 183.85 230.341 183.57 230.121 183.36C229.901 183.15 229.581 183.05 229.151 183.05C228.721 183.05 228.371 183.18 228.081 183.44C227.801 183.7 227.651 184.02 227.651 184.42H225.091C225.091 183.38 225.461 182.52 226.211 181.85C226.961 181.18 227.941 180.84 229.151 180.84C230.411 180.84 231.401 181.14 232.121 181.74C232.841 182.34 233.201 183.1 233.201 184.02C233.201 185.17 232.551 186 231.241 186.52C232.761 187.04 233.521 187.99 233.521 189.4C233.521 190.42 233.121 191.24 232.311 191.87C231.511 192.5 230.411 192.82 229.021 192.82C227.701 192.8 226.621 192.41 225.821 191.65Z" fill="#FAFFFF"/>
<path d="M243.002 192.53H240.112V190.49H234.262L240.932 181.02H243.002V188.12H244.812V190.49H243.002V192.53ZM240.422 185.07L237.922 188.49H240.422V185.07Z" fill="#FAFFFF"/>
<path d="M255.031 190.61C254.761 191.13 254.391 191.53 253.941 191.83C253.491 192.13 252.991 192.36 252.461 192.51C251.931 192.66 251.371 192.74 250.791 192.74C249.051 192.74 247.511 192.24 246.191 191.24L247.271 188.96C247.721 189.34 248.211 189.64 248.741 189.86C249.271 190.08 249.761 190.19 250.191 190.19C251.661 190.19 252.391 189.64 252.391 188.55C252.391 188.02 252.181 187.62 251.751 187.35C251.321 187.08 250.801 186.94 250.191 186.94C248.971 186.94 247.891 187.18 246.941 187.66L248.551 181.02H255.211V183.44H250.591L249.901 185.51C250.461 185.22 251.141 185.08 251.941 185.08C252.891 185.08 253.711 185.42 254.401 186.1C255.091 186.78 255.441 187.69 255.441 188.84C255.441 189.51 255.301 190.1 255.031 190.61Z" fill="#FAFFFF"/>
<path d="M265.1 181.08L261.68 184.89C261.94 184.79 262.29 184.74 262.73 184.74C263.65 184.74 264.47 185.09 265.19 185.78C265.91 186.48 266.27 187.38 266.27 188.48C266.27 189.84 265.83 190.9 264.94 191.65C264.05 192.41 262.94 192.78 261.59 192.78C260.24 192.78 259.13 192.4 258.24 191.65C257.35 190.89 256.91 189.84 256.91 188.48C256.91 187.45 257.36 186.39 258.26 185.29L261.56 181.07L265.1 181.08ZM260.22 189.9C260.58 190.26 261.04 190.43 261.6 190.43C262.16 190.43 262.62 190.25 262.98 189.9C263.34 189.55 263.52 189.08 263.52 188.5C263.52 187.92 263.34 187.45 262.98 187.09C262.62 186.73 262.16 186.55 261.6 186.55C261.04 186.55 260.58 186.73 260.22 187.09C259.86 187.45 259.68 187.92 259.68 188.5C259.68 189.07 259.86 189.54 260.22 189.9Z" fill="#FAFFFF"/>
<path d="M267.582 181.03H276.962L271.412 192.53H268.402L272.892 183.62H267.582V181.03Z" fill="#FAFFFF"/>
<path d="M225.291 246.32C224.781 246.32 224.271 246.12 223.881 245.73L217.151 239C216.371 238.22 216.371 236.95 217.151 236.17C217.931 235.39 219.201 235.39 219.981 236.17L225.301 241.49L235.961 230.84C236.741 230.06 238.011 230.06 238.791 230.84C239.571 231.62 239.571 232.89 238.791 233.67L226.721 245.73C226.321 246.12 225.811 246.32 225.291 246.32Z" fill="#DCE3EF"/>
<path d="M224.85 140.53C224.87 141.18 224.88 141.84 224.9 142.49C224.91 142.99 225.1 143.25 225.55 143.42C225.61 143.44 225.67 143.46 225.73 143.49C225.79 143.51 225.85 143.55 225.84 143.63C225.83 143.72 225.77 143.73 225.7 143.73C225.64 143.74 225.57 143.74 225.51 143.74C224.42 143.74 223.34 143.74 222.25 143.74C222.18 143.74 222.1 143.75 222.03 143.73C221.9 143.7 221.89 143.62 221.98 143.52C222 143.5 222.03 143.49 222.05 143.48C222.77 143.3 222.88 142.76 222.85 142.08C222.79 140.91 222.78 139.73 222.75 138.56C222.74 138.13 222.73 138.12 222.32 138.03C222.22 138.01 222.12 137.98 222.03 137.95C221.97 137.93 221.91 137.89 221.91 137.81C221.91 137.73 221.96 137.69 222.02 137.67C222.2 137.61 222.38 137.55 222.56 137.49C223.19 137.28 223.79 136.98 224.35 136.61C224.61 136.44 224.71 136.49 224.74 136.84C224.77 137.17 224.76 137.17 225.04 136.99C225.47 136.71 225.94 136.55 226.46 136.56C226.79 136.57 227.11 136.53 227.44 136.6C228.46 136.82 229.04 137.55 229.13 138.65C229.24 139.91 229.22 141.17 229.27 142.43C229.3 143.02 229.46 143.25 230 143.45C230.09 143.48 230.26 143.47 230.23 143.64C230.21 143.79 230.06 143.74 229.95 143.74C228.83 143.74 227.7 143.74 226.58 143.74C226.48 143.74 226.33 143.78 226.3 143.63C226.28 143.48 226.44 143.48 226.53 143.44C227.03 143.26 227.23 142.98 227.21 142.41C227.18 141.31 227.16 140.22 227.12 139.12C227.11 138.81 227.06 138.51 226.98 138.21C226.79 137.5 226.35 137.2 225.63 137.27C225.12 137.32 224.76 137.8 224.77 138.47C224.81 139.16 224.84 139.85 224.85 140.53Z" fill="#C4C9D3"/>
<path d="M219.411 139.64C218.831 139.64 218.261 139.64 217.681 139.64C217.481 139.64 217.371 139.7 217.391 139.94C217.451 140.56 217.511 141.19 217.801 141.76C218.111 142.36 218.591 142.65 219.231 142.7C219.891 142.75 220.491 142.59 221.031 142.2C221.121 142.13 221.231 142.02 221.351 142.14C221.471 142.26 221.381 142.4 221.321 142.51C220.921 143.19 220.351 143.62 219.621 143.84C218.861 144.07 218.091 144.04 217.331 143.75C216.521 143.44 215.931 142.85 215.621 142.02C215.091 140.6 215.111 139.21 215.931 137.95C216.521 137.06 217.361 136.62 218.421 136.57C219.991 136.49 221.071 137.65 221.391 139.11C221.491 139.58 221.431 139.66 220.991 139.66C220.471 139.64 219.941 139.64 219.411 139.64ZM218.191 139.17C218.501 139.18 218.811 139.15 219.111 139.12C219.431 139.08 219.551 138.96 219.521 138.62C219.481 138.2 219.381 137.81 219.141 137.46C218.741 136.87 218.121 136.9 217.791 137.51C217.561 137.95 217.491 138.44 217.421 138.93C217.401 139.1 217.471 139.18 217.641 139.18C217.831 139.16 218.011 139.17 218.191 139.17Z" fill="#C4C9D3"/>
<path d="M238.001 136.57C238.611 136.53 239.251 136.72 239.871 136.97C240.061 137.05 240.171 137.17 240.211 137.38C240.261 137.7 240.331 138.02 240.401 138.34C240.421 138.43 240.441 138.52 240.341 138.57C240.241 138.61 240.191 138.53 240.141 138.46C239.811 138.01 239.411 137.63 238.931 137.35C238.511 137.11 238.081 136.92 237.601 137.02C237.281 137.09 237.071 137.27 237.021 137.61C236.971 137.97 237.011 138.32 237.331 138.57C237.701 138.86 238.131 139.02 238.561 139.16C239.151 139.36 239.711 139.62 240.191 140.05C241.151 140.91 241.241 143.26 239.441 143.78C238.261 144.12 237.101 143.96 235.961 143.46C235.781 143.38 235.691 143.24 235.661 143.04C235.601 142.68 235.531 142.32 235.471 141.96C235.451 141.86 235.411 141.73 235.521 141.68C235.641 141.62 235.691 141.75 235.751 141.84C236.171 142.44 236.651 142.98 237.311 143.3C237.511 143.4 237.731 143.46 237.941 143.49C238.371 143.55 238.731 143.38 238.871 143.06C239.051 142.67 238.971 142.19 238.671 141.85C238.301 141.44 237.821 141.24 237.331 141.05C236.841 140.86 236.421 140.6 236.061 140.19C234.991 138.96 235.551 136.96 237.071 136.61C237.361 136.56 237.651 136.57 238.001 136.57Z" fill="#C4C9D3"/>
<path d="M231.011 139.79C230.991 139.04 230.971 138.29 230.951 137.54C230.951 137.36 230.911 137.21 230.691 137.22C230.591 137.22 230.441 137.26 230.431 137.09C230.421 136.93 230.501 136.78 230.651 136.77C230.921 136.74 230.931 136.58 230.921 136.35C230.901 135.92 230.911 135.48 230.881 135.05C230.861 134.77 230.931 134.63 231.211 134.57C231.651 134.47 232.051 134.28 232.441 134.06C232.801 133.85 232.841 133.88 232.851 134.33C232.871 135.01 232.901 135.7 232.901 136.38C232.901 136.66 233.001 136.76 233.261 136.74C233.611 136.72 233.951 136.73 234.301 136.74C234.421 136.74 234.591 136.71 234.601 136.9C234.611 137.09 234.491 137.2 234.311 137.21C234.001 137.22 233.691 137.22 233.381 137.22C232.931 137.22 232.931 137.22 232.941 137.7C232.981 139.08 233.011 140.45 233.051 141.83C233.071 142.66 233.531 143.02 234.291 142.82C234.441 142.78 234.581 142.72 234.731 142.67C234.771 142.66 234.811 142.63 234.851 142.61C234.941 142.58 235.031 142.56 235.101 142.65C235.161 142.74 235.121 142.82 235.081 142.89C234.871 143.27 234.561 143.55 234.181 143.72C233.371 144.08 232.551 144.1 231.791 143.52C231.291 143.14 231.091 142.57 231.061 141.95C231.031 141.23 231.031 140.51 231.011 139.79Z" fill="#C4C9D3"/>
<path d="M210.652 139.88C210.632 140.49 210.742 141.06 211.022 141.61C211.502 142.54 212.412 142.95 213.352 142.65C213.812 142.51 214.212 142.26 214.582 141.95C214.682 141.87 214.782 141.75 214.912 141.88C215.022 141.99 214.922 142.11 214.872 142.22C214.192 143.46 212.872 144.11 211.512 143.93C210.792 143.83 210.132 143.62 209.582 143.09C208.962 142.5 208.672 141.73 208.582 140.88C208.462 139.73 208.632 138.65 209.382 137.77C210.012 137.03 210.822 136.62 211.782 136.56C212.272 136.53 212.762 136.53 213.242 136.72C213.492 136.81 213.712 136.93 213.922 137.1C214.252 137.36 214.402 137.79 214.292 138.18C214.172 138.59 213.862 138.72 213.502 138.75C213.142 138.79 212.772 138.55 212.622 138.17C212.532 137.95 212.472 137.71 212.382 137.49C212.182 136.99 211.742 136.88 211.342 137.23C211.022 137.51 210.872 137.9 210.772 138.31C210.662 138.82 210.612 139.34 210.652 139.88Z" fill="#C4C9D3"/>
<path d="M172.451 379.43C186.335 379.43 197.591 377.393 197.591 374.88C197.591 372.368 186.335 370.33 172.451 370.33C158.566 370.33 147.311 372.368 147.311 374.88C147.311 377.393 158.566 379.43 172.451 379.43Z" fill="#C4C9D3"/>
<path d="M75.4597 376.53C88.593 376.53 99.2397 374.493 99.2397 371.98C99.2397 369.467 88.593 367.43 75.4597 367.43C62.3264 367.43 51.6797 369.467 51.6797 371.98C51.6797 374.493 62.3264 376.53 75.4597 376.53Z" fill="#C4C9D3"/>
<path d="M93.4612 344.18C93.4612 344.18 89.5012 351.08 88.5912 353.92C87.6812 356.76 85.2412 362.24 85.2412 362.24L68.2012 353.21C68.2012 353.21 76.3112 353.62 78.9512 349.96C81.5912 346.31 83.4112 336.37 83.4112 336.37L93.4612 344.18Z" fill="#DCE3EF"/>
<path d="M85.8003 360.97C85.8003 360.97 86.7703 357.98 84.5303 357.17C82.3003 356.36 79.1003 359.41 73.9003 352.71C73.9003 352.71 61.5003 349.97 57.7503 352.3C57.7503 352.3 55.6203 354.25 55.3203 356.16C55.3203 356.16 71.0403 365.58 82.7103 370.45C82.7103 370.45 85.3503 368.83 85.5503 366.39C85.7503 363.95 85.8003 360.97 85.8003 360.97Z" fill="#9BA0AA"/>
<path d="M82.7103 370.45C82.7103 370.45 85.3503 368.83 85.5503 366.39C85.6603 365.03 85.7303 363.5 85.7603 362.41C80.7703 360.22 73.3003 362.29 69.5203 361.42C65.5703 360.51 56.2403 354.08 56.2303 354.08C55.8103 354.71 55.4303 355.43 55.3203 356.16C55.3303 356.16 71.0503 365.59 82.7103 370.45Z" fill="#FAFFFF"/>
<path d="M101.881 243.36C101.881 243.36 94.2712 275.41 91.2312 287.79C88.1912 300.17 85.2912 325.52 82.2812 338.91C82.2812 338.91 84.9412 343.78 93.2612 344.59C93.2612 344.59 103.611 324.09 104.821 313.04C106.031 301.99 104.211 295.09 113.951 281.5L105.231 246L101.881 243.36Z" fill="#FAFFFF"/>
<path d="M93.2605 345.59C93.2305 345.59 93.2005 345.59 93.1605 345.59C84.4105 344.74 81.5205 339.61 81.4005 339.39C81.2805 339.18 81.2505 338.93 81.3005 338.69C82.7305 332.33 84.1605 323.07 85.5505 314.12C87.0805 304.26 88.6605 294.06 90.2605 287.55C93.2605 275.31 100.83 243.45 100.91 243.13C100.99 242.8 101.23 242.53 101.55 242.42C101.87 242.31 102.23 242.37 102.5 242.58L105.85 245.22C106.02 245.36 106.15 245.55 106.2 245.77L114.92 281.27C114.99 281.55 114.93 281.85 114.76 282.09C107.13 292.73 106.76 298.98 106.29 306.9C106.17 308.88 106.05 310.93 105.81 313.16C104.59 324.26 94.5705 344.21 94.1505 345.05C93.9905 345.38 93.6405 345.59 93.2605 345.59ZM83.3505 338.72C84.0305 339.69 86.6105 342.73 92.6805 343.52C94.4005 340.02 102.77 322.61 103.83 312.93C104.07 310.75 104.19 308.73 104.3 306.77C104.76 298.95 105.16 292.18 112.87 281.29L104.34 246.57L102.49 245.11C100.94 251.63 94.8305 277.32 92.2005 288.02C90.6205 294.45 89.0505 304.6 87.5305 314.42C86.1705 323.22 84.7605 332.32 83.3505 338.72Z" fill="#D1D6E0"/>
<path d="M89.2412 261.06L87.5112 268.72L78.4512 266.15L82.2812 259.32L89.2412 261.06Z" fill="#DCE3EF"/>
<path d="M85.8395 263.53C87.8112 263.53 89.4095 261.932 89.4095 259.96C89.4095 257.988 87.8112 256.39 85.8395 256.39C83.8679 256.39 82.2695 257.988 82.2695 259.96C82.2695 261.932 83.8679 263.53 85.8395 263.53Z" fill="#DCE3EF"/>
<path d="M71.943 263.481L70.4258 272.889L91.4531 276.28L92.9703 266.872L71.943 263.481Z" fill="#9BA0AA"/>
<path d="M82.2822 259.32L77.5722 265.2C77.5722 265.2 75.0022 270.07 74.1222 271.15C73.2422 272.23 78.9922 271.22 80.7522 268.92C82.5122 266.62 86.8422 259.96 86.8422 259.96L82.2822 259.32Z" fill="#DCE3EF"/>
<path d="M79.0698 269.34C78.1998 269.17 77.3098 269.56 76.8598 270.32C76.0498 271.69 74.8898 273.88 74.8098 275.27C74.7098 276.87 80.9998 277.29 84.2598 277.4C85.3498 277.44 86.2898 276.66 86.4598 275.58L86.9798 272.22C87.0898 271.51 86.6198 270.83 85.9098 270.69L79.0698 269.34Z" fill="#DCE3EF"/>
<path d="M156.221 373.06C156.221 373.06 153.921 373.33 155.001 376.04C155.001 376.04 155.681 377.8 165.281 374.69C174.881 371.58 176.101 370.5 176.641 364.95C177.181 359.41 178.671 346.96 178.671 346.96C178.671 346.96 174.341 343.71 170.421 344.59L171.501 362.24L156.221 373.06Z" fill="#FAFFFF"/>
<path d="M154.051 340.73L160.951 352.23L161.901 362.24L172.451 356.02L170.421 344.59C170.421 344.59 167.171 342.9 165.961 342.56C164.751 342.22 162.851 336.27 162.851 336.27L154.051 340.73Z" fill="#DCE3EF"/>
<path d="M160.681 357.23L161.361 365.07L156.471 370.07C155.711 370.85 155.281 371.9 155.281 373V373.73C155.281 374.44 155.921 374.98 156.621 374.85C160.191 374.21 169.831 372.22 171.921 369.26C174.491 365.61 174.221 360.74 173.141 352.22C172.061 343.7 171.791 344.58 171.791 344.58L169.091 342.55C169.091 342.55 167.061 344.51 168.141 349.24C169.221 353.97 169.901 355.06 169.901 355.06C169.901 355.06 162.841 353.58 160.681 357.23Z" fill="#9BA0AA"/>
<path d="M101.879 243.36L115.119 289.49C116.459 294.17 118.849 298.47 122.119 302.08C130.659 311.51 147.849 331.15 153.709 342.57C153.709 342.57 160.199 341.76 162.839 336.28C162.839 336.28 156.959 325.33 151.479 313.96C145.999 302.59 133.629 296.11 131.399 288.4C129.169 280.69 125.519 257.56 121.969 242.25L101.879 243.36Z" fill="#FAFFFF"/>
<path d="M153.71 343.57C153.34 343.57 152.99 343.36 152.82 343.03C146.88 331.46 128.85 311.01 121.38 302.76C118.03 299.06 115.53 294.57 114.16 289.77L100.92 243.64C100.84 243.35 100.89 243.03 101.07 242.78C101.25 242.53 101.53 242.38 101.83 242.36L121.92 241.25C122.41 241.23 122.84 241.55 122.95 242.02C124.66 249.39 126.42 258.72 127.97 266.95C129.64 275.8 131.22 284.16 132.36 288.12C133.38 291.65 136.77 294.99 140.68 298.86C144.82 302.94 149.51 307.57 152.38 313.53C157.79 324.75 163.66 335.7 163.72 335.81C163.87 336.09 163.88 336.43 163.74 336.72C160.9 342.62 154.12 343.53 153.83 343.57C153.8 343.57 153.75 343.57 153.71 343.57ZM103.19 244.29L116.08 289.21C117.37 293.71 119.71 297.93 122.86 301.4C132.03 311.53 148.14 330.02 154.25 341.44C155.81 341.08 159.73 339.86 161.71 336.28C160.53 334.07 155.37 324.33 150.58 314.39C147.86 308.75 143.3 304.25 139.28 300.28C135.16 296.22 131.61 292.7 130.44 288.68C129.27 284.63 127.75 276.61 126 267.32C124.51 259.41 122.82 250.49 121.18 243.29L103.19 244.29Z" fill="#D1D6E0"/>
<path d="M105.81 186.02C105.81 186.02 99.3499 190.65 98.3399 197.04C97.3299 203.43 101.1 243.4 101.1 243.4C101.1 243.4 113.35 245.99 121.97 242.24L121.38 190.27L114.56 185.4L105.81 186.02Z" fill="#D1D6E0"/>
<path d="M116.35 204.68C120.812 204.68 124.43 201.062 124.43 196.6C124.43 192.137 120.812 188.52 116.35 188.52C111.887 188.52 108.27 192.137 108.27 196.6C108.27 201.062 111.887 204.68 116.35 204.68Z" fill="#D1D6E0"/>
<path d="M106.301 204.68C110.763 204.68 114.381 201.062 114.381 196.6C114.381 192.137 110.763 188.52 106.301 188.52C101.838 188.52 98.2207 192.137 98.2207 196.6C98.2207 201.062 101.838 204.68 106.301 204.68Z" fill="#D1D6E0"/>
<path d="M98.5612 194.25L82.2812 259.32L89.2412 261.06L102.531 223.75V194.81L98.5612 194.25Z" fill="#D1D6E0"/>
<path d="M102.531 177.7L105.811 186.02L103.101 192.67C102.701 193.66 103.901 194.53 104.711 193.83L114.561 185.41L111.721 178.8L107.531 170.6L102.531 177.7Z" fill="#DCE3EF"/>
<path d="M97.5207 162.97L95.1507 174.06C95.0307 174.61 95.4207 175.13 95.9807 175.18L97.1707 175.29L97.4007 180.11C97.4607 181.31 98.7707 182.03 99.8107 181.43L104.871 178.5C105.751 177.99 106.301 177.05 106.301 176.03V171.24C106.301 171.24 103.361 166.62 103.261 162.97H97.5207Z" fill="#DCE3EF"/>
<path d="M115.441 163.93C115.441 161.88 114.131 160.15 112.311 159.49C112.271 156.9 110.171 154.82 107.571 154.82H98.7107C96.0907 154.82 93.9707 156.94 93.9707 159.56C93.9707 162.18 96.0907 164.3 98.7107 164.3H102.751L105.221 172.32L111.711 178.81L115.151 165.53H115.141C115.331 165.02 115.441 164.49 115.441 163.93Z" fill="#444953"/>
<path d="M108.731 152.48H107.141C106.401 152.48 105.801 153.08 105.801 153.82V167.12H110.061V153.82C110.071 153.07 109.471 152.48 108.731 152.48Z" fill="#C4C9D3"/>
<path d="M107.94 174.38C110.442 174.38 112.47 172.352 112.47 169.85C112.47 167.348 110.442 165.32 107.94 165.32C105.438 165.32 103.41 167.348 103.41 169.85C103.41 172.352 105.438 174.38 107.94 174.38Z" fill="#777C86"/>
<path d="M107.941 172.42C109.36 172.42 110.511 171.269 110.511 169.85C110.511 168.43 109.36 167.28 107.941 167.28C106.522 167.28 105.371 168.43 105.371 169.85C105.371 171.269 106.522 172.42 107.941 172.42Z" fill="#C4C9D3"/>
<path d="M100.371 191.1L103.861 187.67L102.291 191.68L100.371 191.1Z" fill="#D1D6E0"/>
<path d="M115.562 255.69C117.534 255.69 119.132 254.092 119.132 252.12C119.132 250.149 117.534 248.55 115.562 248.55C113.591 248.55 111.992 250.149 111.992 252.12C111.992 254.092 113.591 255.69 115.562 255.69Z" fill="#DCE3EF"/>
<path d="M112.88 249.78L126.75 223.53L110.25 201.88L123.81 193.46L138.36 221.34C139.75 223.98 139.46 227.2 137.63 229.55L118.2 254.52L112.88 249.78Z" fill="#D1D6E0"/>
<path d="M98.5611 194.25L96.3711 202.98C96.5711 211.55 97.7111 225.86 98.5011 235.01L99.9811 230.85C98.9611 218.55 97.6811 201.07 98.3211 197.03L98.5611 194.25Z" fill="#9BA0AA"/>
<path d="M121.861 232.78L121.821 228.95L113.801 244.14C114.531 244.08 115.261 244 116.001 243.89L121.861 232.78Z" fill="#9BA0AA"/>
<path d="M121.682 216.89L114.052 206.89C113.752 206.5 113.202 206.41 112.802 206.69C112.372 206.99 112.282 207.58 112.602 207.99L121.712 219.94L121.682 216.89Z" fill="#9BA0AA"/>
<path d="M775.16 50.8301C777.66 50.8301 780.01 51.4401 782.08 52.5201C782.63 41.7901 791.5 33.2601 802.37 33.2601C813.59 33.2601 822.69 42.3601 822.69 53.5801C822.69 55.6501 822.38 57.6501 821.8 59.5301C823.26 58.8401 824.88 58.4401 826.6 58.4401C832.78 58.4401 837.8 63.4501 837.8 69.6401C837.8 75.8201 832.79 80.8401 826.6 80.8401H775.16C766.87 80.8401 760.15 74.1201 760.15 65.8301C760.16 57.5501 766.88 50.8301 775.16 50.8301Z" fill="#F2F3FF"/>
<path d="M10.5898 496.27C10.5898 496.27 140.93 488.81 144.18 520.46C147.43 552.12 -1.88016 575.45 45.1798 633.97C92.2398 692.49 324.83 629.2 399.63 643.81C474.43 658.42 487.84 657.6 476.68 702.23C465.51 746.86 522.04 767.33 639.03 752.23C756.02 737.13 878.55 715.22 889.91 690.87C901.27 666.52 871.25 656.79 847.71 643.81C824.17 630.83 823.38 614.68 882.61 595.16C941.84 575.64 1026.22 545.44 969.1 514.34C920.21 487.73 820.26 488.66 820.26 488.66L10.5898 496.27Z" fill="#DCE3EF"/>
<path d="M226.342 523.68H180.382L173.602 511.96H219.562L226.342 523.68ZM181.532 521.68H222.872L218.412 513.96H177.072L181.532 521.68Z" fill="#D1D6E0"/>
<path d="M286.861 555.98H240.911L234.131 544.26H280.081L286.861 555.98ZM242.061 553.98H283.391L278.931 546.26H237.601L242.061 553.98Z" fill="#D1D6E0"/>
<path d="M128.26 564.13H82.2995L75.5195 552.41H121.48L128.26 564.13ZM83.4495 562.13H124.79L120.33 554.41H78.9895L83.4495 562.13Z" fill="#D1D6E0"/>
<path d="M493.611 551.12H447.651L440.871 539.4H486.831L493.611 551.12ZM448.801 549.12H490.141L485.681 541.4H444.341L448.801 549.12Z" fill="#D1D6E0"/>
<path d="M452.4 578.9H406.44L399.66 567.18H445.62L452.4 578.9ZM407.59 576.9H448.93L444.47 569.18H403.13L407.59 576.9Z" fill="#D1D6E0"/>
<path d="M736.88 522.74H690.92L684.16 511.02H730.11L736.88 522.74ZM692.07 520.74H733.41L728.95 513.02H687.62L692.07 520.74Z" fill="#D1D6E0"/>
<path d="M604.451 601.03H558.491L551.711 589.31H597.671L604.451 601.03ZM559.641 599.03H600.981L596.521 591.31H555.181L559.641 599.03Z" fill="#D1D6E0"/>
<path d="M834.232 537.14H788.272L781.492 525.42H827.452L834.232 537.14ZM789.422 535.14H830.762L826.302 527.42H784.962L789.422 535.14Z" fill="#D1D6E0"/>
<path d="M923.58 515.98H877.62L870.84 504.26H916.8L923.58 515.98ZM878.77 513.98H920.11L915.65 506.26H874.31L878.77 513.98Z" fill="#D1D6E0"/>
<path d="M898.951 557.81H852.991L846.211 546.09H892.171L898.951 557.81ZM854.141 555.81H895.481L891.021 548.09H849.681L854.141 555.81Z" fill="#D1D6E0"/>
<path d="M523.381 639.839H477.421L470.641 628.12H516.601L523.381 639.839ZM478.571 637.839H519.911L515.451 630.12H474.111L478.571 637.839Z" fill="#D1D6E0"/>
<path d="M614.37 687.28H568.41L561.65 675.56H607.6L614.37 687.28ZM569.56 685.28H610.9L606.44 677.56H565.11L569.56 685.28Z" fill="#D1D6E0"/>
<path d="M706.56 659.15H660.6L653.82 647.43H699.78L706.56 659.15ZM661.75 657.15H703.09L698.63 649.43H657.29L661.75 657.15Z" fill="#D1D6E0"/>
<path d="M829.621 700.26H783.661L776.881 688.54H822.841L829.621 700.26ZM784.811 698.26H826.151L821.691 690.54H780.351L784.811 698.26Z" fill="#D1D6E0"/>
<path d="M353.01 603.83H307.05L300.27 592.11H346.23L353.01 603.83ZM308.2 601.83H349.54L345.08 594.11H303.74L308.2 601.83Z" fill="#D1D6E0"/>
<path d="M300.181 620.93H254.231L247.451 609.21H293.411L300.181 620.93ZM255.381 618.93H296.711L292.251 611.21H250.911L255.381 618.93Z" fill="#D1D6E0"/>
<path d="M205.041 595.41H159.081L152.301 583.69H198.261L205.041 595.41ZM160.231 593.41H201.571L197.111 585.69H155.771L160.231 593.41Z" fill="#D1D6E0"/>
<path d="M119.842 640.33H73.8816L67.1016 628.61H113.062L119.842 640.33ZM75.0316 638.33H116.372L111.912 630.61H70.5716L75.0316 638.33Z" fill="#D1D6E0"/>
<path d="M822.511 650.34C829.321 628.62 778.991 593.5 710.111 571.91C641.221 550.32 579.861 550.42 573.051 572.14C566.241 593.86 616.571 628.98 685.451 650.57C754.341 672.17 815.701 672.06 822.511 650.34Z" fill="#D1D6E0"/>
<path d="M340.321 563.07C384.841 555.86 418.891 537.41 416.381 521.86C413.861 506.31 375.731 499.54 331.211 506.75C286.691 513.96 252.631 532.41 255.151 547.96C257.661 563.51 295.801 570.27 340.321 563.07Z" fill="#D1D6E0"/>
<path d="M367.332 533.23H321.382L314.602 521.51H360.552L367.332 533.23ZM322.532 531.23H363.862L359.402 523.51H318.072L322.532 531.23Z" fill="#C4C9D3"/>
<path d="M5.90234 476.65C8.32234 488.87 10.5923 496.26 10.5923 496.26H991.342C994.502 489.62 997.412 483.09 1000.07 476.65H5.90234Z" fill="#D1D6E0"/>
<path d="M35.9297 476.65L45.9397 496.27H49.0097L39.0097 476.65H35.9297Z" fill="#FAFFFF"/>
<path d="M120.461 476.65L130.471 496.27H133.541L123.541 476.65H120.461Z" fill="#FAFFFF"/>
<path d="M204.992 476.65L215.002 496.27H218.072L208.072 476.65H204.992Z" fill="#FAFFFF"/>
<path d="M282.18 476.65L292.19 496.27H295.26L285.26 476.65H282.18Z" fill="#FAFFFF"/>
<path d="M796.701 476.65L806.711 496.27H809.781L799.781 476.65H796.701Z" fill="#FAFFFF"/>
<path d="M881.23 476.65L891.24 496.27H894.31L884.31 476.65H881.23Z" fill="#FAFFFF"/>
<path d="M965.762 476.65L975.772 496.27H978.842L968.842 476.65H965.762Z" fill="#FAFFFF"/>
<path d="M343.98 244.53V261.66L327.57 267.54L329.09 241.82L343.98 244.53Z" fill="#D1D6E0"/>
<path d="M312.542 161.36C312.542 161.36 308.502 167.9 303.682 178.59C298.862 189.29 294.772 199.69 289.422 205.89L333.292 206.31C333.292 206.31 346.702 186.93 349.672 169.72L345.912 164.14L312.542 161.36Z" fill="#C4C9D3"/>
<path d="M355.872 243.21H349.582V249.89H355.872V243.21Z" fill="#777C86"/>
<path d="M337.921 491.62C337.921 491.62 338.021 496.89 336.201 504.09C334.371 511.29 334.371 516.36 334.371 516.36L348.271 518.9L360.441 514.84C360.441 514.84 354.461 507.99 353.541 504.29C352.631 500.59 353.541 491.61 353.541 491.61L337.921 491.62Z" fill="#DCE3EF"/>
<path d="M334.741 507.65C334.741 507.65 332.311 515.22 331.631 521.84C331.631 521.84 332.241 524.21 346.301 524.14C360.371 524.07 371.951 527.86 388.201 525.63C388.201 525.63 389.951 519.34 383.581 517.25C377.201 515.15 362.061 510.56 357.461 508.05C352.861 505.55 349.131 511.19 347.401 514.81C345.671 518.42 341.701 507.72 334.741 507.65Z" fill="#777C86"/>
<path d="M291.461 499.73C291.461 499.73 295.111 516.77 294.201 522.75C293.291 528.73 292.901 533.77 292.901 533.77L298.661 540.6L316.511 539.18C316.511 539.18 307.481 531.94 306.571 525.31C305.661 518.69 307.281 499.72 307.281 499.72L291.461 499.73Z" fill="#DCE3EF"/>
<path d="M297.24 534.88C297.24 534.88 295.11 525.29 292.98 524.98C290.85 524.68 288.82 537.86 288.72 540.6C288.62 543.34 296.83 545.27 301.09 548.1C305.35 550.94 319.65 558.55 326.55 557.73C326.55 557.73 331.11 551.44 324.93 545.66C318.74 539.88 309.51 530.01 308.45 527.44C307.39 524.87 301.55 526.9 299.85 530.35C298.16 533.8 297.24 534.88 297.24 534.88Z" fill="#777C86"/>
<path d="M279.201 300.65C279.201 300.65 277.261 329.35 280.501 356.94C283.751 384.53 287.141 412.52 286.261 429.76C285.371 447 287.401 475.4 291.461 499.74C291.461 499.74 297.951 502.38 307.281 499.74C307.281 499.74 311.131 453.7 313.161 424.89C315.191 396.09 317.431 359.88 319.961 333.66C322.491 307.44 325.131 296.69 325.131 296.69L279.201 300.65Z" fill="#C4C9D3"/>
<path d="M329.6 296.69C329.6 296.69 359.02 363.63 366.52 381.47C374.03 399.32 355.97 458.55 353.54 491.61C353.54 491.61 347.86 493.64 337.92 491.61C337.92 491.61 338.73 468.28 338.73 454.69C338.73 441.1 348.66 409.66 348.56 401.34C348.46 393.02 320.67 364.02 311.75 341.1V296.68L329.6 296.69Z" fill="#C4C9D3"/>
<path d="M303.891 299.58C304.041 299.73 306.171 305.61 306.171 305.61C306.171 305.61 320.831 301.05 333.201 302.59L330.261 292.17L312.971 293.29L303.891 299.58Z" fill="#D1D6E0"/>
<path d="M279.201 300.65C279.201 300.65 273.811 314.54 273.811 329.55C273.811 329.55 275.531 332.59 278.781 334.52C278.781 334.52 293.991 336.35 298.461 333.71C298.461 333.71 300.491 308.96 304.751 305.52C309.011 302.07 311.851 301.01 311.851 301.01L309.311 295.18L279.201 300.65Z" fill="#9BA0AA"/>
<path d="M294.432 311C294.372 311 294.312 310.99 294.252 310.98C288.222 309.27 277.832 310.31 277.722 310.32C277.382 310.36 277.042 310.1 277.012 309.74C276.972 309.38 277.232 309.06 277.592 309.03C278.032 308.98 288.342 307.96 294.602 309.73C294.952 309.83 295.152 310.19 295.052 310.53C294.982 310.81 294.722 311 294.432 311Z" fill="#FAFFFF"/>
<path d="M293.541 310.35C293.541 310.35 291.001 314.34 291.971 315.4C292.931 316.47 293.541 314.37 293.541 310.35Z" fill="#FAFFFF"/>
<path d="M298.711 334.31C298.401 334.31 298.121 334.08 298.071 333.77C297.801 332.12 295.781 330.16 294.781 329.33C294.011 329.44 291.851 329.62 287.431 329.14C282.021 328.55 274.021 330.17 273.941 330.19C273.591 330.26 273.241 330.04 273.171 329.68C273.101 329.32 273.321 328.98 273.681 328.91C274.011 328.84 281.951 327.22 287.571 327.84C292.901 328.42 294.791 328.01 294.811 328C295.001 327.96 295.201 328 295.361 328.12C295.511 328.23 298.921 330.9 299.351 333.55C299.411 333.9 299.171 334.24 298.811 334.3C298.781 334.31 298.751 334.31 298.711 334.31Z" fill="#FAFFFF"/>
<path d="M343.871 252.12C343.871 252.12 325.851 266.07 325.141 272.36C324.431 278.65 330.621 290.41 338.331 284.02C346.041 277.63 350.281 259.709 350.281 259.709L343.871 252.12Z" fill="#D1D6E0"/>
<path d="M343.67 254.01C336.86 259.42 326.94 268.55 326.49 272.51L323.77 272.2C324.52 265.53 341.13 252.5 343.02 251.04L344.06 250.24L343.67 254.01Z" fill="#C4C9D3"/>
<path d="M333.59 200.66C333.59 200.66 341.91 203.69 342.96 208.86C344.01 214.03 347.35 247.04 349.58 251.2C349.58 251.2 340.21 255.35 333.11 255.06C326.01 254.78 333.59 200.66 333.59 200.66Z" fill="#FAFFFF"/>
<path d="M345.551 168.5C345.551 168.5 343.221 182.81 336.721 192.22C335.271 194.32 332.351 194.78 330.271 193.3L323.371 188.38C321.671 187.17 320.791 185.11 321.091 183.04L321.621 179.36L323.831 172.15C323.831 172.15 328.841 170.9 330.111 166.81L345.551 168.5Z" fill="#DCE3EF"/>
<path d="M322.182 180.49C324.071 180.49 325.602 178.036 325.602 175.01C325.602 171.983 324.071 169.53 322.182 169.53C320.293 169.53 318.762 171.983 318.762 175.01C318.762 178.036 320.293 180.49 322.182 180.49Z" fill="#DCE3EF"/>
<path d="M321.121 177.41L312.901 190.87C312.901 190.87 310.201 194.66 305.961 195.39L306.221 213.11L330.521 211.98L328.001 197.91L326.301 197.04L328.771 188.36L321.121 177.41Z" fill="#DCE3EF"/>
<path d="M331.402 159.3L314.172 163.51C314.172 163.51 331.952 171.35 351.502 173.66C371.062 175.97 355.802 169.03 347.632 163.18C339.452 157.32 331.402 159.3 331.402 159.3Z" fill="#777C86"/>
<path d="M307.802 194.86C307.802 194.86 312.132 204.55 320.882 204.09C329.632 203.63 328.012 197.9 328.012 197.9L333.592 200.66C333.592 200.66 334.972 213.76 337.202 220.18C339.432 226.6 345.132 243.21 334.902 253.46C334.902 253.46 328.912 265.64 330.772 278.95C332.642 292.26 330.972 294.63 330.972 294.63L315.192 295.13C315.192 295.13 296.812 307.61 277.672 302.08C277.672 302.08 287.802 268.11 287.802 251.16C287.802 234.21 282.912 206.29 286.612 202.92C290.292 199.56 307.802 194.86 307.802 194.86Z" fill="#FAFFFF"/>
<path d="M300.861 235.1L300.961 242.44L317.631 240.06L316.741 232.72L300.861 235.1Z" fill="#9BA0AA"/>
<path d="M339.41 266.5C339.41 266.5 344.54 264.71 347.18 264.04C349.82 263.37 361.97 262.7 361.97 262.7C361.97 262.7 362.93 265.32 360.63 266.34C358.33 267.35 350.22 268.57 349.13 270.06C348.04 271.55 339.41 266.5 339.41 266.5Z" fill="#DCE3EF"/>
<path d="M340.961 283.71L371.291 253.39L391.781 258.94L362.061 287.1L340.961 283.71Z" fill="#9BA0AA"/>
<path d="M267.121 251.62L263.051 269.29C260.891 278.67 269.061 287.18 278.521 285.41C287.501 283.73 297.171 281.94 302.151 281.07C312.971 279.18 332.041 275.929 336.911 277.279C341.781 278.629 352.331 284.72 356.791 284.99C361.251 285.26 369.641 285.589 372.071 286.369C374.501 287.149 372.861 284.57 371.091 283.91C371.091 283.91 373.731 283.86 375.101 284.11C376.471 284.36 375.351 281.27 372.871 280.41C372.871 280.41 376.011 280.41 376.931 280.51C377.851 280.61 376.881 277.919 373.381 276.959C373.381 276.959 375.211 276.5 376.021 276.61C376.831 276.71 376.021 274.43 371.911 273.01C367.801 271.59 354.671 271.59 350.661 269.82C346.651 268.05 343.661 265.76 340.571 266.27C337.481 266.78 338.241 267.49 328.601 267.54C318.961 267.59 285.471 266.339 285.471 266.339L286.501 260.95L267.121 251.62Z" fill="#DCE3EF"/>
<path d="M353.332 234.29L357.392 243.19L372.272 248.7L366.052 240.3L353.332 234.29Z" fill="#D1D6E0"/>
<path d="M353.331 234.29L342.381 254.92L343.871 259.71L351.711 244.56L353.941 248.01L357.391 243.19L353.331 234.29Z" fill="#9BA0AA"/>
<path d="M358.412 248.7C358.412 248.7 361.192 249.28 360.942 250.85C360.692 252.42 359.632 253.33 358.772 253.39C358.772 253.39 358.552 255.82 356.862 257.55C355.172 259.27 354.722 262.18 352.842 262.48C352.842 262.48 351.432 264.4 347.952 263.43C344.472 262.47 343.412 262.31 342.952 260.69C342.492 259.07 340.922 255.42 341.582 253.9C342.242 252.38 343.192 251.95 343.452 251.63C343.712 251.31 347.772 241.02 349.242 241.88C350.712 242.74 351.572 245.63 350.562 248.19C350.552 248.19 355.012 247.96 358.412 248.7Z" fill="#DCE3EF"/>
<path d="M346.88 244.39C346.88 244.39 344.21 243.47 343.15 245.39C342.09 247.31 343.61 252.73 343.15 254.81C342.69 256.89 347.37 254.61 346.99 251.21C346.59 247.81 346.1 245.68 346.88 244.39Z" fill="#DCE3EF"/>
<path d="M356.43 253.39C356.43 253.39 350.04 251.77 348.72 252.33C347.4 252.89 352.17 254.92 353.94 254.71C355.72 254.5 356.43 253.39 356.43 253.39Z" fill="#D1D6E0"/>
<path d="M312.21 162.83C319.62 165.54 341.35 172.81 349.68 168.13C349.68 168.13 356.98 157.64 353.02 152.91C349.05 148.18 320.76 140.51 313.13 152.68C311.86 154.71 310.95 157.29 310.39 159.21C309.94 160.71 310.75 162.29 312.21 162.83Z" fill="#C4C9D3"/>
<path d="M353.941 248.01L357.391 243.19L372.271 248.7L367.941 252.88L353.941 248.01Z" fill="#DCE3EF"/>
<path d="M356.852 247.09L358.072 245.39L368.912 249.4L367.482 250.79L356.852 247.09Z" fill="#9BA0AA"/>
<path d="M288.272 201.74C288.272 201.74 281.722 204.67 276.182 220.76C270.642 236.85 260.762 254.32 260.762 254.32C260.762 254.32 269.822 254.7 276.852 260.38C283.882 266.06 292.402 262.68 292.402 262.68C292.402 262.68 294.972 232.39 296.462 226.71C297.952 221.03 300.092 209.9 288.272 201.74Z" fill="#FAFFFF"/>
<path d="M292.411 262.68C292.411 262.68 289.971 263.65 286.631 263.68C286.491 264.58 286.341 265.49 286.191 266.41C286.191 266.41 286.191 266.42 286.201 266.42C290.181 266.47 293.111 265.36 293.431 265.23L295.011 264.6L295.151 262.91C295.741 255.93 297.301 238.98 298.481 230.97C298.591 230.2 298.041 229.49 297.271 229.41C296.541 229.34 295.891 229.84 295.781 230.56C294.291 240.53 292.411 262.68 292.411 262.68Z" fill="#DCE3EF"/>
<path d="M337.901 222.24C340.361 229.65 344.171 244.17 334.901 253.46C334.901 253.46 334.621 254.04 334.191 255.07C335.241 255.05 336.321 254.95 337.401 254.79C347.121 244.32 343.051 229.04 340.501 221.37C340.281 220.71 339.601 220.33 338.921 220.47C338.121 220.63 337.641 221.46 337.901 222.24Z" fill="#DCE3EF"/>
<path d="M319.971 333.66C319.361 339.95 318.771 346.83 318.201 354.03C318.981 355.36 319.801 356.7 320.631 358.03C321.301 349.44 321.991 341.25 322.701 333.92C323.481 325.88 324.261 319.3 324.981 314.05C325.081 313.3 324.561 312.61 323.811 312.51C323.061 312.4 322.361 312.93 322.261 313.68C321.541 318.96 320.751 325.57 319.971 333.66Z" fill="#777C86"/>
<path d="M626.07 523.99L630.59 538.04L636.37 543.82C638.06 545.51 638.06 548.26 636.37 549.96C634.68 551.65 631.93 551.65 630.23 549.96L624.45 544.18L618.15 524.62L626.07 523.99Z" fill="#9BA0AA"/>
<path d="M633.49 551.34H631.28L631.25 551.32L628 549.1L631.09 547.39L633.49 551.34ZM631.35 551.09H633.04L631 547.73L628.47 549.12L631.35 551.09Z" fill="#FA00FF"/>
<path d="M623.76 523.99L628.28 538.04L634.05 543.82C635.74 545.51 635.74 548.26 634.05 549.96C632.36 551.65 629.61 551.65 627.91 549.96L622.14 544.18L615.84 524.62L623.76 523.99Z" fill="#C4C9D3"/>
<path d="M629.27 561.58C634.33 560.76 637.541 554.58 636.441 547.78C635.341 540.98 630.34 536.13 625.28 536.94C620.22 537.76 617.011 543.94 618.111 550.74C619.221 557.55 624.21 562.4 629.27 561.58Z" fill="#777C86"/>
<path d="M619.041 536.89H627.311L628.711 561.69H619.641L619.041 536.89Z" fill="#777C86"/>
<path d="M621.6 561.58C626.66 560.76 629.87 554.58 628.77 547.78C627.67 540.98 622.68 536.13 617.62 536.94C612.56 537.76 609.35 543.94 610.45 550.74C611.55 557.55 616.55 562.4 621.6 561.58Z" fill="#9BA0AA"/>
<path d="M620.702 555.99C623.462 555.54 625.212 552.17 624.612 548.46C624.012 544.75 621.282 542.1 618.532 542.55C615.772 543 614.022 546.37 614.622 550.08C615.222 553.79 617.942 556.43 620.702 555.99Z" fill="#C4C9D3"/>
<path d="M613.371 523.99L617.891 538.04L623.661 543.82C625.351 545.51 625.351 548.26 623.661 549.96C621.971 551.65 619.221 551.65 617.521 549.96L611.741 544.18L605.441 524.62L613.371 523.99Z" fill="#9BA0AA"/>
<path d="M620.56 551.22H618.6L615.52 549.12L618.34 547.57L620.56 551.22Z" fill="#777C86"/>
<path d="M611.061 523.99L615.581 538.04L621.361 543.82C623.051 545.51 623.051 548.26 621.361 549.96C619.671 551.65 616.921 551.65 615.221 549.96L609.441 544.18L603.141 524.62L611.061 523.99Z" fill="#C4C9D3"/>
<path d="M521.471 526.54L525.991 540.59L531.771 546.37C533.461 548.06 533.461 550.81 531.771 552.51C530.081 554.2 527.331 554.2 525.631 552.51L519.851 546.73L513.551 527.17L521.471 526.54Z" fill="#9BA0AA"/>
<path d="M528.9 553.89H526.68L523.4 551.65L526.49 549.94L528.9 553.89ZM526.75 553.64H528.45L526.4 550.28L523.87 551.67L526.75 553.64Z" fill="#FA00FF"/>
<path d="M519.17 526.54L523.69 540.59L529.47 546.37C531.16 548.06 531.16 550.81 529.47 552.51C527.78 554.2 525.03 554.2 523.33 552.51L517.55 546.73L511.25 527.17L519.17 526.54Z" fill="#C4C9D3"/>
<path d="M524.68 564.13C529.74 563.31 532.95 557.13 531.85 550.33C530.75 543.53 525.76 538.68 520.7 539.49C515.64 540.31 512.43 546.49 513.53 553.29C514.63 560.1 519.62 564.95 524.68 564.13Z" fill="#777C86"/>
<path d="M514.441 539.43H522.711L524.111 564.23H515.041L514.441 539.43Z" fill="#777C86"/>
<path d="M517.011 564.13C522.071 563.31 525.281 557.13 524.181 550.33C523.081 543.53 518.08 538.68 513.03 539.49C507.97 540.31 504.761 546.49 505.861 553.29C506.961 560.1 511.951 564.95 517.011 564.13Z" fill="#9BA0AA"/>
<path d="M516.1 558.54C518.86 558.09 520.61 554.72 520.01 551.01C519.41 547.3 516.69 544.65 513.93 545.1C511.17 545.55 509.42 548.92 510.02 552.63C510.62 556.34 513.34 558.98 516.1 558.54Z" fill="#C4C9D3"/>
<path d="M508.772 526.54L513.292 540.59L519.062 546.37C520.752 548.06 520.752 550.81 519.062 552.51C517.372 554.2 514.622 554.2 512.922 552.51L507.152 546.73L500.852 527.17L508.772 526.54Z" fill="#9BA0AA"/>
<path d="M515.97 553.769H514.01L510.93 551.669L513.74 550.12L515.97 553.769Z" fill="#777C86"/>
<path d="M506.461 526.54L510.981 540.59L516.751 546.37C518.441 548.06 518.441 550.81 516.751 552.51C515.061 554.2 512.311 554.2 510.611 552.51L504.841 546.73L498.541 527.17L506.461 526.54Z" fill="#C4C9D3"/>
<path d="M386.041 507.7L390.561 521.75L396.331 527.52C398.021 529.21 398.021 531.96 396.331 533.66C394.641 535.35 391.891 535.35 390.191 533.66L384.421 527.89L378.121 508.33L386.041 507.7Z" fill="#9BA0AA"/>
<path d="M393.471 535.05H391.251L387.971 532.81L391.071 531.1L391.131 531.2L393.471 535.05ZM391.321 534.8H393.021L390.981 531.44L388.441 532.83L391.321 534.8Z" fill="#FA00FF"/>
<path d="M383.74 507.7L388.26 521.75L394.03 527.52C395.72 529.21 395.72 531.96 394.03 533.66C392.34 535.35 389.59 535.35 387.89 533.66L382.12 527.89L375.82 508.33L383.74 507.7Z" fill="#C4C9D3"/>
<path d="M389.272 545.29C394.332 544.47 397.542 538.29 396.442 531.49C395.342 524.69 390.342 519.83 385.292 520.65C380.232 521.47 377.022 527.65 378.122 534.45C379.212 541.26 384.212 546.11 389.272 545.29Z" fill="#777C86"/>
<path d="M379.02 520.6H387.29L388.68 545.4H379.61L379.02 520.6Z" fill="#777C86"/>
<path d="M381.591 545.3C386.651 544.48 389.861 538.3 388.761 531.5C387.661 524.7 382.661 519.84 377.611 520.66C372.551 521.48 369.341 527.66 370.441 534.46C371.531 541.26 376.531 546.11 381.591 545.3Z" fill="#9BA0AA"/>
<path d="M380.682 539.7C383.442 539.25 385.192 535.88 384.592 532.17C383.992 528.46 381.272 525.81 378.512 526.26C375.752 526.71 374.002 530.08 374.602 533.79C375.202 537.5 377.922 540.14 380.682 539.7Z" fill="#C4C9D3"/>
<path d="M373.342 507.7L377.862 521.75L383.632 527.52C385.322 529.21 385.322 531.96 383.632 533.66C381.942 535.35 379.192 535.35 377.492 533.66L371.722 527.89L365.422 508.33L373.342 507.7Z" fill="#9BA0AA"/>
<path d="M380.54 534.93H378.58L375.5 532.83L378.31 531.28L380.54 534.93Z" fill="#777C86"/>
<path d="M371.041 507.7L375.561 521.75L381.331 527.52C383.021 529.21 383.021 531.96 381.331 533.66C379.641 535.35 376.891 535.35 375.191 533.66L369.421 527.89L363.121 508.33L371.041 507.7Z" fill="#C4C9D3"/>
<path d="M531.92 533.83L354.75 508.67V502.35L531.92 527.5V533.83Z" fill="#C4C9D3"/>
<path d="M641.122 522.37L531.922 527.5V533.829L641.122 528.69V522.37Z" fill="#C4C9D3"/>
<path d="M354.75 502.35L387.87 501.2L573.04 512.9L641.12 522.37L531.92 527.5L354.75 502.35Z" fill="#9BA0AA"/>
<path d="M368.131 487.95L372.261 498.94C373.321 501.76 375.841 503.77 378.831 504.18L523.501 523.68C528.511 524.36 533.571 524.61 538.621 524.43L609.411 521.98C615.191 521.78 620.421 518.49 623.111 513.37L625.881 508.09L368.131 487.95Z" fill="#C4C9D3"/>
<path d="M550.722 267.7C550.722 267.7 556.132 253.09 560.462 249.85C564.792 246.61 568.302 246.74 570.742 248.09C573.172 249.44 592.782 264.18 593.462 269.46C594.142 274.73 606.042 331.94 606.042 331.94H533.012L550.722 267.7Z" fill="#DCE3EF"/>
<path d="M592.202 266.82C592.202 266.82 573.982 257.53 567.492 247.2L570.562 235.61C571.342 232.68 574.782 231.4 577.272 233.13C584.052 237.82 595.512 247.15 599.152 258.79C599.882 261.11 598.782 263.62 596.592 264.69L592.202 266.82Z" fill="#DCE3EF"/>
<path d="M596.89 259.49C598.19 258.32 594.16 251.7 587.87 244.72C581.58 237.74 575.43 233.03 574.13 234.2C572.83 235.38 576.86 241.99 583.15 248.97C589.43 255.96 595.58 260.67 596.89 259.49Z" fill="#C4C9D3"/>
<path d="M580.441 263.5C582.098 263.5 583.441 262.157 583.441 260.5C583.441 258.844 582.098 257.5 580.441 257.5C578.785 257.5 577.441 258.844 577.441 260.5C577.441 262.157 578.785 263.5 580.441 263.5Z" fill="#777C86"/>
<path d="M580.92 263.5C581.98 263.5 582.84 262.64 582.84 261.58C582.84 260.52 581.98 259.66 580.92 259.66C579.86 259.66 579 260.52 579 261.58C579 262.64 579.86 263.5 580.92 263.5Z" fill="#9BA0AA"/>
<path d="M581.462 288.45C581.002 288.45 580.582 288.13 580.482 287.66C578.032 276.12 579.852 262.66 579.932 262.1C580.012 261.55 580.512 261.17 581.062 261.25C581.612 261.33 581.992 261.83 581.912 262.38C581.892 262.52 580.062 276.07 582.442 287.26C582.552 287.8 582.212 288.33 581.672 288.45C581.602 288.44 581.532 288.45 581.462 288.45Z" fill="#9BA0AA"/>
<path d="M578.521 291.29C578.031 291.29 577.601 290.93 577.531 290.43C575.741 277.83 579.781 262.61 579.951 261.97C580.091 261.44 580.651 261.12 581.181 261.26C581.711 261.4 582.031 261.95 581.891 262.49C581.851 262.64 577.781 277.96 579.511 290.15C579.591 290.7 579.211 291.2 578.661 291.28C578.621 291.29 578.571 291.29 578.521 291.29Z" fill="#9BA0AA"/>
<path d="M370.441 322.61C370.441 322.61 383.021 284.96 387.751 275.12C392.481 265.27 402.091 260.41 408.981 259.12C415.881 257.83 450.771 264.48 450.771 264.48L458.881 323.53L370.441 322.61Z" fill="#C4C9D3"/>
<path d="M410.881 260.63C410.881 260.63 405.901 259.51 404.821 254.34C403.741 249.17 402.771 243.5 408.991 243.23C415.211 242.96 445.561 246.01 452.811 249.59C460.061 253.17 456.451 258.56 454.031 264.51C451.601 270.46 419.401 262.35 410.881 260.63Z" fill="#C4C9D3"/>
<path d="M452.811 251.41C452.721 252.12 442.841 251.11 430.891 249.6C418.941 248.09 407.821 246.3 407.911 245.59C408.001 244.88 419.101 245.04 431.051 246.55C443.001 248.06 452.901 250.7 452.811 251.41Z" fill="#777C86"/>
<path d="M430.771 261.58C431.191 259.64 430.201 257.78 428.551 257.42C426.911 257.07 425.241 258.36 424.821 260.3C424.401 262.24 425.391 264.1 427.031 264.46C428.681 264.81 430.351 263.52 430.771 261.58Z" fill="#777C86"/>
<path d="M426.021 263.72C427.571 263.72 428.831 262.46 428.831 260.91C428.831 259.36 427.571 258.1 426.021 258.1C424.471 258.1 423.211 259.36 423.211 260.91C423.211 262.46 424.471 263.72 426.021 263.72Z" fill="#9BA0AA"/>
<path d="M416.971 312.62C416.291 312.62 415.671 312.15 415.511 311.45C413.651 303.3 416.221 287.6 420.911 278.51C425.241 270.12 424.551 261.9 424.541 261.81C424.461 260.99 425.071 260.26 425.901 260.18C426.711 260.1 427.451 260.71 427.531 261.53C427.571 261.9 428.331 270.67 423.581 279.88C419.241 288.31 416.741 303.33 418.441 310.78C418.621 311.59 418.121 312.39 417.311 312.58C417.201 312.61 417.081 312.62 416.971 312.62Z" fill="#9BA0AA"/>
<path d="M429.541 312.619C428.901 312.619 428.311 312.209 428.111 311.559C426.251 305.579 425.071 290.99 428.441 278.67C431.311 268.19 425.341 263.04 425.081 262.83C424.451 262.3 424.361 261.359 424.891 260.719C425.421 260.079 426.361 259.99 426.991 260.51C427.311 260.77 434.731 267.029 431.341 279.459C428.271 290.689 429.161 304.8 430.991 310.67C431.241 311.46 430.791 312.3 430.001 312.55C429.841 312.6 429.691 312.619 429.541 312.619Z" fill="#9BA0AA"/>
<path d="M426.082 287.12L442.802 286.91L446.432 320.99L429.542 321.94L426.082 287.12Z" fill="#FAFFFF"/>
<path d="M429.102 289.82L440.342 289.68L443.412 318.42L432.012 319.05L429.102 289.82Z" fill="#D1D6E0"/>
<path d="M434.951 292.35C434.171 292.35 433.521 291.75 433.461 290.97C433.391 290.09 431.941 269.27 444.791 263.93C445.551 263.61 446.431 263.97 446.751 264.74C447.071 265.5 446.711 266.38 445.941 266.7C435.101 271.21 436.431 290.55 436.451 290.74C436.511 291.57 435.891 292.29 435.071 292.35C435.031 292.35 434.991 292.35 434.951 292.35Z" fill="#9BA0AA"/>
<path d="M441.991 268.11C441.991 268.11 438.201 272.84 439.151 283.39C440.101 293.94 438.471 310.98 429.551 324.64H512.281C512.281 324.64 507.721 289.56 495.811 275.12C483.911 260.67 487.151 245.39 463.081 250.67L441.991 268.11Z" fill="#DCE3EF"/>
<path d="M431.74 265.57C431.74 265.57 436.2 272.13 443.1 269.46C450 266.79 463.69 256.24 465.31 251.57C466.93 246.9 463.59 236.96 458.72 238.79C453.85 240.62 451.92 245.79 443.4 251.67C434.89 257.56 428.5 261.62 431.74 265.57Z" fill="#DCE3EF"/>
<path d="M448.642 253.09C448.642 253.09 444.082 256.61 440.772 260.06C437.462 263.51 432.722 264.59 432.992 262.7C433.262 260.81 436.171 257.4 441.781 254.27C447.391 251.14 450.231 248.3 452.261 245.66C454.291 243.02 458.012 239.51 459.432 240.99C460.852 242.48 458.761 245.82 455.721 248.01C452.681 250.2 450.592 251.5 448.642 253.09Z" fill="#C4C9D3"/>
<path d="M463.34 254.41C464.84 253.65 465.32 251.59 464.42 249.82C463.52 248.05 461.57 247.23 460.08 247.99C458.58 248.75 458.1 250.81 459 252.58C459.9 254.35 461.84 255.17 463.34 254.41Z" fill="#777C86"/>
<path d="M463.111 252.9C464.661 252.9 465.921 251.64 465.921 250.09C465.921 248.54 464.661 247.28 463.111 247.28C461.561 247.28 460.301 248.54 460.301 250.09C460.301 251.64 461.561 252.9 463.111 252.9Z" fill="#9BA0AA"/>
<path d="M464.16 302.2C463.39 302.2 462.73 301.61 462.67 300.83C462.3 296.44 463.57 292.56 465.04 288.08C466.45 283.77 468.06 278.89 468.9 271.98C470.53 258.61 463.1 252.63 462.78 252.39C462.13 251.88 462.01 250.94 462.52 250.29C463.03 249.64 463.96 249.52 464.62 250.02C464.99 250.31 473.73 257.21 471.89 272.35C471.01 279.55 469.29 284.8 467.91 289.02C466.48 293.37 465.36 296.8 465.68 300.58C465.75 301.41 465.14 302.13 464.31 302.2C464.25 302.2 464.2 302.2 464.16 302.2Z" fill="#9BA0AA"/>
<path d="M478.912 297.2C478.352 297.2 477.812 296.88 477.552 296.34C475.712 292.44 475.982 286.55 476.282 280.32C476.572 274.11 476.872 267.69 475.312 262.27C472.432 252.29 464.492 252.03 464.152 252.02C463.322 252.01 462.662 251.33 462.672 250.5C462.682 249.68 463.352 249.02 464.172 249.02H464.182C464.282 249.02 474.672 249.24 478.192 261.43C479.892 267.32 479.562 274.3 479.272 280.45C479.002 286.3 478.742 291.82 480.262 295.05C480.612 295.8 480.292 296.69 479.542 297.05C479.352 297.15 479.132 297.2 478.912 297.2Z" fill="#9BA0AA"/>
<path d="M484.381 341.75L498.581 277.64C498.581 277.64 501.011 267.29 512.981 264.05C524.951 260.8 552.541 255.94 561.061 262.02C569.581 268.1 597.781 351.38 597.781 351.38L484.381 341.75Z" fill="#C4C9D3"/>
<path d="M511.501 268.11L504.801 256.15C503.281 253.43 504.471 249.99 507.351 248.8C515.821 245.28 533.061 239.42 549.221 241.88C552.901 242.44 555.151 246.23 553.891 249.74L548.431 264.88L511.501 268.11Z" fill="#C4C9D3"/>
<path d="M514.22 265.16C514.64 263.22 513.65 261.35 512.01 261C510.37 260.65 508.7 261.94 508.28 263.88C507.86 265.82 508.85 267.68 510.49 268.04C512.13 268.4 513.81 267.11 514.22 265.16Z" fill="#777C86"/>
<path d="M509.47 267.29C511.02 267.29 512.28 266.03 512.28 264.48C512.28 262.93 511.02 261.67 509.47 261.67C507.92 261.67 506.66 262.93 506.66 264.48C506.66 266.03 507.92 267.29 509.47 267.29Z" fill="#9BA0AA"/>
<path d="M506.66 317.89C506.64 317.89 506.63 317.89 506.61 317.89C505.78 317.86 505.13 317.17 505.16 316.34C505.23 314.19 504.87 310.41 504.45 306.03C503.93 300.57 503.28 293.78 503.17 287.1C502.97 274.79 507.93 265.04 508.14 264.63C508.52 263.89 509.43 263.61 510.16 263.98C510.9 264.36 511.19 265.26 510.81 266C510.76 266.09 505.99 275.52 506.18 287.05C506.29 293.61 506.93 300.34 507.45 305.74C507.9 310.41 508.25 314.09 508.17 316.43C508.13 317.25 507.47 317.89 506.66 317.89Z" fill="#9BA0AA"/>
<path d="M514.911 318.7C514.771 318.7 514.621 318.68 514.481 318.64C513.691 318.4 513.241 317.57 513.471 316.77C514.191 314.35 512.611 298.74 510.491 287.46C508.571 277.24 507.971 265.52 507.971 265.4C507.931 264.57 508.571 263.87 509.391 263.83C510.221 263.78 510.921 264.43 510.961 265.25C510.971 265.37 511.561 276.89 513.441 286.91C515.021 295.35 517.481 313.84 516.341 317.64C516.161 318.28 515.561 318.7 514.911 318.7Z" fill="#9BA0AA"/>
<path d="M539.561 278.59L556.401 269.46C556.401 269.46 559.651 291.64 566.041 309.49L546.971 319.84C546.971 319.84 540.191 297.7 539.561 278.59Z" fill="#FAFFFF"/>
<path d="M549.25 314.45C547.41 307.57 544.06 293.59 543.32 280.71L553.64 275.12C554.89 282.23 557.53 295.55 561.59 307.76L549.25 314.45Z" fill="#D1D6E0"/>
<path d="M547.791 278.23C547.701 278.23 547.611 278.22 547.511 278.2C546.701 278.05 546.161 277.27 546.311 276.45C546.331 276.36 547.941 267.2 543.121 260.53C542.631 259.86 542.791 258.92 543.461 258.44C544.131 257.96 545.071 258.11 545.551 258.78C551.131 266.51 549.341 276.58 549.261 277C549.121 277.72 548.491 278.23 547.791 278.23Z" fill="#9BA0AA"/>
<path d="M573.801 292.78C573.351 292.78 572.891 292.63 572.521 292.31C571.671 291.6 571.561 290.34 572.271 289.49C572.851 288.8 586.481 272.51 593.891 265.07C594.671 264.29 595.941 264.29 596.721 265.06C597.501 265.84 597.511 267.11 596.731 267.89C589.451 275.2 575.491 291.88 575.351 292.05C574.941 292.53 574.381 292.78 573.801 292.78Z" fill="#9BA0AA"/>
<path d="M571.211 294.65C571.211 294.65 593.731 265.67 602.151 260.5C610.571 255.33 613.131 252.83 619.711 260.02C626.291 267.21 633.031 270.4 632.541 277.71C632.051 285.02 639.171 325.11 631.861 328.16C624.561 331.2 556.191 328.16 556.191 328.16L571.211 294.65Z" fill="#DCE3EF"/>
<path d="M592.78 262.79L611.88 270.14C611.88 270.14 607.01 294.08 607.32 307.06L586.73 299.76C586.73 299.76 589.5 275.22 592.78 262.79Z" fill="#FAFFFF"/>
<path d="M590.701 297.29C591.431 291.35 593.241 277.48 595.371 267.7L607.721 272.45C606.611 278.34 604.291 291.58 603.771 301.93L590.701 297.29Z" fill="#D1D6E0"/>
<path d="M601.942 269.82C601.812 269.82 601.692 269.8 601.562 269.75C601.052 269.54 600.802 268.96 601.012 268.45C601.132 268.17 603.902 261.44 609.912 258.9C613.052 257.57 616.472 257.64 620.082 259.1C620.592 259.31 620.842 259.89 620.632 260.4C620.422 260.91 619.842 261.16 619.332 260.95C608.212 256.44 603.092 268.68 602.872 269.2C602.712 269.58 602.342 269.82 601.942 269.82Z" fill="#9BA0AA"/>
<path d="M616.25 258.68L618.66 251.62C619.19 250.06 621.11 249.49 622.4 250.52C625.62 253.1 631.1 258.14 635.27 265.32C636.2 266.92 635.59 268.99 633.92 269.8L628.43 272.47L616.25 258.68Z" fill="#DCE3EF"/>
<path d="M530.301 512.9L521.411 331.94L339.611 321.93L352.501 482.42C353.031 488.96 358.131 494.21 364.651 494.91L530.301 512.9Z" fill="#FAFFFF"/>
<path d="M414.391 500.32L406.491 499.46L393.971 319.84H401.821L414.391 500.32Z" fill="#DCE3EF"/>
<path d="M475.801 506.98L467.901 506.12L455.361 326.16H463.211L475.801 506.98Z" fill="#DCE3EF"/>
<path d="M590.612 330.01C589.412 330.01 588.512 328.47 588.512 326.43C588.512 324.39 589.412 322.85 590.612 322.85C591.812 322.85 592.712 324.39 592.712 326.43C592.712 328.47 591.812 330.01 590.612 330.01ZM590.612 323.85C590.162 323.85 589.512 324.85 589.512 326.43C589.512 328.01 590.162 329.01 590.612 329.01C591.062 329.01 591.712 328.01 591.712 326.43C591.712 324.85 591.062 323.85 590.612 323.85Z" fill="#FA00FF"/>
<path d="M402.802 264C399.142 264 396.922 262.3 394.312 260.31C393.292 259.53 392.242 258.73 390.972 257.92C386.172 254.85 380.502 260.16 380.442 260.21C379.842 260.78 378.892 260.76 378.322 260.16C377.752 259.56 377.772 258.62 378.362 258.04C378.662 257.75 385.782 251.04 392.582 255.39C393.952 256.27 395.112 257.15 396.132 257.93C399.552 260.54 401.432 261.98 407.052 260.25C407.842 260.01 408.682 260.45 408.922 261.24C409.162 262.03 408.722 262.87 407.932 263.11C405.922 263.73 404.252 264 402.802 264Z" fill="#9BA0AA"/>
<path d="M530.3 512.9L636.87 511.66C642.05 511.6 646.3 507.54 646.6 502.37L656.62 329.52L521.41 331.95L530.3 512.9Z" fill="#DCE3EF"/>
<path d="M595.85 512.13L588 512.22L593.8 333.06H601.64L595.85 512.13Z" fill="#C4C9D3"/>
<path d="M341.28 323.45L521.681 335.59C522.271 335.63 522.851 335.65 523.441 335.64L654.83 333.96C656.68 333.94 658.19 332.45 658.23 330.6L658.361 325.4C658.391 324.01 657.28 322.86 655.89 322.85L521.41 319.84L341.421 311.98C339.541 311.88 337.991 313.43 338.091 315.32L338.391 320.54C338.481 322.1 339.72 323.35 341.28 323.45Z" fill="#DCE3EF"/>
<path d="M397.881 328.04C397.351 328.04 396.911 327.63 396.881 327.1L396.181 314.48C396.151 313.93 396.571 313.46 397.121 313.43C397.671 313.41 398.141 313.82 398.171 314.37L398.871 326.99C398.901 327.54 398.481 328.01 397.931 328.04C397.921 328.04 397.901 328.04 397.881 328.04Z" fill="#C4C9D3"/>
<path d="M514.85 329.05C515.73 329.05 516.45 327.77 516.45 326.2C516.45 324.63 515.73 323.35 514.85 323.35C513.97 323.35 513.25 324.63 513.25 326.2C513.25 327.77 513.97 329.05 514.85 329.05Z" fill="#D1D6E0"/>
<path d="M465.641 327.22C466.525 327.22 467.241 325.944 467.241 324.37C467.241 322.796 466.525 321.52 465.641 321.52C464.757 321.52 464.041 322.796 464.041 324.37C464.041 325.944 464.757 327.22 465.641 327.22Z" fill="#D1D6E0"/>
<path d="M453.311 326.66C454.191 326.66 454.911 325.38 454.911 323.81C454.911 322.24 454.191 320.96 453.311 320.96C452.431 320.96 451.711 322.24 451.711 323.81C451.711 325.38 452.431 326.66 453.311 326.66Z" fill="#D1D6E0"/>
<path d="M405.381 323.81C406.261 323.81 406.981 322.53 406.981 320.96C406.981 319.39 406.261 318.11 405.381 318.11C404.501 318.11 403.781 319.39 403.781 320.96C403.781 322.53 404.501 323.81 405.381 323.81Z" fill="#D1D6E0"/>
<path d="M393.061 323.13C393.941 323.13 394.661 321.85 394.661 320.28C394.661 318.71 393.941 317.43 393.061 317.43C392.181 317.43 391.461 318.71 391.461 320.28C391.461 321.85 392.181 323.13 393.061 323.13Z" fill="#D1D6E0"/>
<path d="M345.131 320.96C346.011 320.96 346.731 319.68 346.731 318.11C346.731 316.54 346.011 315.26 345.131 315.26C344.251 315.26 343.531 316.54 343.531 318.11C343.531 319.68 344.251 320.96 345.131 320.96Z" fill="#D1D6E0"/>
<path d="M529.92 329.51C530.8 329.51 531.52 328.13 531.52 326.43C531.52 324.73 530.8 323.35 529.92 323.35C529.04 323.35 528.32 324.73 528.32 326.43C528.32 328.13 529.04 329.51 529.92 329.51Z" fill="#D1D6E0"/>
<path d="M605 330.65C605.88 330.65 606.6 329.27 606.6 327.57C606.6 325.87 605.88 324.49 605 324.49C604.12 324.49 603.4 325.87 603.4 327.57C603.4 329.27 604.12 330.65 605 330.65Z" fill="#D1D6E0"/>
<path d="M649.272 330.65C650.156 330.65 650.872 329.271 650.872 327.57C650.872 325.869 650.156 324.49 649.272 324.49C648.388 324.49 647.672 325.869 647.672 327.57C647.672 329.271 648.388 330.65 649.272 330.65Z" fill="#D1D6E0"/>
<path d="M459.571 332.42C459.041 332.42 458.601 332 458.571 331.47L457.851 317.07C457.821 316.52 458.251 316.05 458.801 316.02C459.361 316 459.821 316.42 459.851 316.97L460.571 331.37C460.601 331.92 460.171 332.39 459.621 332.42C459.611 332.42 459.591 332.42 459.571 332.42Z" fill="#C4C9D3"/>
<path d="M521.681 336.6C521.161 336.6 520.721 336.19 520.681 335.66L519.681 319.87C519.651 319.32 520.061 318.84 520.621 318.81C521.161 318.77 521.651 319.19 521.681 319.75L522.681 335.54C522.711 336.09 522.301 336.57 521.741 336.6C521.731 336.6 521.701 336.6 521.681 336.6Z" fill="#C4C9D3"/>
<path d="M597.791 335.7C597.771 335.7 597.761 335.7 597.741 335.7C597.191 335.67 596.761 335.2 596.791 334.65L597.461 321.52C597.491 320.97 597.961 320.54 598.511 320.57C599.061 320.6 599.491 321.07 599.461 321.62L598.791 334.75C598.771 335.28 598.321 335.7 597.791 335.7Z" fill="#C4C9D3"/>
<path d="M593.742 335.2C593.472 335.2 593.242 334.98 593.242 334.7C593.242 334.42 593.462 334.2 593.742 334.2L601.592 334.15C601.902 334.18 602.092 334.37 602.092 334.65C602.092 334.93 601.872 335.15 601.592 335.15L593.742 335.2C593.742 335.2 593.752 335.2 593.742 335.2Z" fill="#9BA0AA"/>
<path d="M521.67 337.09C521.64 337.09 521.6 337.09 521.57 337.09L342.02 325.03C339.85 324.91 338.91 324.21 338.68 324L340.69 321.77C340.69 321.77 340.66 321.74 340.6 321.7C340.61 321.7 341.04 321.98 342.21 322.04L521.72 334.1L654.74 332.47C655.07 332.43 655.48 332.35 655.61 332.29C656.31 331.85 657.22 332.07 657.66 332.77C658.1 333.47 657.87 334.41 657.17 334.85C656.48 335.29 655.39 335.43 654.96 335.47C654.92 335.47 654.88 335.47 654.84 335.48L521.69 337.11C521.69 337.09 521.68 337.09 521.67 337.09Z" fill="#C4C9D3"/>
<path d="M641.002 316.39L639.512 322.48L656.162 322.88L654.392 308.58L641.002 316.39Z" fill="#444953"/>
<path d="M654.691 311.22C649.421 312.58 645.171 314.9 640.681 317.7L640.061 320.25C645.091 317.05 649.411 314.51 654.951 313.05L654.701 311.03V311.22H654.691V311.22Z" fill="#2E333D"/>
<path d="M642.72 302.7C642.72 302.7 634.3 308.08 630.65 311.73C627 315.38 621.52 322.48 619.49 324.1C617.46 325.72 622.74 328.85 631.46 323.53C640.18 318.21 646.07 313.44 654.69 311.21V299.15L642.72 302.7Z" fill="#444953"/>
<path d="M652.45 302.32L639.76 304.66C637.79 306 635.18 307.85 633.02 309.62L653.11 305.91L652.45 302.32Z" fill="#2E333D"/>
<path d="M595.33 550.91L594.23 553.13C593.33 554.94 593.71 557.13 595.17 558.54L619.5 582.01V584.51C619.5 584.51 627.31 594.42 635.02 595.13C642.73 595.84 643.23 587.22 643.23 587.22L595.33 550.91Z" fill="#FAFFFF"/>
<path d="M657.431 545.36C657.431 545.36 653.911 557.26 652.701 565.78C651.481 574.3 644.991 582.01 644.991 582.01L618.211 563.68L627.271 549.28C627.271 549.28 634.841 551.17 636.201 547.52C637.561 543.87 640.121 525.88 640.121 525.88L657.431 545.36Z" fill="#444953"/>
<path d="M640.861 567.09C640.861 567.09 634.101 569.01 630.451 566.08C626.801 563.15 629.911 556.39 628.621 553.95C627.341 551.52 608.941 544.75 608.941 544.75C608.941 544.75 600.351 541.71 597.041 546.64C593.731 551.58 596.091 554.62 596.091 554.62C596.091 554.62 605.491 564.09 610.661 569.26C615.831 574.43 620.091 577.61 623.951 582.01C627.801 586.41 641.091 593.31 644.341 588.84C647.591 584.37 648.901 580.93 648.901 580.93L640.861 567.09Z" fill="#9BA0AA"/>
<path d="M633.35 576.45C635.64 578.58 640.15 581.96 647.6 584.37C649.09 584.85 650.7 584.1 651.32 582.66C652.42 580.1 653.85 575.42 654.07 568.12C654.12 566.56 652.85 565.27 651.29 565.27C647 565.26 638.74 566.13 633.17 572.27C632.06 573.47 632.15 575.34 633.35 576.45Z" fill="#777C86"/>
<path d="M611.241 544.01L636.361 547.02C636.361 547.02 635.661 549.27 633.151 550.62C630.641 551.97 630.241 554.68 626.461 553.93C622.681 553.18 609.621 550.95 608.741 548.39C608.401 547.38 608.461 546.46 608.661 545.71C608.961 544.59 610.071 543.88 611.241 544.01Z" fill="#D1D6E0"/>
<path d="M780.501 560.1C780.501 560.1 781.311 562.67 778.071 565.71C774.821 568.75 756.971 596 749.941 597.97L745.541 585.53L774.411 554.49L780.501 560.1Z" fill="#D1D6E0"/>
<path d="M772.59 558.27C772.59 558.27 775.7 561.72 781.38 566.32C787.06 570.92 795.51 582.95 795.51 582.95L769.54 615.88C769.54 615.88 764.6 588.76 757.77 579.36L772.59 558.27Z" fill="#444953"/>
<path d="M746.891 626.57C746.891 626.57 744.561 624.64 744.661 617.64C744.761 610.64 757.141 609.83 760.181 608.21C763.221 606.59 765.261 597.62 765.261 597.62C765.261 597.62 769.311 599.49 773.781 600.51C778.241 601.52 780.071 596.96 779.761 592.8C779.461 588.64 796.701 579.01 796.701 579.01C796.701 579.01 806.941 584.69 807.861 589.05L784.431 633.98L762.391 631.71L746.891 626.57Z" fill="#9BA0AA"/>
<path d="M790.031 615.07H802.681C802.681 615.07 812.051 595.9 808.631 590.79C805.221 585.69 790.471 596.73 790.031 615.07Z" fill="#D1D6E0"/>
<path d="M802.68 615.07L797.96 616.42C797.96 616.42 795.53 624.13 794.36 628.14C793.19 632.15 788.53 638.96 768.09 635.71L780.26 631.09L787.26 613.9L802.68 615.07Z" fill="#9BA0AA"/>
<path d="M750.731 611.14C750.731 611.14 752.981 618.05 758.731 615.62C764.481 613.19 770.191 607.27 768.101 603.41C766.001 599.56 763.801 592.78 763.801 592.78C763.801 592.78 760.661 593.57 761.371 596.74C762.081 599.91 763.031 602.59 761.741 604.58C760.451 606.57 750.201 609.5 750.731 611.14Z" fill="#D1D6E0"/>
<path d="M715.851 295.161C715.851 295.161 720.581 314.101 716.881 341.951C712.201 377.251 705.191 406.181 699.621 437.301C694.051 468.421 663.511 556.181 663.511 556.181C663.511 556.181 645.661 552.121 631.461 523.721C631.461 523.721 656.811 463.671 669.491 400.781C682.171 337.891 685.011 299.351 685.011 299.351L715.851 295.161Z" fill="#FAFFFF"/>
<path d="M664.491 557.94L663.181 557.64C662.421 557.47 644.471 553.09 630.121 524.39L629.811 523.77L630.081 523.13C630.331 522.53 655.521 462.49 668.021 400.48C680.531 338.42 683.491 299.62 683.521 299.24L683.611 298.03L716.991 293.5L717.321 294.8C717.521 295.58 722.081 314.34 718.381 342.15C715.301 365.41 711.171 386.07 707.181 406.04C705.131 416.3 703.011 426.92 701.111 437.56C695.581 468.44 665.251 555.79 664.941 556.67L664.491 557.94ZM633.111 523.66C644.551 546.17 658.361 552.76 662.571 554.31C666.481 542.99 693.041 465.56 698.141 437.04C700.051 426.37 702.171 415.74 704.221 405.46C708.201 385.53 712.311 364.92 715.381 341.76C718.451 318.64 715.621 301.56 714.671 296.84L686.401 300.68C685.801 307.73 682.271 344.93 670.951 401.08C659.101 459.93 635.871 516.99 633.111 523.66Z" fill="#D1D6E0"/>
<path d="M656.621 313.62L671.641 439.46C672.961 450.52 676.521 461.19 682.111 470.82C698.541 499.13 734.531 562.23 749.931 597.97C749.931 597.97 759.131 580.93 768.051 569.16C776.981 557.39 780.491 560.1 780.491 560.1C780.491 560.1 751.011 512.9 738.291 488.02C729.611 471.04 717.031 455.44 709.921 447.25C706.411 443.21 704.491 438.03 704.501 432.67L704.751 296.52L656.621 313.62Z" fill="#FAFFFF"/>
<path d="M749.931 599.47C749.911 599.47 749.891 599.47 749.861 599.47C749.291 599.44 748.781 599.09 748.551 598.56C733.041 562.57 696.011 497.76 680.811 471.57C675.091 461.71 671.501 450.97 670.151 439.63L655.131 313.79C655.051 313.09 655.461 312.43 656.121 312.2L704.251 295.1C704.711 294.94 705.221 295.01 705.621 295.29C706.021 295.57 706.251 296.03 706.251 296.52L706.001 432.67C705.991 437.67 707.791 442.5 711.051 446.26C717.931 454.19 730.801 470.07 739.621 487.33C752.161 511.87 781.461 558.83 781.761 559.3C782.141 559.92 782.031 560.72 781.491 561.21C780.991 561.67 780.251 561.72 779.681 561.37C779.451 561.31 776.321 560.73 769.231 570.07C760.481 581.61 751.331 598.52 751.231 598.69C750.991 599.17 750.481 599.47 749.931 599.47ZM658.261 314.63L673.141 439.28C674.441 450.2 677.901 460.56 683.421 470.07C698.261 495.65 733.891 557.99 750.101 594.59C753.081 589.3 760.081 577.21 766.871 568.26C771.081 562.71 774.751 559.46 777.791 558.58C771.711 548.77 747.961 510.21 736.971 488.71C728.291 471.73 715.601 456.07 708.801 448.24C705.061 443.93 703.001 438.4 703.011 432.67L703.261 298.65L658.261 314.63ZM779.581 561.29C779.591 561.29 779.591 561.3 779.601 561.3C779.591 561.29 779.581 561.29 779.581 561.29Z" fill="#D1D6E0"/>
<path d="M698.41 226.72L711.7 250.13C716.23 258.11 713.43 268.25 705.44 272.78L698.4 276.76L677.57 239.97L698.41 226.72Z" fill="#444953"/>
<path d="M679.051 184.41C679.051 184.41 690.901 204.2 709.461 226.72C709.461 226.72 708.851 239.3 689.781 246.3L679.051 184.41Z" fill="#C4C9D3"/>
<path d="M630.451 160.29C630.451 160.29 637.251 200.36 638.061 200.05C638.871 199.74 662.711 186.86 662.711 186.86L648.001 147.65L630.451 160.29Z" fill="#444953"/>
<path d="M638.722 162.14L640.642 154.01L640.742 153.6L640.652 153.19L640.602 152.97L638.692 154.35L636.952 161.72C636.502 163.61 635.132 165.15 633.302 165.8L631.512 166.44C631.612 167.02 631.722 167.63 631.832 168.27L633.922 167.52C636.332 166.65 638.132 164.64 638.722 162.14Z" fill="#2E333D"/>
<path d="M630.451 184.43C630.451 184.43 633.261 202.78 634.071 202.48C634.881 202.18 666.071 186.01 666.071 186.01L661.101 172.76L630.451 184.43Z" fill="#FAFFFF"/>
<path d="M628.89 228.35C637.854 228.35 645.12 221.084 645.12 212.12C645.12 203.156 637.854 195.89 628.89 195.89C619.927 195.89 612.66 203.156 612.66 212.12C612.66 221.084 619.927 228.35 628.89 228.35Z" fill="#C4C9D3"/>
<path d="M583.44 303.71C583.44 303.71 577.1 308.69 564.25 322.07C564.25 322.07 571.96 325.45 582.51 321.93L592.79 321.79L589 315.16L583.44 303.71Z" fill="#444953"/>
<path d="M614.821 129.13C617.701 129.13 620.031 126.8 620.031 123.92C620.031 121.04 617.701 118.71 614.821 118.71C611.941 118.71 609.611 121.04 609.611 123.92C609.611 126.8 611.951 129.13 614.821 129.13Z" fill="#202735"/>
<path d="M614.821 121.17C617.701 121.17 620.031 118.84 620.031 115.96C620.031 113.08 617.701 110.75 614.821 110.75C611.941 110.75 609.611 113.08 609.611 115.96C609.611 118.84 611.951 121.17 614.821 121.17Z" fill="#202735"/>
<path d="M620.03 115.97C622.91 115.97 625.24 113.64 625.24 110.76C625.24 107.88 622.91 105.55 620.03 105.55C617.15 105.55 614.82 107.88 614.82 110.76C614.82 113.64 617.16 115.97 620.03 115.97Z" fill="#202735"/>
<path d="M628.46 113.54C631.34 113.54 633.67 111.21 633.67 108.33C633.67 105.45 631.34 103.12 628.46 103.12C625.58 103.12 623.25 105.45 623.25 108.33C623.25 111.21 625.59 113.54 628.46 113.54Z" fill="#202735"/>
<path d="M637.151 112.89C640.031 112.89 642.361 110.56 642.361 107.68C642.361 104.8 640.031 102.47 637.151 102.47C634.271 102.47 631.941 104.8 631.941 107.68C631.941 110.56 634.281 112.89 637.151 112.89Z" fill="#202735"/>
<path d="M652.702 118.75C655.582 118.75 657.912 116.42 657.912 113.54C657.912 110.66 655.582 108.33 652.702 108.33C649.822 108.33 647.492 110.66 647.492 113.54C647.492 116.42 649.832 118.75 652.702 118.75Z" fill="#202735"/>
<path d="M656.321 125.81C659.201 125.81 661.531 123.48 661.531 120.6C661.531 117.72 659.201 115.39 656.321 115.39C653.441 115.39 651.111 117.72 651.111 120.6C651.111 123.48 653.451 125.81 656.321 125.81Z" fill="#202735"/>
<path d="M657.501 134.34C660.381 134.34 662.711 132.01 662.711 129.13C662.711 126.25 660.381 123.92 657.501 123.92C654.621 123.92 652.291 126.25 652.291 129.13C652.291 132.01 654.631 134.34 657.501 134.34Z" fill="#202735"/>
<path d="M656.64 142.25C659.52 142.25 661.85 139.92 661.85 137.04C661.85 134.16 659.52 131.83 656.64 131.83C653.76 131.83 651.43 134.16 651.43 137.04C651.43 139.92 653.77 142.25 656.64 142.25Z" fill="#202735"/>
<path d="M653.36 148.04C656.24 148.04 658.57 145.709 658.57 142.829C658.57 139.949 656.24 137.62 653.36 137.62C650.48 137.62 648.15 139.949 648.15 142.829C648.15 145.709 650.49 148.04 653.36 148.04Z" fill="#202735"/>
<path d="M648.831 154.4C651.711 154.4 654.041 152.07 654.041 149.19C654.041 146.31 651.711 143.98 648.831 143.98C645.951 143.98 643.621 146.31 643.621 149.19C643.621 152.07 645.961 154.4 648.831 154.4Z" fill="#202735"/>
<path d="M645.161 114.9C648.041 114.9 650.371 112.57 650.371 109.69C650.371 106.81 648.041 104.48 645.161 104.48C642.281 104.48 639.951 106.81 639.951 109.69C639.951 112.57 642.291 114.9 645.161 114.9Z" fill="#202735"/>
<path d="M651.001 153.92C651.001 153.92 650.991 154 650.951 154.15C650.351 156.72 647.571 158.12 645.121 157.16L638.001 154.39L615.331 128.63L611.461 119.93L614.821 110.75L623.471 106.85L632.591 105.16L642.011 105.54L650.361 108.88L657.911 115.95L659.811 124.45L660.411 133.43L658.581 141.85L654.051 147.97L651.001 153.92Z" fill="#202735"/>
<path d="M620.811 198.04L663.151 180.33C670.171 177.4 678.221 180.78 681.031 187.84C682.871 192.47 684.811 198.55 686.431 206.33C691.101 228.74 704.481 272.77 721.121 297.11C721.121 297.11 711.791 306.64 692.921 311.31C674.051 315.98 657.621 328.15 656.201 333.22C656.201 333.22 651.451 311.51 648.251 289C645.051 266.49 620.811 198.04 620.811 198.04Z" fill="#C4C9D3"/>
<path d="M675.271 199.15C676.501 198.79 676.712 196.45 675.752 193.93C674.792 191.43 673.022 189.69 671.802 190.03C670.582 190.38 670.352 192.69 671.302 195.2C672.252 197.73 674.041 199.51 675.271 199.15ZM672.702 192.41C673.282 192.24 674.131 193.08 674.581 194.27C675.041 195.47 674.941 196.58 674.351 196.75C673.761 196.92 672.921 196.08 672.461 194.88C672.011 193.68 672.112 192.57 672.702 192.41Z" fill="#FAFFFF"/>
<path d="M670.152 200.64C671.392 200.28 671.622 197.92 670.662 195.39C669.712 192.88 667.942 191.12 666.712 191.47C665.482 191.82 665.232 194.15 666.172 196.67C667.122 199.21 668.912 201 670.152 200.64ZM667.612 193.86C668.202 193.69 669.042 194.53 669.492 195.73C669.942 196.93 669.832 198.05 669.242 198.22C668.652 198.39 667.802 197.55 667.352 196.34C666.912 195.13 667.022 194.02 667.612 193.86Z" fill="#FAFFFF"/>
<path d="M665.612 203.66C658.642 205.69 657.132 219.26 662.452 234.33C667.952 249.89 678.542 260.95 685.832 258.52C693.052 256.12 693.992 241.48 688.172 226.32C682.542 211.63 672.512 201.64 665.612 203.66ZM680.122 214.09C679.322 216.34 679.642 219.67 680.012 223.5C680.532 228.83 681.122 234.95 679.082 240.86C676.552 248.18 671.112 246.73 669.912 246.3C669.622 245.88 669.342 245.45 669.062 245.02C669.512 244.97 670.052 244.88 670.632 244.7C673.302 243.84 676.792 241.07 676.282 232.42C675.972 227.16 675.242 223.04 674.602 219.43C673.772 214.76 673.172 211.36 674.022 208.02C676.072 209.43 678.152 211.51 680.122 214.09ZM667.422 242.25C667.622 242.21 667.842 242.16 668.082 242.08C670.112 241.44 673.172 239.33 672.972 232.49C672.832 227.75 671.582 222.74 670.382 217.94C669.272 213.49 668.222 209.32 668.212 205.87C669.542 205.87 670.952 206.27 672.392 207.02C671.692 210.59 672.332 214.28 673.142 218.84C673.752 222.32 674.452 226.3 674.742 231.31C675.332 241.66 669.082 242.34 667.472 242.34C667.452 242.32 667.432 242.28 667.422 242.25ZM666.512 206.11C666.592 206.09 666.672 206.07 666.752 206.05C666.982 209.65 667.992 213.73 668.982 217.73C670.112 222.27 671.292 227.02 671.412 231.29C671.602 238.36 667.442 239.47 666.062 239.63C665.192 237.82 664.392 235.92 663.682 233.93C658.852 220.29 660.192 207.96 666.512 206.11ZM684.832 255.77C681.172 256.98 676.552 254.41 672.312 249.42C673.162 249.51 674.192 249.49 675.252 249.14C677.182 248.51 679.232 246.84 680.562 242.96C682.752 236.58 682.082 229.81 681.552 224.44C681.192 220.83 680.912 217.92 681.562 216.07C683.602 219.1 685.482 222.69 687.002 226.68C692.232 240.41 691.352 253.61 684.832 255.77Z" fill="#FAFFFF"/>
<path d="M615.331 128.64L614.821 165.68C614.771 168.96 618.021 171.28 621.111 170.17L633.301 165.8C635.131 165.14 636.501 163.61 636.951 161.72L638.871 153.59L637.151 145.78C637.151 145.78 631.881 144.16 632.691 133.81C632.691 133.81 625.391 135.03 624.271 127.93C624.261 127.93 621.221 131.48 615.331 128.64Z" fill="#444953"/>
<path d="M615.13 143.55L611.32 151.23C610.83 152.22 611.22 153.42 612.21 153.93L617.4 156.6L615.13 143.55Z" fill="#444953"/>
<path d="M643.871 148.3C644.541 144.14 643.321 140.48 641.141 140.13C638.961 139.78 636.651 142.87 635.981 147.02C635.311 151.18 636.531 154.84 638.711 155.19C640.891 155.55 643.201 152.46 643.871 148.3Z" fill="#444953"/>
<path d="M655.811 241.2L668.761 282.71C671.661 292 665.791 301.73 656.221 303.49L588.461 315.99L583.441 303.71L641.451 281.42L629.841 257.3L655.811 241.2Z" fill="#444953"/>
<path d="M613.93 218.42L626.86 269.459C626.86 269.459 638.49 264.46 651.2 262.16C663.91 259.86 668.24 249.99 668.24 249.99L642.86 203.87L613.93 218.42Z" fill="#C4C9D3"/>
<path d="M746.891 626.57C746.891 626.57 745.541 630.63 749.661 631.78C753.781 632.93 762.981 635.5 769.541 635.7C776.101 635.9 783.401 632.45 785.031 626.03C786.651 619.61 788.211 615.41 788.211 615.41L790.041 615.07C790.041 615.07 797.611 587.62 808.641 590.79C808.641 590.79 808.711 588.63 803.161 586.73C797.621 584.84 789.971 592.82 786.251 609.45C782.531 626.08 780.001 631.98 773.491 631.81C766.981 631.64 746.891 626.57 746.891 626.57Z" fill="#FAFFFF"/>
<path d="M800.212 581.18C800.212 581.18 786.312 564.97 779.692 567C773.062 569.03 776.082 592.29 780.592 593.91C785.102 595.53 791.392 582.51 800.212 581.18Z" fill="#777C86"/>
<path d="M670.651 248.67L648.911 209.17C648.521 208.46 647.601 208.24 646.931 208.7C646.351 209.1 646.171 209.87 646.511 210.49L668.251 249.99C668.251 249.99 666.271 254.49 661.081 258.12L661.931 260.86C668.171 256.79 670.611 251.42 670.751 251.1L671.291 249.86L670.651 248.67Z" fill="#777C86"/>
<path d="M679.051 184.41C679.061 184.42 679.061 184.43 679.061 184.43L679.051 184.41Z" fill="#777C86"/>
<path d="M681.041 187.85C682.881 192.48 684.821 198.56 686.441 206.34C688.411 215.8 691.941 229.11 696.601 243.17C697.461 242.68 698.261 242.18 699.001 241.68C694.461 227.94 691.031 214.97 689.111 205.79C688.431 202.52 687.661 199.4 686.811 196.43C684.081 192.4 682.001 189.17 680.691 187.09C680.821 187.33 680.941 187.58 681.041 187.85Z" fill="#777C86"/>
<path d="M585.44 321.9C586.07 321.13 586.72 320.3 587.35 319.42C587.79 318.8 587.64 317.95 587.02 317.51C586.4 317.07 585.55 317.22 585.11 317.84C583.91 319.54 582.56 321.1 581.52 322.24C581.85 322.14 582.17 322.06 582.51 321.94L585.44 321.9Z" fill="#2E333D"/>
<path d="M260.49 346.3H195.18V349.3H260.49V346.3Z" fill="#9BA0AA"/>
<path d="M716.662 619.75H670.702L663.922 608.03H709.882L716.662 619.75ZM671.852 617.75H713.192L708.732 610.03H667.392L671.852 617.75Z" fill="#C4C9D3"/>
<path d="M597.62 589.4H577.27C577.68 590 578.12 590.61 578.58 591.23H596.56L601.12 599.12H585.67C586.3 599.73 586.95 600.34 587.62 600.95H604.28L597.62 589.4Z" fill="#DCE3EF"/>
<path d="M280.031 544.35H255.211C255.101 544.96 255.041 545.57 255.031 546.18H278.981L283.541 554.07H258.301C258.891 554.7 259.551 555.31 260.291 555.9H286.701L280.031 544.35Z" fill="#DCE3EF"/>
<path d="M195.18 331.73L260.49 275.95L260.76 271.59L195.18 323.53V331.73Z" fill="#DCE3EF"/>
<path d="M610.35 153.71L614.41 168.61C615.23 171.63 618.54 173.22 621.41 171.98L634.08 166.51C636.04 165.66 637.41 163.84 637.68 161.72L638.5 155.12L636.35 145.38L621.8 147.13C620.93 147.23 620.04 147.19 619.19 146.98L614.11 145.78C613.11 145.54 612.08 146.03 611.63 146.94L610.87 148.47C610.06 150.09 609.88 151.96 610.35 153.71Z" fill="#777C86"/>
<path d="M324.931 171.77L325.201 173.37C325.281 173.85 325.541 174.27 325.931 174.56L328.891 176.77C329.661 177.35 330.601 177.67 331.561 177.69L336.431 177.81C338.381 177.86 340.271 178.52 341.831 179.69L342.141 179.93C342.571 180.25 342.711 180.83 342.491 181.32L337.151 192.88C336.081 195.19 333.241 196.05 331.071 194.73L322.161 189.3C321.231 188.73 320.681 187.7 320.721 186.61L321.021 179.44C321.031 179.43 324.101 176.16 324.931 171.77Z" fill="#9BA0AA"/>
<path d="M94.3098 174.32L97.2798 181.05C97.7398 182.1 99.0198 182.5 99.9998 181.9L104.98 178.86C105.97 178.26 106.49 177.1 106.27 175.96L105.48 171.75L104.17 170.06L99.3098 172.1C98.5598 172.41 97.7198 172.43 96.9598 172.13L96.4198 171.92C95.6698 171.63 94.8198 171.94 94.4398 172.65L94.3498 172.81C94.1198 173.27 94.0998 173.83 94.3098 174.32Z" fill="#777C86"/>
</g>
<defs>
<clipPath id="clip0_1818_3675">
<rect width="1051.63" height="756.3" fill="white" transform="translate(0.171875 0.849976)"/>
</clipPath>
</defs>
</svg>
