<svg width="118" height="134" viewBox="0 0 118 134" fill="none" xmlns="http://www.w3.org/2000/svg">
<g clip-path="url(#clip0_611_13119)">
<path d="M49.2497 30.9813L53.3914 26.1218C53.5965 25.8794 53.6152 25.5314 53.4381 25.2673L49.5231 19.4819L44.2349 23.7293C44.2349 23.7293 45.7138 27.6846 48.4015 30.9688C48.6221 31.236 49.026 31.2423 49.2497 30.9813Z" fill="#9BA0AA"/>
<path d="M40.1118 62.3562C39.9999 62.3562 39.8881 62.35 39.7762 62.3376L33.4129 61.6696C31.763 61.4987 30.5171 60.116 30.5171 58.4568V44.7795H30.7967L30.8278 44.4688H31.1385V44.5185C32.4497 44.7391 38.4184 45.7178 43.0573 46.0751L43.3431 46.0969V59.128C43.3431 60.0415 42.9548 60.9177 42.2743 61.5298C41.6808 62.0611 40.9072 62.3562 40.1118 62.3562ZM31.1416 45.1461V58.4537C31.1416 59.796 32.1452 60.9114 33.4781 61.0513L39.8415 61.7193C40.5778 61.797 41.3111 61.5577 41.8611 61.0637C42.411 60.5697 42.7248 59.8613 42.7248 59.1249V46.6686C38.2196 46.3019 32.6144 45.3916 31.1416 45.1461Z" fill="#B7BCC6"/>
<path d="M31.5735 47.6908C31.5455 47.6908 31.5175 47.6876 31.4927 47.6783C31.008 47.5478 30.7377 47.4639 30.7377 47.4639C30.573 47.4142 30.4798 47.2402 30.5295 47.0755C30.5792 46.9109 30.7532 46.8177 30.9179 46.8674C30.921 46.8674 31.1851 46.9482 31.6543 47.0755C31.8189 47.1222 31.9184 47.293 31.8717 47.4577C31.8345 47.6006 31.7102 47.6908 31.5735 47.6908Z" fill="#B7BCC6"/>
<path d="M40.7206 49.3316C40.7113 49.3316 40.702 49.3316 40.6927 49.3316C40.1862 49.2881 39.6642 49.2353 39.1391 49.17C38.9682 49.1483 38.8471 48.996 38.8688 48.8251C38.8906 48.6542 39.0428 48.5331 39.2137 48.5548C39.7295 48.617 40.2453 48.6698 40.7455 48.7133C40.9164 48.7288 41.0438 48.8779 41.0282 49.0488C41.0158 49.2073 40.8791 49.3316 40.7206 49.3316ZM37.6415 48.9618C37.626 48.9618 37.6104 48.9618 37.5949 48.9587C37.0916 48.8811 36.5727 48.7972 36.0569 48.7008C35.8891 48.6698 35.7773 48.5082 35.8052 48.3404C35.8332 48.1726 35.9979 48.0577 36.1656 48.0888C36.6752 48.182 37.1879 48.2659 37.685 48.3435C37.8559 48.3684 37.9709 48.5269 37.946 48.6977C37.9243 48.8531 37.7938 48.9618 37.6415 48.9618ZM34.5904 48.4088C34.5686 48.4088 34.5469 48.4057 34.5251 48.4026C34.0155 48.2969 33.5029 48.182 33.0026 48.0608C32.8349 48.0204 32.7323 47.8526 32.7727 47.6879C32.8131 47.5202 32.9809 47.4176 33.1456 47.458C33.6396 47.5761 34.146 47.6879 34.6494 47.7936C34.8172 47.8278 34.9259 47.9924 34.8886 48.1602C34.8638 48.3094 34.7333 48.4088 34.5904 48.4088Z" fill="#B7BCC6"/>
<path d="M43.0355 49.4619C43.0324 49.4619 43.0293 49.4619 43.0293 49.4619C42.7683 49.4556 42.5042 49.4463 42.2463 49.4339C42.0754 49.4246 41.9418 49.2785 41.9511 49.1076C41.9605 48.9368 42.1065 48.8032 42.2774 48.8125C42.5322 48.8249 42.7901 48.8342 43.0479 48.8404C43.2188 48.8435 43.3555 48.9865 43.3524 49.1574C43.3431 49.3282 43.2033 49.4619 43.0355 49.4619Z" fill="#B7BCC6"/>
<path d="M0.304171 97.6001L4.8312 90.8421C5.25065 90.2176 6.06471 89.9939 6.74516 90.3233L7.99732 90.926H18.6546L16.2218 107.543C16.2218 107.543 7.40386 108.559 0.375634 99.6725C-0.102857 99.0759 -0.121499 98.2339 0.304171 97.6001Z" fill="#C4C9D3"/>
<path d="M2.04443 101.888C2.03201 101.888 2.01958 101.888 2.00404 101.885C1.83315 101.863 1.71198 101.708 1.73373 101.537L1.8114 100.922C1.84558 100.673 1.9419 100.434 2.08483 100.235L5.78847 95.1082C6.06811 94.7198 6.52485 94.4868 7.00645 94.4868H7.34512C7.51601 94.4868 7.65583 94.6266 7.65583 94.7975C7.65583 94.9684 7.51601 95.1082 7.34512 95.1082H7.00645C6.72371 95.1082 6.4565 95.2449 6.29182 95.4718L2.59128 100.598C2.50428 100.72 2.45146 100.856 2.42971 101.005L2.35204 101.618C2.33339 101.776 2.19979 101.888 2.04443 101.888Z" fill="#DADFE9"/>
<path d="M2.28655 96.3324C2.92661 96.3324 3.4486 95.8135 3.4486 95.1704C3.4486 94.6608 3.11925 94.232 2.66251 94.0767L1.41968 95.9316C1.63096 96.1739 1.94167 96.3324 2.28655 96.3324Z" fill="#FAFFFF"/>
<path d="M34.0776 17.4682L50.3494 16.6821L41.631 25.8946L40.0898 27.2866L37.2748 24.8973L34.0776 17.4682Z" fill="#9BA0AA"/>
<path d="M42.212 18.4097C41.8702 18.4097 41.5906 18.13 41.5906 17.7883V10.499L41.9914 10.3468C42.156 10.2815 46.0554 8.72179 46.0554 4.12951C46.0554 2.05709 44.6106 1.28032 43.2591 1.24303C41.4476 1.19953 39.5026 2.43304 39.3876 4.59247C39.369 4.93425 39.0738 5.20146 38.7351 5.17971C38.3934 5.16107 38.1293 4.869 38.1479 4.52722C38.3033 1.61277 40.8915 -0.0619455 43.2932 0.00330328C45.288 0.0561237 47.3014 1.35489 47.3014 4.13262C47.3014 8.65654 44.0017 10.7352 42.8365 11.3255V17.7945C42.8334 18.1331 42.5538 18.4097 42.212 18.4097Z" fill="#9BA0AA"/>
<path d="M45.2072 17.4216C45.2072 17.0146 43.9582 16.6821 42.4171 16.6821C40.8759 16.6821 39.6269 17.0146 39.6269 17.4216V20.3019L34.0776 21.2682V27.2897H50.3494V20.4697L45.1264 19.7146L45.2072 17.4216Z" fill="#E5EAF4"/>
<path d="M69.2964 113.713L66.1489 34.2776L53.4347 20.9326H46.3319L41.634 25.8977L40.0898 27.2897L37.2748 24.8973L35.569 20.9326H31.9057L19.0517 25.5156C15.8949 26.6403 13.7355 29.5703 13.605 32.9198C13.3192 40.1717 13.1327 53.6409 14.6583 68.1386C16.9234 89.6676 15.665 111.697 15.665 111.697C15.665 111.697 23.8491 117.237 35.4292 117.488C35.4292 117.488 37.8216 111.321 37.3183 104.774C37.3183 104.774 40.3384 115.348 42.1032 118.371C42.1032 118.371 60.4816 116.103 69.2964 113.713Z" fill="#DADFE9"/>
<path d="M13.3632 47.9551C13.3632 47.9551 12.0489 79.0912 6.49339 92.1068C6.37532 92.3864 6.36289 92.6971 6.46853 92.983C7.04955 94.5489 9.42958 99.5979 16.2186 100.661V47.9551H13.3632Z" fill="#DADFE9"/>
<path d="M37.3217 105.24C37.3093 105.24 37.2937 105.24 37.2813 105.237C37.0234 105.215 36.8339 104.988 36.8587 104.734C36.8681 104.644 37.6293 95.3783 35.8085 69.3906C33.9785 43.2445 39.5961 27.2896 39.6551 27.1311C39.7421 26.8888 40.0093 26.7645 40.2517 26.8515C40.494 26.9385 40.6183 27.2057 40.5313 27.448C40.4754 27.6034 34.923 43.3936 36.7407 69.3284C38.5676 95.4155 37.7971 104.727 37.7909 104.821C37.7629 105.06 37.5609 105.24 37.3217 105.24Z" fill="#9BA0AA"/>
<path d="M42.3268 32.9476C42.97 32.9476 43.4889 32.4288 43.4889 31.7856C43.4889 31.1424 42.97 30.6235 42.3268 30.6235C41.6837 30.6235 41.1648 31.1424 41.1648 31.7856C41.1648 32.4288 41.6837 32.9476 42.3268 32.9476Z" fill="#FAFFFF"/>
<path d="M41.3515 41.4271C41.9947 41.4271 42.5136 40.9082 42.5136 40.2651C42.5136 39.6219 41.9916 39.103 41.3515 39.103C40.7083 39.103 40.1895 39.6219 40.1895 40.2651C40.1895 40.9082 40.7083 41.4271 41.3515 41.4271Z" fill="#FAFFFF"/>
<path d="M40.4721 49.1171C41.1153 49.1171 41.6342 48.5982 41.6342 47.955C41.6342 47.3119 41.1153 46.793 40.4721 46.793C39.8289 46.793 39.3101 47.3119 39.3101 47.955C39.3101 48.5982 39.8289 49.1171 40.4721 49.1171Z" fill="#FAFFFF"/>
<path d="M40.4721 57.6366C41.1153 57.6366 41.6342 57.1177 41.6342 56.4746C41.6342 55.8314 41.1153 55.3125 40.4721 55.3125C39.8289 55.3125 39.3101 55.8314 39.3101 56.4746C39.3101 57.1177 39.8289 57.6366 40.4721 57.6366Z" fill="#FAFFFF"/>
<path d="M40.8918 65.9452C41.535 65.9452 42.0538 65.4263 42.0538 64.7831C42.0538 64.14 41.5318 63.6211 40.8918 63.6211C40.2486 63.6211 39.7297 64.14 39.7297 64.7831C39.7297 65.4263 40.2486 65.9452 40.8918 65.9452Z" fill="#FAFFFF"/>
<path d="M41.249 74.3095C41.8921 74.3095 42.411 73.7906 42.411 73.1474C42.411 72.5042 41.8921 71.9854 41.249 71.9854C40.6058 71.9854 40.0869 72.5042 40.0869 73.1474C40.0869 73.7906 40.6058 74.3095 41.249 74.3095Z" fill="#FAFFFF"/>
<path d="M41.631 83.3324C42.2742 83.3324 42.7931 82.8135 42.7931 82.1703C42.7931 81.5272 42.2742 81.0083 41.631 81.0083C40.9879 81.0083 40.469 81.5272 40.469 82.1703C40.469 82.8135 40.9879 83.3324 41.631 83.3324Z" fill="#FAFFFF"/>
<path d="M41.8828 92.0199C42.5259 92.0199 43.0448 91.501 43.0448 90.8578C43.0448 90.2147 42.5228 89.6958 41.8828 89.6958C41.2396 89.6958 40.7207 90.2147 40.7207 90.8578C40.7207 91.501 41.2396 92.0199 41.8828 92.0199Z" fill="#FAFFFF"/>
<path d="M41.8828 101.198C42.5259 101.198 43.0448 100.679 43.0448 100.036C43.0448 99.3929 42.5228 98.874 41.8828 98.874C41.2396 98.874 40.7207 99.3929 40.7207 100.036C40.7207 100.679 41.2396 101.198 41.8828 101.198Z" fill="#FAFFFF"/>
<path d="M33.8041 28.9676L37.9459 24.1081C38.151 23.8658 38.1696 23.5178 37.9925 23.2537L34.0776 17.4683L28.7893 21.7188C28.7893 21.7188 30.2683 25.6741 32.9559 28.9583C33.1765 29.2224 33.5804 29.2286 33.8041 28.9676Z" fill="#C4C9D3"/>
<path d="M14.5609 68.0415C14.1438 64.2574 13.1735 57.5472 12.9698 54C12.792 56.1043 12.5 60 12.5 60C12.5 60 13.2319 66.7555 13.3871 68.1584C14.6579 79.6521 15.0873 92.132 15 100.42C15.5 100.53 15.5793 100.54 15.99 100.62C16.087 92.3073 15.8608 79.7906 14.5609 68.0415Z" fill="#9BA0AA"/>
<path d="M61.4386 47.9053C61.1466 48.0327 60.9757 48.3372 61.0192 48.651C61.3982 51.3448 62.5106 59.8241 63.0543 70.4348C63.7192 83.4162 66.3913 108.531 66.4162 108.782C66.4628 109.233 66.7238 109.631 67.1153 109.857C67.3328 109.985 67.5782 110.047 67.8268 110.047C68.0194 110.047 68.2152 110.007 68.3954 109.926L69.1318 109.603L69.0727 108.083L67.8268 108.63C67.8268 108.63 65.1423 83.4534 64.4711 70.3602C63.9212 59.6376 62.8089 51.1646 62.4236 48.449C62.3552 47.9892 61.8674 47.7188 61.4386 47.9053Z" fill="#9BA0AA"/>
<path d="M53.4316 20.9292L71.6609 27.5255C73.1243 28.0569 74.3112 29.1599 74.9451 30.5829L79.5218 40.8549C79.9164 41.7436 80.1308 42.7006 80.1526 43.6731C80.3297 51.7391 81.296 90.6957 83.7723 101.626L67.8268 108.633C67.8268 108.633 65.1422 83.4562 64.4711 70.3629C63.8 57.2697 62.2899 47.5352 62.2899 47.5352L46.6799 27.8953L53.4316 20.9292Z" fill="#DADFE9"/>
<path d="M78.214 102.183C78.0524 102.183 77.9157 102.059 77.9033 101.894C77.866 101.378 77.8287 100.859 77.7946 100.341C77.7821 100.17 77.9126 100.021 78.0835 100.008C78.2575 100.002 78.4035 100.126 78.416 100.297C78.4533 100.816 78.4874 101.332 78.5247 101.848C78.5371 102.018 78.4098 102.168 78.2358 102.18C78.2295 102.183 78.2202 102.183 78.214 102.183ZM77.9996 99.0791C77.8381 99.0791 77.7013 98.9517 77.6889 98.7902C77.6547 98.2713 77.6206 97.7524 77.5895 97.2335C77.5802 97.0626 77.7076 96.9135 77.8816 96.9042C78.0524 96.8979 78.2016 97.0222 78.2109 97.1962C78.242 97.7151 78.2762 98.234 78.3103 98.7498C78.3228 98.9207 78.1923 99.0698 78.0214 99.0791C78.0121 99.0791 78.0058 99.0791 77.9996 99.0791ZM77.8039 95.9689C77.6423 95.9689 77.5025 95.8415 77.4932 95.6769C77.4621 95.158 77.431 94.6422 77.4031 94.1233C77.3937 93.9524 77.5242 93.8064 77.6951 93.7971C77.8722 93.7909 78.012 93.9182 78.0245 94.0891C78.0555 94.608 78.0835 95.1238 78.1146 95.6427C78.1239 95.8136 77.9934 95.9596 77.8225 95.972C77.8163 95.9689 77.8101 95.9689 77.8039 95.9689ZM77.6237 92.8618C77.459 92.8618 77.3223 92.7345 77.313 92.5667C77.285 92.0478 77.257 91.532 77.2291 91.0131C77.2197 90.8422 77.3533 90.6962 77.5242 90.6869C77.6889 90.6776 77.8412 90.8081 77.8505 90.982C77.8784 91.4978 77.9064 92.0167 77.9344 92.5325C77.9437 92.7034 77.8132 92.8494 77.6423 92.8587C77.6361 92.8618 77.6299 92.8618 77.6237 92.8618ZM77.4652 89.7579C77.3005 89.7579 77.1638 89.6274 77.1545 89.4627L77.0799 87.9123C77.0706 87.7414 77.2042 87.5953 77.3751 87.586C77.5398 87.5736 77.692 87.7103 77.7013 87.8812L77.7759 89.4316C77.7852 89.6025 77.6516 89.7485 77.4807 89.7579C77.4745 89.7579 77.4683 89.7579 77.4652 89.7579ZM77.3161 86.6601C77.1514 86.6601 77.0147 86.5296 77.0054 86.3618C76.9836 85.8429 76.9587 85.3272 76.937 84.8145C76.9308 84.6436 77.0613 84.4976 77.2353 84.4914C77.4031 84.4789 77.5522 84.6156 77.5584 84.7896C77.5802 85.3054 77.6019 85.8212 77.6268 86.337C77.633 86.5079 77.5025 86.6539 77.3316 86.6601C77.3254 86.6601 77.3223 86.6601 77.3161 86.6601ZM77.1856 83.5592C77.0209 83.5592 76.8811 83.4287 76.8749 83.2609C76.8531 82.7421 76.8345 82.2232 76.8127 81.7074C76.8065 81.5365 76.9401 81.3905 77.111 81.3843C77.2912 81.3718 77.4279 81.5117 77.4341 81.6825C77.4528 82.1983 77.4745 82.7172 77.4963 83.2361C77.5025 83.407 77.3689 83.553 77.198 83.5592C77.1949 83.5592 77.1887 83.5592 77.1856 83.5592ZM77.0644 80.4521C76.8966 80.4521 76.7599 80.3216 76.7537 80.1539L76.6978 78.6003C76.6915 78.4294 76.8251 78.2834 76.996 78.2803C77.1669 78.2616 77.3098 78.4077 77.3161 78.5786L77.372 80.1321C77.3782 80.303 77.2446 80.449 77.0737 80.4553C77.0737 80.4521 77.0675 80.4521 77.0644 80.4521ZM76.9587 77.3451C76.791 77.3451 76.6543 77.2115 76.648 77.0437L76.5983 75.4901C76.5921 75.3192 76.7288 75.1763 76.8997 75.1701C77.0675 75.167 77.2135 75.3006 77.2197 75.4715L77.2695 77.025C77.2757 77.1959 77.139 77.3388 76.9681 77.3451C76.965 77.3451 76.9619 77.3451 76.9587 77.3451ZM76.8624 74.238C76.6946 74.238 76.5579 74.1044 76.5517 73.9366L76.5082 72.383C76.502 72.2122 76.6387 72.0692 76.8096 72.063C76.9867 72.0661 77.1234 72.1935 77.1296 72.3644L77.1731 73.9179C77.1794 74.0888 77.0426 74.2318 76.8718 74.238C76.8686 74.238 76.8655 74.238 76.8624 74.238ZM76.7754 71.1309C76.6077 71.1309 76.4678 70.9973 76.4647 70.8295L76.4274 69.276C76.4243 69.1051 76.5579 68.9621 76.7319 68.959C76.8997 68.9559 77.0457 69.0895 77.0489 69.2635L77.0861 70.8171C77.0892 70.988 76.9556 71.1309 76.7848 71.1371C76.7816 71.1309 76.7785 71.1309 76.7754 71.1309ZM76.7009 68.0238C76.5331 68.0238 76.3933 67.8902 76.3902 67.7193L76.356 66.1658C76.3529 65.9949 76.4896 65.8519 76.6605 65.8488C76.8283 65.8519 76.9743 65.9824 76.9774 66.1533L77.0116 67.7069C77.0147 67.8778 76.8811 68.0207 76.7071 68.0238C76.7071 68.0238 76.704 68.0238 76.7009 68.0238ZM76.6387 64.9136C76.4709 64.9136 76.3311 64.7769 76.328 64.6091L76.3 63.0556C76.2969 62.8847 76.4337 62.7418 76.6045 62.7386C76.7754 62.7355 76.9184 62.8723 76.9215 63.0431L76.9494 64.5967C76.9525 64.7676 76.8158 64.9105 76.6449 64.9136C76.6418 64.9136 76.6387 64.9136 76.6387 64.9136ZM76.5828 61.8065C76.415 61.8065 76.2752 61.6698 76.2721 61.502L76.2472 59.9485C76.2441 59.7776 76.3808 59.6347 76.5548 59.6347H76.5579C76.7288 59.6347 76.8655 59.7714 76.8686 59.9423L76.8935 61.4958C76.8966 61.6667 76.7599 61.8096 76.589 61.8127C76.5859 61.8065 76.5859 61.8065 76.5828 61.8065ZM76.5393 58.6963C76.3684 58.6963 76.2317 58.5596 76.2286 58.3887L76.2099 56.8352C76.2068 56.6643 76.3467 56.5245 76.5175 56.5214C76.6729 56.5183 76.8283 56.6581 76.8314 56.829L76.85 58.3825C76.8531 58.5534 76.7133 58.6963 76.5393 58.6963C76.5424 58.6963 76.5393 58.6963 76.5393 58.6963ZM76.502 55.5892C76.3311 55.5892 76.1944 55.4525 76.1913 55.2816L76.1789 53.725C76.1789 53.5541 76.3156 53.4143 76.4865 53.4112H76.4896C76.6605 53.4112 76.8003 53.5479 76.8003 53.7188L76.8127 55.2723C76.8158 55.4463 76.6791 55.5861 76.502 55.5892C76.5051 55.5892 76.5051 55.5892 76.502 55.5892ZM76.4771 52.4791C76.3063 52.4791 76.1664 52.3423 76.1664 52.1714L76.1571 50.6148C76.1571 50.4439 76.2938 50.3041 76.4678 50.3041C76.6387 50.3041 76.7785 50.4408 76.7785 50.6148L76.7879 52.1683C76.791 52.3361 76.6511 52.4759 76.4771 52.4791C76.4803 52.4791 76.4803 52.4791 76.4771 52.4791ZM76.4616 49.3689C76.2907 49.3689 76.1509 49.229 76.1509 49.0581C76.1478 48.5051 76.1478 47.9862 76.1478 47.5015C76.1478 47.3306 76.2876 47.1908 76.4585 47.1908C76.6294 47.1908 76.7692 47.3306 76.7692 47.5015C76.7692 47.9862 76.7723 48.5051 76.7723 49.055C76.7754 49.229 76.6356 49.3689 76.4616 49.3689C76.4647 49.3689 76.4647 49.3689 76.4616 49.3689ZM76.4585 46.2587C76.2876 46.2587 76.1478 46.1188 76.1478 45.948L76.1509 44.6399C76.1509 44.5498 76.1509 44.4783 76.1478 44.4068C76.1416 44.236 76.2783 44.093 76.4492 44.0868C76.6139 44.0744 76.763 44.2173 76.7692 44.3882C76.7723 44.4659 76.7723 44.5436 76.7723 44.6212L76.7692 45.9511C76.7692 46.1188 76.6294 46.2587 76.4585 46.2587ZM76.2472 43.1671C76.1074 43.1671 75.98 43.0708 75.9458 42.931C75.8278 42.4494 75.66 41.9802 75.4425 41.5328C75.3679 41.3774 75.4332 41.191 75.5885 41.1164C75.7439 41.0419 75.9303 41.1071 76.0049 41.2625C76.2379 41.7472 76.4212 42.2598 76.5517 42.7818C76.5921 42.9496 76.4896 43.1174 76.3249 43.1578C76.2969 43.164 76.2721 43.1671 76.2472 43.1671ZM75.0479 40.3117C74.9329 40.3117 74.8211 40.2465 74.7683 40.1377L74.0909 38.7395C74.0163 38.5842 74.0816 38.3977 74.2338 38.3232C74.3892 38.2486 74.5725 38.3138 74.6502 38.4661L75.3275 39.8643C75.4021 40.0196 75.3368 40.2061 75.1846 40.2806C75.138 40.2993 75.0945 40.3117 75.0479 40.3117ZM73.6932 37.5153C73.5782 37.5153 73.4664 37.4501 73.4136 37.3413L72.7362 35.9431C72.6617 35.7878 72.7269 35.6014 72.8791 35.5268C73.0345 35.4522 73.2178 35.5175 73.2955 35.6697L73.9728 37.0679C74.0474 37.2233 73.9822 37.4097 73.8299 37.4843C73.7833 37.5029 73.7367 37.5153 73.6932 37.5153ZM72.3385 34.719C72.2236 34.719 72.1117 34.6537 72.0589 34.545L71.3815 33.1468C71.307 32.9914 71.3722 32.805 71.5245 32.7304C71.6798 32.6558 71.8662 32.7211 71.9408 32.8733L72.6182 34.2715C72.6927 34.4269 72.6275 34.6133 72.4752 34.6879C72.4286 34.7096 72.382 34.719 72.3385 34.719ZM70.9403 31.9443C70.8409 31.9443 70.7446 31.8977 70.6824 31.8076C70.409 31.4068 70.0703 31.0619 69.6788 30.7792C69.539 30.6797 69.508 30.484 69.6074 30.3442C69.7068 30.2044 69.9026 30.1733 70.0424 30.2727C70.496 30.5958 70.8844 30.9936 71.1982 31.4565C71.2945 31.5994 71.2572 31.7921 71.1174 31.8884C71.0615 31.9288 70.9994 31.9443 70.9403 31.9443ZM68.4733 30.1546C68.436 30.1546 68.3987 30.1484 68.3614 30.1329L66.9135 29.5736C66.752 29.5115 66.6743 29.3313 66.7364 29.1728C66.7986 29.0143 66.9788 28.9336 67.1373 28.9957L68.5852 29.555C68.7467 29.6171 68.8244 29.7973 68.7623 29.9558C68.7125 30.077 68.5976 30.1546 68.4733 30.1546ZM65.5744 29.033C65.5371 29.033 65.4998 29.0268 65.4625 29.0112L64.0146 28.452C63.8531 28.3898 63.7754 28.2096 63.8375 28.0511C63.8997 27.8896 64.0799 27.8119 64.2383 27.874L65.6862 28.4333C65.8478 28.4955 65.9255 28.6757 65.8633 28.8341C65.8167 28.9584 65.6987 29.033 65.5744 29.033ZM62.6755 27.9113C62.6382 27.9113 62.6009 27.9051 62.5636 27.8896L61.1157 27.3303C60.9541 27.2682 60.8765 27.0879 60.9386 26.9295C61.0008 26.771 61.181 26.6902 61.3394 26.7524L62.7873 27.3117C62.9489 27.3738 63.0266 27.554 62.9644 27.7125C62.9178 27.8368 62.7998 27.9113 62.6755 27.9113ZM59.7766 26.7928C59.7393 26.7928 59.702 26.7866 59.6647 26.771L58.2168 26.2118C58.0552 26.1496 57.9776 25.9694 58.0397 25.8109C58.1018 25.6525 58.2821 25.5717 58.4405 25.6338L59.8884 26.1931C60.05 26.2552 60.1277 26.4355 60.0655 26.5939C60.0189 26.7151 59.9008 26.7928 59.7766 26.7928ZM56.8808 25.6711C56.8435 25.6711 56.8062 25.6649 56.7689 25.6494L55.321 25.0901C55.1594 25.028 55.0818 24.8477 55.1439 24.6893C55.206 24.5308 55.3863 24.45 55.5447 24.5122L56.9926 25.0714C57.1542 25.1336 57.2319 25.3138 57.1697 25.4723C57.1231 25.5965 57.005 25.6711 56.8808 25.6711ZM53.9819 24.5495C53.9446 24.5495 53.9073 24.5432 53.87 24.5277L52.4221 23.9684C52.2605 23.9063 52.1828 23.7261 52.245 23.5676C52.3071 23.4061 52.4873 23.3284 52.6458 23.3905L54.0937 23.9498C54.2553 24.0119 54.3329 24.1921 54.2708 24.3506C54.2242 24.4749 54.1061 24.5495 53.9819 24.5495ZM51.0829 23.4309C51.0457 23.4309 51.0084 23.4247 50.9711 23.4092L49.5232 22.8499C49.3616 22.7877 49.2839 22.6075 49.3461 22.4491C49.4082 22.2906 49.5884 22.2098 49.7469 22.272L51.1948 22.8312C51.3564 22.8934 51.434 23.0736 51.3719 23.2321C51.3253 23.3563 51.2072 23.4309 51.0829 23.4309Z" fill="#B7BCC6"/>
<path d="M41.0749 23.7725L50.3496 16.6821L55.9827 21.4018L45.9996 30.7852C45.4745 31.2792 44.6263 31.1518 44.2721 30.5242C43.3742 28.9334 41.8175 26.1867 40.904 24.6549C40.7269 24.3597 40.8015 23.9807 41.0749 23.7725Z" fill="#C4C9D3"/>
<path d="M66.615 106.903C69.2126 105.147 76.6292 100.487 84.0023 99.135C84.9841 98.9548 85.9225 99.6197 86.1027 100.602L88.0539 111.321L68.7931 119.253L65.947 108.699C65.7637 108.018 66.0309 107.297 66.615 106.903Z" fill="#C4C9D3"/>
<path d="M79.059 116.929C84.3722 114.77 88.3772 112.275 88.0043 111.358C87.6315 110.442 83.0206 111.449 77.7106 113.608C72.3975 115.767 68.3924 118.262 68.7653 119.179C69.1381 120.099 73.7459 119.089 79.059 116.929Z" fill="#C4C9D3"/>
<path d="M77.3843 108.49C77.9933 108.49 78.4873 107.996 78.4873 107.387C78.4873 106.778 77.9933 106.284 77.3843 106.284C76.7753 106.284 76.2812 106.778 76.2812 107.387C76.2812 107.996 76.7753 108.49 77.3843 108.49Z" fill="#FAFFFF"/>
<path d="M80.0098 114.341C79.9632 114.341 79.9135 114.332 79.87 114.307C79.7178 114.229 79.6556 114.043 79.7333 113.89L81.1595 111.066C81.3148 110.774 81.3583 110.441 81.2869 110.131L79.5189 102.525C79.3729 101.891 78.9534 101.359 78.3693 101.07C78.2139 100.993 78.1518 100.806 78.2295 100.654C78.3072 100.502 78.4936 100.437 78.6458 100.514C79.3977 100.887 79.9353 101.568 80.1248 102.385L81.8927 109.991C81.9984 110.451 81.9362 110.935 81.7125 111.355L80.2895 114.173C80.2336 114.279 80.1217 114.341 80.0098 114.341Z" fill="#DADFE9"/>
<path d="M78.8197 116.339C83.154 114.577 86.4724 112.672 86.2332 112.082C85.9939 111.492 82.2872 112.442 77.9528 114.204C73.6184 115.966 70.3 117.87 70.5393 118.461C70.7785 119.048 74.4853 118.1 78.8197 116.339Z" fill="#9BA0AA"/>
<path d="M26.5026 58.9075C26.3908 58.9075 26.2789 58.9013 26.1671 58.8889L19.8038 58.2208C18.1539 58.05 16.908 56.6673 16.908 55.0081V41.3307H17.1876L17.2187 41.02H17.5294V41.0697C18.8406 41.2903 24.8093 42.2691 29.4482 42.6264L29.734 42.6481V55.6793C29.734 56.5927 29.3456 57.4689 28.6652 58.081C28.0717 58.6123 27.2981 58.9075 26.5026 58.9075ZM17.5325 41.6974V55.0081C17.5325 56.3504 18.5361 57.4658 19.869 57.6056L26.2323 58.2737C26.9656 58.3513 27.702 58.1121 28.2519 57.6181C28.8019 57.124 29.1157 56.4187 29.1157 55.6793V43.2229C24.6104 42.8532 19.0021 41.9428 17.5325 41.6974Z" fill="#B7BCC6"/>
<path d="M17.9646 45.242C17.9366 45.242 17.9087 45.2389 17.8838 45.2296C17.3991 45.0991 17.1288 45.0152 17.1288 45.0152C16.9641 44.9655 16.8709 44.7915 16.9206 44.6268C16.9703 44.4621 17.1443 44.3689 17.309 44.4186C17.3121 44.4186 17.5762 44.4994 18.0454 44.6268C18.21 44.6734 18.3095 44.8443 18.2629 45.009C18.2256 45.1488 18.1013 45.242 17.9646 45.242Z" fill="#B7BCC6"/>
<path d="M27.1086 50.8793C27.0993 50.8793 27.0899 50.8793 27.0806 50.8793C26.5742 50.8358 26.0522 50.7829 25.5271 50.7177C25.3562 50.6959 25.235 50.5437 25.2568 50.3728C25.2785 50.2019 25.4339 50.0807 25.6016 50.1025C26.1174 50.1646 26.6332 50.2175 27.1334 50.261C27.3043 50.2765 27.4317 50.4256 27.4162 50.5965C27.4037 50.755 27.267 50.8793 27.1086 50.8793ZM24.0295 50.5095C24.0139 50.5095 23.9984 50.5095 23.9828 50.5064C23.4795 50.4287 22.9606 50.3448 22.4448 50.2485C22.2771 50.2175 22.1652 50.0559 22.1932 49.8881C22.2242 49.7203 22.3858 49.6054 22.5536 49.6364C23.0632 49.7296 23.5758 49.8135 24.073 49.8912C24.2438 49.9161 24.3588 50.0745 24.3339 50.2454C24.3122 50.4008 24.1817 50.5095 24.0295 50.5095ZM20.9783 49.9565C20.9565 49.9565 20.9348 49.9534 20.913 49.9502C20.4035 49.8446 19.8908 49.7296 19.3906 49.6085C19.2228 49.5681 19.1203 49.4003 19.1606 49.2356C19.201 49.0709 19.3688 48.9653 19.5335 49.0057C20.0275 49.1238 20.534 49.2356 21.0373 49.3413C21.2051 49.3754 21.3139 49.5401 21.2766 49.7079C21.2517 49.857 21.1212 49.9565 20.9783 49.9565Z" fill="#B7BCC6"/>
<path d="M29.4235 46.0099C29.4204 46.0099 29.4172 46.0099 29.4172 46.0099C29.1562 46.0037 28.8921 45.9944 28.6343 45.982C28.4634 45.9727 28.3298 45.8266 28.3391 45.6557C28.3484 45.4848 28.4944 45.3544 28.6653 45.3606C28.9201 45.373 29.178 45.3823 29.4359 45.3885C29.6068 45.3916 29.7435 45.5346 29.7404 45.7055C29.7311 45.8763 29.5912 46.0099 29.4235 46.0099Z" fill="#B7BCC6"/>
<path d="M42.212 11.5493C41.9604 11.5493 41.7242 11.397 41.631 11.1485C41.5098 10.8284 41.6683 10.4711 41.9883 10.3468C42.153 10.2816 46.0555 8.71872 46.0555 4.12955C46.0555 2.06645 44.62 1.28657 43.2747 1.24307C42.9329 1.23064 42.6626 0.944788 42.6719 0.603009C42.6812 0.261229 42.9608 -0.00908725 43.3119 0.000234004C45.2943 0.0623757 47.2983 1.36424 47.2983 4.12955C47.2983 9.59492 42.4823 11.4902 42.4326 11.5089C42.3612 11.5337 42.2866 11.5493 42.212 11.5493Z" fill="#9BA0AA"/>
</g>
<path d="M39.9448 100.443L61.952 53.3794L70.3975 46.717C70.3975 46.717 81.334 43.4386 93.2574 43.8946L104.357 52.7122C104.357 52.7122 105.037 66.2578 106.881 72.6562C108.726 79.0546 113.875 91.5826 115.231 97.0594L39.9448 100.443Z" fill="#C4C9D3"/>
<path d="M72.0215 68.3892C78.0271 68.3892 82.8957 63.5109 82.8957 57.4932C82.8957 51.4755 78.0271 46.5972 72.0215 46.5972C66.0158 46.5972 61.1472 51.4755 61.1472 57.4932C61.1472 63.5109 66.0158 68.3892 72.0215 68.3892Z" fill="#C4C9D3"/>
<path d="M93.4827 65.8164C99.4883 65.8164 104.357 60.9381 104.357 54.9204C104.357 48.9027 99.4883 44.0244 93.4827 44.0244C87.477 44.0244 82.6084 48.9027 82.6084 54.9204C82.6084 60.9381 87.477 65.8164 93.4827 65.8164Z" fill="#C4C9D3"/>
<path d="M56.3522 122.187C65.7708 122.187 73.4061 114.537 73.4061 105.099C73.4061 95.6618 65.7708 88.0112 56.3522 88.0112C46.9336 88.0112 39.2983 95.6618 39.2983 105.099C39.2983 114.537 46.9336 122.187 56.3522 122.187Z" fill="#C4C9D3"/>
<path d="M99.6574 121.127C109.076 121.127 116.711 113.476 116.711 104.039C116.711 94.6012 109.076 86.9507 99.6574 86.9507C90.2388 86.9507 82.6035 94.6012 82.6035 104.039C82.6035 113.476 90.2388 121.127 99.6574 121.127Z" fill="#C4C9D3"/>
<path d="M71.6815 47.3644C73.5229 47.3644 75.0157 45.8688 75.0157 44.024C75.0157 42.1791 73.5229 40.6836 71.6815 40.6836C69.8402 40.6836 68.3474 42.1791 68.3474 44.024C68.3474 45.8688 69.8402 47.3644 71.6815 47.3644Z" fill="#C4C9D3"/>
<path d="M94.8861 45.6363C96.7275 45.6363 98.2203 44.1408 98.2203 42.2959C98.2203 40.4511 96.7275 38.9556 94.8861 38.9556C93.0447 38.9556 91.552 40.4511 91.552 42.2959C91.552 44.1408 93.0447 45.6363 94.8861 45.6363Z" fill="#C4C9D3"/>
<path d="M70.3162 40.9763C70.3162 40.9763 77.6982 35.7203 96.0886 39.1811L93.4826 46.9139L71.3988 49.3571L70.3162 40.9763Z" fill="#C4C9D3"/>
<path d="M89.6695 44.0244C89.6695 44.0244 95.2073 45.1092 93.8228 52.7124C92.4384 60.3156 79.557 78.2916 88.3953 86.6916" stroke="#848993" stroke-width="1.91976" stroke-miterlimit="10" stroke-linecap="round"/>
<path d="M93.2576 43.8945C93.2576 43.8945 100.108 47.5233 99.1498 57.4929C98.1917 67.4625 94.7857 77.6337 100.429 86.0961" stroke="#848993" stroke-width="1.91976" stroke-miterlimit="10" stroke-linecap="round"/>
<path d="M44.4143 117.296C44.4143 117.296 53.5688 132.469 74.0957 132.469C102.249 132.469 109.368 119.49 112.036 115.789C114.704 112.088 102.024 87.1138 102.024 87.1138L58.9101 92.4898L44.4143 117.296Z" fill="#C4C9D3"/>
<path d="M61.5593 112.939C61.5593 113.096 61.5919 113.223 61.6572 113.319C61.7263 113.415 61.8031 113.492 61.8875 113.549C61.9759 113.603 62.0603 113.641 62.141 113.664C62.2254 113.687 62.283 113.701 62.3137 113.705C62.3444 113.712 62.3656 113.726 62.3771 113.745C62.3924 113.76 62.3982 113.778 62.3944 113.797C62.3905 113.816 62.379 113.833 62.3598 113.849C62.3444 113.864 62.3214 113.872 62.2907 113.872H59.2728C59.2421 113.872 59.2172 113.864 59.198 113.849C59.1826 113.833 59.173 113.816 59.1692 113.797C59.1653 113.778 59.1692 113.76 59.1807 113.745C59.196 113.726 59.2191 113.712 59.2498 113.705C59.2805 113.701 59.3362 113.687 59.4168 113.664C59.5013 113.641 59.5858 113.603 59.6702 113.549C59.7585 113.492 59.8353 113.415 59.9006 113.319C59.9697 113.223 60.0043 113.096 60.0043 112.939V106.483C60.0043 106.433 59.9812 106.402 59.9351 106.39C59.9275 106.39 59.8987 106.385 59.8488 106.373C59.8027 106.362 59.7489 106.348 59.6875 106.333C59.6261 106.317 59.5685 106.304 59.5147 106.292C59.4648 106.281 59.4341 106.273 59.4226 106.269C59.3727 106.258 59.3458 106.233 59.3419 106.195C59.3419 106.152 59.3707 106.124 59.4283 106.108C59.5781 106.074 59.7393 106.028 59.9121 105.97C60.0887 105.909 60.2653 105.841 60.442 105.768C60.6186 105.692 60.7894 105.611 60.9545 105.526C61.1196 105.438 61.2675 105.35 61.398 105.262C61.4326 105.239 61.4671 105.229 61.5017 105.233C61.5401 105.237 61.5593 105.265 61.5593 105.319V112.939Z" fill="white"/>
<path d="M67.7224 113.342C67.7762 113.33 67.8184 113.342 67.8491 113.376C67.8798 113.407 67.8818 113.449 67.8549 113.503C67.8318 113.545 67.7934 113.595 67.7397 113.653C67.6898 113.71 67.6207 113.764 67.5324 113.814C67.4479 113.864 67.3423 113.906 67.2156 113.941C67.0927 113.975 66.9468 113.993 66.7779 113.993C66.5437 113.993 66.3459 113.947 66.1847 113.854C66.0273 113.758 65.9178 113.649 65.8564 113.526C65.8411 113.495 65.818 113.482 65.7873 113.486C65.7604 113.49 65.7374 113.501 65.7182 113.52C65.7067 113.532 65.6702 113.565 65.6088 113.618C65.5512 113.668 65.4667 113.724 65.3554 113.785C65.2478 113.843 65.1173 113.895 64.9637 113.941C64.8101 113.991 64.6335 114.016 64.4339 114.016C64.0922 114.016 63.8042 113.968 63.57 113.872C63.3396 113.776 63.1515 113.653 63.0056 113.503C62.8635 113.35 62.7598 113.179 62.6946 112.991C62.6331 112.799 62.6024 112.608 62.6024 112.42C62.6024 112.117 62.6869 111.852 62.8558 111.626C63.0286 111.399 63.2513 111.23 63.5239 111.119C63.6698 111.061 63.8215 111.021 63.9789 110.998C64.1401 110.971 64.2995 110.944 64.4569 110.917C64.6143 110.89 64.7679 110.858 64.9176 110.819C65.0712 110.777 65.2152 110.71 65.3496 110.618C65.4917 110.522 65.5896 110.399 65.6433 110.249C65.7009 110.099 65.7297 109.94 65.7297 109.771C65.7297 109.648 65.7124 109.531 65.6779 109.42C65.6472 109.305 65.6011 109.205 65.5396 109.12C65.4821 109.036 65.4129 108.969 65.3323 108.919C65.2555 108.869 65.1711 108.844 65.0789 108.844C64.9138 108.844 64.7929 108.886 64.7161 108.971C64.6393 109.055 64.5778 109.157 64.5318 109.276C64.4895 109.395 64.4492 109.52 64.4108 109.65C64.3724 109.777 64.311 109.886 64.2265 109.978C64.1574 110.051 64.0672 110.107 63.9558 110.145C63.8483 110.18 63.7447 110.197 63.6448 110.197C63.5412 110.197 63.449 110.18 63.3684 110.145C63.2878 110.111 63.2187 110.065 63.1611 110.007C63.1035 109.946 63.0593 109.877 63.0286 109.8C63.0017 109.719 62.9883 109.635 62.9883 109.546C62.9883 109.427 63.0171 109.308 63.0747 109.189C63.1323 109.07 63.234 108.963 63.3799 108.867C63.5297 108.771 63.7293 108.694 63.9789 108.636C64.2285 108.575 64.5452 108.544 64.9292 108.544C65.3554 108.544 65.7182 108.588 66.0177 108.677C66.321 108.761 66.5667 108.886 66.7549 109.051C66.9468 109.216 67.0851 109.422 67.1695 109.667C67.2578 109.909 67.302 110.186 67.302 110.497C67.302 110.869 67.2905 111.219 67.2674 111.545C67.2444 111.871 67.2271 112.161 67.2156 112.415C67.2079 112.664 67.2137 112.871 67.2329 113.037C67.2521 113.198 67.3058 113.298 67.3941 113.336C67.4325 113.355 67.4805 113.365 67.5381 113.365C67.5957 113.361 67.6571 113.353 67.7224 113.342ZM65.7239 110.767C65.7239 110.744 65.7143 110.729 65.6952 110.721C65.676 110.714 65.6587 110.719 65.6433 110.739C65.6126 110.773 65.5838 110.806 65.5569 110.837C65.5339 110.867 65.5013 110.904 65.459 110.946C65.3861 111.023 65.3112 111.096 65.2344 111.165C65.1576 111.23 65.0808 111.297 65.004 111.366C64.9272 111.428 64.8505 111.489 64.7737 111.551C64.7007 111.612 64.6316 111.679 64.5663 111.752C64.4665 111.867 64.3916 111.994 64.3417 112.132C64.2956 112.267 64.2726 112.411 64.2726 112.564C64.2726 112.668 64.288 112.774 64.3187 112.881C64.3494 112.985 64.3955 113.079 64.4569 113.163C64.5222 113.244 64.6028 113.311 64.6988 113.365C64.7986 113.415 64.9176 113.44 65.0559 113.44C65.1941 113.44 65.3054 113.411 65.3899 113.353C65.4782 113.296 65.5454 113.227 65.5915 113.146C65.6414 113.065 65.676 112.985 65.6952 112.904C65.7143 112.82 65.7239 112.754 65.7239 112.708V110.767Z" fill="white"/>
<path d="M74.4075 113.705C74.4382 113.712 74.4593 113.726 74.4709 113.745C74.4862 113.76 74.492 113.778 74.4881 113.797C74.4843 113.816 74.4728 113.833 74.4536 113.849C74.4382 113.864 74.4152 113.872 74.3845 113.872H72.2996C72.2574 113.872 72.2228 113.862 72.1959 113.843C72.1729 113.824 72.1614 113.793 72.1614 113.751V113.411C72.0001 113.572 71.7909 113.714 71.5336 113.837C71.2764 113.956 70.9577 114.016 70.5776 114.016C70.2627 114.016 69.9978 113.981 69.7828 113.912C69.5716 113.843 69.395 113.751 69.2529 113.636C69.1147 113.52 69.0072 113.388 68.9304 113.238C68.8575 113.088 68.8037 112.933 68.7692 112.772C68.7385 112.61 68.7193 112.451 68.7116 112.294C68.7077 112.132 68.7058 111.983 68.7058 111.844V109.593C68.7058 109.439 68.6751 109.316 68.6137 109.224C68.5522 109.128 68.4812 109.055 68.4006 109.005C68.3238 108.951 68.247 108.915 68.1702 108.896C68.0972 108.876 68.0454 108.863 68.0147 108.855C67.984 108.852 67.9629 108.84 67.9513 108.821C67.936 108.802 67.9302 108.782 67.9341 108.763C67.9379 108.744 67.9494 108.727 67.9686 108.711C67.984 108.696 68.007 108.688 68.0377 108.688H70.1226C70.2147 108.688 70.2608 108.738 70.2608 108.838V112.207C70.2647 112.361 70.2781 112.514 70.3011 112.668C70.328 112.822 70.3741 112.962 70.4394 113.088C70.5085 113.211 70.6025 113.311 70.7216 113.388C70.8444 113.465 71.0076 113.503 71.2111 113.503C71.4261 113.503 71.5951 113.459 71.7179 113.371C71.8446 113.278 71.9406 113.163 72.0059 113.025C72.0712 112.887 72.1134 112.735 72.1326 112.57C72.1518 112.401 72.1614 112.24 72.1614 112.086V109.593C72.1614 109.439 72.1307 109.316 72.0692 109.224C72.0078 109.128 71.9368 109.055 71.8561 109.005C71.7794 108.951 71.7026 108.915 71.6258 108.896C71.5528 108.876 71.501 108.863 71.4703 108.855C71.4396 108.852 71.4165 108.84 71.4012 108.821C71.3896 108.802 71.3858 108.782 71.3896 108.763C71.3935 108.744 71.4031 108.727 71.4184 108.711C71.4376 108.696 71.4626 108.688 71.4933 108.688H73.5782C73.6703 108.688 73.7164 108.738 73.7164 108.838V112.967C73.7164 113.121 73.7471 113.246 73.8085 113.342C73.87 113.434 73.9391 113.507 74.0159 113.561C74.0965 113.611 74.1733 113.647 74.2462 113.67C74.323 113.689 74.3768 113.701 74.4075 113.705Z" fill="white"/>
<path d="M81.1835 113.705C81.2142 113.712 81.2353 113.726 81.2468 113.745C81.2622 113.76 81.2679 113.778 81.2641 113.797C81.2603 113.816 81.2487 113.833 81.2296 113.849C81.2142 113.864 81.1912 113.872 81.1604 113.872H80.4924H80.4405H78.9892H78.9374H78.2693C78.2386 113.872 78.2136 113.864 78.1944 113.849C78.1791 113.833 78.1695 113.816 78.1656 113.797C78.1618 113.778 78.1656 113.76 78.1771 113.745C78.1925 113.726 78.2155 113.712 78.2462 113.705C78.277 113.701 78.3288 113.689 78.4017 113.67C78.4785 113.647 78.5553 113.611 78.6321 113.561C78.7127 113.507 78.7838 113.434 78.8452 113.342C78.9066 113.246 78.9374 113.121 78.9374 112.967V110.854V110.808V110.485C78.9335 110.324 78.9201 110.159 78.897 109.99C78.8778 109.817 78.8337 109.662 78.7646 109.523C78.6993 109.381 78.6014 109.266 78.4709 109.178C78.3442 109.086 78.1733 109.04 77.9583 109.04C77.7356 109.04 77.5628 109.084 77.4399 109.172C77.3171 109.26 77.2249 109.37 77.1635 109.5C77.1059 109.631 77.0694 109.771 77.0541 109.921C77.0426 110.067 77.0368 110.197 77.0368 110.312V112.967C77.0368 113.121 77.0675 113.246 77.1289 113.342C77.1904 113.434 77.2595 113.507 77.3363 113.561C77.4169 113.611 77.4937 113.647 77.5666 113.67C77.6434 113.689 77.6972 113.701 77.7279 113.705C77.7586 113.712 77.7797 113.726 77.7913 113.745C77.8066 113.76 77.8124 113.778 77.8085 113.797C77.8047 113.816 77.7932 113.833 77.774 113.849C77.7586 113.864 77.7356 113.872 77.7049 113.872H74.8137C74.783 113.872 74.758 113.864 74.7388 113.849C74.7235 113.833 74.7139 113.816 74.71 113.797C74.7062 113.778 74.71 113.76 74.7216 113.745C74.7369 113.726 74.76 113.712 74.7907 113.705C74.8214 113.701 74.8732 113.689 74.9462 113.67C75.023 113.647 75.0998 113.611 75.1765 113.561C75.2572 113.507 75.3282 113.434 75.3896 113.342C75.4511 113.246 75.4818 113.121 75.4818 112.967V109.765C75.4818 109.715 75.4588 109.685 75.4127 109.673C75.405 109.673 75.3762 109.667 75.3263 109.656C75.2802 109.644 75.2265 109.631 75.165 109.616C75.1036 109.6 75.046 109.587 74.9922 109.575C74.9423 109.564 74.9116 109.556 74.9001 109.552C74.8502 109.541 74.8233 109.516 74.8195 109.477C74.8195 109.435 74.8483 109.406 74.9059 109.391C75.0556 109.356 75.2169 109.31 75.3896 109.253C75.5663 109.191 75.7429 109.124 75.9195 109.051C76.0961 108.974 76.267 108.894 76.4321 108.809C76.5972 108.721 76.745 108.633 76.8755 108.544C76.9101 108.521 76.9446 108.512 76.9792 108.516C77.0176 108.519 77.0368 108.548 77.0368 108.602V109.097C77.1174 109.024 77.2096 108.955 77.3132 108.89C77.4169 108.821 77.5321 108.761 77.6588 108.711C77.7893 108.661 77.9333 108.621 78.0907 108.59C78.252 108.56 78.4286 108.544 78.6206 108.544C78.9354 108.544 79.1984 108.579 79.4096 108.648C79.6246 108.717 79.8013 108.809 79.9395 108.924C80.0815 109.04 80.189 109.172 80.262 109.322C80.3388 109.472 80.3925 109.627 80.4233 109.788C80.4578 109.95 80.477 110.111 80.4808 110.272C80.4885 110.43 80.4924 110.577 80.4924 110.716V110.744V112.967C80.4924 113.121 80.5231 113.246 80.5845 113.342C80.6459 113.434 80.7151 113.507 80.7918 113.561C80.8725 113.611 80.9493 113.647 81.0222 113.67C81.099 113.689 81.1528 113.701 81.1835 113.705Z" fill="white"/>
<path d="M87.7118 113.705C87.7425 113.712 87.7636 113.726 87.7752 113.745C87.7905 113.76 87.7963 113.778 87.7924 113.797C87.7886 113.816 87.7771 113.833 87.7579 113.849C87.7425 113.864 87.7195 113.872 87.6888 113.872H85.6039C85.5617 113.872 85.5271 113.862 85.5002 113.843C85.4772 113.824 85.4657 113.793 85.4657 113.751V113.244C85.4657 113.217 85.4561 113.2 85.4369 113.192C85.4177 113.184 85.4004 113.19 85.3851 113.209C85.3505 113.252 85.2929 113.319 85.2123 113.411C85.1316 113.499 85.0203 113.589 84.8782 113.682C84.74 113.77 84.5672 113.847 84.3599 113.912C84.1564 113.981 83.9164 114.016 83.64 114.016C83.3328 114.016 83.0641 113.975 82.8337 113.895C82.6033 113.814 82.4037 113.705 82.2347 113.566C82.0696 113.428 81.9314 113.271 81.8201 113.094C81.7125 112.918 81.6262 112.731 81.5609 112.536C81.4995 112.34 81.4553 112.144 81.4284 111.948C81.4054 111.752 81.3939 111.568 81.3939 111.395C81.3939 110.965 81.4457 110.575 81.5494 110.226C81.6569 109.873 81.8162 109.571 82.0274 109.322C82.2424 109.072 82.5093 108.88 82.8279 108.746C83.1505 108.612 83.5286 108.544 83.9625 108.544C84.2044 108.544 84.4137 108.56 84.5903 108.59C84.7669 108.617 84.9128 108.65 85.028 108.688C85.1432 108.723 85.2296 108.757 85.2871 108.792C85.3447 108.823 85.3774 108.84 85.3851 108.844C85.4043 108.859 85.4215 108.863 85.4369 108.855C85.4561 108.848 85.4657 108.834 85.4657 108.815V106.483C85.4657 106.433 85.4426 106.402 85.3966 106.39C85.3889 106.39 85.3601 106.385 85.3102 106.373C85.2641 106.362 85.2104 106.348 85.1489 106.333C85.0875 106.317 85.0299 106.304 84.9761 106.292C84.9262 106.281 84.8955 106.273 84.884 106.269C84.8341 106.258 84.8072 106.233 84.8034 106.195C84.8034 106.152 84.8322 106.124 84.8898 106.108C85.0395 106.074 85.2008 106.028 85.3735 105.97C85.5502 105.909 85.7268 105.841 85.9034 105.768C86.08 105.692 86.2509 105.611 86.416 105.526C86.5811 105.438 86.7289 105.35 86.8594 105.262C86.894 105.239 86.9285 105.229 86.9631 105.233C87.0015 105.237 87.0207 105.265 87.0207 105.319V112.967C87.0207 113.121 87.0514 113.246 87.1128 113.342C87.1743 113.434 87.2434 113.507 87.3202 113.561C87.4008 113.611 87.4776 113.647 87.5505 113.67C87.6273 113.689 87.6811 113.701 87.7118 113.705ZM85.4599 110.445C85.4599 110.349 85.4522 110.243 85.4369 110.128C85.4254 110.013 85.4023 109.898 85.3678 109.783C85.3371 109.664 85.2929 109.55 85.2353 109.443C85.1816 109.335 85.1124 109.239 85.028 109.155C84.9435 109.07 84.8437 109.003 84.7285 108.953C84.6133 108.899 84.4808 108.873 84.3311 108.873C84.1046 108.873 83.9107 108.93 83.7494 109.045C83.5882 109.161 83.4576 109.32 83.3578 109.523C83.258 109.723 83.185 109.961 83.1389 110.238C83.0929 110.51 83.0698 110.806 83.0698 111.125C83.0698 111.209 83.0698 111.324 83.0698 111.47C83.0737 111.612 83.0852 111.766 83.1044 111.931C83.1274 112.096 83.162 112.263 83.208 112.432C83.2541 112.601 83.3213 112.752 83.4096 112.887C83.4979 113.021 83.6112 113.133 83.7494 113.221C83.8876 113.305 84.0585 113.348 84.262 113.348C84.5231 113.348 84.7323 113.3 84.8898 113.204C85.0472 113.108 85.1681 112.991 85.2526 112.852C85.3371 112.714 85.3927 112.568 85.4196 112.415C85.4465 112.257 85.4599 112.119 85.4599 112V110.445Z" fill="white"/>
<path d="M91.6071 108.544C91.7683 108.544 91.9046 108.565 92.016 108.608C92.1273 108.646 92.2175 108.7 92.2867 108.769C92.3558 108.834 92.4057 108.913 92.4364 109.005C92.4671 109.093 92.4825 109.187 92.4825 109.287C92.4825 109.472 92.423 109.616 92.3039 109.719C92.1887 109.823 92.0332 109.875 91.8374 109.875C91.6877 109.875 91.5706 109.848 91.4861 109.794C91.4016 109.74 91.3287 109.683 91.2673 109.621C91.2097 109.556 91.1559 109.497 91.106 109.443C91.0561 109.389 90.9947 109.362 90.9217 109.362C90.8564 109.362 90.7854 109.385 90.7086 109.431C90.6357 109.474 90.5665 109.556 90.5013 109.679C90.4398 109.802 90.388 109.971 90.3458 110.186C90.3035 110.401 90.2824 110.679 90.2824 111.021V113.014C90.2824 113.167 90.3074 113.288 90.3573 113.376C90.411 113.465 90.4706 113.532 90.5358 113.578C90.6049 113.624 90.6721 113.657 90.7374 113.676C90.8027 113.691 90.8507 113.701 90.8814 113.705C90.9121 113.712 90.9332 113.726 90.9447 113.745C90.9601 113.76 90.9659 113.778 90.962 113.797C90.9582 113.816 90.9467 113.833 90.9275 113.849C90.9121 113.864 90.8891 113.872 90.8583 113.872H90.2824H90.2306H88.7792H88.7274H88.1515C88.1208 113.872 88.0958 113.864 88.0766 113.849C88.0613 113.833 88.0517 113.816 88.0478 113.797C88.044 113.778 88.0478 113.76 88.0593 113.745C88.0747 113.726 88.0977 113.712 88.1284 113.705C88.1592 113.701 88.2072 113.691 88.2724 113.676C88.3377 113.657 88.403 113.624 88.4682 113.578C88.5374 113.532 88.5969 113.465 88.6468 113.376C88.7005 113.288 88.7274 113.167 88.7274 113.014V109.765C88.7274 109.715 88.7044 109.685 88.6583 109.673C88.6506 109.673 88.6218 109.667 88.5719 109.656C88.5258 109.644 88.4721 109.631 88.4107 109.616C88.3492 109.6 88.2916 109.587 88.2379 109.575C88.188 109.564 88.1572 109.556 88.1457 109.552C88.0958 109.541 88.0689 109.516 88.0651 109.477C88.0651 109.435 88.0939 109.406 88.1515 109.391C88.3012 109.356 88.4625 109.31 88.6353 109.253C88.8119 109.191 88.9885 109.124 89.1651 109.051C89.3417 108.974 89.5126 108.894 89.6777 108.809C89.8428 108.721 89.9906 108.633 90.1212 108.544C90.1557 108.521 90.1903 108.512 90.2248 108.516C90.2632 108.519 90.2824 108.548 90.2824 108.602V109.426C90.4168 109.13 90.5992 108.909 90.8296 108.763C91.0599 108.617 91.3191 108.544 91.6071 108.544Z" fill="white"/>
<path d="M93.9185 115.248L94.673 113.566C94.6115 113.424 94.5309 113.236 94.4311 113.002C94.3313 112.768 94.2218 112.514 94.1028 112.242C93.9838 111.965 93.8628 111.683 93.74 111.395C93.6171 111.107 93.5019 110.842 93.3944 110.6C93.2869 110.355 93.1948 110.145 93.118 109.973C93.0412 109.796 92.9893 109.681 92.9625 109.627C92.9049 109.516 92.8492 109.42 92.7954 109.339C92.7417 109.255 92.6841 109.182 92.6227 109.12C92.5612 109.059 92.4921 109.009 92.4153 108.971C92.3385 108.928 92.2483 108.894 92.1446 108.867C92.1139 108.859 92.0928 108.846 92.0813 108.827C92.0659 108.807 92.0602 108.788 92.064 108.769C92.064 108.746 92.0736 108.727 92.0928 108.711C92.1082 108.696 92.1312 108.688 92.1619 108.688H95.0416C95.0684 108.688 95.0915 108.696 95.1107 108.711C95.1299 108.727 95.1414 108.746 95.1452 108.769C95.1491 108.788 95.1452 108.809 95.1337 108.832C95.1222 108.852 95.0992 108.865 95.0646 108.873C95.007 108.888 94.9437 108.909 94.8745 108.936C94.8093 108.959 94.7517 108.997 94.7018 109.051C94.6519 109.101 94.6192 109.17 94.6039 109.258C94.5885 109.343 94.6019 109.454 94.6442 109.593C94.6634 109.654 94.696 109.744 94.7421 109.863C94.7882 109.982 94.84 110.113 94.8976 110.255C94.9552 110.397 95.0147 110.545 95.0761 110.698C95.1376 110.848 95.1951 110.986 95.2489 111.113C95.3027 111.236 95.3487 111.341 95.3871 111.43C95.4255 111.514 95.4486 111.562 95.4562 111.574C95.4831 111.624 95.51 111.624 95.5369 111.574C95.5484 111.547 95.5733 111.487 95.6117 111.395C95.6501 111.303 95.6924 111.194 95.7384 111.067C95.7884 110.936 95.8421 110.796 95.8997 110.646C95.9573 110.497 96.011 110.355 96.061 110.22C96.1109 110.082 96.155 109.957 96.1934 109.846C96.2357 109.731 96.2645 109.646 96.2798 109.593C96.322 109.454 96.3355 109.343 96.3201 109.258C96.3086 109.17 96.2798 109.101 96.2337 109.051C96.1877 108.997 96.132 108.959 96.0667 108.936C96.0014 108.909 95.94 108.888 95.8824 108.873C95.8479 108.865 95.8248 108.852 95.8133 108.832C95.8018 108.809 95.798 108.788 95.8018 108.769C95.8056 108.746 95.8152 108.727 95.8306 108.711C95.8498 108.696 95.8747 108.688 95.9055 108.688H97.6275C97.6544 108.688 97.6755 108.696 97.6908 108.711C97.71 108.727 97.7216 108.746 97.7254 108.769C97.7292 108.788 97.7235 108.807 97.7081 108.827C97.6966 108.846 97.6755 108.859 97.6448 108.867C97.5449 108.894 97.4566 108.928 97.3798 108.971C97.303 109.009 97.232 109.059 97.1667 109.12C97.1053 109.182 97.0477 109.255 96.994 109.339C96.9402 109.42 96.8845 109.516 96.8269 109.627C96.8039 109.673 96.754 109.779 96.6772 109.944C96.6043 110.105 96.5159 110.301 96.4123 110.531C96.3086 110.762 96.1953 111.013 96.0725 111.286C95.9496 111.558 95.8287 111.829 95.7096 112.098C95.5906 112.363 95.4773 112.614 95.3698 112.852C95.2623 113.09 95.174 113.288 95.1049 113.445L94.1143 115.657C93.9876 115.945 93.8379 116.175 93.6651 116.348C93.4962 116.521 93.285 116.607 93.0316 116.607C92.9433 116.607 92.855 116.594 92.7667 116.567C92.6783 116.544 92.5996 116.506 92.5305 116.452C92.4614 116.402 92.4038 116.335 92.3577 116.25C92.3155 116.17 92.2944 116.07 92.2944 115.951C92.2944 115.843 92.3136 115.751 92.352 115.674C92.3942 115.598 92.448 115.534 92.5132 115.484C92.5824 115.434 92.6591 115.398 92.7436 115.375C92.8281 115.352 92.9145 115.34 93.0028 115.34C93.1218 115.34 93.2255 115.358 93.3138 115.392C93.4021 115.431 93.4827 115.459 93.5557 115.479C93.6286 115.498 93.6939 115.494 93.7515 115.467C93.8091 115.444 93.8647 115.371 93.9185 115.248Z" fill="white"/>
<path d="M75.8684 45.6055L85.0181 49.1335C85.0181 49.1335 82.6852 60.6247 82.8337 66.8551L72.9702 63.3511C72.9702 63.3511 74.2972 51.5767 75.8684 45.6055Z" fill="white"/>
<path d="M74.8721 62.1656C75.2218 59.3144 76.0888 52.6568 77.1092 47.9624L83.0254 50.2424C82.4936 53.0696 81.3822 59.4248 81.1331 64.3928L74.8721 62.1656Z" fill="#444953"/>
<path d="M80.2612 48.4997C80.2612 48.4997 82.9247 41.9005 88.769 44.2762" stroke="#676C75" stroke-width="0.95988" stroke-miterlimit="10" stroke-linecap="round"/>
<defs>
<clipPath id="clip0_611_13119">
<rect width="88" height="120" fill="white"/>
</clipPath>
</defs>
</svg>
