<svg width="40" height="40" viewBox="0 0 40 40" fill="none" xmlns="http://www.w3.org/2000/svg">
    <path d="M20 1C30.4934 1 39 9.50659 39 20C39 30.4934 30.4934 39 20 39C9.50659 39 1 30.4934 1 20C1 9.50659 9.50659 1 20 1Z"
          fill="white" stroke="#0567D5" stroke-width="2"/>
    <path fill-rule="evenodd" clip-rule="evenodd"
          d="M21.7393 23.4174C21.7393 23.4174 23.089 22.6448 23.4423 22.4591C23.7946 22.2728 24.1596 22.2258 24.3813 22.3611C24.717 22.5664 27.5357 24.4415 27.773 24.6075C28.0104 24.7738 28.1247 25.2488 27.7984 25.7141C27.4734 26.1795 25.974 28.0195 25.3387 27.9998C24.7023 27.9792 22.0566 27.9212 17.0675 22.9308C12.0794 17.942 12.0204 15.2956 12.0001 14.6593C11.9798 14.0233 13.8198 12.5236 14.2851 12.1983C14.7512 11.8733 15.2268 11.9956 15.3922 12.2243C15.5802 12.4846 17.4335 15.2943 17.6375 15.6163C17.7772 15.8363 17.7259 16.2033 17.5395 16.556C17.3542 16.9093 16.5815 18.259 16.5815 18.259C16.5815 18.259 17.1262 19.188 18.9682 21.0297C20.8106 22.8718 21.7393 23.4174 21.7393 23.4174Z"
          fill="white" stroke="#0567D5" stroke-width="1.5"/>
</svg>
