<svg width="343" height="231" viewBox="0 0 343 231" fill="none" xmlns="http://www.w3.org/2000/svg">
<g clip-path="url(#clip0)">
<path d="M10.1113 165.553C10.1113 165.553 20.3973 126.465 65.2914 102.196C107.228 79.5239 165.777 0 228.08 0C276.577 0 353.612 138.626 331.021 165.553H10.1113Z" fill="#D1E6FF"/>
<path d="M318.722 107.044C304.764 98.4486 282.557 88.2031 256.036 88.2031C236.15 88.2031 213.435 97.5688 187.132 108.413C145.694 125.494 98.7289 144.856 46.9899 133.827C46.8215 133.793 46.6561 133.899 46.6187 134.067C46.5813 134.236 46.6904 134.401 46.8589 134.439C56.9141 136.582 67.1938 137.655 77.8105 137.655C91.6407 137.655 106.042 135.833 121.269 132.183C144.787 126.546 167.411 117.217 187.372 108.987C213.616 98.1678 236.278 88.8271 256.039 88.8271C282.408 88.8271 304.496 99.0164 318.382 107.565C321.087 109.231 323.592 110.9 325.888 112.519C325.751 112.169 325.614 111.817 325.473 111.464C323.383 110.014 321.134 108.529 318.722 107.044Z" fill="white"/>
<path d="M187.132 96.4239C145.694 113.508 98.7289 132.869 46.9899 121.841C46.8215 121.807 46.6561 121.913 46.6187 122.081C46.5813 122.25 46.6904 122.415 46.8589 122.452C56.9141 124.596 67.1938 125.669 77.8105 125.669C91.6407 125.669 106.045 123.847 121.269 120.197C144.787 114.559 167.411 105.231 187.372 97.0041C213.616 86.1846 236.278 76.8439 256.039 76.8439C282.408 76.8439 304.496 87.0332 318.382 95.5815C318.429 95.6096 318.476 95.6408 318.523 95.6689C318.357 95.3226 318.189 94.9794 318.023 94.6331C304.028 86.1285 282.124 76.22 256.039 76.22C236.153 76.2169 213.438 85.5825 187.132 96.4239Z" fill="white"/>
<path d="M201.147 38.3205C222.311 33.4317 242.39 25.654 262.713 17.3273C262.538 17.1713 262.367 17.0215 262.192 16.8687C227.746 31.0232 185.987 47.4178 140.382 41.5058C140.161 41.6867 139.942 41.8677 139.721 42.0486C146.232 42.9159 152.846 43.3527 159.597 43.3527C172.85 43.3496 186.624 41.6774 201.147 38.3205Z" fill="white"/>
<path d="M202.659 30.9891C222.77 26.9988 241.913 20.129 258.351 13.6336C258.164 13.4838 257.977 13.3341 257.793 13.1843C226.332 25.6136 190.283 37.444 151.117 33.0388C150.877 33.2197 150.64 33.4038 150.399 33.5848C156.124 34.2524 161.927 34.5862 167.833 34.5862C179.024 34.5862 190.576 33.3882 202.659 30.9891Z" fill="white"/>
<path d="M133.353 109.611C136.317 137.343 122.087 138.626 113.052 138.626C104.017 138.626 94.2088 131.637 94.1963 111.539C94.1869 94.315 102.314 58.2344 111.349 58.2344C120.384 58.2344 131.076 88.3187 133.353 109.611Z" fill="#7DB8FB"/>
<path d="M113.568 165.5C113.555 165.5 113.539 165.5 113.527 165.497C113.355 165.475 113.237 165.319 113.259 165.147C117.031 135.996 111.621 77.0096 111.568 76.4168C111.552 76.2452 111.677 76.0924 111.849 76.0768C112.023 76.0612 112.173 76.1859 112.189 76.3575C112.245 76.9503 117.661 136.005 113.88 165.225C113.855 165.384 113.72 165.5 113.568 165.5Z" fill="#DCECFF"/>
<path d="M112.516 83.7607C112.419 83.7607 112.323 83.7139 112.26 83.6297C112.161 83.4893 112.195 83.2927 112.335 83.196C112.385 83.1617 117.258 79.6831 119.264 74.2515C119.324 74.0893 119.505 74.0082 119.664 74.0675C119.826 74.1267 119.907 74.3077 119.848 74.4668C117.773 80.0825 112.9 83.5579 112.694 83.7045C112.641 83.742 112.579 83.7607 112.516 83.7607Z" fill="#DCECFF"/>
<path d="M113.602 97.8123C113.574 97.8123 113.543 97.8092 113.515 97.7998C113.43 97.7749 105.019 95.2104 101.257 87.8945C101.179 87.7416 101.238 87.5544 101.391 87.4733C101.544 87.3953 101.731 87.4546 101.812 87.6074C105.45 94.6832 113.611 97.1759 113.693 97.2008C113.858 97.2508 113.951 97.4223 113.902 97.5877C113.861 97.725 113.736 97.8123 113.602 97.8123Z" fill="#DCECFF"/>
<path d="M114.416 111.159C114.279 111.159 114.151 111.065 114.114 110.928C114.07 110.763 114.17 110.591 114.335 110.547C114.426 110.522 123.573 108.036 127.754 101.743C127.85 101.6 128.044 101.559 128.187 101.656C128.331 101.753 128.371 101.946 128.275 102.09C123.96 108.582 114.878 111.05 114.494 111.153C114.469 111.156 114.444 111.159 114.416 111.159Z" fill="#DCECFF"/>
<path d="M114.699 126.09C114.668 126.09 114.637 126.087 114.606 126.075C114.247 125.962 105.755 123.261 101.315 118.961C101.191 118.843 101.187 118.643 101.309 118.522C101.428 118.397 101.627 118.394 101.749 118.515C106.082 122.712 114.706 125.454 114.793 125.482C114.958 125.535 115.049 125.71 114.996 125.872C114.955 126.006 114.83 126.09 114.699 126.09Z" fill="#DCECFF"/>
<path d="M121.747 83.1367C121.538 83.1367 121.354 83.0432 121.23 82.8716C121.042 82.6095 121.021 82.2008 121.173 81.7547C121.367 81.1806 121.866 80.5723 122.406 80.5723C122.615 80.5723 122.799 80.6659 122.924 80.8374C123.111 81.0995 123.133 81.5082 122.98 81.9543C122.783 82.5284 122.287 83.1367 121.747 83.1367ZM122.412 81.1931C122.256 81.1931 121.922 81.4957 121.766 81.9543C121.651 82.2975 121.716 82.4909 121.744 82.5128C121.9 82.5128 122.234 82.2102 122.39 81.7516C122.506 81.4115 122.44 81.2181 122.412 81.1931Z" fill="#DCECFF"/>
<path d="M118.017 104.898C117.836 104.898 117.674 104.823 117.549 104.685C117.334 104.445 117.268 104.043 117.371 103.581C117.502 102.991 117.929 102.33 118.466 102.271C118.675 102.249 118.868 102.321 119.009 102.477C119.224 102.717 119.29 103.119 119.187 103.581C119.056 104.171 118.628 104.832 118.092 104.891C118.067 104.898 118.042 104.898 118.017 104.898ZM118.541 102.892C118.385 102.91 118.085 103.247 117.982 103.718C117.904 104.074 117.989 104.258 118.02 104.277C118.176 104.258 118.475 103.921 118.578 103.45C118.656 103.094 118.572 102.91 118.541 102.892Z" fill="#DCECFF"/>
<path d="M100.707 110.822C100.411 110.822 100.083 110.65 99.7899 110.338C99.375 109.895 99.0755 109.168 99.3282 108.694C99.428 108.51 99.5965 108.392 99.8055 108.364C100.124 108.323 100.495 108.495 100.816 108.841C101.228 109.284 101.531 110.011 101.278 110.485C101.178 110.672 101.01 110.788 100.801 110.816C100.77 110.819 100.738 110.822 100.707 110.822ZM99.8991 108.981C99.8898 108.981 99.8835 108.981 99.8804 108.984C99.8086 109.125 99.9178 109.558 100.245 109.911C100.495 110.176 100.692 110.21 100.729 110.195C100.801 110.058 100.692 109.621 100.364 109.268C100.146 109.034 99.9646 108.981 99.8991 108.981Z" fill="#DCECFF"/>
<path d="M102.155 84.5688C101.899 84.5688 101.625 84.4066 101.4 84.1227C101.097 83.7389 100.919 83.1586 101.16 82.7905C101.26 82.6376 101.415 82.5503 101.596 82.5409C101.862 82.5316 102.146 82.6907 102.38 82.987C102.682 83.3708 102.86 83.9511 102.62 84.3192C102.52 84.4721 102.364 84.5594 102.183 84.5688C102.174 84.5688 102.164 84.5688 102.155 84.5688ZM101.671 83.1805C101.665 83.2865 101.718 83.5174 101.89 83.7358C101.977 83.8481 102.055 83.9043 102.105 83.9261C102.111 83.82 102.058 83.5892 101.887 83.3708C101.799 83.2585 101.721 83.2023 101.671 83.1805Z" fill="#DCECFF"/>
<path d="M103.612 95.3602C103.247 95.3602 102.891 95.2479 102.717 94.9859C102.614 94.8299 102.592 94.6489 102.657 94.4773C102.754 94.2246 103.022 94.0218 103.4 93.922C103.887 93.7941 104.51 93.8596 104.76 94.2371C104.863 94.3931 104.885 94.5709 104.816 94.7456C104.72 94.9983 104.451 95.2011 104.074 95.301C103.93 95.3384 103.768 95.3602 103.612 95.3602ZM103.269 94.6645C103.362 94.7176 103.618 94.7768 103.918 94.6957C104.071 94.6552 104.167 94.5928 104.211 94.5522C104.117 94.4992 103.862 94.4399 103.562 94.521C103.406 94.5647 103.309 94.624 103.269 94.6645Z" fill="#DCECFF"/>
<path d="M128.181 106.935C127.816 106.935 127.46 106.822 127.285 106.56C127.182 106.404 127.16 106.223 127.229 106.052C127.326 105.799 127.594 105.596 127.968 105.496C128.455 105.369 129.079 105.434 129.329 105.812C129.432 105.968 129.453 106.145 129.385 106.32C129.288 106.573 129.02 106.776 128.642 106.875C128.499 106.913 128.34 106.935 128.181 106.935ZM127.837 106.239C127.931 106.292 128.187 106.351 128.486 106.27C128.639 106.23 128.736 106.167 128.78 106.127C128.686 106.074 128.43 106.014 128.131 106.095C127.975 106.139 127.881 106.198 127.837 106.239Z" fill="#DCECFF"/>
<path d="M107.799 67.5347C107.759 67.5347 107.718 67.5316 107.678 67.5222C107.366 67.463 107.072 67.1884 106.876 66.7641C106.626 66.2244 106.567 65.4538 106.951 65.0888C107.1 64.9453 107.297 64.886 107.5 64.9266C107.812 64.9858 108.105 65.2604 108.302 65.6815C108.551 66.2213 108.61 66.9919 108.227 67.3569C108.105 67.4723 107.958 67.5347 107.799 67.5347ZM107.378 65.538C107.272 65.641 107.244 66.0778 107.441 66.5021C107.584 66.814 107.765 66.9201 107.796 66.9108C107.899 66.8078 107.93 66.371 107.734 65.9467C107.59 65.6379 107.422 65.538 107.378 65.538Z" fill="#DCECFF"/>
<path d="M124.232 67.9952C124.538 67.199 124.438 66.4198 124.008 66.2548C123.579 66.0899 122.983 66.6016 122.677 67.3978C122.371 68.1939 122.471 68.9731 122.901 69.1381C123.33 69.303 123.926 68.7913 124.232 67.9952Z" fill="#7DB8FB"/>
<path d="M125.2 72.0934C125.704 72.0167 126.079 71.7336 126.038 71.4611C125.996 71.1885 125.554 71.0298 125.05 71.1065C124.545 71.1832 124.17 71.4663 124.212 71.7388C124.253 72.0114 124.696 72.1701 125.2 72.0934Z" fill="#7DB8FB"/>
<path d="M125.403 70.6007C126.246 70.2197 126.763 69.5416 126.557 69.0863C126.351 68.6309 125.501 68.5707 124.658 68.9517C123.814 69.3327 123.298 70.0107 123.503 70.4661C123.709 70.9214 124.56 70.9817 125.403 70.6007Z" fill="#7DB8FB"/>
<path d="M95.5017 89.4361C95.7642 89.0645 95.4179 88.3685 94.7282 87.8814C94.0386 87.3943 93.2669 87.3007 93.0044 87.6722C92.742 88.0438 93.0883 88.7398 93.7779 89.2269C94.4676 89.7139 95.2393 89.8076 95.5017 89.4361Z" fill="#7DB8FB"/>
<path d="M94.232 90.998C94.7278 90.9126 95.0923 90.626 95.0462 90.3577C95 90.0894 94.5606 89.9411 94.0648 90.0264C93.5689 90.1117 93.2044 90.3984 93.2506 90.6667C93.2968 90.935 93.7361 91.0833 94.232 90.998Z" fill="#7DB8FB"/>
<path d="M87.0334 110.553C87.0584 139.215 72.2517 137.178 62.9048 137.178C53.5578 137.178 42.7883 129.363 45.2966 108.6C48.1637 84.8556 60.3091 54.1255 69.6592 54.1255C79.0092 54.1255 87.0116 86.0848 87.0334 110.553Z" fill="#7DB8FB"/>
<path d="M63.9251 165.865C63.7753 165.865 63.6412 165.755 63.6162 165.603C57.9413 130.137 67.9933 66.714 68.0931 66.0775C68.1212 65.909 68.2803 65.7905 68.4519 65.8186C68.6204 65.8467 68.7389 66.0058 68.7108 66.1774C68.6079 66.8138 58.5746 130.137 64.2339 165.503C64.262 165.674 64.1466 165.833 63.975 165.861C63.9563 165.861 63.9407 165.865 63.9251 165.865Z" fill="#DCECFF"/>
<path d="M66.2425 82.0229C66.1707 82.0229 66.0989 81.998 66.0397 81.9481C65.815 81.7577 60.527 77.2028 59.4007 71.166C59.3695 70.9975 59.4818 70.8353 59.6503 70.801C59.8188 70.7667 59.981 70.8821 60.0153 71.0506C61.101 76.8659 66.3922 81.427 66.4452 81.4738C66.5763 81.5862 66.5919 81.7827 66.4796 81.9137C66.4172 81.9855 66.3298 82.0229 66.2425 82.0229Z" fill="#DCECFF"/>
<path d="M64.4772 97.8121C64.3524 97.8121 64.2339 97.7372 64.1871 97.6124C64.1247 97.4502 64.2058 97.2724 64.368 97.21C64.4647 97.1725 74.211 93.382 79.7861 86.4186C79.8953 86.2844 80.0887 86.2626 80.226 86.3686C80.3601 86.4778 80.382 86.6713 80.2759 86.8085C74.5916 93.9061 64.6925 97.7559 64.5926 97.7934C64.5521 97.8059 64.5146 97.8121 64.4772 97.8121Z" fill="#DCECFF"/>
<path d="M63.3004 111.405C63.2567 111.405 63.2099 111.396 63.1694 111.377C63.0945 111.343 55.5602 107.736 51.5075 99.3004C51.4327 99.1444 51.4982 98.9572 51.6542 98.8855C51.8102 98.8106 51.9973 98.8761 52.0691 99.0321C56.025 107.262 63.3597 110.781 63.4346 110.816C63.5906 110.887 63.6561 111.075 63.5843 111.231C63.5313 111.34 63.419 111.405 63.3004 111.405Z" fill="#DCECFF"/>
<path d="M62.4275 126.773C62.2996 126.773 62.181 126.695 62.1342 126.568C62.0749 126.405 62.1592 126.227 62.3214 126.168C62.4556 126.121 75.6867 121.308 79.7549 114.01C79.8391 113.861 80.0294 113.804 80.1792 113.889C80.3289 113.973 80.3851 114.163 80.3009 114.313C76.1203 121.816 63.0858 126.558 62.5336 126.755C62.4992 126.77 62.4649 126.773 62.4275 126.773Z" fill="#DCECFF"/>
<path d="M76.5576 87.0363C76.3142 87.0363 76.0989 86.9302 75.9492 86.7337C75.7308 86.4466 75.6778 86.013 75.8026 85.5357C76.0053 84.7744 76.5856 84.1973 77.1472 84.1973C77.3905 84.1973 77.6058 84.3033 77.7556 84.4999C77.9739 84.7869 78.027 85.2206 77.9022 85.6979C77.6963 86.4622 77.1191 87.0363 76.5576 87.0363ZM77.1472 84.8244C76.907 84.8244 76.5388 85.1987 76.4047 85.6979C76.3173 86.0286 76.3704 86.2595 76.4421 86.3531C76.4733 86.3936 76.5045 86.4092 76.5544 86.4092C76.7947 86.4092 77.1628 86.0348 77.2969 85.5357C77.3843 85.205 77.3313 84.9741 77.2595 84.8805C77.2283 84.8399 77.1971 84.8244 77.1472 84.8244Z" fill="#DCECFF"/>
<path d="M56.3406 99.6153C56.3 99.6153 56.2626 99.6122 56.222 99.6059C55.9007 99.5529 55.5949 99.3033 55.3859 98.9133C55.0521 98.2925 55.077 97.5625 55.4452 97.2162C55.6074 97.0633 55.8196 96.9978 56.0442 97.0321C56.3655 97.0851 56.6713 97.3347 56.8803 97.7247C57.2141 98.3455 57.1892 99.0756 56.821 99.4219C56.6869 99.5498 56.5215 99.6153 56.3406 99.6153ZM55.9256 97.6467C55.9038 97.6467 55.8882 97.6561 55.8726 97.6685C55.7509 97.784 55.7135 98.2114 55.935 98.617C56.0629 98.851 56.222 98.9726 56.3219 98.9882C56.3562 98.9945 56.3749 98.9851 56.3936 98.9664C56.5153 98.851 56.5527 98.4235 56.3312 98.018C56.2033 97.784 56.0442 97.6623 55.9444 97.6467C55.9381 97.6498 55.9319 97.6467 55.9256 97.6467Z" fill="#DCECFF"/>
<path d="M71.4465 118.721C71.4403 118.721 71.4309 118.721 71.4247 118.721C71.2188 118.715 71.0378 118.618 70.9193 118.45C70.7477 118.213 70.7165 117.86 70.8288 117.489C71.0098 116.896 71.4933 116.459 71.9395 116.475C72.1454 116.481 72.3263 116.578 72.4449 116.746C72.6165 116.984 72.6477 117.336 72.5353 117.707C72.3575 118.291 71.8927 118.721 71.4465 118.721ZM71.9239 117.108C71.7772 117.108 71.5308 117.33 71.4278 117.67C71.3561 117.901 71.3966 118.044 71.4278 118.088C71.5776 118.107 71.8334 117.879 71.9395 117.526C72.0112 117.296 71.9707 117.152 71.9395 117.108C71.9332 117.108 71.927 117.108 71.9239 117.108Z" fill="#DCECFF"/>
<path d="M56.1816 87.6414C55.9538 87.6414 55.7043 87.5541 55.4703 87.3856C54.9649 87.0237 54.7059 86.4309 54.865 86.0066C54.9368 85.8132 55.0865 85.676 55.2862 85.6136C55.567 85.5293 55.9071 85.6104 56.2253 85.8382C56.7307 86.2001 56.9896 86.7928 56.8305 87.2171C56.7588 87.4106 56.609 87.5478 56.4093 87.6071C56.3376 87.6289 56.2627 87.6414 56.1816 87.6414ZM55.514 86.2063C55.4952 86.2063 55.4796 86.2094 55.4672 86.2126C55.4048 86.3436 55.5358 86.6649 55.8353 86.8771C56.0318 87.0175 56.1785 87.0268 56.2315 87.0112C56.2939 86.8802 56.1629 86.5588 55.8634 86.3467C55.7074 86.2344 55.5857 86.2063 55.514 86.2063Z" fill="#DCECFF"/>
<path d="M80.7221 104.554C80.4881 104.554 80.276 104.492 80.1169 104.364C79.9515 104.23 79.8642 104.033 79.8704 103.818C79.8798 103.509 80.0763 103.194 80.4133 102.951C80.9499 102.564 81.6331 102.501 82.0013 102.804C82.1666 102.938 82.254 103.132 82.2477 103.35C82.2384 103.659 82.0418 103.974 81.7049 104.217C81.396 104.439 81.0404 104.554 80.7221 104.554ZM81.4023 103.238C81.2307 103.238 80.9904 103.3 80.7752 103.456C80.5849 103.593 80.4944 103.749 80.4913 103.833C80.4913 103.858 80.4975 103.865 80.51 103.877C80.6223 103.968 81.0092 103.946 81.3399 103.709C81.5302 103.571 81.6206 103.415 81.6238 103.331C81.6238 103.306 81.6175 103.3 81.605 103.288C81.5676 103.256 81.4959 103.238 81.4023 103.238Z" fill="#DCECFF"/>
<path d="M49.4057 104.436C48.8878 104.436 48.4261 104.208 48.2639 103.855C48.1765 103.665 48.1859 103.459 48.2857 103.272C48.4261 103.01 48.7318 102.823 49.1249 102.757C49.752 102.654 50.3666 102.894 50.5569 103.316C50.6443 103.506 50.6349 103.712 50.5351 103.899C50.3947 104.161 50.089 104.348 49.6959 104.414C49.596 104.426 49.4993 104.436 49.4057 104.436ZM49.4088 103.356C49.3496 103.356 49.2872 103.362 49.2248 103.372C49.0095 103.406 48.8691 103.497 48.8348 103.565C48.8254 103.581 48.8286 103.587 48.8317 103.596C48.8847 103.718 49.2185 103.858 49.5929 103.796C49.8082 103.762 49.9486 103.671 49.9829 103.603L49.986 103.571C49.9423 103.468 49.7052 103.356 49.4088 103.356Z" fill="#DCECFF"/>
<path d="M63.2782 69.3719C63.2345 69.3719 63.1908 69.3688 63.1471 69.3626C62.7665 69.3033 62.4015 69.0038 62.1457 68.5389C61.737 67.7933 61.7557 66.9166 62.1925 66.4986C62.3766 66.3208 62.6199 66.2459 62.8757 66.2833C63.2563 66.3426 63.6214 66.6421 63.8772 67.1038C64.2859 67.8495 64.2672 68.7261 63.8304 69.1442C63.6775 69.2939 63.4841 69.3719 63.2782 69.3719ZM62.7478 66.8979C62.701 66.8979 62.6636 66.9135 62.6261 66.9478C62.4296 67.1382 62.4171 67.7278 62.6948 68.2363C62.882 68.5764 63.1066 68.7199 63.2439 68.7417C63.3063 68.7511 63.3562 68.7355 63.403 68.6949C63.5995 68.5046 63.612 67.915 63.3343 67.4065C63.1471 67.0664 62.9225 66.9229 62.7853 66.9011C62.7697 66.8979 62.7572 66.8979 62.7478 66.8979Z" fill="#DCECFF"/>
<path d="M46.6466 91.2319C47.1372 91.0435 47.2519 90.154 46.9028 89.2453C46.5537 88.3365 45.873 87.7526 45.3824 87.941C44.8918 88.1295 44.7771 89.0189 45.1262 89.9277C45.4753 90.8365 46.156 91.4204 46.6466 91.2319Z" fill="#7DB8FB"/>
<path d="M61.7374 57.8593C62.0671 57.6866 62.0751 57.0517 61.7553 56.4412C61.4355 55.8307 60.909 55.4758 60.5793 55.6485C60.2497 55.8212 60.2417 56.4561 60.5615 57.0666C60.8813 57.6771 61.4077 58.032 61.7374 57.8593Z" fill="#7DB8FB"/>
<path d="M63.6263 56.1182C63.6773 55.5744 63.4809 55.1113 63.1876 55.0837C62.8942 55.0562 62.6151 55.4748 62.5641 56.0185C62.513 56.5623 62.7095 57.0255 63.0028 57.053C63.2962 57.0805 63.5753 56.662 63.6263 56.1182Z" fill="#7DB8FB"/>
<path d="M45.2916 93.4156C45.5257 92.8974 44.9366 92.1253 43.9756 91.6911C43.0146 91.2568 42.0458 91.3249 41.8117 91.843C41.5775 92.3612 42.1667 93.1333 43.1277 93.5675C44.0886 94.0018 45.0574 93.9337 45.2916 93.4156Z" fill="#7DB8FB"/>
<path d="M85.5304 73.5117C86.3608 72.8618 86.7499 71.972 86.3995 71.5242C86.0491 71.0765 85.0918 71.2403 84.2614 71.8902C83.431 72.5401 83.0419 73.4299 83.3923 73.8777C83.7427 74.3254 84.7 74.1616 85.5304 73.5117Z" fill="#7DB8FB"/>
<path d="M86.2755 75.279C86.3166 74.9421 85.8438 74.6072 85.2196 74.5311C84.5953 74.4549 84.056 74.6663 84.0149 75.0032C83.9738 75.3402 84.4465 75.675 85.0707 75.7512C85.695 75.8273 86.2344 75.616 86.2755 75.279Z" fill="#7DB8FB"/>
<path d="M243.373 146.753C244.159 146.129 244.665 145.165 244.665 144.085C244.665 142.207 243.142 140.682 241.261 140.682C240.749 140.682 240.266 140.797 239.829 141C239.645 138.566 237.614 136.651 235.134 136.651C235.009 136.651 234.884 136.657 234.759 136.666C233.655 132.957 230.217 130.249 226.149 130.249C221.195 130.249 217.176 134.261 217.164 139.212C216.462 138.878 215.679 138.691 214.852 138.691C211.876 138.691 209.461 141.106 209.461 144.082C209.461 145.053 209.717 145.964 210.166 146.753H243.373Z" fill="#7DB8FB"/>
<path d="M228.891 146.996C228.804 146.996 228.735 146.928 228.735 146.84C228.735 138.875 225.534 133.987 225.503 133.94C225.456 133.868 225.475 133.771 225.547 133.725C225.619 133.678 225.715 133.697 225.762 133.768C225.796 133.818 229.047 138.779 229.047 146.843C229.047 146.925 228.976 146.996 228.891 146.996Z" fill="#DCECFF"/>
<path d="M227.79 140.198C226.817 140.198 223.741 140.076 221.572 138.632C221.501 138.585 221.482 138.489 221.529 138.417C221.575 138.345 221.672 138.326 221.744 138.373C224.215 140.017 228.043 139.883 228.08 139.883C228.158 139.886 228.239 139.945 228.242 140.033C228.246 140.12 228.18 140.192 228.093 140.195C228.068 140.195 227.962 140.198 227.79 140.198Z" fill="#DCECFF"/>
<path d="M217.08 146.909C217.033 146.909 216.989 146.89 216.958 146.85L213.03 141.942C212.977 141.874 212.986 141.777 213.055 141.724C213.121 141.671 213.22 141.68 213.273 141.749L217.201 146.656C217.254 146.725 217.245 146.822 217.176 146.875C217.151 146.9 217.117 146.909 217.08 146.909Z" fill="#DCECFF"/>
<path d="M232.379 146.996C232.364 146.996 232.348 146.993 232.332 146.99C232.251 146.965 232.204 146.878 232.229 146.796C233.658 142.095 236.734 139.187 236.766 139.159C236.828 139.1 236.928 139.103 236.987 139.169C237.046 139.231 237.043 139.331 236.981 139.39C236.95 139.418 233.933 142.273 232.529 146.89C232.51 146.952 232.448 146.996 232.379 146.996Z" fill="#DCECFF"/>
<path d="M215.361 144.762C215.283 144.762 215.214 144.703 215.205 144.622C215.195 144.522 214.98 142.176 216.116 140.757C216.169 140.688 216.269 140.679 216.334 140.732C216.403 140.785 216.412 140.884 216.359 140.95C215.301 142.273 215.514 144.566 215.517 144.588C215.526 144.672 215.464 144.75 215.376 144.759C215.37 144.762 215.367 144.762 215.361 144.762Z" fill="#DCECFF"/>
<path d="M226.938 136.626C226.898 136.626 226.854 136.61 226.826 136.576C226.766 136.514 226.77 136.414 226.832 136.354C226.841 136.345 227.755 135.478 228.186 134.049C228.211 133.968 228.298 133.921 228.379 133.946C228.461 133.971 228.507 134.058 228.482 134.139C228.024 135.652 227.082 136.548 227.044 136.585C227.016 136.613 226.976 136.626 226.938 136.626Z" fill="#DCECFF"/>
<path d="M234.391 142.591C234.31 142.591 234.241 142.529 234.235 142.444C234.229 142.363 234.107 140.41 234.351 138.888C234.363 138.804 234.447 138.744 234.528 138.757C234.613 138.769 234.672 138.85 234.659 138.935C234.422 140.426 234.547 142.404 234.547 142.423C234.553 142.51 234.488 142.582 234.4 142.588C234.397 142.591 234.394 142.591 234.391 142.591Z" fill="#DCECFF"/>
<path d="M248.864 118.328H243.526L232.023 130.807H237.361L248.864 118.328Z" fill="#1773C6"/>
<path d="M253.563 128.854L243.979 118.552L234.392 128.854V146.746H253.563V128.854Z" fill="#3790F4"/>
<path d="M276.041 128.854H253.562V146.746H276.041V128.854Z" fill="#56A5ED"/>
<path d="M254.642 131.051H278.29L279.201 130.155H255.578L254.642 131.051Z" fill="#105A91"/>
<path d="M242.512 133.328H236.875V146.746H242.512V133.328Z" fill="#1773C6"/>
<path d="M264.126 133.328H255.481V142.388H264.126V133.328Z" fill="#7DB8FB"/>
<path d="M239.523 140.525H238.188C238.032 140.525 237.907 140.401 237.907 140.245C237.907 140.089 238.032 139.964 238.188 139.964H239.523C239.679 139.964 239.804 140.089 239.804 140.245C239.804 140.398 239.679 140.525 239.523 140.525Z" fill="#105A91"/>
<path d="M232.298 131.051L231.128 130.583L243.442 117.352L255.578 130.155L254.642 131.051L243.47 119.046L232.298 131.051Z" fill="#105A91"/>
<path d="M267.061 117.352H243.441L255.577 130.155H279.201L267.061 117.352Z" fill="#1773C6"/>
<path d="M276.578 118.328H271.24L259.737 130.807H265.075L276.578 118.328Z" fill="#1773C6"/>
<path d="M281.276 128.854L271.692 118.552L262.104 128.854V146.746H281.276V128.854Z" fill="#3790F4"/>
<path d="M303.755 128.854H281.276V146.746H303.755V128.854Z" fill="#56A5ED"/>
<path d="M282.355 131.051H306.004L306.915 130.155H283.291L282.355 131.051Z" fill="#105A91"/>
<path d="M270.226 133.328H264.589V146.746H270.226V133.328Z" fill="#1773C6"/>
<path d="M279.398 133.328H272.557V142.388H279.398V133.328Z" fill="#1773C6"/>
<path d="M291.84 133.328H283.195V142.388H291.84V133.328Z" fill="#DCECFF"/>
<path d="M302.928 133.328H294.283V142.388H302.928V133.328Z" fill="#DCECFF"/>
<path d="M267.237 140.525H265.902C265.746 140.525 265.621 140.401 265.621 140.245C265.621 140.089 265.746 139.964 265.902 139.964H267.237C267.393 139.964 267.518 140.089 267.518 140.245C267.518 140.398 267.393 140.525 267.237 140.525Z" fill="#105A91"/>
<path d="M260.012 131.051L258.842 130.583L271.156 117.352L283.292 130.155L282.356 131.051L271.184 119.046L260.012 131.051Z" fill="#105A91"/>
<path d="M294.775 117.352H271.155L283.291 130.155H306.915L294.775 117.352Z" fill="#1773C6"/>
<path d="M308.43 146.753C309.07 146.244 309.479 145.461 309.479 144.581C309.479 143.053 308.24 141.814 306.711 141.814C306.296 141.814 305.903 141.908 305.548 142.073C305.398 140.095 303.744 138.535 301.729 138.535C301.626 138.535 301.526 138.541 301.423 138.548C300.525 135.528 297.729 133.328 294.419 133.328C290.388 133.328 287.119 136.591 287.11 140.619C286.539 140.348 285.902 140.195 285.228 140.195C282.807 140.195 280.842 142.157 280.842 144.581C280.842 145.371 281.051 146.113 281.416 146.753H308.43Z" fill="#7DB8FB"/>
<path d="M326.235 147.059H200.532C200.36 147.059 200.22 146.918 200.22 146.747C200.22 146.575 200.36 146.435 200.532 146.435H326.235C326.407 146.435 326.547 146.575 326.547 146.747C326.547 146.918 326.41 147.059 326.235 147.059Z" fill="#1773C6"/>
<path d="M98.4427 171.574C147.228 171.574 186.777 168.878 186.777 165.553C186.777 162.227 147.228 159.531 98.4427 159.531C49.657 159.531 10.1084 162.227 10.1084 165.553C10.1084 168.878 49.657 171.574 98.4427 171.574Z" fill="#D1E6FF"/>
<path d="M183.432 165.865H0.311981C0.140391 165.865 0 165.724 0 165.553C0 165.381 0.140391 165.241 0.311981 165.241H183.432C183.604 165.241 183.744 165.381 183.744 165.553C183.744 165.724 183.607 165.865 183.432 165.865Z" fill="#1773C6"/>
<path d="M251.307 230.367C273.196 230.367 290.941 226.668 290.941 222.105C290.941 217.543 273.196 213.844 251.307 213.844C229.418 213.844 211.673 217.543 211.673 222.105C211.673 226.668 229.418 230.367 251.307 230.367Z" fill="#D1E6FF"/>
<path d="M293.475 194.873C320.405 194.873 342.237 192.555 342.237 189.697C342.237 186.838 320.405 184.521 293.475 184.521C266.544 184.521 244.712 186.838 244.712 189.697C244.712 192.555 266.544 194.873 293.475 194.873Z" fill="#D1E6FF"/>
<path d="M306.737 205.673C315.45 205.673 322.514 204.712 322.514 203.527C322.514 202.342 315.45 201.381 306.737 201.381C298.024 201.381 290.96 202.342 290.96 203.527C290.96 204.712 298.024 205.673 306.737 205.673Z" fill="#D1E6FF"/>
<path d="M183.576 223.674C184.319 217.72 169.753 211.002 151.043 208.667C132.334 206.333 116.564 209.267 115.821 215.22C115.079 221.174 129.644 227.892 148.354 230.227C167.064 232.561 182.833 229.627 183.576 223.674Z" fill="#D1E6FF"/>
<path d="M337.944 188.168C337.944 181.486 333.208 175.957 327.046 175.031C325.995 169.253 320.941 164.869 314.86 164.869C313.584 164.869 312.352 165.063 311.195 165.422C310.705 155.076 302.166 146.84 291.702 146.84C280.923 146.84 272.185 155.579 272.185 166.358C272.185 166.947 272.216 167.531 272.266 168.108C270.144 166.741 267.62 165.946 264.909 165.946C257.397 165.946 251.304 172.036 251.304 179.551C251.304 182.824 252.458 185.825 254.383 188.171L337.944 188.168Z" fill="#7DB8FB"/>
<path d="M279.794 188.48C279.75 188.48 279.706 188.471 279.663 188.452C265.508 181.879 260.832 171.359 260.785 171.253C260.716 171.093 260.788 170.913 260.947 170.844C261.106 170.775 261.29 170.847 261.359 171.006C261.403 171.109 266.001 181.42 279.928 187.887C280.084 187.959 280.153 188.146 280.081 188.302C280.025 188.415 279.912 188.48 279.794 188.48Z" fill="#DCECFF"/>
<path d="M267.395 179.96C267.333 179.96 267.267 179.941 267.211 179.901C267.071 179.798 267.043 179.604 267.142 179.464C268.793 177.199 268.309 173.159 268.306 173.121C268.284 172.95 268.406 172.794 268.578 172.772C268.749 172.75 268.905 172.872 268.927 173.043C268.949 173.218 269.445 177.37 267.648 179.832C267.585 179.916 267.492 179.96 267.395 179.96Z" fill="#DCECFF"/>
<path d="M285.924 188.48C285.921 188.48 285.918 188.48 285.915 188.48C285.744 188.477 285.606 188.334 285.613 188.159C285.619 187.969 286.215 169.016 297.246 152.1C297.34 151.957 297.533 151.916 297.677 152.01C297.82 152.103 297.861 152.297 297.767 152.44C286.829 169.212 286.24 187.987 286.233 188.174C286.233 188.346 286.093 188.48 285.924 188.48Z" fill="#DCECFF"/>
<path d="M291.243 164.785C291.194 164.785 291.147 164.773 291.1 164.751C290.928 164.663 286.907 162.489 285.618 154.746C285.59 154.577 285.706 154.415 285.874 154.387C286.043 154.359 286.205 154.474 286.233 154.643C287.469 162.052 291.35 164.177 291.39 164.195C291.543 164.277 291.602 164.464 291.521 164.617C291.462 164.726 291.356 164.785 291.243 164.785Z" fill="#DCECFF"/>
<path d="M292.928 188.48C292.866 188.48 292.807 188.461 292.75 188.424C292.61 188.327 292.573 188.131 292.672 187.99C300.6 176.503 318.617 172.812 318.798 172.775C318.966 172.738 319.132 172.85 319.163 173.022C319.197 173.19 319.088 173.355 318.916 173.387C318.738 173.421 300.965 177.068 293.184 188.343C293.125 188.433 293.028 188.48 292.928 188.48Z" fill="#DCECFF"/>
<path d="M313.582 186.259C313.41 186.259 313.27 186.119 313.27 185.947C313.27 174.847 326.909 174.719 327.047 174.719C327.218 174.719 327.359 174.859 327.359 175.031C327.359 175.202 327.218 175.343 327.047 175.343C327.012 175.343 323.687 175.361 320.417 176.69C316.09 178.45 313.893 181.564 313.893 185.947C313.893 186.119 313.756 186.259 313.582 186.259Z" fill="#DCECFF"/>
<path d="M303.604 179.208C303.492 179.208 303.385 179.149 303.329 179.043C303.226 178.849 300.793 174.298 300.431 170.594C300.415 170.423 300.54 170.27 300.712 170.254C300.88 170.239 301.036 170.363 301.052 170.535C301.401 174.11 303.853 178.703 303.878 178.746C303.96 178.899 303.903 179.086 303.75 179.168C303.704 179.199 303.654 179.208 303.604 179.208Z" fill="#DCECFF"/>
<path d="M324.762 188.48C324.759 188.48 324.756 188.48 324.753 188.48C324.581 188.477 324.444 188.333 324.45 188.159C324.631 181.339 331.445 176.8 331.732 176.609C331.876 176.516 332.069 176.556 332.163 176.7C332.256 176.843 332.216 177.037 332.072 177.13C332.003 177.174 325.243 181.685 325.071 188.174C325.068 188.346 324.931 188.48 324.762 188.48Z" fill="#DCECFF"/>
<path d="M326.236 183.332C326.189 183.332 326.142 183.323 326.098 183.301C325.998 183.251 323.643 182.066 322.314 178.444C322.255 178.282 322.339 178.104 322.498 178.044C322.66 177.985 322.838 178.069 322.897 178.228C324.136 181.601 326.351 182.73 326.373 182.743C326.526 182.821 326.591 183.005 326.513 183.161C326.463 183.267 326.351 183.332 326.236 183.332Z" fill="#DCECFF"/>
<path d="M288.582 172.75C288.438 172.75 288.31 172.653 288.279 172.507C288.242 172.338 288.345 172.173 288.513 172.132C288.604 172.111 297.483 170.023 300.877 164.314C300.964 164.164 301.158 164.118 301.304 164.205C301.451 164.292 301.501 164.486 301.414 164.632C297.885 170.576 289.028 172.653 288.654 172.741C288.629 172.747 288.607 172.75 288.582 172.75Z" fill="#DCECFF"/>
<path d="M283.788 164.785C283.092 164.785 282.412 164.117 282.24 163.266C282.141 162.773 282.228 162.311 282.487 161.996C282.683 161.756 282.961 161.625 283.27 161.625C283.966 161.625 284.646 162.292 284.817 163.144C284.917 163.637 284.83 164.099 284.571 164.414C284.378 164.654 284.1 164.785 283.788 164.785ZM283.27 162.249C283.148 162.249 283.048 162.296 282.97 162.392C282.833 162.561 282.79 162.838 282.852 163.144C282.964 163.696 283.395 164.164 283.788 164.164C283.91 164.164 284.009 164.117 284.087 164.021C284.225 163.855 284.268 163.575 284.206 163.269C284.094 162.717 283.666 162.249 283.27 162.249Z" fill="#DCECFF"/>
<path d="M265.992 171.855C265.393 171.855 264.807 171.284 264.657 170.554C264.57 170.129 264.648 169.73 264.872 169.456C265.044 169.243 265.29 169.128 265.562 169.128C266.161 169.128 266.747 169.699 266.897 170.429C266.984 170.853 266.906 171.253 266.682 171.527C266.51 171.739 266.264 171.855 265.992 171.855ZM265.562 169.752C265.478 169.752 265.409 169.783 265.356 169.852C265.253 169.977 265.222 170.195 265.269 170.429C265.396 171.053 265.977 171.409 266.201 171.131C266.304 171.006 266.335 170.788 266.289 170.554C266.189 170.083 265.827 169.752 265.562 169.752Z" fill="#DCECFF"/>
<path d="M265.53 186.184C264.931 186.184 264.345 185.613 264.195 184.883C264.108 184.459 264.186 184.059 264.41 183.785C264.582 183.573 264.828 183.457 265.1 183.457C265.699 183.457 266.285 184.028 266.435 184.758C266.522 185.183 266.445 185.582 266.22 185.856C266.048 186.069 265.802 186.184 265.53 186.184ZM265.1 184.081C265.016 184.081 264.947 184.112 264.891 184.181C264.788 184.306 264.757 184.524 264.803 184.758C264.931 185.382 265.512 185.738 265.736 185.463C265.839 185.339 265.87 185.12 265.824 184.886C265.727 184.409 265.365 184.081 265.1 184.081Z" fill="#DCECFF"/>
<path d="M305.151 165.936C305.017 165.936 304.886 165.918 304.764 165.874C304.471 165.774 304.25 165.562 304.14 165.272C303.897 164.623 304.281 163.749 305.017 163.288C305.441 163.019 305.906 162.941 306.293 163.072C306.586 163.172 306.808 163.384 306.917 163.675C307.16 164.323 306.773 165.197 306.04 165.659C305.75 165.843 305.441 165.936 305.151 165.936ZM305.909 163.637C305.738 163.637 305.541 163.7 305.351 163.818C304.874 164.118 304.586 164.682 304.727 165.054C304.771 165.169 304.849 165.244 304.967 165.284C305.17 165.353 305.451 165.297 305.713 165.132C306.19 164.832 306.477 164.267 306.337 163.896C306.293 163.781 306.212 163.706 306.096 163.665C306.037 163.646 305.975 163.637 305.909 163.637Z" fill="#DCECFF"/>
<path d="M327.192 168.597C327.71 168.079 327.831 167.361 327.463 166.993C327.095 166.625 326.377 166.746 325.859 167.264C325.342 167.782 325.22 168.5 325.588 168.868C325.956 169.236 326.674 169.114 327.192 168.597Z" fill="#7DB8FB"/>
<path d="M273.545 155.405C274.075 154.758 273.764 153.629 272.852 152.883C271.94 152.136 270.772 152.056 270.242 152.702C269.713 153.349 270.024 154.478 270.936 155.225C271.848 155.971 273.016 156.052 273.545 155.405Z" fill="#7DB8FB"/>
<path d="M271.002 158.502C271.89 158.502 272.609 157.991 272.609 157.36C272.609 156.729 271.89 156.218 271.002 156.218C270.115 156.218 269.396 156.729 269.396 157.36C269.396 157.991 270.115 158.502 271.002 158.502Z" fill="#7DB8FB"/>
<path d="M324.316 167.813C324.674 167.727 324.867 167.247 324.745 166.741C324.623 166.235 324.234 165.895 323.876 165.981C323.517 166.067 323.325 166.547 323.447 167.053C323.568 167.559 323.957 167.9 324.316 167.813Z" fill="#7DB8FB"/>
<path d="M306.434 183.463C306.319 183.463 306.21 183.445 306.107 183.41C305.854 183.326 305.664 183.139 305.57 182.889C305.364 182.343 305.685 181.613 306.297 181.23C306.653 181.005 307.043 180.94 307.37 181.052C307.623 181.136 307.813 181.32 307.907 181.57C308.113 182.116 307.791 182.846 307.18 183.229C306.936 183.382 306.678 183.463 306.434 183.463ZM307.039 181.623C306.915 181.623 306.768 181.67 306.628 181.757C306.238 182 306.066 182.434 306.153 182.668C306.181 182.743 306.231 182.79 306.306 182.815C306.453 182.864 306.656 182.821 306.849 182.699C307.239 182.456 307.411 182.022 307.323 181.788C307.295 181.713 307.245 181.666 307.17 181.641C307.13 181.629 307.086 181.623 307.039 181.623Z" fill="#DCECFF"/>
<path d="M331.82 182.768C331.705 182.768 331.595 182.749 331.492 182.715C331.24 182.63 331.049 182.446 330.956 182.197C330.75 181.651 331.071 180.921 331.683 180.537C332.038 180.312 332.431 180.25 332.756 180.359C333.009 180.443 333.199 180.63 333.293 180.877C333.498 181.423 333.177 182.153 332.566 182.537C332.322 182.69 332.063 182.768 331.82 182.768ZM332.425 180.93C332.3 180.93 332.154 180.977 332.013 181.064C331.623 181.307 331.452 181.741 331.539 181.978C331.567 182.05 331.617 182.1 331.692 182.125C331.839 182.175 332.041 182.131 332.235 182.009C332.625 181.766 332.796 181.332 332.709 181.095C332.681 181.02 332.631 180.974 332.556 180.949C332.516 180.936 332.472 180.93 332.425 180.93Z" fill="#DCECFF"/>
<path d="M94.3303 218.958C101.112 218.958 106.61 218.43 106.61 217.778C106.61 217.127 101.112 216.599 94.3303 216.599C87.5485 216.599 82.0508 217.127 82.0508 217.778C82.0508 218.43 87.5485 218.958 94.3303 218.958Z" fill="#D1E6FF"/>
<path d="M106.959 209.22C102.379 217.079 94.5986 217.51 94.5986 217.51C94.5986 217.51 97.9524 210.475 106.959 209.22Z" fill="#3790F4"/>
<path d="M94.5991 217.663C94.5492 217.663 94.4992 217.638 94.4681 217.594C94.4213 217.522 94.44 217.425 94.5117 217.379L106.872 209.089C106.944 209.039 107.041 209.061 107.088 209.133C107.134 209.205 107.116 209.301 107.044 209.348L94.6864 217.638C94.6615 217.656 94.6303 217.663 94.5991 217.663Z" fill="white"/>
<path d="M110.026 201.543C105.274 203.851 101.384 201.543 101.384 201.543C101.384 201.543 105.277 199.234 110.026 201.543Z" fill="#3790F4"/>
<path d="M110.026 201.699H101.385C101.297 201.699 101.229 201.63 101.229 201.543C101.229 201.455 101.297 201.387 101.385 201.387H110.026C110.114 201.387 110.182 201.455 110.182 201.543C110.182 201.63 110.114 201.699 110.026 201.699Z" fill="white"/>
<path d="M97.9026 187.572C92.2214 186.605 91.6973 181.557 91.6973 181.557C91.6973 181.557 96.7607 181.926 97.9026 187.572Z" fill="#3790F4"/>
<path d="M97.9027 187.728C97.8621 187.728 97.8247 187.713 97.7935 187.685L91.5882 181.666C91.5258 181.607 91.5258 181.507 91.5851 181.445C91.6444 181.383 91.7442 181.383 91.8066 181.442L98.0119 187.46C98.0743 187.519 98.0743 187.619 98.015 187.681C97.9838 187.713 97.9433 187.728 97.9027 187.728Z" fill="white"/>
<path d="M110.775 196.71C112.715 196.71 114.288 195.137 114.288 193.197C114.288 191.257 112.715 189.684 110.775 189.684C108.835 189.684 107.262 191.257 107.262 193.197C107.262 195.137 108.835 196.71 110.775 196.71Z" fill="#FF952D"/>
<path d="M104.676 183.675C106.616 183.675 108.189 182.103 108.189 180.163C108.189 178.222 106.616 176.65 104.676 176.65C102.736 176.65 101.163 178.222 101.163 180.163C101.163 182.103 102.736 183.675 104.676 183.675Z" fill="#FF952D"/>
<path d="M83.4143 202.07C85.3544 202.07 86.9272 200.497 86.9272 198.557C86.9272 196.617 85.3544 195.044 83.4143 195.044C81.4742 195.044 79.9014 196.617 79.9014 198.557C79.9014 200.497 81.4742 202.07 83.4143 202.07Z" fill="#FF952D"/>
<path d="M94.5991 217.819C94.4275 217.819 94.2871 217.678 94.2871 217.507C94.2871 203.171 110.448 193.032 110.613 192.929C110.76 192.839 110.953 192.882 111.044 193.032C111.134 193.179 111.087 193.372 110.941 193.462C110.782 193.562 94.9111 203.524 94.9111 217.51C94.9111 217.682 94.7707 217.819 94.5991 217.819Z" fill="#3790F4"/>
<path d="M93.9531 217.819C93.8002 217.819 93.6692 217.706 93.6442 217.553C91.4354 202.856 94.4928 193.412 97.4473 188.077C100.664 182.272 104.358 179.991 104.514 179.897C104.66 179.807 104.854 179.857 104.941 180.003C105.032 180.15 104.985 180.344 104.835 180.431C104.798 180.453 101.101 182.743 97.9683 188.421C95.0731 193.668 92.0781 202.965 94.2588 217.463C94.2838 217.635 94.1684 217.794 93.9968 217.819C93.9843 217.819 93.9687 217.819 93.9531 217.819Z" fill="#3790F4"/>
<path d="M97.3376 196.42C95.3316 202.706 89.8906 204.238 89.8906 204.238C89.8906 204.238 91.1573 198.729 97.3376 196.42Z" fill="#3790F4"/>
<path d="M89.8912 204.391C89.8538 204.391 89.8132 204.375 89.7851 204.347C89.7227 204.288 89.7196 204.188 89.7789 204.126L97.2259 196.311C97.2852 196.248 97.385 196.245 97.4474 196.305C97.5098 196.364 97.5129 196.464 97.4536 196.526L90.0066 204.341C89.9723 204.375 89.9318 204.391 89.8912 204.391Z" fill="white"/>
<path d="M81.4736 208.899C91.145 209.401 93.6159 217.504 93.6159 217.504C93.6159 217.504 85.1519 217.859 81.4736 208.899Z" fill="#3790F4"/>
<path d="M93.6157 217.663C93.5845 217.663 93.5533 217.653 93.5252 217.635L81.3829 209.027C81.3112 208.977 81.2956 208.88 81.3455 208.809C81.3954 208.737 81.4921 208.721 81.5639 208.771L93.7062 217.376C93.7779 217.426 93.7935 217.522 93.7436 217.594C93.7124 217.641 93.6625 217.663 93.6157 217.663Z" fill="white"/>
<path d="M93.9535 217.819C93.8006 217.819 93.6665 217.703 93.6446 217.547C91.6355 202.051 83.3929 198.882 83.3087 198.85C83.1465 198.791 83.0622 198.613 83.1215 198.451C83.1808 198.289 83.3617 198.205 83.5209 198.264C83.8734 198.392 92.2033 201.596 94.2624 217.466C94.2842 217.638 94.1625 217.794 93.9941 217.816C93.9785 217.819 93.966 217.819 93.9535 217.819Z" fill="#3790F4"/>
<path d="M316.86 138.729H288.482V149.729H316.86V138.729Z" fill="white"/>
<path d="M316.859 149.729H324.718V138.729H316.859V149.729Z" fill="#7DB8FB"/>
<path d="M309.005 149.729H304.568V203.527H309.005V149.729Z" fill="#3790F4"/>
<path d="M303.804 143.904H290.598V147.161H303.804V143.904Z" fill="#FF952D"/>
<path d="M295.034 145.009H291.915C291.802 145.009 291.712 144.918 291.712 144.806C291.712 144.693 291.802 144.603 291.915 144.603H295.034C295.147 144.603 295.237 144.693 295.237 144.806C295.237 144.918 295.147 145.009 295.034 145.009Z" fill="white"/>
<path d="M296.906 145.876H291.915C291.802 145.876 291.712 145.786 291.712 145.673C291.712 145.561 291.802 145.47 291.915 145.47H296.906C297.019 145.47 297.109 145.561 297.109 145.673C297.109 145.786 297.019 145.876 296.906 145.876Z" fill="white"/>
<path d="M327.5 141.149H307.692C307.264 141.149 306.915 141.496 306.915 141.926C306.915 142.354 307.261 142.703 307.692 142.703H318.72V145.199H327.503V141.149H327.5Z" fill="#FF952D"/>
<path d="M153.778 138.117L162.929 140.008L164.379 152.203H153.778V138.117Z" fill="#104768"/>
<path d="M150.129 139.68C144.841 139.68 140.551 145.433 140.551 152.527C140.551 159.622 144.837 165.375 150.129 165.375H154.531V139.68H150.129Z" fill="#104768"/>
<path d="M109.225 139.68C104.009 139.68 99.7812 145.433 99.7812 152.527C99.7812 159.622 104.009 165.375 109.225 165.375H113.565V139.68H109.225Z" fill="#104768"/>
<path d="M95.9897 138.117H79.957V151.888H95.9897V138.117Z" fill="#104768"/>
<path d="M81.3646 139.68C75.83 139.68 71.3438 145.47 71.3438 152.615C71.3438 159.759 75.83 165.55 81.3646 165.55H85.9694V139.677H81.3646V139.68Z" fill="#104768"/>
<path d="M85.9661 165.55C91.5005 165.55 95.987 159.759 95.987 152.615C95.987 145.471 91.5005 139.68 85.9661 139.68C80.4318 139.68 75.9453 145.471 75.9453 152.615C75.9453 159.759 80.4318 165.55 85.9661 165.55Z" fill="#105A91"/>
<path d="M86.3655 162.155C90.2354 162.155 93.3726 157.884 93.3726 152.615C93.3726 147.346 90.2354 143.074 86.3655 143.074C82.4956 143.074 79.3584 147.346 79.3584 152.615C79.3584 157.884 82.4956 162.155 86.3655 162.155Z" fill="#7DB8FB"/>
<path d="M86.3663 155.086C85.5614 155.086 84.9062 157.133 84.9062 159.656C84.9062 160.514 84.9811 161.316 85.1122 161.999C85.5177 162.099 85.9358 162.155 86.3632 162.155C86.7906 162.155 87.2087 162.099 87.6142 161.999C87.7453 161.313 87.8202 160.511 87.8202 159.656C87.8264 157.133 87.1743 155.086 86.3663 155.086Z" fill="#AED4FF"/>
<path d="M86.3659 150.147C87.1709 150.147 87.826 148.101 87.826 145.577C87.826 144.719 87.7511 143.917 87.6201 143.234C87.2145 143.134 86.7965 143.078 86.3691 143.078C85.9417 143.078 85.5236 143.134 85.118 143.234C84.987 143.92 84.9121 144.722 84.9121 145.577C84.909 148.101 85.561 150.147 86.3659 150.147Z" fill="#AED4FF"/>
<path d="M88.4788 151.333C88.8968 152.022 90.984 151.517 93.1429 150.203C93.146 150.203 93.146 150.2 93.1491 150.2C92.9526 149.18 92.6375 148.229 92.2226 147.371C92.026 147.477 91.8263 147.589 91.6267 147.711C89.4678 149.024 88.0607 150.643 88.4788 151.333Z" fill="#AED4FF"/>
<path d="M84.2573 153.9C83.8392 153.211 81.7521 153.716 79.5932 155.03C79.59 155.03 79.59 155.033 79.5869 155.033C79.7835 156.053 80.0986 157.005 80.5135 157.863C80.71 157.757 80.9097 157.644 81.1094 157.523C83.2652 156.209 84.6753 154.587 84.2573 153.9Z" fill="#AED4FF"/>
<path d="M93.1418 155.03C90.986 153.719 88.8958 153.214 88.4777 153.9C88.0596 154.59 89.4698 156.209 91.6256 157.522C91.8253 157.644 92.0249 157.756 92.2215 157.862C92.6364 157.004 92.9546 156.053 93.1481 155.033C93.1449 155.03 93.1418 155.03 93.1418 155.03Z" fill="#AED4FF"/>
<path d="M84.2573 151.333C84.6753 150.643 83.2652 149.024 81.1094 147.711C80.9097 147.589 80.71 147.477 80.5135 147.371C80.0986 148.229 79.7803 149.18 79.5869 150.2C79.59 150.2 79.59 150.203 79.5932 150.203C81.7489 151.517 83.8392 152.022 84.2573 151.333Z" fill="#AED4FF"/>
<path d="M86.3651 154.19C86.9837 154.19 87.4851 153.485 87.4851 152.615C87.4851 151.745 86.9837 151.039 86.3651 151.039C85.7466 151.039 85.2451 151.745 85.2451 152.615C85.2451 153.485 85.7466 154.19 86.3651 154.19Z" fill="#105A91"/>
<path d="M113.565 165.375C118.78 165.375 123.008 159.623 123.008 152.527C123.008 145.432 118.78 139.68 113.565 139.68C108.349 139.68 104.121 145.432 104.121 152.527C104.121 159.623 108.349 165.375 113.565 165.375Z" fill="#105A91"/>
<path d="M114.332 162.308C117.98 162.308 120.937 157.929 120.937 152.527C120.937 147.126 117.98 142.747 114.332 142.747C110.685 142.747 107.728 147.126 107.728 152.527C107.728 157.929 110.685 162.308 114.332 162.308Z" fill="#7DB8FB"/>
<path d="M155.307 162.464C151.529 162.464 148.453 158.006 148.453 152.527C148.453 147.049 151.526 142.591 155.307 142.591C159.085 142.591 162.162 147.049 162.162 152.527C162.162 158.006 159.089 162.464 155.307 162.464ZM155.307 142.903C151.701 142.903 148.765 147.221 148.765 152.527C148.765 157.834 151.701 162.152 155.307 162.152C158.914 162.152 161.85 157.834 161.85 152.527C161.85 147.221 158.914 142.903 155.307 142.903Z" fill="#FF00FF"/>
<path d="M154.528 165.375C159.818 165.375 164.106 159.623 164.106 152.527C164.106 145.432 159.818 139.68 154.528 139.68C149.238 139.68 144.95 145.432 144.95 152.527C144.95 159.623 149.238 165.375 154.528 165.375Z" fill="#105A91"/>
<path d="M154.87 162.108C158.569 162.108 161.568 157.819 161.568 152.527C161.568 147.236 158.569 142.947 154.87 142.947C151.171 142.947 148.172 147.236 148.172 152.527C148.172 157.819 151.171 162.108 154.87 162.108Z" fill="#7DB8FB"/>
<path d="M155.307 155.22C154.462 155.22 153.775 157.45 153.775 160.205C153.775 160.842 153.813 161.447 153.878 162.005C154.203 162.074 154.53 162.111 154.867 162.111C155.526 162.111 156.162 161.974 156.764 161.718C156.811 161.241 156.836 160.732 156.836 160.205C156.839 157.45 156.153 155.22 155.307 155.22Z" fill="#AED4FF"/>
<path d="M155.307 149.835C156.152 149.835 156.839 147.604 156.839 144.85C156.839 144.322 156.814 143.814 156.767 143.336C156.165 143.084 155.529 142.943 154.87 142.943C154.533 142.943 154.203 142.981 153.881 143.049C153.816 143.608 153.778 144.213 153.778 144.85C153.778 147.601 154.462 149.835 155.307 149.835Z" fill="#AED4FF"/>
<path d="M157.522 151.127C157.897 151.766 159.538 151.461 161.413 150.475C161.241 149.358 160.935 148.313 160.517 147.38C158.43 148.771 157.104 150.412 157.522 151.127Z" fill="#AED4FF"/>
<path d="M153.095 153.925C152.668 153.198 150.596 153.697 148.406 155.03C148.618 156.146 148.965 157.182 149.423 158.096C149.545 158.025 149.667 157.95 149.791 157.872C152.053 156.446 153.532 154.677 153.095 153.925Z" fill="#AED4FF"/>
<path d="M157.522 153.925C157.104 154.639 158.43 156.28 160.517 157.672C160.935 156.739 161.241 155.694 161.413 154.577C159.538 153.594 157.897 153.289 157.522 153.925Z" fill="#AED4FF"/>
<path d="M153.095 151.127C153.535 150.375 152.056 148.609 149.791 147.177C149.67 147.099 149.545 147.024 149.423 146.952C148.965 147.866 148.615 148.902 148.406 150.019C150.593 151.358 152.668 151.857 153.095 151.127Z" fill="#AED4FF"/>
<path d="M43.8021 139.68C38.2675 139.68 33.7812 145.47 33.7812 152.615C33.7812 159.759 38.2675 165.55 43.8021 165.55H48.4069V139.677H43.8021V139.68Z" fill="#104768"/>
<path d="M48.4066 165.55C53.9409 165.55 58.4274 159.759 58.4274 152.615C58.4274 145.471 53.9409 139.68 48.4066 139.68C42.8722 139.68 38.3857 145.471 38.3857 152.615C38.3857 159.759 42.8722 165.55 48.4066 165.55Z" fill="#105A91"/>
<path d="M49.2239 162.464C53.0938 162.464 56.231 158.054 56.231 152.615C56.231 147.175 53.0938 142.766 49.2239 142.766C45.354 142.766 42.2168 147.175 42.2168 152.615C42.2168 158.054 45.354 162.464 49.2239 162.464Z" fill="#7DB8FB"/>
<path d="M153.782 134.214C141.649 132.083 136.092 130.695 136.092 130.695C136.092 130.695 129.422 126.156 123.404 122.73C122.34 122.125 121.083 121.389 119.542 120.602C106.707 116.06 93.2294 117.093 84.8434 118.625C75.0253 120.415 60.9456 127.7 53.845 127.107C46.7443 126.515 33.3197 126.218 33.3197 126.218C33.3197 126.218 26.8898 126.989 23.8324 128.009L21.1462 142.179H19.9545L18.6504 154.081C18.6504 154.081 30.9986 157.382 57.049 157.382H74.7633C74.7633 157.382 75.8053 139.25 86.4345 139.25C97.0637 139.25 95.6036 157.382 95.6036 157.382H147.495C147.495 157.382 146.662 139.668 156.664 139.668C166.667 139.668 162.917 156.549 162.917 156.549H165.834V144.31C165.834 144.31 165.915 136.345 153.782 134.214Z" fill="#1773C6"/>
<path d="M54.4592 143.758C54.3407 143.758 54.2252 143.689 54.1753 143.574C54.1036 143.418 54.1753 143.231 54.3344 143.162L58.7365 141.2C58.8644 139.883 59.6256 131.784 59.4603 129.953C59.4447 129.781 59.5726 129.628 59.7442 129.613C59.9158 129.597 60.0686 129.725 60.0842 129.897C60.2714 131.94 59.3823 141.053 59.3417 141.44L59.323 141.621L54.5871 143.733C54.5435 143.748 54.4998 143.758 54.4592 143.758Z" fill="#3790F4"/>
<path d="M75.2466 121.326C75.2466 121.326 71.5122 117.614 59.0455 116.543C47.5084 118.837 39.1193 122.636 33.3164 126.218C33.3164 126.218 46.7378 126.514 53.8416 127.107C58.8302 127.525 67.2662 124.05 75.2466 121.326Z" fill="#3790F4"/>
<path d="M75.2502 121.326C78.6258 120.175 81.9203 119.155 84.8405 118.625C93.2265 117.096 106.704 116.063 119.539 120.603C112.37 116.955 99.0387 112.282 70.1431 114.949C66.1559 115.318 62.4652 115.867 59.0459 116.544C71.5127 117.614 75.2471 121.326 75.2502 121.326Z" fill="#1773C6"/>
<path d="M121.651 135.771H116.718C116.366 135.771 116.082 135.487 116.082 135.134C116.082 134.782 116.366 134.498 116.718 134.498H121.651C122.003 134.498 122.287 134.782 122.287 135.134C122.29 135.487 122.003 135.771 121.651 135.771Z" fill="#3790F4"/>
<path d="M155.307 154.324C155.986 154.324 156.537 153.52 156.537 152.527C156.537 151.535 155.986 150.73 155.307 150.73C154.628 150.73 154.078 151.535 154.078 152.527C154.078 153.52 154.628 154.324 155.307 154.324Z" fill="#105A91"/>
<path d="M54.4626 148.631C54.3596 148.493 54.1631 148.462 54.0258 148.568C53.8886 148.671 53.8605 148.868 53.9634 149.005C57.8944 154.281 62.7769 156.474 66.3522 157.382H70.4672C68.0338 157.282 60.2093 156.346 54.4626 148.631Z" fill="#3790F4"/>
<path d="M94.7178 128.873C109.846 129.616 123.37 129.307 130.655 131.219L129.454 126.374C127.551 125.179 125.439 123.891 123.398 122.73C122.334 122.125 121.077 121.389 119.536 120.602C106.701 116.06 93.2234 117.093 84.8373 118.625C83.8484 118.805 82.8188 119.043 81.755 119.32C81.9016 119.33 79.6335 128.134 94.7178 128.873Z" fill="#7DB8FB"/>
<path d="M140.155 155.058H103.528C100.546 155.058 99.1731 151.305 99.1138 151.145C94.1034 138.619 87.4239 133.119 83.833 130.165C79.59 126.67 78.6104 120.45 78.5699 120.188L78.5293 119.922L78.7851 119.844C81.1094 119.13 83.0686 118.631 84.7752 118.319C91.9788 117.005 106.087 115.517 119.633 120.309L119.67 120.325C120.981 120.992 122.076 121.62 123.043 122.172L123.545 122.459C129.507 125.853 136.19 130.392 136.255 130.436L136.299 130.464L140.904 136.585L140.155 155.058ZM84.2354 129.684C89.6327 134.13 95.2421 139.78 99.7034 150.927C99.719 150.974 100.992 154.437 103.531 154.437H139.559L140.283 136.785L135.875 130.926C135.294 130.533 128.939 126.243 123.249 123.002L122.743 122.715C121.789 122.169 120.706 121.548 119.414 120.893C106.009 116.154 92.0349 117.632 84.8937 118.933C83.2776 119.23 81.4245 119.695 79.2375 120.359C79.4746 121.579 80.657 126.736 84.2354 129.684Z" fill="#3790F4"/>
<path d="M44.4545 152.153L24.8809 150.734V145.57L44.4545 146.472V152.153Z" fill="#7DB8FB"/>
<path d="M133.481 131.728L131.132 131.531V127.132L133.481 126.936C134.885 126.817 136.089 127.925 136.089 129.332C136.089 130.739 134.885 131.843 133.481 131.728Z" fill="#1773C6"/>
<path d="M132.592 131.307L131.135 131.144V127.475L132.592 127.354C133.749 127.257 134.741 128.168 134.741 129.332C134.741 130.489 133.749 131.403 132.592 131.307Z" fill="#7DB8FB"/>
<path d="M114.176 155.058C114.166 155.058 114.16 155.058 114.151 155.058C113.979 155.045 113.851 154.892 113.864 154.721C114.135 151.367 114.722 143.04 114.291 138.145C113.755 132.09 110.8 129.712 110.769 129.69L110.71 129.631C106.398 123.853 105 117.723 104.988 117.661C104.951 117.492 105.057 117.327 105.225 117.289C105.394 117.252 105.559 117.358 105.596 117.526C105.609 117.586 106.978 123.569 111.187 129.226C111.555 129.528 114.379 132.03 114.912 138.092C115.349 143.034 114.759 151.404 114.488 154.774C114.472 154.933 114.338 155.058 114.176 155.058Z" fill="#3790F4"/>
<path d="M25.1773 142.519L45.3781 142.806L50.3479 133.893C50.4322 133.743 50.3791 133.553 50.2263 133.468C50.0765 133.384 49.8862 133.437 49.802 133.59L45.0131 142.179L25.6734 141.904C25.0962 139.593 23.2711 134.707 22.7969 133.459L22.5723 134.641C23.3148 136.641 24.7156 140.519 25.1211 142.282L25.1773 142.519Z" fill="#3790F4"/>
<path d="M59.7665 131.843C59.7665 131.843 58.9055 130.542 55.3239 129.491C51.7424 128.443 43.4062 126.711 43.4062 128.443C43.4062 130.171 45.3842 133.444 48.4104 133.69C51.4335 133.937 56.993 133.197 57.9789 133.256C58.9679 133.319 59.7946 133.219 59.7665 131.843Z" fill="#F7A961"/>
<path d="M29.7135 128.427C29.9381 127.482 29.2268 127.092 28.1287 127.004C26.5656 127.288 24.9683 127.631 23.8327 128.009L22.8125 133.384C22.8125 133.384 28.971 131.528 29.7135 128.427Z" fill="#F7A961"/>
<path d="M175.826 98.4019L182.74 99.4657C183.32 99.5562 183.869 99.7683 184.356 100.096C185.538 100.891 187.791 102.408 188.38 102.813C189.188 103.369 185.978 103.621 184.936 103.415C183.894 103.206 175.826 98.4019 175.826 98.4019Z" fill="#EFC6BD"/>
<path d="M152.281 118.799V130.374C152.812 131.076 153.367 131.8 153.935 132.539C160.218 140.716 168.039 150.896 160.829 158.215C153.542 165.612 146.219 184.515 145.648 186.006C146.616 189.644 150.852 194.857 151.969 196.189C154.428 192.343 175.845 158.589 176.179 150.593C176.513 142.56 163.984 118.806 162.651 116.303L152.281 118.799Z" fill="white"/>
<path d="M163.085 115.792L162.97 115.58L151.654 118.306V130.583L151.717 130.667C152.266 131.397 152.846 132.149 153.436 132.919C159.572 140.906 167.21 150.846 160.38 157.775C152.737 165.534 145.103 185.672 145.025 185.875L144.99 185.966L145.015 186.059C146.104 190.38 151.532 196.648 151.763 196.91L152.035 197.222L152.259 196.872C153.245 195.337 176.435 159.219 176.794 150.609C177.159 142.004 163.659 116.859 163.085 115.792ZM176.176 150.59C175.845 158.586 154.425 192.339 151.966 196.186C150.849 194.854 146.613 189.641 145.645 186.003C146.216 184.515 153.535 165.609 160.826 158.212C168.036 150.893 160.215 140.716 153.932 132.536C153.364 131.796 152.808 131.076 152.278 130.371V118.796L162.648 116.297C163.984 118.802 176.51 142.557 176.176 150.59Z" fill="#5FA6F6"/>
<path d="M140.919 208.681C140.919 208.681 139.178 211.882 138.798 213.476H150.55C150.55 213.476 150.619 210.599 149.892 208.035L140.919 208.681Z" fill="#EFC6BD"/>
<path d="M163.375 223.147C163.375 223.147 162.093 226.302 156.614 225.746C151.136 225.191 146.768 221.135 142.126 220.857C137.481 220.58 135.053 218.118 136.442 215.763C137.827 213.404 138.279 213.092 138.279 211.985C138.279 210.874 139.527 211.882 140.672 212.54C141.817 213.198 144.382 211.882 146.01 210.946C147.639 210.01 150.135 208.693 151.695 211.155C153.254 213.616 156.165 217.95 159.806 219.959C163.444 221.968 163.375 223.147 163.375 223.147Z" fill="#EA8021"/>
<path d="M142.126 220.86C146.771 221.138 151.139 225.194 156.614 225.749C162.09 226.304 163.375 223.15 163.375 223.15C162.336 222.04 159.528 222.561 159.528 222.561C155.541 225.369 148.054 221.834 142.819 218.296C139.443 216.015 137.683 215.295 136.86 215.067C136.729 215.279 136.592 215.507 136.442 215.766C135.053 218.121 137.481 220.583 142.126 220.86Z" fill="white"/>
<path d="M138.358 160.433C138.676 166.033 138.498 170.916 138.329 175.639C138.111 181.698 137.905 187.423 138.932 193.141C140.498 201.871 140.498 207.602 140.47 208.937C141.271 209.006 143.608 209.168 145.624 208.912C147.826 208.634 149.14 208.522 149.969 208.834C150.019 205.748 150.281 189.822 150.656 181.258C150.821 177.433 150.89 173.954 150.952 170.588C151.049 165.525 151.139 160.742 151.557 155.426C152.2 147.211 153.411 122.25 153.563 119.055L137.025 119.479C137.094 122.602 137.668 148.266 138.358 160.433Z" fill="white"/>
<path d="M136.386 118.874L136.392 119.186C136.398 119.467 137 147.561 137.734 160.471C138.049 166.039 137.874 170.909 137.705 175.617C137.487 181.71 137.278 187.466 138.317 193.254C140.092 203.15 139.839 209.149 139.836 209.208L139.824 209.501L140.117 209.533C140.242 209.545 143.165 209.854 145.701 209.533C148.016 209.239 149.464 209.099 150.072 209.604L150.575 210.022L150.584 209.37C150.587 209.186 150.865 190.742 151.277 181.289C151.442 177.458 151.511 173.973 151.573 170.604C151.67 165.55 151.76 160.776 152.175 155.479C152.861 146.731 154.187 119.033 154.2 118.752L154.215 118.416L136.386 118.874ZM151.554 155.429C151.136 160.745 151.046 165.528 150.949 170.591C150.883 173.957 150.818 177.436 150.653 181.261C150.281 189.825 150.016 205.748 149.966 208.837C149.136 208.522 147.823 208.634 145.62 208.915C143.605 209.171 141.268 209.009 140.466 208.94C140.491 207.608 140.495 201.874 138.928 193.144C137.902 187.426 138.108 181.701 138.326 175.642C138.495 170.919 138.673 166.036 138.354 160.436C137.665 148.269 137.091 122.602 137.022 119.483L153.56 119.058C153.407 122.253 152.197 147.214 151.554 155.429Z" fill="#5FA6F6"/>
<path d="M180.247 112.918C178.384 112.918 179.938 115.929 179.938 115.929C179.938 115.929 178.762 117.133 177.639 118.93C176.515 120.727 171.106 132.779 170.859 137.259C170.678 140.535 169.237 158.826 168.363 170.903C167.98 176.191 171.53 180.718 176.019 180.677C183.457 180.612 194.542 180.256 203.505 178.902C208.094 178.21 211.108 172.9 209.922 167.615C208.06 159.31 205.576 147.586 204.912 141.387C204.912 141.387 204.812 139.387 202.918 135.378C201.025 131.369 196.835 123.588 195.241 119.638C193.646 115.689 191.294 114.902 191.294 114.902C191.294 114.902 192.548 111.093 191.104 111.505C189.653 111.917 180.247 112.918 180.247 112.918Z" fill="#3790F4"/>
<path d="M182.272 116.253C181.611 116.253 181.18 116.244 181.111 116.241C180.94 116.238 180.803 116.094 180.809 115.92C180.815 115.745 180.952 115.604 181.13 115.617C181.196 115.617 187.626 115.776 190.496 114.79C190.658 114.734 190.836 114.821 190.892 114.984C190.948 115.146 190.861 115.324 190.699 115.38C188.455 116.154 184.297 116.253 182.272 116.253Z" fill="white"/>
<path d="M191.483 163.977C191.533 164.539 191.583 165.1 191.636 165.659C191.676 166.089 191.845 166.302 192.241 166.423C192.294 166.439 192.347 166.454 192.4 166.47C192.456 166.489 192.506 166.517 192.503 166.589C192.5 166.663 192.444 166.679 192.387 166.685C192.334 166.692 192.278 166.698 192.222 166.701C191.289 166.76 190.356 166.819 189.424 166.879C189.361 166.882 189.296 166.891 189.236 166.879C189.127 166.857 189.109 166.788 189.183 166.704C189.199 166.685 189.221 166.673 189.243 166.667C189.848 166.476 189.92 166.005 189.854 165.419C189.742 164.414 189.667 163.406 189.576 162.399C189.542 162.034 189.536 162.027 189.183 161.968C189.099 161.953 189.012 161.94 188.928 161.918C188.871 161.906 188.818 161.871 188.812 161.806C188.806 161.74 188.85 161.7 188.903 161.678C189.055 161.616 189.208 161.559 189.361 161.497C189.892 161.279 190.384 160.992 190.846 160.645C191.065 160.483 191.152 160.527 191.193 160.82C191.233 161.104 191.23 161.101 191.458 160.932C191.81 160.667 192.21 160.508 192.649 160.486C192.93 160.474 193.208 160.427 193.495 160.471C194.381 160.605 194.921 161.198 195.058 162.134C195.217 163.21 195.27 164.292 195.386 165.369C195.439 165.877 195.591 166.061 196.069 166.202C196.15 166.227 196.293 166.208 196.281 166.352C196.268 166.486 196.137 166.448 196.05 166.454C195.086 166.52 194.122 166.579 193.158 166.639C193.071 166.645 192.943 166.688 192.915 166.557C192.887 166.429 193.024 166.42 193.102 166.386C193.52 166.208 193.673 165.949 193.629 165.469C193.545 164.53 193.464 163.587 193.373 162.648C193.348 162.386 193.292 162.124 193.205 161.871C193.002 161.272 192.606 161.038 191.994 161.141C191.561 161.216 191.28 161.647 191.32 162.221C191.361 162.807 191.423 163.394 191.476 163.977C191.486 163.977 191.486 163.977 191.483 163.977Z" fill="white"/>
<path d="M186.759 163.512C186.266 163.544 185.77 163.578 185.277 163.606C185.103 163.615 185.012 163.678 185.043 163.874C185.128 164.408 185.212 164.938 185.499 165.412C185.801 165.915 186.229 166.136 186.778 166.142C187.352 166.146 187.857 165.983 188.297 165.612C188.372 165.55 188.463 165.45 188.566 165.543C188.675 165.64 188.606 165.762 188.556 165.858C188.254 166.461 187.786 166.866 187.171 167.091C186.528 167.328 185.867 167.344 185.199 167.138C184.488 166.919 183.951 166.445 183.639 165.746C183.106 164.558 183.043 163.363 183.686 162.236C184.142 161.438 184.837 161.017 185.748 160.914C187.09 160.761 188.082 161.697 188.435 162.929C188.547 163.325 188.5 163.4 188.119 163.425C187.67 163.456 187.215 163.484 186.759 163.512ZM185.689 163.169C185.957 163.163 186.216 163.119 186.478 163.073C186.75 163.023 186.847 162.91 186.8 162.617C186.744 162.261 186.631 161.928 186.407 161.637C186.032 161.157 185.499 161.213 185.252 161.756C185.078 162.146 185.043 162.573 185.015 163.001C185.006 163.147 185.074 163.213 185.218 163.2C185.377 163.188 185.533 163.182 185.689 163.169Z" fill="white"/>
<path d="M202.557 159.853C203.081 159.787 203.634 159.915 204.183 160.096C204.351 160.152 204.454 160.252 204.495 160.433C204.557 160.708 204.635 160.979 204.707 161.251C204.725 161.322 204.75 161.403 204.669 161.447C204.588 161.491 204.535 161.422 204.488 161.366C204.176 160.998 203.814 160.692 203.393 160.48C203.025 160.296 202.645 160.152 202.23 160.265C201.958 160.34 201.787 160.511 201.765 160.804C201.74 161.119 201.796 161.416 202.086 161.612C202.42 161.84 202.794 161.952 203.172 162.052C203.69 162.186 204.183 162.38 204.623 162.729C205.496 163.419 205.702 165.425 204.18 165.974C203.184 166.336 202.18 166.255 201.175 165.887C201.013 165.827 200.932 165.712 200.891 165.546C200.819 165.241 200.741 164.935 200.67 164.629C200.651 164.545 200.607 164.433 200.701 164.383C200.801 164.327 200.854 164.439 200.907 164.504C201.303 164.997 201.74 165.434 202.326 165.671C202.507 165.743 202.691 165.784 202.882 165.796C203.253 165.821 203.552 165.656 203.658 165.378C203.79 165.032 203.693 164.623 203.418 164.355C203.078 164.021 202.651 163.881 202.227 163.746C201.802 163.612 201.418 163.409 201.091 163.079C200.105 162.077 200.479 160.333 201.762 159.953C202.008 159.884 202.258 159.878 202.557 159.853Z" fill="white"/>
<path d="M196.733 163.004C196.673 162.361 196.614 161.719 196.561 161.073C196.549 160.914 196.514 160.795 196.324 160.811C196.237 160.817 196.115 160.858 196.093 160.714C196.071 160.58 196.137 160.449 196.261 160.427C196.489 160.386 196.495 160.243 196.474 160.053C196.433 159.681 196.414 159.31 196.368 158.939C196.336 158.702 196.393 158.577 196.623 158.508C196.992 158.399 197.332 158.218 197.653 158.003C197.952 157.806 197.987 157.825 198.021 158.212C198.074 158.798 198.133 159.382 198.177 159.968C198.193 160.209 198.283 160.287 198.505 160.262C198.801 160.227 199.101 160.218 199.397 160.202C199.503 160.196 199.643 160.162 199.665 160.327C199.687 160.492 199.584 160.592 199.434 160.608C199.169 160.636 198.901 160.648 198.636 160.664C198.246 160.689 198.246 160.689 198.283 161.098C198.389 162.277 198.492 163.456 198.601 164.636C198.667 165.344 199.082 165.631 199.724 165.419C199.849 165.378 199.971 165.319 200.093 165.269C200.13 165.253 200.161 165.231 200.196 165.216C200.27 165.182 200.345 165.16 200.411 165.241C200.47 165.313 200.436 165.384 200.405 165.45C200.242 165.79 199.996 166.043 199.675 166.211C198.994 166.567 198.296 166.629 197.612 166.171C197.166 165.871 196.963 165.394 196.904 164.863C196.832 164.242 196.786 163.622 196.733 163.004C196.729 163.004 196.733 163.004 196.733 163.004Z" fill="white"/>
<path d="M179.256 164.196C179.268 164.717 179.402 165.206 179.671 165.659C180.132 166.432 180.937 166.732 181.73 166.426C182.113 166.28 182.447 166.046 182.75 165.762C182.828 165.69 182.915 165.578 183.031 165.684C183.134 165.777 183.056 165.883 183.012 165.977C182.5 167.075 181.402 167.712 180.22 167.63C179.596 167.587 179.019 167.437 178.516 167.016C177.948 166.539 177.658 165.893 177.534 165.172C177.365 164.189 177.449 163.25 178.045 162.455C178.547 161.784 179.221 161.385 180.045 161.285C180.463 161.235 180.887 161.207 181.312 161.341C181.527 161.41 181.73 161.497 181.92 161.625C182.219 161.831 182.369 162.193 182.291 162.53C182.21 162.885 181.954 163.016 181.642 163.066C181.333 163.116 181.009 162.935 180.856 162.617C180.766 162.43 180.703 162.23 180.613 162.046C180.41 161.628 180.026 161.559 179.708 161.878C179.449 162.136 179.343 162.477 179.281 162.835C179.203 163.288 179.187 163.74 179.256 164.196Z" fill="white"/>
<path d="M189.581 120.574C189.372 120.574 189.169 120.471 189.051 120.281C187.66 118.041 188.265 114.01 188.798 110.457C188.926 109.599 189.048 108.788 189.132 108.061C189.279 106.791 189.001 105.802 188.28 105.041C186.933 103.609 184.365 103.425 183.869 103.45C183.566 103.484 183.276 103.297 183.192 102.994C183.101 102.66 183.298 102.317 183.629 102.227C183.825 102.174 186.864 102.155 188.82 103.837C190.059 104.9 190.58 106.37 190.368 108.204C190.28 108.953 190.158 109.774 190.027 110.644C189.55 113.82 188.954 117.776 190.105 119.626C190.286 119.919 190.199 120.303 189.906 120.484C189.806 120.546 189.694 120.574 189.581 120.574Z" fill="#1773C6"/>
<path d="M188.467 120.228C188.377 120.228 188.287 120.209 188.199 120.166C185.541 118.896 186.14 115.894 186.833 112.422C187.054 111.305 187.285 110.151 187.438 108.953C187.687 106.978 187.366 105.506 186.486 104.576C185.307 103.334 183.498 103.446 183.479 103.45C183.136 103.481 182.836 103.216 182.811 102.872C182.786 102.529 183.045 102.23 183.388 102.205C183.485 102.199 185.809 102.052 187.391 103.718C188.542 104.931 188.973 106.744 188.676 109.109C188.52 110.354 188.283 111.53 188.059 112.665C187.354 116.194 187.039 118.228 188.739 119.039C189.051 119.189 189.182 119.56 189.032 119.872C188.923 120.097 188.698 120.228 188.467 120.228Z" fill="#1773C6"/>
<path d="M185.176 115.711C184.911 115.711 184.665 115.542 184.58 115.274C183.613 112.226 184.019 108.232 184.038 108.064C184.075 107.721 184.381 107.471 184.724 107.509C185.067 107.543 185.317 107.852 185.279 108.195C185.276 108.232 184.886 112.101 185.772 114.896C185.875 115.224 185.694 115.576 185.367 115.679C185.301 115.701 185.239 115.711 185.176 115.711Z" fill="#1773C6"/>
<path d="M186.01 115.711C185.689 115.711 185.417 115.467 185.389 115.14C185.005 110.778 185.508 106.885 185.529 106.722C185.573 106.379 185.891 106.142 186.228 106.186C186.568 106.23 186.812 106.545 186.765 106.885C186.759 106.922 186.26 110.809 186.631 115.031C186.662 115.374 186.406 115.676 186.063 115.708C186.047 115.711 186.029 115.711 186.01 115.711Z" fill="#1773C6"/>
<path d="M167.88 97.9402L174.887 98.2865C175.82 98.3333 176.727 98.586 177.551 99.0259L185.288 103.178C185.906 103.509 186.374 104.064 186.599 104.729L187.067 106.12C187.288 106.779 187.116 107.506 186.627 107.995L184.156 110.466C183.834 110.788 183.363 110.919 182.923 110.806L182.131 110.603C181.466 110.435 180.852 110.111 180.337 109.658L174.575 104.595C174.016 104.102 173.289 103.843 172.544 103.868L167.29 104.039L167.88 97.9402Z" fill="#EFC6BD"/>
<path d="M184.496 106.186C184.456 106.164 184.821 107.646 185.86 108.133C185.86 108.129 185.816 106.947 184.496 106.186Z" fill="#DBA59C"/>
<path d="M151.717 67.238H142.713V54.8867L150.035 58.2374L151.717 67.238Z" fill="#EFC6BD"/>
<path d="M142.713 66.2554L140.635 68.0805V71.1098H155.888V64.084H151.127L142.713 66.2554Z" fill="#EFC6BD"/>
<path d="M142.713 60.0501L139.247 53.3612C139.247 53.3612 137.238 48.9248 140.495 47.6083C140.495 47.6083 140.045 46.3947 142.055 45.9111C144.064 45.4244 149.611 42.3764 153.423 42.7227C157.239 43.0658 157.551 50.3787 154.119 51.5923C150.687 52.8059 142.713 60.2934 142.713 60.2934" fill="#514132"/>
<path d="M136.336 116.702C136.336 116.702 136.089 118.699 135.986 120.19C135.986 120.19 138.916 118.908 145.321 119.95C151.726 120.989 160.598 120.783 163.787 116.206L162.642 112.394L136.916 114.681L136.336 116.702Z" fill="#F7A961"/>
<path d="M141 67.7591C141 67.7591 143.405 70.3454 148.085 68.9602C152.765 67.575 153.979 64.084 153.979 64.084H155.885L161.987 66.7265C161.987 66.7265 162.611 76.5164 161.5 84.213C160.39 91.9096 160.321 101.687 163.51 112.638C163.51 112.638 161.429 115.18 156.022 115.642C150.615 116.104 140.722 114.672 136.333 116.706C136.333 116.706 135.316 115.461 136.333 112.641C137.35 109.82 139.543 95.1354 137.59 86.1161C135.64 77.0967 135.987 71.1129 135.987 71.1129L141 67.7591Z" fill="white"/>
<path d="M186.021 67.0665C186.021 67.0665 186.795 65.9372 187.709 67.2506C188.62 68.5672 192.795 72.6791 191.568 74.0892C190.339 75.5025 186.346 71.088 186.021 67.0665Z" fill="#1773C6"/>
<path d="M194.851 58.4901C194.851 58.4901 199.082 55.4733 200.71 53.4984C202.339 51.5236 203.103 51.8699 202.513 53.4984C201.924 55.127 197.902 59.0111 196.723 60.7426L194.676 61.9905L193.497 60.05L194.851 58.4901Z" fill="#EFC6BD"/>
<path d="M196.133 60.2249C196.27 60.1032 201.436 56.7588 203.065 55.4422C204.694 54.1256 204.416 55.7542 203.065 57.2111C201.714 58.6681 199.218 60.3996 198.005 61.9938L196.133 60.2249Z" fill="#EFC6BD"/>
<path d="M198.779 60.3964C198.779 60.3964 201.087 59.6695 202.647 58.7335C204.207 57.7976 203.583 59.6695 202.472 60.5024C201.362 61.3354 198.52 63.4132 197.378 64.6611C196.233 65.9091 193.597 69.0195 191.79 69.6528L188.642 74.3575L186.019 69.2005C186.019 69.2005 188.848 63.4819 190.374 61.3323C191.899 59.1828 197.203 53.1179 198.139 51.1056C199.075 49.0933 199.456 51.7295 198.729 53.2551C198.002 54.7807 194.639 60.153 194.639 60.153" fill="#EFC6BD"/>
<path d="M187.195 66.9013C187.195 66.9013 189.102 62.1997 188.908 58.2844C188.715 54.3659 190.309 56.3438 190.933 57.7977C191.557 59.2546 191.522 62.1311 192.284 63.2761L187.195 66.9013Z" fill="#EFC6BD"/>
<path d="M141.792 67.0664C141.792 67.0664 147.891 74.7848 149.741 86.6151C151.592 98.4454 151.682 106.351 149.002 113.33C149.002 113.33 139.63 112.684 134.417 114.163L135.506 109.171L134.773 106.869C134.542 106.142 134.532 105.359 134.748 104.629L138.635 91.4727L135.549 70.8601L141.792 67.0664Z" fill="#3790F4"/>
<path d="M135.503 109.483C135.363 109.483 135.238 109.39 135.2 109.246C135.16 109.078 135.26 108.909 135.428 108.869C135.497 108.85 142.36 107.159 150.428 108.198C150.6 108.22 150.718 108.376 150.697 108.548C150.675 108.719 150.516 108.841 150.347 108.816C142.404 107.793 135.647 109.455 135.581 109.471C135.556 109.48 135.528 109.483 135.503 109.483Z" fill="white"/>
<path d="M160.636 112.638C160.636 112.638 156.995 98.4237 157.966 83.6577C158.936 68.8916 155.885 64.084 155.885 64.084C155.885 64.084 159.282 64.1058 162.886 65.6314C162.886 65.6314 165.381 68.3363 164.134 73.6056C162.886 78.875 160.181 92.1155 163.856 101.962L163.959 105.568L166.005 110.56C166.009 110.557 163.132 111.667 160.636 112.638Z" fill="#3790F4"/>
<path d="M159.438 107.115C159.31 107.115 159.188 107.034 159.145 106.909C159.085 106.747 159.173 106.569 159.335 106.51C159.45 106.47 162.18 105.499 163.924 105.256C164.093 105.231 164.252 105.35 164.277 105.521C164.302 105.693 164.183 105.849 164.012 105.874C162.33 106.108 159.575 107.087 159.547 107.097C159.506 107.109 159.472 107.115 159.438 107.115Z" fill="white"/>
<path d="M135.55 70.854C135.55 70.854 131.65 75.2436 134.941 84.8588C138.233 94.4741 141.537 103.138 146.597 103.83C151.657 104.523 164.517 105.01 164.517 105.01L165.244 104.283L168.432 104.492C168.432 104.492 167.706 99.4315 168.919 96.9356L165.662 96.4146L164.346 95.1667L149.82 93.9188C149.82 93.9188 149.542 92.128 148.781 90.6149C148.02 89.1018 146.806 82.8621 146.666 80.4693C146.528 78.0764 135.55 70.854 135.55 70.854Z" fill="#3790F4"/>
<path d="M162.888 65.6313C162.888 65.6313 164.691 66.0463 168.157 71.1097C171.623 76.1701 177.102 83.7262 177.102 83.7262C177.102 83.7262 181.816 73.5338 182.509 72.1486L183.965 70.6917L186.021 67.0665C186.021 67.0665 188.701 74.5072 191.568 74.0891L189.257 76.8627L189.163 79.2649C189.163 79.2649 184.543 89.9409 183.385 93.0389C182.231 96.1368 178.949 101.45 171.692 94.0091C164.435 86.5684 159.213 77.8329 159.213 77.8329L162.888 65.6313Z" fill="#3790F4"/>
<path d="M172.594 101.912C172.594 101.912 172.198 99.7309 172.94 98.1865C172.94 98.1865 173.009 97.6375 172.594 97.5657C172.179 97.4971 170.217 97.4971 170.217 97.4971C170.217 97.4971 168.785 97.937 169.477 101.288L172.594 101.912Z" fill="#D16A15"/>
<path d="M147.214 77.1964C147.214 77.1964 144.668 75.0562 142.544 74.2606C141.982 74.0516 141.524 73.6273 141.261 73.0876L138.582 67.5967C138.429 67.2879 138.513 66.9135 138.784 66.6982L142.715 63.5535V66.2583L141.792 67.0695C141.792 67.0664 145.323 71.7336 147.214 77.1964Z" fill="#7DB8FB"/>
<path d="M155.887 64.0839H151.127L150.827 62.3586C154.917 61.4071 157.516 63.3101 159.216 63.8655C160.913 64.4208 161.129 71.484 161.129 71.484C159.297 73.0689 158.121 75.8611 158.121 75.8611C157.713 66.7638 155.887 64.0839 155.887 64.0839Z" fill="#7DB8FB"/>
<path d="M154.222 49.7546C154.222 49.7546 155.02 58.1437 155.089 59.5289C155.158 60.9141 152.871 63.4817 149.854 62.474L145.836 60.1311C145.234 59.7785 144.862 59.1327 144.862 58.437V54.1566C144.862 54.1566 146.042 54.0537 145.798 51.9041C145.555 49.7546 147.046 49.6516 147.704 49.6516C148.363 49.6516 154.222 49.7546 154.222 49.7546Z" fill="#EFC6BD"/>
<path d="M147.618 54.6715L144.342 54.4156L144.367 54.1068L147.614 54.3595L154.712 53.6887L154.743 54.0007L147.618 54.6715Z" fill="#25272B"/>
<path d="M149.14 56.0537C149.989 56.0537 150.678 55.3651 150.678 54.5156C150.678 53.6662 149.989 52.9775 149.14 52.9775C148.29 52.9775 147.602 53.6662 147.602 54.5156C147.602 55.3651 148.29 56.0537 149.14 56.0537Z" fill="white"/>
<path d="M153.669 55.3359C154.518 55.3359 155.207 54.6473 155.207 53.7978C155.207 52.9484 154.518 52.2598 153.669 52.2598C152.819 52.2598 152.131 52.9484 152.131 53.7978C152.131 54.6473 152.819 55.3359 153.669 55.3359Z" fill="white"/>
<path d="M168.329 102.751C168.335 101.519 169.371 100.604 170.644 100.707C171.917 100.81 172.943 101.89 172.937 103.122V104.173L168.329 103.802V102.751Z" fill="#EA8021"/>
<path d="M172.574 105.321C173.257 104.334 172.941 102.931 171.867 102.187C170.793 101.444 169.369 101.642 168.685 102.629C168.001 103.617 168.318 105.02 169.392 105.763C170.465 106.506 171.89 106.309 172.574 105.321Z" fill="#FF952D"/>
<path d="M171.951 104.89C172.415 104.22 172.199 103.267 171.47 102.762C170.74 102.257 169.773 102.391 169.309 103.061C168.845 103.731 169.06 104.684 169.79 105.189C170.519 105.694 171.487 105.56 171.951 104.89Z" fill="white"/>
<path d="M149.854 62.4773L145.836 60.1344C145.234 59.7818 144.862 59.136 144.862 58.4403V55.8727L144.238 55.5857V58.4403C144.238 59.3575 144.731 60.2124 145.521 60.6741L149.539 63.0171L149.595 63.0483L149.657 63.0701C150.097 63.2167 150.54 63.2979 150.983 63.3197L150.865 62.6895C150.54 62.6614 150.203 62.5928 149.854 62.4773Z" fill="#DBA59C"/>
<path d="M145.343 57.7921C146.123 57.2447 146.048 55.7926 145.175 54.5487C144.302 53.3049 142.962 52.7402 142.182 53.2877C141.402 53.8351 141.477 55.2872 142.35 56.531C143.223 57.7749 144.563 58.3395 145.343 57.7921Z" fill="#EFC6BD"/>
<path d="M192.645 63.7814L193.138 63.4289L192.801 62.9266C192.458 62.4149 192.29 61.3168 192.124 60.2529C192.075 59.9285 192.021 59.6009 191.965 59.2795C191.781 59.5073 191.607 59.7257 191.444 59.9347C191.647 61.2138 191.816 62.5709 192.284 63.2729L192.645 63.7814Z" fill="#DBA59C"/>
<path d="M162.742 83.5454C162.735 83.5454 162.726 83.5454 162.72 83.5454C162.548 83.533 162.417 83.3832 162.43 83.2116C162.442 83.0151 162.782 78.3759 163.849 75.5899C163.911 75.4277 164.092 75.3466 164.251 75.409C164.414 75.4714 164.492 75.6523 164.432 75.8114C163.4 78.5101 163.053 83.2054 163.05 83.2522C163.038 83.4206 162.904 83.5454 162.742 83.5454Z" fill="#1773C6"/>
<path d="M163.937 104.988C161.375 104.885 151.014 104.439 146.597 103.833C143.115 103.356 140.463 99.1038 138.076 93.3633L137.799 94.3024C140.226 99.9617 142.909 103.958 146.512 104.451C151.033 105.069 161.512 105.515 163.983 105.615L163.937 104.988ZM162.199 94.3554L150.344 93.3384C150.203 92.6739 149.894 91.4446 149.336 90.334C148.662 88.9925 147.52 83.2957 147.308 80.7343C147.296 80.5659 147.149 80.4411 146.98 80.4504C146.806 80.4598 146.672 80.6127 146.687 80.7874C146.902 83.3737 148.047 89.1641 148.777 90.6148C149.539 92.1279 149.816 93.9187 149.816 93.9187L162.261 94.9888L162.199 94.3554Z" fill="#1773C6"/>
<path d="M236.815 50.3785C236.597 50.0042 236.194 49.7515 235.73 49.7515C235.031 49.7515 234.463 50.3193 234.463 51.0181C234.463 51.1491 234.488 51.2739 234.525 51.3956C234.073 51.589 233.755 52.0383 233.755 52.5624C233.755 52.8713 233.87 53.1489 234.051 53.3673C234.051 53.3704 234.051 53.3736 234.051 53.3798C233.764 53.6419 233.58 54.0194 233.58 54.4374C233.58 55.1051 234.039 55.6635 234.656 55.8257C234.606 55.9724 234.575 56.1252 234.575 56.2875C234.575 57.0081 235.106 57.5978 235.795 57.7039C235.758 57.8349 235.73 57.969 235.73 58.1126C235.73 58.8301 236.254 59.4198 236.94 59.5289C237.62 61.2168 237.848 62.7268 239.636 64.9075C242.855 68.8353 243.52 69.8056 243.52 69.8056L245.554 64.3522V50.3817H236.815V50.3785Z" fill="#25272B"/>
<path d="M264.345 211.551H263V212.896H264.345V211.551Z" fill="#514132"/>
<path d="M269.414 212.053C269.414 212.053 266.571 203.421 265.255 200.164L260.176 204.532L265.373 215.626L269.414 212.053Z" fill="#514132"/>
<path d="M211.211 93.0638L202.613 91.8159L195.659 92.0936C194.495 92.1404 193.344 92.365 192.249 92.7612L188.237 94.2151C187.79 94.3773 187.572 94.8765 187.747 95.3163C188.049 96.0776 188.742 97.1196 190.321 97.4066C192.885 97.8746 194.457 97.9464 196.538 97.469C198.619 96.9917 204.188 95.3507 204.188 95.3507L209.966 97.4066L211.211 93.0638Z" fill="#514132"/>
<path d="M202.613 91.8158C202.613 91.8158 200.809 90.5898 199.356 90.0376C197.899 89.4822 195.958 88.2811 195.312 87.8412C194.666 87.4013 194.666 88.6742 195.659 89.8504C196.651 91.0265 198.108 91.8377 198.317 92.5989L202.613 91.8158Z" fill="#514132"/>
<path d="M207.467 94.4178C207.467 94.4178 207.436 93.2011 208.129 92.6146C208.129 92.6146 208.316 92.1653 207.917 92.0093C207.517 91.8533 205.855 91.2106 205.318 92.599C204.781 93.9842 204.797 94.2805 204.797 94.2805L207.467 94.4178Z" fill="#D16A15"/>
<path d="M223.724 89.0643C223.724 89.0643 221.887 88.2313 219.772 86.6371C217.656 85.0428 214.256 83.5204 212.646 82.1476C211.036 80.778 211.002 82.4066 211.626 83.4455C211.626 83.4455 209.788 83.3425 207.639 83.9322C205.489 84.5218 202.51 84.7995 202.784 85.7354C203.062 86.6714 203.443 86.5684 203.583 87.1924C203.723 87.8163 205.162 88.8896 207.492 89.4449C209.823 90.0002 213.532 90.1718 216.652 89.7569L221.088 92.599L223.724 89.0643Z" fill="#514132"/>
<path d="M241.208 104.501C241.208 104.501 239.823 106.535 236.238 104.501C232.656 102.467 220.314 93.1916 220.314 93.1916C220.314 93.1916 221.319 89.6413 223.793 88.4402L241.205 97.2786V104.501H241.208Z" fill="#FF952D"/>
<path d="M251.319 219.16C251.319 219.16 251.11 217.601 251.217 215.729C251.319 213.857 251.738 207.096 251.875 205.19H244.25C244.25 205.19 245.601 215.173 244.25 219.887L251.319 219.16Z" fill="#514132"/>
<path d="M230.969 225.019C230.682 225.019 230.426 224.845 230.323 224.576C229.999 223.706 229.549 221.775 231.418 220.723C233.88 219.338 242.581 215.766 242.581 215.766C242.581 215.766 242.431 214.321 244.244 214.343C246.056 214.365 245.514 216.225 244.755 216.636C244.755 216.636 245.847 216.493 246.565 217.416C247.282 218.34 248.646 219.541 250.471 217.416C252.296 215.292 252.321 217.045 252.321 217.438C252.321 217.831 252.252 219.541 251.872 219.678L252.043 224.373C252.056 224.726 251.775 225.016 251.422 225.016H230.969V225.019Z" fill="#3790F4"/>
<path d="M237.193 219.75L244.758 216.636C245.513 216.225 246.059 214.368 244.247 214.343C242.434 214.321 242.584 215.766 242.584 215.766C242.584 215.766 233.883 219.335 231.421 220.723C229.552 221.775 230.002 223.709 230.326 224.576C230.426 224.845 230.685 225.019 230.972 225.019H235.109L236.319 220.733C236.444 220.287 236.765 219.925 237.193 219.75Z" fill="#7DB8FB"/>
<path d="M238.063 220.932C238.359 220.932 238.6 220.692 238.6 220.396C238.6 220.099 238.359 219.859 238.063 219.859C237.767 219.859 237.526 220.099 237.526 220.396C237.526 220.692 237.767 220.932 238.063 220.932Z" fill="#7DB8FB"/>
<path d="M239.854 220.218C240.15 220.218 240.391 219.978 240.391 219.681C240.391 219.385 240.15 219.145 239.854 219.145C239.558 219.145 239.317 219.385 239.317 219.681C239.317 219.978 239.558 220.218 239.854 220.218Z" fill="#7DB8FB"/>
<path d="M241.648 219.5C241.944 219.5 242.185 219.26 242.185 218.963C242.185 218.667 241.944 218.427 241.648 218.427C241.352 218.427 241.111 218.667 241.111 218.963C241.111 219.26 241.352 219.5 241.648 219.5Z" fill="#7DB8FB"/>
<path d="M243.438 218.783C243.734 218.783 243.975 218.542 243.975 218.246C243.975 217.95 243.734 217.709 243.438 217.709C243.142 217.709 242.901 217.95 242.901 218.246C242.901 218.542 243.142 218.783 243.438 218.783Z" fill="#7DB8FB"/>
<path d="M251.653 226.105H230.831C230.488 226.105 230.207 225.824 230.207 225.481C230.207 225.138 230.488 224.857 230.831 224.857H251.653C251.996 224.857 252.277 225.138 252.277 225.481C252.277 225.824 251.996 226.105 251.653 226.105Z" fill="#1773C6"/>
<path d="M254.093 222.102L260.124 221.69L271.14 215.756C271.486 215.569 271.614 215.135 271.424 214.789L269.795 211.844C269.795 211.844 270.188 211.336 269.957 210.78C269.727 210.225 269.28 208.503 268.475 209.504C267.671 210.506 267.671 213.229 266.906 213.554C266.145 213.878 264.133 212.097 263.509 212.768C263.509 212.768 264.594 209.37 262.329 210.063C262.329 210.063 261.312 210.593 261.89 211.289L256.979 216.202C256.979 216.202 251.722 218.598 253.198 221.597C253.363 221.934 253.722 222.13 254.093 222.102Z" fill="#3790F4"/>
<path d="M258.611 217.653C260.922 215.476 263.509 212.771 263.509 212.771C263.509 212.771 264.594 209.373 262.329 210.066C262.329 210.066 261.312 210.596 261.89 211.292L256.979 216.202C256.979 216.202 251.722 218.598 253.198 221.597C253.363 221.93 253.722 222.127 254.093 222.102L257.381 221.877C257.381 221.877 256.299 219.831 258.611 217.653Z" fill="#7DB8FB"/>
<path d="M269.794 211.847C269.794 211.847 270.187 211.339 269.956 210.783C269.726 210.228 269.279 208.506 268.474 209.507C267.935 210.178 267.757 211.62 267.467 212.596C268.384 213.357 269.794 211.847 269.794 211.847Z" fill="#7DB8FB"/>
<path d="M254.056 223.356C253.734 223.356 253.46 223.11 253.435 222.782C253.407 222.439 253.666 222.14 254.009 222.112L259.996 221.637L271.321 215.566C271.623 215.404 272.004 215.516 272.166 215.822C272.328 216.125 272.216 216.505 271.91 216.668L260.47 222.801C260.395 222.842 260.311 222.867 260.223 222.873L254.105 223.36C254.09 223.353 254.071 223.356 254.056 223.356Z" fill="#1773C6"/>
<path d="M242.271 207.293C242.271 207.293 247.357 208.725 253.549 207.293C253.549 207.293 253.088 183.432 251.309 170.566C249.528 157.7 245.547 154.646 251.977 137.811C254.061 132.358 260.597 118.263 258.26 110.66C254.782 99.3254 255.814 95.6721 255.814 95.6721L238.574 96.19C238.574 96.19 241.207 111.642 240.281 122.755C239.585 131.076 237.476 143.901 238.106 154.368C238.733 164.841 241.953 189.684 242.271 207.293Z" fill="#3790F4"/>
<path d="M246.892 117.367V174.734L258.84 206.856C258.84 206.856 265.289 205.364 267.679 200.547C267.679 200.547 260.875 182.459 257.833 172.438C254.794 162.417 252.161 157.794 254.357 147.071C256.554 136.348 262.722 125.117 260.853 114.687C260.853 114.687 260.422 112.715 258.048 107.515C257.134 105.512 256.731 103.609 256.07 101.693H246.892V117.367Z" fill="#3790F4"/>
<path d="M235.823 99.8775C235.792 99.8775 235.764 99.8744 235.732 99.865C235.639 99.837 235.564 99.7652 235.53 99.6747L234.176 96.0214C234.116 95.8592 234.197 95.6814 234.36 95.619C234.522 95.5597 234.7 95.6408 234.762 95.803L235.976 99.0695L236.462 98.7138C236.603 98.614 236.796 98.6421 236.899 98.7825C237.002 98.9229 236.971 99.1163 236.831 99.2192L236.01 99.8182C235.954 99.8557 235.888 99.8775 235.823 99.8775Z" fill="#EA8021"/>
<path d="M236.238 97.9401L237.14 101.154C237.14 101.154 240.007 98.9572 244.88 99.0508C249.753 99.1444 255.672 100.068 257.543 98.4736L257.45 95.2166L241.205 96.14L236.238 97.9401Z" fill="white"/>
<path d="M249.887 71.2282L241.61 72.9098L241.595 62.9795L247.507 61.9905L249.887 71.2282Z" fill="#514132"/>
<path d="M236.239 74.4353C233.453 75.4337 231.247 77.6082 230.221 80.3817C229.5 82.3222 228.679 84.6371 228.037 86.7524C226.558 91.6068 225.912 93.8686 225.31 93.9622C224.811 94.0402 220.493 92.8422 219.039 92.4335C218.733 92.3462 218.406 92.3836 218.125 92.5365L216.113 93.6378L211.168 92.0186C211.168 92.0186 208.766 94.5144 209.318 97.6124L214.955 99.7838L215.258 100.333C215.392 100.573 215.607 100.76 215.863 100.857L222.187 103.222C224.964 104.261 228.093 103.412 229.965 101.116L234.595 95.4379C234.595 95.4379 235.543 97.4252 235.97 99.0881C235.97 99.0881 238.245 96.1773 245.595 97.238C252.945 98.3019 257.198 96.6827 259.229 95.6189C259.229 95.6189 257.609 90.3027 257.104 83.4173C256.599 76.5319 254.237 72.3232 254.237 72.3232L236.239 74.4353Z" fill="#FF952D"/>
<path d="M236.618 93.1701C237.092 94.6052 237.925 96.6829 239.192 98.3583L239.938 97.7936C238.574 95.9904 237.723 93.6099 237.32 92.2747L236.618 93.1701Z" fill="white"/>
<path d="M236.238 74.4354C236.238 74.4354 236.619 72.4606 239.392 71.5932C242.166 70.7259 249.444 69.5841 252.633 69.2721C255.821 68.9601 262.928 82.5937 259.509 88.3248C256.09 94.0559 243.517 91.2356 242.547 83.564C241.576 75.8923 240.968 73.9081 239.67 74.0548C238.397 74.1983 236.238 74.4354 236.238 74.4354Z" fill="#EA8021"/>
<path d="M224.592 97.3599L216.109 95.1479L215.211 95.5379C214.961 96.3116 214.849 97.0448 214.814 97.6781L216.112 97.2788L223.877 99.1943C226.167 99.759 228.504 98.4737 229.253 96.2399C230.906 91.3043 233.624 83.068 234.613 79.4272C235.499 76.1608 237.14 74.7787 238.288 74.1953L236.241 74.4355C235.649 74.6477 235.087 74.916 234.553 75.228C231.855 79.6768 228.451 93.5943 227.668 95.3507C226.676 97.5627 224.592 97.3599 224.592 97.3599Z" fill="white"/>
<path d="M214.954 100.099C214.814 100.099 214.686 100.005 214.652 99.862C214.617 99.7278 213.856 96.5518 215.847 93.4695C215.94 93.326 216.134 93.2823 216.277 93.3759C216.421 93.4695 216.464 93.6629 216.371 93.8064C214.53 96.6548 215.248 99.6779 215.257 99.7091C215.297 99.8776 215.198 100.046 215.029 100.087C215.004 100.096 214.979 100.099 214.954 100.099Z" fill="#EA8021"/>
<path d="M225.306 93.9656C225.745 93.8969 226.213 92.6521 227.015 90.0783L226.45 89.7913C225.88 91.6257 225.424 92.9704 225.137 93.3354C224.654 93.2761 223.09 92.908 220.42 92.1748L220.632 92.3089C220.551 92.5086 220.485 92.6833 220.436 92.8237C222.22 93.3135 224.713 93.9687 225.249 93.9687C225.271 93.9687 225.293 93.9656 225.306 93.9656Z" fill="#EA8021"/>
<path d="M207.57 95.6814C207.779 95.3819 207.901 95.02 207.901 94.6269C207.901 93.6129 207.077 92.7893 206.063 92.7893C205.583 92.7893 205.146 92.9734 204.821 93.2729L203.954 94.084L206.743 96.4738L207.57 95.6814Z" fill="#EA8021"/>
<path d="M207.187 95.2135L207.181 95.1386C207.109 94.187 206.304 93.4414 205.349 93.4414C204.342 93.4414 203.512 94.2713 203.512 95.279C203.512 96.2867 204.342 97.1165 205.349 97.1165C206.357 97.1165 207.187 96.2867 207.187 95.279V95.2135Z" fill="#FF952D"/>
<path d="M252.324 217.438C252.324 217.045 252.302 215.288 250.474 217.416C249.703 218.315 249.014 218.617 248.421 218.599C248.421 218.599 248.334 220.542 249.843 220.258C251.353 219.974 251.871 219.681 251.871 219.681C252.255 219.541 252.324 217.831 252.324 217.438Z" fill="#7DB8FB"/>
<path d="M260.173 218.19C260.47 218.19 260.71 217.95 260.71 217.654C260.71 217.357 260.47 217.117 260.173 217.117C259.877 217.117 259.637 217.357 259.637 217.654C259.637 217.95 259.877 218.19 260.173 218.19Z" fill="#7DB8FB"/>
<path d="M261.42 217.064C261.717 217.064 261.957 216.823 261.957 216.527C261.957 216.231 261.717 215.99 261.42 215.99C261.124 215.99 260.884 216.231 260.884 216.527C260.884 216.823 261.124 217.064 261.42 217.064Z" fill="#7DB8FB"/>
<path d="M262.669 215.937C262.966 215.937 263.206 215.697 263.206 215.401C263.206 215.104 262.966 214.864 262.669 214.864C262.373 214.864 262.133 215.104 262.133 215.401C262.133 215.697 262.373 215.937 262.669 215.937Z" fill="#7DB8FB"/>
<path d="M263.917 214.808C264.214 214.808 264.454 214.568 264.454 214.271C264.454 213.975 264.214 213.735 263.917 213.735C263.621 213.735 263.381 213.975 263.381 214.271C263.381 214.568 263.621 214.808 263.917 214.808Z" fill="#7DB8FB"/>
<path d="M263.651 212.671C263.598 212.696 263.551 212.727 263.508 212.771L263.651 212.671Z" fill="#3790F4"/>
<path d="M237.764 220.477C237.801 220.617 237.926 220.711 238.066 220.711C238.091 220.711 238.119 220.708 238.144 220.702C238.31 220.658 238.413 220.489 238.369 220.321C238.088 219.241 237.524 218.555 236.993 218.128C236.775 218.224 236.553 218.318 236.335 218.415C236.834 218.742 237.474 219.363 237.764 220.477Z" fill="#1773C6"/>
<path d="M239.554 219.76C239.592 219.9 239.716 219.994 239.857 219.994C239.882 219.994 239.91 219.99 239.935 219.984C240.1 219.94 240.203 219.772 240.159 219.604C239.872 218.496 239.283 217.8 238.743 217.376C238.525 217.47 238.3 217.566 238.072 217.663C238.578 217.981 239.255 218.605 239.554 219.76Z" fill="#1773C6"/>
<path d="M241.346 219.042C241.383 219.182 241.508 219.276 241.649 219.276C241.673 219.276 241.702 219.273 241.727 219.267C241.892 219.223 241.995 219.054 241.951 218.886C241.658 217.757 241.05 217.055 240.5 216.63C240.285 216.721 240.057 216.818 239.82 216.917C240.332 217.229 241.037 217.856 241.346 219.042Z" fill="#1773C6"/>
<path d="M243.137 218.324C243.174 218.465 243.299 218.558 243.439 218.558C243.464 218.558 243.493 218.555 243.517 218.549C243.683 218.505 243.786 218.337 243.742 218.168C243.446 217.023 242.825 216.315 242.27 215.894C242.098 215.966 241.867 216.059 241.58 216.181C242.092 216.484 242.822 217.114 243.137 218.324Z" fill="#1773C6"/>
<path d="M259.936 217.853C259.999 217.925 260.086 217.965 260.176 217.965C260.248 217.965 260.32 217.94 260.376 217.893C260.507 217.784 260.526 217.584 260.414 217.453C260.373 217.404 259.496 216.38 257.559 215.625L257.072 216.112C259.022 216.811 259.918 217.834 259.936 217.853Z" fill="#1773C6"/>
<path d="M261.184 216.727C261.246 216.799 261.334 216.839 261.424 216.839C261.496 216.839 261.568 216.814 261.624 216.767C261.755 216.658 261.774 216.458 261.661 216.327C261.621 216.278 260.713 215.226 258.716 214.468L258.229 214.955C260.245 215.65 261.165 216.705 261.184 216.727Z" fill="#1773C6"/>
<path d="M262.432 215.6C262.495 215.672 262.582 215.713 262.673 215.713C262.744 215.713 262.816 215.688 262.872 215.641C263.003 215.532 263.022 215.332 262.91 215.201C262.866 215.151 261.936 214.068 259.877 213.31L259.391 213.797C261.465 214.493 262.414 215.578 262.432 215.6Z" fill="#1773C6"/>
<path d="M263.68 214.474C263.743 214.546 263.83 214.586 263.921 214.586C263.992 214.586 264.064 214.562 264.12 214.515C264.251 214.406 264.27 214.206 264.158 214.075C264.114 214.025 263.156 212.911 261.035 212.15L260.545 212.64C262.685 213.335 263.662 214.452 263.68 214.474Z" fill="#1773C6"/>
<path d="M259.044 115.062C258.875 115.062 258.741 115.193 258.732 115.358C258.363 123.101 253.678 133.35 251.974 137.811C245.544 154.646 249.528 157.697 251.306 170.566C252.093 176.257 252.623 184.094 252.969 191.066L253.684 192.985C253.341 185.529 252.785 176.693 251.927 170.482C251.487 167.3 250.907 164.688 250.395 162.386C248.817 155.266 247.772 150.565 252.558 138.039C252.832 137.321 253.178 136.463 253.584 135.465C255.749 130.124 259.059 121.953 259.362 115.392C259.368 115.211 259.221 115.062 259.044 115.062Z" fill="#1773C6"/>
<path d="M230.403 100.586L238.328 90.4901C238.434 90.3559 238.63 90.331 238.764 90.437C238.899 90.5431 238.924 90.7396 238.817 90.8738L230.909 100.941L230.403 100.586Z" fill="#EA8021"/>
<path d="M244.852 100.607C246.053 100.629 247.348 100.707 248.602 100.779C250.084 100.866 251.616 100.957 252.986 100.957C254.152 100.957 255.12 100.888 255.931 100.748C255.853 100.177 255.797 99.659 255.756 99.1942C254.967 99.3408 254.024 99.397 252.986 99.397C250.527 99.397 247.551 99.0975 244.883 99.0476C244.784 99.0444 244.684 99.0444 244.584 99.0444C242.266 99.0444 240.425 99.5592 239.152 100.077C239.221 100.576 239.29 101.116 239.361 101.687C240.466 101.188 242.257 100.601 244.584 100.601C244.671 100.604 244.762 100.607 244.852 100.607Z" fill="#1773C6"/>
<path d="M214.902 87.882C214.955 87.9943 215.067 88.0629 215.186 88.0629C215.23 88.0629 215.276 88.0535 215.317 88.0348C215.473 87.9631 215.542 87.7759 215.467 87.6199C215.429 87.5419 214.574 85.723 213.682 84.9275C213.011 84.3285 211.913 83.4549 211.442 83.0806C211.495 83.2085 211.554 83.3333 211.626 83.4487C211.626 83.4487 211.355 83.4331 210.902 83.4487C211.214 83.6952 212.528 84.7341 213.267 85.3923C214.066 86.1037 214.896 87.8664 214.902 87.882Z" fill="#3A2C20"/>
<path d="M244.144 64.505V62.552L243.52 62.655V64.5019C243.52 65.5595 242.878 66.5079 241.895 66.901L241.602 67.0196V67.6903L242.126 67.4813C243.352 66.9946 244.144 65.8247 244.144 64.505Z" fill="#3A2C20"/>
<path d="M237.255 57.9814C237.255 57.9814 236.818 59.7129 235.829 61.1824C235.673 61.4132 235.698 61.7221 235.885 61.9311C236.135 62.2088 236.562 62.5707 237.255 62.8577V57.9814Z" fill="#514132"/>
<path d="M261.858 53.2426C262.395 52.9088 262.75 52.316 262.75 51.639C262.75 50.7374 262.12 49.9855 261.274 49.7983C261.546 49.4707 261.711 49.0495 261.711 48.5909C261.711 47.5676 260.897 46.7378 259.88 46.7066C260.03 46.4351 260.114 46.1263 260.114 45.7956C260.114 44.7536 259.268 43.9081 258.226 43.9081C258.055 43.9081 257.889 43.9331 257.73 43.9767C257.758 43.8488 257.774 43.7147 257.774 43.5774C257.774 42.5354 256.929 41.6899 255.887 41.6899C255.578 41.6899 255.288 41.7648 255.029 41.8958C254.963 40.91 254.149 40.1331 253.147 40.1331C252.683 40.1331 252.258 40.3016 251.931 40.5793C251.634 39.9272 250.976 39.4749 250.215 39.4749C249.666 39.4749 249.173 39.712 248.826 40.0863C248.48 39.712 247.987 39.4749 247.438 39.4749C246.827 39.4749 246.284 39.7681 245.937 40.2174C245.613 39.9584 245.204 39.8024 244.758 39.8024C243.913 39.8024 243.198 40.3578 242.958 41.1221C242.643 40.885 242.25 40.7415 241.826 40.7415C240.784 40.7415 239.938 41.587 239.938 42.629C239.938 42.6321 239.938 42.6321 239.938 42.6352C239.891 42.6321 239.848 42.629 239.801 42.629C238.759 42.629 237.913 43.4744 237.913 44.5165C237.913 44.7349 237.954 44.947 238.023 45.1435C237.998 45.1872 237.973 45.2309 237.948 45.2746C237.168 45.5054 236.597 46.2292 236.597 47.0841C236.597 47.4054 236.678 47.7049 236.818 47.9701C236.204 48.0574 235.729 48.5785 235.729 49.218C235.729 49.8108 236.141 50.3068 236.69 50.441C237.38 51.7731 241.763 60.1623 243.782 62.8609C244.998 64.4832 246.437 66.1586 247.404 67.0633C248.19 67.7996 248.823 67.6966 248.823 67.6966C248.83 67.6966 248.833 67.6966 248.839 67.6935C248.848 67.6935 248.861 67.6966 248.87 67.6966C249.014 67.6966 249.154 67.6779 249.291 67.6467C249.697 67.5999 250.09 67.5344 250.477 67.4533C250.751 67.6062 251.066 67.6966 251.4 67.6966C252.174 67.6966 252.839 67.2318 253.129 66.5642C253.179 66.5392 253.232 66.5174 253.282 66.4924C253.503 66.5829 253.746 66.6359 253.999 66.6359C254.979 66.6359 255.784 65.8903 255.877 64.9356C256.127 65.0573 256.408 65.129 256.704 65.129C257.746 65.129 258.591 64.2836 258.591 63.2416C258.591 63.045 258.56 62.8578 258.507 62.68C259.418 62.5458 260.117 61.7628 260.117 60.8143C260.117 60.5211 260.048 60.2434 259.93 59.997C260.922 59.9408 261.711 59.1203 261.711 58.1157C261.711 57.5635 261.471 57.0675 261.094 56.7212C262.026 56.6088 262.75 55.8133 262.75 54.8493C262.75 54.166 262.395 53.5764 261.858 53.2426Z" fill="#25272B"/>
<path d="M206.759 95.2288L206.756 95.1696C206.699 94.4395 206.082 93.8655 205.349 93.8655C204.575 93.8655 203.938 94.5019 203.938 95.2756C203.938 96.0494 204.575 96.6858 205.349 96.6858C206.122 96.6858 206.759 96.0494 206.759 95.2756V95.2288Z" fill="white"/>
<path d="M237.451 52.1133C237.451 52.1133 236.097 61.7878 237.673 67.1352C237.879 67.8371 238.656 68.2021 239.333 67.9307L241.894 66.9074C242.874 66.5143 243.519 65.5659 243.519 64.5083V59.9471C243.519 59.9471 241.856 59.1484 242.758 56.8959C243.66 54.6434 242.065 54.4001 240.609 54.1224C239.152 53.8448 237.451 52.1133 237.451 52.1133Z" fill="#514132"/>
<path d="M245.53 61.6091C246.216 60.2027 246.263 58.8148 245.636 58.509C245.009 58.2032 243.944 59.0954 243.259 60.5017C242.573 61.908 242.526 63.296 243.153 63.6018C243.781 63.9076 244.845 63.0154 245.53 61.6091Z" fill="#514132"/>
<path d="M178.297 154.275C178.297 154.275 174.207 152.902 174.207 148.079C174.207 152.902 170.117 154.275 170.117 154.275C170.117 154.275 174.207 155.647 174.207 160.47C174.207 155.647 178.297 154.275 178.297 154.275Z" fill="white"/>
<path d="M192.551 195.88C192.551 191.057 196.641 189.684 196.641 189.684C196.641 189.684 192.551 188.312 192.551 183.488C192.551 188.312 188.461 189.684 188.461 189.684C188.461 189.684 192.551 191.057 192.551 195.88Z" fill="white"/>
<path d="M192.863 195.88H192.239C192.239 191.335 188.402 189.993 188.361 189.977L187.484 189.684L188.358 189.388C188.517 189.335 192.236 188.018 192.236 183.485H192.86C192.86 188.018 196.579 189.332 196.738 189.388L197.608 189.684L196.738 189.981C196.582 190.034 192.863 191.35 192.863 195.88ZM189.206 189.684C190.146 190.183 191.849 191.375 192.548 193.681C193.247 191.375 194.95 190.183 195.889 189.684C194.95 189.185 193.247 187.993 192.548 185.688C191.849 187.993 190.146 189.185 189.206 189.684Z" fill="#3790F4"/>
<path d="M164.38 176.063C164.38 171.24 168.47 169.867 168.47 169.867C168.47 169.867 164.38 168.494 164.38 163.671C164.38 168.494 160.29 169.867 160.29 169.867C160.293 169.864 164.38 171.24 164.38 176.063Z" fill="white"/>
<path d="M164.692 176.063H164.068C164.068 171.518 160.231 170.176 160.19 170.161L159.313 169.867L160.187 169.571C160.346 169.518 164.065 168.201 164.065 163.668H164.689C164.689 168.201 168.408 169.515 168.567 169.571L169.437 169.867L168.567 170.164C168.411 170.217 164.692 171.53 164.692 176.063ZM161.039 169.867C161.978 170.366 163.681 171.558 164.383 173.864C165.082 171.558 166.785 170.366 167.728 169.867C166.789 169.368 165.085 168.176 164.383 165.871C163.681 168.176 161.978 169.365 161.039 169.867Z" fill="#3790F4"/>
<path d="M215.788 162.523C215.788 157.7 219.878 156.328 219.878 156.328C219.878 156.328 215.788 154.955 215.788 150.132C215.788 154.955 211.698 156.328 211.698 156.328C211.701 156.324 215.788 157.7 215.788 162.523Z" fill="white"/>
<path d="M216.1 162.523H215.476C215.476 157.978 211.639 156.636 211.598 156.621L210.722 156.327L211.595 156.031C211.754 155.978 215.473 154.662 215.473 150.128H216.097C216.097 154.662 219.816 155.975 219.975 156.031L220.845 156.327L219.975 156.624C219.819 156.674 216.1 157.99 216.1 162.523ZM212.447 156.324C213.386 156.824 215.089 158.015 215.788 160.321C216.487 158.015 218.191 156.824 219.13 156.324C218.191 155.825 216.487 154.633 215.788 152.328C215.089 154.633 213.386 155.825 212.447 156.324Z" fill="#3790F4"/>
<path d="M201.29 144.606C201.29 144.606 198.264 143.589 198.264 140.02C198.264 143.589 195.237 144.606 195.237 144.606C195.237 144.606 198.264 145.623 198.264 149.192C198.26 145.623 201.29 144.606 201.29 144.606Z" fill="white"/>
<path d="M203.536 173.861C203.536 173.861 201.29 173.106 201.29 170.457C201.29 173.109 199.044 173.861 199.044 173.861C199.044 173.861 201.29 174.616 201.29 177.264C201.29 174.616 203.536 173.861 203.536 173.861Z" fill="white"/>
<path d="M179.476 175.028C179.476 175.028 177.23 174.272 177.23 171.624C177.23 174.276 174.983 175.028 174.983 175.028C174.983 175.028 177.23 175.782 177.23 178.431C177.227 175.782 179.476 175.028 179.476 175.028Z" fill="white"/>
<path d="M243.367 59.8535C239.13 59.3169 236.585 59.8223 236.585 59.8223L236.045 60.6397C235.783 61.0048 235.68 61.4571 235.758 61.9001C235.97 63.0981 236.475 65.5316 237.396 67.3224C238.538 69.5437 244.044 67.4004 243.554 63.8812L243.551 63.6722C243.551 63.6722 241.236 64.3586 241.236 62.7051C241.236 60.4931 243.561 59.969 243.561 59.969L243.367 59.8535Z" fill="#1773C6"/>
<path d="M145.087 54.322C145.087 54.322 147.901 56.796 149.694 56.3468C151.488 55.8975 152.218 55.6199 153.326 55.6199C154.437 55.6199 154.758 55.4982 154.758 55.4982C154.758 55.4982 156.677 62.0997 152.58 62.7954C149.139 63.3788 144.647 60.6646 144.725 58.0346L144.75 57.916C144.75 57.916 145.985 57.9129 145.985 57.2203C145.985 56.5277 146.069 55.5325 145.133 54.7026L145.087 54.322Z" fill="#1773C6"/>
</g>
<defs>
<clipPath id="clip0">
<rect width="342.237" height="231" fill="white"/>
</clipPath>
</defs>
</svg>
