<svg width="300" height="216" viewBox="0 0 300 216" fill="none" xmlns="http://www.w3.org/2000/svg">
    <path d="M275.429 104.453L294.08 108.307L297.043 133.164H275.429V104.453Z" fill="#484D57"/>
    <path d="M267.989 107.639C257.21 107.639 248.466 119.365 248.466 133.825C248.466 148.286 257.204 160.012 267.989 160.012H276.961V107.639H267.989Z"
          fill="#484D57"/>
    <path d="M184.622 107.639C173.989 107.639 165.373 119.365 165.373 133.825C165.373 148.286 173.989 160.012 184.622 160.012H193.467V107.639H184.622Z"
          fill="#484D57"/>
    <path d="M157.647 104.453H124.968V132.522H157.647V104.453Z" fill="#484D57"/>
    <path d="M127.829 107.639C116.548 107.639 107.404 119.441 107.404 134.003C107.404 148.565 116.548 160.368 127.829 160.368H137.215V107.639H127.829Z"
          fill="#484D57"/>
    <path d="M137.215 160.374C148.496 160.374 157.64 148.572 157.64 134.01C157.64 119.447 148.496 107.645 137.215 107.645C125.934 107.645 116.79 119.447 116.79 134.01C116.79 148.572 125.934 160.374 137.215 160.374Z"
          fill="#616670"/>
    <path d="M138.029 153.455C145.914 153.455 152.311 144.75 152.311 134.009C152.311 123.269 145.914 114.563 138.029 114.563C130.144 114.563 123.747 123.269 123.747 134.009C123.747 144.75 130.144 153.455 138.029 153.455Z"
          fill="#C7CCD6"/>
    <path d="M138.029 139.04C136.388 139.04 135.053 143.212 135.053 148.356C135.053 150.105 135.206 151.739 135.473 153.132C136.299 153.335 137.152 153.45 138.023 153.45C138.894 153.45 139.746 153.335 140.573 153.132C140.84 151.733 140.992 150.098 140.992 148.356C140.999 143.212 139.67 139.04 138.029 139.04Z"
          fill="#BDC2CC"/>
    <path d="M138.029 128.973C139.67 128.973 141.005 124.802 141.005 119.657C141.005 117.908 140.852 116.274 140.585 114.881C139.759 114.678 138.907 114.563 138.035 114.563C137.164 114.563 136.312 114.678 135.485 114.881C135.218 116.28 135.066 117.915 135.066 119.657C135.053 124.802 136.388 128.973 138.029 128.973Z"
          fill="#BDC2CC"/>
    <path d="M142.328 131.389C143.18 132.795 147.434 131.765 151.835 129.087C151.841 129.087 151.841 129.081 151.847 129.081C151.447 127.002 150.804 125.062 149.959 123.313C149.558 123.53 149.151 123.759 148.744 124.007C144.35 126.684 141.476 129.99 142.328 131.389Z"
          fill="#BDC2CC"/>
    <path d="M133.724 136.623C132.872 135.218 128.618 136.248 124.217 138.925C124.211 138.925 124.211 138.932 124.205 138.932C124.605 141.011 125.247 142.95 126.093 144.699C126.494 144.483 126.901 144.254 127.308 144.006C131.708 141.329 134.583 138.029 133.724 136.623Z"
          fill="#BDC2CC"/>
    <path d="M151.835 138.925C147.441 136.254 143.18 135.224 142.328 136.623C141.476 138.028 144.35 141.329 148.744 144.006C149.151 144.254 149.558 144.483 149.959 144.699C150.804 142.95 151.453 141.011 151.847 138.931C151.847 138.931 151.841 138.925 151.835 138.925Z"
          fill="#BDC2CC"/>
    <path d="M133.724 131.389C134.576 129.984 131.702 126.684 127.308 124.007C126.901 123.759 126.494 123.53 126.093 123.313C125.247 125.062 124.599 127.002 124.205 129.081C124.211 129.081 124.211 129.087 124.217 129.087C128.618 131.765 132.872 132.795 133.724 131.389Z"
          fill="#BDC2CC"/>
    <path d="M138.029 137.221C139.288 137.221 140.312 135.784 140.312 134.01C140.312 132.236 139.288 130.799 138.029 130.799C136.77 130.799 135.746 132.236 135.746 134.01C135.746 135.784 136.77 137.221 138.029 137.221Z"
          fill="#616670"/>
    <path d="M193.461 160.012C204.093 160.012 212.71 148.286 212.71 133.825C212.71 119.365 204.093 107.639 193.461 107.639C182.829 107.639 174.212 119.365 174.212 133.825C174.212 148.286 182.829 160.012 193.461 160.012Z"
          fill="#616670"/>
    <path d="M195.032 153.761C202.465 153.761 208.494 144.833 208.494 133.825C208.494 122.818 202.465 113.89 195.032 113.89C187.598 113.89 181.569 122.818 181.569 133.825C181.569 144.833 187.598 153.761 195.032 153.761Z"
          fill="#9BA0AA"/>
    <path d="M278.551 154.085C270.85 154.085 264.58 144.998 264.58 133.832C264.58 122.665 270.844 113.578 278.551 113.578C286.252 113.578 292.522 122.665 292.522 133.832C292.522 144.998 286.252 154.085 278.551 154.085ZM278.551 114.208C271.2 114.208 265.216 123.009 265.216 133.825C265.216 144.642 271.2 153.443 278.551 153.443C285.902 153.443 291.886 144.642 291.886 133.825C291.886 123.009 285.902 114.208 278.551 114.208Z"
          fill="#EDF2FC"/>
    <path d="M276.961 160.012C287.74 160.012 296.483 148.286 296.483 133.825C296.483 119.365 287.746 107.639 276.961 107.639C266.176 107.639 257.439 119.365 257.439 133.825C257.439 148.286 266.176 160.012 276.961 160.012Z"
          fill="#616670"/>
    <path d="M277.661 153.354C285.202 153.354 291.313 144.61 291.313 133.825C291.313 123.04 285.202 114.296 277.661 114.296C270.119 114.296 264.008 123.04 264.008 133.825C264.008 144.61 270.119 153.354 277.661 153.354Z"
          fill="#C7CCD6"/>
    <path d="M278.551 139.319C276.828 139.319 275.429 143.866 275.429 149.481C275.429 150.778 275.505 152.011 275.638 153.15C276.3 153.29 276.968 153.366 277.654 153.366C278.996 153.366 280.293 153.086 281.521 152.565C281.616 151.592 281.667 150.555 281.667 149.481C281.667 143.866 280.274 139.319 278.551 139.319Z"
          fill="#BDC2CC"/>
    <path d="M278.551 128.337C280.274 128.337 281.673 123.79 281.673 118.175C281.673 117.101 281.622 116.064 281.527 115.091C280.3 114.576 279.002 114.29 277.661 114.29C276.974 114.29 276.3 114.366 275.645 114.506C275.511 115.645 275.435 116.878 275.435 118.175C275.429 123.79 276.828 128.337 278.551 128.337Z"
          fill="#BDC2CC"/>
    <path d="M283.06 130.976C283.823 132.28 287.167 131.656 290.989 129.647C290.639 127.37 290.016 125.24 289.164 123.339C284.916 126.169 282.207 129.513 283.06 130.976Z"
          fill="#BDC2CC"/>
    <path d="M274.036 136.68C273.165 135.199 268.943 136.216 264.479 138.931C264.911 141.208 265.617 143.319 266.552 145.182C266.8 145.036 267.048 144.884 267.302 144.725C271.919 141.812 274.933 138.207 274.036 136.68Z"
          fill="#BDC2CC"/>
    <path d="M283.059 136.68C282.207 138.136 284.91 141.481 289.164 144.317C290.016 142.416 290.639 140.286 290.989 138.009C287.174 136 283.823 135.377 283.059 136.68Z"
          fill="#BDC2CC"/>
    <path d="M274.036 130.976C274.933 129.443 271.919 125.844 267.302 122.925C267.054 122.766 266.8 122.614 266.552 122.467C265.617 124.33 264.905 126.442 264.479 128.718C268.943 131.44 273.171 132.457 274.036 130.976Z"
          fill="#BDC2CC"/>
    <path d="M51.2729 107.639C39.992 107.639 30.8477 119.441 30.8477 134.003C30.8477 148.565 39.992 160.368 51.2729 160.368H60.6589V107.639H51.2729Z"
          fill="#484D57"/>
    <path d="M60.6588 160.374C71.9397 160.374 81.084 148.572 81.084 134.01C81.084 119.447 71.9397 107.645 60.6588 107.645C49.3779 107.645 40.2336 119.447 40.2336 134.01C40.2336 148.572 49.3779 160.374 60.6588 160.374Z"
          fill="#616670"/>
    <path d="M62.3185 154.085C70.2036 154.085 76.6008 145.099 76.6008 134.009C76.6008 122.919 70.2036 113.934 62.3185 113.934C54.4333 113.934 48.0361 122.919 48.0361 134.009C48.0361 145.099 54.4333 154.085 62.3185 154.085Z"
          fill="#9BA0AA"/>
    <path d="M275.435 96.5042C250.705 92.161 239.379 89.3312 239.379 89.3312C239.379 89.3312 225.784 80.0788 213.517 73.0966C211.349 71.863 208.786 70.3622 205.645 68.7597C179.477 59.501 152.006 61.6058 134.913 64.7218C114.901 68.3718 86.203 83.2202 71.7299 82.012C57.2567 80.8037 29.8938 80.1996 29.8938 80.1996C29.8938 80.1996 16.7878 81.7703 10.556 83.8497L5.08722 112.739H2.65807L0 136.992C0 136.992 25.169 143.72 78.267 143.72H114.374C114.374 143.72 116.497 106.761 138.163 106.761C159.828 106.761 156.852 143.72 156.852 143.72H262.622C262.622 143.72 260.924 107.613 281.311 107.613C301.698 107.613 294.054 142.022 294.054 142.022H300V117.082C300 117.082 300.165 100.841 275.435 96.5042Z"
          fill="#C4C9D3"/>
    <path d="M72.989 115.956C72.7474 115.956 72.5121 115.816 72.4104 115.581C72.2641 115.263 72.4104 114.881 72.7347 114.741L81.7073 110.742C81.968 108.058 83.5196 91.5501 83.1826 87.8173C83.1508 87.4676 83.4115 87.156 83.7612 87.1242C84.111 87.0924 84.4226 87.3531 84.4544 87.7029C84.8359 91.868 83.0236 110.443 82.9409 111.231L82.9028 111.6L73.2497 115.905C73.1671 115.937 73.0781 115.956 72.989 115.956Z"
          fill="#9BA0AA"/>
    <path d="M115.366 70.2347C115.366 70.2347 107.754 62.6675 82.3431 60.4863C58.8211 65.1539 41.728 72.9055 29.9002 80.2057C29.9002 80.2057 57.2568 80.8098 71.7363 82.018C81.9044 82.8638 99.0992 75.7862 115.366 70.2347Z"
          fill="#DCE3EF"/>
    <path d="M115.365 70.2349C122.246 67.8884 128.961 65.809 134.913 64.728C152.006 61.612 179.477 59.5072 205.638 68.7596C191.025 61.3195 163.853 51.7937 104.956 57.2307C96.8289 57.981 89.3062 59.1002 82.3367 60.4801C107.754 62.6676 115.365 70.2349 115.365 70.2349Z"
          fill="#C4C9D3"/>
    <path d="M209.95 99.677H199.896C199.178 99.677 198.599 99.0983 198.599 98.3798C198.599 97.6612 199.178 97.0825 199.896 97.0825H209.95C210.668 97.0825 211.247 97.6612 211.247 98.3798C211.247 99.092 210.668 99.677 209.95 99.677Z"
          fill="#616670"/>
    <path d="M278.551 137.488C279.937 137.488 281.056 135.848 281.056 133.825C281.056 131.803 279.937 130.163 278.551 130.163C277.165 130.163 276.046 131.803 276.046 133.825C276.046 135.848 277.165 137.488 278.551 137.488Z"
          fill="#616670"/>
    <path d="M72.9954 125.889C72.7855 125.609 72.3849 125.546 72.1051 125.762C71.8253 125.972 71.7681 126.373 71.9779 126.652C79.9903 137.405 89.9422 141.876 97.2296 143.726H105.617C100.657 143.516 84.7087 141.609 72.9954 125.889Z"
          fill="#9BA0AA"/>
    <path d="M155.052 85.6175C185.887 87.131 213.454 86.5014 228.302 90.3995L225.854 80.524C221.975 78.0884 217.67 75.4622 213.511 73.0966C211.342 71.863 208.78 70.3622 205.638 68.7597C179.477 59.501 152.006 61.6058 134.913 64.7218C132.897 65.0906 130.799 65.5739 128.63 66.1398C128.923 66.1589 124.306 84.1104 155.052 85.6175Z"
          fill="#DCE3EF"/>
    <path d="M247.665 138.988H173.01C166.931 138.988 164.133 131.338 164.012 131.014C153.799 105.482 140.185 94.2715 132.866 88.2495C124.217 81.1273 122.221 68.4474 122.138 67.9133L122.055 67.3728L122.577 67.2138C127.314 65.7576 131.308 64.7401 134.786 64.1042C149.469 61.4271 178.224 58.3938 205.835 68.1613L205.912 68.1931C208.583 69.5539 210.815 70.8321 212.786 71.9576L213.81 72.5427C225.962 79.4613 239.583 88.7137 239.716 88.8027L239.805 88.8599L249.191 101.336L247.665 138.988ZM133.679 87.2638C144.681 96.3254 156.114 107.842 165.208 130.562C165.239 130.658 167.834 137.716 173.01 137.716H246.444L247.919 101.737L238.934 89.7947C237.751 88.9935 224.798 80.2498 213.199 73.6428L212.169 73.0577C210.223 71.9449 208.017 70.6795 205.384 69.3441C178.059 59.6847 149.577 62.6989 135.021 65.3506C131.727 65.9547 127.95 66.9022 123.492 68.2567C123.982 70.7431 126.386 81.2545 133.679 87.2638Z"
          fill="#9BA0AA"/>
    <path d="M52.6019 133.062L12.7053 130.169V119.645L52.6019 121.482V133.062Z" fill="#DCE3EF"/>
    <path d="M234.063 91.4297L229.275 91.0291V82.0629L234.063 81.6623C236.925 81.4206 239.379 83.6781 239.379 86.546C239.379 89.4139 236.925 91.6714 234.063 91.4297Z"
          fill="#7B808A"/>
    <path d="M232.245 90.5708L229.275 90.2401V82.7619L232.245 82.5139C234.604 82.3167 236.626 84.1736 236.626 86.5455C236.632 88.9111 234.604 90.7679 232.245 90.5708Z"
          fill="#DCE3EF"/>
    <path d="M194.714 138.989C194.694 138.989 194.682 138.989 194.663 138.989C194.313 138.964 194.052 138.652 194.078 138.302C194.631 131.466 195.826 114.494 194.949 104.517C193.855 92.1738 187.833 87.3282 187.769 87.2837L187.649 87.1629C178.86 75.3859 176.012 62.8904 175.986 62.7633C175.91 62.4199 176.126 62.0828 176.469 62.0065C176.813 61.9302 177.15 62.1464 177.226 62.4898C177.252 62.6106 180.043 74.8073 188.622 86.3362C189.372 86.953 195.127 92.0529 196.214 104.409C197.105 114.481 195.903 131.543 195.349 138.41C195.318 138.735 195.038 138.989 194.714 138.989Z"
          fill="#9BA0AA"/>
    <path d="M13.3094 113.432L54.4841 114.017L64.6141 95.849C64.7858 95.5438 64.6777 95.1559 64.3661 94.9842C64.0608 94.8125 63.6729 94.9206 63.5013 95.2322L53.7401 112.732L14.3205 112.173C13.1441 107.461 9.42406 97.5024 8.45748 94.9588L7.99963 97.3688C9.51308 101.445 12.3683 109.349 13.195 112.942L13.3094 113.432Z"
          fill="#9BA0AA"/>
    <path d="M83.8057 91.6647C83.8057 91.6647 82.0506 89.013 74.7504 86.87C67.4503 84.727 50.4589 81.2041 50.4589 84.7334C50.4589 88.2626 54.4969 94.9269 60.6588 95.4293C66.8207 95.9316 78.1525 94.4245 80.162 94.5453C82.1714 94.6662 83.8629 94.469 83.8057 91.6647Z"
          fill="#777C86"/>
    <path d="M22.5491 84.702C23.0069 82.7752 21.5571 81.9803 19.3187 81.8022C16.1328 82.3809 12.877 83.0804 10.5623 83.8499L8.48291 94.8065C8.48927 94.8065 21.042 91.0292 22.5491 84.702Z"
          fill="#777C86"/>
</svg>
