<svg width="342" height="209" viewBox="0 0 342 209" fill="none" xmlns="http://www.w3.org/2000/svg">
<path d="M0.29803 208.394C0.29803 208.394 -5.27872 98.3368 31.8941 51.3408C69.067 4.34477 121.525 -24.5973 170.304 28.5063C219.082 81.6099 243.774 81.6099 266.874 85.1945C289.974 88.7791 322.897 86.433 331.128 110.306C339.359 134.179 351.309 175.602 330.067 208.391H0.29803V208.394Z" fill="#DCECFF"/>
<path d="M185.523 44.1455C180.72 39.5222 175.658 34.3354 170.304 28.5064C166.794 24.6859 163.265 21.2946 159.727 18.2998L69.7878 15.092C56.0851 24.2599 43.2737 36.9534 31.8908 51.3409C6.49072 83.458 1.05159 145.025 0.153809 180.789L187.142 165.998L185.523 44.1455Z" fill="#1773C6"/>
<path d="M180.628 39.3255C177.309 35.9867 173.872 32.389 170.304 28.5063C168.921 26.999 167.535 25.5639 166.146 24.1877L62.2387 20.5605C51.3703 29.0403 41.1572 39.6303 31.891 51.3408C7.76876 81.8392 1.65138 138.898 0.327637 175.196L182.247 160.988L180.628 39.3255Z" fill="#105A91"/>
<path d="M178.197 36.8582C175.638 34.2304 173.007 31.4519 170.304 28.5062C169.544 27.6805 168.783 26.8712 168.023 26.0848L60.0401 22.3135C49.9909 30.482 40.5314 40.4232 31.8943 51.3407C8.16199 81.3444 1.85456 137.043 0.396484 173.403L179.825 159.389L178.197 36.8582Z" fill="#7DB8FB"/>
<path d="M146.886 25.3477L17.0254 78.3202C14.2304 85.4566 11.8844 93.0484 9.91846 100.837L163.017 25.9112L146.886 25.3477Z" fill="#9BCAFC"/>
<path d="M178.475 57.8022L13.6992 172.365L47.5103 169.724L178.567 64.7453L178.475 57.8022Z" fill="#9BCAFC"/>
<path d="M64.4797 79.7128C67.0944 79.7586 69.0472 77.6649 68.8473 75.0469C68.6475 72.4289 66.3703 70.2402 63.7555 70.1681C61.1277 70.096 59.1421 72.1864 59.342 74.8307C59.5419 77.4749 61.8518 79.6669 64.4797 79.7128ZM63.9423 72.6681C65.1874 72.6976 66.2752 73.7395 66.3703 74.9912C66.4653 76.2396 65.5314 77.2357 64.2863 77.2095C63.038 77.1832 61.9436 76.1413 61.8486 74.8864C61.7535 73.6314 62.6939 72.6386 63.9423 72.6681Z" fill="white"/>
<path d="M53.5163 79.5161C56.1867 79.5652 58.1854 77.4486 57.9856 74.8011C57.7857 72.1536 55.4593 69.9419 52.7889 69.8665C50.1021 69.7945 48.0706 71.9078 48.2738 74.5815C48.4736 77.252 50.8328 79.4669 53.5163 79.5161ZM52.9789 72.3961C54.2503 72.4288 55.361 73.4806 55.4593 74.7454C55.5543 76.0069 54.6008 77.016 53.3263 76.9898C52.0517 76.9636 50.9344 75.9118 50.8361 74.6405C50.741 73.3692 51.7044 72.3633 52.9789 72.3961Z" fill="white"/>
<path d="M42.5299 80.9281C27.1299 80.6758 15.1737 92.9467 16.3074 108.304C17.4411 123.681 31.2224 135.736 46.5961 135.169C61.5209 134.618 72.4418 122.318 71.3343 107.744C70.2268 93.1924 57.4809 81.1739 42.5299 80.9281ZM64.0308 94.7357C61.0458 96.5378 59.5026 99.6243 57.7463 103.15C55.3118 108.035 52.5333 113.606 44.8759 118.321C35.3738 124.172 25.6882 121.62 23.5978 120.958C23.293 120.519 23.0014 120.07 22.7229 119.611C23.6436 119.677 24.7642 119.723 26.0191 119.697C31.799 119.575 40.328 117.95 44.8497 110.142C47.6184 105.358 48.8537 101.459 49.9415 98.0286C51.357 93.5626 52.3989 90.2861 56.2325 87.4813C59.283 89.3686 61.9436 91.8457 64.0308 94.7357ZM21.1993 116.728C21.6252 116.741 22.0971 116.748 22.6115 116.738C27.0283 116.656 34.3875 115.526 38.3588 109.362C41.1275 105.067 41.8975 100.201 42.6445 95.5089C43.3392 91.1216 44.001 86.9734 46.2324 83.7853C48.8569 84.1818 51.3734 84.9747 53.7063 86.0953C49.9972 89.1655 48.8602 92.7238 47.4677 97.1046C46.4126 100.427 45.2101 104.202 42.5561 108.766C37.1104 118.134 24.4235 117.22 21.2419 116.83C21.2288 116.797 21.2157 116.761 21.1993 116.728ZM42.7232 83.4871C42.8968 83.4904 43.0705 83.5003 43.2441 83.5068C41.3372 86.9079 40.6851 90.9676 40.056 94.9257C39.345 99.3851 38.6078 104.008 36.0979 107.888C31.9596 114.284 23.0276 114.235 20.177 114.045C19.5839 112.193 19.194 110.267 19.0466 108.278C18.021 94.4047 28.801 83.2938 42.7232 83.4871ZM46.4061 132.6C38.7028 132.865 31.4452 129.621 26.3173 124.284C27.9327 124.562 29.9412 124.775 32.2217 124.716C36.3633 124.608 41.3536 123.609 46.3438 120.519C54.5484 115.437 57.5989 109.3 60.0334 104.398C61.6815 101.082 63.0183 98.3989 65.4496 96.9146C67.3533 100.181 68.5721 103.864 68.867 107.773C69.8697 120.997 59.9383 132.135 46.4061 132.6Z" fill="white"/>
<path d="M164.953 50.6592L168.324 50.7706V65.4398L159.569 65.1515V62.4319L164.953 62.6089V50.6592Z" fill="white"/>
<path d="M148.557 64.7912V58.2675C148.557 57.6711 148.649 57.1239 148.836 56.6259C149.022 56.1279 149.291 55.7019 149.638 55.348C149.989 54.9942 150.415 54.7222 150.916 54.5322C151.418 54.3454 151.981 54.2602 152.607 54.2799C153.479 54.3094 154.294 54.4699 155.055 54.7681C155.815 55.063 156.509 55.502 157.135 56.0787L156.575 57.0355C156.49 57.1862 156.372 57.314 156.221 57.4123C156.07 57.5106 155.89 57.5565 155.677 57.5499C155.438 57.5433 155.232 57.4942 155.058 57.409C154.884 57.3238 154.707 57.2255 154.524 57.1207C154.34 57.0125 154.134 56.9175 153.901 56.829C153.669 56.7406 153.37 56.6914 153.003 56.6783C152.545 56.6619 152.191 56.7897 151.942 57.0551C151.693 57.3205 151.568 57.7629 151.568 58.3789V58.8245C152.751 58.8638 153.731 59.0047 154.511 59.2439C155.287 59.4864 155.907 59.7747 156.365 60.1089C156.824 60.4431 157.145 60.8101 157.332 61.2066C157.519 61.603 157.61 61.9864 157.61 62.3566C157.61 62.8285 157.538 63.2413 157.391 63.5985C157.243 63.9523 157.037 64.2472 156.768 64.4832C156.5 64.7191 156.172 64.8894 155.785 65.0009C155.399 65.1123 154.973 65.1614 154.498 65.145C154.147 65.1319 153.826 65.0926 153.534 65.0271C153.246 64.9615 152.974 64.8632 152.718 64.7387C152.463 64.6142 152.214 64.4635 151.975 64.2866C151.735 64.1096 151.486 63.9097 151.228 63.6771L151.008 64.244C150.91 64.4963 150.785 64.6601 150.634 64.7354C150.484 64.8108 150.264 64.8436 149.973 64.8337L148.557 64.7912ZM154.373 62.8612C154.566 62.7236 154.661 62.4713 154.661 62.1142C154.661 61.9307 154.616 61.7603 154.527 61.603C154.439 61.4458 154.275 61.3016 154.042 61.1705C153.809 61.0395 153.495 60.9281 153.095 60.8363C152.695 60.7413 152.188 60.6856 151.568 60.6659V62.0945C151.873 62.4189 152.178 62.6581 152.476 62.8088C152.774 62.9595 153.125 63.0415 153.524 63.0546C153.898 63.0644 154.18 62.9989 154.373 62.8612Z" fill="white"/>
<path d="M145.706 54.2569V60.8821C145.706 61.4588 145.631 61.9863 145.477 62.4647C145.323 62.9431 145.097 63.3559 144.799 63.7C144.501 64.0473 144.134 64.3127 143.698 64.4962C143.262 64.6797 142.761 64.7616 142.197 64.7452C141.866 64.7354 141.558 64.6928 141.28 64.6207C141.001 64.5486 140.739 64.4503 140.497 64.3324C140.254 64.2144 140.028 64.0735 139.815 63.9064C139.602 63.7426 139.396 63.5591 139.196 63.3592L139.006 63.9556C138.888 64.2996 138.632 64.4667 138.249 64.4536L136.335 64.3913V53.9521L139.425 54.0537V61.4948C139.704 61.7602 139.992 61.9667 140.287 62.1174C140.582 62.2681 140.9 62.35 141.24 62.3599C141.693 62.3762 142.033 62.2452 142.266 61.9699C142.499 61.6947 142.613 61.3015 142.613 60.7838V54.1586L145.706 54.2569Z" fill="white"/>
<path d="M129.992 64.1848V56.7437C129.72 56.4849 129.435 56.2785 129.134 56.1212C128.835 55.9639 128.514 55.8787 128.177 55.8689C127.725 55.8525 127.381 55.9836 127.151 56.2621C126.919 56.5406 126.801 56.9338 126.801 57.4449V64.08L123.708 63.9784V57.3433C123.708 56.7732 123.783 56.2457 123.937 55.764C124.091 55.2824 124.317 54.8695 124.615 54.5288C124.913 54.1847 125.28 53.9226 125.716 53.7391C126.152 53.5556 126.653 53.4737 127.217 53.4901C127.548 53.4999 127.856 53.5425 128.141 53.6146C128.423 53.6867 128.685 53.7817 128.927 53.9029C129.17 54.0209 129.399 54.1651 129.612 54.3322C129.825 54.4993 130.031 54.6828 130.231 54.8761L130.411 54.2765C130.464 54.1028 130.556 53.975 130.687 53.8931C130.814 53.8112 130.978 53.7719 131.172 53.7784L133.085 53.8407V64.2799L129.992 64.1848Z" fill="white"/>
<path d="M111.482 63.5821V48.5098L114.572 48.6113V53.8965C114.87 53.6507 115.205 53.4541 115.575 53.31C115.945 53.1658 116.394 53.1003 116.925 53.1166C117.583 53.1396 118.186 53.2969 118.73 53.5885C119.274 53.8801 119.743 54.2766 120.133 54.7779C120.523 55.2759 120.824 55.8657 121.034 56.5407C121.247 57.2156 121.351 57.9431 121.351 58.7196C121.351 59.565 121.256 60.3153 121.066 60.9706C120.876 61.6259 120.618 62.1764 120.283 62.622C119.952 63.0676 119.556 63.4051 119.097 63.6312C118.638 63.8573 118.14 63.9621 117.6 63.9458C117.246 63.9326 116.922 63.8868 116.617 63.8081C116.315 63.7295 116.03 63.6181 115.768 63.4805C115.506 63.3396 115.26 63.1758 115.034 62.989C114.808 62.8022 114.592 62.5925 114.385 62.3632L114.146 63.1495C114.094 63.3232 114.002 63.451 113.871 63.5329C113.74 63.6181 113.579 63.6541 113.386 63.6476L111.482 63.5821ZM117.197 61.3802C117.397 61.2852 117.567 61.1246 117.711 60.8985C117.855 60.6724 117.967 60.371 118.045 59.9975C118.124 59.6239 118.167 59.1619 118.167 58.6115C118.167 58.0414 118.118 57.5531 118.016 57.1468C117.918 56.7405 117.777 56.4096 117.603 56.1508C117.426 55.8919 117.22 55.7051 116.981 55.5806C116.741 55.4594 116.479 55.3939 116.194 55.384C115.896 55.3742 115.611 55.4168 115.342 55.5118C115.074 55.6068 114.818 55.7805 114.579 56.0361V60.466C114.713 60.6331 114.847 60.7773 114.982 60.9018C115.119 61.0263 115.264 61.1312 115.414 61.2196C115.568 61.3048 115.735 61.3736 115.919 61.4228C116.102 61.4719 116.306 61.5014 116.532 61.508C116.774 61.5178 116.997 61.4752 117.197 61.3802Z" fill="white"/>
<path d="M105.139 63.3723V56.9699C104.674 56.0819 104.035 55.6265 103.226 55.597C102.993 55.5904 102.8 55.597 102.646 55.6232C102.492 55.6494 102.36 55.6592 102.246 55.656C102.111 55.6527 102.007 55.6199 101.928 55.5609C101.849 55.502 101.797 55.4004 101.767 55.2595L101.368 52.9495C101.653 52.73 102.033 52.6284 102.505 52.6448C103.062 52.6644 103.579 52.8512 104.051 53.2083C104.523 53.5655 104.949 54.0471 105.329 54.65L105.499 53.6802C105.526 53.5458 105.558 53.4344 105.594 53.3427C105.631 53.2509 105.683 53.1756 105.755 53.1199C105.824 53.0642 105.912 53.0249 106.014 53.0019C106.119 52.979 106.247 52.9692 106.397 52.9757L108.232 53.0347V63.4739L105.139 63.3723Z" fill="white"/>
<path d="M89.3853 52.4187L91.8787 52.5006C92.0589 52.5072 92.2261 52.5629 92.3833 52.6743C92.5406 52.7824 92.6455 52.9167 92.6979 53.0707L94.2346 57.6023C94.3067 57.8185 94.3853 58.0348 94.464 58.2445C94.5426 58.4542 94.618 58.6704 94.6835 58.8867C94.7818 58.4738 94.9129 58.061 95.0734 57.6514L96.7674 53.2051C96.8198 53.0609 96.9148 52.9331 97.0459 52.8316C97.1802 52.73 97.3637 52.6808 97.6029 52.6907L100.336 52.7791L96.2071 62.1698L98.2025 66.4621L95.8893 66.3868C95.5977 66.377 95.3847 66.3213 95.2503 66.2197C95.1193 66.1181 95.0046 65.9608 94.9129 65.7511L89.3853 52.4187Z" fill="white"/>
<path d="M73.6083 49.0766C73.8671 48.8439 74.162 48.6375 74.4897 48.4573C74.8173 48.2771 75.1712 48.1231 75.5513 47.9986C75.9314 47.8741 76.3311 47.7823 76.7538 47.7266C77.1765 47.6709 77.609 47.648 78.0546 47.6644C78.8541 47.6906 79.5586 47.8347 80.1778 48.1001C80.7971 48.3655 81.3181 48.7096 81.744 49.1323C82.17 49.5549 82.4911 50.0333 82.7106 50.5641C82.9302 51.0949 83.0383 51.6356 83.0383 52.186C83.0383 52.8708 82.9465 53.4442 82.7598 53.903C82.573 54.365 82.3305 54.7451 82.0258 55.0465C81.7244 55.3479 81.3803 55.5904 80.9937 55.7673C80.6071 55.9443 80.2139 56.095 79.8076 56.213C79.4013 56.3309 79.0048 56.4358 78.6215 56.5308C78.2348 56.6258 77.8908 56.7372 77.5893 56.8683C77.2879 56.9993 77.0421 57.1697 76.8554 57.3794C76.6686 57.5891 76.5769 57.8644 76.5769 58.2051C76.5769 58.7949 76.7472 59.234 77.0847 59.5158C77.4222 59.7975 77.8973 59.9515 78.5101 59.9712C78.9622 59.9876 79.3554 59.9352 79.6863 59.8172C80.0173 59.7025 80.3122 59.5682 80.5677 59.424C80.8233 59.2798 81.0527 59.1455 81.2558 59.0243C81.459 58.903 81.6589 58.8473 81.8587 58.8539C82.0127 58.8604 82.1536 58.8998 82.288 58.9784C82.4223 59.057 82.5239 59.1586 82.596 59.2798L83.592 60.9018C83.307 61.1803 82.9695 61.4326 82.5861 61.6554C82.1995 61.8782 81.7866 62.0682 81.3509 62.2255C80.9118 62.3828 80.4596 62.5007 79.9878 62.5794C79.5192 62.658 79.0572 62.6908 78.6083 62.6744C77.7827 62.6482 77.0487 62.4974 76.3999 62.2255C75.7512 61.9535 75.2073 61.5898 74.7649 61.1344C74.3226 60.6789 73.9851 60.1547 73.7524 59.5551C73.5198 58.9555 73.4019 58.3198 73.4019 57.6416C73.4019 57.0321 73.4969 56.5111 73.6804 56.0852C73.8671 55.6592 74.1096 55.2988 74.4143 55.0072C74.7158 54.7156 75.0631 54.4797 75.453 54.2962C75.8429 54.1127 76.2394 53.9587 76.6457 53.8276C77.052 53.6965 77.4484 53.5786 77.8384 53.4737C78.2283 53.3689 78.5723 53.2509 78.8738 53.1199C79.1752 52.9888 79.4209 52.8283 79.6077 52.6415C79.7945 52.4547 79.8862 52.2123 79.8862 51.9141C79.8862 51.4521 79.7322 51.0786 79.4242 50.7968C79.1162 50.515 78.6444 50.3643 78.012 50.3413C77.645 50.3282 77.3207 50.3675 77.0356 50.456C76.7505 50.5445 76.495 50.6461 76.2721 50.7575C76.0493 50.8721 75.8495 50.9737 75.6725 51.0655C75.4956 51.1572 75.3318 51.1998 75.1778 51.1932C75.0041 51.1867 74.8632 51.1441 74.7551 51.0589C74.647 50.9737 74.5421 50.8492 74.4405 50.6854L73.6083 49.0766Z" fill="white"/>
<path d="M68.5754 51.9929C69.2045 52.2878 69.7386 52.6777 70.181 53.1626C70.6233 53.6475 70.9641 54.2046 71.1967 54.8369C71.4326 55.4693 71.5506 56.1345 71.5506 56.8324C71.5506 57.7597 71.413 58.5657 71.1377 59.2538C70.8625 59.9419 70.4857 60.5153 70.0106 60.9674C69.5355 61.4229 68.9817 61.7571 68.3461 61.9733C67.7104 62.1896 67.0322 62.2879 66.308 62.265C65.9542 62.2518 65.5839 62.2158 65.1973 62.1536C64.8074 62.0913 64.4207 61.9864 64.0308 61.8423C63.6409 61.6981 63.2641 61.5048 62.8938 61.2623C62.5236 61.0199 62.1795 60.7086 61.8617 60.3285L62.7595 59.2407C62.884 59.0637 63.0708 58.9785 63.3165 58.9884C63.5033 58.9949 63.6802 59.0441 63.8506 59.1358C64.021 59.2276 64.2078 59.3324 64.4076 59.4471C64.6108 59.5618 64.8401 59.6666 65.099 59.7616C65.3578 59.8567 65.6691 59.9091 66.0263 59.9222C66.698 59.9451 67.2451 59.7649 67.6711 59.3881C68.0971 59.008 68.3592 58.3855 68.4608 57.5172L62.4974 57.3239C62.3565 57.3206 62.2451 57.2977 62.1533 57.2616C62.0649 57.2256 61.9928 57.1633 61.9404 57.0716C61.8879 56.9831 61.8519 56.8651 61.8322 56.7144C61.8126 56.567 61.8027 56.3737 61.8027 56.141C61.8027 55.3907 61.9174 54.719 62.1468 54.1325C62.3761 53.546 62.694 53.0545 63.1035 52.658C63.5131 52.2616 64.0013 51.9667 64.5682 51.7701C65.135 51.5735 65.7641 51.4883 66.4489 51.5112C67.2386 51.5341 67.9496 51.6947 68.5754 51.9929ZM65.5413 53.8048C65.3087 53.9097 65.1219 54.0538 64.9777 54.2341C64.8336 54.4143 64.732 54.6207 64.6697 54.8533C64.6075 55.086 64.5747 55.3252 64.5747 55.5742L68.4345 55.6987C68.3297 55.0565 68.1102 54.5617 67.776 54.2111C67.4417 53.8605 66.9797 53.677 66.39 53.6574C66.0557 53.6508 65.774 53.7 65.5413 53.8048Z" fill="white"/>
<path d="M56.0785 61.7734V55.371C55.6132 54.483 54.9743 54.0276 54.165 53.9981C53.9323 53.9915 53.739 53.9981 53.585 54.0243C53.431 54.0505 53.2999 54.0604 53.1853 54.0571C53.0509 54.0538 52.9461 54.021 52.8674 53.9621C52.7888 53.9031 52.7364 53.8015 52.7069 53.6606L52.3071 51.3506C52.5922 51.1311 52.9723 51.0295 53.4441 51.0459C54.0011 51.0656 54.5188 51.2523 54.9907 51.6095C55.4625 51.9666 55.8884 52.4483 56.2685 53.0512L56.4389 52.0813C56.4651 51.947 56.4979 51.8356 56.5339 51.7438C56.57 51.6521 56.6224 51.5767 56.6945 51.521C56.7633 51.4653 56.8518 51.426 56.9533 51.403C57.0582 51.3801 57.186 51.3703 57.3367 51.3768L59.1716 51.4358V61.875L56.0785 61.7734Z" fill="white"/>
<path d="M40.3413 50.8164L42.7955 50.895C42.9953 50.9016 43.169 50.9606 43.3132 51.0687C43.4606 51.1768 43.5589 51.3112 43.6113 51.4652L45.1087 56.1966C45.2267 56.5832 45.3414 56.96 45.4462 57.3237C45.5511 57.6907 45.6428 58.0544 45.7149 58.4214C45.787 58.0609 45.8755 57.7005 45.9803 57.3434C46.0819 56.9862 46.19 56.616 46.3047 56.2359L47.7398 51.5995C47.7923 51.4488 47.8938 51.321 48.0446 51.2227C48.1953 51.1244 48.3788 51.0785 48.5983 51.0851L51.1704 51.1703L47.1632 61.4784L44.3519 61.3867L40.3413 50.8164Z" fill="white"/>
<path d="M35.197 49.0635C35.3706 49.2339 35.5705 49.3715 35.7998 49.4764C36.0292 49.5812 36.2749 49.6369 36.5338 49.6468C36.7861 49.6566 37.022 49.614 37.2415 49.5255C37.4611 49.4338 37.6544 49.3125 37.8248 49.152C37.9952 48.9947 38.1262 48.8079 38.2245 48.5917C38.3195 48.3754 38.3687 48.1461 38.3687 47.8971C38.3687 47.6415 38.3195 47.4023 38.2245 47.1795C38.1262 46.9534 37.9952 46.7568 37.8248 46.5831C37.6544 46.4095 37.4611 46.2719 37.2415 46.1703C37.022 46.0687 36.7861 46.013 36.5338 46.0065C36.4322 46.0032 36.3372 46.0097 36.2389 46.0196C35.7048 46.6552 35.174 47.2909 34.6465 47.9331C34.6629 48.1231 34.7087 48.3066 34.7874 48.4803C34.8857 48.6998 35.0233 48.8931 35.197 49.0635Z" fill="white"/>
<path d="M34.9971 61.082L38.0869 61.1836V50.7444L34.9971 50.6428V61.082Z" fill="white"/>
<path d="M27.5789 61.0034C28.2113 61.0231 28.8142 60.9215 29.3876 60.6987C29.9643 60.4759 30.4689 60.1417 30.9014 59.6961C31.3371 59.2505 31.6845 58.6967 31.94 58.0349C32.1956 57.373 32.3234 56.6096 32.3234 55.7511C32.3234 55.0008 32.212 54.293 31.9892 53.6311C31.809 53.0938 31.5534 52.6154 31.2323 52.1895C30.5147 53.1266 29.8103 54.0833 29.1255 55.0663C29.1418 55.2531 29.1517 55.4431 29.1517 55.6462C29.1517 56.6456 28.9616 57.409 28.5783 57.9333C28.1949 58.4575 27.6674 58.7098 26.999 58.6869C26.9072 58.6836 26.822 58.6771 26.7401 58.6705C26.3338 59.3193 25.9341 59.9746 25.5376 60.6365C25.8521 60.7479 26.17 60.8363 26.4878 60.892C26.8613 60.9543 27.225 60.9903 27.5789 61.0034Z" fill="white"/>
<path d="M92.046 56.7309L89.6869 73.2907L85.4404 76.9638V88.3794H108.029V74.0443H101.99L103.449 54.0637L92.046 56.7309Z" fill="#EFC6BD"/>
<path d="M99.7719 69.6634L94.9226 65.1745C94.2345 64.5388 93.8446 63.6443 93.8446 62.7072V60.1056L96.5445 55.679L95.319 55.964L93.0778 59.6371L92.9468 59.8533V60.1056V62.7072C92.9468 63.8901 93.4448 65.0303 94.3131 65.8331L99.1625 70.322C99.9914 71.0887 101.046 71.5376 102.164 71.613L102.229 70.7185C101.318 70.6562 100.45 70.2892 99.7719 69.6634Z" fill="#DBA59C"/>
<path d="M125.221 157.283H82.3438V88.3793L107.17 83.9985L125.221 157.283Z" fill="white"/>
<path d="M89.2441 55.5576C89.2441 55.5576 89.6537 60.384 90.925 64.5944L93.8477 58.3132L96.9179 56.1899L99.8341 51.3439L90.0436 51.0129L89.2441 55.5576Z" fill="#514132"/>
<path d="M107.174 85.4206C96.3546 90.1323 88.1762 88.8938 88.1762 88.8938L87.3833 85.8596C87.3833 85.8596 95.3487 87.1375 106.168 82.4258L107.174 85.4206Z" fill="#EF9D59"/>
<path d="M103.76 72.052L119.91 77.9433C122.128 78.7526 123.878 80.4958 124.697 82.7107L141.286 127.675L146.981 139.917C148.901 144.039 148.017 148.924 144.776 152.115L141.686 155.159L109.425 154.363C109.425 154.363 114.933 120.775 111.217 102.455C107.502 84.136 105.185 80.5777 105.185 80.5777L103.76 72.052Z" fill="#EA8021"/>
<path d="M143.816 150.723C145.405 149.7 146.706 148.393 147.692 146.909C148.23 144.615 148.02 142.154 146.981 139.917L146.955 139.861C146.709 143.062 145.045 146.113 142.188 148.02L136.506 151.82C135.769 152.312 134.868 152.495 133.999 152.328L128.41 151.247L126.755 151.971L130.084 154.488L132.361 154.927L137.073 155.045C137.138 155.008 137.207 154.972 137.273 154.93L143.816 150.723Z" fill="white"/>
<path d="M127.577 151.971C127.577 151.971 129.337 155.212 136.175 156.149" stroke="#CC630D" stroke-width="4" stroke-miterlimit="10" stroke-linecap="round"/>
<path d="M111.814 154.36C111.814 154.36 117.322 120.772 113.606 102.452C109.89 84.1328 107.574 80.5745 107.574 80.5745" stroke="#CC630D" stroke-width="4" stroke-miterlimit="10" stroke-linecap="round"/>
<path d="M123.501 99.9292L120.709 124.182" stroke="#CC630D" stroke-width="4" stroke-miterlimit="10" stroke-linecap="round"/>
<path d="M125.552 146.198L104.179 143.875L103.76 157.283L125.221 153.433L128.41 149.448L125.552 146.198Z" fill="#EFC6BD"/>
<path d="M113.321 148.708L113.347 148.688L113.373 148.665C113.691 148.39 114.104 147.79 114.097 147.004C114.654 146.65 115.234 146.037 115.51 145.107L114.605 145.009C114.179 146.204 113.095 146.486 113.095 146.486C113.449 147.417 112.783 147.99 112.783 147.99L104.31 154.271C104.156 154.386 103.999 154.491 103.838 154.593L103.806 155.651C104.163 155.454 104.51 155.235 104.844 154.989L113.321 148.708Z" fill="#DBA59C"/>
<path d="M123.622 145.988C123.622 145.988 120.631 139.822 117.551 138.065L115.198 141.08C115.198 141.08 117.217 142.508 117.436 145.317C117.656 148.121 123.622 145.988 123.622 145.988Z" fill="#EFC6BD"/>
<path d="M90.8365 156.309C90.8365 156.309 93.4021 120.198 93.1989 110.375C92.9958 100.552 90.2402 91.4722 90.2402 91.4722L87.3863 84.7978L88.1661 74.6077L80.4825 77.8187C74.5584 80.2958 69.6239 84.6799 66.5111 90.2959C65.289 92.5044 64.0406 94.9454 62.707 97.6748L66.272 158.478L90.8365 156.309Z" fill="#EA8021"/>
<path d="M87.8519 156.309C87.8519 156.309 90.4174 120.198 90.2143 110.375C90.0111 100.552 87.2555 91.4721 87.2555 91.4721L85.0864 84.4438" stroke="#CC630D" stroke-width="4" stroke-miterlimit="10" stroke-linecap="round"/>
<path d="M125.552 146.198L128.147 144.222C127.764 143.164 126.755 139.602 128.914 135.804C127.784 127.731 122.767 120.696 115.451 117.017L110.342 114.444C101.961 110.224 94.641 104.162 88.9364 96.7115C86.6134 93.6774 83.1238 91.7639 79.3164 91.4329L70.391 90.6597L57.514 104.195L58.0678 107.632C58.4839 110.218 58.4773 112.852 58.0481 115.434L57.7663 117.131C56.649 123.829 58.3201 129.893 63.4905 134.297L77.9632 146.66L104.002 149.641L104.182 143.871L125.552 146.198Z" fill="#91C8ED"/>
<path d="M103.772 130.336C104.143 130.667 104.516 130.998 104.886 131.325C105.171 131.578 105.411 131.611 105.738 131.45C105.781 131.427 105.827 131.404 105.869 131.384C105.915 131.362 105.964 131.348 106.007 131.398C106.05 131.447 106.023 131.489 105.994 131.529C105.964 131.568 105.932 131.601 105.899 131.637C105.335 132.24 104.772 132.843 104.208 133.442C104.169 133.481 104.136 133.527 104.087 133.557C104.002 133.609 103.953 133.577 103.946 133.478C103.946 133.459 103.953 133.436 103.962 133.419C104.238 132.931 103.998 132.584 103.602 132.246C102.924 131.67 102.265 131.067 101.597 130.474C101.354 130.257 101.344 130.257 101.082 130.434C101.02 130.477 100.954 130.519 100.889 130.559C100.843 130.585 100.791 130.595 100.748 130.556C100.702 130.516 100.709 130.464 100.728 130.418C100.787 130.287 100.853 130.156 100.912 130.025C101.122 129.563 101.262 129.081 101.351 128.576C101.394 128.341 101.475 128.314 101.682 128.478C101.882 128.635 101.875 128.635 101.921 128.39C101.99 128.006 102.147 127.662 102.416 127.38C102.589 127.2 102.74 127.004 102.95 126.86C103.599 126.411 104.306 126.466 104.962 126.984C105.715 127.58 106.403 128.242 107.131 128.865C107.472 129.156 107.681 129.186 108.074 128.986C108.14 128.953 108.222 128.855 108.301 128.953C108.373 129.045 108.268 129.104 108.215 129.16C107.635 129.782 107.052 130.405 106.469 131.027C106.417 131.083 106.361 131.191 106.263 131.122C106.168 131.057 106.249 130.968 106.279 130.896C106.439 130.529 106.38 130.27 106.063 129.985C105.44 129.432 104.818 128.878 104.192 128.327C104.018 128.173 103.821 128.039 103.615 127.931C103.12 127.669 102.724 127.757 102.396 128.196C102.16 128.508 102.242 128.953 102.616 129.297C102.996 129.648 103.389 129.989 103.772 130.336C103.776 130.333 103.776 130.336 103.772 130.336Z" fill="white"/>
<path d="M100.457 132.892C100.159 133.209 99.8637 133.531 99.559 133.848C99.4542 133.96 99.4312 134.055 99.5721 134.163C99.9489 134.455 100.326 134.743 100.794 134.877C101.292 135.018 101.702 134.903 102.056 134.573C102.426 134.228 102.652 133.816 102.711 133.311C102.721 133.226 102.718 133.108 102.842 133.105C102.97 133.101 102.999 133.223 103.029 133.314C103.196 133.884 103.144 134.428 102.885 134.943C102.613 135.483 102.2 135.896 101.646 136.165C101.056 136.453 100.427 136.473 99.8015 136.214C98.7399 135.772 97.9764 135.041 97.7078 133.93C97.5177 133.141 97.711 132.449 98.232 131.833C99.002 130.926 100.205 130.926 101.178 131.502C101.489 131.689 101.505 131.764 101.276 132.01C101.007 132.305 100.732 132.6 100.457 132.892ZM99.5623 133.321C99.7294 133.157 99.8736 132.97 100.011 132.78C100.155 132.584 100.149 132.456 99.9424 132.292C99.6934 132.099 99.4149 131.951 99.097 131.899C98.5662 131.817 98.2549 132.174 98.4286 132.672C98.5531 133.029 98.789 133.324 99.0282 133.616C99.1101 133.717 99.1953 133.714 99.2805 133.622C99.3723 133.521 99.4673 133.422 99.5623 133.321Z" fill="white"/>
<path d="M108.396 120.988C108.694 120.627 109.126 120.375 109.588 120.162C109.729 120.096 109.857 120.096 109.995 120.188C110.201 120.326 110.417 120.454 110.627 120.585C110.683 120.621 110.748 120.657 110.722 120.735C110.696 120.811 110.62 120.801 110.558 120.794C110.136 120.745 109.719 120.768 109.32 120.889C108.969 120.994 108.641 121.132 108.442 121.456C108.314 121.666 108.307 121.882 108.468 122.085C108.641 122.305 108.858 122.459 109.162 122.41C109.516 122.354 109.824 122.2 110.126 122.036C110.542 121.81 110.974 121.636 111.466 121.594C112.446 121.509 113.789 122.672 113.143 123.946C112.721 124.782 112.029 125.336 111.161 125.706C111.02 125.765 110.899 125.742 110.774 125.66C110.542 125.506 110.309 125.359 110.077 125.205C110.014 125.162 109.916 125.116 109.949 125.028C109.982 124.933 110.08 124.972 110.155 124.982C110.709 125.06 111.253 125.074 111.774 124.874C111.934 124.811 112.079 124.723 112.206 124.618C112.462 124.412 112.554 124.12 112.452 123.881C112.328 123.579 112.016 123.373 111.679 123.367C111.259 123.36 110.899 123.524 110.545 123.697C110.191 123.868 109.821 123.969 109.411 123.953C108.173 123.907 107.357 122.56 107.95 121.538C108.061 121.338 108.219 121.184 108.396 120.988Z" fill="white"/>
<path d="M106.557 126.535C106.131 126.158 105.705 125.778 105.28 125.398C105.175 125.306 105.08 125.247 104.968 125.372C104.916 125.427 104.86 125.529 104.759 125.45C104.664 125.378 104.627 125.254 104.693 125.165C104.814 125.001 104.732 124.906 104.601 124.798C104.352 124.585 104.113 124.356 103.861 124.146C103.697 124.012 103.658 123.901 103.766 123.717C103.936 123.425 104.044 123.101 104.123 122.77C104.195 122.462 104.231 122.452 104.487 122.682C104.876 123.026 105.266 123.366 105.65 123.717C105.804 123.861 105.909 123.858 106.036 123.707C106.207 123.507 106.394 123.321 106.574 123.131C106.639 123.065 106.705 122.957 106.819 123.049C106.934 123.14 106.928 123.268 106.842 123.366C106.688 123.543 106.525 123.714 106.364 123.884C106.128 124.136 106.128 124.136 106.4 124.376C107.18 125.07 107.96 125.765 108.746 126.456C109.218 126.872 109.657 126.807 109.942 126.279C109.998 126.178 110.04 126.066 110.09 125.958C110.103 125.925 110.109 125.893 110.122 125.86C110.148 125.794 110.185 125.732 110.276 125.745C110.355 125.755 110.378 125.821 110.398 125.883C110.499 126.197 110.493 126.512 110.388 126.813C110.165 127.452 109.755 127.914 109.038 128.036C108.569 128.114 108.15 127.931 107.793 127.623C107.37 127.269 106.967 126.899 106.557 126.535Z" fill="white"/>
<path d="M96.0463 137.872C96.3707 138.2 96.7541 138.432 97.1997 138.56C97.9631 138.78 98.661 138.485 98.9887 137.81C99.146 137.482 99.2213 137.131 99.2443 136.764C99.2508 136.669 99.2377 136.545 99.3786 136.545C99.4998 136.542 99.5162 136.656 99.5424 136.745C99.8766 137.761 99.5555 138.832 98.7495 139.494C98.3235 139.841 97.8615 140.097 97.2849 140.13C96.6328 140.169 96.0529 139.93 95.5384 139.54C94.8373 139.012 94.3228 138.357 94.2245 137.485C94.1426 136.748 94.3327 136.086 94.8012 135.526C95.0404 135.241 95.296 134.966 95.6499 134.795C95.8301 134.707 96.0136 134.641 96.2134 134.612C96.5313 134.563 96.8425 134.703 96.9998 134.969C97.1636 135.247 97.0752 135.487 96.9081 135.706C96.741 135.926 96.4198 136.004 96.1315 135.893C95.9611 135.827 95.8006 135.739 95.6302 135.673C95.2468 135.526 94.9585 135.713 94.9487 136.112C94.9388 136.437 95.0764 136.719 95.2534 136.987C95.4631 137.318 95.7285 137.62 96.0463 137.872Z" fill="white"/>
<path d="M70.3939 90.6598C70.3939 90.6598 68.5 84.8406 62.7103 81.1021L49.6826 104.195L50.5476 104.674C52.0975 105.536 53.9553 105.644 55.6001 104.975L57.5169 104.195" fill="#91C8ED"/>
<path d="M57.7792 93.6251C54.1291 99.9456 50.7444 104.693 49.5288 104.117C48.821 103.783 50.8132 97.7896 54.4633 91.4724C58.1134 85.1519 61.5768 80.5581 62.7433 81.2331C63.9097 81.9048 61.4293 87.3046 57.7792 93.6251Z" fill="#3790F4"/>
<path d="M68.1858 92.9795C68.1858 92.9795 73.3136 97.7174 69.3326 109.444C65.3515 121.171 66.0134 123.219 66.0134 123.219" stroke="#3790F4" stroke-width="5" stroke-miterlimit="10" stroke-linecap="round" stroke-linejoin="round"/>
<path d="M69.6211 91.469C69.6211 91.469 75.3059 92.0621 74.5065 103.432C73.7103 114.798 72.2686 120.499 74.5818 123.226" stroke="#3790F4" stroke-width="5" stroke-miterlimit="10" stroke-linecap="round" stroke-linejoin="round"/>
<path d="M89.6867 73.2906C89.6867 73.2906 86.5215 80.3549 90.2404 91.4691L85.7056 87.0424C84.857 86.2167 84.3032 85.1354 84.1198 83.9657L83.0614 77.134C82.9402 76.3444 83.2285 75.5481 83.8314 75.0206C85.0995 73.9066 87.4782 71.9963 90.0405 70.8135L89.6867 73.2906Z" fill="white"/>
<path d="M101.99 74.0442C101.99 74.0442 106.171 82.2913 108.746 91.4723L110.352 81.6131C110.352 81.6131 106.902 72.5206 101.987 68.4707V74.0442H101.99Z" fill="white"/>
<path d="M112.168 51.5176L108.229 69.0801C108.046 69.8927 107.344 70.4858 106.512 70.5284L102.708 70.725C101.627 70.7807 100.568 70.3973 99.7755 69.6601L94.9261 65.1712C94.2381 64.5355 93.8481 63.641 93.8481 62.7039V60.1023L100.486 49.2175C100.483 49.2175 110.575 47.4481 112.168 51.5176Z" fill="#EFC6BD"/>
<path d="M94.8137 60.893C96.1635 60.7917 97.1122 58.7699 96.9328 56.3771C96.7533 53.9842 95.5135 52.1266 94.1637 52.2278C92.8139 52.3291 91.8652 54.3509 92.0447 56.7437C92.2242 59.1365 93.4639 60.9942 94.8137 60.893Z" fill="#EFC6BD"/>
<path d="M89.113 56.8683L88.3135 52.3466C87.7696 49.2732 88.7591 46.1342 90.961 43.9225C93.4348 41.4356 97.2914 38.4637 102.622 36.868C106.879 35.5967 111.358 38.0804 112.616 42.3399C112.737 42.7495 112.855 43.1853 112.963 43.6407L100.014 49.5157L89.113 56.8683Z" fill="#217ACC"/>
<path d="M92.0591 54.7647C92.0591 54.7647 105.241 48.8341 109.723 51.0098C112.269 52.245 111.27 55.5315 111.27 55.5315C111.27 55.5315 119.317 51.3735 121.673 48.9029C124.029 46.4324 119.35 41.2193 110.985 43.8439C102.62 46.4684 92.0591 54.7647 92.0591 54.7647Z" fill="#0C4D75"/>
<path d="M57.7662 117.134L58.0479 115.437C58.4739 112.885 58.4837 110.28 58.0807 107.724C54.2831 116.42 50.8231 125.382 48.1592 132.616C45.1775 140.723 49.4141 148.695 57.7105 152.204L66.5376 155.677C68.1202 156.299 69.8011 156.634 71.5016 156.666L76.6295 156.752L85.2895 159.393L86.22 145.018L79.5489 143.21L78.6478 141.742C78.1989 141.011 77.5371 140.434 76.7507 140.093L63.4871 134.3C58.3166 129.897 56.6488 123.832 57.7662 117.134Z" fill="#EA8021"/>
<path d="M54.9416 146.932L68.8966 154.383C69.3487 154.625 69.85 154.763 70.3612 154.789L77.5599 155.156L76.6752 153.328L71.4589 152.538C71.0526 152.476 70.6626 152.345 70.3022 152.148L56.8748 144.851C51.7404 142.06 48.7423 136.778 48.6669 131.247C48.4966 131.709 48.3262 132.164 48.1623 132.613C47.412 134.654 47.1204 136.689 47.2351 138.645C48.762 142.082 51.3996 145.041 54.9416 146.932Z" fill="white"/>
<path d="M62.6059 133.498C60.8037 133.468 58.5953 133.609 56.0887 134.13C55.7643 134.196 55.5579 134.513 55.6235 134.838C55.689 135.162 56.0068 135.369 56.3312 135.3C59.4472 134.654 62.1078 134.625 64.0345 134.769L63.4873 134.304C63.1825 134.038 62.8877 133.77 62.6059 133.498Z" fill="#CC630D"/>
<path d="M86.2263 145.018L79.5552 143.21C73.5132 148.718 76.6358 156.752 76.6358 156.752L85.2958 159.393L86.2263 145.018Z" fill="#EF9D59"/>
<path d="M89.3052 152.44C89.5625 148.471 88.1843 145.151 86.2268 145.024C84.2693 144.897 82.4738 148.011 82.2165 151.981C81.9591 155.95 83.3374 159.27 85.2948 159.397C87.2523 159.524 89.0478 156.409 89.3052 152.44Z" fill="#CC630D"/>
<path d="M128.275 144.536C128.275 144.536 124.16 135.605 135.909 129.749" stroke="#CC630D" stroke-width="4" stroke-miterlimit="10" stroke-linecap="round"/>
<path d="M125.552 146.198L128.655 143.865C128.655 143.865 131.594 146.863 130.729 152.702L125.221 153.433C125.221 153.433 125.818 151.44 125.552 146.198Z" fill="#EF9D59"/>
<path d="M108.449 43.9487C109.586 43.1659 109.768 41.4558 108.855 40.1291C107.942 38.8023 106.28 38.3613 105.143 39.144C104.005 39.9267 103.823 41.6368 104.736 42.9636C105.649 44.2904 107.311 44.7314 108.449 43.9487Z" stroke="white" stroke-width="2" stroke-miterlimit="10"/>
<path d="M105.146 43.4636L108.412 39.4695" stroke="white" stroke-width="2" stroke-miterlimit="10"/>
<path d="M104.782 39.8335L108.776 43.1003" stroke="white" stroke-width="2" stroke-miterlimit="10"/>
<path d="M106.636 57.4482L108.029 61.3408L106.371 63.0512" stroke="#DBA59C" stroke-width="3" stroke-miterlimit="10" stroke-linecap="round"/>
<path d="M0.920853 163.089C0.173792 175.173 -0.0129729 185.825 0.00341006 193.761L340.529 146.349C339.72 141.051 338.635 135.923 337.416 131.063L0.920853 163.089Z" fill="#ADD0EA"/>
<path d="M161.067 162.414C161.067 162.414 162.119 166.372 168.292 170.53L185.975 167.869L172.443 160.245L161.067 162.414Z" fill="#7DB8FB"/>
<path d="M254.325 156.067L314.523 147.774C316.148 147.551 316.384 145.3 314.844 144.743L302.308 140.212C300.401 139.52 298.363 139.265 296.341 139.461L235.678 145.317C234.158 145.464 233.722 147.472 235.043 148.239L245.603 154.357C248.241 155.88 251.308 156.483 254.325 156.067Z" fill="#7DB8FB"/>
<path d="M142.974 163.023L184.737 158.004L165.808 150.441L125.221 153.751L142.974 163.023Z" fill="#7DB8FB"/>
<path d="M176.624 161.614L156.817 164.878L144.042 157.296L164.003 154.36L176.624 161.614Z" fill="#7DB8FB"/>
<path d="M67.6714 156.739C67.6714 156.739 72.121 157.948 76.102 157.948C80.0831 157.948 94.2019 161.201 94.2019 161.201L105.208 160.251L93.6449 154.072L67.6714 156.739Z" fill="#7DB8FB"/>
<path d="M85.7578 161.332L112.609 172.017L138.386 167.637L108.193 158.944L85.7578 161.332Z" fill="#7DB8FB"/>
<path d="M133.724 171.234C125.988 170.268 123.652 168.567 122.993 167.85C122.81 167.65 122.528 167.575 122.266 167.643C121.715 167.784 121.512 168.459 121.895 168.879C122.937 170.009 125.782 171.749 133.537 172.719C136.499 173.089 138.917 173.564 140.841 174.157L143.885 173.734C141.565 172.604 138.252 171.798 133.724 171.234Z" fill="#7DB8FB"/>
<path d="M0 193.764C0.00982975 198.833 0.0982975 202.791 0.176936 205.304L341.289 152.187C341.076 150.225 340.82 148.275 340.526 146.352L0 193.764Z" fill="#5EA2E4"/>
<path d="M264.358 150.313V146.25L278.352 144.782L278.323 148.554L264.358 150.313Z" stroke="#FF00FF" stroke-width="0.506" stroke-miterlimit="10"/>
<path d="M255.862 135.637L278.021 134.088L285.892 135.68L264.358 137.633L255.862 135.637Z" fill="#0B2E44"/>
<path d="M294.899 97.1736L309.755 99.5983" stroke="#0B2E44" stroke-width="3" stroke-miterlimit="10" stroke-linecap="round" stroke-linejoin="round"/>
<path d="M232.814 98.3859L294.899 97.1736" stroke="#105A91" stroke-width="3" stroke-miterlimit="10" stroke-linecap="round" stroke-linejoin="round"/>
<path d="M269.997 136.473C269.997 136.473 252.251 138.901 244.967 121.306C237.684 103.71 243.3 85.5058 251.642 78.0745C259.984 70.6432 273.939 61.3901 273.939 61.3901L297.147 79.1361C297.147 79.1361 299.195 89.9062 300.938 95.8991C302.681 101.892 303.212 109.323 299.726 114.71C296.239 120.097 289.565 136.473 269.997 136.473Z" fill="#91C8ED"/>
<path d="M273.942 61.3869L276.442 47.5073L305.037 75.2665L297.15 79.1362L280.161 77.9992L273.942 61.3869Z" fill="#91C8ED"/>
<path d="M289.49 76.6589C289.49 76.6589 289.768 82.524 291.688 88.2875C293.608 94.051 292.901 100.778 290.777 103.71" stroke="#3790F4" stroke-width="5" stroke-miterlimit="10" stroke-linecap="round" stroke-linejoin="round"/>
<path d="M290.777 76.6589C290.777 76.6589 294.087 84.3655 296.007 90.129C297.927 95.8925 298.13 101.05 296.007 103.982" stroke="#3790F4" stroke-width="5" stroke-miterlimit="10" stroke-linecap="round" stroke-linejoin="round"/>
<path d="M292.809 59.4667C300.591 67.2486 305.909 74.3948 305.037 75.2664C304.165 76.138 297.268 70.0763 289.49 62.2977C281.708 54.5158 275.571 48.3821 276.446 47.5072C277.317 46.6356 285.03 51.6848 292.809 59.4667Z" fill="#91C8ED"/>
<path d="M302.956 72.5697C303.163 72.8744 302.783 73.2316 302.491 73.0088C300.26 71.3082 296.351 67.8907 290.125 61.6652L290.083 61.6226C285.918 57.4581 281.357 52.8971 278.955 50.1054C278.693 49.8007 279.067 49.3616 279.408 49.5714C282.238 51.3145 286.931 54.8499 292.18 60.099C297.573 65.4955 301.18 69.9419 302.956 72.5697Z" fill="#3790F4"/>
<path d="M261.442 152.636V144.602L293.759 141.218V147.656L261.442 152.636Z" fill="#EF9D59"/>
<path d="M282.324 147.04C282.961 147.04 283.477 146.524 283.477 145.887C283.477 145.25 282.961 144.733 282.324 144.733C281.687 144.733 281.17 145.25 281.17 145.887C281.17 146.524 281.687 147.04 282.324 147.04Z" fill="white"/>
<path d="M287.56 146.345C288.197 146.345 288.713 145.829 288.713 145.192C288.713 144.555 288.197 144.039 287.56 144.039C286.923 144.039 286.406 144.555 286.406 145.192C286.406 145.829 286.923 146.345 287.56 146.345Z" fill="white"/>
<path d="M261.442 144.602L293.759 141.218L279.952 138.033L251.468 141.483L261.442 144.602Z" fill="#CC630D"/>
<path d="M261.442 152.636L251.468 147.856V141.483L261.442 144.602V152.636Z" fill="#EA8021"/>
<path d="M261.74 143.033L264.358 137.633L255.862 135.637V141.319L261.74 143.033Z" fill="#E8A272"/>
<path d="M261.74 143.033L288.336 140.421C288.336 140.421 288.625 136.601 285.892 135.68L264.358 137.633C264.358 137.633 262.038 139.848 261.74 143.033Z" fill="#F2B283"/>
<path d="M285.892 135.68L309.755 99.6016L247.667 100.811L264.358 137.633L285.892 135.68Z" stroke="#105A91" stroke-width="3" stroke-miterlimit="10" stroke-linecap="round" stroke-linejoin="round"/>
<path d="M267.949 137.308L258.015 100.607" stroke="#105A91" stroke-width="3" stroke-miterlimit="10" stroke-linecap="round" stroke-linejoin="round"/>
<path d="M271.537 136.981L268.362 100.408" stroke="#105A91" stroke-width="3" stroke-miterlimit="10" stroke-linecap="round" stroke-linejoin="round"/>
<path d="M275.125 136.656L278.713 100.204" stroke="#105A91" stroke-width="3" stroke-miterlimit="10" stroke-linecap="round" stroke-linejoin="round"/>
<path d="M278.713 136.332L289.06 100.005" stroke="#105A91" stroke-width="3" stroke-miterlimit="10" stroke-linecap="round" stroke-linejoin="round"/>
<path d="M282.304 136.005L299.408 99.8015" stroke="#105A91" stroke-width="3" stroke-miterlimit="10" stroke-linecap="round" stroke-linejoin="round"/>
<path d="M285.892 135.68L309.755 99.6016" stroke="#105A91" stroke-width="3" stroke-miterlimit="10" stroke-linecap="round" stroke-linejoin="round"/>
<path d="M255.862 135.637L232.814 98.386" stroke="#105A91" stroke-width="3" stroke-miterlimit="10" stroke-linecap="round" stroke-linejoin="round"/>
<path d="M260.112 136.637L240.239 99.5984" stroke="#105A91" stroke-width="3" stroke-miterlimit="10" stroke-linecap="round" stroke-linejoin="round"/>
<path d="M264.358 137.633L247.667 100.811" stroke="#105A91" stroke-width="3" stroke-miterlimit="10" stroke-linecap="round" stroke-linejoin="round"/>
<path d="M232.814 98.386L247.667 100.811" stroke="#105A91" stroke-width="3" stroke-miterlimit="10" stroke-linecap="round" stroke-linejoin="round"/>
<path d="M237.425 105.837L251.006 108.176" stroke="#105A91" stroke-width="3" stroke-miterlimit="10" stroke-linecap="round" stroke-linejoin="round"/>
<path d="M242.035 113.288L254.345 115.539" stroke="#105A91" stroke-width="3" stroke-miterlimit="10" stroke-linecap="round" stroke-linejoin="round"/>
<path d="M246.645 120.736L257.684 122.905" stroke="#105A91" stroke-width="3" stroke-miterlimit="10" stroke-linecap="round" stroke-linejoin="round"/>
<path d="M251.252 128.187L261.019 130.27" stroke="#105A91" stroke-width="3" stroke-miterlimit="10" stroke-linecap="round" stroke-linejoin="round"/>
<path d="M255.862 135.637L264.358 137.633" stroke="#105A91" stroke-width="3" stroke-miterlimit="10" stroke-linecap="round" stroke-linejoin="round"/>
<path d="M309.755 99.6016L247.667 100.811" stroke="#105A91" stroke-width="3" stroke-miterlimit="10" stroke-linecap="round" stroke-linejoin="round"/>
<path d="M304.981 106.817L251.006 108.176" stroke="#105A91" stroke-width="3" stroke-miterlimit="10" stroke-linecap="round" stroke-linejoin="round"/>
<path d="M300.21 114.031L254.345 115.539" stroke="#105A91" stroke-width="3" stroke-miterlimit="10" stroke-linecap="round" stroke-linejoin="round"/>
<path d="M295.436 121.247L257.684 122.905" stroke="#105A91" stroke-width="3" stroke-miterlimit="10" stroke-linecap="round" stroke-linejoin="round"/>
<path d="M290.662 128.465L261.019 130.27" stroke="#105A91" stroke-width="3" stroke-miterlimit="10" stroke-linecap="round" stroke-linejoin="round"/>
<path d="M285.892 135.68L264.358 137.633" stroke="#105A91" stroke-width="3" stroke-miterlimit="10" stroke-linecap="round" stroke-linejoin="round"/>
<path d="M144.209 156.205L156.984 163.475L170.094 161.467V159.639L144.209 154.065V156.205Z" fill="#EA8021"/>
<path d="M170.094 159.639L156.984 161.647L144.209 154.065L157.473 152.387L170.094 159.639Z" fill="#CC630D"/>
<path d="M161.067 128.541H155.821V157.348L161.067 156.752V128.541Z" fill="#EA8021"/>
<path d="M152.105 116.99H155.821V157.348L152.105 155.556V116.99Z" fill="#EF9D59"/>
<path d="M177.509 127.862L138.387 130.021L132.849 103.786L134.124 102.18L178.656 126.302L177.509 127.862Z" fill="#CC630D"/>
<path d="M139.645 128.39L134.124 102.18L173.61 101.24L178.656 126.303L139.645 128.39Z" fill="#EF9D59"/>
<path d="M177.709 125.565L140.336 127.528L135.169 102.98L172.971 102.046L177.709 125.565Z" fill="white"/>
<path d="M172.483 103.501C172.404 103.114 172.031 102.809 171.644 102.819C171.257 102.829 171.008 103.15 171.084 103.537C171.162 103.924 171.539 104.228 171.926 104.218C172.312 104.205 172.561 103.884 172.483 103.501Z" fill="#3790F4"/>
<path d="M135.759 105.772L173.508 104.72" stroke="#3790F4" stroke-width="2" stroke-miterlimit="10"/>
<path d="M165.808 122.066L141.329 123.236L138.161 108.137L162.814 107.384L165.808 122.066Z" stroke="#E1E8EF" stroke-width="2" stroke-miterlimit="10"/>
<path d="M168.128 121.955L174.74 121.64L171.805 107.108L165.146 107.312L168.128 121.955Z" stroke="#E1E8EF" stroke-width="2" stroke-miterlimit="10"/>
<path d="M167.551 119.12L174.173 118.825" stroke="#E1E8EF" stroke-width="2" stroke-miterlimit="10"/>
<path d="M149.488 114.117L141.686 114.412L140.713 109.759L148.531 109.504L149.488 114.117Z" stroke="#E1E8EF" stroke-width="2" stroke-miterlimit="10"/>
<path d="M141.339 109.74C141.27 109.409 140.933 109.146 140.588 109.156C140.241 109.166 140.018 109.445 140.087 109.779C140.156 110.113 140.493 110.372 140.841 110.362C141.185 110.349 141.408 110.07 141.339 109.74Z" fill="#3790F4"/>
<path d="M150.815 120.503L143.036 120.854L142.063 116.214L149.858 115.903L150.815 120.503Z" stroke="#E1E8EF" stroke-width="2" stroke-miterlimit="10"/>
<path d="M142.689 116.191C142.62 115.86 142.282 115.601 141.938 115.614C141.594 115.627 141.371 115.909 141.44 116.24C141.509 116.571 141.846 116.83 142.191 116.817C142.535 116.8 142.757 116.522 142.689 116.191Z" fill="#3790F4"/>
<path d="M160.897 113.684L153.298 113.973L152.348 109.379L159.963 109.133L160.897 113.684Z" stroke="#E1E8EF" stroke-width="2" stroke-miterlimit="10"/>
<path d="M152.958 109.359C152.889 109.032 152.561 108.773 152.227 108.786C151.889 108.796 151.673 109.071 151.739 109.402C151.808 109.73 152.135 109.988 152.473 109.975C152.807 109.962 153.026 109.687 152.958 109.359Z" fill="#3790F4"/>
<path d="M162.187 119.989L154.612 120.333L153.665 115.752L161.257 115.45L162.187 119.989Z" stroke="#E1E8EF" stroke-width="2" stroke-miterlimit="10"/>
<path d="M154.271 115.729C154.203 115.401 153.878 115.146 153.541 115.159C153.203 115.172 152.987 115.447 153.056 115.775C153.125 116.103 153.452 116.358 153.786 116.342C154.124 116.332 154.34 116.053 154.271 115.729Z" fill="#3790F4"/>
<path d="M166.434 108.471L170.684 108.334" stroke="#3790F4" stroke-width="2" stroke-miterlimit="10"/>
<path d="M166.742 109.992L170.989 109.848" stroke="#BEC6CC" stroke-miterlimit="10"/>
<path d="M166.876 110.654L171.123 110.506" stroke="#BEC6CC" stroke-miterlimit="10"/>
<path d="M167.011 111.315L171.254 111.165" stroke="#BEC6CC" stroke-miterlimit="10"/>
<path d="M167.496 113.691L170.313 113.583" stroke="#BEC6CC" stroke-miterlimit="10"/>
<path d="M167.964 116.004L170.779 115.89" stroke="#BEC6CC" stroke-miterlimit="10"/>
<path d="M168.823 120.218L171.631 120.09" stroke="#3790F4" stroke-miterlimit="10"/>
<path d="M172.027 114.366C171.965 114.36 171.906 114.346 171.847 114.323C171.788 114.301 171.739 114.271 171.693 114.238L171.736 114.15C171.739 114.143 171.745 114.137 171.752 114.13C171.759 114.124 171.768 114.124 171.778 114.12C171.788 114.12 171.801 114.124 171.818 114.13C171.831 114.137 171.85 114.147 171.867 114.156C171.886 114.166 171.906 114.176 171.929 114.186C171.952 114.196 171.978 114.202 172.008 114.206L171.968 113.858C171.929 113.848 171.89 113.839 171.854 113.825C171.814 113.812 171.778 113.796 171.745 113.773C171.713 113.75 171.683 113.724 171.657 113.688C171.631 113.655 171.614 113.609 171.605 113.557C171.598 113.517 171.598 113.478 171.605 113.442C171.614 113.403 171.627 113.37 171.654 113.341C171.677 113.311 171.709 113.285 171.749 113.262C171.788 113.242 171.837 113.229 171.893 113.229L171.883 113.131C171.883 113.118 171.883 113.108 171.893 113.098C171.903 113.088 171.913 113.082 171.926 113.082L171.994 113.078L172.011 113.229C172.067 113.236 172.119 113.249 172.162 113.268C172.204 113.288 172.247 113.314 172.28 113.341L172.247 113.413C172.24 113.422 172.237 113.432 172.23 113.436C172.224 113.442 172.217 113.445 172.204 113.445C172.198 113.445 172.188 113.442 172.175 113.439C172.162 113.436 172.148 113.429 172.135 113.422C172.119 113.416 172.103 113.409 172.086 113.403C172.07 113.396 172.05 113.39 172.027 113.386L172.063 113.707C172.103 113.717 172.142 113.727 172.181 113.74C172.221 113.753 172.257 113.77 172.289 113.789C172.322 113.809 172.352 113.835 172.378 113.868C172.401 113.901 172.42 113.94 172.43 113.986C172.44 114.035 172.44 114.078 172.434 114.12C172.427 114.163 172.411 114.202 172.384 114.235C172.361 114.268 172.329 114.297 172.286 114.317C172.247 114.34 172.198 114.353 172.139 114.36L172.152 114.474C172.152 114.487 172.152 114.497 172.142 114.507C172.135 114.517 172.122 114.523 172.109 114.523L172.04 114.527L172.027 114.366ZM171.781 113.537C171.785 113.557 171.791 113.573 171.801 113.59C171.811 113.603 171.824 113.616 171.837 113.629C171.85 113.639 171.867 113.649 171.886 113.658C171.906 113.668 171.926 113.675 171.945 113.681L171.913 113.396C171.886 113.399 171.863 113.409 171.844 113.416C171.824 113.426 171.811 113.436 171.801 113.449C171.791 113.462 171.785 113.475 171.781 113.491C171.778 113.504 171.778 113.521 171.781 113.537ZM172.26 114.025C172.257 114.006 172.25 113.989 172.24 113.976C172.23 113.963 172.217 113.95 172.204 113.937C172.188 113.927 172.171 113.917 172.155 113.911C172.135 113.904 172.116 113.898 172.096 113.891L172.132 114.206C172.184 114.196 172.224 114.176 172.243 114.147C172.263 114.114 172.27 114.074 172.26 114.025Z" fill="#3790F4"/>
<path d="M172.417 116.289C172.355 116.283 172.296 116.27 172.237 116.247C172.178 116.224 172.129 116.194 172.083 116.161L172.126 116.073C172.129 116.066 172.136 116.06 172.142 116.053C172.149 116.047 172.159 116.047 172.168 116.044C172.178 116.044 172.191 116.047 172.208 116.053C172.221 116.06 172.24 116.07 172.257 116.08C172.273 116.089 172.296 116.099 172.319 116.109C172.342 116.119 172.368 116.125 172.398 116.129L172.358 115.781C172.319 115.772 172.28 115.762 172.244 115.749C172.204 115.736 172.168 115.719 172.136 115.696C172.103 115.673 172.073 115.647 172.047 115.611C172.021 115.578 172.004 115.532 171.995 115.48C171.988 115.441 171.988 115.401 171.995 115.365C172.001 115.326 172.018 115.293 172.044 115.264C172.067 115.234 172.1 115.208 172.139 115.185C172.178 115.165 172.227 115.152 172.283 115.149L172.273 115.051C172.273 115.038 172.273 115.028 172.283 115.018C172.29 115.008 172.303 115.002 172.316 115.002L172.385 114.998L172.401 115.149C172.457 115.156 172.509 115.169 172.552 115.188C172.594 115.208 172.637 115.231 172.67 115.26L172.637 115.332C172.63 115.342 172.627 115.352 172.621 115.355C172.614 115.362 172.607 115.365 172.594 115.365C172.588 115.365 172.578 115.362 172.565 115.359C172.552 115.355 172.539 115.349 172.525 115.342C172.509 115.336 172.493 115.329 172.476 115.323C172.46 115.316 172.44 115.31 172.417 115.306L172.453 115.627C172.493 115.637 172.532 115.647 172.571 115.66C172.611 115.673 172.647 115.69 172.679 115.709C172.712 115.729 172.742 115.755 172.768 115.788C172.791 115.821 172.811 115.86 172.82 115.906C172.83 115.955 172.83 115.998 172.824 116.04C172.817 116.083 172.801 116.122 172.778 116.155C172.755 116.188 172.722 116.217 172.679 116.237C172.64 116.26 172.591 116.273 172.532 116.279L172.545 116.394C172.545 116.407 172.545 116.417 172.535 116.427C172.529 116.437 172.516 116.443 172.503 116.443L172.434 116.447L172.417 116.289ZM172.172 115.464C172.175 115.483 172.181 115.5 172.191 115.516C172.201 115.529 172.214 115.542 172.227 115.555C172.24 115.568 172.257 115.575 172.276 115.585C172.296 115.595 172.316 115.601 172.335 115.608L172.303 115.323C172.276 115.326 172.254 115.336 172.234 115.342C172.214 115.352 172.201 115.362 172.191 115.375C172.181 115.388 172.175 115.401 172.172 115.418C172.168 115.431 172.168 115.447 172.172 115.464ZM172.65 115.952C172.647 115.932 172.64 115.916 172.63 115.903C172.62 115.89 172.607 115.876 172.594 115.863C172.578 115.853 172.562 115.844 172.545 115.837C172.525 115.831 172.506 115.824 172.486 115.817L172.522 116.132C172.575 116.122 172.614 116.103 172.634 116.073C172.653 116.04 172.66 116.001 172.65 115.952Z" fill="#3790F4"/>
<path d="M173.118 120.919C173.04 120.913 172.967 120.896 172.895 120.867C172.823 120.841 172.761 120.805 172.705 120.762L172.758 120.651C172.761 120.641 172.768 120.631 172.777 120.624C172.787 120.618 172.797 120.615 172.81 120.615C172.823 120.615 172.84 120.618 172.859 120.628C172.879 120.637 172.899 120.647 172.922 120.66C172.945 120.674 172.971 120.687 173 120.696C173.03 120.71 173.062 120.716 173.099 120.723L173.049 120.29C173 120.28 172.954 120.267 172.905 120.251C172.856 120.234 172.813 120.215 172.771 120.189C172.728 120.162 172.692 120.126 172.663 120.084C172.633 120.041 172.61 119.985 172.597 119.92C172.587 119.871 172.587 119.822 172.597 119.776C172.607 119.73 172.627 119.684 172.656 119.648C172.686 119.609 172.725 119.576 172.774 119.55C172.823 119.523 172.886 119.51 172.954 119.507L172.941 119.386C172.938 119.369 172.945 119.356 172.951 119.343C172.961 119.33 172.974 119.324 172.994 119.324L173.082 119.32L173.105 119.51C173.174 119.517 173.239 119.533 173.292 119.56C173.348 119.586 173.397 119.615 173.439 119.648L173.4 119.736C173.393 119.75 173.387 119.759 173.38 119.766C173.374 119.772 173.364 119.776 173.351 119.776C173.341 119.776 173.328 119.772 173.315 119.769C173.302 119.763 173.285 119.756 173.266 119.75C173.246 119.743 173.226 119.733 173.203 119.727C173.18 119.72 173.158 119.713 173.131 119.707L173.177 120.107C173.226 120.12 173.275 120.133 173.325 120.146C173.374 120.162 173.42 120.182 173.459 120.205C173.502 120.231 173.538 120.264 173.567 120.3C173.597 120.339 173.62 120.388 173.633 120.447C173.646 120.506 173.646 120.562 173.636 120.618C173.626 120.67 173.606 120.719 173.577 120.759C173.547 120.801 173.508 120.834 173.456 120.864C173.407 120.89 173.344 120.909 173.272 120.919L173.289 121.06C173.292 121.073 173.285 121.09 173.279 121.103C173.269 121.116 173.256 121.122 173.236 121.122L173.148 121.126L173.118 120.919ZM172.813 119.89C172.82 119.913 172.827 119.936 172.84 119.953C172.853 119.969 172.866 119.985 172.886 120.002C172.902 120.015 172.925 120.028 172.948 120.038C172.971 120.048 172.994 120.058 173.02 120.064L172.977 119.707C172.941 119.713 172.915 119.723 172.892 119.733C172.869 119.746 172.853 119.759 172.84 119.776C172.827 119.792 172.82 119.809 172.813 119.828C172.807 119.848 172.807 119.867 172.813 119.89ZM173.407 120.497C173.403 120.474 173.393 120.451 173.38 120.434C173.367 120.418 173.354 120.402 173.334 120.388C173.315 120.375 173.295 120.362 173.272 120.356C173.249 120.346 173.223 120.339 173.197 120.329L173.243 120.719C173.308 120.706 173.357 120.683 173.384 120.644C173.413 120.605 173.42 120.556 173.407 120.497Z" fill="#3790F4"/>
<path d="M171.015 123.776L168.98 123.878C168.728 123.891 168.485 123.698 168.433 123.449C168.384 123.2 168.544 122.987 168.796 122.977L170.831 122.879C171.08 122.865 171.326 123.059 171.375 123.305C171.424 123.55 171.264 123.763 171.015 123.776Z" stroke="#3790F4" stroke-miterlimit="10"/>
<path d="M174.678 123.593L172.66 123.694C172.411 123.708 172.168 123.518 172.119 123.269C172.07 123.019 172.231 122.81 172.48 122.797L174.498 122.698C174.747 122.685 174.986 122.875 175.039 123.124C175.088 123.37 174.927 123.58 174.678 123.593Z" fill="#3790F4"/>
<path d="M142.132 110.821L146.817 110.663" stroke="#3790F4" stroke-miterlimit="10"/>
<path d="M142.272 111.502L146.958 111.342" stroke="#BEC6CC" stroke-miterlimit="10"/>
<path d="M153.944 111.099L158.508 110.942" stroke="#3790F4" stroke-miterlimit="10"/>
<path d="M154.137 112.03L158.698 111.866" stroke="#BEC6CC" stroke-miterlimit="10"/>
<path d="M155.199 117.174L159.747 116.984" stroke="#3790F4" stroke-miterlimit="10"/>
<path d="M155.366 117.99L159.914 117.797" stroke="#BEC6CC" stroke-miterlimit="10"/>
<path d="M142.597 113.045L147.276 112.875" stroke="#BEC6CC" stroke-miterlimit="10"/>
<path d="M143.456 117.164L148.131 116.971" stroke="#3790F4" stroke-miterlimit="10"/>
<path d="M143.819 118.894L148.488 118.694" stroke="#BEC6CC" stroke-miterlimit="10"/>
<path d="M144 119.762L148.669 119.559" stroke="#BEC6CC" stroke-miterlimit="10"/>
<path d="M138.387 130.021L139.645 128.39L178.656 126.302L177.509 127.862L138.387 130.021Z" fill="#BC580D"/>
<path d="M156.984 163.475V161.647L144.209 154.065V156.205L156.984 163.475Z" fill="#EF9D59"/>
<path d="M120.27 135.326L109.789 132.571C109.127 132.397 108.422 132.466 107.806 132.767L86.2266 143.331C85.9449 143.468 85.7646 143.754 85.7646 144.068V145.238L120.781 137.295V135.991C120.781 135.68 120.572 135.408 120.27 135.326Z" fill="#3790F4"/>
<path d="M85.9613 144.914L107.839 134.425C108.435 134.14 109.114 134.068 109.756 134.225L120.421 136.843C120.847 136.948 120.919 137.525 120.529 137.728L101.528 147.745L86.0629 145.562C85.7221 145.516 85.6533 145.061 85.9613 144.914Z" fill="#1773C6"/>
<path d="M118.141 139.183C118.141 139.183 106.768 142.899 100.352 143.875C93.9366 144.848 86.5905 146.529 86.5905 146.529L84.2117 146.064C83.1632 147.286 82.3801 149.458 82.2162 151.975C82.1376 153.19 82.213 154.344 82.4095 155.363L90.0407 156.306L99.8901 155.844C101.489 155.769 103.029 155.222 104.314 154.268L112.787 147.987C112.787 147.987 113.452 147.41 113.098 146.483C113.098 146.483 114.825 146.041 114.779 143.872C114.779 143.872 117.698 142.322 117.964 140.906C118.229 139.491 118.141 139.183 118.141 139.183Z" fill="#EFC6BD"/>
<path d="M114.779 143.875L103.76 147.125" stroke="#DBA59C" stroke-width="2" stroke-miterlimit="10" stroke-linecap="round"/>
<path d="M113.098 146.483L105.575 150.91" stroke="#DBA59C" stroke-width="2" stroke-miterlimit="10" stroke-linecap="round"/>
<path d="M86.5903 146.529C86.5903 146.529 88.979 137.367 89.3787 135.179C89.7784 132.987 91.9017 135.975 92.0327 137.967C92.1671 139.959 93.1992 145.14 93.1992 145.14L88.8446 147.748L86.5903 146.529Z" fill="#EFC6BD"/>
<path d="M330.067 208.394C341.466 190.795 343.304 170.713 341.289 152.188L0.180176 205.304C0.242431 207.306 0.298133 208.394 0.298133 208.394H330.067Z" fill="#7DB8FB"/>
<path d="M328.871 171.952C330.594 171.952 331.99 170.555 331.99 168.833C331.99 167.11 330.594 165.713 328.871 165.713C327.148 165.713 325.751 167.11 325.751 168.833C325.751 170.555 327.148 171.952 328.871 171.952Z" fill="#EA8021"/>
<path d="M260.111 185.029C261.834 185.029 263.231 183.632 263.231 181.909C263.231 180.187 261.834 178.79 260.111 178.79C258.389 178.79 256.992 180.187 256.992 181.909C256.992 183.632 258.389 185.029 260.111 185.029Z" fill="#EA8021"/>
<path d="M179.825 198.974C181.548 198.974 182.945 197.577 182.945 195.854C182.945 194.132 181.548 192.735 179.825 192.735C178.103 192.735 176.706 194.132 176.706 195.854C176.706 197.577 178.103 198.974 179.825 198.974Z" fill="#EA8021"/>
<path d="M328.871 204.21C330.594 204.21 331.99 202.813 331.99 201.09C331.99 199.368 330.594 197.971 328.871 197.971C327.148 197.971 325.751 199.368 325.751 201.09C325.751 202.813 327.148 204.21 328.871 204.21Z" fill="#EA8021"/>
<path d="M144.219 185.441V208.394H142.069V185.785" fill="#ADD0EA"/>
<path d="M154.959 183.751V208.394H157.109V183.318" fill="#ADD0EA"/>
<path d="M281.655 163.524V208.394H279.506V163.859" fill="#ADD0EA"/>
<path d="M294.545 161.467V208.394H292.396V161.811" fill="#ADD0EA"/>
<path d="M341.43 153.537L0.275391 207.942C0.288497 208.237 0.29505 208.391 0.29505 208.391H3.13913L341.512 154.429C341.489 154.134 341.46 153.836 341.43 153.537Z" fill="#ADD0EA"/>
<path d="M181.572 208.394H187.021L340.296 182.85C340.358 182.538 340.417 182.224 340.476 181.913L181.572 208.394Z" fill="#ADD0EA"/>
<path d="M114.504 168.875L127.223 166.398C127.223 166.398 130.08 158.511 121.496 156.215C112.911 153.918 102.157 155.009 102.157 155.009L91.751 156.749L114.504 168.875Z" fill="#105A91"/>
<path d="M115.218 161.84L126.755 159.799" stroke="#0B2E44" stroke-width="2" stroke-miterlimit="10"/>
<path d="M116.273 160.248L123.973 158.944" stroke="white" stroke-width="2" stroke-miterlimit="10" stroke-linecap="round"/>
<path d="M145.523 186.353C146.702 184.092 147.721 182.136 148.079 180.546C148.616 178.151 148.341 176.225 147.237 174.658C145.392 172.034 141.224 170.448 133.724 169.508C125.988 168.541 123.652 166.841 122.993 166.123C122.81 165.923 122.528 165.848 122.266 165.917C121.715 166.057 121.512 166.732 121.895 167.152C122.937 168.282 125.782 170.022 133.537 170.992C140.487 171.86 144.451 173.299 146.014 175.52C146.86 176.723 147.06 178.263 146.621 180.222C146.306 181.621 145.33 183.495 144.199 185.664C141.122 191.562 136.604 200.222 141.67 208.397H143.465C138.036 200.711 142.335 192.46 145.523 186.353Z" fill="#EA8021"/>
<path d="M91.2266 161.051L114.503 168.875C114.503 168.875 118.186 158.875 110.591 157.103C102.996 155.333 91.7475 156.749 91.7475 156.749L91.2266 161.051Z" fill="#0B2E44"/>
<path d="M112.675 157.181L120.369 156.516C120.369 156.516 116.588 155.32 112.174 155.553L106.191 156.146C106.194 156.149 110.021 155.854 112.675 157.181Z" fill="white"/>
<path d="M103.016 155.343C103.454 155.343 103.809 155.281 103.809 155.205C103.809 155.129 103.454 155.068 103.016 155.068C102.578 155.068 102.223 155.129 102.223 155.205C102.223 155.281 102.578 155.343 103.016 155.343Z" fill="#EA8021"/>
<path d="M100.663 155.769C101.101 155.769 101.456 155.707 101.456 155.631C101.456 155.555 101.101 155.494 100.663 155.494C100.225 155.494 99.8701 155.555 99.8701 155.631C99.8701 155.707 100.225 155.769 100.663 155.769Z" fill="#EA8021"/>
<path d="M97.7993 156.175C98.2372 156.175 98.5922 156.114 98.5922 156.038C98.5922 155.962 98.2372 155.9 97.7993 155.9C97.3614 155.9 97.0063 155.962 97.0063 156.038C97.0063 156.114 97.3614 156.175 97.7993 156.175Z" fill="#EA8021"/>
<path d="M107.79 155.258C108.227 155.258 108.582 155.196 108.582 155.12C108.582 155.044 108.227 154.982 107.79 154.982C107.352 154.982 106.997 155.044 106.997 155.12C106.997 155.196 107.352 155.258 107.79 155.258Z" fill="#EA8021"/>
<path d="M105.211 155.566C105.649 155.566 106.004 155.504 106.004 155.428C106.004 155.352 105.649 155.291 105.211 155.291C104.773 155.291 104.418 155.352 104.418 155.428C104.418 155.504 104.773 155.566 105.211 155.566Z" fill="#EA8021"/>
<path d="M102.632 155.87C103.07 155.87 103.425 155.809 103.425 155.733C103.425 155.657 103.07 155.595 102.632 155.595C102.194 155.595 101.839 155.657 101.839 155.733C101.839 155.809 102.194 155.87 102.632 155.87Z" fill="#EA8021"/>
<path d="M110.689 155.481C111.115 155.481 111.459 155.422 111.459 155.35C111.459 155.277 111.115 155.219 110.689 155.219C110.264 155.219 109.919 155.277 109.919 155.35C109.919 155.422 110.264 155.481 110.689 155.481Z" fill="#EA8021"/>
<path d="M108.193 155.776C108.618 155.776 108.963 155.717 108.963 155.644C108.963 155.572 108.618 155.513 108.193 155.513C107.768 155.513 107.423 155.572 107.423 155.644C107.423 155.717 107.768 155.776 108.193 155.776Z" fill="#EA8021"/>
<path d="M105.693 156.074C106.118 156.074 106.463 156.015 106.463 155.943C106.463 155.87 106.118 155.812 105.693 155.812C105.268 155.812 104.923 155.87 104.923 155.943C104.923 156.015 105.268 156.074 105.693 156.074Z" fill="#EA8021"/>
<path d="M214.479 46.059C214.479 46.059 206.867 43.5426 212.532 34.5156C212.532 34.5156 212.444 36.1539 213.594 37.4351C214.744 38.7162 216.69 40.6166 216.382 42.2779C216.071 43.9391 214.479 46.059 214.479 46.059Z" fill="#EF9D59"/>
<path d="M251.56 144.664L236.989 139.55V123.118L255.606 129.12L251.56 144.664Z" fill="#514132"/>
<path d="M238.26 124.258L237.195 124.815L237.756 125.877L244.745 139.094L245.02 139.615C245.144 139.851 245.426 139.956 245.675 139.861C245.97 139.75 246.101 139.406 245.954 139.124L238.26 124.258Z" fill="#3A2C20"/>
<path d="M242.707 148.967L238.929 138.777L221.524 140.418V143.354L210.452 145.058L205.632 172.014L194.122 208.391H221.52H224.43H246.019L247.012 193.971C248.028 179.239 247.841 162.817 242.707 148.967Z" fill="white"/>
<path d="M233.172 190.592C236.53 182.886 238.152 174.37 237.854 165.969C237.837 165.474 237.428 165.094 236.927 165.104C236.432 165.12 236.045 165.536 236.062 166.031C236.35 174.167 234.78 182.411 231.527 189.875L223.611 208.034C223.558 208.151 223.535 208.273 223.535 208.391H225.409L233.172 190.592Z" fill="#5FA6F6"/>
<path d="M238.129 140.054L241.586 149.383C245.787 160.713 247.133 174.855 245.823 193.892L244.909 207.198L244.837 208.394H246.023L247.015 193.974C248.028 179.239 247.841 162.817 242.707 148.967L238.929 138.777L221.524 140.418V143.354L210.452 145.058L205.632 172.014L194.122 208.391H195.383L195.753 207.195L206.769 172.375C206.786 172.326 206.799 172.276 206.805 172.224L211.474 146.11L221.701 144.534C222.284 144.445 222.713 143.944 222.713 143.354V141.506L238.129 140.054Z" fill="#5FA6F6"/>
<path d="M177.608 153.754C182.229 153.754 185.976 150.007 185.976 145.385C185.976 140.763 182.229 137.017 177.608 137.017C172.986 137.017 169.239 140.763 169.239 145.385C169.239 150.007 172.986 153.754 177.608 153.754Z" fill="#514132"/>
<path d="M163.951 116.384C166.627 116.384 168.797 114.215 168.797 111.538C168.797 108.862 166.627 106.692 163.951 106.692C161.274 106.692 159.104 108.862 159.104 111.538C159.104 114.215 161.274 116.384 163.951 116.384Z" fill="#514132"/>
<path d="M171.366 139.815L184.21 122.499L196.69 135.598L183.574 151.247L171.366 139.815Z" fill="#514132"/>
<path d="M170.664 150.054C170.664 150.054 162.686 138.092 159.363 113.111L168.325 109.448L178.059 133.58L170.664 150.054Z" fill="#514132"/>
<path d="M168.325 109.444C168.325 109.444 160.314 81.8294 160.006 81.2986C159.698 80.7678 158.19 80.9873 158.856 85.9448C159.521 90.9022 159.743 96.0792 159.367 96.2103C158.99 96.3446 152.528 85.5909 151.421 84.0837C150.313 82.5797 148.944 84.4375 149.74 86.6066C149.74 86.6066 148.59 85.6761 147.836 86.1184C147.083 86.5607 147.348 88.4644 150.448 95.6762C150.448 95.6762 146.909 91.528 145.979 91.9442C145.048 92.357 144.871 93.2876 150.094 100.811C155.317 108.334 156.775 110.015 157.794 111.122C158.813 112.229 159.367 113.104 159.367 113.104L168.325 109.444Z" fill="#514132"/>
<path d="M168 108.331C168 108.331 168.253 94.31 168 92.4096C167.748 90.5059 166.732 91.7903 166.067 93.694C165.402 95.5977 164.164 98.4746 164.164 98.4746L168 108.331Z" fill="#514132"/>
<path d="M220.095 50.5774H214.125V54.2504H220.095V50.5774Z" fill="#25272B"/>
<path d="M230.409 72.9302C230.278 72.9302 230.147 72.9203 230.016 72.8941C228.797 72.6779 227.985 71.518 228.201 70.2991C229.109 65.1548 228.729 59.6993 228.706 59.388C227.85 50.325 224.014 50.266 218.211 50.1776C217.863 50.171 217.519 50.1677 217.175 50.1579C212.414 50.0465 208.211 55.4561 208.168 55.5118C207.424 56.5014 206.019 56.698 205.032 55.9542C204.043 55.2104 203.846 53.8047 204.59 52.8152C204.813 52.5203 210.049 45.6755 217.041 45.6755C217.12 45.6755 217.198 45.6755 217.277 45.6788C217.611 45.6854 217.945 45.6919 218.283 45.6952C224.05 45.7837 231.946 45.9016 233.175 58.985C233.175 58.9949 233.178 59.008 233.178 59.0178C233.198 59.2701 233.653 65.2236 232.621 71.0756C232.421 72.1667 231.474 72.9302 230.409 72.9302Z" fill="#25272B"/>
<path d="M211.69 74.9619L213.948 92.662L230.144 87.8814L222.903 63.5889L211.69 74.9619Z" fill="#514132"/>
<path d="M217.782 73.448L218.368 68.1858L217.353 69.2179L216.891 73.3497C216.694 75.119 215.56 76.6459 213.925 77.3471L212.094 78.1335L212.212 79.0575L214.279 78.1695C216.209 77.3406 217.549 75.5319 217.782 73.448Z" fill="#3A2C20"/>
<path d="M209.767 113.491C216.072 113.491 221.183 108.38 221.183 102.076C221.183 95.7709 216.072 90.6599 209.767 90.6599C203.463 90.6599 198.352 95.7709 198.352 102.076C198.352 108.38 203.463 113.491 209.767 113.491Z" fill="#3790F4"/>
<path d="M200.911 94.8704L180.448 121.833C180.448 121.833 189.767 134.92 200.013 138.108L211.69 116.764L200.911 94.8704Z" fill="#3790F4"/>
<path d="M254.066 145.061C258.509 145.061 262.11 141.46 262.11 137.017C262.11 132.574 258.509 128.973 254.066 128.973C249.624 128.973 246.022 132.574 246.022 137.017C246.022 141.46 249.624 145.061 254.066 145.061Z" fill="#514132"/>
<path d="M261.442 133.803L254.067 118.694L239.443 126.332L246.432 139.55L261.442 133.803Z" fill="#514132"/>
<path d="M205.632 91.433L232.841 82.9762C238.349 81.2625 243.808 85.758 243.185 91.4953L239.309 127.19L240.928 137.806C241.052 138.616 240.816 139.442 240.276 140.058C238.041 142.617 231.629 149.225 224.299 150.054C218.254 150.739 212.598 148.321 209.476 146.614C207.975 145.795 207.228 144.055 207.677 142.407L208.607 138.983C208.801 138.268 208.85 137.521 208.745 136.791L205.629 114.503V91.433H205.632Z" fill="#3790F4"/>
<path d="M209.21 129.232C213.627 129.232 217.208 125.651 217.208 121.234C217.208 116.816 213.627 113.236 209.21 113.236C204.793 113.236 201.212 116.816 201.212 121.234C201.212 125.651 204.793 129.232 209.21 129.232Z" fill="#3790F4"/>
<path d="M239.312 97.4785C243.418 97.4785 246.747 94.1499 246.747 90.0439C246.747 85.9379 243.418 82.6094 239.312 82.6094C235.206 82.6094 231.877 85.9379 231.877 90.0439C231.877 94.1499 235.206 97.4785 239.312 97.4785Z" fill="#3790F4"/>
<path d="M246.108 87.0359C246.108 87.0359 254.237 107.58 261.439 121.234C261.439 121.234 251.937 131.833 241.491 133.59L238.106 118.075V94.4442L246.108 87.0359Z" fill="#3790F4"/>
<path d="M234.702 104.055C235.41 103.953 235.934 102.895 235.875 101.695C235.816 100.503 235.2 99.6148 234.499 99.7098C233.797 99.8049 233.267 100.857 233.322 102.053C233.375 103.255 233.994 104.156 234.702 104.055ZM234.551 100.844C234.885 100.798 235.18 101.22 235.206 101.79C235.233 102.361 234.984 102.862 234.649 102.911C234.315 102.957 234.02 102.531 233.994 101.961C233.965 101.391 234.217 100.889 234.551 100.844Z" fill="white"/>
<path d="M231.766 104.474C232.477 104.372 233.011 103.308 232.959 102.105C232.906 100.906 232.29 100.015 231.586 100.113C230.878 100.211 230.341 101.263 230.39 102.465C230.436 103.671 231.055 104.576 231.766 104.474ZM231.632 101.247C231.969 101.201 232.261 101.627 232.287 102.197C232.31 102.77 232.058 103.275 231.72 103.321C231.383 103.37 231.088 102.941 231.065 102.367C231.039 101.797 231.294 101.296 231.632 101.247Z" fill="white"/>
<path d="M228.863 105.621C224.869 106.194 221.717 112.282 221.877 119.353C222.041 126.607 225.606 132.06 229.79 131.339C233.932 130.624 236.983 124.13 236.632 117.027C236.288 110.103 232.821 105.054 228.863 105.621ZM234.594 111.099C233.781 112.076 233.362 113.603 232.884 115.352C232.218 117.783 231.455 120.569 229.364 123.121C226.783 126.276 224.22 125.356 223.673 125.107C223.594 124.907 223.522 124.7 223.453 124.491C223.696 124.494 223.991 124.478 224.322 124.422C225.855 124.17 228.142 123.101 229.384 119.186C230.141 116.801 230.482 114.903 230.78 113.239C231.167 111.083 231.452 109.507 232.481 108.036C233.303 108.779 234.024 109.825 234.594 111.099ZM223.08 123.16C223.191 123.154 223.316 123.137 223.45 123.118C224.613 122.931 226.566 122.135 227.654 119.052C228.408 116.909 228.631 114.582 228.847 112.354C229.047 110.28 229.233 108.334 229.833 106.764C230.528 106.83 231.193 107.085 231.815 107.502C230.819 109.091 230.511 110.795 230.128 112.905C229.836 114.51 229.505 116.342 228.781 118.616C227.287 123.298 223.925 123.291 223.096 123.213C223.087 123.193 223.083 123.177 223.08 123.16ZM228.906 106.784C228.952 106.777 228.998 106.774 229.043 106.771C228.532 108.419 228.345 110.323 228.162 112.187C227.956 114.3 227.743 116.502 227.058 118.436C225.927 121.627 223.575 121.915 222.831 121.922C222.69 121.067 222.605 120.172 222.582 119.242C222.431 112.839 225.282 107.308 228.906 106.784ZM229.741 130.067C227.641 130.428 225.701 129.052 224.368 126.617C224.794 126.702 225.328 126.738 225.934 126.637C227.045 126.453 228.391 125.805 229.754 124.134C231.999 121.381 232.838 118.301 233.503 115.854C233.952 114.205 234.315 112.872 234.977 112.066C235.505 113.54 235.846 115.261 235.937 117.131C236.252 123.567 233.486 129.425 229.741 130.067Z" fill="white"/>
<path d="M208.063 53.9622C208.063 53.9622 202.988 62.8089 202.303 77.9697C202.211 80.0307 204.312 81.4756 206.209 80.663L213.929 77.3471C215.564 76.646 216.697 75.1191 216.894 73.3497L219.296 51.8521L208.063 53.9622Z" fill="#514132"/>
<path d="M237.071 88.53C236.284 88.53 235.521 88.1139 235.111 87.3767C232.946 83.4776 232.644 77.9532 232.356 72.6124C232.028 66.6032 231.691 60.3908 228.752 57.5729C223.643 52.6777 214.689 57.953 214.597 58.0087C213.538 58.6443 212.162 58.3036 211.523 57.2452C210.884 56.1869 211.222 54.814 212.28 54.1751C212.765 53.8802 224.259 47.0649 231.851 54.3422C236.068 58.3855 236.455 65.4989 236.832 72.3732C237.094 77.2095 237.366 82.2095 239.03 85.2043C239.63 86.2856 239.24 87.6486 238.159 88.2515C237.815 88.4383 237.441 88.53 237.071 88.53Z" fill="#25272B"/>
<path d="M234.748 93.4417C233.935 93.4417 233.149 92.9961 232.752 92.2228C228.516 83.9429 228.231 76.2855 228.005 70.1353C227.857 66.1117 227.729 62.6385 226.363 61.0887C222.864 57.124 217.035 61.6326 216.789 61.8259C215.819 62.5894 214.41 62.4255 213.643 61.459C212.877 60.4924 213.037 59.0867 214 58.3167C217.228 55.7446 224.669 52.3992 229.722 58.1234C232.146 60.8692 232.294 64.8863 232.48 69.9682C232.69 75.6793 232.952 82.7862 236.74 90.1815C237.304 91.2824 236.868 92.6324 235.767 93.1959C235.439 93.363 235.092 93.4417 234.748 93.4417Z" fill="#25272B"/>
<path d="M231.694 98.6874C230.921 98.6874 230.167 98.2844 229.751 97.5668C225.953 90.9907 224.597 84.9749 224.738 75.3712C224.859 67.2453 222.713 63.1824 222.693 63.143C222.087 62.065 222.477 60.7053 223.555 60.1024C224.633 59.4962 226.003 59.8894 226.609 60.9674C226.72 61.1673 229.358 65.9838 229.217 75.4368C229.086 84.2508 230.242 89.4573 233.63 95.3256C234.25 96.3971 233.883 97.7667 232.811 98.386C232.461 98.5891 232.074 98.6874 231.694 98.6874Z" fill="#25272B"/>
<path d="M228.178 102.803C227.441 102.803 226.717 102.439 226.291 101.771C222.09 95.2142 221.884 91.2266 221.425 82.4912C220.97 73.7952 220.121 67.1961 220.114 67.1306C219.954 65.9052 220.822 64.7813 222.048 64.6207C223.273 64.4602 224.397 65.3252 224.557 66.5539C224.593 66.8292 225.436 73.3791 225.901 82.2586C226.369 91.2135 226.654 94.0314 230.065 99.3558C230.734 100.398 230.429 101.784 229.387 102.452C229.01 102.688 228.591 102.803 228.178 102.803Z" fill="#25272B"/>
<path d="M223.598 104.926C222.952 104.926 222.31 104.647 221.868 104.11C217.955 99.3558 217.31 95.9613 217.241 87.5044C217.176 79.2179 217.241 70.7611 217.241 70.6759C217.251 69.4439 218.253 68.4543 219.482 68.4543C219.489 68.4543 219.495 68.4543 219.499 68.4543C220.737 68.4642 221.73 69.4766 221.72 70.7119C221.72 70.7971 221.655 79.2212 221.72 87.4716C221.782 95.4665 222.356 97.6585 225.324 101.266C226.111 102.223 225.973 103.632 225.016 104.418C224.6 104.759 224.099 104.926 223.598 104.926Z" fill="#25272B"/>
<path d="M233.827 74.1654C233.693 74.1589 233.555 74.1359 233.414 74.1032C232.139 73.7984 231.281 72.5107 231.491 71.223C232.333 66.0198 231.94 60.489 231.881 59.7517C231.307 56.3343 229.43 51.8453 220.262 51.5439C215.439 51.3768 211.428 55.4365 211.389 55.4791C210.56 56.3277 209.236 56.2884 208.43 55.3939C207.627 54.5026 207.634 53.1003 208.446 52.2484C208.656 52.0288 213.689 46.8354 220.327 46.9894C231.995 47.2548 235.593 53.7752 236.501 59.2504C236.51 59.3094 236.517 59.3651 236.524 59.4241C236.55 59.6928 237.12 66.0723 236.117 72.3076C235.934 73.4642 234.948 74.231 233.827 74.1654Z" fill="#25272B"/>
<path d="M204.479 64.4504L201.419 68.4249C200.662 69.4046 200.878 70.8201 201.894 71.5311L204.482 73.3464V64.4504H204.479Z" fill="#514132"/>
<path d="M214.643 46.3442C214.643 46.3442 218.676 54.2964 217.65 63.2579C216.625 72.2193 217.208 75.0077 217.208 75.0077C217.208 75.0077 225.252 74.5424 227.244 60.3385C229.236 46.1345 223.66 44.1587 223.66 44.1587L214.643 46.3442Z" fill="#EA8021"/>
<path d="M224.063 52.3764C224.752 52.3764 225.311 51.8175 225.311 51.128C225.311 50.4386 224.752 49.8796 224.063 49.8796C223.373 49.8796 222.814 50.4386 222.814 51.128C222.814 51.8175 223.373 52.3764 224.063 52.3764Z" stroke="#CC630D" stroke-width="2" stroke-miterlimit="10" stroke-linecap="round"/>
<path d="M218.355 48.998C219.044 48.998 219.603 48.4391 219.603 47.7496C219.603 47.0601 219.044 46.5012 218.355 46.5012C217.665 46.5012 217.106 47.0601 217.106 47.7496C217.106 48.4391 217.665 48.998 218.355 48.998Z" stroke="#CC630D" stroke-width="2" stroke-miterlimit="10" stroke-linecap="round"/>
<path d="M219.118 69.6997C219.808 69.6997 220.367 69.1407 220.367 68.4513C220.367 67.7618 219.808 67.2029 219.118 67.2029C218.429 67.2029 217.87 67.7618 217.87 68.4513C217.87 69.1407 218.429 69.6997 219.118 69.6997Z" stroke="#CC630D" stroke-width="2" stroke-miterlimit="10" stroke-linecap="round"/>
<path d="M219.386 66.5897C220.159 63.5074 219.738 60.7462 218.446 60.4224C217.154 60.0986 215.48 62.3349 214.708 65.4172C213.935 68.4996 214.356 71.2608 215.648 71.5845C216.94 71.9083 218.614 69.6721 219.386 66.5897Z" fill="#514132"/>
<path d="M215.852 73.2153C216.518 73.2153 217.058 72.6754 217.058 72.0095C217.058 71.3436 216.518 70.8037 215.852 70.8037C215.186 70.8037 214.646 71.3436 214.646 72.0095C214.646 72.6754 215.186 73.2153 215.852 73.2153Z" fill="#EF9D59"/>
<path d="M217.221 48.1855C219.1 48.1855 220.622 46.6628 220.622 44.7844C220.622 42.906 219.1 41.3833 217.221 41.3833C215.343 41.3833 213.82 42.906 213.82 44.7844C213.82 46.6628 215.343 48.1855 217.221 48.1855Z" fill="#EF9D59"/>
<path d="M217.65 48.1856C218.825 48.1856 219.777 47.2336 219.777 46.0591C219.777 44.8847 218.825 43.9326 217.65 43.9326C216.476 43.9326 215.524 44.8847 215.524 46.0591C215.524 47.2336 216.476 48.1856 217.65 48.1856Z" fill="#EA8021"/>
<path d="M219.934 42.7366C219.934 42.7366 225.586 37.8512 232.179 41.3833C232.179 41.3833 230.41 41.9502 229.702 43.6311C228.994 45.312 225.629 48.5361 221.471 48.1855C217.31 47.8349 219.934 42.7366 219.934 42.7366Z" fill="#EF9D59"/>
<path d="M153.367 99.8048C153.462 99.8048 153.561 99.7753 153.643 99.7097C153.839 99.559 153.875 99.2772 153.721 99.0806L149.681 93.8709C149.914 94.4344 150.169 95.0373 150.445 95.6828C150.445 95.6828 149.141 94.1559 147.905 93.0452L153.01 99.6278C153.102 99.7425 153.233 99.8048 153.367 99.8048Z" fill="#3A2C20"/>
<path d="M151.064 89.8867C151.064 89.8867 153.587 92.1279 154.206 95.896C154.206 95.896 151.375 92.6718 151.064 89.8867Z" fill="#3A2C20"/>
<path d="M211.406 117.289L205.403 128.262C205.753 128.452 206.117 128.619 206.494 128.753L212.451 117.862C212.608 117.574 212.503 117.21 212.215 117.053C211.926 116.892 211.563 117 211.406 117.289Z" fill="#1773C6"/>
<path d="M242.759 95.4306L239.312 127.19L240.318 133.786L241.498 133.59L240.518 127.164L243.948 95.5616C243.981 95.2536 243.775 94.9718 243.473 94.9129C243.126 94.8408 242.798 95.0832 242.759 95.4306Z" fill="#1773C6"/>
<path d="M170.445 140.13C170.678 140.32 171.022 140.28 171.202 140.038L177.332 131.774L176.841 130.552L170.356 139.415C170.189 139.638 170.229 139.953 170.445 140.13Z" fill="#3A2C20"/>
<path d="M167.991 108.298C167.997 108.022 168.017 106.849 168.04 105.254C167.109 102.056 166.166 98.8119 165.278 95.7778C165.088 96.2562 164.901 96.7149 164.734 97.118C166.11 101.83 167.404 106.276 167.991 108.298Z" fill="#3A2C20"/>
<path d="M224.921 65.5383C223.847 65.5383 222.972 64.6635 222.972 63.5887C222.972 62.514 223.847 61.6392 224.921 61.6392C225.783 61.6392 226.517 62.2027 226.772 62.9793C226.838 62.6811 226.9 62.3764 226.959 62.0651C226.494 61.4458 225.753 61.0396 224.921 61.0396C223.516 61.0396 222.372 62.1831 222.372 63.5887C222.372 64.9944 223.516 66.1379 224.921 66.1379C225.291 66.1379 225.645 66.056 225.963 65.9118C226.061 65.6202 226.156 65.322 226.252 65.014C225.904 65.3384 225.436 65.5383 224.921 65.5383Z" fill="#CC630D"/>
<path d="M219.76 55.2992C219.76 53.8935 218.617 52.75 217.211 52.75C217.1 52.75 216.988 52.7598 216.88 52.7729C216.926 52.963 216.972 53.1596 217.018 53.3562C217.084 53.3496 217.146 53.3463 217.211 53.3463C218.286 53.3463 219.161 54.2212 219.161 55.2959C219.161 56.2199 218.512 56.9965 217.647 57.1963C217.667 57.3962 217.686 57.5961 217.706 57.7959C218.879 57.5666 219.76 56.5345 219.76 55.2992Z" fill="#CC630D"/>
<path d="M123.242 205.979C123.242 204.256 121.846 202.86 120.123 202.86C118.399 202.86 117.003 204.256 117.003 205.979C117.003 206.952 117.449 207.821 118.147 208.394H122.099C122.796 207.821 123.242 206.952 123.242 205.979Z" fill="#EA8021"/>
<path d="M260.112 207.463C259.243 207.463 258.457 207.821 257.894 208.391H262.333C261.766 207.821 260.98 207.463 260.112 207.463Z" fill="#EA8021"/>
<path d="M200.252 69.7717L201.644 78.8151C201.972 80.9481 204.243 82.1834 206.212 81.302L215.875 76.9736C216.74 76.587 217.277 75.7089 217.231 74.7619L217.048 71.0954C217.048 71.0954 215.586 69.8176 215.684 65.1484L208.548 66.8916C207.719 67.0947 206.851 67.1013 206.019 66.9112L203.076 66.2395C202.437 66.0921 201.766 66.2985 201.32 66.7769L201.104 67.0095C200.412 67.75 200.098 68.7691 200.252 69.7717Z" fill="#1773C6"/>
<path d="M96.7347 55.1646L100.047 57.4254C101.165 58.1888 102.505 58.5591 103.855 58.4805L106.017 58.3559C106.941 58.3035 107.836 58.6902 108.429 59.4012C108.753 59.7911 109.238 60.0172 109.746 60.0172C110.231 60.0172 110.591 60.4661 110.487 60.9379L108.563 69.6274C108.252 71.0396 106.997 72.0455 105.552 72.0455H102.888C101.538 72.0455 100.244 71.5213 99.274 70.5842L94.8375 66.2951C93.7333 65.2269 93.2451 63.6738 93.54 62.1699L93.8414 60.6266C93.848 60.6332 96.3579 59.8107 96.7347 55.1646Z" fill="#1773C6"/>
</svg>
