<svg width="336" height="195" viewBox="0 0 336 195" fill="none" xmlns="http://www.w3.org/2000/svg">
<g clip-path="url(#clip0)">
<path d="M247.069 149.533C247.069 149.533 252.7 150.743 266.68 151.547C280.661 152.352 286.482 150.939 293.33 150.097C300.177 149.254 305.809 150.755 307.779 153.384L334.808 140.525C334.808 140.525 334.529 138.745 328.898 139.303C323.266 139.866 315.291 134.704 310.502 135.078C305.713 135.451 289.953 137.01 287.698 135.059C287.698 135.059 289.06 131.575 289.035 129.668H247.062V149.533H247.069Z" fill="#105A91"/>
<path d="M278.412 86.8479C278.412 86.8479 280.946 89.9455 281.7 92.3842L265.933 108.753L252.238 87.5067L274.2 80.6211L278.412 86.8479Z" fill="#105A91"/>
<path d="M214.269 68.6035H144.311V131.036H214.269V68.6035Z" fill="#105A91"/>
<path d="M173.874 125.944C173.874 125.944 169.712 127.686 169.712 124.31C169.712 120.934 171.549 120.078 170.365 117.621C169.18 115.169 165.468 110.26 170.365 108.98C175.261 107.701 177.662 108.455 178.859 106.478C180.056 104.502 183.578 103.647 184.433 107.485C185.289 111.324 178.245 114.738 180.272 116.449C182.299 118.153 185.301 119.223 184.598 121.466C183.895 123.708 178.72 121.757 177.466 122.948C176.211 124.139 174.609 125.697 173.874 125.944Z" fill="#0B467B"/>
<path d="M173.773 13.643C173.773 13.643 184.472 5.66787 190.946 3.50781L221.079 12.4901C221.079 12.4901 228.433 13.5986 234.21 23.1701C239.987 32.7415 248.007 50.9024 254.759 58.6432L205.211 85.1087L173.773 13.643Z" fill="#DCECFF"/>
<path d="M231.676 175.477C231.676 175.477 233.577 177.802 229.567 179.208C225.557 180.614 211.691 179.487 204.932 180.266C198.173 181.045 195.785 181.888 195.64 180.266C195.5 178.644 195.64 176.111 195.64 176.111L225.975 173.152L231.676 175.477Z" fill="#105A91"/>
<path d="M140.181 145.066C140.181 145.066 127.512 156.899 144.825 164.5C162.137 172.102 187.76 173.508 195.64 180.267C195.64 180.267 222.669 173.229 231.677 175.478C231.677 175.478 224.918 170.271 218.868 162.53C212.813 154.789 203.805 136.426 203.805 136.426H144.121L140.181 145.066Z" fill="#FF952D"/>
<path d="M151.723 48.226C151.723 48.226 152.147 55.1243 150.88 57.0943C149.613 59.0643 135.709 83.9335 135.709 83.9335L150.734 105.097C150.734 105.097 169.035 89.7993 174.805 76.6109C180.576 63.4225 167.768 25.4219 167.768 25.4219L152.286 39.9215L151.723 48.226Z" fill="#1773C6"/>
<path d="M34.9146 121.034C34.9146 121.034 46.9944 121.566 57.5033 114.807C68.0122 108.048 73.1748 98.7617 89.6002 105.799V131.606H34.9146V121.034Z" fill="#DCECFF"/>
<path d="M81.8595 118.758C78.9076 118.758 76.5068 116.357 76.5068 113.405C76.5068 110.454 78.9076 108.053 81.8595 108.053C84.8113 108.053 87.2121 110.454 87.2121 113.405C87.2121 116.357 84.8113 118.758 81.8595 118.758ZM81.8595 109.32C79.6044 109.32 77.7737 111.15 77.7737 113.405C77.7737 115.66 79.6044 117.491 81.8595 117.491C84.1146 117.491 85.9452 115.66 85.9452 113.405C85.9452 111.15 84.1146 109.32 81.8595 109.32Z" fill="#105A91"/>
<path d="M87.909 106.083C87.909 106.083 85.5652 113.894 82.1826 117.447C78.8064 121.001 74.5052 124.517 74.6383 133.036H101.471V101.016H89.0809L87.909 106.083Z" fill="#EA8021"/>
<path d="M125.821 159.008C125.821 159.008 125.96 161.967 138.49 153.238C151.019 144.509 161.015 138.459 166.925 137.047L160.521 130.643L121.317 155.068L125.821 159.008Z" fill="#EA8021"/>
<path d="M98.044 115.275C98.044 115.275 97.4803 103.828 94.4777 102.327C91.4752 100.826 88.8464 102.517 87.9089 106.083C87.9089 106.083 86.3316 97.6393 92.9384 92.1917C99.5453 86.7504 122.071 74.9239 132.39 66.0999C142.708 57.276 156.036 50.1434 164.486 49.5859C164.486 49.5859 173.868 62.3499 179.315 67.9813C184.757 73.6126 181.754 76.6152 181.754 76.6152C181.754 76.6152 166.551 84.4953 150.037 84.3116C150.037 84.3116 151.349 96.5118 163.549 110.777C175.749 125.042 178.562 132.688 178.562 132.688C178.562 132.688 177.434 138.117 161.104 140.777C144.774 143.438 125.631 153.009 125.821 159.014C125.821 159.008 104.049 156.379 98.044 115.275Z" fill="#CC630D"/>
<path d="M141.524 93.739C136.343 96.3868 138.87 101.112 142.145 102.094C145.42 103.082 145.236 106.794 148.885 113.332C152.534 119.869 158.184 112.736 161.262 110.126C161.649 109.797 162.016 109.55 162.371 109.36C158.805 104.983 156.258 100.827 154.44 97.2166C151.545 97.0709 145.762 91.5789 141.524 93.739Z" fill="#BF4F09"/>
<path d="M146.382 72.9492C146.382 72.9492 136.703 98.3885 122.438 116.22C112.379 128.788 109.313 140.044 108.369 145.599C111.34 150.091 114.469 153.087 117.244 155.088C115.533 144.979 123.927 126.602 133.669 116.036C145.09 103.646 150.576 87.0878 150.576 87.0878C150.132 85.3205 150.025 84.3196 150.025 84.3196C154.826 84.3766 159.514 83.7432 163.752 82.8247C163.809 73.1519 146.382 72.9492 146.382 72.9492Z" fill="#EF9D59"/>
<path d="M117.092 103.289C125.682 94.5412 141.246 68.9562 142.753 58.4473C139.168 60.734 135.627 63.3312 132.39 66.0993C130.059 68.0947 127.095 70.2421 123.839 72.4338C118.689 82.1952 111.132 95.4026 103.321 105.088C101.148 107.787 99.3558 110.491 97.8799 113.146C98.0002 114.412 98.0446 115.274 98.0446 115.274C98.9694 121.583 100.262 126.98 101.788 131.611L101.795 131.604C101.795 131.604 108.509 112.037 117.092 103.289Z" fill="#EF9D59"/>
<path d="M179.309 67.9806C175.692 64.237 170.333 57.345 167.147 53.1453C164.372 52.1951 161.547 51.3336 158.848 50.6875C153.958 52.1444 148.289 54.9189 142.746 58.4472C142.765 58.4472 167.343 62.0706 174.799 76.6145C175.255 77.5077 175.704 78.3249 176.135 79.0723C179.632 77.7104 181.741 76.6145 181.741 76.6145C181.741 76.6145 184.756 73.612 179.309 67.9806Z" fill="#EF9D59"/>
<path d="M92.9384 92.1918C86.3316 97.6332 87.9089 106.083 87.9089 106.083C88.7957 102.713 91.1901 101.022 93.9836 102.112C95.6496 97.4431 98.0314 91.5774 100.901 86.7695C97.4929 88.9043 94.6678 90.7666 92.9384 92.1918Z" fill="#EF9D59"/>
<path d="M74.1129 175.243C74.1129 175.243 94.947 172.805 99.3558 181.907C103.765 191.01 105.082 195.983 110.714 194.012C116.345 192.042 118.41 186.411 128.45 183.972C138.49 181.534 149.848 176.181 146.94 172.431C144.033 168.675 126.296 172.152 112.779 169.055C99.2608 165.957 85.0969 162.676 85.0969 162.676C85.0969 162.676 73.4541 166.514 74.1129 175.243Z" fill="#1773C6"/>
<path d="M99.8999 183.041C103.884 191.415 105.322 195.9 110.713 194.012C114.672 192.625 116.87 189.432 121.317 186.81C111.372 181.014 99.8999 183.041 99.8999 183.041Z" fill="#3790F4"/>
<path d="M146.934 172.433C145.521 170.608 140.593 170.488 134.36 170.494C128.634 175.879 131.383 183.189 131.383 183.189C140.555 180.516 149.563 175.822 146.934 172.433Z" fill="#3790F4"/>
<path d="M99.3874 170.441C101.497 170.885 101.775 175.009 105.576 176.294C109.377 177.574 110.067 173.298 110.067 173.298C111.125 171.417 111.176 171.905 114.381 173.672C116.345 174.755 117.966 172.133 118.232 169.954C116.37 169.745 114.539 169.453 112.772 169.048C107.02 167.73 101.148 166.375 96.3025 165.26C96.1695 165.348 96.0301 165.443 95.9034 165.557C93.1796 167.901 97.278 169.998 99.3874 170.441Z" fill="#0E59B4"/>
<path d="M223.321 157.319L245.2 152.637C245.2 152.637 278.418 140.355 279.261 129.339C280.103 118.33 280.667 106.643 272.413 101.765C264.159 96.8876 257.768 93.3213 254.765 83.9336L203.152 100.828C203.152 100.828 192.079 109.835 193.207 123.537C193.207 123.537 166.488 119.476 156.283 129.561C156.283 129.561 156.796 137.612 158.342 145.777C159.888 153.942 168.198 157.319 168.198 157.319C168.198 157.319 172.702 146.341 184.947 150.56C197.191 154.791 213.427 159.358 223.321 157.319Z" fill="#DCECFF"/>
<path d="M166.723 131.131C166.723 128.711 165.088 126.614 162.694 125.557C161.997 125.835 161.319 126.139 160.667 126.475C163.283 127.001 165.234 128.889 165.234 131.137C165.234 133.791 162.529 135.945 159.197 135.945C158.361 135.945 157.563 135.806 156.834 135.559C156.891 136.072 156.955 136.61 157.025 137.168C157.715 137.345 158.443 137.44 159.197 137.44C163.346 137.434 166.723 134.609 166.723 131.131Z" fill="#3790F4"/>
<path d="M214.269 150.166C210.12 150.166 206.737 152.991 206.737 156.469C206.737 156.526 206.744 156.577 206.75 156.634C207.257 156.729 207.757 156.817 208.258 156.906C208.239 156.76 208.232 156.615 208.232 156.469C208.232 153.815 210.937 151.661 214.269 151.661C217.595 151.661 220.306 153.821 220.306 156.469C220.306 156.912 220.223 157.337 220.084 157.742C220.629 157.704 221.155 157.653 221.674 157.59C221.75 157.229 221.801 156.855 221.801 156.469C221.801 152.991 218.418 150.166 214.269 150.166Z" fill="#3790F4"/>
<path d="M265.611 131.17C261.417 131.17 258.003 134.584 258.003 138.778C258.003 141.52 259.466 143.921 261.645 145.258C262.234 144.947 262.823 144.631 263.413 144.308C261.215 143.433 259.65 141.286 259.65 138.778C259.65 135.49 262.323 132.817 265.611 132.817C268.898 132.817 271.571 135.49 271.571 138.778C271.571 138.923 271.559 139.069 271.546 139.215C272.11 138.803 272.655 138.379 273.174 137.96C272.769 134.147 269.532 131.17 265.611 131.17Z" fill="#3790F4"/>
<path d="M247.589 102.758C247.589 102.758 242.914 103.284 243.148 98.9324C243.383 94.5806 247.614 93.0857 247.468 90.7482C247.323 88.4108 248.323 83.5143 251.567 85.6807C254.81 87.8471 253.41 92.6803 255.678 94.5363C257.952 96.3923 265.528 100.991 261.822 103.227C258.117 105.463 254.778 104.95 255.728 108.124C256.679 111.297 247.538 111.247 248.45 107.376C249.362 103.512 249.863 103.322 247.589 102.758Z" fill="#BFCEDB"/>
<path d="M237.434 132.682C240.614 132.682 243.192 130.572 243.192 127.969C243.192 125.366 240.614 123.256 237.434 123.256C234.254 123.256 231.676 125.366 231.676 127.969C231.676 130.572 234.254 132.682 237.434 132.682Z" fill="#3790F4"/>
<path d="M215.334 142.115C218.514 142.115 221.092 140.005 221.092 137.402C221.092 134.799 218.514 132.689 215.334 132.689C212.154 132.689 209.576 134.799 209.576 137.402C209.576 140.005 212.154 142.115 215.334 142.115Z" stroke="#3790F4" stroke-width="1.2669" stroke-miterlimit="10"/>
<path d="M70.3943 129.067C72.3989 129.067 74.024 127.737 74.024 126.096C74.024 124.455 72.3989 123.125 70.3943 123.125C68.3897 123.125 66.7646 124.455 66.7646 126.096C66.7646 127.737 68.3897 129.067 70.3943 129.067Z" fill="#105A91"/>
<path d="M250.952 118.734C253.1 118.734 254.841 117.307 254.841 115.548C254.841 113.788 253.1 112.361 250.952 112.361C248.804 112.361 247.062 113.788 247.062 115.548C247.062 117.307 248.804 118.734 250.952 118.734Z" stroke="#3790F4" stroke-width="1.2669" stroke-miterlimit="10"/>
<path d="M256.868 95.3549C259.016 95.3549 260.758 93.9284 260.758 92.1687C260.758 90.409 259.016 88.9824 256.868 88.9824C254.72 88.9824 252.979 90.409 252.979 92.1687C252.979 93.9284 254.72 95.3549 256.868 95.3549Z" stroke="#3790F4" stroke-width="1.2669" stroke-miterlimit="10"/>
<path d="M211.66 120.609C214.438 120.609 216.69 118.763 216.69 116.485C216.69 114.208 214.438 112.361 211.66 112.361C208.882 112.361 206.63 114.208 206.63 116.485C206.63 118.763 208.882 120.609 211.66 120.609Z" stroke="#3790F4" stroke-width="1.2669" stroke-miterlimit="10"/>
<path d="M241.812 103.941C243.361 103.941 244.618 102.911 244.618 101.641C244.618 100.371 243.361 99.3418 241.812 99.3418C240.262 99.3418 239.005 100.371 239.005 101.641C239.005 102.911 240.262 103.941 241.812 103.941Z" fill="#3790F4"/>
<path d="M185.042 147.373C187.337 147.373 189.198 145.847 189.198 143.965C189.198 142.082 187.337 140.557 185.042 140.557C182.747 140.557 180.887 142.082 180.887 143.965C180.887 145.847 182.747 147.373 185.042 147.373Z" fill="#3790F4"/>
<path d="M250.255 148.969C249.73 146.328 241.324 144.795 231.898 146.67C222.466 148.545 215.219 153.087 215.745 155.728C216.271 158.369 223.416 157.153 232.848 155.278C242.28 153.41 250.781 151.611 250.255 148.969Z" fill="#105A91"/>
<path d="M226.419 151.877L228.129 156.184C229.618 155.912 231.195 155.608 232.848 155.278C236.161 154.62 239.36 153.973 242.097 153.289L241.058 148.494C233.837 149.343 226.419 151.877 226.419 151.877Z" fill="#EF9D59"/>
<path d="M265.661 133.969C265.661 133.969 259.548 135.648 260.39 126.355C261.233 117.062 273.059 88.7725 280.8 90.7425C288.541 92.7125 286.146 98.6226 291.36 105.103C296.566 111.577 297.27 118.361 296.427 120.882C296.427 120.882 299.335 126.336 295.268 128.528L265.661 133.969Z" fill="#EF9D59"/>
<path d="M307.785 153.377C307.785 153.377 307.975 144.439 315.855 143.45C323.735 142.462 327.542 141.721 329.931 140.492C332.319 139.263 334.27 139.13 334.808 140.518C335.347 141.905 334.852 143.945 332.249 144.439C329.645 144.933 319.58 148.873 316.413 150.773C313.245 152.673 308.374 155.841 307.785 153.377Z" fill="#3790F4"/>
<path d="M0.575684 137.534C0.575684 137.534 7.11287 132.074 13.8654 127.101C20.618 122.129 24.1906 120.437 31.3233 120.628C38.4559 120.818 50.6561 126.069 61.4501 127.57C72.244 129.071 77.9641 129.445 85.0967 127.944L72.9915 138.738L60.0438 140.188C60.0438 140.188 56.1038 139.859 53.475 141.455L0.575684 137.534Z" fill="#FF952D"/>
<path d="M151.723 48.224C151.723 48.224 155.948 33.585 163.828 38.6526C171.708 43.7202 172.557 57.7954 171.151 70.325C169.744 82.8546 170.023 100.87 180.722 109.32C180.722 109.32 202.386 102.922 210.374 91.3048C210.374 91.3048 201.981 70.6101 198.744 48.3697C195.507 26.1293 181.147 7.12587 170.308 12.1935C159.47 17.2611 143.982 44.4233 151.723 48.224Z" fill="#3790F4"/>
<path d="M186.258 4.16869C186.258 4.16869 191.985 -1.46267 199.725 0.367995C207.466 2.19866 208.594 5.01117 213.237 5.99935C217.88 6.98753 222.105 11.7701 221.966 16.5589C221.826 21.3478 232.38 59.3547 240.545 70.8961C240.545 70.8961 223.936 79.9228 211.685 84.4076C211.685 84.4076 204.324 56.3965 196.603 45.4125C188.887 34.4349 188.792 12.0488 186.258 4.16869Z" fill="#EF9D59"/>
<path d="M209.816 7.34995C206.326 8.19877 209.018 11.9298 210.697 13.2854C212.369 14.6409 210.748 18.4416 213.547 21.3112C216.347 24.1807 218.906 20.6904 218.906 20.6904C220.705 19.4995 220.528 19.9556 222.574 22.9898C222.758 23.2622 222.973 23.4585 223.208 23.5916C222.39 20.1203 221.934 17.5865 221.96 16.5603C222.029 14.1849 221.022 11.8094 219.426 9.90274C219.027 9.97876 218.666 10.0421 218.374 10.0864C215.708 10.4665 213.307 6.50112 209.816 7.34995Z" fill="#DB8646"/>
<path d="M57.6871 146.061C57.6871 146.061 60.0815 155.353 74.5812 150.425C89.0808 145.497 91.0508 142.399 99.0766 143.248C107.102 144.091 108.509 138.605 107.806 129.452C107.102 120.298 114.843 117.061 114.843 117.061C114.843 117.061 114.419 102.283 107.102 97.7793C107.102 97.7793 93.5909 110.873 88.3777 120.305C83.1707 129.737 71.4836 135.368 64.8704 136.914C58.2572 138.459 56.2808 141.696 57.6871 146.061Z" fill="#3790F4"/>
<path d="M81.3969 131.979C78.0776 133.518 83.2465 140.163 85.0012 137.667C86.7559 135.172 88.2888 137.883 92.0198 139.289C95.7445 140.695 94.7563 132.594 94.807 129.895C94.8577 127.197 99.1525 125.461 98.8737 121.876C98.595 118.29 94.4839 120.362 92.875 121.8C91.6968 122.851 89.5114 121.952 87.1423 122.3C85.9894 123.979 84.6338 125.524 83.1579 126.93C83.5126 127.976 84.2537 128.729 84.2537 128.729C85.1406 130.687 84.7162 130.433 81.3969 131.979Z" fill="#217DC1"/>
<path d="M87.7442 132.499C88.7692 132.499 89.6002 131.668 89.6002 130.643C89.6002 129.618 88.7692 128.787 87.7442 128.787C86.7191 128.787 85.8882 129.618 85.8882 130.643C85.8882 131.668 86.7191 132.499 87.7442 132.499Z" fill="#DCECFF"/>
<path d="M82.5376 138.275C83.5627 138.275 84.3936 137.444 84.3936 136.419C84.3936 135.393 83.5627 134.562 82.5376 134.562C81.5126 134.562 80.6816 135.393 80.6816 136.419C80.6816 137.444 81.5126 138.275 82.5376 138.275Z" fill="#DCECFF"/>
<path d="M75.2847 137.733C76.3098 137.733 77.1407 136.903 77.1407 135.877C77.1407 134.852 76.3098 134.021 75.2847 134.021C74.2597 134.021 73.4287 134.852 73.4287 135.877C73.4287 136.903 74.2597 137.733 75.2847 137.733Z" fill="#DCECFF"/>
<path d="M89.2901 142.052C90.3151 142.052 91.1461 141.221 91.1461 140.196C91.1461 139.171 90.3151 138.34 89.2901 138.34C88.265 138.34 87.4341 139.171 87.4341 140.196C87.4341 141.221 88.265 142.052 89.2901 142.052Z" fill="#DCECFF"/>
<path d="M94.7945 134.025C95.8195 134.025 96.6505 133.194 96.6505 132.168C96.6505 131.143 95.8195 130.312 94.7945 130.312C93.7694 130.312 92.9385 131.143 92.9385 132.168C92.9385 133.194 93.7694 134.025 94.7945 134.025Z" fill="#DCECFF"/>
<path d="M92.9385 125.862C93.9636 125.862 94.7945 125.031 94.7945 124.006C94.7945 122.981 93.9636 122.15 92.9385 122.15C91.9135 122.15 91.0825 122.981 91.0825 124.006C91.0825 125.031 91.9135 125.862 92.9385 125.862Z" fill="#DCECFF"/>
<path d="M101.471 126.284C102.496 126.284 103.327 125.453 103.327 124.428C103.327 123.403 102.496 122.572 101.471 122.572C100.446 122.572 99.6152 123.403 99.6152 124.428C99.6152 125.453 100.446 126.284 101.471 126.284Z" fill="#DCECFF"/>
<path d="M97.4551 117.448C98.4802 117.448 99.3111 116.617 99.3111 115.592C99.3111 114.567 98.4802 113.736 97.4551 113.736C96.4301 113.736 95.5991 114.567 95.5991 115.592C95.5991 116.617 96.4301 117.448 97.4551 117.448Z" fill="#DCECFF"/>
<path d="M106.462 119.081C107.487 119.081 108.318 118.25 108.318 117.225C108.318 116.2 107.487 115.369 106.462 115.369C105.437 115.369 104.606 116.2 104.606 117.225C104.606 118.25 105.437 119.081 106.462 119.081Z" fill="#DCECFF"/>
<path d="M101.116 109.607C102.141 109.607 102.972 108.776 102.972 107.751C102.972 106.725 102.141 105.895 101.116 105.895C100.091 105.895 99.2603 106.725 99.2603 107.751C99.2603 108.776 100.091 109.607 101.116 109.607Z" fill="#DCECFF"/>
<path d="M109.706 111.177C110.731 111.177 111.562 110.346 111.562 109.321C111.562 108.296 110.731 107.465 109.706 107.465C108.681 107.465 107.85 108.296 107.85 109.321C107.85 110.346 108.681 111.177 109.706 111.177Z" fill="#DCECFF"/>
<path d="M82.5376 145.357C83.5627 145.357 84.3936 144.526 84.3936 143.501C84.3936 142.475 83.5627 141.645 82.5376 141.645C81.5126 141.645 80.6816 142.475 80.6816 143.501C80.6816 144.526 81.5126 145.357 82.5376 145.357Z" fill="#DCECFF"/>
<path d="M80.3512 130.883C81.3774 130.883 82.2072 130.053 82.2072 129.027C82.2072 128.666 82.0996 128.33 81.9222 128.045C80.9847 128.849 80.0155 129.603 79.021 130.306C79.3504 130.661 79.8255 130.883 80.3512 130.883Z" fill="#DCECFF"/>
<path d="M87.9022 122.733C87.9022 122.334 87.7755 121.966 87.5601 121.662C86.9267 122.65 86.2299 123.588 85.4697 124.487C85.6534 124.551 85.8498 124.589 86.0525 124.589C87.0724 124.582 87.9022 123.752 87.9022 122.733Z" fill="#DCECFF"/>
<path d="M92.5507 115.593C92.5507 115.188 92.4177 114.814 92.196 114.51C91.4802 115.473 90.8024 116.423 90.1753 117.367C90.34 117.417 90.511 117.449 90.6947 117.449C91.7209 117.449 92.5507 116.619 92.5507 115.593Z" fill="#DCECFF"/>
<path d="M96.2442 109.438C95.7754 109.989 95.313 110.552 94.8506 111.116C95.6234 110.926 96.1935 110.255 96.2442 109.438Z" fill="#DCECFF"/>
<path d="M109.439 102.164C109.439 103.19 110.269 104.02 111.295 104.02C111.536 104.02 111.764 103.969 111.973 103.887C111.466 102.753 110.864 101.676 110.161 100.707C109.724 101.049 109.439 101.569 109.439 102.164Z" fill="#DCECFF"/>
<path d="M105.385 129.029C105.385 130.056 106.215 130.885 107.241 130.885C107.469 130.885 107.685 130.841 107.887 130.765C107.862 130.334 107.837 129.904 107.799 129.454C107.742 128.687 107.742 127.959 107.792 127.275C107.615 127.218 107.431 127.18 107.235 127.18C106.215 127.18 105.385 128.01 105.385 129.029Z" fill="#DCECFF"/>
<path d="M114.773 115.947C113.779 115.985 112.987 116.796 112.987 117.797C112.987 117.911 112.999 118.025 113.018 118.133C114.057 117.398 114.836 117.068 114.836 117.068C114.836 117.068 114.83 116.644 114.773 115.947Z" fill="#DCECFF"/>
<path d="M86.6284 145.745C87.6673 145.308 88.6111 144.915 89.4916 144.579C89.1939 144.377 88.8328 144.25 88.4401 144.25C87.5469 144.25 86.7931 144.896 86.6284 145.745Z" fill="#DCECFF"/>
<path d="M105.784 100.314C105.784 99.9655 105.683 99.6361 105.512 99.3574C104.84 100.035 103.992 100.903 103.022 101.917C103.289 102.069 103.599 102.164 103.928 102.164C104.954 102.164 105.784 101.334 105.784 100.314Z" fill="#DCECFF"/>
<path d="M75.265 132.68C71.477 134.821 67.7079 136.24 64.8701 136.905C58.2569 138.45 56.2805 141.694 57.6931 146.052C57.6931 146.052 60.0875 155.344 74.5872 150.416C76.1898 149.871 77.6277 149.352 78.9453 148.858C78.939 139.42 75.265 132.68 75.265 132.68Z" fill="#1773C6"/>
<path d="M99.0766 143.24C107.102 144.083 108.509 138.597 107.806 129.444C97.8097 127.898 92.9385 143.5 92.9385 143.5C94.7755 143.094 96.6442 142.987 99.0766 143.24Z" fill="#1773C6"/>
<path d="M53.4684 141.461C53.4684 141.461 52.0621 137.952 45.3032 136.894C38.5443 135.83 21.3716 137.616 15.2714 136.584C9.17134 135.551 -5.18894 136.058 1.84867 140.777C8.88628 145.496 14.3276 143.577 21.5553 143.039C28.7829 142.5 54.0322 146.998 53.4684 141.461Z" fill="#EA8021"/>
<path d="M211.59 120.603C211.59 120.603 225.203 117.062 235.617 106.781C246.031 96.5063 269.12 81.6329 275.17 83.9323L278.407 86.8399C278.407 86.8399 279.629 82.241 274.371 78.1109C269.114 73.9809 262.171 65.632 259.074 60.4694C255.976 55.3068 247.532 53.9956 241.711 57.7456C235.889 61.5019 210.456 80.7841 197.743 84.4708L211.59 120.603Z" fill="#FF952D"/>
<path d="M207.042 101.017C210.861 110.994 213.877 119.729 211.59 120.609C209.303 121.484 204.35 114.11 200.53 104.133C196.71 94.1566 195.462 85.358 197.749 84.4838C200.036 83.597 203.222 91.04 207.042 101.017Z" fill="#CC630D"/>
<path d="M296.206 126.868C296.574 129.034 289.498 132.024 280.415 133.557C271.331 135.09 263.666 134.577 263.299 132.417C262.931 130.251 270.33 128.654 279.42 127.121C288.51 125.588 295.839 124.708 296.206 126.868Z" fill="#EA8021"/>
<path d="M205.775 31.8492C205.775 31.8492 211.033 44.1445 206.149 51.3658C201.265 58.5871 201.271 60.8422 204.458 62.9072C207.65 64.9722 214.314 69.7548 216.373 77.5462C218.438 85.3376 227.914 92.749 234.014 86.8389C240.114 80.9288 235.42 73.6062 229.884 64.1298C224.348 54.6534 221.624 27.4341 215.993 20.8652C216.005 20.8716 207.84 24.1528 205.775 31.8492Z" fill="#105A91"/>
<path d="M207.903 47.0078C207.593 48.5598 207.042 50.0484 206.155 51.3659C201.277 58.5936 201.277 60.8423 204.464 62.9074C206.427 64.1806 209.702 66.48 212.414 69.8816C214.555 54.5205 207.903 47.0078 207.903 47.0078Z" fill="#DCECFF"/>
<path d="M234.02 86.8464C238.068 82.9191 237.359 78.3772 234.806 72.9866C225.089 70.5795 217.582 80.6006 217.57 80.6133C220.914 87.0808 228.738 91.971 234.02 86.8464Z" fill="#DCECFF"/>
<path d="M218.216 34.844C218.406 36.4023 215.873 36.6556 214.65 37.6565C213.427 38.6573 213.991 42.5974 216.246 42.5974C218.501 42.5974 219.908 42.9838 220.003 44.8525C220.098 46.7275 222.346 50.1608 224.411 48.2097C224.462 48.1591 224.513 48.1021 224.563 48.045C223.106 42.0716 221.732 35.7055 220.205 30.4922C218.204 30.6252 218.039 33.3744 218.216 34.844Z" fill="#0B467B"/>
<path d="M222.587 75.8691C221.928 75.0393 221.168 74.3868 220.192 74.4819C217.532 74.7352 217.19 77.3197 218.172 78.4726C218.412 78.7513 218.533 79.068 218.577 79.4354C219.432 78.4979 220.813 77.136 222.587 75.8691Z" fill="#0B467B"/>
<path d="M218.292 81.8681C220.123 84.7946 222.841 87.2397 225.723 88.3483C226.122 88.3863 226.477 88.513 226.812 88.6967C229.232 89.3238 231.696 88.9437 233.793 87.056V87.0497C233.641 86.1565 232.228 84.0281 231.24 82.4952C230.309 81.0446 232.976 76.6675 231.012 75.7933C229.175 74.9698 227.737 77.2883 225.913 78.7515C224.716 79.708 223.848 77.4593 222.594 75.8757C220.82 77.1362 219.439 78.4981 218.584 79.442C218.647 80.0501 218.502 80.8229 218.292 81.8681Z" fill="#BFCEDB"/>
<path d="M143.399 120.68C136.868 126.248 130.984 139.195 134.993 149.869C137.489 148.456 140.359 147.088 143.431 145.846C141.651 128.604 158.178 119.672 161.098 107.757C158.786 104.748 156.949 101.866 155.492 99.2246C153.952 103.437 149.069 115.846 143.399 120.68Z" fill="#EF9D59"/>
<path d="M193.771 131.076C193.771 131.076 190.242 127.504 194.049 124.824C197.857 122.151 201.898 124.71 203.76 123.044C205.623 121.378 210.392 118.984 210.716 123.133C211.039 127.282 206.06 129.296 206.003 132.425C205.946 135.555 207.086 144.949 202.772 143.314C198.452 141.687 196.672 138.545 194.639 141.439C192.605 144.334 186.613 136.632 190.464 134.845C194.316 133.059 194.797 133.35 193.771 131.076Z" fill="#BFCEDB"/>
<path d="M187.899 163.627C184.751 159.421 180.83 163.526 180.83 163.526C178.29 164.767 178.6 164.203 176.453 159.915C174.305 155.627 165.804 162.651 169.143 164.856C171.822 166.623 170.099 168.34 168.433 171.507C178.017 173.673 187.044 175.498 192.555 178.285C192.042 176.86 191.06 175.409 190.237 174.541C188.285 172.495 191.047 167.833 187.899 163.627Z" fill="#EA8021"/>
<path d="M286.273 99.4178C285.684 101.869 282.941 101.882 278.286 104.84C273.63 107.798 279.109 111.656 281.155 113.81C283.201 115.963 281.58 117.458 282.701 120.968C283.822 124.477 287.566 121.284 287.566 121.284C288.25 120.784 289.396 118.624 290.302 116.971C290.967 115.754 294.426 115.596 296.181 114.57C295.864 113.29 295.376 111.909 294.711 110.484C293.583 110.085 292.234 109.794 291.05 109.306C289.77 108.78 290.524 107.146 291.417 105.188C291.392 105.163 291.373 105.131 291.354 105.106C289.149 102.363 288.307 99.7282 287.483 97.4414C286.901 97.9545 286.457 98.664 286.273 99.4178Z" fill="#DB8646"/>
<path d="M244.53 64.6932C244.093 70.1916 250.478 68.1329 253.423 67.7908C256.369 67.4487 256.597 69.6468 260.074 70.8567C263.552 72.0666 263.248 67.1574 263.248 67.1574C263.254 66.9103 263.159 66.5429 263.02 66.1185C261.436 64.0725 260.062 62.1088 259.08 60.4745C258.263 59.1126 257.066 58.0294 255.653 57.2249C254.988 57.5479 254.43 57.1552 253.879 56.4077C251.333 55.4829 248.349 55.3499 245.543 56.091C246.069 57.8457 244.891 60.1324 244.53 64.6932Z" fill="#EA8021"/>
<path d="M231.968 108.477C227.863 106.736 231.334 104.436 232.335 99.9259C233.285 95.6375 223.169 98.9821 220.211 99.6029C217.468 100.179 215.58 97.0248 212.527 98.0889C209.715 99.0708 211.349 101.877 212.59 102.973C213.921 104.138 212.008 107.686 214.282 110.701C216.898 114.166 220.103 110.46 220.103 110.46C222.333 109.238 222.092 109.751 224.62 113.634C224.867 114.008 225.158 114.293 225.481 114.508C227.939 113.051 230.492 111.29 232.962 109.2C232.747 108.921 232.424 108.674 231.968 108.477Z" fill="#EA8021"/>
<path d="M299.367 148.766C298.797 146.422 299.817 146.143 297.568 143.933C295.047 141.449 291.018 144.186 291.018 144.186C288.402 145.098 288.738 144.724 286.521 141.982C284.044 138.909 273.434 144.395 277.982 145.744C282.061 146.96 279.68 147.524 277.893 150.818C277.703 151.173 277.621 151.471 277.627 151.737C284.38 151.528 288.611 150.679 293.33 150.096C295.497 149.83 297.543 149.798 299.392 149.963C299.475 149.526 299.449 149.114 299.367 148.766Z" fill="#0B467B"/>
<path d="M188.589 58.6434C184.091 61.8043 188.26 66.0294 188.26 66.0294C189.476 68.7216 188.899 68.3795 184.351 70.4889C179.803 72.5983 186.885 81.701 189.286 78.2867C191.687 74.866 193.79 78.5781 198.895 80.5037C203.994 82.4294 202.645 71.3314 202.715 67.6321C202.715 67.6131 202.715 67.6004 202.721 67.5814C201.803 64.0784 200.922 60.3411 200.149 56.4707C200.124 56.496 200.092 56.515 200.067 56.5404C197.863 58.5104 193.08 55.4825 188.589 58.6434Z" fill="#2A83D3"/>
<path d="M153.028 40.6875C155.669 42.6068 157.348 35.6516 159.489 32.7757C161.63 29.8999 162.922 32.2816 165.69 30.8754C168.452 29.4691 166.603 26.2005 166.603 26.2005C165.976 23.1536 163.581 21.342 161.244 20.0117C157.025 25.0603 153.193 31.4835 151.159 36.9818C151.425 38.4387 151.856 39.8323 153.028 40.6875Z" fill="#2A83D3"/>
<path d="M53.475 121.977C55.8251 121.977 57.7318 120.412 57.7318 118.486C57.7318 117.346 57.0604 116.333 56.0215 115.699C53.7538 116.998 51.448 117.986 49.2246 118.733C49.383 120.545 51.2263 121.977 53.475 121.977Z" fill="#105A91"/>
<path d="M23.5066 133.051C26.1987 137.865 30.3605 132.613 32.6219 130.688C34.8896 128.762 36.2895 130.472 39.8559 129.548C43.4222 128.623 40.445 124.708 40.445 124.708C39.9889 123.992 37.8922 122.725 36.2959 121.731C36.1122 121.617 35.9665 121.433 35.8335 121.205C34.1802 120.869 32.6599 120.654 31.317 120.622C30.3541 120.597 29.461 120.61 28.6122 120.654C28.2067 121.344 27.4403 121.268 26.4584 120.869C23.3672 121.332 20.8081 122.44 17.7358 124.41C17.9956 124.562 18.2616 124.689 18.5467 124.771C20.9601 125.5 20.8207 128.236 23.5066 133.051Z" fill="#DB8646"/>
<g opacity="0.35">
<path opacity="0.35" d="M159.127 105.053C159.286 105.281 159.451 105.515 159.615 105.743C159.444 105.509 159.286 105.281 159.127 105.053Z" fill="#EF9D59"/>
<path opacity="0.35" d="M157.912 103.246C158.102 103.544 158.304 103.842 158.501 104.139C158.298 103.842 158.102 103.544 157.912 103.246Z" fill="#EF9D59"/>
<path opacity="0.35" d="M157.062 101.902C157.202 102.13 157.348 102.365 157.5 102.599C157.348 102.365 157.202 102.13 157.062 101.902Z" fill="#EF9D59"/>
<path opacity="0.35" d="M160.128 106.451C160.312 106.698 160.496 106.945 160.686 107.199C160.496 106.952 160.306 106.698 160.128 106.451Z" fill="#EF9D59"/>
<path opacity="0.35" d="M156.043 100.186C156.252 100.553 156.467 100.92 156.695 101.294C156.467 100.927 156.252 100.553 156.043 100.186Z" fill="#EF9D59"/>
<path opacity="0.35" d="M141.524 93.7389C136.343 96.3867 138.87 101.112 142.145 102.094C142.601 102.233 142.987 102.43 143.33 102.677C145.11 99.5983 146.554 96.6908 147.675 94.2393C145.578 93.3272 143.399 92.7824 141.524 93.7389Z" fill="#EA8845"/>
<path opacity="0.35" d="M155.707 99.5918C155.815 99.7882 155.929 99.9845 156.043 100.187C155.929 99.9909 155.815 99.7945 155.707 99.5918Z" fill="#EF9D59"/>
<path opacity="0.35" d="M161.097 107.748C160.958 107.565 160.819 107.381 160.679 107.197C160.819 107.381 160.952 107.565 161.097 107.748Z" fill="#EF9D59"/>
<path opacity="0.35" d="M156.695 101.303C156.816 101.505 156.942 101.702 157.063 101.905C156.936 101.702 156.816 101.499 156.695 101.303Z" fill="#EF9D59"/>
<path opacity="0.35" d="M158.501 104.139C158.704 104.443 158.913 104.747 159.122 105.051C158.913 104.74 158.704 104.436 158.501 104.139Z" fill="#EF9D59"/>
<path opacity="0.35" d="M157.5 102.6C157.633 102.815 157.772 103.03 157.911 103.246C157.772 103.03 157.633 102.815 157.5 102.6Z" fill="#EF9D59"/>
<path opacity="0.35" d="M159.616 105.742C159.787 105.977 159.951 106.217 160.129 106.452C159.951 106.217 159.78 105.977 159.616 105.742Z" fill="#EF9D59"/>
<path opacity="0.35" d="M160.679 107.198C160.489 106.951 160.306 106.698 160.122 106.451C159.944 106.21 159.78 105.976 159.609 105.741C159.444 105.507 159.279 105.279 159.121 105.051C158.912 104.747 158.703 104.443 158.5 104.139C158.297 103.841 158.101 103.543 157.911 103.246C157.772 103.03 157.632 102.815 157.499 102.599C157.354 102.365 157.208 102.131 157.062 101.903C156.936 101.7 156.815 101.497 156.695 101.301C156.473 100.927 156.251 100.56 156.042 100.192C155.928 99.9896 155.821 99.7932 155.707 99.5969C155.637 99.4702 155.561 99.3435 155.491 99.2168C154.49 101.96 152.077 108.142 148.96 113.469C152.045 118.784 156.517 114.578 159.672 111.582C160.28 110.327 160.774 109.061 161.091 107.749C160.952 107.566 160.819 107.382 160.679 107.198Z" fill="#EA8845"/>
</g>
</g>
<defs>
<clipPath id="clip0">
<rect width="335.05" height="194.443" fill="white"/>
</clipPath>
</defs>
</svg>
