<svg width="322" height="281" viewBox="0 0 322 281" fill="none" xmlns="http://www.w3.org/2000/svg">
<path d="M155.922 270.074C122.692 281.602 55.1588 297.298 14.4917 238.372C-28.3276 176.328 34.4103 101.847 65.1181 65.3295C95.826 28.8121 153.092 -31.3587 233.181 19.6827C313.271 70.7241 337.339 121.351 311.196 176.957C285.053 232.563 191.363 257.778 155.922 270.074Z" fill="#1773C6"/>
<path d="M53.2941 79.5645C21.281 118.964 -23.1663 183.315 14.2803 238.061H240.556C261.605 227.742 281.845 214.891 296.36 198.825V79.5645H53.2941Z" fill="#105A91"/>
<path d="M47.084 87.3447C17.539 125.085 -17.1146 180.84 9.5346 230.28H255.335C267.461 223.406 278.886 215.578 288.58 206.655V87.3447H47.084Z" fill="#98C7E5"/>
<path d="M11.0884 202.542L109.018 87.3447H115.487L20.9021 218.736L11.0884 202.542Z" fill="#DCECFF"/>
<path d="M86.9316 203.072L229.933 87.3447H235.097L92.8098 220.278L86.9316 203.072Z" fill="#DCECFF"/>
<path d="M288.666 98.0811L175.318 222.931L183.346 223.379L288.58 118.077L288.666 98.0811Z" fill="#DCECFF"/>
<path d="M37.9075 224.254H6.59766C8.67746 229.015 11.2866 233.729 14.4911 238.372C22.3674 249.785 31.252 258.396 40.6995 264.783V227.046C40.6995 225.504 39.4495 224.254 37.9075 224.254Z" fill="#ADD0EA"/>
<path d="M40.6999 221.692V199.487C40.6999 198.072 39.5528 196.925 38.1378 196.925H0.135254C0.647895 206.113 2.67375 215.269 6.598 224.254H38.1378C39.5528 224.254 40.6999 223.107 40.6999 221.692Z" fill="#ADD0EA"/>
<path d="M40.6995 192.195H0.00195312C0.00286349 193.772 0.0469893 195.349 0.13492 196.925H40.6995V192.195Z" fill="#1773C6"/>
<path d="M8.59622 200.7H0.431152C0.455839 200.943 0.482588 201.185 0.509497 201.428H7.8686V219.752H4.79345C4.88208 219.994 4.96955 220.237 5.06083 220.479H8.59622V200.7Z" fill="white"/>
<path d="M3.79889 203.462C3.79889 202.954 3.38711 202.542 2.87916 202.542H1.97586L1.06055 205.473C1.64529 209.068 2.482 212.651 3.59355 216.214C3.72113 216.002 3.79889 215.757 3.79889 215.492V203.462Z" fill="#CC630D"/>
<path d="M27.744 201.063H12.2729V220.115H27.744V201.063Z" fill="#F2B283"/>
<path d="M22.4223 204.581H14.9824C14.7816 204.581 14.6187 204.418 14.6187 204.217C14.6187 204.016 14.7816 203.854 14.9824 203.854H22.4223C22.6232 203.854 22.7861 204.016 22.7861 204.217C22.7861 204.418 22.6232 204.581 22.4223 204.581Z" fill="#CC630D"/>
<path d="M22.4223 207.829H14.9824C14.7816 207.829 14.6187 207.666 14.6187 207.465C14.6187 207.264 14.7816 207.102 14.9824 207.102H22.4223C22.6232 207.102 22.7861 207.264 22.7861 207.465C22.7861 207.666 22.6232 207.829 22.4223 207.829Z" fill="#CC630D"/>
<path d="M22.4223 209.49H14.9824C14.7816 209.49 14.6187 209.327 14.6187 209.126C14.6187 208.926 14.7816 208.763 14.9824 208.763H22.4223C22.6232 208.763 22.7861 208.926 22.7861 209.126C22.7861 209.327 22.6232 209.49 22.4223 209.49Z" fill="#CC630D"/>
<path d="M22.4223 211.151H14.9824C14.7816 211.151 14.6187 210.989 14.6187 210.788C14.6187 210.587 14.7816 210.424 14.9824 210.424H22.4223C22.6232 210.424 22.7861 210.587 22.7861 210.788C22.7861 210.989 22.6232 211.151 22.4223 211.151Z" fill="#CC630D"/>
<path d="M22.4223 216.224H14.9824C14.7816 216.224 14.6187 216.061 14.6187 215.86C14.6187 215.659 14.7816 215.496 14.9824 215.496H22.4223C22.6232 215.496 22.7861 215.659 22.7861 215.86C22.7861 216.061 22.6232 216.224 22.4223 216.224Z" fill="#CC630D"/>
<path d="M38.0095 224.254C38.0095 224.054 37.8466 223.891 37.6457 223.891H6.43896C6.54355 224.133 6.65087 224.376 6.75821 224.618H37.6457C37.8466 224.618 38.0095 224.455 38.0095 224.254Z" fill="white"/>
<path d="M38.0097 196.925C38.0097 196.724 37.8468 196.562 37.6459 196.562H0.114746C0.127223 196.804 0.142833 197.047 0.157399 197.289H37.6459C37.8468 197.289 38.0097 197.126 38.0097 196.925Z" fill="white"/>
<path d="M0.638184 202.542C0.796185 203.807 0.987736 205.07 1.20729 206.332L1.97481 202.542H0.638184Z" fill="#EF9D59"/>
<path d="M177.496 224.254H44.8589C43.3169 224.254 42.0669 225.504 42.0669 227.046V265.691C81.1632 291.097 129.438 279.261 155.922 270.073C162.369 267.837 170.744 265.172 180.288 261.976V227.046C180.288 225.504 179.038 224.254 177.496 224.254Z" fill="#ADD0EA"/>
<path d="M177.726 224.254H44.629C43.214 224.254 42.0669 223.107 42.0669 221.692V199.487C42.0669 198.072 43.214 196.925 44.629 196.925H177.726C179.141 196.925 180.288 198.072 180.288 199.487V221.692C180.288 223.107 179.141 224.254 177.726 224.254Z" fill="#ADD0EA"/>
<path d="M180.288 192.195H42.0669V196.925H180.288V192.195Z" fill="#1773C6"/>
<path d="M111.177 247.576C91.7035 247.576 75.1591 260.111 69.168 277.552C98.9704 285.292 129.945 278.505 150.747 271.805C143.397 257.423 128.437 247.576 111.177 247.576Z" fill="#3790F4"/>
<path d="M111.177 255.787C95.6475 255.787 82.4039 265.568 77.2651 279.304C100.844 283.429 124.514 279.353 142.724 274.227C136.515 263.22 124.715 255.787 111.177 255.787Z" fill="#1773C6"/>
<path d="M129.98 266.693C125.96 264.881 120.694 265.638 120.694 265.638C122.353 262.397 125.264 260.674 127.7 259.763C114.905 253.187 98.8609 254.638 87.3567 264.667C82.6484 268.772 79.2697 273.83 77.2349 279.3C95.4532 282.492 113.727 280.787 129.497 277.482C130.938 271.446 129.98 266.693 129.98 266.693Z" fill="#EF9D59"/>
<path d="M65.1437 201.063H50.6909V220.115H65.1437V201.063Z" stroke="white" stroke-width="0.727594" stroke-linecap="round"/>
<path d="M63.8046 212.643H52.0288V218.801H63.8046V212.643Z" fill="#3790F4"/>
<path d="M54.5344 206.944C54.8972 206.944 55.1913 206.65 55.1913 206.287C55.1913 205.924 54.8972 205.63 54.5344 205.63C54.1716 205.63 53.8774 205.924 53.8774 206.287C53.8774 206.65 54.1716 206.944 54.5344 206.944Z" fill="#EF9D59"/>
<path d="M51.1343 211.641H64.7003" stroke="white" stroke-width="0.727594" stroke-linecap="round"/>
<path d="M53.6958 202.937L56.225 205.466" stroke="#EF9D59" stroke-width="0.727594" stroke-linecap="round"/>
<path d="M53.6958 208.027L56.225 210.557" stroke="#EF9D59" stroke-width="0.727594" stroke-linecap="round"/>
<path d="M60.9564 204.053H58.1315C57.7415 204.053 57.4253 203.737 57.4253 203.347C57.4253 202.957 57.7415 202.641 58.1315 202.641H60.9564C61.3464 202.641 61.6626 202.957 61.6626 203.347C61.6626 203.737 61.3464 204.053 60.9564 204.053Z" fill="#EF9D59"/>
<path d="M57.9174 216.744C58.482 216.744 58.9397 216.286 58.9397 215.722C58.9397 215.157 58.482 214.699 57.9174 214.699C57.3527 214.699 56.895 215.157 56.895 215.722C56.895 216.286 57.3527 216.744 57.9174 216.744Z" fill="white"/>
<path d="M147.82 201.063H76.7715V220.115H147.82V201.063Z" stroke="white" stroke-width="0.727594" stroke-linecap="round"/>
<path d="M101.649 201.983V219.195" stroke="white" stroke-width="0.727594" stroke-linecap="round" stroke-linejoin="round"/>
<path d="M94.5211 203.773H85.6523V207.814H94.5211V203.773Z" fill="#EF9D59"/>
<path d="M98.1677 206.944C98.8027 206.944 99.3174 206.429 99.3174 205.794C99.3174 205.159 98.8027 204.645 98.1677 204.645C97.5328 204.645 97.0181 205.159 97.0181 205.794C97.0181 206.429 97.5328 206.944 98.1677 206.944Z" fill="#3790F4"/>
<path d="M81.4158 205.499C81.7015 205.499 81.9331 205.267 81.9331 204.981C81.9331 204.695 81.7015 204.464 81.4158 204.464C81.1301 204.464 80.8984 204.695 80.8984 204.981C80.8984 205.267 81.1301 205.499 81.4158 205.499Z" stroke="white" stroke-width="0.363797" stroke-linecap="round" stroke-linejoin="round"/>
<path d="M83.2385 207.322C83.5243 207.322 83.7559 207.09 83.7559 206.804C83.7559 206.519 83.5243 206.287 83.2385 206.287C82.9528 206.287 82.7212 206.519 82.7212 206.804C82.7212 207.09 82.9528 207.322 83.2385 207.322Z" stroke="white" stroke-width="0.363797" stroke-linecap="round" stroke-linejoin="round"/>
<path d="M80.6514 207.543L83.854 204.341" stroke="white" stroke-width="0.363797" stroke-linecap="round" stroke-linejoin="round"/>
<path d="M85.3851 209.489C85.6164 209.489 85.8039 209.301 85.8039 209.07C85.8039 208.839 85.6164 208.651 85.3851 208.651C85.1538 208.651 84.9663 208.839 84.9663 209.07C84.9663 209.301 85.1538 209.489 85.3851 209.489Z" fill="#3790F4"/>
<path d="M88.3665 209.489C88.5978 209.489 88.7853 209.301 88.7853 209.07C88.7853 208.839 88.5978 208.651 88.3665 208.651C88.1353 208.651 87.9478 208.839 87.9478 209.07C87.9478 209.301 88.1353 209.489 88.3665 209.489Z" fill="#3790F4"/>
<path d="M91.348 209.489C91.5793 209.489 91.7668 209.301 91.7668 209.07C91.7668 208.839 91.5793 208.651 91.348 208.651C91.1167 208.651 90.9292 208.839 90.9292 209.07C90.9292 209.301 91.1167 209.489 91.348 209.489Z" fill="#3790F4"/>
<path d="M94.328 209.489C94.5593 209.489 94.7468 209.301 94.7468 209.07C94.7468 208.839 94.5593 208.651 94.328 208.651C94.0967 208.651 93.9092 208.839 93.9092 209.07C93.9092 209.301 94.0967 209.489 94.328 209.489Z" fill="#3790F4"/>
<path d="M85.1354 213.456H81.6126C81.3268 213.456 81.0952 213.224 81.0952 212.938V212.076C81.0952 211.79 81.3268 211.559 81.6126 211.559H85.1354C85.4211 211.559 85.6528 211.79 85.6528 212.076V212.938C85.6528 213.224 85.4211 213.456 85.1354 213.456Z" fill="white"/>
<path d="M91.3674 213.456H87.8445C87.5588 213.456 87.3271 213.224 87.3271 212.938V212.076C87.3271 211.79 87.5588 211.559 87.8445 211.559H91.3674C91.6531 211.559 91.8847 211.79 91.8847 212.076V212.938C91.8847 213.224 91.6531 213.456 91.3674 213.456Z" fill="white"/>
<path d="M85.1354 216.806H81.6126C81.3268 216.806 81.0952 216.574 81.0952 216.289V215.426C81.0952 215.141 81.3268 214.909 81.6126 214.909H85.1354C85.4211 214.909 85.6528 215.141 85.6528 215.426V216.289C85.6528 216.574 85.4211 216.806 85.1354 216.806Z" fill="#3790F4"/>
<path d="M91.3674 216.806H87.8445C87.5588 216.806 87.3271 216.574 87.3271 216.289V215.426C87.3271 215.141 87.5588 214.909 87.8445 214.909H91.3674C91.6531 214.909 91.8847 215.141 91.8847 215.426V216.289C91.8847 216.574 91.6531 216.806 91.3674 216.806Z" fill="white"/>
<path d="M97.4284 216.806H93.9055C93.6198 216.806 93.3882 216.574 93.3882 216.289V215.426C93.3882 215.141 93.6198 214.909 93.9055 214.909H97.4284C97.7141 214.909 97.9458 215.141 97.9458 215.426V216.289C97.9458 216.574 97.7141 216.806 97.4284 216.806Z" fill="white"/>
<path d="M112.233 207.37C113.348 207.37 114.253 206.466 114.253 205.35C114.253 204.235 113.348 203.33 112.233 203.33C111.117 203.33 110.212 204.235 110.212 205.35C110.212 206.466 111.117 207.37 112.233 207.37Z" fill="white"/>
<path d="M141.981 216.896H137.08L141.562 202.542H142.466C142.974 202.542 143.385 202.954 143.385 203.462V215.492C143.385 216.268 142.757 216.896 141.981 216.896Z" fill="#CC630D"/>
<path d="M126.503 218.638H139.248" stroke="#CC630D" stroke-width="0.363797" stroke-linecap="round"/>
<path d="M167.332 201.063H151.861V220.115H167.332V201.063Z" fill="#F2B283"/>
<path d="M154.571 204.217H162.011" stroke="#CC630D" stroke-width="0.727594" stroke-linecap="round"/>
<path d="M154.571 207.466H162.011" stroke="#CC630D" stroke-width="0.727594" stroke-linecap="round"/>
<path d="M154.571 209.126H162.011" stroke="#CC630D" stroke-width="0.727594" stroke-linecap="round"/>
<path d="M154.571 210.787H162.011" stroke="#CC630D" stroke-width="0.727594" stroke-linecap="round"/>
<path d="M154.571 215.86H162.011" stroke="#CC630D" stroke-width="0.727594" stroke-linecap="round"/>
<path d="M128.98 267.382C128.98 270.648 131.628 273.295 134.893 273.295C137.136 273.295 139.086 272.046 140.089 270.206C137.789 267.158 135.015 264.49 131.882 262.301C130.147 263.331 128.98 265.218 128.98 267.382Z" fill="#DCECFF"/>
<path d="M125.729 266.791C127.198 266.791 128.389 265.6 128.389 264.13C128.389 262.661 127.198 261.47 125.729 261.47C124.259 261.47 123.068 262.661 123.068 264.13C123.068 265.6 124.259 266.791 125.729 266.791Z" fill="#DCECFF"/>
<path d="M132.954 268.072C121.942 268.072 112.5 273.224 108.497 280.555C113.267 280.178 117.93 279.575 122.433 278.818C122.598 278.743 122.759 278.662 122.927 278.591C125.59 277.466 128.392 277.005 131.137 277.131C135.186 276.245 139.059 275.259 142.713 274.23C141.576 272.217 140.258 270.32 138.77 268.569C136.898 268.248 134.953 268.072 132.954 268.072Z" fill="#DCECFF"/>
<path d="M110.233 266.058C114.448 263.603 112.61 257.154 107.739 257.416C102.163 257.716 96.5764 259.268 91.3996 262.18C89.7492 263.109 88.1977 264.148 86.745 265.281C82.5662 269.106 79.2902 273.9 77.2671 279.305C84.175 280.513 91.0907 281.019 97.8748 280.999C98.9537 277.943 100.588 275.005 102.804 272.35C104.968 269.756 107.494 267.653 110.233 266.058Z" fill="#DCECFF"/>
<path d="M131.937 268.072C132.753 268.072 133.415 267.411 133.415 266.594C133.415 265.778 132.753 265.116 131.937 265.116C131.12 265.116 130.458 265.778 130.458 266.594C130.458 267.411 131.12 268.072 131.937 268.072Z" fill="#3790F4"/>
<path d="M107.268 263.539C108.411 263.539 109.338 262.613 109.338 261.47C109.338 260.327 108.411 259.4 107.268 259.4C106.125 259.4 105.199 260.327 105.199 261.47C105.199 262.613 106.125 263.539 107.268 263.539Z" fill="#3790F4"/>
<path d="M107.712 263.11C108.128 263.11 108.465 262.773 108.465 262.357C108.465 261.942 108.128 261.604 107.712 261.604C107.296 261.604 106.959 261.942 106.959 262.357C106.959 262.773 107.296 263.11 107.712 263.11Z" fill="#DCECFF"/>
<path d="M83.6421 276.459L80.4406 274.654C79.3525 274.04 77.9793 274.48 77.4325 275.603C76.8852 276.728 76.3952 277.885 75.96 279.068C78.6638 279.576 81.3701 279.975 84.0707 280.274C84.2202 279.929 84.3738 279.586 84.536 279.248C85.023 278.232 84.6235 277.013 83.6421 276.459Z" fill="#105A91"/>
<path d="M45.1216 224.254H177.233" stroke="white" stroke-width="0.727594" stroke-linecap="round" stroke-linejoin="round"/>
<path d="M45.1216 196.925H177.233" stroke="white" stroke-width="0.727594" stroke-linecap="round" stroke-linejoin="round"/>
<path d="M137.08 216.896H125.657C124.125 216.896 122.976 215.492 123.281 213.99L125.259 204.219C125.457 203.243 126.315 202.542 127.31 202.542H141.563L138.969 215.352C138.787 216.25 137.997 216.896 137.08 216.896Z" fill="#EF9D59"/>
<path d="M138.04 213.004H124.835L126.83 203.544H140.035L138.04 213.004Z" fill="white"/>
<path d="M124.835 214.68H137.374" stroke="#CC630D" stroke-width="0.363797" stroke-linecap="round"/>
<path d="M112.232 204.238V206.462" stroke="#3790F4" stroke-width="0.363797" stroke-linecap="round"/>
<path d="M132.481 208.712C132.486 208.917 132.491 209.123 132.497 209.328C132.501 209.486 132.558 209.567 132.7 209.62C132.719 209.627 132.738 209.634 132.757 209.641C132.778 209.649 132.795 209.66 132.792 209.686C132.789 209.713 132.769 209.718 132.748 209.719C132.728 209.721 132.708 209.721 132.688 209.721C132.347 209.721 132.006 209.721 131.665 209.72C131.642 209.72 131.618 209.723 131.596 209.716C131.557 209.705 131.552 209.681 131.581 209.652C131.587 209.646 131.595 209.642 131.603 209.64C131.828 209.585 131.865 209.415 131.855 209.199C131.838 208.831 131.834 208.462 131.824 208.093C131.821 207.959 131.818 207.956 131.691 207.927C131.66 207.919 131.629 207.912 131.598 207.903C131.578 207.897 131.56 207.883 131.559 207.859C131.558 207.835 131.576 207.821 131.595 207.814C131.652 207.795 131.71 207.778 131.766 207.759C131.965 207.692 132.151 207.598 132.328 207.483C132.411 207.428 132.441 207.447 132.45 207.555C132.459 207.66 132.458 207.658 132.544 207.602C132.679 207.513 132.828 207.464 132.989 207.467C133.092 207.468 133.194 207.458 133.298 207.48C133.618 207.549 133.8 207.778 133.829 208.123C133.862 208.519 133.856 208.914 133.873 209.31C133.881 209.496 133.931 209.566 134.102 209.629C134.131 209.64 134.183 209.637 134.176 209.688C134.169 209.736 134.121 209.72 134.089 209.721C133.737 209.722 133.384 209.721 133.032 209.72C133 209.72 132.952 209.734 132.945 209.685C132.938 209.637 132.988 209.637 133.018 209.627C133.175 209.571 133.236 209.481 133.232 209.305C133.223 208.96 133.215 208.615 133.204 208.271C133.201 208.174 133.187 208.078 133.161 207.984C133.101 207.761 132.962 207.667 132.737 207.69C132.577 207.707 132.465 207.858 132.466 208.068C132.468 208.282 132.477 208.497 132.482 208.712C132.482 208.712 132.481 208.712 132.481 208.712Z" fill="#3790F4"/>
<path d="M130.772 208.432C130.591 208.432 130.41 208.434 130.229 208.431C130.166 208.431 130.131 208.451 130.138 208.524C130.156 208.72 130.175 208.916 130.268 209.096C130.366 209.285 130.516 209.377 130.717 209.391C130.925 209.405 131.114 209.358 131.283 209.233C131.311 209.212 131.347 209.177 131.382 209.213C131.42 209.251 131.392 209.294 131.372 209.328C131.247 209.541 131.067 209.678 130.839 209.745C130.599 209.816 130.357 209.807 130.12 209.717C129.867 209.621 129.682 209.436 129.584 209.173C129.417 208.728 129.422 208.291 129.682 207.896C129.867 207.616 130.131 207.478 130.465 207.462C130.957 207.438 131.297 207.801 131.397 208.259C131.429 208.406 131.409 208.432 131.271 208.432C131.104 208.432 130.938 208.432 130.772 208.432ZM130.389 208.283C130.487 208.287 130.583 208.277 130.68 208.266C130.779 208.253 130.817 208.215 130.807 208.107C130.795 207.977 130.762 207.852 130.687 207.741C130.562 207.558 130.366 207.565 130.264 207.758C130.191 207.896 130.169 208.051 130.149 208.206C130.142 208.259 130.166 208.284 130.218 208.283C130.275 208.282 130.332 208.283 130.389 208.283Z" fill="#3790F4"/>
<path d="M136.612 207.467C136.805 207.456 137.003 207.515 137.199 207.594C137.259 207.619 137.294 207.657 137.305 207.725C137.322 207.826 137.344 207.927 137.364 208.028C137.369 208.055 137.376 208.085 137.346 208.099C137.315 208.112 137.297 208.086 137.281 208.065C137.176 207.923 137.052 207.804 136.903 207.717C136.773 207.641 136.637 207.581 136.484 207.612C136.384 207.633 136.317 207.691 136.302 207.798C136.285 207.912 136.299 208.022 136.4 208.1C136.517 208.19 136.65 208.24 136.785 208.285C136.971 208.347 137.146 208.429 137.298 208.565C137.601 208.837 137.629 209.572 137.061 209.738C136.69 209.846 136.326 209.794 135.969 209.636C135.911 209.61 135.884 209.566 135.874 209.505C135.854 209.392 135.833 209.279 135.814 209.166C135.809 209.134 135.796 209.093 135.832 209.076C135.87 209.059 135.886 209.1 135.904 209.126C136.037 209.315 136.186 209.484 136.394 209.583C136.458 209.614 136.525 209.633 136.593 209.642C136.728 209.66 136.841 209.606 136.886 209.508C136.941 209.385 136.916 209.233 136.822 209.129C136.706 209 136.554 208.938 136.402 208.879C136.25 208.82 136.115 208.737 136.004 208.609C135.668 208.222 135.844 207.595 136.321 207.486C136.412 207.465 136.503 207.47 136.612 207.467Z" fill="#3790F4"/>
<path d="M134.416 208.479C134.409 208.243 134.403 208.007 134.397 207.772C134.396 207.714 134.386 207.67 134.317 207.67C134.285 207.671 134.239 207.682 134.235 207.629C134.231 207.58 134.257 207.533 134.303 207.529C134.387 207.519 134.392 207.467 134.388 207.397C134.382 207.261 134.384 207.125 134.375 206.989C134.37 206.903 134.392 206.858 134.478 206.839C134.615 206.808 134.743 206.749 134.865 206.679C134.979 206.614 134.991 206.622 134.995 206.764C135.001 206.978 135.009 207.193 135.011 207.407C135.011 207.495 135.041 207.526 135.123 207.522C135.232 207.516 135.341 207.519 135.45 207.521C135.488 207.521 135.54 207.512 135.544 207.572C135.549 207.633 135.509 207.667 135.454 207.669C135.357 207.673 135.259 207.671 135.162 207.671C135.019 207.671 135.019 207.671 135.023 207.821C135.034 208.253 135.044 208.685 135.057 209.117C135.065 209.377 135.209 209.491 135.448 209.429C135.495 209.416 135.54 209.398 135.586 209.382C135.599 209.378 135.612 209.37 135.625 209.365C135.653 209.354 135.681 209.348 135.703 209.379C135.722 209.406 135.709 209.431 135.696 209.454C135.629 209.574 135.533 209.661 135.413 209.714C135.157 209.828 134.901 209.834 134.662 209.652C134.506 209.532 134.443 209.354 134.434 209.159C134.423 208.932 134.421 208.705 134.415 208.479C134.415 208.479 134.415 208.479 134.416 208.479Z" fill="#3790F4"/>
<path d="M128.02 208.507C128.013 208.697 128.05 208.879 128.138 209.05C128.288 209.342 128.574 209.471 128.87 209.378C129.013 209.333 129.14 209.256 129.257 209.159C129.287 209.135 129.322 209.096 129.362 209.137C129.397 209.173 129.366 209.21 129.348 209.243C129.136 209.632 128.722 209.838 128.293 209.781C128.067 209.75 127.86 209.682 127.687 209.517C127.491 209.33 127.4 209.088 127.372 208.823C127.333 208.461 127.386 208.121 127.622 207.845C127.821 207.612 128.075 207.483 128.377 207.466C128.531 207.457 128.686 207.458 128.837 207.516C128.914 207.546 128.986 207.582 129.051 207.634C129.156 207.716 129.202 207.851 129.166 207.972C129.129 208.1 129.032 208.141 128.917 208.153C128.803 208.164 128.689 208.09 128.641 207.971C128.612 207.902 128.594 207.827 128.565 207.757C128.501 207.6 128.363 207.566 128.24 207.675C128.14 207.763 128.093 207.885 128.061 208.014C128.022 208.175 128.007 208.339 128.02 208.507Z" fill="#3790F4"/>
<path d="M131.35 261.927L81.8582 270.767C79.9689 273.373 78.4228 276.242 77.2769 279.307C82.2627 280.178 87.2524 280.683 92.1939 280.889L137.797 267.463C135.874 265.377 133.712 263.515 131.35 261.927Z" fill="white"/>
<path d="M184.446 224.254C182.904 224.254 181.654 225.504 181.654 227.046V261.517C206.362 253.205 238.499 241.372 265.373 224.254H184.446Z" fill="#ADD0EA"/>
<path d="M298.035 196.925H184.216C182.801 196.925 181.654 198.072 181.654 199.487V221.692C181.654 223.107 182.801 224.254 184.216 224.254H265.373C277.807 216.334 289.112 207.282 298.035 196.925Z" fill="#ADD0EA"/>
<path d="M181.654 192.195V196.925H298.035C299.368 195.378 300.648 193.802 301.87 192.195H181.654Z" fill="#1773C6"/>
<path d="M205.096 220.479H189.915V200.7H205.096V220.479ZM190.643 219.752H204.368V201.428H190.643V219.752Z" fill="white"/>
<path d="M203.392 212.643H191.617V218.801H203.392V212.643Z" fill="#3790F4"/>
<path d="M194.122 206.944C194.485 206.944 194.779 206.65 194.779 206.287C194.779 205.924 194.485 205.63 194.122 205.63C193.759 205.63 193.465 205.924 193.465 206.287C193.465 206.65 193.759 206.944 194.122 206.944Z" fill="#EF9D59"/>
<path d="M204.288 212.005H190.722C190.521 212.005 190.358 211.842 190.358 211.641C190.358 211.44 190.521 211.277 190.722 211.277H204.288C204.489 211.277 204.652 211.44 204.652 211.641C204.652 211.842 204.489 212.005 204.288 212.005Z" fill="white"/>
<path d="M195.813 205.829C195.72 205.829 195.627 205.794 195.556 205.723L193.027 203.193C192.884 203.051 192.884 202.821 193.027 202.679C193.168 202.537 193.399 202.537 193.541 202.679L196.07 205.208C196.212 205.35 196.212 205.581 196.07 205.723C195.999 205.794 195.906 205.829 195.813 205.829Z" fill="#EF9D59"/>
<path d="M195.813 210.921C195.72 210.921 195.627 210.885 195.556 210.814L193.027 208.285C192.884 208.143 192.884 207.913 193.027 207.771C193.168 207.628 193.399 207.628 193.541 207.771L196.07 210.3C196.212 210.442 196.212 210.672 196.07 210.814C195.999 210.885 195.906 210.921 195.813 210.921Z" fill="#EF9D59"/>
<path d="M200.543 204.053H197.718C197.328 204.053 197.012 203.737 197.012 203.347C197.012 202.957 197.328 202.641 197.718 202.641H200.543C200.933 202.641 201.249 202.957 201.249 203.347C201.249 203.737 200.933 204.053 200.543 204.053Z" fill="#EF9D59"/>
<path d="M197.505 216.744C198.069 216.744 198.527 216.286 198.527 215.722C198.527 215.157 198.069 214.699 197.505 214.699C196.94 214.699 196.482 215.157 196.482 215.722C196.482 216.286 196.94 216.744 197.505 216.744Z" fill="white"/>
<path d="M215.995 200.7V220.479H271.081C271.433 220.238 271.785 219.995 272.135 219.752H216.723V201.428H287.044V208.048C287.287 207.831 287.53 207.613 287.771 207.394V200.7H215.995Z" fill="white"/>
<path d="M241.237 219.56C241.036 219.56 240.873 219.397 240.873 219.196V201.984C240.873 201.783 241.036 201.62 241.237 201.62C241.438 201.62 241.601 201.783 241.601 201.984V219.196C241.601 219.397 241.438 219.56 241.237 219.56Z" fill="white"/>
<path d="M234.11 203.773H225.241V207.814H234.11V203.773Z" fill="#EF9D59"/>
<path d="M237.754 206.944C238.389 206.944 238.904 206.429 238.904 205.794C238.904 205.159 238.389 204.645 237.754 204.645C237.119 204.645 236.604 205.159 236.604 205.794C236.604 206.429 237.119 206.944 237.754 206.944Z" fill="#3790F4"/>
<path d="M221.004 205.68C220.618 205.68 220.305 205.367 220.305 204.981C220.305 204.596 220.618 204.282 221.004 204.282C221.389 204.282 221.703 204.596 221.703 204.981C221.703 205.367 221.389 205.68 221.004 205.68ZM221.004 204.646C220.819 204.646 220.668 204.796 220.668 204.981C220.668 205.166 220.819 205.317 221.004 205.317C221.189 205.317 221.339 205.166 221.339 204.981C221.339 204.796 221.189 204.646 221.004 204.646Z" fill="white"/>
<path d="M222.826 207.504C222.441 207.504 222.127 207.19 222.127 206.805C222.127 206.419 222.441 206.105 222.826 206.105C223.212 206.105 223.526 206.419 223.526 206.805C223.526 207.19 223.212 207.504 222.826 207.504ZM222.826 206.469C222.642 206.469 222.491 206.62 222.491 206.805C222.491 206.989 222.642 207.14 222.826 207.14C223.011 207.14 223.162 206.989 223.162 206.805C223.162 206.62 223.011 206.469 222.826 206.469Z" fill="white"/>
<path d="M220.24 207.724C220.193 207.724 220.147 207.707 220.111 207.671C220.04 207.6 220.04 207.485 220.111 207.414L223.314 204.212C223.385 204.14 223.5 204.14 223.571 204.212C223.642 204.283 223.642 204.398 223.571 204.469L220.368 207.671C220.333 207.707 220.286 207.724 220.24 207.724Z" fill="white"/>
<path d="M224.974 209.489C225.205 209.489 225.393 209.301 225.393 209.07C225.393 208.839 225.205 208.651 224.974 208.651C224.743 208.651 224.555 208.839 224.555 209.07C224.555 209.301 224.743 209.489 224.974 209.489Z" fill="#3790F4"/>
<path d="M227.954 209.489C228.185 209.489 228.373 209.301 228.373 209.07C228.373 208.839 228.185 208.651 227.954 208.651C227.723 208.651 227.535 208.839 227.535 209.07C227.535 209.301 227.723 209.489 227.954 209.489Z" fill="#3790F4"/>
<path d="M230.934 209.489C231.166 209.489 231.353 209.301 231.353 209.07C231.353 208.839 231.166 208.651 230.934 208.651C230.703 208.651 230.516 208.839 230.516 209.07C230.516 209.301 230.703 209.489 230.934 209.489Z" fill="#3790F4"/>
<path d="M233.916 209.489C234.147 209.489 234.335 209.301 234.335 209.07C234.335 208.839 234.147 208.651 233.916 208.651C233.685 208.651 233.497 208.839 233.497 209.07C233.497 209.301 233.685 209.489 233.916 209.489Z" fill="#3790F4"/>
<path d="M224.722 213.456H221.199C220.913 213.456 220.682 213.224 220.682 212.938V212.076C220.682 211.79 220.913 211.559 221.199 211.559H224.722C225.008 211.559 225.239 211.79 225.239 212.076V212.938C225.239 213.224 225.008 213.456 224.722 213.456Z" fill="white"/>
<path d="M230.956 213.456H227.433C227.148 213.456 226.916 213.224 226.916 212.938V212.076C226.916 211.79 227.148 211.559 227.433 211.559H230.956C231.242 211.559 231.474 211.79 231.474 212.076V212.938C231.474 213.224 231.242 213.456 230.956 213.456Z" fill="white"/>
<path d="M224.722 216.806H221.199C220.913 216.806 220.682 216.574 220.682 216.289V215.426C220.682 215.141 220.913 214.909 221.199 214.909H224.722C225.008 214.909 225.239 215.141 225.239 215.426V216.289C225.239 216.574 225.008 216.806 224.722 216.806Z" fill="#3790F4"/>
<path d="M230.956 216.806H227.433C227.148 216.806 226.916 216.574 226.916 216.289V215.426C226.916 215.141 227.148 214.909 227.433 214.909H230.956C231.242 214.909 231.474 215.141 231.474 215.426V216.289C231.474 216.574 231.242 216.806 230.956 216.806Z" fill="white"/>
<path d="M237.016 216.806H233.493C233.207 216.806 232.976 216.574 232.976 216.289V215.426C232.976 215.141 233.207 214.909 233.493 214.909H237.016C237.302 214.909 237.533 215.141 237.533 215.426V216.289C237.533 216.574 237.302 216.806 237.016 216.806Z" fill="white"/>
<path d="M251.819 207.37C252.935 207.37 253.84 206.466 253.84 205.35C253.84 204.235 252.935 203.33 251.819 203.33C250.704 203.33 249.799 204.235 249.799 205.35C249.799 206.466 250.704 207.37 251.819 207.37Z" fill="white"/>
<path d="M282.054 202.542H281.151L276.835 216.361C278.934 214.794 280.982 213.188 282.974 211.542V203.462C282.974 202.954 282.562 202.542 282.054 202.542Z" fill="#CC630D"/>
<path d="M291.448 203.934C292.412 202.989 293.357 202.033 294.281 201.064H291.448V203.934Z" fill="#F2B283"/>
<path d="M184.71 223.891C184.509 223.891 184.346 224.054 184.346 224.254C184.346 224.455 184.509 224.618 184.71 224.618H264.798C265.18 224.377 265.561 224.134 265.941 223.891H184.71Z" fill="white"/>
<path d="M266.898 202.542C265.902 202.542 265.045 203.243 264.847 204.219L262.868 213.99C262.564 215.492 263.712 216.896 265.245 216.896H276.115C276.961 216.272 277.798 215.642 278.627 215.005L281.151 202.542L266.898 202.542V202.542Z" fill="#EF9D59"/>
<path d="M277.628 213.004H264.423L266.419 203.544H279.623L277.628 213.004Z" fill="white"/>
<path d="M276.962 214.861H264.423C264.322 214.861 264.241 214.779 264.241 214.679C264.241 214.578 264.322 214.497 264.423 214.497H276.962C277.063 214.497 277.144 214.578 277.144 214.679C277.144 214.779 277.063 214.861 276.962 214.861Z" fill="#CC630D"/>
<path d="M251.819 206.644C251.719 206.644 251.638 206.563 251.638 206.462V204.238C251.638 204.138 251.719 204.057 251.819 204.057C251.92 204.057 252.001 204.138 252.001 204.238V206.462C252.001 206.563 251.92 206.644 251.819 206.644Z" fill="#3790F4"/>
<path d="M272.068 208.712C272.073 208.917 272.078 209.123 272.084 209.328C272.089 209.486 272.146 209.567 272.287 209.62C272.306 209.627 272.326 209.634 272.345 209.641C272.365 209.649 272.382 209.66 272.38 209.686C272.377 209.713 272.356 209.718 272.336 209.719C272.316 209.721 272.296 209.721 272.276 209.721C271.935 209.721 271.593 209.721 271.252 209.72C271.229 209.72 271.205 209.723 271.184 209.716C271.144 209.705 271.139 209.681 271.168 209.652C271.174 209.646 271.183 209.642 271.191 209.64C271.416 209.585 271.453 209.415 271.443 209.199C271.425 208.831 271.421 208.462 271.412 208.093C271.408 207.959 271.405 207.956 271.278 207.927C271.247 207.919 271.216 207.912 271.186 207.903C271.165 207.897 271.148 207.883 271.147 207.859C271.146 207.835 271.163 207.821 271.183 207.814C271.239 207.795 271.297 207.778 271.354 207.759C271.552 207.692 271.739 207.598 271.915 207.483C271.998 207.428 272.029 207.447 272.038 207.555C272.046 207.66 272.045 207.658 272.132 207.602C272.267 207.513 272.415 207.464 272.577 207.467C272.679 207.468 272.782 207.458 272.885 207.48C273.205 207.549 273.387 207.778 273.416 208.123C273.449 208.519 273.443 208.914 273.46 209.31C273.468 209.496 273.519 209.566 273.69 209.629C273.719 209.64 273.771 209.637 273.763 209.688C273.756 209.736 273.708 209.72 273.677 209.721C273.324 209.722 272.972 209.721 272.619 209.72C272.587 209.72 272.54 209.734 272.532 209.685C272.525 209.637 272.575 209.637 272.605 209.627C272.762 209.571 272.823 209.481 272.819 209.305C272.81 208.96 272.802 208.615 272.792 208.271C272.789 208.174 272.774 208.078 272.749 207.984C272.688 207.761 272.55 207.667 272.324 207.69C272.164 207.707 272.052 207.858 272.054 208.068C272.056 208.282 272.064 208.497 272.07 208.712C272.069 208.712 272.069 208.712 272.068 208.712Z" fill="#3790F4"/>
<path d="M270.358 208.432C270.177 208.432 269.997 208.434 269.816 208.431C269.753 208.431 269.717 208.451 269.724 208.524C269.742 208.72 269.761 208.916 269.854 209.096C269.952 209.285 270.103 209.377 270.303 209.391C270.512 209.405 270.7 209.358 270.869 209.233C270.898 209.212 270.933 209.177 270.969 209.213C271.007 209.251 270.978 209.294 270.958 209.328C270.833 209.541 270.654 209.678 270.425 209.745C270.185 209.816 269.944 209.807 269.707 209.717C269.453 209.621 269.268 209.436 269.17 209.173C269.004 208.728 269.009 208.291 269.269 207.896C269.453 207.616 269.717 207.478 270.051 207.462C270.543 207.438 270.883 207.801 270.983 208.259C271.015 208.406 270.996 208.432 270.857 208.432C270.691 208.432 270.524 208.432 270.358 208.432ZM269.976 208.283C270.073 208.287 270.17 208.277 270.266 208.266C270.366 208.253 270.404 208.215 270.394 208.107C270.382 207.977 270.348 207.852 270.273 207.741C270.149 207.558 269.952 207.565 269.851 207.758C269.777 207.896 269.755 208.051 269.735 208.206C269.728 208.259 269.752 208.284 269.804 208.283C269.861 208.282 269.919 208.283 269.976 208.283Z" fill="#3790F4"/>
<path d="M276.199 207.467C276.391 207.456 276.59 207.515 276.786 207.594C276.845 207.619 276.88 207.657 276.892 207.725C276.909 207.826 276.931 207.927 276.95 208.028C276.956 208.055 276.962 208.085 276.932 208.099C276.902 208.112 276.884 208.086 276.868 208.065C276.763 207.923 276.638 207.804 276.489 207.717C276.359 207.641 276.224 207.581 276.07 207.612C275.97 207.633 275.903 207.691 275.888 207.798C275.872 207.912 275.885 208.022 275.986 208.1C276.103 208.19 276.236 208.24 276.372 208.285C276.558 208.347 276.732 208.429 276.885 208.565C277.187 208.837 277.216 209.572 276.648 209.738C276.277 209.846 275.913 209.794 275.555 209.636C275.497 209.61 275.47 209.566 275.46 209.505C275.44 209.392 275.419 209.279 275.401 209.166C275.396 209.134 275.382 209.093 275.418 209.076C275.456 209.059 275.472 209.1 275.49 209.126C275.623 209.315 275.773 209.484 275.98 209.583C276.045 209.614 276.111 209.633 276.18 209.642C276.314 209.66 276.428 209.606 276.472 209.508C276.528 209.385 276.503 209.233 276.409 209.129C276.292 209 276.14 208.938 275.988 208.879C275.836 208.82 275.701 208.737 275.59 208.609C275.254 208.222 275.431 207.595 275.907 207.486C275.998 207.465 276.089 207.47 276.199 207.467Z" fill="#3790F4"/>
<path d="M274.003 208.479C273.997 208.243 273.991 208.007 273.985 207.772C273.984 207.714 273.974 207.67 273.905 207.67C273.873 207.671 273.827 207.682 273.823 207.629C273.818 207.58 273.845 207.533 273.89 207.529C273.974 207.519 273.979 207.467 273.976 207.397C273.97 207.261 273.972 207.125 273.963 206.989C273.957 206.903 273.98 206.858 274.066 206.839C274.203 206.808 274.331 206.749 274.453 206.679C274.567 206.614 274.579 206.622 274.583 206.764C274.589 206.978 274.597 207.193 274.598 207.407C274.599 207.495 274.629 207.526 274.711 207.522C274.82 207.516 274.929 207.519 275.038 207.521C275.076 207.521 275.128 207.512 275.132 207.572C275.137 207.633 275.096 207.667 275.042 207.669C274.945 207.673 274.847 207.671 274.75 207.671C274.607 207.671 274.607 207.671 274.611 207.821C274.622 208.253 274.632 208.685 274.645 209.117C274.652 209.377 274.796 209.491 275.036 209.429C275.083 209.416 275.128 209.398 275.174 209.382C275.187 209.378 275.2 209.37 275.213 209.365C275.241 209.354 275.269 209.348 275.291 209.379C275.31 209.406 275.296 209.431 275.284 209.454C275.217 209.574 275.121 209.661 275 209.714C274.745 209.828 274.488 209.834 274.25 209.652C274.094 209.532 274.031 209.354 274.022 209.159C274.011 208.932 274.009 208.705 274.003 208.479C274.003 208.479 274.003 208.479 274.003 208.479Z" fill="#3790F4"/>
<path d="M267.608 208.507C267.601 208.697 267.638 208.879 267.726 209.05C267.876 209.342 268.162 209.471 268.458 209.378C268.601 209.333 268.728 209.256 268.845 209.159C268.875 209.135 268.909 209.096 268.95 209.137C268.984 209.173 268.954 209.21 268.936 209.243C268.724 209.632 268.309 209.838 267.881 209.781C267.655 209.75 267.448 209.682 267.275 209.517C267.079 209.33 266.988 209.088 266.96 208.823C266.921 208.461 266.974 208.121 267.21 207.845C267.409 207.612 267.663 207.483 267.965 207.466C268.119 207.457 268.273 207.458 268.425 207.516C268.502 207.546 268.574 207.582 268.639 207.634C268.744 207.716 268.789 207.851 268.754 207.972C268.716 208.1 268.619 208.141 268.505 208.153C268.391 208.164 268.277 208.09 268.229 207.971C268.2 207.902 268.181 207.827 268.153 207.757C268.089 207.6 267.951 207.566 267.828 207.675C267.728 207.763 267.681 207.885 267.649 208.014C267.61 208.175 267.595 208.339 267.608 208.507Z" fill="#3790F4"/>
<path d="M184.71 196.562C184.509 196.562 184.346 196.724 184.346 196.925C184.346 197.126 184.509 197.289 184.71 197.289H297.721C297.932 197.047 298.141 196.805 298.349 196.562H184.71V196.562Z" fill="white"/>
<path d="M109.494 258.982C109.494 258.982 109.018 269.264 109.774 280.448C127.687 278.874 144.009 274.206 155.922 270.073C164.636 267.05 176.874 263.245 190.761 258.399C190.402 251.756 188.78 246.118 188.78 246.118L109.494 258.982Z" fill="white"/>
<path d="M112.333 134.307C103.572 120.105 117.589 111.99 120.817 103.138C124.044 94.285 113.07 89.6743 115.376 78.5162C117.681 67.3581 129.208 67.1736 129.208 67.1736C129.208 67.1736 127.272 49.376 147.79 49.376C168.308 49.376 163.881 64.8682 170.705 71.3233C177.529 77.7784 191.362 77.5322 190.255 91.3032C189.148 105.074 179.742 109.132 186.751 118.538C193.759 127.944 194.622 134.583 190.318 138.456C186.013 142.329 112.333 134.307 112.333 134.307Z" fill="#EA8021"/>
<path d="M147.789 120.105L108.84 132.381C103.492 134.067 99.1826 138.064 97.1002 143.27L74.6621 199.365C74.6621 199.365 81.3016 198.95 92.3675 204.206C103.433 209.463 111.226 211.307 111.226 211.307C111.226 211.307 114.862 232.148 109.494 258.982C109.494 258.982 138.53 255.126 153.922 260.366C169.314 265.606 191.546 249.669 191.546 249.669C191.546 249.669 191.546 239.617 187.673 228.136C184.654 219.189 184.353 184.011 184.353 184.011L215.891 166.582L200.587 136.995C197.858 131.72 192.823 128.02 186.974 126.992L147.789 120.105Z" fill="#3790F4"/>
<path d="M201.229 156.623C201.229 156.623 213.263 142.929 222.669 145.004C232.075 147.079 238.3 153.303 239.406 170.594C240.513 187.884 241.343 197.383 234.565 194.708C227.787 192.034 217.759 184.267 215.891 186.778L201.229 156.623Z" fill="#1773C6"/>
<path d="M217.136 176.438C217.136 176.438 223.222 177.682 225.712 185.705C228.202 193.728 224.329 214.062 233.458 224.851" stroke="#3790F4" stroke-width="3.11229" stroke-linecap="round" stroke-linejoin="round"/>
<path d="M217.136 179.343C217.136 179.343 223.499 185.844 220.594 202.996C217.69 220.148 220.318 227.203 224.606 230.661" stroke="#3790F4" stroke-width="3.11229" stroke-linecap="round" stroke-linejoin="round"/>
<path d="M115.744 155.932C115.744 155.932 110.021 169.764 109.494 179.862C108.966 189.959 113.116 193.971 116.851 196.184" stroke="#1773C6" stroke-width="3.11229" stroke-linecap="round" stroke-linejoin="round"/>
<path d="M174.671 248.331C184.768 235.329 212.414 199.503 216.721 193.417C221.028 187.331 216.306 172.115 213.54 165.476C210.026 157.044 203.442 149.983 195.143 150.398C186.843 150.813 150.879 171.977 139.536 176.057C128.194 180.138 98.4116 184.8 89.3727 202.872C80.3339 220.943 90.0165 246.672 102.604 262.025C110.276 271.384 119.386 276.265 127.9 277.809C137.757 275.834 146.688 273.204 154.088 270.701C161.199 265.108 167.965 256.965 174.671 248.331Z" fill="#1773C6"/>
<path d="M154.025 178.323C154.025 178.323 151.64 176.449 150.095 174.236C148.55 172.023 146.637 167.274 145.577 168.703C144.516 170.132 145.577 175.573 145.577 175.573L154.025 178.323Z" fill="#EFC6BD"/>
<path d="M132.711 82.6658L134.976 98.5958C135.182 100.047 135.859 101.39 136.902 102.418L142.269 107.71C145.599 110.993 151.033 110.695 153.983 107.066L158.917 100.996C159.69 100.045 160.188 98.8988 160.354 97.6839L162.866 79.346C162.866 79.346 161.575 75.7496 151.247 76.2107C140.919 76.6717 137.875 75.1041 135.939 72.6143C135.939 72.6143 138.06 80.6371 132.711 82.6658Z" fill="#EFC6BD"/>
<path d="M134.883 95.9101C136.219 95.506 136.335 91.9749 135.141 88.0232C133.946 84.0714 131.894 81.1954 130.557 81.5995C129.22 82.0035 129.105 85.5346 130.299 89.4864C131.494 93.4381 133.546 96.3141 134.883 95.9101Z" fill="#EFC6BD"/>
<path d="M165.279 89.4846C166.474 85.5329 166.358 82.0018 165.021 81.5977C163.684 81.1937 161.632 84.0697 160.438 88.0214C159.244 91.9732 159.359 95.5043 160.696 95.9084C162.033 96.3124 164.085 93.4364 165.279 89.4846Z" fill="#EFC6BD"/>
<path d="M138.222 100.878C138.222 100.878 138.568 113.604 137.461 123.356C136.355 133.108 145.069 134.422 148.665 134.422C152.262 134.422 159.662 130.895 158.763 122.042C157.864 113.189 156.826 103.437 156.757 99.1494L138.222 100.878Z" fill="#EFC6BD"/>
<path d="M141.057 258.776C141.057 258.776 142.271 258.01 144.689 258.365C147.107 258.72 146.245 256.286 139.19 254.557C132.136 252.828 118.234 255.041 115.675 254.142C113.116 253.243 113.6 252.067 114.983 251.029C116.367 249.992 118.718 246.603 118.096 243.491C117.473 240.378 114.269 244.643 111.871 245.981C109.473 247.318 104.909 249.9 103.111 251.006C101.312 252.113 100.529 252.943 100.529 252.943C100.529 252.943 89.0938 236.759 87.2495 227.169C85.4052 217.578 86.6996 207.624 89.3722 202.872C84.0127 200.645 79.9315 199.822 77.4423 199.523L71.9269 214.404C70.3624 218.626 70.7999 223.329 73.1161 227.189L94.0581 262.093C94.6054 263.005 95.4464 263.701 96.445 264.068C100.947 265.721 114.116 270.543 119.845 272.521C121.185 272.984 122.64 272.983 123.979 272.517C128.024 271.11 137.076 268.112 140.781 268.112C145.622 268.112 142.164 265.968 142.164 265.968C142.164 265.968 143.616 265.484 145.899 265.553C148.181 265.623 145.622 263.064 145.622 263.064C145.622 263.064 147.074 263.133 148.527 263.202C149.979 263.271 146.106 259.398 141.057 258.776Z" fill="#EFC6BD"/>
<path d="M217.104 192.81C217.104 192.81 224.928 224.771 213.309 232.702C201.689 240.632 176.607 211.492 170.889 205.59C165.172 199.688 153 190.765 153 190.765C153 190.765 147.835 192.631 144.608 190.765C141.38 188.899 131.974 186.04 129.853 184.657C127.732 183.274 126.188 180 126.188 180C126.188 180 122.036 181.332 120.376 181.793C120.376 181.793 121.923 178.202 122.753 177.372C123.583 176.542 127.64 175.159 132.251 173.776C136.862 172.392 138.983 171.47 141.565 172.577C144.147 173.683 159.086 180.692 159.086 180.692C159.086 180.692 175.633 189.887 181.028 193.483C186.422 197.079 198.239 199.991 206.262 207.322L217.104 192.81Z" fill="#EFC6BD"/>
<path d="M180.295 150.381L183.43 162.617" stroke="#1773C6" stroke-width="3.11229" stroke-linecap="round" stroke-linejoin="round"/>
<path d="M153.984 107.066C152.409 109.004 150.125 109.993 147.831 109.993C145.83 109.993 143.822 109.24 142.27 107.711L138.267 103.763C138.274 104.742 138.277 105.929 138.268 107.261L140.522 109.483C142.483 111.417 145.079 112.482 147.831 112.482C150.983 112.482 153.93 111.081 155.916 108.637L157.275 106.965C157.162 105.684 157.062 104.479 156.981 103.38L153.984 107.066Z" fill="#DBA59C"/>
<path d="M148.666 140.024C151.756 140.024 156.658 138.593 160.302 134.561C162.318 132.329 164.573 128.574 164.434 123.03L162.555 122.7C162.79 127.845 160.742 131.288 158.916 133.309C155.683 136.887 151.374 138.157 148.666 138.157C146.308 138.157 140.418 137.701 136.652 133.483C135.169 131.823 133.538 128.974 133.643 124.564L131.771 125.154C131.816 129.808 133.617 132.889 135.259 134.727C139.528 139.508 146.057 140.024 148.666 140.024Z" fill="#1773C6"/>
<path d="M212.919 213.819C213.195 214.122 213.574 214.276 213.954 214.276C214.291 214.276 214.629 214.155 214.898 213.91C215.469 213.389 215.51 212.503 214.989 211.931C212.758 209.485 209.417 206.416 207.937 205.079L206.261 207.322C205.978 207.063 205.688 206.811 205.396 206.563C205.972 207.076 210.317 210.965 212.919 213.819Z" fill="#DBA59C"/>
<path d="M38.0996 192.126V262.956C39.6815 264.108 41.2804 265.196 42.8948 266.22V192.126H38.0996Z" fill="#105A91"/>
</svg>
