<svg width="40" height="40" viewBox="0 0 40 40" fill="none" xmlns="http://www.w3.org/2000/svg">
    <path d="M20 1C30.4934 1 39 9.50659 39 20C39 30.4934 30.4934 39 20 39C9.50659 39 1 30.4934 1 20C1 9.50659 9.50659 1 20 1Z"
          fill="white" stroke="#0567D5" stroke-width="2"/>
    <path fill-rule="evenodd" clip-rule="evenodd"
          d="M27.9999 13.1524V24.1551C27.9999 24.7916 27.4781 25.3075 26.8344 25.3075H26.2102C25.7216 25.3075 25.2537 25.5017 24.9117 25.8468L22.7761 28L20.6406 25.8468C20.2986 25.5019 19.8305 25.3075 19.3421 25.3075H13.1655C12.5218 25.3075 11.9999 24.7916 11.9999 24.1551V13.1524C11.9999 12.5159 12.5218 12 13.1655 12H26.8344C27.4781 12 27.9999 12.5159 27.9999 13.1524Z"
          stroke="#0567D5" stroke-width="2" stroke-linecap="round" stroke-linejoin="round"/>
</svg>
