<svg width="342" height="246" viewBox="0 0 342 246" fill="none" xmlns="http://www.w3.org/2000/svg">
<path d="M3.39058 161.114C3.39058 161.114 -6.7364 128.132 8.0183 104.421C22.773 80.7096 44.6172 82.2967 63.3232 82.2967C82.0292 82.2967 98.888 72.7746 137.11 44.4847C175.331 16.1948 246.763 -26.0399 282.64 21.3852C318.517 68.8103 350.072 102.866 322.342 161.111H3.39058V161.114Z" fill="#7DB8FB"/>
<path d="M255.348 35.5578C256.987 35.6326 258.6 35.6716 260.184 35.6716C271.586 35.6716 281.492 33.7171 289.167 29.9545C289.033 29.7821 288.9 29.6065 288.767 29.4341C268.278 39.4668 237.078 34.5789 214.248 26.4455C202.71 22.3316 191.142 18.9462 181.76 16.4355C181.471 16.5819 181.181 16.7315 180.895 16.8778C190.385 19.4047 202.219 22.8487 214.03 27.0568C227.943 32.013 242.229 34.9529 255.348 35.5578Z" fill="white"/>
<path d="M255.335 38.3806C268.672 38.3806 281.254 36.4098 290.549 31.7593C290.415 31.5837 290.282 31.4081 290.145 31.2325C270.252 41.1156 235.205 38.6798 210.174 30.9593C195.968 26.5788 182.469 23.4568 172.436 21.4177C172.147 21.5803 171.857 21.7429 171.571 21.9055C181.656 23.9381 195.448 27.0991 209.982 31.5805C223.491 35.7496 239.917 38.3806 255.335 38.3806Z" fill="white"/>
<path d="M157.096 37.2522H147.216C143.649 39.7173 140.267 42.1498 137.112 44.4848C98.8905 72.7747 82.035 82.2968 63.3257 82.2968C44.6165 82.2968 22.7788 80.7098 8.02082 104.421C6.27445 107.224 4.88256 110.157 3.77686 113.153H157.096V37.2522Z" fill="#C7E1F9"/>
<path d="M99.4302 106.606C99.4302 106.606 100.123 104.463 100.123 102.73C100.123 100.996 100.403 98.9343 101.261 97.8221C102.12 96.7099 103.242 95.5554 103.242 95.5554" stroke="#FF00FF" stroke-miterlimit="10"/>
<path d="M0.407785 128.063C-0.691418 138.668 0.648439 148.584 1.86472 154.734H325.177C329.102 145.26 331.418 136.431 332.384 128.063H0.407785Z" fill="#DCECFF"/>
<path d="M31.7936 137.979H18.73L21.104 140.945H34.1676L31.7936 137.979Z" fill="#EA8021"/>
<path d="M57.0397 137.979H43.9761L46.3501 140.945H59.4137L57.0397 137.979Z" fill="#EA8021"/>
<path d="M6.54792 137.979H0.0209961C0.0405086 138.987 0.0795336 139.979 0.131567 140.948H8.92194L6.54792 137.979Z" fill="#EA8021"/>
<path d="M82.2853 137.979H69.2217L71.5957 140.945H84.6593L82.2853 137.979Z" fill="#EA8021"/>
<path d="M107.531 137.979H94.4678L96.8418 140.945H109.905L107.531 137.979Z" fill="#EA8021"/>
<path d="M0.889189 124.388C0.694064 125.621 0.534712 126.847 0.411133 128.063H332.387C332.53 126.827 332.641 125.601 332.725 124.388H0.889189Z" fill="#6BACED"/>
<path d="M332.699 113.126H3.78351C2.41113 116.83 1.48104 120.629 0.88916 124.385H332.728C332.992 120.544 332.976 116.798 332.699 113.126Z" fill="#7DB8FB"/>
<path d="M75.5115 119.214H64.0739L62.604 116.668H74.0416L75.5115 119.214Z" stroke="#6BACED" stroke-width="2" stroke-miterlimit="10"/>
<path d="M60.6105 116.148H49.1729L47.6997 113.601H59.1373L60.6105 116.148Z" stroke="#6BACED" stroke-width="2" stroke-miterlimit="10"/>
<path d="M53.42 121.969H41.9825L40.5093 119.419H51.9468L53.42 121.969Z" stroke="#6BACED" stroke-width="2" stroke-miterlimit="10"/>
<path d="M18.0861 118.229H6.64849L5.17529 115.682H16.6129L18.0861 118.229Z" stroke="#6BACED" stroke-width="2" stroke-miterlimit="10"/>
<path d="M35.839 120.694H24.4014L22.9282 118.147H34.3658L35.839 120.694Z" stroke="#6BACED" stroke-width="2" stroke-miterlimit="10"/>
<path d="M88.422 122.909H76.9844L75.5112 120.362H86.9488L88.422 122.909Z" stroke="#6BACED" stroke-width="2" stroke-miterlimit="10"/>
<path d="M93.4889 117.653H82.0513L80.5781 115.107H92.0157L93.4889 117.653Z" stroke="#6BACED" stroke-width="2" stroke-miterlimit="10"/>
<path d="M114.019 121.969H102.582L101.108 119.419H112.546L114.019 121.969Z" stroke="#6BACED" stroke-width="2" stroke-miterlimit="10"/>
<path d="M56.5032 82.2739C39.5013 82.2772 21.0132 83.5422 8.02116 104.421C7.28294 105.604 6.61301 106.814 5.99512 108.037H56.5032V82.2739Z" fill="#7DB8FB"/>
<path d="M17.4553 108.037L56.9941 82.495L55.4103 80.8884L10.5283 108.037H17.4553Z" fill="#DCECFF"/>
<path d="M34.168 108.037L56.5033 91.1326V92.235L37.0038 108.037H34.168Z" fill="#DCECFF"/>
<path d="M84.6593 113.126V77.8542C77.0396 80.96 70.3534 82.2836 63.4199 82.2966V113.13H84.6593V113.126Z" fill="#7DB8FB"/>
<path d="M63.4199 93.9749L84.6593 80.5861L84.7471 79.1682L63.4199 92.2026V93.9749Z" fill="#DCECFF"/>
<path d="M157.096 113.149H300.227V44.5141C298.435 42.1173 296.604 39.6978 294.744 37.2522H157.096V113.149Z" fill="#DCECFF"/>
<path d="M300.227 113.149H332.699C330.849 88.6056 317.405 67.5159 300.227 44.5139V113.149Z" fill="#A4D0F4"/>
<path d="M275.441 95.6098V44.4968L186.578 44.4968V95.6098L275.441 95.6098Z" fill="#3790F4"/>
<path d="M273.956 45.9807H188.062V94.1278H273.956V45.9807Z" fill="#7DB8FB"/>
<path d="M273.957 53.4865L226.281 94.1277L218.278 94.3098L273.957 49.3108V53.4865Z" fill="#DCECFF"/>
<path d="M243.699 45.9807L188.062 87.5618V84.1667L241.325 45.9807H243.699Z" fill="#DCECFF"/>
<path d="M48.3433 81.2202V22.2242C48.3433 18.6762 51.2181 15.7981 54.7694 15.7981H91.209C94.757 15.7981 97.6351 18.6729 97.6351 22.2242V81.2202C97.6351 84.7683 94.7602 87.6463 91.209 87.6463H54.7661C51.2181 87.6431 48.3433 84.7683 48.3433 81.2202Z" fill="#3790F4"/>
<path d="M73.8823 82.8007C76.9967 82.8007 79.5214 80.276 79.5214 77.1616C79.5214 74.0472 76.9967 71.5225 73.8823 71.5225C70.7679 71.5225 68.2432 74.0472 68.2432 77.1616C68.2432 80.276 70.7679 82.8007 73.8823 82.8007Z" fill="white"/>
<path d="M154.316 52.7418C151.012 52.3743 147.679 52.4036 144.381 52.8231C138.634 53.558 129.181 54.8686 122.273 56.3191C119.411 56.9207 117.164 59.1256 116.498 61.9712C114.332 71.2266 110.176 94.2318 112.403 127.54H153.389L154.316 52.7418Z" fill="#1773C6"/>
<path d="M298.848 117.292H332.4L335.434 133.361L332.4 141.406H298.848V117.292Z" fill="#0D415B"/>
<path d="M311.84 156.317C304.796 156.317 299.085 149.465 299.085 141.013C299.085 132.561 304.796 125.709 311.84 125.709H319.073V156.321H311.84V156.317Z" fill="#104768"/>
<path d="M319.073 156.317C326.117 156.317 331.827 149.465 331.827 141.013C331.827 132.561 326.117 125.709 319.073 125.709C312.028 125.709 306.318 132.561 306.318 141.013C306.318 149.465 312.028 156.317 319.073 156.317Z" fill="#105A91"/>
<path d="M319.073 149.693C323.067 149.693 326.306 145.807 326.306 141.013C326.306 136.219 323.067 132.333 319.073 132.333C315.078 132.333 311.84 136.219 311.84 141.013C311.84 145.807 315.078 149.693 319.073 149.693Z" fill="#EA8021"/>
<path d="M319.073 148.665C322.595 148.665 325.45 145.239 325.45 141.013C325.45 136.787 322.595 133.361 319.073 133.361C315.551 133.361 312.695 136.787 312.695 141.013C312.695 145.239 315.551 148.665 319.073 148.665Z" fill="#EF9D59"/>
<path d="M269.872 156.317C263.13 156.317 257.667 149.761 257.667 141.67C257.667 133.582 263.13 127.023 269.872 127.023H276.792V156.314H269.872V156.317Z" fill="#104768"/>
<path d="M276.792 156.321C283.533 156.321 288.998 149.763 288.998 141.673C288.998 133.584 283.533 127.026 276.792 127.026C270.052 127.026 264.587 133.584 264.587 141.673C264.587 149.763 270.052 156.321 276.792 156.321Z" fill="#105A91"/>
<path d="M276.792 149.979C280.615 149.979 283.713 146.261 283.713 141.673C283.713 137.086 280.615 133.368 276.792 133.368C272.97 133.368 269.872 137.086 269.872 141.673C269.872 146.261 272.97 149.979 276.792 149.979Z" fill="#EA8021"/>
<path d="M276.792 148.997C280.162 148.997 282.893 145.718 282.893 141.673C282.893 137.629 280.162 134.35 276.792 134.35C273.423 134.35 270.691 137.629 270.691 141.673C270.691 145.718 273.423 148.997 276.792 148.997Z" fill="#EF9D59"/>
<path d="M149.705 107.604L149.467 102.821" stroke="#FF00FF" stroke-miterlimit="10"/>
<path d="M332.4 141.406L339.083 138.681C341.054 137.878 342.234 135.845 341.961 133.735L339.275 113.204C338.719 108.941 336.104 105.224 332.279 103.256L321.684 97.8091C320.66 97.2822 319.752 96.5472 319.024 95.6562L298.23 70.2281C293.515 64.4622 286.617 60.9109 279.183 60.4231L155.987 52.7417V144.444L302.887 142.158C302.887 142.158 306.933 120.431 321.843 120.827C336.754 121.224 332.4 141.406 332.4 141.406Z" fill="#1773C6"/>
<path d="M320.058 96.7131L323.45 102.047C323.821 102.629 324.361 103.077 324.998 103.338C327.242 104.245 332.692 106.499 334.377 107.63C336.517 109.065 336.159 110.895 336.159 110.895" stroke="#3790F4" stroke-width="2" stroke-miterlimit="10" stroke-linecap="round"/>
<path d="M317.125 100.59C313.762 95.1521 300.188 73.4998 295.521 70.6217C295.521 70.6217 293.84 69.6981 291.499 69.1387C289.157 68.5794 276.5 65.7631 276.682 68.6054C276.861 71.3957 278.933 84.3455 279.798 89.2691C280.015 90.5179 280.858 91.5651 282.029 92.0464L295.03 97.3993C297.6 98.4562 300.276 99.2302 303.011 99.705C307.193 100.43 313.431 101.468 316.397 101.76C317.031 101.819 317.46 101.129 317.125 100.59Z" fill="#105A91"/>
<path d="M273.42 64.2183L275.992 107.204C276.064 108.424 276.243 109.634 276.519 110.821L277.228 113.858C277.326 114.278 277.378 114.707 277.387 115.136L277.774 139.754H301.459C301.459 139.754 303.03 128.473 312.208 120.096C312.208 120.096 312.916 104.619 312.699 101.272C312.699 101.272 314.077 96.6253 313.564 94.9114C313.05 93.2008 313.037 90.4723 313.037 90.4723L297.466 70.5273C295.976 68.6183 293.817 67.3533 291.423 66.9858L273.42 64.2183Z" stroke="#3790F4" stroke-width="2" stroke-miterlimit="10" stroke-linecap="round"/>
<path d="M286.286 104.99H279.381C278.64 104.99 278.042 104.388 278.042 103.65C278.042 102.908 278.643 102.31 279.381 102.31H286.286C287.027 102.31 287.625 102.912 287.625 103.65C287.625 104.391 287.027 104.99 286.286 104.99Z" fill="#105A91"/>
<path d="M296.025 108.72L161.09 107.146" stroke="#3790F4" stroke-width="2" stroke-miterlimit="10" stroke-linecap="round"/>
<path d="M114.865 103.65C114.865 103.65 116.985 70.225 117.688 64.3517C117.688 64.3517 116.923 60.2801 120.029 59.5126C123.135 58.7451 138.703 55.3239 144.377 58.4199L146.423 105.25L114.865 103.65Z" fill="#3790F4"/>
<path d="M118.846 102.95C118.846 102.95 121.09 70.1565 123.265 61.8441C123.265 61.8441 134.085 59.8636 142.924 60.3254L142.118 106.606L118.846 102.95Z" fill="#7DB8FB"/>
<path d="M163.09 61.1484L264.831 67.0672C267.534 67.2233 269.592 69.5453 269.43 72.2478L268.181 92.892C268.012 95.7083 265.67 97.9035 262.848 97.8937L157.77 97.5165L163.09 61.1484Z" stroke="#3790F4" stroke-width="2" stroke-miterlimit="10" stroke-linecap="round"/>
<path d="M298.143 97.897C297.164 97.5848 296.195 97.2336 295.258 96.8466L282.256 91.4936C281.268 91.0871 280.568 90.2156 280.383 89.1619C279.547 84.3943 277.453 71.3405 277.277 68.5632C277.274 68.4917 277.287 68.4526 277.333 68.4039C277.433 68.2965 277.908 67.9453 279.785 67.9453C283.099 67.9453 288.621 69.0543 291.362 69.7112C292.826 70.0624 294.029 70.5632 294.673 70.8592L298.143 97.897Z" fill="#7DB8FB"/>
<path d="M306.608 99.7116C305.369 99.5035 304.175 99.3018 303.112 99.1165C301.869 98.9018 300.617 98.6189 299.385 98.2709L295.97 71.7014C297.466 72.9957 300.227 76.1535 305.323 83.526L306.608 99.7116Z" fill="#7DB8FB"/>
<path d="M143.942 58.5077C143.932 57.3597 144.615 56.3223 145.672 55.8768C148.586 54.654 154.784 52.2247 161.529 50.6507C161.529 50.6507 163.146 50.2117 163.409 50.6507C163.672 51.0897 162.287 53.828 162.287 53.828L164.362 111.422H144.462L143.942 58.5077Z" fill="#1773C6"/>
<path d="M143.942 58.5077C143.932 57.3597 144.615 56.3223 145.672 55.8768C148.586 54.654 154.784 52.2247 161.529 50.6507C161.529 50.6507 163.146 50.2117 163.409 50.6507C163.672 51.0897 162.287 53.828 162.287 53.828L164.362 111.422H144.462L143.942 58.5077Z" stroke="#3790F4" stroke-width="2" stroke-miterlimit="10" stroke-linecap="round"/>
<path d="M163.09 50.4783L164.365 51.0897C164.365 51.0897 164.762 53.1352 163.972 54.0588L166.511 111.422H164.365L161.874 52.4816L163.09 50.4783Z" fill="#105A91"/>
<path d="M163.09 50.4783L164.365 51.0897C164.365 51.0897 164.762 53.1352 163.972 54.0588L166.511 111.422H164.365L161.874 52.4816L163.09 50.4783Z" stroke="#3790F4" stroke-width="2" stroke-miterlimit="10" stroke-linecap="round"/>
<path d="M127.691 61.1712L142.885 62.7615L142.927 60.3289C137.642 60.0525 131.655 60.6476 127.691 61.1712Z" fill="#1773C6"/>
<path d="M311.876 86.9146V99.1424C311.876 99.1424 314.325 99.0968 314.191 96.2838C314.058 93.4675 313.795 87.1357 313.795 87.1357L311.876 86.9146Z" fill="#104768"/>
<path d="M311.876 86.9146H309.882V98.7879L311.876 99.1424V86.9146Z" fill="#7DB8FB"/>
<path d="M339.798 117.217L339.275 113.201C339.112 111.952 338.768 110.756 338.273 109.63C338.153 109.582 334.989 108.352 331.828 108.352C328.608 108.356 336.413 116.352 339.798 117.217Z" fill="#EF9D59"/>
<path d="M336.432 115.282L337.249 114.655L333.522 110.554H331.775C332.758 112.001 334.614 113.878 336.432 115.282Z" fill="#EA8021"/>
<path d="M226.22 130.083C226.22 130.623 226.125 131.12 225.94 131.576C225.751 132.034 225.488 132.431 225.146 132.769C224.805 133.107 224.395 133.374 223.914 133.566C223.433 133.761 222.899 133.862 222.317 133.872L219.394 133.92V126.476L222.317 126.428C222.903 126.418 223.436 126.502 223.914 126.681C224.395 126.86 224.805 127.114 225.146 127.436C225.488 127.761 225.751 128.148 225.94 128.6C226.125 129.055 226.22 129.55 226.22 130.083ZM224.434 130.112C224.434 129.745 224.385 129.413 224.291 129.117C224.194 128.821 224.057 128.574 223.875 128.369C223.693 128.167 223.472 128.011 223.211 127.904C222.951 127.797 222.652 127.748 222.317 127.751L221.15 127.771V132.558L222.317 132.538C222.652 132.532 222.948 132.473 223.211 132.356C223.475 132.242 223.693 132.08 223.875 131.868C224.057 131.66 224.194 131.406 224.291 131.107C224.385 130.818 224.434 130.483 224.434 130.112Z" fill="white"/>
<path d="M232.418 126.262V127.589L229.329 127.641V129.377L231.693 129.338V130.616L229.329 130.655V132.428L232.418 132.376V133.702L227.573 133.784V126.343L232.418 126.262Z" fill="white"/>
<path d="M235.67 132.268L238.457 132.223V133.602L233.924 133.676V126.232L235.67 126.203V132.268Z" fill="white"/>
<path d="M241.713 133.546L239.957 133.576V126.132L241.713 126.102V133.546Z" fill="white"/>
<path d="M243.003 126.083L244.408 126.06C244.561 126.057 244.685 126.089 244.779 126.158C244.877 126.223 244.945 126.314 244.987 126.424L246.444 130.385C246.509 130.558 246.574 130.746 246.642 130.948C246.711 131.153 246.773 131.364 246.831 131.589C246.88 131.364 246.935 131.146 247 130.941C247.065 130.737 247.127 130.545 247.189 130.372L248.636 126.362C248.672 126.268 248.737 126.18 248.838 126.102C248.938 126.024 249.059 125.982 249.205 125.982L250.62 125.959L247.605 133.452L246.025 133.478L243.003 126.083Z" fill="white"/>
<path d="M256.594 125.855V127.182L253.505 127.234V128.97L255.869 128.931V130.21L253.505 130.249V132.021L256.594 131.969V133.296L251.749 133.377V125.933L256.594 125.855Z" fill="white"/>
<path d="M259.849 130.493V133.247L258.103 133.276V125.832L260.552 125.79C261.095 125.78 261.56 125.829 261.944 125.933C262.327 126.037 262.64 126.187 262.884 126.379C263.127 126.571 263.303 126.801 263.414 127.068C263.524 127.335 263.58 127.627 263.58 127.943C263.58 128.184 263.547 128.414 263.482 128.629C263.417 128.844 263.319 129.045 263.189 129.231C263.059 129.416 262.903 129.579 262.714 129.725C262.526 129.871 262.311 129.992 262.067 130.089C262.184 130.145 262.295 130.216 262.396 130.297C262.497 130.382 262.584 130.483 262.662 130.606L264.262 133.169L262.682 133.195C262.389 133.202 262.178 133.094 262.051 132.88L260.802 130.74C260.747 130.645 260.682 130.577 260.607 130.538C260.532 130.499 260.428 130.48 260.295 130.483L259.849 130.493ZM259.849 129.302L260.552 129.289C260.789 129.286 260.991 129.254 261.16 129.188C261.326 129.127 261.462 129.042 261.57 128.935C261.677 128.827 261.755 128.704 261.801 128.561C261.849 128.418 261.872 128.265 261.872 128.102C261.872 127.777 261.765 127.52 261.55 127.341C261.336 127.159 261.001 127.075 260.552 127.081L259.849 127.094V129.302Z" fill="white"/>
<path d="M269.238 130.258V133.088L267.492 133.117V130.288L264.767 125.722L266.305 125.696C266.458 125.693 266.578 125.725 266.666 125.793C266.757 125.862 266.828 125.949 266.884 126.057L267.947 128.206C268.032 128.379 268.113 128.538 268.185 128.681C268.256 128.828 268.321 128.971 268.376 129.11C268.428 128.964 268.49 128.815 268.562 128.668C268.633 128.522 268.711 128.362 268.793 128.19L269.846 126.005C269.866 125.959 269.895 125.917 269.931 125.871C269.967 125.826 270.009 125.787 270.054 125.748C270.1 125.712 270.155 125.683 270.214 125.657C270.272 125.634 270.341 125.621 270.412 125.621L271.96 125.595L269.238 130.258Z" fill="white"/>
<path d="M70.0155 27.9998H75.9701C76.9587 27.9998 77.8238 28.6632 78.0807 29.616L82.4515 45.8602C83.0239 47.9838 81.4238 50.0684 79.2254 50.0684H66.7635C64.5651 50.0684 62.965 47.9838 63.5374 45.8602L67.9082 29.616C68.1651 28.6632 69.0302 27.9998 70.0155 27.9998Z" fill="white"/>
<path d="M76.7957 25.8276C76.7957 26.4195 75.0884 32.748 72.9843 32.748C70.8802 32.748 69.1729 26.4195 69.1729 25.8276C69.1729 25.2357 70.8802 24.7544 72.9843 24.7544C75.0916 24.7576 76.7957 25.2357 76.7957 25.8276Z" fill="white"/>
<path d="M74.3799 27.9998C74.3799 27.9998 75.7327 29.0567 75.5019 31.1998C75.271 33.3429 75.1051 35.0275 75.7327 36.3446" stroke="#1773C6" stroke-width="2" stroke-miterlimit="10" stroke-linecap="round"/>
<path d="M75.0562 27.9998C75.0562 27.9998 76.7537 28.8583 76.7895 30.6372C76.822 32.4193 76.2302 34.1982 77.3846 35.5836" stroke="#1773C6" stroke-width="2" stroke-miterlimit="10" stroke-linecap="round"/>
<path d="M61.4689 53.2683C61.7193 53.2683 61.9144 53.3236 62.0575 53.4374C62.2006 53.5512 62.2722 53.7204 62.2722 53.9447C62.2722 54.0813 62.2331 54.1984 62.1551 54.2927C62.077 54.387 61.9665 54.4553 61.8234 54.4976C62.012 54.5366 62.1583 54.6114 62.2657 54.7285C62.373 54.8423 62.425 54.9952 62.425 55.1838C62.425 55.4407 62.3405 55.6391 62.1713 55.7724C62.0022 55.9057 61.7811 55.974 61.5079 55.974H60.7729V53.2716H61.4689V53.2683ZM61.1047 54.361H61.4721C61.612 54.361 61.7258 54.3252 61.8136 54.2537C61.9014 54.1821 61.947 54.0846 61.947 53.961C61.947 53.8374 61.9014 53.7399 61.8136 53.6651C61.7258 53.5903 61.612 53.5545 61.4721 53.5545H61.1047V54.361ZM61.1047 55.6814H61.5112C61.69 55.6814 61.8331 55.6358 61.9405 55.5415C62.0478 55.4505 62.1031 55.3204 62.1031 55.1578C62.1031 54.9952 62.0478 54.8683 61.9405 54.7805C61.8331 54.6895 61.69 54.6439 61.5112 54.6439H61.1047V55.6814Z" fill="white"/>
<path d="M62.9485 55.9711H62.5811L63.8364 53.1321L65.0917 55.9711H64.7242L64.3795 55.1614H63.29L62.9485 55.9711ZM64.2494 54.8524L63.8364 53.8801L63.4233 54.8524H64.2494Z" fill="white"/>
<path d="M66.5551 54.5986H67.8104C67.8104 54.9921 67.6934 55.3271 67.4625 55.597C67.2316 55.8669 66.9161 56.0068 66.5193 56.0068C66.1258 56.0068 65.7974 55.8767 65.5372 55.6133C65.2771 55.3498 65.147 55.0181 65.147 54.6181C65.147 54.2181 65.2771 53.8832 65.5372 53.623C65.7974 53.3628 66.1226 53.2295 66.5193 53.2295C67.0299 53.2295 67.4072 53.4214 67.6413 53.8051L67.4104 54.0165C67.2283 53.7108 66.9291 53.558 66.5193 53.558C66.2299 53.558 65.986 53.6555 65.7909 53.8539C65.5958 54.0523 65.4982 54.3059 65.4982 54.6181C65.4982 54.9303 65.5958 55.184 65.7909 55.3824C65.986 55.5808 66.2299 55.6783 66.5193 55.6783C66.773 55.6783 66.9811 55.6068 67.1438 55.4604C67.3064 55.3141 67.4104 55.1287 67.4559 54.9076H66.5551V54.5986Z" fill="white"/>
<path d="M69.8725 55.5451C69.9863 55.6492 70.1229 55.698 70.2823 55.698C70.4351 55.698 70.5489 55.659 70.627 55.5809C70.705 55.5029 70.7441 55.3955 70.7441 55.2589C70.7441 55.1776 70.7278 55.1028 70.6953 55.0378C70.6628 54.9728 70.6107 54.9175 70.5424 54.8687C70.4741 54.8232 70.4091 54.7841 70.3473 54.7549C70.2855 54.7256 70.2075 54.6931 70.1131 54.6606C69.6611 54.498 69.4335 54.2443 69.4335 53.8996C69.4335 53.6979 69.5083 53.5353 69.6579 53.4118C69.8075 53.2882 69.9928 53.2231 70.2172 53.2231C70.4188 53.2231 70.5912 53.2817 70.7375 53.3955C70.8839 53.5126 70.988 53.6459 71.0497 53.802L70.7831 53.9809C70.7115 53.8443 70.6335 53.737 70.5489 53.6557C70.4644 53.5744 70.3538 53.5353 70.2205 53.5353C70.0839 53.5353 69.9766 53.5711 69.8953 53.6394C69.814 53.7077 69.7749 53.802 69.7749 53.9223C69.7749 54.0394 69.827 54.137 69.9343 54.2085C70.0416 54.2801 70.1944 54.3581 70.4026 54.4329C70.8579 54.5988 71.0855 54.8654 71.0855 55.2297C71.0855 55.4638 71.014 55.6524 70.8709 55.7923C70.7278 55.9321 70.5262 56.0037 70.2627 56.0037C70.0481 56.0037 69.853 55.9354 69.6839 55.802C69.5148 55.6687 69.3847 55.4866 69.2969 55.2589L69.5733 55.0931C69.6611 55.2947 69.7587 55.4443 69.8725 55.5451Z" fill="white"/>
<path d="M72.0544 55.3792C72.2528 55.5808 72.4869 55.6816 72.7601 55.6816C73.1276 55.6816 73.417 55.5483 73.6284 55.2816V55.7142C73.404 55.9125 73.1146 56.0101 72.7601 56.0101C72.3828 56.0101 72.0609 55.8768 71.8007 55.6133C71.5406 55.3499 71.4072 55.0182 71.4072 54.6182C71.4072 54.2182 71.5373 53.8865 71.8007 53.6231C72.0609 53.3597 72.3828 53.2263 72.7601 53.2263C73.1146 53.2263 73.404 53.3239 73.6284 53.5223V53.9548C73.417 53.6881 73.1276 53.5548 72.7601 53.5548C72.4869 53.5548 72.2528 53.6556 72.0544 53.8572C71.856 54.0589 71.7584 54.3125 71.7584 54.6182C71.7584 54.9272 71.8593 55.1776 72.0544 55.3792Z" fill="white"/>
<path d="M74.2298 55.9711H73.8623L75.1176 53.1321L76.3729 55.9711H76.0054L75.6607 55.1614H74.5713L74.2298 55.9711ZM75.5306 54.8524L75.1176 53.8801L74.7046 54.8524H75.5306Z" fill="white"/>
<path d="M79.0723 53.2686V56.1077L77.0267 53.9613V55.9743H76.6982V53.1353L78.7438 55.2816V53.2686H79.0723Z" fill="white"/>
<path d="M82.0645 53.2686V56.1077L80.0189 53.9613V55.9743H79.6904V53.1353L81.736 55.2816V53.2686H82.0645Z" fill="white"/>
<path d="M83.0072 55.6621H84.2235V55.971H82.6787V53.2686H84.2235V53.5775H83.0072V54.3482H84.1454V54.6572H83.0072V55.6621Z" fill="white"/>
<path d="M84.8027 55.971V53.2686H85.6125C86.0093 53.2686 86.3345 53.3921 86.5849 53.6425C86.8385 53.893 86.9621 54.2182 86.9621 54.6182C86.9621 55.0182 86.8353 55.3466 86.5849 55.5938C86.3312 55.8442 86.0093 55.9678 85.6125 55.9678H84.8027V55.971ZM85.6125 55.6426C85.9182 55.6426 86.1654 55.5515 86.354 55.3661C86.5426 55.1808 86.6369 54.9336 86.6369 54.6214C86.6369 54.3092 86.5426 54.0621 86.354 53.8767C86.1654 53.6913 85.9182 53.6003 85.6125 53.6003H85.1312V55.6458H85.6125V55.6426Z" fill="white"/>
<path d="M58.8735 58.5955V62.3354H57.9531V58.5955H58.8735Z" fill="white"/>
<path d="M59.6636 62.3351V58.5952H61.0002C61.6116 58.5952 62.1026 58.7643 62.4636 59.0993C62.8278 59.4375 63.01 59.8928 63.01 60.4652C63.01 61.0375 62.8278 61.4928 62.4636 61.831C62.0994 62.1693 61.6116 62.3351 61.0002 62.3351H59.6636ZM60.9677 61.5351C61.2896 61.5351 61.553 61.4505 61.7579 61.2814C61.966 61.1123 62.0669 60.8392 62.0669 60.4652C62.0669 60.0912 61.9628 59.818 61.7579 59.6489C61.5498 59.4798 61.2864 59.3952 60.9677 59.3952H60.5937V61.5318H60.9677V61.5351Z" fill="white"/>
<path d="M63.6831 59.6262C63.7774 59.5287 63.8978 59.4832 64.0441 59.4832C64.1905 59.4832 64.3108 59.5319 64.4083 59.6262C64.5059 59.7206 64.5514 59.8376 64.5514 59.9742C64.5514 60.1108 64.5027 60.2246 64.4083 60.3222C64.3108 60.4198 64.1905 60.4653 64.0441 60.4653C63.8978 60.4653 63.7774 60.4165 63.6831 60.3222C63.5888 60.2246 63.54 60.1108 63.54 59.9742C63.54 59.8376 63.5888 59.7238 63.6831 59.6262ZM63.6831 61.6263C63.7774 61.5287 63.8978 61.4832 64.0441 61.4832C64.1905 61.4832 64.3108 61.532 64.4083 61.6263C64.5059 61.7206 64.5514 61.8377 64.5514 61.9743C64.5514 62.1108 64.5027 62.2247 64.4083 62.3222C64.314 62.4198 64.1905 62.4653 64.0441 62.4653C63.8978 62.4653 63.7774 62.4165 63.6831 62.3222C63.5888 62.2247 63.54 62.1108 63.54 61.9743C63.5433 61.8377 63.5888 61.7206 63.6831 61.6263Z" fill="white"/>
<path d="M66.8706 58.8879L68.6658 58.5237V62.3351H67.8007V59.4505L66.8706 59.6749V58.8879Z" fill="white"/>
<path d="M71.0039 60.6116C71.1763 60.4262 71.2966 60.2734 71.3714 60.1563C71.4462 60.0392 71.482 59.9091 71.482 59.7726C71.482 59.6457 71.4397 59.5352 71.3552 59.4408C71.2706 59.3498 71.1503 59.301 70.9877 59.301C70.8121 59.301 70.6722 59.3628 70.5616 59.4896C70.4543 59.6165 70.399 59.7791 70.399 59.9774H69.5112C69.5112 59.5612 69.6446 59.2132 69.908 58.9368C70.1746 58.6603 70.5389 58.5205 71.0072 58.5205C71.4462 58.5205 71.7909 58.6408 72.0413 58.8847C72.2918 59.1287 72.4186 59.4083 72.4186 59.7303C72.4186 60.088 72.2365 60.423 71.8722 60.7352L71.0072 61.5092H72.5031V62.3385H69.3291L71.0039 60.6116Z" fill="white"/>
<path d="M73.3842 62.0492C73.1208 61.7988 72.9907 61.4996 72.9907 61.1516H73.8818C73.8818 61.3272 73.9371 61.4606 74.0509 61.5549C74.1647 61.6492 74.3013 61.698 74.4639 61.698C74.6233 61.698 74.7534 61.6589 74.8509 61.5776C74.9485 61.4963 74.9973 61.3793 74.9973 61.2264C74.9973 61.0671 74.929 60.9402 74.7956 60.8459C74.6623 60.7516 74.4639 60.7028 74.2005 60.7028V60.1207C74.4021 60.1207 74.568 60.0719 74.6981 59.9776C74.8281 59.8833 74.8899 59.763 74.8899 59.6264C74.8899 59.5126 74.8542 59.4215 74.7826 59.3532C74.7111 59.2849 74.607 59.2524 74.4672 59.2524C74.3273 59.2524 74.2135 59.2947 74.1192 59.3792C74.0281 59.4638 73.9794 59.5679 73.9794 59.6979H73.1468C73.1468 59.3597 73.2671 59.08 73.5111 58.8621C73.755 58.6443 74.0737 58.5337 74.4672 58.5337C74.8769 58.5337 75.1989 58.6313 75.433 58.8264C75.6672 59.0215 75.7843 59.2687 75.7843 59.5679C75.7843 59.9418 75.5729 60.2118 75.1469 60.3809C75.6412 60.55 75.8883 60.8589 75.8883 61.3175C75.8883 61.6492 75.7582 61.9159 75.4948 62.1207C75.2347 62.3256 74.8769 62.4297 74.4249 62.4297C73.9956 62.4232 73.6444 62.2963 73.3842 62.0492Z" fill="white"/>
<path d="M78.9712 62.3352H78.0314V61.6718H76.1289L78.298 58.592H78.9712V60.901H79.5599V61.6718H78.9712V62.3352ZM78.1322 59.9091L77.3192 61.0213H78.1322V59.9091Z" fill="white"/>
<path d="M82.8836 61.7108C82.7958 61.8799 82.6755 62.01 82.5292 62.1075C82.3828 62.2051 82.2202 62.2799 82.0478 62.3287C81.8755 62.3775 81.6934 62.4035 81.5047 62.4035C80.9389 62.4035 80.4381 62.2409 80.0088 61.9157L80.36 61.1742C80.5064 61.2978 80.6657 61.3953 80.8381 61.4669C81.0104 61.5384 81.1698 61.5742 81.3096 61.5742C81.7877 61.5742 82.0251 61.3953 82.0251 61.0409C82.0251 60.8685 81.9568 60.7384 81.8169 60.6506C81.6771 60.5628 81.508 60.5173 81.3096 60.5173C80.9129 60.5173 80.5616 60.5953 80.2527 60.7514L80.7763 58.592H82.9422V59.379H81.4397L81.2153 60.0522C81.3974 59.9579 81.6186 59.9124 81.8787 59.9124C82.1877 59.9124 82.4544 60.023 82.6787 60.2441C82.9031 60.4652 83.017 60.7612 83.017 61.1352C83.017 61.3531 82.9714 61.5449 82.8836 61.7108Z" fill="white"/>
<path d="M86.1586 58.6116L85.0464 59.8507C85.1309 59.8182 85.2447 59.8019 85.3878 59.8019C85.687 59.8019 85.9537 59.9157 86.1878 60.1401C86.422 60.3678 86.5391 60.6605 86.5391 61.0182C86.5391 61.4605 86.396 61.8052 86.1065 62.0491C85.8171 62.2963 85.4561 62.4166 85.0171 62.4166C84.5781 62.4166 84.2171 62.293 83.9276 62.0491C83.6382 61.8019 83.4951 61.4605 83.4951 61.0182C83.4951 60.6832 83.6415 60.3385 83.9342 59.9808L85.0073 58.6084H86.1586V58.6116ZM84.5716 61.48C84.6886 61.5971 84.8382 61.6523 85.0203 61.6523C85.2025 61.6523 85.3521 61.5938 85.4691 61.48C85.5862 61.3662 85.6447 61.2133 85.6447 61.0247C85.6447 60.8361 85.5862 60.6832 85.4691 60.5662C85.3521 60.4491 85.2025 60.3905 85.0203 60.3905C84.8382 60.3905 84.6886 60.4491 84.5716 60.5662C84.4545 60.6832 84.396 60.8361 84.396 61.0247C84.396 61.2101 84.4545 61.3629 84.5716 61.48Z" fill="white"/>
<path d="M86.9648 58.5952H90.0153L88.2104 62.3351H87.2315L88.6917 59.4375H86.9648V58.5952Z" fill="white"/>
<path d="M71.0234 76.9895L73.2121 79.1781L77.1374 75.2561" stroke="#EA8021" stroke-width="4" stroke-miterlimit="10" stroke-linecap="round" stroke-linejoin="round"/>
<path d="M73.0689 45.4246C73.0754 45.636 73.0787 45.8507 73.0852 46.062C73.0884 46.2246 73.1502 46.3092 73.2966 46.3645C73.3161 46.371 73.3356 46.3775 73.3551 46.3873C73.3746 46.3938 73.3941 46.4068 73.3909 46.4328C73.3876 46.462 73.3681 46.4653 73.3453 46.4653C73.3258 46.4686 73.3031 46.4686 73.2835 46.4686C72.9291 46.4686 72.5778 46.4686 72.2234 46.4686C72.2006 46.4686 72.1746 46.4718 72.1518 46.4653C72.1095 46.4555 72.1063 46.4295 72.1356 46.397C72.1421 46.3905 72.1518 46.3873 72.1583 46.384C72.3925 46.3255 72.4282 46.1498 72.4185 45.9287C72.399 45.5482 72.3957 45.1645 72.386 44.784C72.3827 44.6441 72.3795 44.6409 72.2461 44.6116C72.2136 44.6051 72.1811 44.5954 72.1518 44.5856C72.1323 44.5791 72.1128 44.5661 72.1128 44.5401C72.1128 44.5141 72.1291 44.501 72.1486 44.4945C72.2071 44.475 72.2656 44.4555 72.3242 44.436C72.5291 44.3677 72.7242 44.2701 72.9063 44.1498C72.9909 44.0945 73.0234 44.1108 73.0331 44.2246C73.0429 44.3319 73.0396 44.3319 73.1307 44.2734C73.2705 44.1823 73.4234 44.1303 73.5925 44.1336C73.6998 44.1368 73.8039 44.1238 73.9112 44.1466C74.2429 44.2181 74.4315 44.4555 74.4608 44.8132C74.4966 45.223 74.4901 45.6328 74.5063 46.0425C74.5161 46.2344 74.5681 46.3092 74.7437 46.3742C74.773 46.384 74.8283 46.3807 74.8185 46.436C74.812 46.4848 74.7632 46.4686 74.7275 46.4686C74.3632 46.4686 73.9957 46.4686 73.6315 46.4686C73.599 46.4686 73.5502 46.4816 73.5405 46.4328C73.534 46.384 73.586 46.384 73.6153 46.371C73.7779 46.3125 73.8429 46.2214 73.8364 46.036C73.8266 45.6783 73.8201 45.3238 73.8071 44.9661C73.8039 44.8653 73.7876 44.7677 73.7616 44.6702C73.6998 44.4393 73.5567 44.3417 73.3226 44.3645C73.1567 44.3807 73.0396 44.5368 73.0429 44.7547C73.0559 44.9791 73.0656 45.2035 73.0689 45.4246Z" fill="#3790F4"/>
<path d="M71.2999 45.1352C71.1113 45.1352 70.9259 45.1352 70.7373 45.1352C70.6723 45.1352 70.6365 45.1547 70.643 45.2327C70.6625 45.4343 70.682 45.6392 70.7763 45.8246C70.8772 46.0197 71.0333 46.114 71.2414 46.1303C71.456 46.1466 71.6512 46.0945 71.8268 45.9677C71.856 45.9449 71.8918 45.9091 71.9308 45.9482C71.9699 45.9872 71.9406 46.0327 71.9211 46.0685C71.791 46.2896 71.6056 46.4295 71.3682 46.501C71.1211 46.5758 70.8707 46.5661 70.6235 46.4718C70.3601 46.3709 70.1682 46.1791 70.0674 45.9092C69.895 45.4474 69.9015 44.9953 70.1682 44.5856C70.3601 44.2961 70.6333 44.153 70.978 44.1368C71.4886 44.1108 71.8398 44.488 71.9438 44.9628C71.9764 45.1156 71.9569 45.1417 71.8138 45.1417C71.6447 45.1352 71.4723 45.1352 71.2999 45.1352ZM70.9032 44.9823C71.004 44.9856 71.1048 44.9758 71.2024 44.966C71.3064 44.953 71.3455 44.914 71.3357 44.8034C71.3227 44.6669 71.2902 44.54 71.2121 44.4262C71.082 44.2343 70.8804 44.2441 70.7731 44.4425C70.6983 44.5856 70.6755 44.7449 70.6528 44.9043C70.6463 44.9595 70.669 44.9856 70.7243 44.9856C70.7861 44.9791 70.8446 44.9823 70.9032 44.9823Z" fill="#3790F4"/>
<path d="M77.3457 44.1367C77.544 44.1237 77.7522 44.1855 77.9538 44.2668C78.0156 44.2928 78.0514 44.3319 78.0644 44.4002C78.0806 44.5042 78.1034 44.6083 78.1262 44.7124C78.1327 44.7416 78.1392 44.7709 78.1066 44.7872C78.0741 44.8002 78.0579 44.7742 78.0416 44.7514C77.9343 44.605 77.8042 44.4815 77.6481 44.3904C77.5115 44.3124 77.3717 44.2506 77.2156 44.2831C77.1115 44.3059 77.0432 44.3644 77.027 44.475C77.0107 44.592 77.0237 44.7059 77.1278 44.7872C77.2481 44.8815 77.3879 44.9335 77.5278 44.979C77.7196 45.0441 77.9018 45.1286 78.0579 45.2685C78.3701 45.5481 78.3993 46.3124 77.814 46.4815C77.4302 46.5921 77.053 46.54 76.6822 46.3774C76.6237 46.3514 76.5944 46.3059 76.5847 46.2408C76.5652 46.1238 76.5424 46.0067 76.5229 45.8896C76.5164 45.8571 76.5034 45.8148 76.5391 45.7986C76.5782 45.779 76.5944 45.8213 76.6139 45.8506C76.7505 46.0457 76.9066 46.2213 77.1213 46.3254C77.1863 46.3579 77.2579 46.3774 77.3261 46.3872C77.466 46.4067 77.5831 46.3514 77.6286 46.2473C77.6871 46.1205 77.6611 45.9644 77.5635 45.8538C77.4432 45.7205 77.2871 45.6555 77.1278 45.5937C76.9684 45.5319 76.8318 45.4473 76.7148 45.314C76.3668 44.914 76.5489 44.2636 77.0432 44.1498C77.1375 44.1335 77.2318 44.1367 77.3457 44.1367Z" fill="#3790F4"/>
<path d="M75.0722 45.1838C75.0657 44.9399 75.0592 44.696 75.0527 44.4521C75.0527 44.3936 75.0397 44.3448 74.9681 44.348C74.9356 44.348 74.8868 44.361 74.8836 44.3058C74.8803 44.2537 74.9063 44.2049 74.9551 44.2017C75.0429 44.1919 75.0462 44.1399 75.0429 44.0651C75.0364 43.9253 75.0397 43.7822 75.0299 43.6423C75.0234 43.5513 75.0462 43.5057 75.1372 43.4862C75.2803 43.4537 75.4104 43.3919 75.5372 43.3204C75.6543 43.2521 75.6673 43.2618 75.6706 43.4082C75.6771 43.6293 75.6868 43.8537 75.6868 44.0749C75.6868 44.1659 75.7194 44.1984 75.8039 44.1919C75.9177 44.1854 76.0283 44.1887 76.1421 44.1919C76.1812 44.1919 76.2364 44.1822 76.2397 44.244C76.2429 44.3058 76.2039 44.3415 76.1454 44.3448C76.0446 44.348 75.9438 44.348 75.8429 44.348C75.6966 44.348 75.6966 44.348 75.6998 44.5041C75.7129 44.9529 75.7226 45.3985 75.7356 45.8472C75.7421 46.1172 75.8917 46.2342 76.1389 46.1692C76.1877 46.1562 76.2332 46.1367 76.282 46.1204C76.295 46.1172 76.308 46.1074 76.321 46.1009C76.3503 46.0911 76.3795 46.0846 76.4023 46.1139C76.4218 46.1432 76.4088 46.1692 76.3958 46.192C76.3275 46.3155 76.2267 46.4066 76.1031 46.4619C75.8397 46.579 75.573 46.5855 75.3259 46.3968C75.1633 46.2733 75.0982 46.0879 75.0885 45.8863C75.0787 45.6521 75.0787 45.418 75.0722 45.1838Z" fill="#3790F4"/>
<path d="M68.4512 45.2131C68.4447 45.4115 68.4804 45.5969 68.5715 45.7757C68.7276 46.0782 69.0235 46.2115 69.3292 46.1139C69.4788 46.0684 69.6089 45.9871 69.7292 45.8863C69.7618 45.8603 69.7943 45.8213 69.8366 45.8635C69.8723 45.8993 69.8398 45.9383 69.8235 45.9741C69.6024 46.3774 69.1731 46.5887 68.7308 46.5302C68.4967 46.4977 68.2821 46.4294 68.1032 46.257C67.9016 46.0652 67.8073 45.8147 67.778 45.5383C67.739 45.1643 67.7942 44.8131 68.0382 44.5269C68.243 44.2863 68.5065 44.1529 68.8187 44.1334C68.978 44.1237 69.1374 44.1237 69.2935 44.1855C69.3748 44.2147 69.4463 44.2537 69.5146 44.309C69.6219 44.3936 69.6707 44.5334 69.6349 44.6603C69.5959 44.7936 69.4951 44.8359 69.378 44.8456C69.2609 44.8586 69.1406 44.7806 69.0918 44.657C69.0626 44.5855 69.043 44.5074 69.0138 44.4359C68.9487 44.2733 68.8056 44.2375 68.6756 44.3513C68.5715 44.4424 68.5227 44.5692 68.4902 44.7025C68.4544 44.8684 68.4382 45.0375 68.4512 45.2131Z" fill="#3790F4"/>
<path d="M56.0283 123.117C60.5436 123.117 64.204 122.454 64.204 121.637C64.204 120.82 60.5436 120.157 56.0283 120.157C51.5129 120.157 47.8525 120.82 47.8525 121.637C47.8525 122.454 51.5129 123.117 56.0283 123.117Z" fill="#3790F4"/>
<path d="M24.4864 122.174C28.7574 122.174 32.2198 121.511 32.2198 120.694C32.2198 119.877 28.7574 119.214 24.4864 119.214C20.2153 119.214 16.7529 119.877 16.7529 120.694C16.7529 121.511 20.2153 122.174 24.4864 122.174Z" fill="#3790F4"/>
<path d="M30.3402 111.653C30.3402 111.653 29.0524 113.897 28.7565 114.82C28.4605 115.744 27.667 117.526 27.667 117.526L22.1255 114.59C22.1255 114.59 24.7629 114.723 25.6215 113.533C26.48 112.346 27.0719 109.113 27.0719 109.113L30.3402 111.653Z" fill="#EFC6BD"/>
<path d="M27.8489 117.113C27.8489 117.113 28.1643 116.141 27.4359 115.877C26.7106 115.614 25.67 116.606 23.9789 114.427C23.9789 114.427 19.9463 113.536 18.7268 114.294C18.7268 114.294 18.0341 114.928 17.9365 115.549C17.9365 115.549 23.0488 118.612 26.844 120.196C26.844 120.196 27.7025 119.669 27.7676 118.876C27.8326 118.082 27.8489 117.113 27.8489 117.113Z" fill="#EA8021"/>
<path d="M26.844 120.196C26.844 120.196 27.7025 119.669 27.7676 118.876C27.8033 118.434 27.8261 117.936 27.8359 117.582C26.2131 116.869 23.7838 117.543 22.5545 117.26C21.2699 116.964 18.2357 114.873 18.2325 114.873C18.0959 115.077 17.9723 115.312 17.9365 115.549C17.9398 115.549 23.052 118.616 26.844 120.196Z" fill="white"/>
<path d="M33.0782 78.8657C33.0782 78.8657 30.6033 89.2886 29.6147 93.3147C28.6261 97.3408 27.683 105.585 26.7041 109.939C26.7041 109.939 27.5692 111.523 30.2749 111.787C30.2749 111.787 33.6408 105.12 34.0343 101.526C34.4278 97.9327 33.8359 95.6887 37.0034 91.2692L34.1676 79.7243L33.0782 78.8657Z" fill="white" stroke="#5FA6F6" stroke-width="2" stroke-miterlimit="10" stroke-linecap="round" stroke-linejoin="round"/>
<path d="M28.968 84.6215L28.4054 87.1126L25.459 86.2768L26.7045 84.0557L28.968 84.6215Z" fill="#EFC6BD"/>
<path d="M27.8622 85.425C28.5034 85.425 29.0232 84.9052 29.0232 84.264C29.0232 83.6228 28.5034 83.103 27.8622 83.103C27.221 83.103 26.7012 83.6228 26.7012 84.264C26.7012 84.9052 27.221 85.425 27.8622 85.425Z" fill="#EFC6BD"/>
<path d="M30.1884 86.5127L23.3501 85.4099L22.8567 88.4695L29.695 89.5722L30.1884 86.5127Z" fill="#EA8021"/>
<path d="M26.7043 84.0557L25.1726 85.9679C25.1726 85.9679 24.3368 87.5516 24.0506 87.9029C23.7644 88.2541 25.6343 87.9256 26.2067 87.1777C26.7791 86.4297 28.1872 84.2638 28.1872 84.2638L26.7043 84.0557Z" fill="#EFC6BD"/>
<path d="M25.6602 87.3146C25.3773 87.2593 25.0878 87.3861 24.9415 87.6333C24.6781 88.0788 24.3008 88.791 24.2748 89.2431C24.2423 89.7634 26.2878 89.9 27.348 89.9357C27.7025 89.9488 28.0082 89.6951 28.0635 89.3439L28.2326 88.2512C28.2684 88.0203 28.1155 87.7991 27.8846 87.7536L25.6602 87.3146Z" fill="#EFC6BD"/>
<path d="M50.7503 121.045C50.7503 121.045 50.0024 121.133 50.3536 122.014C50.3536 122.014 50.5747 122.587 53.6967 121.575C56.8187 120.564 57.2155 120.213 57.3911 118.408C57.5667 116.606 58.0513 112.557 58.0513 112.557C58.0513 112.557 56.6431 111.5 55.3683 111.786L55.7195 117.526L50.7503 121.045Z" fill="white"/>
<path d="M50.0444 110.531L52.2884 114.271L52.5973 117.526L56.0283 115.503L55.3681 111.786C55.3681 111.786 54.3112 111.237 53.9177 111.126C53.5242 111.016 52.9063 109.081 52.9063 109.081L50.0444 110.531Z" fill="#EFC6BD"/>
<path d="M52.2005 115.897L52.4216 118.446L50.8313 120.073C50.5842 120.326 50.4443 120.668 50.4443 121.025V121.263C50.4443 121.494 50.6525 121.669 50.8801 121.627C52.0411 121.419 55.1761 120.772 55.8558 119.809C56.6916 118.622 56.6038 117.038 56.2526 114.268C55.9013 111.497 55.8135 111.783 55.8135 111.783L54.9355 111.123C54.9355 111.123 54.2753 111.76 54.6265 113.298C54.9777 114.837 55.1989 115.191 55.1989 115.191C55.1989 115.191 52.9029 114.71 52.2005 115.897Z" fill="#EA8021"/>
<path d="M33.0786 78.8656L37.3844 93.8675C37.8201 95.3895 38.5974 96.7878 39.6608 97.9618C42.4381 101.029 48.0284 107.416 49.9341 111.13C49.9341 111.13 52.0448 110.866 52.9033 109.084C52.9033 109.084 50.9911 105.523 49.2089 101.825C47.4268 98.1277 43.404 96.0203 42.6788 93.513C41.9535 91.0056 40.7665 83.4836 39.612 78.5046L33.0786 78.8656Z" fill="white" stroke="#5FA6F6" stroke-width="2" stroke-miterlimit="10" stroke-linecap="round" stroke-linejoin="round"/>
<path d="M34.3563 60.2182C34.3563 60.2182 32.2555 61.7239 31.927 63.802C31.5985 65.8801 32.8246 78.8787 32.8246 78.8787C32.8246 78.8787 36.8084 79.721 39.6117 78.5014L39.4198 61.6004L37.2019 60.0166L34.3563 60.2182Z" fill="#EF9D59"/>
<path d="M37.7839 66.2864C39.2352 66.2864 40.4116 65.1099 40.4116 63.6587C40.4116 62.2075 39.2352 61.031 37.7839 61.031C36.3327 61.031 35.1562 62.2075 35.1562 63.6587C35.1562 65.1099 36.3327 66.2864 37.7839 66.2864Z" fill="#EF9D59"/>
<path d="M34.5159 66.2864C35.9671 66.2864 37.1435 65.1099 37.1435 63.6587C37.1435 62.2075 35.9671 61.031 34.5159 61.031C33.0646 61.031 31.8882 62.2075 31.8882 63.6587C31.8882 65.1099 33.0646 66.2864 34.5159 66.2864Z" fill="#EF9D59"/>
<path d="M31.9985 62.8945L26.7041 84.0558L28.9676 84.6217L33.2896 72.4882V63.0767L31.9985 62.8945Z" fill="#EF9D59"/>
<path d="M33.2896 57.5123L34.3562 60.2181L33.4749 62.3807C33.3448 62.7027 33.7351 62.9856 33.9985 62.758L37.2018 60.0197L36.2782 57.8701L34.9156 55.2034L33.2896 57.5123Z" fill="#EFC6BD"/>
<path d="M31.6606 52.7219L30.8899 56.3285C30.8509 56.5074 30.9777 56.6765 31.1598 56.6927L31.5468 56.7285L31.6216 58.296C31.6411 58.6862 32.0671 58.9204 32.4054 58.7253L34.0509 57.7724C34.3371 57.6066 34.516 57.3009 34.516 56.9691V55.4114C34.516 55.4114 33.5598 53.9089 33.5273 52.7219H31.6606Z" fill="#EFC6BD"/>
<path d="M37.4881 53.0342C37.4881 52.3675 37.0621 51.8049 36.4702 51.5903C36.4572 50.748 35.7742 50.0715 34.9287 50.0715H32.0473C31.1953 50.0715 30.5059 50.761 30.5059 51.613C30.5059 52.4651 31.1953 53.1545 32.0473 53.1545H33.3612L34.1645 55.7627L36.2751 57.8733L37.3938 53.5545H37.3905C37.4523 53.3887 37.4881 53.2163 37.4881 53.0342Z" fill="#514132"/>
<path d="M35.3059 49.3105H34.7888C34.5482 49.3105 34.353 49.5057 34.353 49.7463V54.0716H35.7384V49.7463C35.7417 49.5024 35.5465 49.3105 35.3059 49.3105Z" fill="#3790F4"/>
<path d="M35.0494 56.4327C35.863 56.4327 36.5226 55.7731 36.5226 54.9595C36.5226 54.1459 35.863 53.4863 35.0494 53.4863C34.2357 53.4863 33.5762 54.1459 33.5762 54.9595C33.5762 55.7731 34.2357 56.4327 35.0494 56.4327Z" fill="#1773C6"/>
<path d="M35.0492 55.7954C35.5108 55.7954 35.8849 55.4212 35.8849 54.9596C35.8849 54.498 35.5108 54.1238 35.0492 54.1238C34.5876 54.1238 34.2134 54.498 34.2134 54.9596C34.2134 55.4212 34.5876 55.7954 35.0492 55.7954Z" fill="#3790F4"/>
<path d="M32.5874 61.8701L33.7224 60.7546L33.2118 62.0587L32.5874 61.8701Z" fill="#EF9D59"/>
<path d="M37.5272 82.8752C38.1684 82.8752 38.6882 82.3554 38.6882 81.7142C38.6882 81.073 38.1684 80.5532 37.5272 80.5532C36.886 80.5532 36.3662 81.073 36.3662 81.7142C36.3662 82.3554 36.886 82.8752 37.5272 82.8752Z" fill="#EFC6BD"/>
<path d="M36.6556 80.9534L41.1662 72.4167L35.8003 65.3759L40.2101 62.6377L44.9419 71.7045C45.3939 72.563 45.2996 73.6102 44.7045 74.3745L38.3857 82.4949L36.6556 80.9534Z" fill="#EF9D59"/>
<path d="M31.9988 62.8945L31.2866 65.7336C31.3517 68.5206 31.7224 73.1744 31.9793 76.15L32.4606 74.7972C32.1289 70.7971 31.7126 65.1125 31.9208 63.7986L31.9988 62.8945Z" fill="#EA8021"/>
<path d="M39.5763 75.425L39.5632 74.1794L36.9551 79.1194C37.1925 79.0998 37.4299 79.0738 37.6705 79.038L39.5763 75.425Z" fill="#EA8021"/>
<path d="M39.5177 70.2573L37.0363 67.0052C36.9388 66.8784 36.7599 66.8491 36.6298 66.9402C36.49 67.0378 36.4607 67.2296 36.5648 67.363L39.5274 71.2492L39.5177 70.2573Z" fill="#EA8021"/>
<path d="M252.034 16.2535C252.847 16.2535 253.611 16.4518 254.285 16.8031C254.464 13.3136 257.348 10.5396 260.883 10.5396C264.532 10.5396 267.491 13.4989 267.491 17.1478C267.491 17.821 267.391 18.4714 267.202 19.0828C267.677 18.8584 268.204 18.7283 268.763 18.7283C270.773 18.7283 272.405 20.3576 272.405 22.3706C272.405 24.3804 270.776 26.013 268.763 26.013H252.034C249.338 26.013 247.153 23.8276 247.153 21.1316C247.156 18.4389 249.341 16.2535 252.034 16.2535Z" fill="#F7F3F5"/>
<path d="M3.39014 161.114C3.39014 161.114 45.7778 158.688 46.8347 168.981C47.8916 179.277 -0.665211 186.864 14.6391 205.895C29.9434 224.926 105.584 204.344 129.909 209.095C154.235 213.847 158.596 213.58 154.966 228.094C151.334 242.608 169.718 249.265 207.764 244.354C245.81 239.444 285.658 232.318 289.352 224.4C293.047 216.481 283.284 213.316 275.628 209.095C267.973 204.874 267.716 199.622 286.978 193.274C306.24 186.926 333.681 177.105 315.105 166.991C299.206 158.337 266.701 158.639 266.701 158.639L3.39014 161.114Z" fill="#DCECFF"/>
<path d="M72.9878 169.703H58.7925L56.9648 166.542H71.1602L72.9878 169.703Z" stroke="#BDDCF4" stroke-width="2" stroke-miterlimit="10"/>
<path d="M92.6692 180.207H78.4771L76.6494 177.046H90.8415L92.6692 180.207Z" stroke="#BDDCF4" stroke-width="2" stroke-miterlimit="10"/>
<path d="M41.0914 182.858H26.896L25.0684 179.697H39.2637L41.0914 182.858Z" stroke="#BDDCF4" stroke-width="2" stroke-miterlimit="10"/>
<path d="M159.906 178.626H145.711L143.883 175.465H158.079L159.906 178.626Z" stroke="#BDDCF4" stroke-width="2" stroke-miterlimit="10"/>
<path d="M146.504 187.661H132.309L130.481 184.5H144.677L146.504 187.661Z" stroke="#BDDCF4" stroke-width="2" stroke-miterlimit="10"/>
<path d="M239.02 169.397H224.824L223 166.236H237.192L239.02 169.397Z" stroke="#BDDCF4" stroke-width="2" stroke-miterlimit="10"/>
<path d="M195.952 194.858H181.757L179.929 191.697H194.125L195.952 194.858Z" stroke="#BDDCF4" stroke-width="2" stroke-miterlimit="10"/>
<path d="M270.678 174.08H256.483L254.655 170.919H268.851L270.678 174.08Z" stroke="#BDDCF4" stroke-width="2" stroke-miterlimit="10"/>
<path d="M299.736 167.199H285.541L283.713 164.038H297.908L299.736 167.199Z" stroke="#BDDCF4" stroke-width="2" stroke-miterlimit="10"/>
<path d="M291.726 180.802H277.531L275.703 177.641H289.898L291.726 180.802Z" stroke="#BDDCF4" stroke-width="2" stroke-miterlimit="10"/>
<path d="M169.587 207.479H155.392L153.564 204.318H167.76L169.587 207.479Z" stroke="#BDDCF4" stroke-width="2" stroke-miterlimit="10"/>
<path d="M199.178 222.907H184.983L183.159 219.746H197.351L199.178 222.907Z" stroke="#BDDCF4" stroke-width="2" stroke-miterlimit="10"/>
<path d="M229.159 213.759H214.964L213.136 210.598H227.332L229.159 213.759Z" stroke="#BDDCF4" stroke-width="2" stroke-miterlimit="10"/>
<path d="M269.179 227.128H254.984L253.156 223.967H267.352L269.179 227.128Z" stroke="#BDDCF4" stroke-width="2" stroke-miterlimit="10"/>
<path d="M182.482 238.036H168.287L166.459 234.875H180.654L182.482 238.036Z" stroke="#BDDCF4" stroke-width="2" stroke-miterlimit="10"/>
<path d="M114.182 195.768H99.9864L98.1587 192.607H112.354L114.182 195.768Z" stroke="#BDDCF4" stroke-width="2" stroke-miterlimit="10"/>
<path d="M97.0012 201.329H82.8091L80.9814 198.168H95.1768L97.0012 201.329Z" stroke="#BDDCF4" stroke-width="2" stroke-miterlimit="10"/>
<path d="M66.0606 193.03H51.8653L50.0376 189.869H64.2329L66.0606 193.03Z" stroke="#BDDCF4" stroke-width="2" stroke-miterlimit="10"/>
<path d="M38.3531 207.638H24.1577L22.3301 204.477H36.5254L38.3531 207.638Z" stroke="#BDDCF4" stroke-width="2" stroke-miterlimit="10"/>
<path d="M267.432 211.219C269.647 204.155 253.281 192.735 230.878 185.713C208.475 178.69 188.518 178.724 186.304 185.789C184.09 192.853 200.456 204.273 222.859 211.295C245.262 218.317 265.218 218.283 267.432 211.219Z" fill="#B3D6F4"/>
<path d="M110.62 182.837C125.1 180.493 136.174 174.493 135.355 169.434C134.536 164.376 122.134 162.176 107.655 164.52C93.1758 166.864 82.1018 172.865 82.9206 177.923C83.7395 182.981 96.1411 185.181 110.62 182.837Z" fill="#B3D6F4"/>
<path d="M118.839 172.808H104.647L102.819 169.647H117.011L118.839 172.808Z" stroke="#7DB8FB" stroke-width="2" stroke-miterlimit="10"/>
<path d="M1.86475 154.733C2.65175 158.707 3.38997 161.111 3.38997 161.111H322.338C323.366 158.951 324.312 156.828 325.177 154.733H1.86475Z" fill="#F2B283"/>
<path d="M11.6309 154.733L14.8862 161.114H15.8846L12.6325 154.733H11.6309Z" fill="white"/>
<path d="M39.1206 154.733L42.3759 161.114H43.3743L40.1222 154.733H39.1206Z" fill="white"/>
<path d="M66.6104 154.733L69.8657 161.114H70.8641L67.612 154.733H66.6104Z" fill="white"/>
<path d="M91.7134 154.733L94.9687 161.114H95.9671L92.715 154.733H91.7134Z" fill="white"/>
<path d="M259.04 154.733L262.295 161.114H263.293L260.041 154.733H259.04Z" fill="white"/>
<path d="M286.529 154.733L289.785 161.114H290.783L287.531 154.733H286.529Z" fill="white"/>
<path d="M314.019 154.733L317.274 161.114H318.273L315.021 154.733H314.019Z" fill="white"/>
<path d="M111.811 79.2463V84.8171L106.474 86.7293L106.968 78.365L111.811 79.2463Z" fill="#DBA59C"/>
<path d="M101.586 52.1985C101.586 52.1985 100.272 54.3254 98.7049 57.8018C97.1374 61.2816 95.8072 64.6637 94.0674 66.68L108.334 66.8166C108.334 66.8166 112.695 60.5141 113.661 54.9172L112.438 53.1026L101.586 52.1985Z" fill="#EA8021"/>
<path d="M115.677 78.8169H113.632V80.9893H115.677V78.8169Z" fill="#D36F1C"/>
<path d="M109.84 159.602C109.84 159.602 109.873 161.316 109.281 163.657C108.686 165.999 108.686 167.648 108.686 167.648L113.206 168.474L117.164 167.153C117.164 167.153 115.219 164.926 114.92 163.722C114.624 162.519 114.92 159.599 114.92 159.599H109.84V159.602Z" fill="#EFC6BD"/>
<path d="M108.806 164.815C108.806 164.815 108.016 167.277 107.794 169.43C107.794 169.43 107.993 170.2 112.565 170.178C117.141 170.155 120.907 171.387 126.191 170.662C126.191 170.662 126.761 168.617 124.689 167.937C122.614 167.254 117.691 165.761 116.195 164.945C114.699 164.132 113.486 165.966 112.923 167.143C112.36 168.317 111.069 164.838 108.806 164.815Z" fill="#1773C6"/>
<path d="M94.731 162.239C94.731 162.239 95.918 167.781 95.622 169.726C95.3261 171.67 95.1993 173.309 95.1993 173.309L97.0724 175.531L102.877 175.069C102.877 175.069 99.9408 172.714 99.6448 170.558C99.3489 168.405 99.8757 162.236 99.8757 162.236H94.731V162.239Z" fill="#EFC6BD"/>
<path d="M96.6109 173.67C96.6109 173.67 95.9182 170.552 95.2255 170.451C94.5328 170.353 93.8727 174.64 93.8401 175.531C93.8076 176.422 96.4776 177.049 97.863 177.97C99.2484 178.893 103.899 181.368 106.143 181.101C106.143 181.101 107.626 179.056 105.616 177.176C103.603 175.296 100.601 172.087 100.256 171.251C99.9118 170.415 98.0126 171.075 97.4597 172.197C96.9101 173.319 96.6109 173.67 96.6109 173.67Z" fill="#1773C6"/>
<path d="M90.744 97.4968C90.744 97.4968 90.1131 106.83 91.1668 115.803C92.2237 124.775 93.3262 133.878 93.04 139.484C92.7505 145.091 93.4107 154.327 94.7311 162.242C94.7311 162.242 96.8416 163.101 99.8758 162.242C99.8758 162.242 101.128 147.27 101.788 137.901C102.448 128.535 103.177 116.759 103.999 108.232C104.822 99.705 105.681 96.209 105.681 96.209L90.744 97.4968Z" fill="#3790F4"/>
<path d="M107.135 96.2091C107.135 96.2091 116.702 117.979 119.141 123.78C121.584 129.585 115.71 148.847 114.92 159.599C114.92 159.599 113.073 160.259 109.84 159.599C109.84 159.599 110.104 152.012 110.104 147.592C110.104 143.172 113.333 132.948 113.301 130.242C113.268 127.536 104.23 118.105 101.33 110.652V96.2058H107.135V96.2091Z" fill="#3790F4"/>
<path d="M98.7734 97.1488C98.8222 97.1976 99.5149 99.1098 99.5149 99.1098C99.5149 99.1098 104.282 97.6269 108.305 98.1277L107.349 94.739L101.726 95.1032L98.7734 97.1488Z" fill="#EF9D59"/>
<path d="M90.7441 97.4969C90.7441 97.4969 88.9912 102.014 88.9912 106.895C88.9912 106.895 89.5506 107.884 90.6075 108.512C90.6075 108.512 95.5539 109.107 97.0076 108.248C97.0076 108.248 97.6678 100.199 99.0531 99.0807C100.439 97.9587 101.362 97.614 101.362 97.614L100.536 95.718L90.7441 97.4969Z" fill="#EA8021"/>
<path d="M90.2432 100.43C90.2432 100.43 93.6741 100.079 95.6969 100.652" stroke="white" stroke-width="1.3" stroke-miterlimit="10" stroke-linecap="round" stroke-linejoin="round"/>
<path d="M95.4076 100.651C95.4076 100.651 94.5816 101.949 94.897 102.294C95.2092 102.642 95.4076 101.959 95.4076 100.651Z" fill="white"/>
<path d="M88.9912 106.895C88.9912 106.895 91.6286 106.352 93.4433 106.551C95.258 106.749 95.8694 106.599 95.8694 106.599C95.8694 106.599 96.9588 107.442 97.0889 108.232" stroke="white" stroke-width="1.3" stroke-miterlimit="10" stroke-linecap="round" stroke-linejoin="round"/>
<path d="M111.775 81.7146C111.775 81.7146 105.915 86.2513 105.684 88.2968C105.453 90.3424 107.466 94.1668 109.974 92.0887C112.481 90.0107 113.86 84.1829 113.86 84.1829L111.775 81.7146Z" fill="#DBA59C"/>
<path d="M111.71 82.3291C109.495 84.0884 106.269 87.0576 106.123 88.3454L105.238 88.2446C105.482 86.0755 110.884 81.838 111.499 81.3632L111.837 81.103L111.71 82.3291Z" fill="#CC948D"/>
<path d="M108.432 64.9795C108.432 64.9795 111.138 65.9649 111.479 67.6462C111.821 69.3275 112.907 80.0626 113.632 81.4155C113.632 81.4155 110.585 82.7651 108.276 82.6708C105.967 82.5798 108.432 64.9795 108.432 64.9795Z" fill="white"/>
<path d="M112.322 54.5205C112.322 54.5205 111.564 59.1743 109.45 62.2345C108.978 62.9174 108.029 63.067 107.352 62.5857L105.108 60.9857C104.556 60.5922 104.269 59.9223 104.367 59.2491L104.539 58.0523L105.258 55.7076C105.258 55.7076 106.887 55.301 107.3 53.9709L112.322 54.5205Z" fill="#EFC6BD"/>
<path d="M104.722 58.4198C105.336 58.4198 105.834 57.6219 105.834 56.6376C105.834 55.6534 105.336 54.8555 104.722 54.8555C104.107 54.8555 103.609 55.6534 103.609 56.6376C103.609 57.6219 104.107 58.4198 104.722 58.4198Z" fill="#EFC6BD"/>
<path d="M104.376 57.4185L101.703 61.7958C101.703 61.7958 100.825 63.0283 99.4463 63.2657L99.5308 69.0284L107.433 68.6609L106.614 64.0852L106.061 63.8023L106.864 60.9795L104.376 57.4185Z" fill="#EFC6BD"/>
<path d="M107.72 51.5288L102.116 52.8979C102.116 52.8979 107.898 55.4475 114.256 56.1988C120.617 56.95 115.655 54.6931 112.998 52.7906C110.337 50.8849 107.72 51.5288 107.72 51.5288Z" fill="#1773C6"/>
<path d="M100.045 63.093C100.045 63.093 101.453 66.2443 104.299 66.0947C107.144 65.9451 106.618 64.0817 106.618 64.0817L108.432 64.9792C108.432 64.9792 108.881 69.2395 109.606 71.3273C110.331 73.4151 112.185 78.8168 108.858 82.1502C108.858 82.1502 106.91 86.1113 107.515 90.4398C108.123 94.7683 107.58 95.539 107.58 95.539L102.448 95.7016C102.448 95.7016 96.4711 99.7602 90.2466 97.9618C90.2466 97.9618 93.5409 86.9145 93.5409 81.4022C93.5409 75.89 91.9507 66.8102 93.1539 65.7142C94.3507 64.6215 100.045 63.093 100.045 63.093Z" fill="white"/>
<path d="M97.7881 76.1793L97.8206 78.5663L103.242 77.7923L102.952 75.4053L97.7881 76.1793Z" fill="#EA8021"/>
<path d="M110.325 86.3911C110.325 86.3911 111.993 85.8089 112.852 85.5911C113.71 85.3732 117.661 85.1553 117.661 85.1553C117.661 85.1553 117.974 86.0073 117.226 86.339C116.478 86.6675 113.84 87.0642 113.486 87.5488C113.131 88.0334 110.325 86.3911 110.325 86.3911Z" fill="#EFC6BD"/>
<path d="M110.829 91.988L120.692 82.1277L127.356 83.9326L117.691 93.0905L110.829 91.988Z" fill="#EA8021"/>
<path d="M86.8153 81.5518L85.4917 87.2982C84.7893 90.3486 87.4462 93.1162 90.5227 92.5405C93.443 91.9942 96.5878 91.4121 98.2073 91.1291C101.726 90.5145 107.928 89.4576 109.512 89.8966C111.095 90.3356 114.526 92.3162 115.977 92.404C117.427 92.4918 120.156 92.5991 120.946 92.8527C121.736 93.1064 121.203 92.2674 120.627 92.0527C120.627 92.0527 121.486 92.0365 121.931 92.1178C122.377 92.1991 122.013 91.1942 121.206 90.9145C121.206 90.9145 122.227 90.9145 122.526 90.947C122.826 90.9795 122.51 90.1047 121.372 89.7925C121.372 89.7925 121.967 89.6429 122.23 89.6787C122.494 89.7112 122.23 88.9698 120.894 88.508C119.557 88.0462 115.287 88.0462 113.983 87.4705C112.679 86.8949 111.707 86.1502 110.702 86.3161C109.697 86.4819 109.944 86.7128 106.809 86.7291C103.674 86.7453 92.7829 86.3388 92.7829 86.3388L93.1178 84.586L86.8153 81.5518Z" fill="#EFC6BD"/>
<path d="M114.852 75.9163L116.172 78.8106L121.011 80.6025L118.988 77.8708L114.852 75.9163Z" fill="#EF9D59"/>
<path d="M114.852 75.9163L111.291 82.6253L111.775 84.183L114.325 79.2561L115.05 80.3781L116.172 78.8106L114.852 75.9163Z" fill="#EA8021"/>
<path d="M116.504 80.6024C116.504 80.6024 117.408 80.7911 117.326 81.3016C117.245 81.8122 116.9 82.1081 116.621 82.1277C116.621 82.1277 116.549 82.9179 116 83.4805C115.45 84.0399 115.304 84.9862 114.692 85.0838C114.692 85.0838 114.234 85.7082 113.102 85.3927C111.97 85.0805 111.626 85.0285 111.476 84.5017C111.326 83.9748 110.816 82.7878 111.03 82.2935C111.245 81.7992 111.554 81.6594 111.639 81.5553C111.723 81.4512 113.043 78.1048 113.522 78.3845C114 78.6642 114.279 79.604 113.951 80.4366C113.948 80.4366 115.398 80.3618 116.504 80.6024Z" fill="#EFC6BD"/>
<path d="M112.754 79.2006C112.754 79.2006 111.886 78.9014 111.541 79.5258C111.196 80.1502 111.691 81.9128 111.541 82.5892C111.391 83.2657 112.913 82.5242 112.79 81.4185C112.66 80.3128 112.5 79.6201 112.754 79.2006Z" fill="#EFC6BD"/>
<path d="M115.86 82.1274C115.86 82.1274 113.782 81.6005 113.352 81.7827C112.923 81.9648 114.474 82.625 115.05 82.5567C115.629 82.4884 115.86 82.1274 115.86 82.1274Z" fill="#DBA59C"/>
<path d="M101.479 52.6766C103.889 53.558 110.956 55.9222 113.665 54.4003C113.665 54.4003 116.039 50.9888 114.751 49.4506C113.46 47.9123 104.259 45.418 101.778 49.3758C101.365 50.036 101.069 50.875 100.887 51.4994C100.741 51.9872 101.004 52.501 101.479 52.6766Z" fill="#3790F4"/>
<path d="M115.05 80.3778L116.172 78.8103L121.011 80.6022L119.603 81.9616L115.05 80.3778Z" fill="#F4AD78"/>
<path d="M115.996 80.0787L116.393 79.5259L119.918 80.83L119.453 81.282L115.996 80.0787Z" fill="#EA8021"/>
<path d="M93.6936 65.3306C93.6936 65.3306 91.5634 66.2834 89.7618 71.516C87.9601 76.7486 84.7471 82.43 84.7471 82.43C84.7471 82.43 87.6935 82.5536 89.9797 84.4008C92.2659 86.248 95.0367 85.1487 95.0367 85.1487C95.0367 85.1487 95.8724 75.2982 96.357 73.451C96.8416 71.6038 97.5375 67.9843 93.6936 65.3306Z" fill="white"/>
<path d="M95.0399 85.1487C95.0399 85.1487 94.2464 85.4642 93.1602 85.4739C93.1147 85.7666 93.0659 86.0625 93.0171 86.3617C93.0171 86.3617 93.0171 86.365 93.0203 86.365C94.3147 86.3812 95.2675 86.0203 95.3716 85.978L95.8854 85.7731L95.931 85.2235C96.1228 82.9536 96.6302 77.4413 97.0139 74.8364C97.0497 74.5859 96.8708 74.355 96.6204 74.329C96.383 74.3063 96.1716 74.4689 96.1358 74.703C95.6513 77.9453 95.0399 85.1487 95.0399 85.1487Z" fill="#E1E8EF"/>
<path d="M109.833 71.9971C110.633 74.4069 111.873 79.1289 108.858 82.1501C108.858 82.1501 108.767 82.3387 108.627 82.6737C108.968 82.6672 109.32 82.6347 109.671 82.5827C112.832 79.1777 111.508 74.2085 110.679 71.7142C110.607 71.4996 110.386 71.376 110.165 71.4215C109.905 71.4735 109.749 71.7435 109.833 71.9971Z" fill="#E1E8EF"/>
<path d="M104.003 108.232C103.804 110.278 103.613 112.515 103.427 114.856C103.681 115.289 103.948 115.725 104.217 116.157C104.435 113.364 104.66 110.7 104.891 108.317C105.144 105.702 105.398 103.562 105.632 101.855C105.665 101.611 105.496 101.386 105.252 101.354C105.008 101.318 104.78 101.49 104.748 101.734C104.513 103.451 104.257 105.601 104.003 108.232Z" fill="#1773C6"/>
<path d="M203.549 170.129L205.019 174.698L206.899 176.578C207.449 177.127 207.449 178.022 206.899 178.575C206.349 179.124 205.455 179.124 204.902 178.575L203.022 176.695L200.974 170.334L203.549 170.129Z" fill="#1773C6"/>
<path d="M205.887 178.984H205.253L204.251 178.301L205.165 177.797L205.887 178.984Z" stroke="#FF00FF" stroke-width="0.25" stroke-miterlimit="10"/>
<path d="M202.798 170.129L204.268 174.698L206.144 176.578C206.694 177.127 206.694 178.022 206.144 178.575C205.595 179.124 204.7 179.124 204.147 178.575L202.271 176.695L200.222 170.334L202.798 170.129Z" fill="#3790F4"/>
<path d="M204.59 182.355C206.235 182.089 207.278 180.079 206.92 177.867C206.562 175.654 204.938 174.077 203.292 174.343C201.647 174.609 200.604 176.619 200.962 178.831C201.32 181.044 202.944 182.622 204.59 182.355Z" fill="#104768"/>
<path d="M201.263 174.324H203.952L204.407 182.389H201.458L201.263 174.324Z" fill="#104768"/>
<path d="M202.095 182.355C203.74 182.089 204.784 180.079 204.425 177.867C204.067 175.654 202.443 174.077 200.798 174.343C199.153 174.609 198.109 176.619 198.467 178.831C198.826 181.044 200.45 182.622 202.095 182.355Z" fill="#105A91"/>
<path d="M201.8 180.536C202.697 180.39 203.266 179.294 203.071 178.086C202.875 176.879 201.99 176.018 201.093 176.163C200.195 176.309 199.627 177.405 199.822 178.612C200.018 179.82 200.903 180.681 201.8 180.536Z" fill="#AED4FF"/>
<path d="M199.419 170.129L200.889 174.698L202.765 176.578C203.315 177.128 203.315 178.022 202.765 178.575C202.216 179.124 201.321 179.124 200.768 178.575L198.889 176.695L196.84 170.334L199.419 170.129Z" fill="#1773C6"/>
<path d="M201.757 178.984H201.119L200.118 178.301L201.035 177.797L201.757 178.984Z" fill="#1773C6"/>
<path d="M198.667 170.129L200.137 174.698L202.017 176.578C202.567 177.127 202.567 178.022 202.017 178.575C201.467 179.124 200.573 179.124 200.02 178.575L198.141 176.695L196.092 170.334L198.667 170.129Z" fill="#3790F4"/>
<path d="M169.532 170.958L171.002 175.527L172.882 177.407C173.431 177.956 173.431 178.851 172.882 179.404C172.332 179.953 171.438 179.953 170.885 179.404L169.005 177.524L166.957 171.163L169.532 170.958Z" fill="#1773C6"/>
<path d="M171.873 179.813H171.236L170.234 179.131L171.148 178.626L171.873 179.813Z" stroke="#FF00FF" stroke-width="0.25" stroke-miterlimit="10"/>
<path d="M168.784 170.958L170.254 175.527L172.134 177.407C172.683 177.956 172.683 178.851 172.134 179.404C171.584 179.953 170.69 179.953 170.137 179.404L168.257 177.524L166.208 171.163L168.784 170.958Z" fill="#3790F4"/>
<path d="M170.574 183.185C172.22 182.918 173.263 180.909 172.905 178.696C172.547 176.483 170.923 174.906 169.277 175.172C167.632 175.438 166.589 177.448 166.947 179.661C167.305 181.873 168.929 183.451 170.574 183.185Z" fill="#104768"/>
<path d="M167.246 175.15H169.936L170.391 183.215H167.441L167.246 175.15Z" fill="#104768"/>
<path d="M168.08 183.185C169.726 182.918 170.769 180.909 170.411 178.696C170.053 176.483 168.428 174.906 166.783 175.172C165.138 175.438 164.095 177.448 164.453 179.661C164.811 181.873 166.435 183.451 168.08 183.185Z" fill="#105A91"/>
<path d="M167.786 181.364C168.683 181.219 169.252 180.122 169.056 178.915C168.861 177.708 167.975 176.847 167.078 176.992C166.181 177.137 165.612 178.234 165.808 179.441C166.003 180.648 166.889 181.509 167.786 181.364Z" fill="#AED4FF"/>
<path d="M165.402 170.958L166.872 175.527L168.749 177.407C169.298 177.956 169.298 178.851 168.749 179.404C168.199 179.953 167.305 179.953 166.752 179.404L164.875 177.524L162.827 171.163L165.402 170.958Z" fill="#1773C6"/>
<path d="M167.744 179.813H167.106L166.104 179.131L167.018 178.626L167.744 179.813Z" fill="#1773C6"/>
<path d="M164.651 170.958L166.121 175.527L167.997 177.407C168.547 177.956 168.547 178.851 167.997 179.404C167.448 179.953 166.553 179.953 166 179.404L164.124 177.524L162.075 171.163L164.651 170.958Z" fill="#3790F4"/>
<path d="M125.49 164.831L126.96 169.4L128.836 171.277C129.386 171.826 129.386 172.721 128.836 173.273C128.286 173.823 127.392 173.823 126.839 173.273L124.963 171.397L122.914 165.036L125.49 164.831Z" fill="#1773C6"/>
<path d="M127.831 173.687H127.194L126.192 173.004L127.109 172.5L127.831 173.687Z" stroke="#FF00FF" stroke-width="0.25" stroke-miterlimit="10"/>
<path d="M124.742 164.831L126.212 169.4L128.088 171.277C128.638 171.826 128.638 172.721 128.088 173.273C127.538 173.823 126.644 173.823 126.091 173.273L124.215 171.397L122.166 165.036L124.742 164.831Z" fill="#3790F4"/>
<path d="M126.537 177.057C128.183 176.791 129.226 174.781 128.868 172.569C128.51 170.356 126.885 168.778 125.24 169.045C123.595 169.311 122.552 171.321 122.91 173.533C123.268 175.746 124.892 177.324 126.537 177.057Z" fill="#104768"/>
<path d="M123.207 169.026H125.896L126.348 177.091H123.398L123.207 169.026Z" fill="#104768"/>
<path d="M124.04 177.058C125.685 176.791 126.728 174.782 126.37 172.569C126.012 170.357 124.388 168.779 122.743 169.045C121.097 169.312 120.054 171.321 120.412 173.534C120.77 175.746 122.395 177.324 124.04 177.058Z" fill="#105A91"/>
<path d="M123.745 175.238C124.642 175.092 125.211 173.996 125.016 172.789C124.82 171.581 123.935 170.72 123.037 170.865C122.14 171.011 121.572 172.107 121.767 173.315C121.962 174.522 122.848 175.383 123.745 175.238Z" fill="#AED4FF"/>
<path d="M121.359 164.831L122.829 169.4L124.706 171.277C125.255 171.826 125.255 172.721 124.706 173.273C124.156 173.823 123.262 173.823 122.709 173.273L120.832 171.397L118.784 165.036L121.359 164.831Z" fill="#1773C6"/>
<path d="M123.701 173.687H123.064L122.062 173.004L122.976 172.5L123.701 173.687Z" fill="#1773C6"/>
<path d="M120.611 164.831L122.081 169.4L123.958 171.277C124.507 171.827 124.507 172.721 123.958 173.274C123.408 173.823 122.514 173.823 121.961 173.274L120.084 171.397L118.036 165.036L120.611 164.831Z" fill="#3790F4"/>
<path d="M172.931 173.329L115.313 165.147V163.091L172.931 171.27V173.329Z" fill="#BFCEDB"/>
<path d="M208.443 169.602L172.931 171.27V173.329L208.443 171.657V169.602Z" fill="#BFCEDB"/>
<path d="M115.313 163.091L126.084 162.717L186.303 166.522L208.443 169.602L172.931 171.27L115.313 163.091Z" fill="#9DB1BF"/>
<path d="M119.665 158.408L121.008 161.982C121.352 162.9 122.172 163.553 123.144 163.687L170.192 170.028C171.821 170.249 173.467 170.331 175.109 170.272L198.131 169.475C200.01 169.41 201.711 168.34 202.586 166.675L203.487 164.958L119.665 158.408Z" fill="#BFCEDB"/>
<path d="M179.045 86.7814C179.045 86.7814 180.804 82.0301 182.212 80.9764C183.62 79.9227 184.762 79.965 185.555 80.4041C186.346 80.8431 192.723 85.6367 192.944 87.3537C193.165 89.0676 197.035 107.673 197.035 107.673H173.285L179.045 86.7814Z" fill="#7DB8FB"/>
<path d="M192.534 86.4951C192.534 86.4951 186.609 83.4739 184.499 80.1145L185.497 76.3454C185.751 75.3925 186.869 74.9763 187.679 75.5389C189.884 77.0641 193.611 80.0983 194.795 83.8837C195.032 84.6382 194.674 85.4545 193.962 85.8024L192.534 86.4951Z" fill="#7DB8FB"/>
<path d="M194.057 84.1135C194.481 83.7313 193.168 81.5809 191.124 79.3103C189.08 77.0398 187.079 75.5089 186.654 75.8911C186.23 76.2732 187.543 78.4237 189.587 80.6942C191.631 82.9648 193.632 84.4957 194.057 84.1135Z" fill="#3790F4"/>
<path d="M188.71 85.4154C189.249 85.4154 189.686 84.9786 189.686 84.4397C189.686 83.9009 189.249 83.4641 188.71 83.4641C188.171 83.4641 187.734 83.9009 187.734 84.4397C187.734 84.9786 188.171 85.4154 188.71 85.4154Z" fill="#1773C6"/>
<path d="M188.866 85.4153C189.21 85.4153 189.49 85.1358 189.49 84.7909C189.49 84.4461 189.21 84.1665 188.866 84.1665C188.521 84.1665 188.241 84.4461 188.241 84.7909C188.241 85.1358 188.521 85.4153 188.866 85.4153Z" fill="#105A91"/>
<path d="M188.866 85.0024C188.866 85.0024 188.248 89.4643 189.041 93.2042" stroke="#1773C6" stroke-width="2" stroke-miterlimit="10" stroke-linecap="round"/>
<path d="M188.866 85.0024C188.866 85.0024 187.507 90.0497 188.085 94.1278" stroke="#1773C6" stroke-width="2" stroke-miterlimit="10" stroke-linecap="round"/>
<path d="M120.416 104.638C120.416 104.638 124.507 92.3944 126.045 89.1943C127.584 85.991 130.709 84.4105 132.95 83.991C135.193 83.5715 146.54 85.7341 146.54 85.7341L149.177 104.938L120.416 104.638Z" fill="#3790F4"/>
<path d="M133.567 84.4819C133.567 84.4819 131.948 84.1177 131.597 82.4364C131.245 80.755 130.93 78.9111 132.953 78.8233C134.975 78.7355 144.845 79.7274 147.203 80.8916C149.561 82.0559 148.387 83.8087 147.6 85.7437C146.81 87.6787 136.338 85.0413 133.567 84.4819Z" fill="#3790F4"/>
<path d="M147.203 81.4834C147.174 81.7143 143.961 81.3858 140.075 80.8948C136.188 80.4037 132.572 79.8216 132.601 79.5907C132.631 79.3598 136.24 79.4118 140.127 79.9029C144.013 80.3939 147.232 81.2525 147.203 81.4834Z" fill="#1773C6"/>
<path d="M140.035 84.7903C140.171 84.1582 139.848 83.5527 139.314 83.4379C138.781 83.3231 138.238 83.7424 138.102 84.3745C137.966 85.0066 138.288 85.6121 138.822 85.727C139.356 85.8418 139.899 85.4224 140.035 84.7903Z" fill="#1773C6"/>
<path d="M138.491 85.4868C138.996 85.4868 139.405 85.0777 139.405 84.573C139.405 84.0683 138.996 83.6592 138.491 83.6592C137.986 83.6592 137.577 84.0683 137.577 84.573C137.577 85.0777 137.986 85.4868 138.491 85.4868Z" fill="#105A91"/>
<path d="M138.494 84.8232C138.494 84.8232 138.758 87.62 137.262 90.5209C135.766 93.425 134.975 98.3942 135.548 100.902" stroke="#1773C6" stroke-width="3" stroke-miterlimit="10" stroke-linecap="round"/>
<path d="M138.494 84.8232C138.494 84.8232 140.78 86.6964 139.746 90.4786C138.712 94.2608 139.021 98.9243 139.636 100.902" stroke="#1773C6" stroke-width="3" stroke-miterlimit="10" stroke-linecap="round"/>
<path d="M138.511 93.0969L143.948 93.0286L145.129 104.112L139.636 104.421L138.511 93.0969Z" fill="white"/>
<path d="M139.493 93.9747L143.148 93.9292L144.146 103.276L140.439 103.481L139.493 93.9747Z" fill="#EF9D59"/>
<path d="M141.395 94.3097C141.395 94.3097 140.881 87.6267 144.78 86.0039" stroke="#1773C6" stroke-width="3" stroke-miterlimit="10" stroke-linecap="round"/>
<path d="M143.685 86.9145C143.685 86.9145 142.452 88.4528 142.761 91.8837C143.07 95.3147 142.54 100.856 139.639 105.299H166.544C166.544 105.299 165.061 93.8903 161.187 89.1942C157.317 84.495 158.371 79.5258 150.543 81.2429L143.685 86.9145Z" fill="#7DB8FB"/>
<path d="M140.352 86.0885C140.352 86.0885 141.802 88.2218 144.046 87.3535C146.29 86.4852 150.742 83.0543 151.269 81.5355C151.796 80.0168 150.709 76.7842 149.126 77.3794C147.542 77.9745 146.914 79.6558 144.144 81.5681C141.376 83.4835 139.298 84.8039 140.352 86.0885Z" fill="#7DB8FB"/>
<path d="M145.847 82.03C145.847 82.03 144.365 83.1747 143.288 84.2967C142.212 85.4187 140.67 85.7699 140.758 85.1553C140.846 84.5406 141.792 83.4316 143.617 82.4137C145.441 81.3958 146.365 80.4723 147.025 79.6137C147.685 78.7552 148.895 77.6137 149.356 78.095C149.818 78.5795 149.139 79.6657 148.15 80.3779C147.161 81.0902 146.482 81.5129 145.847 82.03Z" fill="#3790F4"/>
<path d="M150.627 82.4603C151.114 82.2127 151.27 81.5448 150.977 80.9685C150.684 80.3922 150.052 80.1257 149.565 80.3733C149.079 80.6208 148.922 81.2887 149.215 81.865C149.508 82.4413 150.14 82.7078 150.627 82.4603Z" fill="#1773C6"/>
<path d="M150.553 81.9683C151.058 81.9683 151.467 81.5592 151.467 81.0545C151.467 80.5498 151.058 80.1406 150.553 80.1406C150.048 80.1406 149.639 80.5498 149.639 81.0545C149.639 81.5592 150.048 81.9683 150.553 81.9683Z" fill="#105A91"/>
<path d="M150.742 81.4153C150.742 81.4153 153.49 83.5259 152.917 88.2316C152.345 92.9374 150.673 94.9179 150.895 97.5131" stroke="#1773C6" stroke-width="3" stroke-miterlimit="10" stroke-linecap="round"/>
<path d="M150.898 81.1973C150.898 81.1973 153.932 81.22 154.989 84.8819C156.046 88.5437 154.592 93.5584 155.692 95.8869" stroke="#1773C6" stroke-width="3" stroke-miterlimit="10" stroke-linecap="round"/>
<path d="M157.47 110.863L162.088 90.0137C162.088 90.0137 162.878 86.6478 166.771 85.5941C170.664 84.5372 179.636 82.9567 182.407 84.9339C185.178 86.9112 194.349 113.995 194.349 113.995L157.47 110.863Z" fill="#3790F4"/>
<path d="M166.29 86.9144L164.111 83.0249C163.617 82.1403 164.004 81.0216 164.94 80.6346C167.695 79.4899 173.301 77.5842 178.557 78.3842C179.753 78.5663 180.485 79.7988 180.075 80.9403L178.3 85.864L166.29 86.9144Z" fill="#3790F4"/>
<path d="M167.174 85.9564C167.31 85.3242 166.988 84.7187 166.454 84.6039C165.92 84.4891 165.377 84.9084 165.241 85.5405C165.105 86.1726 165.428 86.7781 165.962 86.893C166.495 87.0078 167.038 86.5885 167.174 85.9564Z" fill="#1773C6"/>
<path d="M165.63 86.6477C166.134 86.6477 166.543 86.2386 166.543 85.7339C166.543 85.2292 166.134 84.8201 165.63 84.8201C165.125 84.8201 164.716 85.2292 164.716 85.7339C164.716 86.2386 165.125 86.6477 165.63 86.6477Z" fill="#105A91"/>
<path d="M165.63 86.0071C165.63 86.0071 164.004 89.1584 164.069 93.0836C164.134 97.0089 164.771 100.999 164.716 102.615" stroke="#1773C6" stroke-width="3" stroke-miterlimit="10" stroke-linecap="round"/>
<path d="M165.63 86.0071C165.63 86.0071 165.819 89.786 166.443 93.1161C167.067 96.4463 167.695 101.89 167.399 102.879" stroke="#1773C6" stroke-width="3" stroke-miterlimit="10" stroke-linecap="round"/>
<path d="M175.415 90.3227L180.892 87.3535C180.892 87.3535 181.948 94.5666 184.027 100.372L177.825 103.738C177.825 103.738 175.62 96.5374 175.415 90.3227Z" fill="white"/>
<path d="M178.567 101.985C177.968 99.7471 176.879 95.2007 176.638 91.012L179.994 89.1941C180.401 91.5063 181.259 95.8381 182.58 99.8089L178.567 101.985Z" fill="#EF9D59"/>
<path d="M178.088 89.7176C178.088 89.7176 178.68 86.5403 176.966 84.1663" stroke="#1773C6" stroke-width="3" stroke-miterlimit="10" stroke-linecap="round"/>
<path d="M186.55 94.287C186.55 94.287 191.126 88.8137 193.542 86.3877" stroke="#3790F4" stroke-width="4" stroke-miterlimit="10" stroke-linecap="round"/>
<path d="M185.708 95.5457C185.708 95.5457 193.032 86.1211 195.77 84.4398C198.508 82.7585 199.341 81.9455 201.48 84.2837C203.62 86.622 205.812 87.6594 205.653 90.0367C205.494 92.4139 207.809 105.452 205.432 106.443C203.058 107.432 180.823 106.443 180.823 106.443L185.708 95.5457Z" fill="#7DB8FB"/>
<path d="M192.723 85.1846L198.934 87.5749C198.934 87.5749 197.351 95.3603 197.451 99.5815L190.755 97.2075C190.755 97.2075 191.656 89.2269 192.723 85.1846Z" fill="white"/>
<path d="M192.046 96.4042C192.284 94.4724 192.872 89.9618 193.565 86.7812L197.581 88.326C197.22 90.2415 196.466 94.5472 196.297 97.9131L192.046 96.4042Z" fill="#EF9D59"/>
<path d="M195.702 87.1455C195.702 87.1455 197.51 82.6739 201.477 84.2837" stroke="#1773C6" stroke-width="2" stroke-miterlimit="10" stroke-linecap="round"/>
<path d="M200.355 83.8479L201.139 81.5519C201.312 81.0446 201.936 80.8592 202.355 81.1942C203.403 82.0332 205.185 83.6723 206.541 86.0073C206.843 86.5276 206.645 87.2008 206.102 87.4642L204.317 88.3325L200.355 83.8479Z" fill="#7DB8FB"/>
<path d="M172.404 166.522L169.512 107.673L110.39 104.417L114.582 156.61C114.754 158.737 116.413 160.444 118.533 160.672L172.404 166.522Z" fill="white"/>
<path d="M134.709 162.431L132.139 162.151L128.068 103.738H130.621L134.709 162.431Z" fill="#E1E8EF"/>
<path d="M154.68 164.597L152.111 164.317L148.033 105.793H150.586L154.68 164.597Z" fill="#E1E8EF"/>
<path d="M192.017 106.882C192.304 106.882 192.537 106.434 192.537 105.881C192.537 105.327 192.304 104.879 192.017 104.879C191.73 104.879 191.497 105.327 191.497 105.881C191.497 106.434 191.73 106.882 192.017 106.882Z" stroke="#FF00FF" stroke-miterlimit="10"/>
<path d="M123.33 83.991C123.33 83.991 125.441 81.965 127.353 83.1877C129.265 84.4073 129.798 85.6431 132.465 84.8235" stroke="#1773C6" stroke-width="3" stroke-miterlimit="10" stroke-linecap="round"/>
<path d="M172.404 166.522L207.061 166.119C208.746 166.1 210.128 164.779 210.226 163.098L213.484 106.886L169.513 107.676L172.404 166.522Z" fill="#E1E8EF"/>
<path d="M193.721 166.272L191.168 166.301L193.055 108.037H195.604L193.721 166.272Z" fill="#BFCEDB"/>
<path d="M110.933 104.912L169.601 108.86C169.792 108.873 169.981 108.879 170.173 108.876L212.902 108.329C213.504 108.323 213.995 107.838 214.008 107.237L214.05 105.546C214.06 105.094 213.699 104.72 213.247 104.716L169.513 103.738L110.978 101.181C110.367 101.149 109.863 101.653 109.896 102.268L109.993 103.965C110.022 104.473 110.426 104.879 110.933 104.912Z" fill="#E1E8EF"/>
<path d="M129.339 106.079L129.112 101.975" stroke="#BFCEDB" stroke-width="2" stroke-miterlimit="10" stroke-linecap="round" stroke-linejoin="round"/>
<path d="M167.379 106.733C167.667 106.733 167.9 106.318 167.9 105.806C167.9 105.294 167.667 104.879 167.379 104.879C167.092 104.879 166.859 105.294 166.859 105.806C166.859 106.318 167.092 106.733 167.379 106.733Z" fill="#EF9D59"/>
<path d="M151.376 106.138C151.663 106.138 151.896 105.723 151.896 105.211C151.896 104.699 151.663 104.284 151.376 104.284C151.088 104.284 150.855 104.699 150.855 105.211C150.855 105.723 151.088 106.138 151.376 106.138Z" fill="#EF9D59"/>
<path d="M147.366 105.955C147.653 105.955 147.886 105.541 147.886 105.029C147.886 104.517 147.653 104.102 147.366 104.102C147.079 104.102 146.846 104.517 146.846 105.029C146.846 105.541 147.079 105.955 147.366 105.955Z" fill="#EF9D59"/>
<path d="M131.779 105.029C132.066 105.029 132.299 104.614 132.299 104.102C132.299 103.59 132.066 103.175 131.779 103.175C131.491 103.175 131.258 103.59 131.258 104.102C131.258 104.614 131.491 105.029 131.779 105.029Z" fill="#EF9D59"/>
<path d="M127.772 104.808C128.06 104.808 128.293 104.393 128.293 103.881C128.293 103.369 128.06 102.954 127.772 102.954C127.485 102.954 127.252 103.369 127.252 103.881C127.252 104.393 127.485 104.808 127.772 104.808Z" fill="#EF9D59"/>
<path d="M112.185 104.102C112.472 104.102 112.705 103.687 112.705 103.175C112.705 102.663 112.472 102.248 112.185 102.248C111.898 102.248 111.665 102.663 111.665 103.175C111.665 103.687 111.898 104.102 112.185 104.102Z" fill="#EF9D59"/>
<path d="M172.28 106.882C172.567 106.882 172.8 106.434 172.8 105.881C172.8 105.327 172.567 104.879 172.28 104.879C171.993 104.879 171.76 105.327 171.76 105.881C171.76 106.434 171.993 106.882 172.28 106.882Z" fill="#EF9D59"/>
<path d="M196.697 107.253C196.984 107.253 197.217 106.805 197.217 106.252C197.217 105.698 196.984 105.25 196.697 105.25C196.41 105.25 196.177 105.698 196.177 106.252C196.177 106.805 196.41 107.253 196.697 107.253Z" fill="#EF9D59"/>
<path d="M211.094 107.253C211.381 107.253 211.614 106.805 211.614 106.252C211.614 105.698 211.381 105.25 211.094 105.25C210.806 105.25 210.573 105.698 210.573 106.252C210.573 106.805 210.806 107.253 211.094 107.253Z" fill="#EF9D59"/>
<path d="M149.402 107.504L149.167 102.821" stroke="#BFCEDB" stroke-width="2" stroke-miterlimit="10" stroke-linecap="round" stroke-linejoin="round"/>
<path d="M169.601 108.863L169.275 103.728" stroke="#BFCEDB" stroke-width="2" stroke-miterlimit="10" stroke-linecap="round" stroke-linejoin="round"/>
<path d="M194.352 108.57L194.57 104.3" stroke="#BFCEDB" stroke-width="2" stroke-miterlimit="10" stroke-linecap="round" stroke-linejoin="round"/>
<path d="M193.035 108.57L195.588 108.554" stroke="#1773C6" stroke-miterlimit="10" stroke-linecap="round"/>
<path d="M110.413 104.726C110.413 104.726 110.611 104.905 111.206 104.938L169.597 108.86L212.899 108.33C212.899 108.33 213.253 108.297 213.403 108.203" stroke="#BFCEDB" stroke-width="3" stroke-miterlimit="10" stroke-linecap="round" stroke-linejoin="round"/>
<path d="M208.404 102.616L207.92 104.596L213.335 104.726L212.759 100.076L208.404 102.616Z" fill="#514132"/>
<path d="M212.857 100.934C211.143 101.377 209.761 102.131 208.301 103.042L208.099 103.871C209.735 102.83 211.14 102.004 212.941 101.529L212.86 100.873V100.934H212.857Z" fill="#3A2C20"/>
<path d="M208.964 98.1638C208.964 98.1638 206.225 99.9134 205.038 101.1C203.851 102.287 202.069 104.596 201.409 105.123C200.749 105.65 202.466 106.668 205.302 104.938C208.138 103.208 210.053 101.657 212.856 100.931V97.0093L208.964 98.1638Z" fill="#514132"/>
<path d="M212.128 98.0398L208.001 98.8008C207.361 99.2366 206.512 99.8382 205.81 100.414L212.343 99.2073L212.128 98.0398Z" fill="#3A2C20"/>
<path d="M193.552 178.883L193.194 179.605C192.902 180.194 193.025 180.906 193.5 181.365L201.412 188.997V189.81C201.412 189.81 203.952 193.033 206.46 193.264C208.967 193.495 209.13 190.692 209.13 190.692L193.552 178.883Z" fill="white"/>
<path d="M213.748 177.078C213.748 177.078 212.603 180.948 212.21 183.719C211.813 186.49 209.702 188.997 209.702 188.997L200.993 183.036L203.94 178.353C203.94 178.353 206.401 178.968 206.844 177.781C207.286 176.594 208.118 170.743 208.118 170.743L213.748 177.078Z" fill="#514132"/>
<path d="M208.359 184.145C208.359 184.145 206.161 184.77 204.974 183.817C203.787 182.864 204.798 180.666 204.378 179.872C203.962 179.082 197.978 176.88 197.978 176.88C197.978 176.88 195.185 175.891 194.108 177.495C193.032 179.101 193.799 180.09 193.799 180.09C193.799 180.09 196.856 183.17 198.538 184.851C200.219 186.532 201.604 187.566 202.86 188.997C204.112 190.428 208.434 192.672 209.491 191.219C210.548 189.765 210.974 188.646 210.974 188.646L208.359 184.145Z" fill="#EA8021"/>
<path d="M205.916 187.189C206.661 187.882 208.128 188.981 210.551 189.765C211.035 189.921 211.559 189.677 211.76 189.209C212.118 188.376 212.583 186.854 212.655 184.48C212.671 183.973 212.258 183.553 211.751 183.553C210.356 183.55 207.669 183.833 205.858 185.83C205.497 186.22 205.526 186.828 205.916 187.189Z" fill="#EF9D59"/>
<path d="M198.726 176.639L206.896 177.618C206.896 177.618 206.668 178.35 205.852 178.789C205.035 179.228 204.905 180.109 203.676 179.866C202.447 179.622 198.2 178.896 197.913 178.064C197.803 177.735 197.822 177.436 197.887 177.192C197.985 176.828 198.346 176.597 198.726 176.639Z" fill="#EF9D59"/>
<path d="M253.771 181.872C253.771 181.872 254.035 182.708 252.981 183.697C251.924 184.685 246.119 193.547 243.833 194.188L242.402 190.142L251.791 180.048L253.771 181.872Z" fill="#5FA6F6"/>
<path d="M251.198 181.277C251.198 181.277 252.21 182.399 254.057 183.895C255.904 185.391 258.652 189.303 258.652 189.303L250.207 200.012C250.207 200.012 248.6 191.192 246.379 188.136L251.198 181.277Z" fill="#514132"/>
<path d="M242.841 203.489C242.841 203.489 242.083 202.861 242.116 200.585C242.148 198.308 246.174 198.045 247.163 197.518C248.152 196.991 248.815 194.074 248.815 194.074C248.815 194.074 250.132 194.682 251.586 195.014C253.036 195.342 253.631 193.859 253.531 192.506C253.433 191.153 259.04 188.022 259.04 188.022C259.04 188.022 262.37 189.869 262.669 191.287L255.049 205.898L247.882 205.16L242.841 203.489Z" fill="#EA8021"/>
<path d="M256.871 199.749H260.984C260.984 199.749 264.032 193.515 262.919 191.853C261.811 190.194 257.014 193.784 256.871 199.749Z" fill="#EF9D59"/>
<path d="M260.984 199.749L259.449 200.188C259.449 200.188 258.659 202.695 258.279 203.999C257.898 205.303 256.383 207.518 249.735 206.461L253.693 204.959L255.97 199.368L260.984 199.749Z" fill="#EFA66F"/>
<path d="M244.089 198.471C244.089 198.471 244.821 200.718 246.691 199.928C248.561 199.137 250.418 197.212 249.738 195.957C249.055 194.705 248.34 192.5 248.34 192.5C248.34 192.5 247.319 192.757 247.55 193.788C247.781 194.818 248.09 195.69 247.67 196.337C247.25 196.984 243.917 197.937 244.089 198.471Z" fill="#EF9D59"/>
<path d="M232.747 95.7114C232.747 95.7114 234.285 101.871 233.082 110.928C231.56 122.408 229.28 131.816 227.468 141.937C225.657 152.057 215.725 180.597 215.725 180.597C215.725 180.597 209.92 179.277 205.302 170.041C205.302 170.041 213.546 150.512 217.67 130.06C221.794 109.608 222.717 97.074 222.717 97.074L232.747 95.7114Z" fill="white" stroke="#5FA6F6" stroke-width="3" stroke-miterlimit="10"/>
<path d="M213.484 101.715L218.369 142.639C218.798 146.236 219.956 149.706 221.774 152.838C227.117 162.044 238.821 182.565 243.83 194.188C243.83 194.188 246.821 188.646 249.722 184.819C252.626 180.991 253.768 181.872 253.768 181.872C253.768 181.872 244.181 166.522 240.044 158.431C237.221 152.909 233.13 147.836 230.818 145.172C229.676 143.859 229.052 142.174 229.055 140.431L229.137 96.1538L213.484 101.715Z" fill="white" stroke="#5FA6F6" stroke-width="3" stroke-miterlimit="10" stroke-linecap="round" stroke-linejoin="round"/>
<path d="M227.075 73.4543L231.397 81.0675C232.87 83.6626 231.959 86.9602 229.361 88.4334L227.071 89.7278L220.297 77.7634L227.075 73.4543Z" fill="#514132"/>
<path d="M220.779 59.6946C220.779 59.6946 224.633 66.1304 230.668 73.4541C230.668 73.4541 230.47 77.5453 224.268 79.8217L220.779 59.6946Z" fill="#3790F4"/>
<path d="M204.974 51.8506C204.974 51.8506 207.185 64.8817 207.448 64.7809C207.712 64.6801 215.465 60.4914 215.465 60.4914L210.681 47.74L204.974 51.8506Z" fill="#514132"/>
<path d="M207.663 52.4524L208.287 49.8084L208.32 49.6751L208.291 49.5418L208.274 49.4702L207.653 49.919L207.087 52.3158C206.941 52.9304 206.496 53.4313 205.9 53.6426L205.318 53.8508C205.351 54.0394 205.387 54.2378 205.422 54.4459L206.102 54.202C206.886 53.9191 207.471 53.2654 207.663 52.4524Z" fill="#3A2C20"/>
<path d="M204.974 59.7012C204.974 59.7012 205.887 65.6688 206.151 65.5712C206.414 65.4736 216.558 60.215 216.558 60.215L214.941 55.906L204.974 59.7012Z" fill="white"/>
<path d="M204.466 73.9845C207.381 73.9845 209.744 71.6214 209.744 68.7064C209.744 65.7913 207.381 63.4282 204.466 63.4282C201.551 63.4282 199.188 65.7913 199.188 68.7064C199.188 71.6214 201.551 73.9845 204.466 73.9845Z" fill="#3790F4"/>
<path d="M189.686 98.4919C189.686 98.4919 187.624 100.111 183.445 104.463C183.445 104.463 185.952 105.562 189.383 104.417L192.726 104.372L191.494 102.216L189.686 98.4919Z" fill="#514132"/>
<path d="M199.891 41.7173C200.826 41.7173 201.585 40.9587 201.585 40.0229C201.585 39.0872 200.826 38.3286 199.891 38.3286C198.955 38.3286 198.196 39.0872 198.196 40.0229C198.196 40.9587 198.955 41.7173 199.891 41.7173Z" fill="#25272B"/>
<path d="M199.891 39.1284C200.826 39.1284 201.585 38.3698 201.585 37.4341C201.585 36.4983 200.826 35.7397 199.891 35.7397C198.955 35.7397 198.196 36.4983 198.196 37.4341C198.196 38.3698 198.955 39.1284 199.891 39.1284Z" fill="#25272B"/>
<path d="M201.585 37.4375C202.521 37.4375 203.279 36.6789 203.279 35.7432C203.279 34.8074 202.521 34.0488 201.585 34.0488C200.649 34.0488 199.891 34.8074 199.891 35.7432C199.891 36.6789 200.649 37.4375 201.585 37.4375Z" fill="#25272B"/>
<path d="M204.327 36.647C205.262 36.647 206.021 35.8884 206.021 34.9526C206.021 34.0169 205.262 33.2583 204.327 33.2583C203.391 33.2583 202.632 34.0169 202.632 34.9526C202.632 35.8884 203.391 36.647 204.327 36.647Z" fill="#25272B"/>
<path d="M207.153 36.4358C208.089 36.4358 208.847 35.6772 208.847 34.7415C208.847 33.8057 208.089 33.0471 207.153 33.0471C206.217 33.0471 205.458 33.8057 205.458 34.7415C205.458 35.6772 206.217 36.4358 207.153 36.4358Z" fill="#25272B"/>
<path d="M212.209 38.3415C213.145 38.3415 213.904 37.583 213.904 36.6472C213.904 35.7115 213.145 34.9529 212.209 34.9529C211.274 34.9529 210.515 35.7115 210.515 36.6472C210.515 37.583 211.274 38.3415 212.209 38.3415Z" fill="#25272B"/>
<path d="M213.387 40.6374C214.322 40.6374 215.081 39.8789 215.081 38.9431C215.081 38.0074 214.322 37.2488 213.387 37.2488C212.451 37.2488 211.692 38.0074 211.692 38.9431C211.692 39.8789 212.451 40.6374 213.387 40.6374Z" fill="#25272B"/>
<path d="M213.771 43.4114C214.706 43.4114 215.465 42.6528 215.465 41.717C215.465 40.7813 214.706 40.0227 213.771 40.0227C212.835 40.0227 212.076 40.7813 212.076 41.717C212.076 42.6528 212.835 43.4114 213.771 43.4114Z" fill="#25272B"/>
<path d="M213.491 45.9839C214.426 45.9839 215.185 45.2253 215.185 44.2896C215.185 43.3538 214.426 42.5952 213.491 42.5952C212.555 42.5952 211.796 43.3538 211.796 44.2896C211.796 45.2253 212.555 45.9839 213.491 45.9839Z" fill="#25272B"/>
<path d="M212.424 47.8669C213.36 47.8669 214.119 47.1084 214.119 46.1726C214.119 45.2368 213.36 44.4783 212.424 44.4783C211.489 44.4783 210.73 45.2368 210.73 46.1726C210.73 47.1084 211.489 47.8669 212.424 47.8669Z" fill="#25272B"/>
<path d="M210.951 49.9351C211.887 49.9351 212.645 49.1765 212.645 48.2407C212.645 47.305 211.887 46.5464 210.951 46.5464C210.015 46.5464 209.257 47.305 209.257 48.2407C209.257 49.1765 210.015 49.9351 210.951 49.9351Z" fill="#25272B"/>
<path d="M209.757 37.0894C210.693 37.0894 211.452 36.3308 211.452 35.395C211.452 34.4593 210.693 33.7007 209.757 33.7007C208.822 33.7007 208.063 34.4593 208.063 35.395C208.063 36.3308 208.822 37.0894 209.757 37.0894Z" fill="#25272B"/>
<path d="M211.657 49.779C211.657 49.779 211.653 49.805 211.64 49.8538C211.445 50.6896 210.541 51.1449 209.744 50.8327L207.429 49.9319L200.056 41.5545L198.798 38.7252L199.891 35.7398L202.704 34.4715L205.67 33.9219L208.733 34.0455L211.448 35.1316L213.904 37.4309L214.522 40.1951L214.717 43.1155L214.122 45.8538L212.648 47.844L211.657 49.779Z" fill="#25272B"/>
<path d="M201.838 64.1275L215.608 58.3681C217.891 57.4152 220.509 58.5144 221.422 60.8104C222.021 62.3161 222.652 64.2934 223.179 66.8235C224.697 74.1114 229.049 88.4303 234.46 96.3459C234.46 96.3459 231.426 99.4451 225.289 100.964C219.152 102.483 213.809 106.44 213.347 108.089C213.347 108.089 211.803 101.029 210.762 93.7084C209.721 86.388 201.838 64.1275 201.838 64.1275Z" fill="#3790F4"/>
<path d="M219.55 64.4882C219.95 64.3712 220.018 63.6102 219.706 62.7907C219.394 61.9776 218.818 61.4118 218.421 61.5223C218.025 61.6362 217.95 62.3874 218.259 63.2037C218.568 64.0265 219.15 64.6053 219.55 64.4882ZM218.714 62.2963C218.903 62.2411 219.179 62.5142 219.325 62.9012C219.475 63.2915 219.442 63.6525 219.251 63.7077C219.059 63.763 218.785 63.4899 218.636 63.0996C218.49 62.7094 218.522 62.3484 218.714 62.2963Z" fill="white"/>
<path d="M217.885 64.9729C218.288 64.8558 218.363 64.0883 218.051 63.2656C217.742 62.4493 217.166 61.8769 216.766 61.9907C216.366 62.1046 216.285 62.8623 216.59 63.6818C216.899 64.5079 217.481 65.09 217.885 64.9729ZM217.059 62.768C217.251 62.7127 217.524 62.9859 217.67 63.3761C217.816 63.7664 217.781 64.1306 217.589 64.1859C217.397 64.2412 217.12 63.968 216.974 63.5745C216.831 63.181 216.867 62.82 217.059 62.768Z" fill="white"/>
<path d="M216.408 65.9549C214.141 66.6151 213.65 71.0282 215.381 75.9291C217.169 80.9893 220.613 84.5861 222.984 83.7959C225.332 83.0154 225.638 78.2543 223.745 73.3242C221.914 68.5469 218.652 65.298 216.408 65.9549ZM221.127 69.3469C220.867 70.0786 220.971 71.1615 221.091 72.4071C221.26 74.1404 221.452 76.1307 220.789 78.0527C219.966 80.4332 218.197 79.9617 217.807 79.8218C217.712 79.6852 217.621 79.5454 217.53 79.4056C217.676 79.3893 217.852 79.36 218.041 79.3015C218.909 79.0218 220.044 78.121 219.878 75.3079C219.777 73.5973 219.54 72.2575 219.332 71.0835C219.062 69.5648 218.867 68.459 219.143 67.3729C219.81 67.8314 220.486 68.5078 221.127 69.3469ZM216.997 78.5047C217.062 78.4917 217.133 78.4755 217.211 78.4494C217.872 78.2413 218.867 77.5551 218.802 75.3307C218.756 73.7892 218.35 72.1599 217.959 70.5989C217.598 69.1517 217.257 67.7956 217.254 66.6737C217.686 66.6737 218.145 66.8037 218.613 67.0476C218.385 68.2086 218.594 69.4087 218.857 70.8916C219.055 72.0233 219.283 73.3177 219.377 74.947C219.569 78.3129 217.537 78.534 217.013 78.534C217.007 78.5275 217 78.5145 216.997 78.5047ZM216.701 66.7517C216.727 66.7452 216.753 66.7387 216.779 66.7322C216.854 67.9029 217.182 69.2298 217.504 70.5306C217.872 72.0071 218.255 73.5518 218.294 74.9404C218.356 77.2397 217.003 77.6006 216.554 77.6527C216.272 77.0641 216.011 76.4462 215.781 75.799C214.21 71.3632 214.646 67.3533 216.701 66.7517ZM222.659 82.9015C221.468 83.295 219.966 82.4593 218.587 80.8365C218.863 80.8657 219.198 80.8592 219.543 80.7454C220.171 80.5405 220.837 79.9974 221.27 78.7356C221.982 76.6608 221.764 74.4591 221.592 72.7128C221.475 71.5388 221.384 70.5924 221.595 69.9908C222.259 70.9762 222.87 72.1437 223.364 73.4412C225.065 77.9063 224.779 82.1991 222.659 82.9015Z" fill="white"/>
<path d="M200.057 41.5578L199.891 53.6035C199.875 54.6702 200.931 55.4247 201.936 55.0637L205.901 53.6425C206.496 53.4279 206.941 52.9303 207.088 52.3157L207.712 49.6717L207.153 47.1319C207.153 47.1319 205.439 46.605 205.702 43.2391C205.702 43.2391 203.328 43.6359 202.964 41.3269C202.961 41.3269 201.972 42.4814 200.057 41.5578Z" fill="#514132"/>
<path d="M199.991 46.4067L198.752 48.9043C198.593 49.2263 198.72 49.6165 199.042 49.7824L200.73 50.6507L199.991 46.4067Z" fill="#514132"/>
<path d="M209.337 47.9526C209.555 46.5998 209.157 45.4104 208.448 45.296C207.739 45.1816 206.987 46.1856 206.769 47.5385C206.55 48.8913 206.948 50.0808 207.658 50.1951C208.367 50.3095 209.119 49.3055 209.337 47.9526Z" fill="#514132"/>
<path d="M213.221 78.1633L217.432 91.6627C218.375 94.6839 216.466 97.8482 213.354 98.4206L191.318 102.486L189.686 98.4921L208.551 91.2432L204.775 83.3992L213.221 78.1633Z" fill="#514132"/>
<path d="M199.601 70.755L203.806 87.3536C203.806 87.3536 207.588 85.7276 211.722 84.9796C215.855 84.2316 217.263 81.0218 217.263 81.0218L209.009 66.0232L199.601 70.755Z" fill="#3790F4"/>
<path d="M242.841 203.489C242.841 203.489 242.402 204.809 243.742 205.183C245.081 205.557 248.073 206.393 250.207 206.458C252.34 206.523 254.714 205.401 255.244 203.313C255.771 201.225 256.278 199.859 256.278 199.859L256.874 199.749C256.874 199.749 259.335 190.822 262.922 191.853C262.922 191.853 262.945 191.15 261.14 190.532C259.339 189.918 256.851 192.513 255.641 197.921C254.431 203.329 253.608 205.248 251.491 205.193C249.374 205.138 242.841 203.489 242.841 203.489Z" fill="white"/>
<path d="M260.181 188.727C260.181 188.727 255.66 183.456 253.508 184.116C251.351 184.776 252.333 192.341 253.8 192.867C255.267 193.394 257.312 189.16 260.181 188.727Z" fill="#EF9D59"/>
<path d="M218.047 80.5927L210.977 67.7469C210.85 67.5161 210.551 67.4445 210.333 67.5941C210.144 67.7242 210.086 67.9746 210.196 68.1762L217.266 81.0219C217.266 81.0219 216.622 82.4854 214.935 83.6659L215.211 84.557C217.24 83.2334 218.034 81.487 218.079 81.3829L218.255 80.9797L218.047 80.5927Z" fill="#1773C6"/>
<path d="M220.778 59.6946C220.782 59.6978 220.782 59.7011 220.782 59.7011L220.778 59.6946Z" fill="#1773C6"/>
<path d="M221.426 60.8136C222.024 62.3193 222.655 64.2965 223.182 66.8267C223.823 69.9031 224.971 74.2317 226.486 78.8041C226.766 78.6447 227.026 78.4821 227.267 78.3195C225.79 73.8512 224.675 69.6332 224.05 66.6478C223.829 65.5844 223.579 64.5697 223.302 63.6038C222.414 62.2933 221.738 61.2428 221.312 60.5664C221.354 60.6445 221.393 60.7258 221.426 60.8136Z" fill="#1773C6"/>
<path d="M190.336 104.408C190.541 104.157 190.752 103.887 190.957 103.601C191.1 103.399 191.051 103.123 190.85 102.98C190.648 102.837 190.372 102.886 190.229 103.087C189.838 103.64 189.399 104.147 189.061 104.518C189.168 104.486 189.272 104.46 189.383 104.421L190.336 104.408Z" fill="#3A2C20"/>
<path d="M63.4199 112.83H84.6593" stroke="#1773C6" stroke-width="3" stroke-miterlimit="10"/>
<path d="M232.444 200.946H218.249L216.421 197.785H230.616L232.444 200.946Z" stroke="#7DB8FB" stroke-width="2" stroke-miterlimit="10"/>
<path d="M194.297 191.401H187.679C187.812 191.596 187.955 191.794 188.105 191.996H193.952L195.435 194.562H190.41C190.615 194.76 190.827 194.958 191.045 195.157H196.463L194.297 191.401Z" fill="#7DB8FB"/>
<path d="M91.014 176.75H82.9423C82.9066 176.948 82.887 177.147 82.8838 177.345H90.6725L92.1555 179.911H83.9472C84.1391 180.116 84.3537 180.314 84.5944 180.506H93.1831L91.014 176.75Z" fill="#7DB8FB"/>
<path d="M63.4199 107.604L84.6593 89.4643L84.7471 88.0464L63.4199 104.938V107.604Z" fill="#DCECFF"/>
<path d="M198.437 49.7107L199.757 54.5563C200.024 55.5384 201.1 56.0555 202.034 55.6522L206.154 53.8734C206.791 53.5969 207.237 53.0051 207.325 52.3156L207.591 50.1692L206.892 47.0017L202.16 47.5708C201.877 47.6033 201.588 47.5903 201.312 47.522L199.66 47.1318C199.334 47.0537 198.999 47.2131 198.853 47.509L198.606 48.0066C198.342 48.5334 198.284 49.1416 198.437 49.7107Z" fill="#EF9D59"/>
<path d="M105.616 55.584L105.704 56.1043C105.73 56.2604 105.814 56.397 105.941 56.4913L106.904 57.21C107.154 57.3986 107.46 57.5027 107.772 57.5092L109.356 57.5482C109.99 57.5645 110.605 57.7791 111.112 58.1596L111.213 58.2377C111.353 58.3418 111.398 58.5304 111.327 58.6897L109.59 62.4491C109.242 63.2004 108.318 63.48 107.613 63.0508L104.715 61.2849C104.413 61.0995 104.234 60.7645 104.247 60.4101L104.344 58.0783C104.348 58.0751 105.346 57.0116 105.616 55.584Z" fill="#1773C6"/>
<path d="M30.6163 56.4132L31.5821 58.6019C31.7317 58.9433 32.148 59.0734 32.4667 58.8783L34.0862 57.8897C34.4082 57.6945 34.5773 57.3173 34.5057 56.9466L34.2488 55.5774L33.8228 55.0278L32.2423 55.6913C31.9984 55.7921 31.7252 55.7986 31.4781 55.701L31.3024 55.6327C31.0585 55.5384 30.7821 55.6392 30.6585 55.8701L30.6293 55.9222C30.5545 56.0718 30.548 56.2539 30.6163 56.4132Z" fill="#1773C6"/>
</svg>
