<svg width="270" height="256" viewBox="0 0 270 256" fill="none" xmlns="http://www.w3.org/2000/svg">
    <g clip-path="url(#clip0_905_11879)">
        <path d="M4.43221 200.171C16.1316 232.427 55.8454 269.816 142.284 250.886C228.726 231.956 260.456 161.542 268.655 101.11C276.858 40.6833 243.501 -13.3393 159.659 2.9329C75.8166 19.2051 -22.129 126.948 4.43221 200.171Z"
              fill="#DCE3EF"/>
        <path d="M4.43278 200.171C16.1321 232.428 55.846 269.816 142.284 250.886C181.148 242.373 208.952 223.457 228.53 199.714H4.27283C4.32767 199.869 4.37794 200.02 4.43278 200.171Z"
              fill="#5B606A"/>
        <path d="M209.432 211.882C209.432 203.927 154.326 197.477 86.3462 197.477C55.0596 197.477 26.4967 198.844 4.77979 201.095C7.65892 208.707 12.101 216.576 18.3529 223.891C37.835 225.405 61.2109 226.288 86.3508 226.288C154.326 226.288 209.432 219.838 209.432 211.882Z"
              fill="#444953"/>
        <path d="M84.7833 221.946C97.4378 221.946 107.698 219.901 107.698 217.385C107.698 214.865 97.4378 212.824 84.7833 212.824C72.1288 212.824 61.869 214.865 61.869 217.385C61.869 219.901 72.1288 221.946 84.7833 221.946Z"
              fill="#2E333D"/>
        <path d="M4.27224 199.713H228.53C229.745 198.24 230.929 196.749 232.081 195.239H2.85095C3.27597 196.749 3.75125 198.236 4.27224 199.713Z"
              fill="#D1D6E0"/>
        <path d="M2.85054 195.243H232.085C235.334 190.989 238.337 186.593 241.111 182.096H0.391846C0.826001 186.565 1.63947 190.957 2.85054 195.243Z"
              fill="#F1F6FF"/>
        <path d="M212.896 187.024H196.85C196.718 187.024 196.608 186.914 196.608 186.781V185.079C196.608 184.947 196.713 184.837 196.85 184.837H212.896C213.028 184.837 213.138 184.947 213.138 185.079V186.781C213.138 186.918 213.028 187.024 212.896 187.024ZM197.093 186.543H212.658V185.322H197.093V186.543Z"
              fill="#D1D6E0"/>
        <path d="M230.889 193.144H214.843C214.711 193.144 214.601 193.034 214.601 192.901V191.199C214.601 191.067 214.706 190.957 214.843 190.957H230.889C231.021 190.957 231.131 191.062 231.131 191.199V192.901C231.131 193.034 231.021 193.144 230.889 193.144ZM215.085 192.659H230.651V191.437H215.085V192.659Z"
              fill="#D1D6E0"/>
        <path d="M229.266 183.391V185.093C229.266 185.226 229.376 185.335 229.508 185.335H239.06C239.165 185.175 239.27 185.015 239.371 184.855H229.746V183.634H240.152C240.253 183.474 240.353 183.313 240.454 183.153H229.508C229.376 183.153 229.266 183.259 229.266 183.391Z"
              fill="#D1D6E0"/>
        <path d="M164.243 194.21H148.197C148.065 194.21 147.955 194.1 147.955 193.968V192.266C147.955 192.133 148.06 192.023 148.197 192.023H164.243C164.375 192.023 164.485 192.129 164.485 192.266V193.968C164.485 194.105 164.375 194.21 164.243 194.21ZM148.439 193.73H164.005V192.508H148.439V193.73Z"
              fill="#D1D6E0"/>
        <path d="M74.0937 187.806H58.0482C57.9523 187.806 57.8792 187.728 57.8792 187.637V185.935C57.8792 185.839 57.9568 185.766 58.0482 185.766H74.0937C74.1897 185.766 74.2628 185.843 74.2628 185.935V187.637C74.2674 187.728 74.1897 187.806 74.0937 187.806ZM58.2219 187.463H73.9246V186.1H58.2219V187.463Z"
              fill="#D1D6E0"/>
        <path d="M103.064 192.22H87.0181C86.9221 192.22 86.849 192.142 86.849 192.051V190.349C86.849 190.253 86.9267 190.18 87.0181 190.18H103.064C103.16 190.18 103.233 190.257 103.233 190.349V192.051C103.237 192.147 103.16 192.22 103.064 192.22ZM87.1918 191.881H102.894V190.518H87.1918V191.881Z"
              fill="#D1D6E0"/>
        <path d="M56.3481 192.462H40.3026C40.2067 192.462 40.1335 192.384 40.1335 192.293V190.591C40.1335 190.495 40.2112 190.422 40.3026 190.422H56.3481C56.4441 190.422 56.5172 190.5 56.5172 190.591V192.293C56.5172 192.384 56.4395 192.462 56.3481 192.462ZM40.4717 192.119H56.1745V190.756H40.4717V192.119Z"
              fill="#D1D6E0"/>
        <path d="M268.632 66.8369H131.343V182.092H241.111C256.745 156.711 265.022 127.927 268.659 101.111C270.263 89.2804 270.277 77.6972 268.632 66.8369Z"
              fill="#DCE3EF"/>
        <path d="M268.632 66.8369H131.343V92.2951H269.564C270.168 83.5346 269.866 74.9799 268.632 66.8369Z"
              fill="#C4C9D3"/>
        <path d="M184.538 84.0746H188.829V85.7215H182.541V74.9893H184.533V84.0746H184.538Z" fill="#FAFFFF"/>
        <path d="M200.374 85.7215H198.833C198.66 85.7215 198.518 85.6757 198.408 85.5888C198.299 85.5019 198.216 85.3967 198.166 85.2686L197.366 83.0819H192.924L192.125 85.2686C192.083 85.383 192.006 85.4882 191.892 85.5797C191.777 85.6758 191.631 85.7215 191.466 85.7215H189.917L194.126 74.9893H196.165L200.374 85.7215ZM193.432 81.6683H196.85L195.548 78.0955C195.488 77.9354 195.424 77.7524 195.351 77.5374C195.278 77.3224 195.209 77.089 195.141 76.8374C195.072 77.089 195.004 77.3224 194.94 77.5419C194.871 77.7615 194.807 77.9491 194.743 78.1138L193.432 81.6683Z"
              fill="#FAFFFF"/>
        <path d="M206.146 84.1112C206.53 84.1112 206.877 84.0472 207.179 83.9191C207.481 83.791 207.741 83.608 207.951 83.3792C208.162 83.1459 208.321 82.8669 208.436 82.5329C208.545 82.199 208.6 81.8284 208.6 81.4167V74.9893H210.593V81.4167C210.593 82.0572 210.492 82.6473 210.287 83.1871C210.081 83.7269 209.784 84.1981 209.4 84.5915C209.016 84.985 208.545 85.2915 207.997 85.5111C207.449 85.7306 206.832 85.845 206.142 85.845C205.451 85.845 204.839 85.7352 204.286 85.5111C203.738 85.2915 203.272 84.985 202.888 84.5915C202.504 84.1981 202.211 83.7315 202.006 83.1871C201.8 82.6473 201.699 82.0572 201.699 81.4167V74.9893H203.692V81.4076C203.692 81.8193 203.747 82.1898 203.857 82.5238C203.966 82.8577 204.126 83.1368 204.336 83.3747C204.542 83.608 204.798 83.791 205.104 83.9191C205.415 84.0472 205.762 84.1112 206.146 84.1112Z"
              fill="#FAFFFF"/>
        <path d="M214.637 74.9984C214.696 75.0076 214.751 75.0213 214.797 75.0442C214.843 75.067 214.893 75.0991 214.934 75.1402C214.98 75.1814 215.03 75.2363 215.085 75.3049L220.711 82.4826C220.692 82.3088 220.679 82.1395 220.669 81.9748C220.66 81.8056 220.656 81.6546 220.656 81.5128V74.9893H222.415V85.7215H221.387C221.227 85.7215 221.099 85.694 220.994 85.6483C220.889 85.598 220.788 85.5111 220.688 85.383L215.08 78.2373C215.094 78.3974 215.108 78.5529 215.117 78.7085C215.126 78.864 215.126 79.0058 215.126 79.1339V85.7261H213.366V74.9938H214.413C214.504 74.9893 214.578 74.9938 214.637 74.9984Z"
              fill="#FAFFFF"/>
        <path d="M234.841 80.3554C234.841 81.1422 234.709 81.865 234.448 82.5238C234.188 83.1825 233.818 83.7452 233.342 84.221C232.867 84.6968 232.296 85.0627 231.629 85.3281C230.961 85.5888 230.221 85.7215 229.412 85.7215H225.317V74.9893H229.412C230.226 74.9893 230.961 75.1219 231.629 75.3873C232.296 75.6526 232.867 76.0231 233.342 76.4943C233.818 76.9655 234.183 77.5328 234.448 78.1915C234.709 78.8457 234.841 79.5685 234.841 80.3554ZM232.803 80.3554C232.803 79.7652 232.725 79.2391 232.566 78.768C232.406 78.3013 232.182 77.9033 231.889 77.5831C231.597 77.2583 231.245 77.0113 230.824 76.8374C230.408 76.6636 229.933 76.5767 229.412 76.5767H227.328V84.1295H229.412C229.933 84.1295 230.408 84.0426 230.824 83.8687C231.24 83.6949 231.597 83.4479 231.889 83.1231C232.182 82.8028 232.406 82.4048 232.566 81.9337C232.721 81.4716 232.803 80.9455 232.803 80.3554Z"
              fill="#FAFFFF"/>
        <path d="M239.205 81.5265V85.7215H237.213V74.9893H240.48C241.212 74.9893 241.838 75.067 242.359 75.2134C242.88 75.3644 243.309 75.5748 243.638 75.8493C243.972 76.1238 244.219 76.4486 244.374 76.8283C244.53 77.208 244.607 77.6243 244.607 78.0772C244.607 78.4386 244.552 78.7817 244.447 79.1019C244.342 79.4221 244.187 79.7149 243.986 79.9803C243.785 80.241 243.538 80.4697 243.245 80.671C242.953 80.8677 242.615 81.0279 242.24 81.1468C242.491 81.2886 242.711 81.4945 242.893 81.7644L245.576 85.7261H243.785C243.611 85.7261 243.465 85.6895 243.341 85.6209C243.218 85.5477 243.117 85.4516 243.035 85.3235L240.782 81.8879C240.7 81.7598 240.604 81.6683 240.503 81.6134C240.403 81.5585 240.252 81.5311 240.055 81.5311H239.205V81.5265ZM239.205 80.0946H240.449C240.823 80.0946 241.152 80.0489 241.431 79.9528C241.71 79.8613 241.938 79.7286 242.121 79.564C242.304 79.3993 242.436 79.2026 242.528 78.9738C242.615 78.7451 242.66 78.4935 242.66 78.2236C242.66 77.6792 242.482 77.2629 242.121 76.9701C241.76 76.6773 241.216 76.5309 240.48 76.5309H239.205V80.0946Z"
              fill="#FAFFFF"/>
        <path d="M257.527 80.3552C257.527 81.142 257.394 81.8694 257.134 82.5419C256.873 83.2144 256.503 83.7908 256.028 84.2803C255.553 84.7698 254.981 85.154 254.314 85.4285C253.647 85.703 252.906 85.8402 252.098 85.8402C251.289 85.8402 250.548 85.703 249.877 85.4285C249.205 85.154 248.633 84.7743 248.158 84.2803C247.678 83.7908 247.313 83.2098 247.052 82.5419C246.792 81.874 246.659 81.142 246.659 80.3552C246.659 79.5683 246.792 78.8364 247.052 78.1685C247.313 77.496 247.683 76.9196 248.158 76.4301C248.633 75.9406 249.209 75.5609 249.877 75.2818C250.548 75.0074 251.289 74.8701 252.098 74.8701C252.906 74.8701 253.647 75.0074 254.314 75.2864C254.981 75.5655 255.553 75.9452 256.028 76.4347C256.503 76.9242 256.869 77.5006 257.134 78.1685C257.399 78.841 257.527 79.5683 257.527 80.3552ZM255.484 80.3552C255.484 79.765 255.406 79.2389 255.251 78.7678C255.096 78.3011 254.872 77.9031 254.579 77.5783C254.287 77.249 253.935 77.0019 253.514 76.8281C253.094 76.6542 252.628 76.5673 252.102 76.5673C251.577 76.5673 251.106 76.6542 250.685 76.8281C250.265 77.0019 249.909 77.249 249.611 77.5783C249.314 77.9031 249.09 78.3011 248.935 78.7678C248.775 79.2344 248.697 79.765 248.697 80.3552C248.697 80.9453 248.775 81.4714 248.935 81.938C249.09 82.4046 249.319 82.8026 249.611 83.1274C249.904 83.4522 250.26 83.7039 250.685 83.8731C251.106 84.047 251.577 84.1339 252.102 84.1339C252.628 84.1339 253.094 84.047 253.514 83.8731C253.93 83.6993 254.287 83.4522 254.579 83.1274C254.872 82.8072 255.096 82.4092 255.251 81.938C255.406 81.4714 255.484 80.9453 255.484 80.3552Z"
              fill="#FAFFFF"/>
        <path d="M269.295 75.3095L266.124 81.252C266.042 81.4121 265.959 81.5768 265.886 81.7507C265.813 81.9245 265.74 82.0983 265.671 82.2768C265.603 82.1029 265.534 81.9336 265.461 81.7644C265.388 81.5951 265.31 81.4304 265.228 81.2703L262.025 75.3095C261.983 75.2363 261.942 75.1768 261.901 75.1311C261.855 75.0853 261.805 75.0533 261.755 75.035C261.705 75.0167 261.645 75.003 261.581 74.9984C261.517 74.9938 261.44 74.9893 261.353 74.9893H259.845V85.7215H261.604V78.7908C261.604 78.6582 261.599 78.5118 261.595 78.3562C261.586 78.2007 261.572 78.0406 261.554 77.8759L264.84 83.9831C264.913 84.1204 265.009 84.2256 265.128 84.3033C265.246 84.3811 265.384 84.4177 265.543 84.4177H265.818C265.978 84.4177 266.115 84.3811 266.234 84.3033C266.352 84.2256 266.448 84.1204 266.521 83.9831L269.734 77.9491C269.688 76.9747 269.629 76.0048 269.556 75.035C269.506 75.0533 269.465 75.0853 269.423 75.1265C269.378 75.1768 269.337 75.2363 269.295 75.3095Z"
              fill="#FAFFFF"/>
        <path d="M220.633 96.4531V182.091H241.112C246.34 173.605 250.745 164.74 254.429 155.691V96.4531H220.633Z"
              fill="#5B606A"/>
        <path d="M222.868 99.0977V179.448H242.711C246.262 173.436 249.411 167.247 252.199 160.952V99.0977H222.868Z"
              fill="#F1F6FF"/>
        <path d="M252.733 140.714H221.917V143.619H252.733V140.714Z" fill="#5B606A"/>
        <path d="M247.299 117.968H227.758V128.028H247.299V117.968Z" fill="#C4C9D3"/>
        <path d="M237.528 114.894C238.359 114.894 239.036 114.217 239.036 113.385C239.036 112.552 238.359 111.875 237.528 111.875C236.696 111.875 236.02 112.552 236.02 113.385C236.02 114.222 236.696 114.894 237.528 114.894Z"
              fill="#9BA0AA"/>
        <path d="M211.287 96.4531H135.063V174.653H211.287V96.4531Z" fill="#5B606A"/>
        <path d="M131.343 66.8369H52.5821C19.2481 101.6 -3.26859 144.671 0.392028 182.092H131.343V66.8369Z"
              fill="#C4C9D3"/>
        <path d="M208.71 99.0977H137.645V172.009H208.71V99.0977Z" fill="#F1F6FF"/>
        <path d="M202.188 149.639C202.188 149.639 202.087 150.988 202.028 152.091C201.969 153.193 201.667 154.145 201.329 154.749C200.986 155.353 200.017 157.022 199.697 156.935C199.377 156.849 200.419 154.703 200.401 154.328C200.387 153.953 200.022 154.04 199.798 154.392C199.578 154.744 198.006 156.519 197.654 156.611C197.303 156.698 197.609 156.007 197.906 155.568C197.906 155.568 197.156 155.801 197.024 155.627C196.891 155.449 198.258 154.026 198.285 153.806C198.313 153.587 196.905 154.703 196.585 154.538C196.261 154.378 198.285 153.116 198.742 152.278C199.195 151.441 199.976 149.337 199.976 149.337L202.188 149.639Z"
              fill="#444953"/>
        <path d="M202.129 150.489C202.129 150.489 202.659 151.766 202.924 152.278C203.189 152.79 203.395 153.22 203.642 153.582C203.888 153.939 203.285 153.902 202.883 153.582C202.481 153.266 201.896 152.735 201.745 152.735C201.603 152.735 202.129 150.489 202.129 150.489Z"
              fill="#444953"/>
        <path d="M203.043 147.764C203.043 147.764 202.846 148.962 202.563 149.671C202.279 150.38 200.346 149.735 199.972 149.438C199.597 149.141 200.534 146.936 200.534 146.936L203.043 147.764Z"
              fill="#C4C9D3"/>
        <path d="M207.284 188.56C207.284 188.56 207.238 188.867 207.466 189.251C207.69 189.631 210.108 189.516 210.597 189.338L210.51 188.35H207.558L207.284 188.56Z"
              fill="#A1A6B0"/>
        <path d="M207.284 186.269C207.284 186.269 206.813 187.339 207.284 188.56C207.284 188.56 208.499 189.013 210.117 188.734V186.342L207.284 186.269Z"
              fill="#5B606A"/>
        <path d="M209.007 186.675C207.567 186.675 206.301 186.245 205.954 186.117C205.689 182.855 205.918 178.413 206.164 173.715C206.397 169.237 206.64 164.602 206.466 160.618C206.137 153.102 206.416 145.041 206.461 143.879L212.649 143.097V149.542C212.636 149.643 211.351 161.395 210.785 167.091C210.245 172.526 211.662 184.694 211.817 185.966C211.036 186.437 210.09 186.675 209.007 186.675Z"
              fill="#FAFFFF"/>
        <path d="M212.48 143.284V149.524C212.42 150.055 211.173 161.487 210.62 167.072C210.085 172.466 211.424 184.086 211.634 185.874C210.898 186.295 210.016 186.51 209.006 186.51C207.709 186.51 206.552 186.153 206.109 185.998C205.858 182.754 206.086 178.367 206.328 173.724C206.561 169.241 206.804 164.602 206.63 160.613C206.315 153.357 206.561 145.594 206.621 144.03L212.48 143.284ZM212.813 142.904L206.296 143.728C206.296 143.728 205.94 152.443 206.296 160.627C206.653 168.811 205.245 179.854 205.794 186.236C205.794 186.236 207.265 186.844 209.006 186.844C209.989 186.844 211.054 186.652 211.995 186.048C211.995 186.048 210.382 172.859 210.953 167.104C211.525 161.349 212.818 149.542 212.818 149.542V142.904H212.813Z"
              fill="#A1A6B0"/>
        <path d="M213.961 190.541C213.961 190.541 215.734 190.248 215.78 189.823C215.825 189.398 215.601 189.439 215.601 189.439L212.96 188.057L210.922 184.59L208.5 184.411C208.5 184.411 207.933 185.079 208.312 185.72C208.691 186.36 210.09 186.753 210.09 186.753L211.685 190.038L212.814 190.404L213.961 190.541Z"
              fill="#A1A6B0"/>
        <path d="M209.897 188.235C209.897 188.235 209.728 187.412 209.244 186.927C208.755 186.442 207.804 185.559 208.668 185.312C209.532 185.06 211.351 186.309 211.689 187.764C212.027 189.219 212.658 190.641 213.965 190.541C213.965 190.541 211.561 190.66 210.679 190.028C209.792 189.397 210.048 188.729 209.897 188.235Z"
              fill="#C4C9D3"/>
        <path d="M215.729 189.494C215.729 189.494 216.09 188.721 215.574 188.176C215.062 187.632 214.033 187.385 214.033 187.385L211.986 183.272L209.797 183.007C209.797 183.007 208.522 183.446 208.504 184.416C208.504 184.416 210.615 184.521 211.424 186.118C212.233 187.719 212.877 189.846 213.668 189.965C214.458 190.088 215.729 189.494 215.729 189.494Z"
              fill="#5B606A"/>
        <path d="M211.918 184.631L213.124 187.307C213.225 187.531 213.49 187.632 213.714 187.531L214.034 187.385C214.034 187.385 214.166 187.211 214.057 186.959C213.952 186.703 213.006 184.631 213.006 184.631H211.918Z"
              fill="#A1A6B0"/>
        <path d="M213.531 185.01C213.202 184.996 212.16 184.891 211.091 184.04C210.894 183.88 210.702 183.725 210.515 183.574C209.482 182.723 208.582 181.986 207.298 181.812C207.805 180.815 210.003 176.552 212.727 171.862C215.839 166.505 217.128 164.291 216.397 162.864C216.292 162.654 216.013 162.173 215.588 161.45C213.444 157.772 207.796 148.088 207.7 144.117L214.985 143.417C215.387 144.588 218.513 153.738 220.88 162.58C221.182 163.701 221.104 164.913 220.67 165.989C219.536 168.784 217.48 173.816 216.474 176.144C215.195 179.104 213.769 184.155 213.531 185.01Z"
              fill="#FAFFFF"/>
        <path d="M214.875 143.596C215.419 145.183 218.43 154.049 220.724 162.622C221.017 163.711 220.944 164.882 220.519 165.92C219.385 168.715 217.329 173.752 216.323 176.072C215.09 178.912 213.728 183.679 213.403 184.828C212.996 184.791 212.105 184.631 211.191 183.899C210.995 183.743 210.803 183.583 210.62 183.432C209.628 182.618 208.76 181.9 207.554 181.671C208.212 180.385 210.309 176.346 212.873 171.931C216.017 166.52 217.32 164.278 216.547 162.768C216.438 162.553 216.159 162.073 215.734 161.346C213.627 157.727 208.111 148.267 207.878 144.255L214.875 143.596ZM215.103 143.234L207.535 143.957C207.476 148.596 215.574 161.611 216.25 162.928C216.927 164.251 215.72 166.364 212.581 171.767C209.441 177.169 207.037 181.945 207.037 181.945C208.637 182.064 209.619 183.075 210.986 184.164C212.178 185.116 213.33 185.175 213.6 185.175C213.636 185.175 213.659 185.175 213.659 185.175C213.659 185.175 215.222 179.457 216.634 176.209C217.649 173.867 219.742 168.729 220.834 166.048C221.287 164.932 221.364 163.697 221.053 162.535C218.494 153.001 215.103 143.234 215.103 143.234Z"
              fill="#A1A6B0"/>
        <path d="M224.865 135.315L226.058 134.501C226.058 134.501 229.755 132.584 230.44 132.424C231.126 132.269 232.415 132.955 232.533 133.129C232.652 133.302 232.671 133.856 232.671 133.856L230.381 135.979L226.684 136.61L225.61 137.319L224.865 135.315Z"
              fill="#444953"/>
        <path d="M213.632 122.744L213.285 128.151L208.97 127.497L210.798 122.744H213.632Z" fill="#444953"/>
        <path d="M213.325 123.984C213.073 123.97 212.836 123.856 212.671 123.664L211.899 122.749V122.744H211.501L211.488 122.877L211.597 123.005L212.37 123.92C212.603 124.194 212.945 124.364 213.306 124.382C213.375 124.386 213.448 124.386 213.526 124.391L213.549 123.993C213.471 123.993 213.398 123.988 213.325 123.984Z"
              fill="#2E333D"/>
        <path d="M214.889 119.273C215.341 119.273 215.702 118.907 215.702 118.454C215.702 118.001 215.337 117.635 214.889 117.635C214.436 117.635 214.071 118.001 214.071 118.454C214.071 118.907 214.436 119.273 214.889 119.273Z"
              fill="#2E333D"/>
        <path d="M214.756 118.123C215.282 118.123 215.702 117.698 215.702 117.176C215.702 116.65 215.277 116.229 214.756 116.229C214.235 116.229 213.81 116.655 213.81 117.176C213.81 117.703 214.235 118.123 214.756 118.123Z"
              fill="#2E333D"/>
        <path d="M213.253 117.282C213.833 117.282 214.304 116.811 214.304 116.23C214.304 115.649 213.833 115.178 213.253 115.178C212.672 115.178 212.202 115.649 212.202 116.23C212.202 116.811 212.672 117.282 213.253 117.282Z"
              fill="#2E333D"/>
        <path d="M211.328 117.209C211.968 117.209 212.484 116.692 212.484 116.052C212.484 115.411 211.968 114.895 211.328 114.895C210.688 114.895 210.172 115.411 210.172 116.052C210.176 116.688 210.693 117.209 211.328 117.209Z"
              fill="#2E333D"/>
        <path d="M209.368 118.11C210.058 118.11 210.615 117.552 210.615 116.861C210.615 116.17 210.058 115.612 209.368 115.612C208.677 115.612 208.12 116.17 208.12 116.861C208.12 117.552 208.677 118.11 209.368 118.11Z"
              fill="#2E333D"/>
        <path d="M208.362 120.036C209.084 120.036 209.669 119.45 209.669 118.727C209.669 118.004 209.084 117.419 208.362 117.419C207.64 117.419 207.055 118.004 207.055 118.727C207.055 119.45 207.64 120.036 208.362 120.036Z"
              fill="#2E333D"/>
        <path d="M208.513 121.802C209.153 121.802 209.669 121.285 209.669 120.645C209.669 120.004 209.153 119.487 208.513 119.487C207.873 119.487 207.357 120.004 207.357 120.645C207.361 121.285 207.878 121.802 208.513 121.802Z"
              fill="#2E333D"/>
        <path d="M209.244 123.224C209.797 123.224 210.249 122.776 210.249 122.222C210.249 121.669 209.801 121.216 209.244 121.216C208.691 121.216 208.239 121.664 208.239 122.222C208.239 122.78 208.691 123.224 209.244 123.224Z"
              fill="#2E333D"/>
        <path d="M210.177 124.364C210.624 124.364 210.985 124.002 210.985 123.554C210.985 123.106 210.624 122.744 210.177 122.744C209.729 122.744 209.368 123.106 209.368 123.554C209.368 124.002 209.729 124.364 210.177 124.364Z"
              fill="#2E333D"/>
        <path d="M206.634 133.366C206.634 133.366 207.237 134.816 206.908 136.674C206.575 138.536 205.007 142.342 205.889 143.925C205.889 143.925 205.099 145.841 205.231 145.924C205.364 146.002 208.823 145.658 210.848 146.07C212.872 146.482 215.349 146.734 216.341 145.379L214.289 127.886L207.393 128.572L206.634 133.366Z"
              fill="#9BA0AA"/>
        <path d="M212.612 132.84C212.489 132.891 212.425 133.028 212.457 133.156L214.993 142.346C215.176 143.001 215.601 143.54 216.159 143.879L216.077 143.156C215.816 142.909 215.61 142.589 215.505 142.205L212.969 133.014C212.928 132.859 212.759 132.776 212.612 132.84Z"
              fill="#777C86"/>
        <path d="M211.319 144.222C210.958 144.222 210.611 144.204 210.282 144.158C208.23 143.888 205.945 144.154 205.922 144.158L205.89 143.898C205.913 143.893 208.225 143.623 210.314 143.898C212.325 144.163 215.291 143.504 215.953 142.841L216.141 143.028C215.538 143.637 213.28 144.222 211.319 144.222Z"
              fill="#FAFFFF"/>
        <path d="M206.79 127.516C206.79 127.516 203.563 136.816 203.111 138.266C202.658 139.716 202.635 141.135 203.755 141.514C204.911 141.908 205.944 141.436 206.355 140.046C206.648 139.062 210.03 129.908 210.03 129.908L206.79 127.516Z"
              fill="#9BA0AA"/>
        <path d="M206.809 138.349C206.809 138.349 206.507 139.364 205.703 141.299C204.898 143.234 204.802 143.889 204.345 145.435C203.893 146.981 203.244 147.928 203.002 147.965C202.759 147.997 201.206 147.791 200.511 147.471C199.816 147.146 200.383 145.915 200.52 145.32C200.662 144.726 202.97 138.774 202.97 138.774L206.809 138.349Z"
              fill="#9BA0AA"/>
        <path d="M206.113 133.284L206.091 133.431L206.15 133.568C206.155 133.582 206.689 134.908 206.392 136.578C206.305 137.063 206.123 137.722 205.926 138.417C205.643 139.433 205.337 140.517 205.19 141.514C205.414 141.423 205.62 141.281 205.798 141.089C206.1 139.506 206.717 137.758 206.909 136.674C207.242 134.812 206.634 133.367 206.634 133.367L206.113 133.284Z"
              fill="#777C86"/>
        <path d="M224.137 135.571C224.137 135.571 225.065 134.789 225.741 134.432C226.418 134.076 227.464 135.828 227.556 136.299C227.647 136.77 225.504 137.836 225.504 137.836L224.137 135.571Z"
              fill="#C4C9D3"/>
        <path d="M210.852 123.997L211.634 122.867L214.952 118.727L214.559 116.984L211.52 116.051L209.783 116.641L208.019 119.056L208.791 121.6L209.975 123.421L210.852 123.997Z"
              fill="#2E333D"/>
        <path d="M214.81 118.124C214.81 118.124 215.537 121.043 215.729 123.28C215.761 123.646 215.477 123.961 215.112 123.975C214.586 123.993 213.85 124.012 213.329 123.984C213.078 123.97 212.84 123.856 212.676 123.664L211.904 122.749L212.036 121.491C212.036 121.491 212.863 120.965 212.616 119.84C212.616 119.84 213.197 119.634 213.124 118.938C213.119 118.934 214.49 119.272 214.81 118.124Z"
              fill="#444953"/>
        <path d="M215.249 120.137L215.925 121.225C216.058 121.436 215.999 121.71 215.793 121.848L215.245 122.218V120.137H215.249Z"
              fill="#444953"/>
        <path d="M211.749 122.845C212.091 122.745 212.228 122.191 212.059 121.61C211.886 121.029 211.47 120.645 211.127 120.745C210.784 120.846 210.647 121.4 210.816 121.981C210.99 122.562 211.406 122.946 211.749 122.845Z"
              fill="#444953"/>
        <path d="M216.337 128.435C216.337 128.435 216.894 128.97 217.296 129.409C217.698 129.848 217.963 130.589 218.059 131.687C218.155 132.785 218.571 139.322 218.571 139.322C218.571 139.322 223.987 135.425 224.476 135.132C224.965 134.839 225.298 135.32 225.298 135.32C225.298 135.32 226.318 137.191 226.199 137.895C226.121 138.376 221.556 141.459 218.64 143.385C217.465 144.158 215.88 143.563 215.505 142.209L211.977 129.409L215.244 127.886L216.337 128.435Z"
              fill="#9BA0AA"/>
        <path d="M216.337 128.436C216.337 128.436 214.519 127.983 212.503 130.197C210.488 132.411 209.158 133.802 207.398 133.857C205.639 133.916 205.461 132.8 205.913 130.275C206.366 127.749 206.685 126.125 208.961 126.084C211.233 126.048 215.986 126.299 216.337 128.436Z"
              fill="#C4C9D3"/>
        <path d="M210.035 126.088C208.801 126.61 208.664 127.781 208.517 129.217C208.371 130.654 207.608 131.775 207.215 132.433C206.822 133.092 207.16 133.856 207.16 133.856C207.16 133.856 206.712 133.847 206.493 133.737C206.493 133.737 206.155 133.033 206.552 132.374C206.95 131.711 207.709 130.599 207.859 129.158C208.006 127.717 208.019 126.601 209.253 126.079L210.035 126.088Z"
              fill="#FAFFFF"/>
        <path d="M209.431 103.233H137.284V106.029H209.427V103.233H209.431Z" fill="#C4C9D3"/>
        <path d="M206.018 103.453C205.894 103.453 205.78 103.394 205.711 103.298L203.819 100.681L201.927 103.298C201.854 103.394 201.74 103.453 201.621 103.453C201.498 103.453 201.384 103.394 201.315 103.298L199.428 100.686L197.54 103.298C197.398 103.494 197.069 103.494 196.923 103.298L195.036 100.681L193.148 103.293C193.007 103.49 192.678 103.49 192.531 103.293L190.644 100.681L188.756 103.293C188.683 103.394 188.569 103.449 188.45 103.449C188.327 103.449 188.213 103.389 188.144 103.293L186.257 100.681L184.369 103.293C184.296 103.394 184.182 103.449 184.063 103.449C183.94 103.449 183.825 103.389 183.757 103.293L181.869 100.681L179.982 103.293C179.84 103.49 179.511 103.49 179.37 103.293L177.482 100.681L175.595 103.293C175.453 103.49 175.124 103.49 174.978 103.293L173.09 100.681L171.203 103.293C171.061 103.49 170.732 103.49 170.586 103.293L168.699 100.681L166.811 103.293C166.669 103.49 166.34 103.49 166.194 103.293L164.307 100.681L162.419 103.293C162.346 103.394 162.232 103.449 162.113 103.449C161.99 103.449 161.875 103.389 161.807 103.293L159.919 100.681L158.032 103.293C157.959 103.394 157.845 103.449 157.726 103.449C157.602 103.449 157.488 103.389 157.42 103.293L155.532 100.681L153.645 103.293C153.503 103.49 153.174 103.49 153.028 103.293L151.14 100.681L149.253 103.293C149.18 103.394 149.066 103.449 148.947 103.449C148.823 103.449 148.709 103.389 148.641 103.293L146.753 100.681L144.866 103.293C144.724 103.49 144.395 103.49 144.249 103.293L142.361 100.681L140.474 103.293C140.401 103.394 140.286 103.449 140.168 103.449C140.044 103.449 139.93 103.389 139.861 103.293L137.668 100.251C137.544 100.082 137.586 99.8438 137.755 99.7203C137.924 99.5968 138.161 99.6334 138.285 99.8072L140.168 102.419L142.055 99.8072C142.197 99.6105 142.526 99.6105 142.672 99.8072L144.559 102.419L146.447 99.8072C146.589 99.6105 146.918 99.6105 147.064 99.8072L148.951 102.419L150.839 99.8072C150.98 99.6105 151.309 99.6105 151.456 99.8072L153.343 102.419L155.231 99.8072C155.372 99.6105 155.701 99.6105 155.847 99.8072L157.735 102.419L159.622 99.8072C159.695 99.7066 159.81 99.6517 159.929 99.6517C160.052 99.6517 160.166 99.7111 160.235 99.8072L162.122 102.419L164.01 99.8072C164.151 99.6105 164.48 99.6105 164.627 99.8072L166.514 102.419L168.401 99.8072C168.543 99.6105 168.872 99.6105 169.018 99.8072L170.906 102.419L172.793 99.8072C172.935 99.6105 173.264 99.6105 173.41 99.8072L175.298 102.419L177.185 99.8072C177.327 99.6105 177.656 99.6105 177.802 99.8072L179.689 102.419L181.577 99.8072C181.65 99.7066 181.764 99.6517 181.883 99.6517C182.007 99.6517 182.121 99.7111 182.189 99.8072L184.077 102.419L185.964 99.8072C186.037 99.7066 186.152 99.6517 186.27 99.6517C186.394 99.6517 186.508 99.7111 186.577 99.8072L188.464 102.419L190.351 99.8072C190.493 99.6105 190.822 99.6105 190.968 99.8072L192.856 102.419L194.743 99.8072C194.885 99.6105 195.214 99.6105 195.36 99.8072L197.248 102.419L199.135 99.8072C199.277 99.6105 199.606 99.6105 199.752 99.8072L201.639 102.419L203.531 99.8072C203.673 99.6105 204.002 99.6105 204.148 99.8072L206.04 102.419L207.932 99.8072C208.056 99.638 208.293 99.5968 208.463 99.7203C208.632 99.8438 208.673 100.082 208.549 100.251L206.351 103.293C206.255 103.394 206.141 103.453 206.018 103.453Z"
              fill="#5B606A"/>
        <path d="M212.905 94.9668H133.66V99.9075H212.905V94.9668Z" fill="#FAFFFF"/>
        <path d="M269.208 96.4531H263.893V126.312C265.977 117.831 267.54 109.377 268.66 101.11C268.87 99.5548 269.053 97.9994 269.208 96.4531Z"
              fill="#5B606A"/>
        <path d="M268.916 99.0977H266.471V114.501C267.335 109.999 268.061 105.53 268.66 101.111C268.752 100.438 268.834 99.7701 268.916 99.0977Z"
              fill="#F1F6FF"/>
        <path d="M262.485 94.9668V99.9075H268.819C269.029 98.256 269.207 96.6091 269.354 94.9668H262.485Z"
              fill="#FAFFFF"/>
        <path d="M267.11 99.8118C266.987 99.6425 266.749 99.6013 266.58 99.7249C266.411 99.8484 266.37 100.086 266.493 100.256L268.404 102.909C268.454 102.547 268.504 102.186 268.555 101.82L267.11 99.8118Z"
              fill="#5B606A"/>
        <path d="M266.114 103.233V106.029H267.942C268.088 105.095 268.225 104.162 268.362 103.233H266.114Z"
              fill="#C4C9D3"/>
        <path d="M123.565 174.653V96.4531H28.3064C22.5435 104.802 17.4936 113.366 13.312 122.003V174.653H123.565Z"
              fill="#9BA0AA"/>
        <path d="M131.342 62.8799H56.4572C47.9158 71.4117 40.0141 80.5016 32.9945 89.9255H131.342V62.8799Z"
              fill="#D1D6E0"/>
        <path d="M131.342 89.9209H32.9947C32.7022 90.3143 32.4052 90.7123 32.1127 91.1057H131.342V89.9209Z"
              fill="#9BA0AA"/>
        <path d="M120.987 172.009V99.0977H26.5105C22.5986 104.949 19.0431 110.896 15.8943 116.893V172.009H120.987Z"
              fill="#F1F6FF"/>
        <path d="M78.6826 51.045H105.253C105.696 49.5262 105.938 47.925 105.938 46.2644C105.938 39.2971 101.761 33.3134 95.7746 30.6738C86.5659 36.7719 77.6178 43.6202 69.1266 51.045H72.5953H78.6826Z"
              fill="#FAFFFF"/>
        <path d="M47.5284 108.421C56.3943 107.387 64.3279 89.0244 65.2511 67.3999C65.443 62.9487 65.3196 58.7125 64.9266 54.792C53.5746 65.1537 43.132 76.5309 34.0924 88.4618C36.1809 100.983 41.2446 109.153 47.5284 108.421Z"
              fill="#A1A6B0"/>
        <path d="M45.7509 100.584C45.7646 100.584 45.7783 100.589 45.792 100.589C45.9748 100.589 46.1347 100.452 46.1576 100.264L49.64 69.9521C49.3566 70.2587 49.0779 70.5606 48.7945 70.8671L45.4264 100.177C45.4081 100.383 45.5498 100.561 45.7509 100.584Z"
              fill="#F1F6FF"/>
        <path d="M57.5505 73.9648C57.4591 73.9648 57.3722 73.9511 57.29 73.9282C57.0752 73.8596 56.9198 73.704 56.8558 73.489C56.6685 72.8577 57.3631 71.9062 58.1492 71.2886C58.8164 70.7671 59.4653 70.5338 59.8903 70.6664C60.1051 70.735 60.2605 70.8906 60.3245 71.1056C60.5119 71.7369 59.8172 72.6884 59.0312 73.3015C58.4873 73.7315 57.9572 73.9648 57.5505 73.9648ZM57.555 73.2328C57.6921 73.2328 58.0623 73.1322 58.5787 72.7296C59.2917 72.1715 59.607 71.5676 59.6253 71.3618C59.4928 71.3389 59.118 71.4624 58.6016 71.865C57.8841 72.4231 57.5688 73.027 57.555 73.2328Z"
              fill="#F1F6FF"/>
        <path d="M72.2701 65.6334C72.3798 65.0708 71.283 64.3845 69.8297 64.1101C68.3719 63.831 67.106 64.0643 67.0008 64.6316C66.8912 65.1943 67.988 65.8759 69.4413 66.155C70.8945 66.4294 72.1604 66.1961 72.2701 65.6334Z"
              fill="#C4C9D3"/>
        <path d="M69.99 62.6552C70.9131 62.3807 71.5758 61.8683 71.4661 61.5069C71.361 61.1501 70.5247 61.0815 69.6015 61.3605C68.6784 61.635 68.0157 62.1474 68.1254 62.5088C68.2351 62.8656 69.0668 62.9296 69.99 62.6552Z"
              fill="#C4C9D3"/>
        <path d="M47.9074 82.2268C47.9714 82.2268 48.0399 82.2085 48.0994 82.1719C48.273 82.0667 48.3233 81.838 48.2182 81.6687L44.5119 75.6621C44.3428 75.8542 44.1737 76.0464 44.0092 76.2431L47.5921 82.053C47.6606 82.1628 47.784 82.2268 47.9074 82.2268Z"
              fill="#F1F6FF"/>
        <path d="M47.4412 90.0855C47.3407 90.0855 47.2447 90.0443 47.1716 89.9666C47.0345 89.8156 47.0436 89.5869 47.1899 89.4496L58.6013 78.8958C58.7521 78.7586 58.9806 78.7677 59.1177 78.9187C59.2548 79.0651 59.2457 79.2984 59.0949 79.4356L47.6834 89.9894C47.6194 90.0535 47.528 90.0855 47.4412 90.0855Z"
              fill="#F1F6FF"/>
        <path d="M32.0943 128.742C41.0836 124.693 43.9673 104.455 39.3652 81.7549C29.5259 93.8092 21.0804 106.545 14.559 119.473C20.3995 127.383 26.7793 131.139 32.0943 128.742Z"
              fill="#C4C9D3"/>
        <path d="M24.198 107.382C24.134 107.382 24.0746 107.368 24.0152 107.331C23.8415 107.231 23.7776 107.007 23.8781 106.833L32.1453 92.3081C32.2459 92.1297 32.4698 92.0702 32.6435 92.1709C32.8171 92.2715 32.8811 92.4957 32.7806 92.6695L24.5133 107.194C24.4494 107.318 24.326 107.382 24.198 107.382Z"
              fill="#F1F6FF"/>
        <path d="M239.142 14.8229C238.543 15.5731 238.022 16.392 237.597 17.2612C237.126 14.9967 235.901 13.0021 234.197 11.5291C233.013 10.8109 231.797 10.1292 230.554 9.47048C229.494 9.1228 228.361 8.93066 227.182 8.93066C221.579 8.93066 216.99 13.1806 216.579 18.5695C215.304 17.7141 213.759 17.2154 212.096 17.2154C207.7 17.2154 204.13 20.7105 204.13 25.0199C204.13 25.9211 204.286 26.7811 204.574 27.5863C203.326 27.266 202.005 27.0922 200.634 27.0922C193.217 27.0922 187.207 32.1381 187.207 38.3597C187.207 39.3249 187.354 40.2582 187.623 41.1548H200.634H213.645H246.641H260.858C255.818 30.7337 248.606 21.7261 239.142 14.8229Z"
              fill="#FAFFFF"/>
        <path d="M32.9168 169.594H0.108325C-0.371531 179.329 0.716144 188.798 3.61813 197.778H32.9168V169.594Z"
              fill="#444953"/>
        <path d="M155.139 169.594H110.471V197.778H155.139V169.594Z" fill="#444953"/>
        <path d="M187.093 151.629L168.515 142.63L139.706 107.483C137.083 104.285 133.171 102.433 129.035 102.433H24.3254C8.33938 127.346 -1.0978 153.848 0.108699 178.208C3.29403 176.085 7.11917 174.845 11.2322 174.845C22.3238 174.845 31.3131 183.844 31.3131 194.947C31.3131 195.907 31.24 196.854 31.112 197.783H112.934C112.802 196.854 112.733 195.912 112.733 194.947C112.733 183.844 121.723 174.845 132.814 174.845C143.906 174.845 152.895 183.844 152.895 194.947C152.895 195.907 152.822 196.854 152.694 197.783H189.766C195.666 197.783 200.451 192.993 200.451 187.087V172.938C200.437 163.857 195.25 155.581 187.093 151.629Z"
              fill="#A1A6B0"/>
        <path d="M132.801 211.365C141.864 211.365 149.212 204.013 149.212 194.942C149.212 185.87 141.864 178.519 132.801 178.519C123.739 178.519 116.395 185.87 116.395 194.942C116.395 204.013 123.739 211.365 132.801 211.365Z"
              fill="#A1A6B0"/>
        <path d="M132.801 203.122C137.316 203.122 140.977 199.457 140.977 194.937C140.977 190.418 137.316 186.758 132.801 186.758C128.286 186.758 124.63 190.422 124.63 194.937C124.63 199.462 128.29 203.122 132.801 203.122Z"
              fill="#C4C9D3"/>
        <path d="M27.6392 194.942C27.6392 185.87 20.2905 178.519 11.2327 178.519C7.10133 178.519 3.32646 180.051 0.442749 182.576C1.06885 188.61 2.38045 194.493 4.43698 200.171C5.76687 203.839 7.46236 207.572 9.54174 211.283C10.0993 211.337 10.6614 211.369 11.2327 211.369C20.2905 211.365 27.6392 204.013 27.6392 194.942Z"
              fill="#A1A6B0"/>
        <path d="M11.2284 203.122C15.7436 203.122 19.3997 199.457 19.3997 194.937C19.3997 190.418 15.739 186.758 11.2284 186.758C6.71318 186.758 3.05713 190.422 3.05713 194.937C3.05713 195.436 3.10283 195.926 3.18966 196.401C3.38617 197.06 3.59183 197.714 3.81119 198.368C5.10452 201.177 7.93795 203.122 11.2284 203.122Z"
              fill="#C4C9D3"/>
        <path d="M89.3766 146.82V113.901C89.3766 111.723 87.6079 109.948 85.428 109.948H19.7288C19.4729 110.392 19.217 110.836 18.9656 111.279H85.4326C86.8767 111.279 88.0512 112.455 88.0512 113.901V146.82C88.0512 148.266 86.8767 149.442 85.4326 149.442H3.18519C3.07551 149.885 2.96583 150.329 2.86072 150.768H85.4326C87.6079 150.768 89.3766 148.998 89.3766 146.82Z"
              fill="#F1F6FF"/>
        <path d="M178.492 161.14C178.433 161.14 178.369 161.131 178.309 161.112L158.165 155.394C156.743 154.991 155.605 153.976 155.048 152.603C154.486 151.236 154.586 149.712 155.317 148.427L155.907 147.388C156.09 147.068 156.492 146.958 156.812 147.141C157.132 147.324 157.241 147.727 157.059 148.047L156.469 149.085C155.943 150.014 155.87 151.112 156.277 152.105C156.679 153.093 157.502 153.825 158.53 154.118L178.675 159.836C179.027 159.937 179.232 160.303 179.132 160.655C179.045 160.952 178.78 161.14 178.492 161.14Z"
              fill="#F1F6FF"/>
        <path d="M111.207 187.426H97.1909C96.8253 187.426 96.5282 187.128 96.5282 186.762V110.342C96.5282 109.976 96.8253 109.679 97.1909 109.679H123.903C126.654 109.679 129.273 111.005 130.9 113.229L142.535 129.107C142.617 129.222 142.663 129.359 142.663 129.501V163.569C142.663 163.761 142.581 163.944 142.434 164.072C142.288 164.2 142.096 164.25 141.904 164.227C141.845 164.218 136.004 163.413 129.419 165.806C120.617 169.008 114.703 176.112 111.847 186.927C111.769 187.22 111.509 187.426 111.207 187.426ZM97.8535 186.094H110.695C114.475 172.402 122.724 166.812 129.017 164.538C134.565 162.53 139.491 162.677 141.333 162.832V129.72L129.826 114.02C128.445 112.14 126.229 111.015 123.898 111.015H97.8535V186.094Z"
              fill="#F1F6FF"/>
        <path d="M119.516 145.014H103.219C102.026 145.014 101.057 144.044 101.057 142.85V116.875C101.057 115.681 102.026 114.711 103.219 114.711H119.516C120.709 114.711 121.677 115.681 121.677 116.875V142.85C121.677 144.044 120.709 145.014 119.516 145.014Z"
              fill="#DCE3EF"/>
        <path d="M136.869 145.014H132.623C128.83 145.014 125.754 141.935 125.754 138.138V117.511C125.754 116.546 126.956 116.097 127.587 116.829L140.292 131.519V141.583C140.296 143.481 138.761 145.014 136.869 145.014Z"
              fill="#DCE3EF"/>
        <path d="M113.684 152.832H101.715C101.35 152.832 101.053 152.534 101.053 152.168C101.053 151.802 101.35 151.505 101.715 151.505H113.684C114.05 151.505 114.347 151.802 114.347 152.168C114.347 152.534 114.05 152.832 113.684 152.832Z"
              fill="#F1F6FF"/>
        <path d="M140.963 154.616H135.694V131.812H140.963C143.162 131.812 144.949 133.596 144.949 135.801V150.632C144.949 152.828 143.166 154.616 140.963 154.616Z"
              fill="#5B606A"/>
        <path d="M136.983 133.87H135.694V153.647H136.983C138.048 153.647 138.912 152.782 138.912 151.711V135.801C138.912 134.735 138.048 133.87 136.983 133.87Z"
              fill="#FAFFFF"/>
        <path d="M144.948 158.111C144.939 158.111 144.935 158.111 144.926 158.111C144.56 158.102 144.272 157.791 144.281 157.425C144.496 150.375 150.442 145.448 152.375 144.03L141.475 129.903C141.251 129.611 141.306 129.194 141.594 128.97C141.886 128.746 142.302 128.801 142.526 129.089L153.851 143.769C153.965 143.916 154.011 144.103 153.979 144.286C153.947 144.469 153.842 144.629 153.686 144.735C153.609 144.785 145.84 149.931 145.611 157.466C145.602 157.827 145.305 158.111 144.948 158.111Z"
              fill="#F1F6FF"/>
        <path d="M158.165 140.242L134.968 112.277C134.328 111.508 134.876 110.342 135.877 110.342H142.275L168.516 142.63H163.247C161.282 142.63 159.422 141.756 158.165 140.242Z"
              fill="#DCE3EF"/>
        <path d="M152.681 197.779H189.753C195.653 197.779 200.438 192.989 200.438 187.083V181.543H155.286C153.129 181.543 151.082 182.371 149.519 183.803C151.644 186.991 152.882 190.82 152.882 194.942C152.882 195.903 152.809 196.85 152.681 197.779Z"
              fill="#5B606A"/>
        <path d="M31.3087 194.942C31.3087 195.902 31.2356 196.849 31.1076 197.778H112.93C112.797 196.849 112.729 195.907 112.729 194.942C112.729 193.665 112.852 192.416 113.081 191.204H30.9568C31.1853 192.416 31.3087 193.665 31.3087 194.942Z"
              fill="#5B606A"/>
        <path d="M182.157 164.374V172.315C182.157 173.354 182.998 174.2 184.04 174.2H200.433V172.933C200.433 170.71 200.117 168.537 199.528 166.46L184.703 162.425C183.423 162.077 182.157 163.043 182.157 164.374Z"
              fill="#FAFFFF"/>
        <path d="M193.71 174.201C195.008 174.201 196.059 172.138 196.059 169.594C196.059 167.05 195.008 164.987 193.71 164.987C192.413 164.987 191.361 167.05 191.361 169.594C191.361 172.138 192.413 174.201 193.71 174.201Z"
              fill="#C4C9D3"/>
        <path d="M197.572 174.201C198.408 174.201 199.08 172.874 199.08 171.241C199.08 169.608 198.403 168.281 197.572 168.281C196.74 168.281 196.064 169.608 196.064 171.241C196.064 172.874 196.735 174.201 197.572 174.201Z"
              fill="#A1A6B0"/>
        <path d="M97.1312 142.301C97.1312 142.301 99.0004 138.943 97.9584 133.975C96.9119 129.007 96.4686 122.296 96.4686 122.296C96.4686 122.296 97.1724 121.363 97.5791 120.677C97.9859 119.99 97.9219 119.629 98.0864 118.865C98.2509 118.096 98.4931 117.703 98.6896 117.378C98.8862 117.053 98.8862 116.514 98.1184 116.921C97.3506 117.328 97.1541 118.115 96.9896 118.522C96.8251 118.929 96.2401 119.272 96.2401 119.272C96.2401 119.272 95.7831 117.035 95.5866 116.527C95.3901 116.02 95.9293 112.836 95.8334 112.163C95.7374 111.495 95.3124 111.61 95.2438 112.296C95.2438 112.296 95.3763 111.285 95.0976 111.152C94.8188 111.019 94.6726 111.774 94.5583 112.428C94.4441 113.083 93.4341 116.038 93.4798 116.495C93.5255 116.953 94.2475 121.12 94.2475 122.003C94.2475 122.886 93.7768 134.803 93.7768 134.803L97.1312 142.301Z"
              fill="#FAFFFF"/>
        <path d="M93.7728 134.373L96.4874 139.606L96.6017 139.831C96.7159 140.046 96.981 140.133 97.1958 140.018C97.4106 139.908 97.4974 139.638 97.3832 139.423L97.2369 139.14L94.5497 133.966L93.7728 134.373Z"
              fill="#D1D6E0"/>
        <path d="M90.2721 138.65L93.7865 142.836C94.472 143.655 95.6831 143.778 96.5239 143.115C97.2689 142.529 97.4882 141.496 97.0541 140.649L94.0195 134.803L90.2721 138.65Z"
              fill="#FAFFFF"/>
        <path d="M87.9728 126.074L89.0605 126.221C89.8145 126.321 90.4772 126.751 90.8839 127.396C92.1772 129.455 94.5308 133.183 95.719 135.013C95.6596 135.114 94.22 137.493 91.3775 138.183L87.9728 126.074Z"
              fill="#FAFFFF"/>
        <path d="M80.8027 118.961C80.8027 118.961 80.1492 119.57 80.0624 120.942C79.9755 122.315 79.5597 124.341 78.7782 126.368C77.9967 128.395 77.2107 129.79 78.929 132.274L86.9814 129.41C86.9814 129.41 90.0982 125.759 90.4227 122.754C90.7472 119.748 89.5955 115.997 89.5955 115.997L81.15 118.417L80.8027 118.961Z"
              fill="#777C86"/>
        <path d="M89.6411 204.247C89.6411 204.247 90.121 207.646 90.0342 209.435C89.9473 211.223 89.2527 213.881 89.2527 213.881L95.3034 215.231L96.0301 210.917C96.0301 210.917 94.3894 210.35 94.0832 209.087C93.777 207.824 94.1838 204.037 94.1838 204.037L92.6391 203.071L89.6411 204.247Z"
              fill="#FAFFFF"/>
        <path d="M89.2524 212.179C89.2524 212.179 88.7589 213.863 88.6903 215.331C88.6766 215.565 88.8274 215.78 89.0559 215.844C89.842 216.072 91.7797 216.543 93.8956 216.406C96.6559 216.228 102.286 216.983 103.525 216.255C104.763 215.528 102.446 213.844 100.179 212.719C97.9081 211.594 96.1806 210.711 95.3809 210.496C94.5811 210.285 94.3343 211.004 94.5309 212.001C94.7274 212.998 94.8553 214.778 93.8956 214.206C92.9222 213.634 91.0302 212.033 89.2524 212.179Z"
              fill="#C4C9D3"/>
        <path d="M92.4286 148.202C92.4286 148.202 95.3032 168.683 95.911 175.833C96.5188 182.979 94.6039 197.97 94.1698 204.247C94.1698 204.247 91.1444 204.878 89.6408 204.247C89.6408 204.247 89.1838 199.105 88.7908 191.785C88.3978 184.466 90.5549 179.859 89.6408 176.213C88.7268 172.567 85.8751 149.556 85.8751 149.556L92.4286 148.202Z"
              fill="#777C86"/>
        <path d="M91.5473 155.673C91.3188 155.673 91.1268 155.847 91.1085 156.08C90.5967 162.622 89.9295 171.323 89.7741 174.31C89.7375 174.978 89.6964 175.605 89.6416 176.209C90.0803 177.942 89.8198 179.9 89.4679 182.256C90.1717 179.722 90.4962 177.403 90.6515 174.356C90.8069 171.396 91.4741 162.69 91.986 156.149C92.0088 155.888 91.8032 155.673 91.5473 155.673Z"
              fill="#5B606A"/>
        <path d="M78.4535 205.904L76.5798 210.478L77.1007 213.877L74.4547 217.144L71.7446 212.697L72.2016 209.724C72.2016 209.724 72.8369 209.431 73.3944 208.218C73.9474 207.011 75.1402 203.328 75.1402 203.328L77.1647 203.067L78.4535 205.904Z"
              fill="#FAFFFF"/>
        <path d="M72.206 209.728C72.206 209.728 71.1092 210.373 70.3231 212.088C70.186 212.39 70.1906 212.742 70.3369 213.044C70.7573 213.923 71.6896 215.867 72.206 217.015C72.8915 218.534 73.6273 219.435 75.5696 219.71C77.5118 219.984 80.0437 219.742 80.9074 219.074C81.7711 218.401 79.6506 217.129 78.6224 216.571C77.5941 216.013 77.3016 213.337 77.1691 212.957C77.0366 212.582 75.9763 212.893 75.5193 213.822C75.0623 214.755 74.0523 215.963 73.8055 214.833C73.5587 213.717 73.4445 210.02 72.206 209.728Z"
              fill="#C4C9D3"/>
        <path d="M80.3269 157.05C80.3269 157.05 81.5471 172.302 82.3285 176.922C83.11 181.543 78.7136 185.811 77.626 190.518C76.5383 195.226 75.5786 201.37 75.1444 203.332C75.1444 203.332 76.6251 205.336 78.4531 205.903C78.4531 205.903 85.1117 191.566 86.9443 186.904C88.7769 182.243 89.5127 179.32 89.7732 174.31C90.0337 169.296 91.7337 148.207 91.7337 148.207L81.7162 149.332L80.3269 157.05Z"
              fill="#777C86"/>
        <path d="M80.1259 149.913C80.1259 149.913 79.3261 150.467 79.1936 152.429C79.061 154.392 78.8005 157.31 78.8005 157.31L79.7603 158.642C79.7603 158.642 85.1164 158.596 86.2452 157.663C86.2452 157.663 87.3328 153.413 86.853 150.604C86.853 150.604 89.8372 148.728 91.2083 148.838C92.5793 148.948 92.9494 149.012 92.9494 149.012L92.6113 146.875L91.0346 145.896L80.1259 149.913Z"
              fill="#777C86"/>
        <path d="M80.1996 157.064C79.8385 157.064 79.6192 157.059 79.61 157.059C79.5278 157.055 79.4638 156.986 79.4684 156.908C79.4729 156.826 79.5278 156.771 79.6192 156.766C79.6512 156.766 82.6994 156.858 85.0347 156.346C85.1124 156.327 85.1901 156.378 85.2084 156.455C85.2266 156.533 85.1764 156.615 85.0941 156.629C83.3529 157.013 81.2141 157.064 80.1996 157.064Z"
              fill="#FAFFFF"/>
        <path d="M82.6622 150.389C81.3734 150.389 80.1395 149.918 80.1258 149.913C80.1075 149.868 79.6779 148.802 80.272 147.722C80.7519 146.853 81.3688 143.436 81.6111 142.008L81.6933 141.523L81.2043 141.491C80.8159 141.468 80.272 141.34 79.5865 141.116C77.7174 140.503 75.3958 140.348 75.3729 140.348C75.4598 140.059 77.5254 133.252 78.4897 130.965C79.3397 128.957 80.5737 127.763 82.164 127.42C83.4985 127.131 84.5176 126.564 84.5268 126.56L85.9709 125.965C86.6427 125.969 88.0823 126.024 88.7129 126.175C89.5173 126.372 90.0611 127.177 90.7877 128.595C90.966 128.943 91.2036 129.364 91.455 129.812C92.2776 131.267 93.3013 133.074 93.347 134.218C93.4018 135.462 92.1953 136.711 91.8251 137.063L91.6789 137.205L91.688 137.406C91.7109 137.804 91.6332 138.362 91.5464 139.003C91.4778 139.501 91.4001 140.064 91.359 140.654C91.2767 141.734 91.8389 143.362 92.3736 144.808C92.4832 145.11 92.5701 145.343 92.6158 145.494C92.826 146.19 92.6158 146.857 92.6158 146.862C92.4147 146.793 92.1862 146.757 91.9257 146.757C90.349 146.757 87.8949 148.097 86.1034 149.076C85.0386 149.657 84.12 150.16 83.6082 150.279C83.3203 150.357 83.0004 150.389 82.6622 150.389Z"
              fill="#FAFFFF"/>
        <path d="M87.1827 149.589C87.4112 149.589 87.594 149.406 87.594 149.177C87.594 148.949 87.4112 148.766 87.1827 148.766C86.9542 148.766 86.7714 148.949 86.7714 149.177C86.7714 149.406 86.9542 149.589 87.1827 149.589Z"
              fill="#D1D6E0"/>
        <path d="M88.7911 148.802C89.0196 148.802 89.2024 148.619 89.2024 148.39C89.2024 148.162 89.0196 147.979 88.7911 147.979C88.5626 147.979 88.3798 148.162 88.3798 148.39C88.3843 148.614 88.5671 148.802 88.7911 148.802Z"
              fill="#D1D6E0"/>
        <path d="M90.5414 148.12C90.7699 148.12 90.9527 147.937 90.9527 147.709C90.9527 147.48 90.7699 147.297 90.5414 147.297C90.3129 147.297 90.1301 147.48 90.1301 147.709C90.1301 147.937 90.3175 148.12 90.5414 148.12Z"
              fill="#D1D6E0"/>
        <path d="M92.141 147.978C92.3695 147.978 92.5523 147.795 92.5523 147.566C92.5523 147.337 92.3695 147.154 92.141 147.154C91.9125 147.154 91.7297 147.337 91.7297 147.566C91.7343 147.795 91.9171 147.978 92.141 147.978Z"
              fill="#D1D6E0"/>
        <path d="M92.5749 137.576C93.169 136.981 94.2932 135.659 94.2293 134.186C94.1927 133.294 93.7266 132.191 93.1553 131.079C93.041 130.86 92.776 130.773 92.5566 130.887C92.3418 131.002 92.2596 131.262 92.3692 131.477C92.8902 132.484 93.3198 133.49 93.3518 134.218C93.4158 135.723 91.67 137.21 91.67 137.21C91.7066 137.438 91.6974 137.74 91.6609 138.092C91.9808 137.996 92.287 137.887 92.5703 137.754C92.5703 137.699 92.5749 137.635 92.5749 137.576Z"
              fill="#C4C9D3"/>
        <path d="M88.6635 115.562C88.6635 115.562 89.0611 120.27 88.9743 123.047C88.9651 123.349 88.6772 123.564 88.3802 123.49C87.7678 123.33 86.7715 123.038 85.9535 122.644C85.6975 122.521 85.5239 122.283 85.4736 122.004L85.0486 119.597C85.0486 119.597 86.7486 118.902 86.2002 116.766L88.6635 115.562Z"
              fill="#FAFFFF"/>
        <path d="M88.4253 118.109C88.4847 118.123 89.1199 119.134 89.5221 119.775C89.7049 120.067 89.6409 120.452 89.3713 120.671L88.535 121.357L88.4253 118.109Z"
              fill="#FAFFFF"/>
        <path d="M87.1184 122.232L86.7071 126.221C86.7071 126.221 88.5351 129.488 87.9273 129.84C87.3195 130.188 85.0984 127.443 84.5317 126.574C84.5317 126.574 85.3269 126.249 85.1578 124.634C84.9887 123.024 84.8151 121.194 84.8151 120.43L87.1184 122.232Z"
              fill="#FAFFFF"/>
        <path d="M85.9537 122.639C85.6977 122.515 85.5241 122.277 85.4738 121.998L85.259 120.772L84.8112 120.42C84.8112 120.8 84.8523 121.44 84.9163 122.19C85.0168 122.616 85.3047 122.982 85.6978 123.169C86.0999 123.361 86.5386 123.531 86.9637 123.677L87.0276 123.073C86.6666 122.95 86.2964 122.803 85.9537 122.639Z"
              fill="#D1D6E0"/>
        <path d="M84.9251 121.262C85.2816 121.166 85.4278 120.535 85.2496 119.853C85.0714 119.167 84.6372 118.687 84.2762 118.783C83.9197 118.874 83.7735 119.506 83.9517 120.192C84.1345 120.878 84.5687 121.358 84.9251 121.262Z"
              fill="#FAFFFF"/>
        <path d="M83.8784 118.146C83.8784 118.146 88.5536 117.501 91.2545 116.366C93.9554 115.232 92.5798 114.253 89.134 114.861L83.8784 118.146Z"
              fill="#C4C9D3"/>
        <path d="M80.8025 118.961C80.8025 118.961 86.6567 117.808 89.8375 115.278C89.8375 115.278 89.4673 112.991 88.5533 112.03C87.6393 111.07 85.6148 111.943 83.4394 113.293C81.2641 114.642 79.6097 115.69 80.0667 117.062C80.5191 118.439 80.8025 118.961 80.8025 118.961Z"
              fill="#F1F6FF"/>
        <path d="M80.0626 117.067C80.0626 117.067 80.8121 116.893 81.5845 116.514L81.9866 117.648C81.9866 117.648 81.2508 118.028 80.4328 118.115L80.0626 117.067Z"
              fill="#777C86"/>
        <path d="M76.2645 140.439L75.1129 145.444C74.7381 147.064 75.4328 148.743 76.8358 149.63L87.452 156.337C87.5983 156.428 87.7034 156.574 87.7491 156.739C87.941 157.444 88.4848 159.402 88.855 160.303L89.7051 163.18L91.7296 162.494L91.5559 159.566C91.5422 159.319 91.4737 159.081 91.3548 158.866L89.5177 155.467C89.4491 155.339 89.3577 155.22 89.2526 155.12L79.5184 145.828L80.6518 141.418C80.373 141.359 80.0257 141.267 79.5824 141.126C78.4261 140.741 77.1145 140.54 76.2645 140.439Z"
              fill="#FAFFFF"/>
        <path d="M87.0776 133.01L83.8329 133.966L83.6455 133.001L86.8903 132.045L87.0776 133.01Z" fill="#777C86"/>
        <path d="M81.6706 141.523L83.2747 135.837C83.3433 135.604 83.2062 135.356 82.9685 135.292C82.7355 135.228 82.4887 135.361 82.4247 135.599L80.7749 141.441C80.7795 141.441 81.2776 141.587 81.6706 141.523Z"
              fill="#C4C9D3"/>
        <path d="M136.735 223.401H103.552V229.875H136.735V223.401Z" fill="#F1F6FF"/>
        <path d="M70.364 223.401H37.1808V229.875H70.364V223.401Z" fill="#F1F6FF"/>
        <path d="M169.919 223.401V229.875H194.464C197.453 227.976 200.332 225.995 203.106 223.937V223.401H169.919Z"
              fill="#F1F6FF"/>
    </g>
    <defs>
        <clipPath id="clip0_905_11879">
            <rect width="269.867" height="256" fill="white"/>
        </clipPath>
    </defs>
</svg>
