<svg width="343" height="233" viewBox="0 0 343 233" fill="none" xmlns="http://www.w3.org/2000/svg">
<path d="M207.905 232.731C262.295 232.731 306.386 224.14 306.386 213.544C306.386 202.947 262.295 194.356 207.905 194.356C153.515 194.356 109.424 202.947 109.424 213.544C109.424 224.14 153.515 232.731 207.905 232.731Z" fill="#7DB8FB"/>
<path d="M32.3449 198.732C32.3449 198.732 -17.7965 133.713 6.78306 63.3133C31.3626 -7.08601 98.0172 -3.41819 141.51 25.854C213.956 74.6112 333.196 79.5753 342.107 139.909C347.294 175.019 324.253 198.732 324.253 198.732H32.3449Z" fill="#ADD0EA"/>
<path d="M14.7812 45.4714H20.9213V21.7747H14.7812V45.4714Z" fill="#EA8021"/>
<path d="M30.4828 21.7766H20.9224V45.4735H30.4828V21.7766Z" fill="#CC630D"/>
<path d="M18.7049 24.7852H16.9995V35.1229H18.7049V24.7852Z" fill="white"/>
<path d="M19.6553 42.5544H16.0493V43.8603H19.6553V42.5544Z" fill="white"/>
<path d="M24.5449 45.4714H30.685V21.7747H24.5449V45.4714Z" fill="#F2B283"/>
<path d="M40.248 21.7766H30.6875V45.4735H40.248V21.7766Z" fill="#EF9D59"/>
<path fill-rule="evenodd" clip-rule="evenodd" d="M27.6156 40.7942C28.5292 40.7942 29.2698 40.0533 29.2698 39.1395C29.2698 38.2258 28.5292 37.4849 27.6156 37.4849C26.702 37.4849 25.9614 38.2258 25.9614 39.1395C25.9614 40.0533 26.702 40.7942 27.6156 40.7942Z" stroke="white" stroke-width="0.639925"/>
<path d="M26.4222 35.1229V27.5376" stroke="white" stroke-width="0.639925" stroke-linecap="round" stroke-linejoin="round"/>
<path d="M27.6478 35.1229V29.7651" stroke="white" stroke-width="0.639925" stroke-linecap="round" stroke-linejoin="round"/>
<path d="M28.8094 35.1229V28.7698" stroke="white" stroke-width="0.639925" stroke-linecap="round" stroke-linejoin="round"/>
<path d="M28.4765 42.0327H26.7583V42.8873H28.4765V42.0327Z" fill="white"/>
<path d="M38.3954 21.7766H33.7144V45.4735H38.3954V21.7766Z" fill="white"/>
<path d="M38.3926 45.4711H39.1221V21.7742H38.3926V45.4711Z" fill="#105A91"/>
<path d="M32.9824 45.4711H33.7119V21.7742H32.9824V45.4711Z" fill="#105A91"/>
<path d="M48.6855 21.7766H39.125V45.4735H48.6855V21.7766Z" fill="#0B2E44"/>
<path d="M62.0737 44.7427V40.0603H41.8169V44.7427H62.0737Z" fill="white"/>
<path d="M41.8149 44.7432V45.4729H62.0718V44.7432H41.8149Z" fill="#EA8021"/>
<path d="M41.8149 39.3313V40.061H62.0715V39.3313H41.8149Z" fill="#EA8021"/>
<path d="M74.3918 44.7434V40.061H62.0732V44.7434H74.3918Z" fill="#BFCEDB"/>
<path d="M62.0728 44.7439V45.4736H75.0856V44.7439H62.0728Z" fill="#CC630D"/>
<path d="M62.0728 39.3318V40.0615H75.0856V39.3318H62.0728Z" fill="#CC630D"/>
<path d="M75.0854 40.0613H74.3911V45.2814H75.0854V40.0613Z" fill="#CC630D"/>
<path d="M64.2485 38.6006V33.9182H43.9917V38.6006H64.2485Z" fill="white"/>
<path d="M43.9912 38.6006V39.3303H64.248V38.6006H43.9912Z" fill="#105A91"/>
<path d="M43.9907 33.1885V33.9182H64.2476V33.1885H43.9907Z" fill="#105A91"/>
<path d="M76.5666 38.6011V33.9187H64.248V38.6011H76.5666Z" fill="#BFCEDB"/>
<path d="M64.249 38.6011V39.3308H77.2619V38.6011H64.249Z" fill="#0B2E44"/>
<path d="M64.2485 33.1895V33.9192H77.2614V33.1895H64.2485Z" fill="#0B2E44"/>
<path d="M77.2612 33.9163H76.5669V39.1364H77.2612V33.9163Z" fill="#0B2E44"/>
<path d="M103.968 45.4734H14.7244C13.7485 47.2145 12.8078 49.0228 11.9023 50.8951H103.968V45.4734Z" fill="#1773C6"/>
<path d="M303.449 154.516V95.0084C275.92 80.1387 237.582 69.4712 200.776 55.2256V154.516H303.449Z" fill="#105A91"/>
<path d="M298.65 149.715V92.5086C272.809 79.5368 238.791 69.6119 205.576 57.0593V149.715H298.65Z" fill="#3790F4"/>
<path d="M205.576 70.6265C205.576 70.6265 233.278 73.4558 252.863 93.6608C272.448 113.866 312.053 110.003 312.053 110.003" stroke="#2475EF" stroke-width="0.959888"/>
<path d="M205.576 80.801C205.576 80.801 233.278 83.6303 252.863 103.835C272.448 124.04 312.053 120.177 312.053 120.177" stroke="#2475EF" stroke-width="0.959888"/>
<path d="M267.489 123.599C270.717 144.754 260.28 146.207 253.618 146.505C246.96 146.803 239.466 141.771 238.701 126.37C238.046 113.171 242.675 85.2498 249.334 84.9521C255.999 84.6545 265.012 107.356 267.489 123.599Z" fill="#1773C6"/>
<path d="M250.409 98.8489C250.409 98.8489 254.038 124.93 255.039 147.446" stroke="#DCECFF" stroke-width="0.639925" stroke-linecap="round" stroke-linejoin="round"/>
<path d="M251.148 104.235C251.148 104.235 254.684 101.39 255.995 97.0374" stroke="#DCECFF" stroke-width="0.639925" stroke-linecap="round" stroke-linejoin="round"/>
<path d="M252.479 114.97C252.479 114.97 246.25 113.357 243.216 107.897" stroke="#DCECFF" stroke-width="0.639925" stroke-linecap="round" stroke-linejoin="round"/>
<path d="M253.58 125.17C253.58 125.17 260.341 122.975 263.265 117.873" stroke="#DCECFF" stroke-width="0.639925" stroke-linecap="round" stroke-linejoin="round"/>
<path d="M254.604 136.619C254.604 136.619 247.814 134.791 244.381 131.645" stroke="#DCECFF" stroke-width="0.639925" stroke-linecap="round" stroke-linejoin="round"/>
<path fill-rule="evenodd" clip-rule="evenodd" d="M258.533 102.861C258.703 102.453 258.668 102.051 258.456 101.962C258.244 101.874 257.935 102.134 257.765 102.542C257.595 102.95 257.63 103.352 257.842 103.44C258.054 103.528 258.364 103.269 258.533 102.861Z" stroke="#DCECFF" stroke-width="0.639925" stroke-linecap="round" stroke-linejoin="round"/>
<path fill-rule="evenodd" clip-rule="evenodd" d="M256.543 119.603C256.67 119.179 256.593 118.783 256.373 118.717C256.153 118.651 255.872 118.941 255.746 119.365C255.62 119.788 255.696 120.185 255.916 120.25C256.136 120.316 256.417 120.026 256.543 119.603Z" stroke="#DCECFF" stroke-width="0.639925" stroke-linecap="round" stroke-linejoin="round"/>
<path fill-rule="evenodd" clip-rule="evenodd" d="M243.597 125.335C243.783 125.2 243.726 124.802 243.468 124.445C243.211 124.088 242.851 123.907 242.665 124.042C242.479 124.176 242.536 124.574 242.793 124.931C243.051 125.288 243.41 125.469 243.597 125.335Z" stroke="#DCECFF" stroke-width="0.639925" stroke-linecap="round" stroke-linejoin="round"/>
<path fill-rule="evenodd" clip-rule="evenodd" d="M243.617 105.167C243.762 105.08 243.743 104.782 243.574 104.502C243.405 104.222 243.15 104.066 243.005 104.154C242.859 104.242 242.879 104.54 243.048 104.819C243.217 105.099 243.472 105.255 243.617 105.167Z" stroke="#DCECFF" stroke-width="0.639925" stroke-linecap="round" stroke-linejoin="round"/>
<path fill-rule="evenodd" clip-rule="evenodd" d="M245.157 113.409C245.48 113.354 245.719 113.164 245.688 112.984C245.658 112.805 245.371 112.704 245.047 112.759C244.722 112.814 244.484 113.004 244.515 113.183C244.545 113.363 244.833 113.464 245.157 113.409Z" stroke="#DCECFF" stroke-width="0.639925" stroke-linecap="round" stroke-linejoin="round"/>
<path fill-rule="evenodd" clip-rule="evenodd" d="M263.699 121.469C264.023 121.414 264.261 121.224 264.23 121.045C264.2 120.865 263.913 120.764 263.589 120.819C263.264 120.874 263.026 121.063 263.057 121.243C263.087 121.423 263.375 121.524 263.699 121.469Z" stroke="#DCECFF" stroke-width="0.639925" stroke-linecap="round" stroke-linejoin="round"/>
<path fill-rule="evenodd" clip-rule="evenodd" d="M247.102 91.9451C247.315 91.8738 247.376 91.4817 247.237 91.0695C247.099 90.6572 246.814 90.381 246.602 90.4524C246.389 90.5238 246.329 90.9158 246.467 91.3281C246.605 91.7403 246.89 92.0165 247.102 91.9451Z" stroke="#DCECFF" stroke-width="0.639925" stroke-linecap="round" stroke-linejoin="round"/>
<path d="M259.201 91.9722C259.389 91.3497 259.276 90.7643 258.948 90.6651C258.62 90.5656 258.201 90.9897 258.013 91.6125C257.824 92.235 257.937 92.8204 258.265 92.9196C258.594 93.0191 259.012 92.5947 259.201 91.9722Z" fill="#1773C6"/>
<path d="M260.075 95.0996C260.443 95.0231 260.707 94.794 260.664 94.5879C260.621 94.3821 260.288 94.2774 259.919 94.3539C259.551 94.4307 259.287 94.6599 259.33 94.8657C259.373 95.0718 259.706 95.1764 260.075 95.0996Z" fill="#105A91"/>
<path d="M260.174 93.9577C260.777 93.6309 261.118 93.0938 260.936 92.7581C260.754 92.4227 260.118 92.4153 259.515 92.7421C258.912 93.0689 258.571 93.6056 258.753 93.9414C258.935 94.2771 259.571 94.2845 260.174 93.9577Z" fill="#1773C6"/>
<path d="M238.82 109.393C239.016 109.109 238.752 108.588 238.231 108.229C237.71 107.87 237.129 107.809 236.934 108.093C236.738 108.377 237.002 108.898 237.523 109.257C238.044 109.616 238.625 109.677 238.82 109.393Z" fill="#1773C6"/>
<path d="M237.979 110.621C238.341 110.537 238.597 110.305 238.549 110.102C238.503 109.899 238.172 109.801 237.81 109.884C237.449 109.968 237.193 110.2 237.24 110.403C237.287 110.607 237.618 110.704 237.979 110.621Z" fill="#1773C6"/>
<path d="M215.664 147.715C222.518 148.502 233.204 151.274 235.537 129.744C237.527 111.363 234.283 86.6806 227.429 85.8965C220.828 85.1379 209.985 105.586 205.576 122.818V139.909C207.652 144.822 211.722 147.261 215.664 147.715Z" fill="#1773C6"/>
<path d="M225.526 94.8035C225.526 94.8035 217.824 123.25 215.012 148.778" stroke="#DCECFF" stroke-width="0.639925" stroke-linecap="round" stroke-linejoin="round"/>
<path d="M222.662 106.329C222.662 106.329 219.069 102.414 218.742 97.8152" stroke="#DCECFF" stroke-width="0.639925" stroke-linecap="round" stroke-linejoin="round"/>
<path d="M220.073 118.04C220.073 118.04 227.605 116.033 232.366 111.168" stroke="#DCECFF" stroke-width="0.639925" stroke-linecap="round" stroke-linejoin="round"/>
<path d="M218.096 128.153C218.096 128.153 212.912 124.901 210.634 118.222" stroke="#DCECFF" stroke-width="0.639925" stroke-linecap="round" stroke-linejoin="round"/>
<path d="M216.195 139.624C216.195 139.624 226.434 137.137 230.104 131.863" stroke="#DCECFF" stroke-width="0.639925" stroke-linecap="round" stroke-linejoin="round"/>
<path fill-rule="evenodd" clip-rule="evenodd" d="M230.576 110.407C230.815 109.983 230.803 109.525 230.551 109.382C230.299 109.24 229.901 109.467 229.662 109.891C229.423 110.314 229.434 110.773 229.686 110.915C229.939 111.058 230.337 110.83 230.576 110.407Z" stroke="#DCECFF" stroke-width="0.639925" stroke-linecap="round" stroke-linejoin="round"/>
<path fill-rule="evenodd" clip-rule="evenodd" d="M214.047 118.701C214.292 118.649 214.419 118.27 214.331 117.855C214.242 117.44 213.972 117.146 213.726 117.199C213.481 117.251 213.354 117.63 213.442 118.045C213.531 118.46 213.802 118.754 214.047 118.701Z" stroke="#DCECFF" stroke-width="0.639925" stroke-linecap="round" stroke-linejoin="round"/>
<path fill-rule="evenodd" clip-rule="evenodd" d="M224.037 133.957C224.224 133.649 224.226 133.308 224.042 133.196C223.858 133.084 223.557 133.243 223.369 133.551C223.182 133.859 223.18 134.2 223.364 134.312C223.548 134.424 223.849 134.265 224.037 133.957Z" stroke="#DCECFF" stroke-width="0.639925" stroke-linecap="round" stroke-linejoin="round"/>
<path fill-rule="evenodd" clip-rule="evenodd" d="M215.037 109.651C215.208 109.521 215.172 109.183 214.955 108.898C214.738 108.612 214.423 108.485 214.251 108.616C214.08 108.746 214.116 109.084 214.333 109.369C214.55 109.655 214.865 109.781 215.037 109.651Z" stroke="#DCECFF" stroke-width="0.639925" stroke-linecap="round" stroke-linejoin="round"/>
<path fill-rule="evenodd" clip-rule="evenodd" d="M231.882 124.389C232.239 124.251 232.461 123.961 232.376 123.741C232.292 123.522 231.933 123.456 231.575 123.595C231.217 123.733 230.996 124.022 231.08 124.242C231.165 124.461 231.524 124.527 231.882 124.389Z" stroke="#DCECFF" stroke-width="0.639925" stroke-linecap="round" stroke-linejoin="round"/>
<path fill-rule="evenodd" clip-rule="evenodd" d="M209.189 121.428C209.216 121.205 208.944 120.99 208.582 120.947C208.221 120.905 207.907 121.051 207.88 121.274C207.854 121.497 208.126 121.712 208.487 121.755C208.849 121.797 209.163 121.651 209.189 121.428Z" stroke="#DCECFF" stroke-width="0.639925" stroke-linecap="round" stroke-linejoin="round"/>
<path fill-rule="evenodd" clip-rule="evenodd" d="M221.637 96.5675C221.946 96.4994 222.103 96.0215 221.989 95.5001C221.874 94.9791 221.53 94.6114 221.222 94.6795C220.913 94.7474 220.755 95.2252 220.87 95.7466C220.985 96.268 221.328 96.6354 221.637 96.5675Z" stroke="#DCECFF" stroke-width="0.639925" stroke-linecap="round" stroke-linejoin="round"/>
<path d="M207.523 111.831C207.9 111.737 208.061 111.083 207.884 110.371C207.706 109.66 207.256 109.159 206.879 109.254C206.501 109.348 206.34 110.001 206.518 110.713C206.696 111.425 207.145 111.925 207.523 111.831Z" fill="#1773C6"/>
<path d="M221.314 88.0366C221.572 87.9403 221.635 87.4676 221.453 86.9804C221.272 86.4933 220.916 86.1768 220.657 86.2731C220.399 86.3691 220.337 86.8422 220.518 87.329C220.699 87.8161 221.056 88.133 221.314 88.0366Z" fill="#1773C6"/>
<path d="M222.853 86.8679C222.934 86.464 222.826 86.1023 222.613 86.0598C222.4 86.0172 222.162 86.3104 222.081 86.7143C222.001 87.1182 222.109 87.4802 222.322 87.5227C222.535 87.565 222.773 87.2718 222.853 86.8679Z" fill="#1773C6"/>
<path d="M206.238 113.479C206.584 113.2 206.369 112.589 205.758 112.115C205.7 112.07 205.636 112.029 205.576 111.99V113.6C205.848 113.636 206.084 113.6 206.238 113.479Z" fill="#1773C6"/>
<path d="M237.495 101.784C238.153 101.36 238.499 100.725 238.267 100.365C238.036 100.006 237.314 100.058 236.656 100.482C235.998 100.907 235.653 101.542 235.885 101.902C236.116 102.261 236.837 102.209 237.495 101.784Z" fill="#1773C6"/>
<path d="M237.887 103.188C237.949 102.939 237.633 102.647 237.182 102.535C236.731 102.423 236.315 102.534 236.254 102.782C236.192 103.031 236.508 103.324 236.959 103.436C237.41 103.547 237.826 103.437 237.887 103.188Z" fill="#1773C6"/>
<path d="M140.15 199.679L136.838 198.847L145.049 160.917L150.84 162.37L140.15 199.679Z" fill="#3790F4"/>
<path d="M184.545 199.679L187.857 198.847L179.65 160.917L173.855 162.37L184.545 199.679Z" fill="#3790F4"/>
<path d="M192.278 146.454H130.845V163.334H192.278V146.454Z" fill="#DCECFF"/>
<path d="M190.68 161.733V148.053H132.447V161.733H190.68Z" fill="#3790F4"/>
<path d="M161.562 157.073C162.765 157.073 163.741 156.097 163.741 154.894C163.741 153.69 162.765 152.714 161.562 152.714C160.358 152.714 159.383 153.69 159.383 154.894C159.383 156.097 160.358 157.073 161.562 157.073Z" fill="#7DB8FB"/>
<path d="M135.933 97.9016H12.4976V145.971H135.933V97.9016Z" fill="#105A91"/>
<path d="M246.282 49.538C246.282 49.538 264.2 32.4695 294.916 36.451C325.632 40.4324 352.82 85.749 318.123 197.554" stroke="#EA8021" stroke-width="0.959888"/>
<path d="M340.709 191.62H296.909V198.732H340.709V191.62Z" fill="#EA8021"/>
<path d="M290.459 198.389L287.544 198.786L279.087 146.185L284.536 145.443L290.459 198.389Z" fill="#CC630D"/>
<path d="M316.549 197.756L313.797 198.786L293.915 149.363L299.063 147.433L316.549 197.756Z" fill="#CC630D"/>
<path d="M262.046 198.389L264.958 198.786L273.414 146.185L267.968 145.443L262.046 198.389Z" fill="#CC630D"/>
<path d="M235.953 197.756L238.708 198.786L258.59 149.363L253.442 147.433L235.953 197.756Z" fill="#CC630D"/>
<path d="M248.557 152.173H280.127C280.127 152.173 302.88 154.231 313.544 136.734C324.209 119.236 322.964 83.5726 299.911 83.0541C276.857 82.5357 261.64 92.4606 248.557 101.723C235.473 110.985 230.306 118.401 232.607 133.543C234.907 148.685 248.557 152.173 248.557 152.173Z" fill="#EA8021"/>
<path d="M281.832 141.714H246.281C246.281 141.714 237.502 140.293 237.482 124.93C237.463 109.568 253.724 101.317 262.161 95.77C270.599 90.2234 280.837 82.9678 297.901 82.9678C314.965 82.9678 313.544 100.75 309.279 109.852C305.014 118.955 293.78 141.714 281.832 141.714Z" fill="#F2B283"/>
<path d="M242.711 136.238C242.711 139.262 245.162 141.714 248.185 141.714H281.833C287.343 141.714 292.699 136.872 297.293 130.762H248.185C245.162 130.762 242.711 133.213 242.711 136.238Z" fill="#EF9D59"/>
<path d="M311.295 103.909C311.003 103.973 310.712 104.037 310.418 104.104C299.61 106.569 286.526 102.587 276.288 102.776C266.049 102.965 264.532 105.433 264.532 105.433C264.532 105.433 265.194 106.476 266.238 111.882C267.281 117.287 265.098 120.702 263.867 123.925C262.635 127.148 264.151 130.848 264.151 130.848H297.229C302.624 123.695 306.972 114.775 309.279 109.852C310.088 108.121 310.796 106.082 311.295 103.909Z" fill="white"/>
<path d="M273.415 117.745C275.402 117.745 277.014 116.133 277.014 114.144C277.014 112.156 275.402 110.544 273.415 110.544C271.427 110.544 269.815 112.156 269.815 114.144C269.815 116.133 271.427 117.745 273.415 117.745Z" fill="#7DB8FB"/>
<path fill-rule="evenodd" clip-rule="evenodd" d="M272.752 129.046C273.865 129.046 274.768 128.143 274.768 127.03C274.768 125.916 273.865 125.013 272.752 125.013C271.639 125.013 270.736 125.916 270.736 127.03C270.736 128.143 271.639 129.046 272.752 129.046Z" stroke="#105A91" stroke-width="1.27985"/>
<path d="M286.862 123.541C287.712 123.541 288.401 122.852 288.401 122.002C288.401 121.152 287.712 120.462 286.862 120.462C286.012 120.462 285.323 121.152 285.323 122.002C285.323 122.852 286.012 123.541 286.862 123.541Z" fill="#7DB8FB"/>
<path d="M282.108 108.777C283.242 108.777 284.162 107.857 284.162 106.722C284.162 105.587 283.242 104.667 282.108 104.667C280.973 104.667 280.054 105.587 280.054 106.722C280.054 107.857 280.973 108.777 282.108 108.777Z" fill="#105A91"/>
<path d="M281.478 120.021L286.245 115.255" stroke="#FF952D" stroke-width="1.27985" stroke-linecap="round"/>
<path d="M291.675 129.328C291.675 129.853 291.745 130.358 291.867 130.848H297.229C298.804 128.758 300.291 126.521 301.661 124.274C300.621 123.509 299.341 123.052 297.949 123.052C294.484 123.048 291.675 125.862 291.675 129.328Z" fill="#7DB8FB"/>
<path d="M299.418 111.686C301.993 111.686 304.089 109.59 304.089 107.014C304.089 106.252 303.903 105.532 303.577 104.898C303.078 104.911 302.579 104.917 302.076 104.914C302.534 105.493 302.809 106.223 302.809 107.017C302.809 108.889 301.286 110.409 299.418 110.409C297.546 110.409 296.026 108.886 296.026 107.017C296.026 106.108 296.388 105.285 296.97 104.674C296.467 104.632 295.965 104.591 295.463 104.543C295.012 105.263 294.746 106.108 294.746 107.017C294.743 109.59 296.839 111.686 299.418 111.686Z" fill="#7DB8FB"/>
<path d="M303.449 116.199C303.449 117.201 304.166 118.033 305.113 118.215C305.763 116.999 306.367 115.825 306.924 114.714C306.556 114.359 306.054 114.141 305.503 114.141C304.371 114.144 303.449 115.063 303.449 116.199Z" fill="#105A91"/>
<path d="M268.746 112.8C268.874 112.8 269.002 112.762 269.114 112.682C269.402 112.477 269.473 112.08 269.268 111.789L265.387 106.281C265.246 106.082 265.012 105.989 264.785 106.018C264.964 106.501 265.233 107.35 265.572 108.767L268.222 112.528C268.35 112.707 268.545 112.8 268.746 112.8Z" fill="#FF952D"/>
<path d="M300.627 119.771C300.339 119.976 300.269 120.373 300.473 120.664L302.288 123.237C302.528 122.831 302.764 122.427 302.998 122.024L301.52 119.924C301.315 119.636 300.918 119.569 300.627 119.771Z" fill="#FF952D"/>
<path d="M267.006 125.631C266.657 125.695 266.43 126.028 266.494 126.377L267.316 130.848H268.618L267.751 126.146C267.687 125.794 267.351 125.567 267.006 125.631Z" fill="#FF952D"/>
<path d="M261.639 123.458C261.639 123.458 259.934 118.74 259.649 115.681C259.365 112.621 261 110.845 262.139 109.42C263.278 107.999 263.703 103.375 260.004 102.594C256.306 101.813 253.391 101.454 251.33 100.532C249.27 99.6075 248.271 99.8924 247.065 100.747C245.856 101.601 241.875 104.373 242.87 106.082L243.795 105.372C243.795 105.372 249.129 108.358 250.764 122.44C250.761 122.44 254.46 124.761 261.639 123.458Z" fill="#DCECFF"/>
<path d="M260.005 102.597C259.182 102.424 258.399 102.27 257.653 102.126C253.097 106.565 259.979 112.829 259.979 112.829C260.481 111.389 261.409 110.332 262.136 109.423C263.275 107.999 263.703 103.378 260.005 102.597Z" fill="#3790F4"/>
<path d="M253.279 118.465C254.578 116.964 252.748 115.847 252.748 115.847C252.086 115.009 252.319 115.079 253.727 113.943C255.135 112.803 251.859 110.233 251.315 111.642C250.819 112.928 249.888 112.109 248.24 111.782C249.056 113.789 249.824 116.378 250.377 119.704C251.228 119.515 252.399 119.48 253.279 118.465Z" fill="#BFCEDB"/>
<path d="M247.276 132.852C246.835 132.852 246.477 133.21 246.477 133.652C246.477 134.093 246.835 134.452 247.276 134.452H294.263C294.73 133.937 295.191 133.402 295.645 132.852H247.276Z" fill="#F2B283"/>
<path d="M151.32 173.198H17.1597C18.5355 176.021 19.9017 178.645 21.22 181.055H151.32V173.198Z" fill="#105A91"/>
<path d="M141.51 179.125H134.4V198.735H141.51V179.125Z" fill="#105A91"/>
<path d="M165.565 106.213H122.139C117.004 106.213 112.838 102.05 112.838 96.9094V9.304C112.838 4.16391 117.004 0 122.139 0H165.565C170.7 0 174.866 4.16391 174.866 9.304V96.9094C174.866 102.046 170.703 106.213 165.565 106.213Z" fill="#3790F4"/>
<path d="M155.095 21.7766H133.386C131.863 21.7766 130.586 22.9256 130.423 24.4395L130.068 27.752H158.593L158.036 24.2858C157.805 22.8392 156.561 21.7766 155.095 21.7766Z" fill="#EA8021"/>
<path d="M160.682 32.3254H127.025L127.892 28.0815C128.132 26.9101 129.162 26.0684 130.359 26.0684H157.345C158.541 26.0684 159.572 26.9101 159.811 28.0815L160.682 32.3254Z" fill="#F2B283"/>
<path d="M162.195 30.5461H125.508C124.209 30.5461 123.345 31.8904 123.883 33.0714L128.471 43.1691C128.874 44.0557 129.761 44.6254 130.733 44.6254H156.97C157.946 44.6254 158.829 44.0557 159.232 43.1691L163.821 33.0714C164.361 31.8904 163.494 30.5461 162.195 30.5461Z" fill="#DCECFF"/>
<path d="M121.064 52.4859H122.017C122.117 52.4859 122.2 52.5083 122.264 52.5531C122.331 52.5979 122.373 52.6587 122.392 52.7323L123.064 55.2863C123.086 55.3696 123.109 55.4592 123.131 55.552C123.153 55.6448 123.169 55.744 123.182 55.8464C123.205 55.7408 123.23 55.6416 123.256 55.5488C123.281 55.456 123.307 55.3664 123.333 55.2863L124.126 52.7323C124.145 52.6683 124.19 52.6139 124.254 52.5627C124.321 52.5115 124.401 52.4859 124.494 52.4859H124.83C124.929 52.4859 125.009 52.5083 125.073 52.5499C125.137 52.5915 125.182 52.6523 125.207 52.7291L125.995 55.2831C126.02 55.36 126.046 55.4464 126.071 55.5328C126.097 55.6224 126.123 55.7152 126.142 55.8176C126.161 55.7184 126.177 55.6256 126.196 55.536C126.215 55.4464 126.235 55.3632 126.254 55.2831L126.926 52.7291C126.945 52.6651 126.986 52.6075 127.054 52.5563C127.121 52.5051 127.201 52.4827 127.297 52.4827H128.19L126.676 57.3795H125.649L124.728 54.3454C124.712 54.2974 124.696 54.2462 124.68 54.1918C124.664 54.1374 124.648 54.0765 124.632 54.0125C124.616 54.0765 124.6 54.1341 124.584 54.1918C124.568 54.2494 124.552 54.3006 124.536 54.3454L123.601 57.3795H122.574L121.064 52.4859Z" fill="white"/>
<path fill-rule="evenodd" clip-rule="evenodd" d="M131.837 57.3795H132.717L130.82 52.4827H129.658L127.764 57.3795H128.65C128.746 57.3795 128.826 57.3539 128.89 57.3027C128.954 57.2515 128.999 57.1971 129.022 57.1331L129.31 56.2785H131.172L131.46 57.1331C131.485 57.2035 131.53 57.2643 131.594 57.3091C131.658 57.3571 131.738 57.3795 131.837 57.3795ZM130.458 54.1694L130.909 55.5104H129.572L130.02 54.1758C130.055 54.0925 130.09 53.9933 130.129 53.8749C130.167 53.7565 130.205 53.6317 130.241 53.494C130.279 53.6285 130.317 53.7533 130.356 53.8685C130.376 53.9302 130.396 53.9874 130.414 54.0404C130.43 54.0864 130.445 54.1292 130.458 54.1694Z" fill="white"/>
<path d="M135.84 53.478C135.805 53.5324 135.77 53.5708 135.735 53.5996C135.696 53.6252 135.651 53.6412 135.591 53.6412C135.539 53.6412 135.485 53.6252 135.424 53.5932C135.363 53.5612 135.296 53.5228 135.223 53.4844C135.146 53.4428 135.063 53.4076 134.967 53.3756C134.871 53.3436 134.762 53.3276 134.637 53.3276C134.423 53.3276 134.266 53.3724 134.16 53.4652C134.055 53.5548 134.004 53.6796 134.004 53.8333C134.004 53.9325 134.036 54.0125 134.096 54.0797C134.157 54.1469 134.24 54.2013 134.343 54.2461C134.445 54.2909 134.56 54.3358 134.691 54.3742C134.823 54.4126 134.957 54.4574 135.091 54.5054C135.229 54.5534 135.363 54.611 135.491 54.675C135.623 54.739 135.738 54.8222 135.84 54.9247C135.943 55.0239 136.026 55.1487 136.087 55.2927C136.15 55.4367 136.179 55.6128 136.179 55.8144C136.179 56.0416 136.141 56.2529 136.061 56.4481C135.981 56.6465 135.869 56.8162 135.719 56.9634C135.568 57.1106 135.386 57.2258 135.168 57.3091C134.951 57.3923 134.701 57.4339 134.423 57.4339C134.269 57.4339 134.116 57.4179 133.959 57.3859C133.802 57.3539 133.648 57.3091 133.501 57.2547C133.354 57.197 133.213 57.1298 133.085 57.0498C132.957 56.9698 132.842 56.8834 132.746 56.7874L133.082 56.2561C133.108 56.2145 133.143 56.1825 133.188 56.1601C133.232 56.1345 133.28 56.1217 133.332 56.1217C133.399 56.1217 133.466 56.1441 133.536 56.1857C133.604 56.2273 133.68 56.2753 133.767 56.3265C133.853 56.3777 133.952 56.4257 134.064 56.4673C134.176 56.5089 134.308 56.5313 134.461 56.5313C134.666 56.5313 134.826 56.4865 134.941 56.3937C135.056 56.3041 135.114 56.1601 135.114 55.9616C135.114 55.8464 135.082 55.7536 135.021 55.6832C134.957 55.6128 134.877 55.552 134.775 55.504C134.672 55.4559 134.557 55.4143 134.426 55.3791C134.295 55.3439 134.164 55.3023 134.026 55.2607C133.888 55.2159 133.757 55.1647 133.626 55.1007C133.495 55.0367 133.38 54.9535 133.277 54.8478C133.175 54.7422 133.092 54.6142 133.031 54.4574C132.967 54.3005 132.938 54.1085 132.938 53.8813C132.938 53.6988 132.976 53.5196 133.05 53.3436C133.124 53.1675 133.232 53.0139 133.376 52.8763C133.52 52.7387 133.696 52.6299 133.904 52.5498C134.112 52.4666 134.352 52.4282 134.621 52.4282C134.771 52.4282 134.919 52.441 135.059 52.4634C135.2 52.4858 135.338 52.521 135.463 52.569C135.591 52.6139 135.709 52.6683 135.821 52.7323C135.933 52.7963 136.032 52.8699 136.119 52.9499L135.84 53.478Z" fill="white"/>
<path d="M141.027 57.3795H139.884V55.3088H137.894V57.3795H136.752V52.4827H137.894V54.5278H139.884V52.4827H141.027V57.3795Z" fill="white"/>
<path fill-rule="evenodd" clip-rule="evenodd" d="M145.535 52.5274C145.369 52.4634 145.177 52.4314 144.959 52.4314C144.729 52.4314 144.524 52.4666 144.351 52.5402C144.172 52.6106 144.022 52.7034 143.9 52.8219C143.778 52.9403 143.686 53.0747 143.622 53.2315C143.558 53.3884 143.526 53.5516 143.526 53.7276C143.526 53.8748 143.548 54.0285 143.596 54.1853C143.641 54.3421 143.718 54.5022 143.823 54.6654C143.686 54.7358 143.561 54.8158 143.446 54.9086C143.33 55.0014 143.231 55.1071 143.148 55.2191C143.065 55.3311 143.004 55.4559 142.956 55.5871C142.908 55.7184 142.886 55.8592 142.886 56.0064C142.886 56.2272 142.931 56.4257 143.02 56.6017C143.11 56.7777 143.225 56.9282 143.372 57.053C143.519 57.1778 143.686 57.2738 143.871 57.341C144.057 57.4083 144.249 57.4403 144.444 57.4403C144.726 57.4403 144.994 57.3986 145.247 57.3186C145.5 57.2386 145.73 57.1234 145.945 56.9762L146.156 57.197C146.191 57.2354 146.223 57.2642 146.255 57.2898C146.287 57.3154 146.319 57.3346 146.354 57.3474C146.389 57.3602 146.425 57.3698 146.466 57.3762C146.508 57.3826 146.553 57.3858 146.604 57.3858H147.631L146.604 56.3041C146.767 56.0704 146.892 55.8112 146.978 55.5263C147.064 55.2447 147.109 54.9374 147.109 54.611H146.45C146.389 54.611 146.341 54.6302 146.303 54.6654C146.268 54.7006 146.245 54.7486 146.242 54.8126C146.226 54.9694 146.201 55.1231 146.165 55.2671C146.13 55.4111 146.082 55.5519 146.021 55.6864L144.812 54.4093C144.748 54.3421 144.694 54.2781 144.652 54.2205C144.614 54.1629 144.578 54.1053 144.556 54.0509C144.53 53.9965 144.514 53.9389 144.505 53.8876C144.495 53.8364 144.489 53.7788 144.489 53.7212C144.489 53.654 144.498 53.59 144.518 53.526C144.54 53.4652 144.569 53.4108 144.607 53.3628C144.649 53.3147 144.697 53.2763 144.754 53.2475C144.812 53.2187 144.879 53.2027 144.959 53.2027C145.071 53.2027 145.164 53.2315 145.231 53.2923C145.298 53.3532 145.359 53.4428 145.41 53.558C145.455 53.6572 145.525 53.7052 145.618 53.7052C145.624 53.7052 145.629 53.7042 145.634 53.7034C145.637 53.7027 145.641 53.702 145.644 53.702C145.648 53.7002 145.652 53.6994 145.658 53.6984C145.662 53.6977 145.667 53.697 145.673 53.6956L146.345 53.5612C146.329 53.4172 146.287 53.2795 146.223 53.1419C146.159 53.0043 146.069 52.8859 145.954 52.7803C145.842 52.6746 145.701 52.5914 145.535 52.5274ZM143.993 56.208C143.961 56.1216 143.945 56.0256 143.945 55.9168C143.945 55.7856 143.97 55.6608 144.025 55.5423C144.076 55.4239 144.166 55.3119 144.287 55.2127L145.413 56.4065C145.301 56.4769 145.18 56.5345 145.052 56.5729C144.924 56.6113 144.783 56.6305 144.633 56.6305C144.527 56.6305 144.434 56.6145 144.351 56.5793C144.268 56.5441 144.194 56.4961 144.134 56.4321C144.073 56.3713 144.025 56.2945 143.993 56.208Z" fill="white"/>
<path d="M152.436 52.4859V53.3596H150.427V54.5982H152.1V55.4752H150.427V57.3795H149.285V52.4827H152.436V52.4859Z" fill="white"/>
<path fill-rule="evenodd" clip-rule="evenodd" d="M157.677 55.92C157.799 55.6128 157.86 55.2863 157.86 54.9311C157.86 54.579 157.799 54.2525 157.677 53.9421C157.556 53.638 157.383 53.3724 157.162 53.1483C156.942 52.9243 156.676 52.7483 156.362 52.6203C156.049 52.4922 155.703 52.4282 155.323 52.4282C154.945 52.4282 154.596 52.4922 154.283 52.6203C153.972 52.7483 153.704 52.9243 153.48 53.1483C153.256 53.3724 153.083 53.638 152.961 53.9421C152.84 54.2461 152.779 54.5758 152.779 54.9311C152.779 55.2863 152.84 55.616 152.961 55.92C153.083 56.2241 153.256 56.4897 153.48 56.7138C153.7 56.9378 153.969 57.1138 154.283 57.2418C154.596 57.3699 154.942 57.4339 155.323 57.4339C155.703 57.4339 156.052 57.3699 156.362 57.2418C156.673 57.1138 156.942 56.9378 157.162 56.7138C157.383 56.4897 157.556 56.2241 157.677 55.92ZM156.606 54.2781C156.666 54.4702 156.698 54.6878 156.698 54.9311C156.698 55.1743 156.666 55.3951 156.606 55.5872C156.542 55.7824 156.452 55.9456 156.334 56.08C156.215 56.2145 156.071 56.3169 155.902 56.3873C155.732 56.4577 155.537 56.4929 155.319 56.4929C155.102 56.4929 154.907 56.4577 154.734 56.3873C154.564 56.3169 154.417 56.2145 154.302 56.08C154.187 55.9456 154.097 55.7824 154.033 55.5872C153.972 55.3951 153.94 55.1743 153.94 54.9311C153.94 54.691 153.969 54.4734 154.033 54.2781C154.094 54.0829 154.187 53.9197 154.302 53.7853C154.417 53.6508 154.561 53.5452 154.734 53.4748C154.903 53.4012 155.099 53.366 155.319 53.366C155.537 53.366 155.732 53.4044 155.902 53.4748C156.071 53.5484 156.215 53.6508 156.334 53.7853C156.452 53.9197 156.542 54.0829 156.606 54.2781Z" fill="white"/>
<path d="M159.54 56.4738H161.354V57.3795H158.404V52.4827H159.54V56.4738Z" fill="white"/>
<path fill-rule="evenodd" clip-rule="evenodd" d="M166.15 55.9104C166.272 55.6128 166.332 55.2863 166.332 54.9311C166.332 54.579 166.272 54.2557 166.15 53.9581C166.028 53.6604 165.856 53.4012 165.635 53.1836C165.414 52.9659 165.149 52.7963 164.835 52.6715C164.521 52.5467 164.176 52.4858 163.795 52.4858H161.895V57.3827H163.795C164.176 57.3827 164.521 57.3219 164.835 57.2002C165.145 57.0754 165.414 56.9058 165.635 56.6882C165.856 56.4673 166.028 56.2081 166.15 55.9104ZM165.078 54.2749C165.139 54.4702 165.171 54.6878 165.171 54.9311C165.171 55.1743 165.139 55.3951 165.078 55.5872C165.014 55.7824 164.925 55.9488 164.806 56.0833C164.688 56.2209 164.544 56.3233 164.374 56.3969C164.201 56.4705 164.009 56.5057 163.792 56.5057H163.034V53.3564H163.792C164.009 53.3564 164.205 53.3916 164.374 53.4652C164.544 53.5388 164.688 53.6444 164.806 53.7789C164.925 53.9133 165.014 54.0797 165.078 54.2749Z" fill="white"/>
<path fill-rule="evenodd" clip-rule="evenodd" d="M126.408 90.3419V89.0169H126.891C127.163 89.0169 127.399 88.9849 127.601 88.9177C127.803 88.8537 127.966 88.7608 128.097 88.6424C128.228 88.524 128.324 88.3832 128.388 88.2168C128.452 88.0503 128.484 87.8711 128.484 87.6727C128.484 87.4902 128.455 87.3174 128.391 87.1606C128.327 87.0037 128.235 86.8661 128.103 86.7509C127.972 86.6357 127.809 86.5461 127.607 86.4789C127.406 86.4116 127.166 86.3796 126.887 86.3796H125.489V90.3419H126.408ZM126.887 88.3224H126.408H126.401V87.0614H126.881C126.996 87.0614 127.099 87.0774 127.182 87.1062C127.268 87.135 127.339 87.1766 127.393 87.231C127.451 87.2854 127.489 87.3494 127.518 87.423C127.547 87.4966 127.559 87.5798 127.559 87.6695C127.559 87.8743 127.508 88.0343 127.403 88.1495C127.3 88.2648 127.127 88.3224 126.887 88.3224Z" fill="white"/>
<path d="M130.014 89.609H131.482V90.3419H129.095V86.3796H130.014V89.609Z" fill="white"/>
<path fill-rule="evenodd" clip-rule="evenodd" d="M135.027 90.3419H135.741L134.205 86.3796H133.264L131.731 90.3419H132.448C132.522 90.3419 132.589 90.3227 132.64 90.2811C132.691 90.2395 132.727 90.1947 132.746 90.1435L132.979 89.4522H134.486L134.72 90.1435C134.742 90.2043 134.777 90.2491 134.829 90.2875C134.88 90.3227 134.947 90.3419 135.027 90.3419ZM133.914 87.7431L134.278 88.8281H133.197L133.562 87.7495C133.587 87.6791 133.616 87.5958 133.648 87.503C133.68 87.4102 133.709 87.3078 133.738 87.1958C133.766 87.3046 133.798 87.407 133.83 87.4998C133.84 87.527 133.849 87.5531 133.858 87.5782C133.879 87.6387 133.898 87.6933 133.914 87.7431Z" fill="white"/>
<path d="M138.697 89.3177C138.72 89.3177 138.742 89.3209 138.761 89.3305C138.784 89.3401 138.803 89.3529 138.825 89.3721L139.19 89.7561C139.03 89.9642 138.832 90.121 138.592 90.2266C138.352 90.3322 138.067 90.3866 137.737 90.3866C137.437 90.3866 137.168 90.3354 136.928 90.233C136.688 90.1306 136.486 89.9898 136.323 89.8073C136.157 89.6281 136.029 89.4137 135.942 89.164C135.853 88.9176 135.808 88.6487 135.808 88.3575C135.808 88.063 135.859 87.791 135.962 87.5414C136.064 87.2949 136.205 87.0805 136.387 86.9012C136.57 86.722 136.787 86.5812 137.04 86.482C137.293 86.3828 137.574 86.3315 137.881 86.3315C138.029 86.3315 138.169 86.3443 138.301 86.3699C138.432 86.3956 138.553 86.434 138.669 86.4788C138.784 86.5236 138.889 86.5812 138.985 86.6452C139.081 86.7092 139.168 86.7796 139.241 86.8596L138.931 87.2757C138.912 87.3013 138.886 87.3237 138.861 87.3461C138.835 87.3685 138.797 87.3781 138.745 87.3781C138.713 87.3781 138.681 87.3717 138.653 87.3557C138.624 87.3429 138.592 87.3237 138.56 87.3013C138.528 87.2821 138.493 87.2565 138.451 87.2341C138.413 87.2085 138.365 87.1861 138.313 87.1669C138.259 87.1445 138.198 87.1285 138.125 87.1125C138.051 87.0965 137.968 87.0901 137.872 87.0901C137.705 87.0901 137.552 87.1189 137.414 87.1797C137.277 87.2405 137.158 87.3237 137.059 87.4325C136.96 87.5414 136.883 87.6758 136.829 87.8326C136.774 87.9894 136.746 88.1623 136.746 88.3575C136.746 88.5591 136.774 88.7416 136.829 88.8984C136.883 89.0552 136.96 89.1896 137.056 89.2985C137.152 89.4073 137.261 89.4873 137.389 89.5449C137.517 89.6025 137.651 89.6281 137.795 89.6281C137.878 89.6281 137.955 89.6249 138.022 89.6153C138.089 89.6057 138.157 89.5929 138.214 89.5737C138.272 89.5545 138.329 89.5289 138.384 89.4969C138.438 89.4649 138.493 89.4265 138.547 89.3785C138.569 89.3593 138.592 89.3465 138.617 89.3337C138.643 89.3209 138.672 89.3177 138.697 89.3177Z" fill="white"/>
<path d="M142.297 86.3796V87.087H140.671V88.0119H141.916V88.6936H140.671V89.6378H142.297V90.3451H139.747V86.3828H142.297V86.3796Z" fill="white"/>
<path d="M154.766 95.7476C158.842 95.7476 162.147 92.4417 162.147 88.3639C162.147 84.2861 158.842 80.9802 154.766 80.9802C150.689 80.9802 147.384 84.2861 147.384 88.3639C147.384 92.4417 150.689 95.7476 154.766 95.7476Z" fill="#FF952D"/>
<path d="M151.029 88.1432L153.892 91.0077L159.025 85.874" stroke="#DCECFF" stroke-width="1.27985" stroke-linecap="round" stroke-linejoin="round"/>
<path d="M148.799 165.516C148.012 160.492 147.877 153.758 147.784 148.256C147.688 142.754 138.589 142.85 138.589 142.85L74.7849 145.968C74.7849 145.968 66.1587 141.903 57.7213 142.565C49.2839 143.228 37.1477 142.85 28.3327 142.28C20.1161 141.749 11.5731 142.29 5.68896 143.289C8.89819 154.663 13.0737 164.8 17.1628 173.195C51.1685 173.195 141.839 173.195 145.225 173.195C149.394 173.198 149.583 170.541 148.799 165.516Z" fill="#7DB8FB"/>
<path d="M6.14304 141.618C6.14304 141.618 4.62642 137.918 5.85828 134.695C7.09013 131.472 9.27228 128.057 8.2292 122.651C7.18612 117.246 6.5238 116.202 6.5238 116.202C6.5238 116.202 8.04042 113.738 18.2792 113.546C28.518 113.354 41.6013 117.339 52.4096 114.874C63.218 112.41 72.4265 112.787 72.4265 112.787C72.4265 112.787 70.0556 121.547 71.2874 126.082C72.5193 130.618 71.6682 140.392 71.6682 140.392L6.14304 141.618Z" fill="#DCECFF"/>
<path d="M9.19238 114.724C9.19238 114.724 9.40996 115.088 9.72352 115.709" stroke="#EF9D59" stroke-width="0.959888" stroke-linecap="round" stroke-linejoin="round"/>
<path d="M10.6676 117.87C11.5379 120.174 12.3026 123.362 11.3587 126.082C9.88692 130.326 7.56719 134.804 7.87436 139.544" stroke="#EF9D59" stroke-width="0.959888" stroke-linecap="round" stroke-linejoin="round" stroke-dasharray="2.36"/>
<path d="M8.00538 140.719C8.06297 141.083 8.13976 141.448 8.23255 141.816" stroke="#EF9D59" stroke-width="0.959888" stroke-linecap="round" stroke-linejoin="round"/>
<path d="M15.9818 120.091C16.9236 120.091 17.6872 119.327 17.6872 118.385C17.6872 117.443 16.9236 116.679 15.9818 116.679C15.0399 116.679 14.2764 117.443 14.2764 118.385C14.2764 119.327 15.0399 120.091 15.9818 120.091Z" fill="#EF9D59"/>
<path fill-rule="evenodd" clip-rule="evenodd" d="M27.6416 132.839C29.0324 132.839 30.1597 131.711 30.1597 130.32C30.1597 128.929 29.0324 127.801 27.6416 127.801C26.2509 127.801 25.1235 128.929 25.1235 130.32C25.1235 131.711 26.2509 132.839 27.6416 132.839Z" stroke="#EF9D59" stroke-width="1.27985" stroke-linecap="round"/>
<path d="M51.5011 140.088C52.9467 140.088 54.1184 138.916 54.1184 137.47C54.1184 136.024 52.9467 134.852 51.5011 134.852C50.0555 134.852 48.8838 136.024 48.8838 137.47C48.8838 138.916 50.0555 140.088 51.5011 140.088Z" fill="#EF9D59"/>
<path fill-rule="evenodd" clip-rule="evenodd" d="M62.2773 119.294C63.4119 119.294 64.3315 118.374 64.3315 117.239C64.3315 116.104 63.4119 115.185 62.2773 115.185C61.1427 115.185 60.2231 116.104 60.2231 117.239C60.2231 118.374 61.1427 119.294 62.2773 119.294Z" stroke="#EF9D59" stroke-width="0.5"/>
<path d="M43.9468 124.223C45.3377 124.223 46.4649 123.095 46.4649 121.704C46.4649 120.313 45.3377 119.185 43.9468 119.185C42.5563 119.185 41.4287 120.313 41.4287 121.704C41.4287 123.095 42.5563 124.223 43.9468 124.223Z" fill="#EF9D59"/>
<path d="M15.7868 137.47C16.8365 137.47 17.6874 136.619 17.6874 135.569C17.6874 134.519 16.8365 133.668 15.7868 133.668C14.7372 133.668 13.8862 134.519 13.8862 135.569C13.8862 136.619 14.7372 137.47 15.7868 137.47Z" fill="#EF9D59"/>
<path fill-rule="evenodd" clip-rule="evenodd" d="M60.4311 131.738C61.2297 131.738 61.8773 131.09 61.8773 130.291C61.8773 129.492 61.2297 128.844 60.4311 128.844C59.6325 128.844 58.9849 129.492 58.9849 130.291C58.9849 131.09 59.6325 131.738 60.4311 131.738Z" stroke="#EF9D59" stroke-width="1.27985" stroke-linecap="round"/>
<path d="M69.4703 112.787C69.4703 112.787 67.4929 120.99 68.6256 125.519C69.7583 130.048 70.0974 137.012 68.872 140.859" stroke="#EF9D59" stroke-width="0.959888" stroke-linecap="round" stroke-linejoin="round" stroke-dasharray="2.24"/>
<path d="M70.2603 144.274L69.2844 141.618C69.2844 141.618 67.6942 139.342 61.1413 139.342C54.5885 139.342 42.0747 140.306 32.4055 139.918C25.3759 139.637 12.9165 139.493 5.03906 140.933C5.33343 142.034 5.63419 143.125 5.94776 144.204C6.3957 144.102 6.86605 144.025 7.37159 143.986C16.5737 143.324 70.2603 144.274 70.2603 144.274Z" fill="#EF9D59"/>
<path d="M140.86 121.042C138.489 115.351 141.714 109.683 141.714 109.683C137.068 108.284 129.297 108.239 119.247 109.683C109.197 111.126 99.5273 111.081 99.0537 110.8C99.0537 110.8 81.8461 112.983 75.754 112.342C75.754 112.342 76.6275 123.922 74.567 129.264C72.5064 134.605 74.9445 141.621 74.9445 141.621L98.7689 143.993L139.155 141.813C142.569 138.965 143.231 126.729 140.86 121.042Z" fill="#DCECFF"/>
<path d="M104.81 115.184C105.752 115.184 106.515 114.421 106.515 113.479C106.515 112.536 105.752 111.773 104.81 111.773C103.868 111.773 103.104 112.536 103.104 113.479C103.104 114.421 103.868 115.184 104.81 115.184Z" fill="#EF9D59"/>
<path fill-rule="evenodd" clip-rule="evenodd" d="M95.5469 132.026C96.9375 132.026 98.065 130.898 98.065 129.507C98.065 128.116 96.9375 126.988 95.5469 126.988C94.1564 126.988 93.0288 128.116 93.0288 129.507C93.0288 130.898 94.1564 132.026 95.5469 132.026Z" stroke="#EF9D59" stroke-width="0.5"/>
<path d="M119.407 139.275C120.852 139.275 122.024 138.103 122.024 136.657C122.024 135.211 120.852 134.039 119.407 134.039C117.961 134.039 116.79 135.211 116.79 136.657C116.79 138.103 117.961 139.275 119.407 139.275Z" fill="#EF9D59"/>
<path fill-rule="evenodd" clip-rule="evenodd" d="M131.137 115.533C132.271 115.533 133.191 114.613 133.191 113.479C133.191 112.344 132.271 111.424 131.137 111.424C130.002 111.424 129.083 112.344 129.083 113.479C129.083 114.613 130.002 115.533 131.137 115.533Z" stroke="#EF9D59" stroke-width="1.27985" stroke-linecap="round"/>
<path d="M111.043 120.161C112.434 120.161 113.561 119.034 113.561 117.643C113.561 116.252 112.434 115.124 111.043 115.124C109.652 115.124 108.525 116.252 108.525 117.643C108.525 119.034 109.652 120.161 111.043 120.161Z" fill="#EF9D59"/>
<path d="M83.6926 136.657C84.7424 136.657 85.5931 135.806 85.5931 134.756C85.5931 133.706 84.7424 132.855 83.6926 132.855C82.6428 132.855 81.792 133.706 81.792 134.756C81.792 135.806 82.6428 136.657 83.6926 136.657Z" fill="#EF9D59"/>
<path fill-rule="evenodd" clip-rule="evenodd" d="M128.337 130.925C129.135 130.925 129.783 130.277 129.783 129.478C129.783 128.679 129.135 128.031 128.337 128.031C127.538 128.031 126.891 128.679 126.891 129.478C126.891 130.277 127.538 130.925 128.337 130.925Z" stroke="#EF9D59" stroke-width="1.27985" stroke-linecap="round"/>
<path d="M78.6213 112.519C78.6213 112.519 79.2324 121.467 77.575 128.268C75.9176 135.073 77.575 142.072 77.575 142.072" stroke="#EF9D59" stroke-width="0.959888" stroke-linecap="round" stroke-linejoin="round" stroke-dasharray="2.24"/>
<path fill-rule="evenodd" clip-rule="evenodd" d="M110.56 96.7911C112.111 96.7911 113.369 95.5329 113.369 93.981C113.369 92.429 112.111 91.1709 110.56 91.1709C109.008 91.1709 107.75 92.429 107.75 93.981C107.75 95.5329 109.008 96.7911 110.56 96.7911Z" stroke="#FF00FF" stroke-width="0.5"/>
<path d="M140.486 109.363C140.486 109.363 135.837 113.264 137.069 121.042C138.301 128.819 138.585 135.473 135.93 140.584" stroke="#EF9D59" stroke-width="0.959888" stroke-linecap="round" stroke-linejoin="round" stroke-dasharray="2.24"/>
<path d="M120.517 141.144C120.517 141.144 142.259 138.549 146.597 142.501C150.936 146.454 148.376 155.982 151.256 164.976C154.136 173.966 154.846 175.284 154.846 175.284C154.846 175.284 153.566 177.915 151.256 177.915C151.256 177.915 148.661 171.95 147.736 164.335C146.812 156.721 147.951 145.932 144.358 145.033C140.768 144.134 121.426 144.447 121.426 144.447L120.517 141.144Z" fill="#EF9D59"/>
<path d="M131.949 142.898C131.949 142.898 146.751 140.155 151.253 139.624L150.245 132.535C150.245 132.535 141.996 132.753 132.231 132.042L131.949 142.898Z" fill="#514132"/>
<path d="M152.936 139.915C152.526 139.992 152.152 140.178 151.8 140.405C151.602 140.533 151.221 140.645 150.648 140.258C149.759 139.653 150.754 137.876 150.258 136.097C149.759 134.317 147.983 133.287 148.552 132.042C149.122 130.797 151.218 132.112 152.427 131.543C153.636 130.973 155.236 130.902 156.657 130.723C157.585 130.608 160.66 129.462 162.685 128.681C163.978 128.182 165.382 128.067 166.739 128.345C169.071 128.822 172.719 129.737 174.895 131.142C175.65 131.629 175.829 132.656 175.288 133.373C174.712 134.138 173.666 135.242 171.775 136.721C170.786 137.492 169.571 137.924 168.316 137.934C166.486 137.947 163.552 138.024 160.855 138.334C156.516 138.833 156.446 139.755 155.556 139.755C154.942 139.758 153.816 139.752 152.936 139.915Z" fill="#EF9D59"/>
<path d="M106.708 160.277C106.708 160.277 105.821 171.3 104.948 184.46H112.464C112.464 184.46 115.667 169.738 118.297 159.995L106.708 160.277Z" fill="#514132"/>
<path d="M106.637 182.892C106.637 182.892 106.067 182.655 105.524 182.371C104.98 182.086 103.745 182.87 104.055 184.243C104.362 185.619 104.576 187.54 104.007 189.649C103.437 191.758 100.19 200.694 104.221 200.694C108.253 200.694 114.649 200.694 114.649 200.694C114.649 200.694 116.521 200.531 116.38 197.212C116.239 193.893 114.294 192.59 113.606 190.148C112.918 187.706 113.321 185.027 113.273 183.747C113.225 182.467 113.084 182.252 112.374 182.467C111.66 182.681 109.504 183.532 106.637 182.892Z" fill="#EF9D59"/>
<path d="M78.6211 115.399C78.6211 115.399 80.3745 125.782 79.5202 134.033H107.015V117.934C107.015 117.934 102.158 115.61 99.4187 111.699L78.6211 115.399Z" fill="#3790F4"/>
<path d="M76.5352 114.224L77.575 117.354C77.575 117.354 82.4961 114.58 88.4314 114.544C94.3699 114.509 99.1693 113.763 102.084 111.914L99.8092 108.002L83.3376 111.203L76.5352 114.224Z" fill="white"/>
<path d="M70.4205 88.5688C74.6085 88.5688 78.0036 85.1727 78.0036 80.9835C78.0036 76.7943 74.6085 73.3982 70.4205 73.3982C66.2325 73.3982 62.8374 76.7943 62.8374 80.9835C62.8374 85.1727 66.2325 88.5688 70.4205 88.5688Z" fill="#FF952D"/>
<path d="M58.985 125.519C63.173 125.519 66.5681 122.123 66.5681 117.934C66.5681 113.745 63.173 110.349 58.985 110.349C54.797 110.349 51.4019 113.745 51.4019 117.934C51.4019 122.123 54.797 125.519 58.985 125.519Z" fill="#FF952D"/>
<path d="M114.965 109.776C118.952 109.776 122.184 106.543 122.184 102.555C122.184 98.5673 118.952 95.3347 114.965 95.3347C110.979 95.3347 107.747 98.5673 107.747 102.555C107.747 106.543 110.979 109.776 114.965 109.776Z" fill="#FF952D"/>
<path d="M95.4225 88.5688C99.6105 88.5688 103.006 85.1727 103.006 80.9835C103.006 76.7943 99.6105 73.3982 95.4225 73.3982C91.2345 73.3982 87.8394 76.7943 87.8394 80.9835C87.8394 85.1727 91.2345 88.5688 95.4225 88.5688Z" fill="#FF952D"/>
<path d="M63.3621 78.2119C63.3621 78.2119 52.5505 103.167 51.4019 117.249L66.5713 118.564C66.5713 118.564 67.4608 103.791 77.578 83.5024L63.3621 78.2119Z" fill="#FF952D"/>
<path d="M72.98 75.3665L73.1208 73.8943C72.2825 73.5742 71.3706 73.3982 70.4203 73.3982C67.2111 73.3982 64.469 75.3953 63.3619 78.2118C63.3619 78.2118 62.8276 79.4472 61.9829 81.5212C64.9714 73.8399 72.98 75.3665 72.98 75.3665Z" fill="white"/>
<path d="M56.0957 110.918C56.0957 110.918 62.9301 108.809 64.7315 107.814C66.5329 106.818 69.1886 106.249 69.9469 106.63C70.7052 107.01 75.0183 110.566 74.4488 115.45C74.4488 115.45 74.7815 117.3 71.9371 118.673C69.0926 120.049 64.7155 123.842 62.1878 124.815L56.0957 110.918Z" fill="#FF952D"/>
<path d="M100.523 75.3665C100.523 75.3665 115.35 91.6412 120.485 97.9015L109.677 107.462C109.677 107.462 96.9327 92.2782 89.9863 86.2675L100.523 75.3665Z" fill="#FF952D"/>
<path d="M103.969 79.1688C102.954 78.0454 102.1 77.1044 101.498 76.4419C100.116 74.592 97.9085 73.3982 95.4224 73.3982C94.3921 73.3982 93.4066 73.6062 92.5107 73.9775V75.3665C92.5107 75.3665 98.7436 74.0479 103.969 79.1688Z" fill="white"/>
<path d="M101.866 87.2341C101.217 85.6786 100.644 84.264 100.138 82.9838C100.004 82.6413 99.6073 82.4845 99.2713 82.6413C98.9642 82.7853 98.8234 83.1406 98.9482 83.4574C99.4601 84.7601 100.042 86.1971 100.705 87.7782C101.415 89.1416 101.825 90.7451 101.825 92.4638C101.825 94.1825 101.415 95.786 100.705 97.1494C100.705 97.1494 100.702 97.1654 100.698 97.191C101.082 97.6135 101.46 98.0359 101.834 98.452C101.869 98.1 101.908 97.7831 101.943 97.5399C102.705 95.9972 103.108 94.2497 103.108 92.4638C103.105 90.6171 102.676 88.812 101.866 87.2341Z" fill="#EA8021"/>
<path d="M109.673 107.462C109.673 107.462 108.838 104.927 108.422 102.197C108.009 99.4666 107.366 98.4712 108.422 97.191C109.478 95.9108 112.892 95.4659 113.743 94.5505C114.594 93.6352 115.343 94.0801 116.354 94.9154C117.365 95.7508 119.608 96.6117 120.478 97.9047C121.355 99.1945 109.673 107.462 109.673 107.462Z" fill="#FF952D"/>
<path d="M70.4205 73.395L78.0036 72.1147H88.2904L95.4224 73.395C95.4224 73.395 96.4814 77.6485 100.705 87.775V97.1462C100.705 97.1462 100.107 100.971 100.705 102.92C101.303 104.869 101.825 108.233 101.825 108.233C101.825 108.233 96.0111 111.629 89.6982 111.488C83.3854 111.347 75.7543 115.188 75.7543 115.188C75.7543 115.188 72.6506 107.222 71.7963 105.231C70.942 103.24 68.9742 99.4634 68.6255 97.9048L68.7407 91.4173C68.7407 91.4173 69.7934 87.5446 70.5581 84.36L70.4205 73.395Z" fill="#FF952D"/>
<path d="M75.754 103.788C79.942 103.788 83.3371 99.7766 83.3371 94.8292C83.3371 89.8818 79.942 85.8708 75.754 85.8708C71.566 85.8708 68.1709 89.8818 68.1709 94.8292C68.1709 99.7766 71.566 103.788 75.754 103.788Z" fill="#FF952D"/>
<path d="M81.2289 110.55C80.4321 107.679 78.9667 105.029 78.1636 103.704C77.7669 103.051 77.0469 102.645 76.2822 102.645C75.9367 102.645 75.5943 102.728 75.2839 102.885L71.5884 104.764C71.662 104.927 71.7324 105.084 71.7932 105.231C71.8731 105.42 71.9755 105.66 72.0907 105.945L75.8631 104.027C75.9975 103.96 76.1382 103.928 76.279 103.928C76.5894 103.928 76.8934 104.088 77.0661 104.373C77.7989 105.58 79.2291 108.15 79.9906 110.899C80.0994 111.296 79.9362 111.718 79.5842 111.936L75.4631 114.455C75.6423 114.916 75.7511 115.191 75.7511 115.191C75.7511 115.191 77.0565 114.535 79.0307 113.776L80.253 113.031C81.0913 112.512 81.4912 111.494 81.2289 110.55Z" fill="#EA8021"/>
<path d="M94.2418 101.419C98.4298 101.419 101.825 97.4082 101.825 92.4608C101.825 87.5134 98.4298 83.5024 94.2418 83.5024C90.0538 83.5024 86.6587 87.5134 86.6587 92.4608C86.6587 97.4082 90.0538 101.419 94.2418 101.419Z" fill="#FF952D"/>
<path d="M81.7695 102.706C81.7695 102.706 85.6379 99.8476 86.3962 99.4667C87.1545 99.0859 89.4774 98.7562 90.8533 97.9017C92.2291 97.0471 91.09 100.904 89.3366 101.419C87.5833 101.934 81.7695 102.706 81.7695 102.706Z" fill="#514132"/>
<path d="M88.1946 75.9459L83.0144 78.2119L77.8374 75.8915L78.6213 65.4321H87.4043L88.1946 75.9459Z" fill="#514132"/>
<path d="M119.311 126.422C123.651 126.422 127.169 122.902 127.169 118.561C127.169 114.22 123.651 110.701 119.311 110.701C114.971 110.701 111.453 114.22 111.453 118.561C111.453 122.902 114.971 126.422 119.311 126.422Z" fill="#3790F4"/>
<path d="M74.2152 148.253C78.5552 148.253 82.0735 144.733 82.0735 140.392C82.0735 136.051 78.5552 132.531 74.2152 132.531C69.8752 132.531 66.3569 136.051 66.3569 140.392C66.3569 144.733 69.8752 148.253 74.2152 148.253Z" fill="#3790F4"/>
<path d="M73.2617 148.192C73.2617 148.192 84.1564 149.392 91.4612 148.349C98.7659 147.305 125.064 145.471 132.439 144.444V129.83C132.439 129.83 120.357 129.901 110.403 129.475C100.449 129.049 88.8599 130.464 74.212 132.528L73.2617 148.192Z" fill="#3790F4"/>
<path d="M66.3568 140.392C66.3568 140.392 63.5475 127.558 86.3 123.503V140.392H66.3568Z" fill="#3790F4"/>
<path d="M127.169 118.561C127.169 118.561 123.653 146.704 120.194 163.234L104.736 161.807C104.736 161.807 106.922 146.62 107.846 138.369C108.771 130.118 111.481 117.931 111.481 117.931L127.169 118.561Z" fill="#3790F4"/>
<path d="M117.688 110.874C117.688 110.874 111.427 112.032 99.0537 120.709V132.535H117.688V110.874Z" fill="#3790F4"/>
<path d="M83.0142 80.4745C83.0142 78.5542 85.3435 76.0994 91.41 75.8881C94.4976 75.7793 96.619 75.3024 97.7645 74.96C98.366 74.7807 98.7787 74.2303 98.7787 73.5997C98.7787 72.4219 97.9628 71.401 96.811 71.1449L87.676 69.1094L87.9 72.1115C87.9 72.1115 87.9704 73.4429 86.0602 74.6143C83.0078 76.4866 83.0078 78.2053 83.0078 78.2053C83.0078 78.2053 83.0078 76.4866 79.9553 74.6143C78.0452 73.4429 78.1155 72.1115 78.1155 72.1115L78.3395 69.1094L69.2046 71.1449C68.0559 71.401 67.2368 72.4219 67.2368 73.5997C67.2368 74.2303 67.6496 74.7807 68.2511 74.96C69.3998 75.2992 71.5179 75.7793 74.6056 75.8881C80.6848 76.1026 83.0142 78.5542 83.0142 80.4745Z" fill="#EA8021"/>
<path d="M75.1462 65.2912C77.0017 65.2912 78.5058 63.7866 78.5058 61.9306C78.5058 60.0746 77.0017 58.5701 75.1462 58.5701C73.2908 58.5701 71.7866 60.0746 71.7866 61.9306C71.7866 63.7866 73.2908 65.2912 75.1462 65.2912Z" fill="#25272B"/>
<path d="M72.7244 60.3303C74.5798 60.3303 76.084 58.8257 76.084 56.9697C76.084 55.1137 74.5798 53.6091 72.7244 53.6091C70.8689 53.6091 69.3647 55.1137 69.3647 56.9697C69.3647 58.8257 70.8689 60.3303 72.7244 60.3303Z" fill="#25272B"/>
<path d="M73.3259 55.5583C75.1814 55.5583 76.6855 54.0537 76.6855 52.1977C76.6855 50.3417 75.1814 48.8372 73.3259 48.8372C71.4705 48.8372 69.9663 50.3417 69.9663 52.1977C69.9663 54.0537 71.4705 55.5583 73.3259 55.5583Z" fill="#25272B"/>
<path d="M93.2883 55.5583C95.1438 55.5583 96.6479 54.0537 96.6479 52.1977C96.6479 50.3417 95.1438 48.8372 93.2883 48.8372C91.4329 48.8372 89.9287 50.3417 89.9287 52.1977C89.9287 54.0537 91.4329 55.5583 93.2883 55.5583Z" fill="#25272B"/>
<path d="M75.8567 51.6057C77.7121 51.6057 79.2163 50.1011 79.2163 48.2451C79.2163 46.3891 77.7121 44.8845 75.8567 44.8845C74.0012 44.8845 72.4971 46.3891 72.4971 48.2451C72.4971 50.1011 74.0012 51.6057 75.8567 51.6057Z" fill="#25272B"/>
<path d="M80.8064 49.9318C82.6618 49.9318 84.166 48.4273 84.166 46.5713C84.166 44.7153 82.6618 43.2107 80.8064 43.2107C78.9509 43.2107 77.4468 44.7153 77.4468 46.5713C77.4468 48.4273 78.9509 49.9318 80.8064 49.9318Z" fill="#25272B"/>
<path d="M86.5657 49.9318C88.4211 49.9318 89.9253 48.4273 89.9253 46.5713C89.9253 44.7153 88.4211 43.2107 86.5657 43.2107C84.7102 43.2107 83.2061 44.7153 83.2061 46.5713C83.2061 48.4273 84.7102 49.9318 86.5657 49.9318Z" fill="#25272B"/>
<path d="M91.029 52.1945C92.8845 52.1945 94.3886 50.69 94.3886 48.834C94.3886 46.978 92.8845 45.4734 91.029 45.4734C89.1736 45.4734 87.6694 46.978 87.6694 48.834C87.6694 50.69 89.1736 52.1945 91.029 52.1945Z" fill="#25272B"/>
<path d="M78.0069 67.4933C79.3498 67.4933 80.4386 66.4041 80.4386 65.0608C80.4386 63.7176 79.3498 62.6284 78.0069 62.6284C76.664 62.6284 75.5752 63.7176 75.5752 65.0608C75.5752 66.4041 76.664 67.4933 78.0069 67.4933Z" fill="#25272B"/>
<path d="M92.8148 59.4437C94.3769 59.4437 95.6433 58.1769 95.6433 56.6144C95.6433 55.0519 94.3769 53.7852 92.8148 53.7852C91.2527 53.7852 89.9863 55.0519 89.9863 56.6144C89.9863 58.1769 91.2527 59.4437 92.8148 59.4437Z" fill="#25272B"/>
<path d="M91.1859 63.0411C92.748 63.0411 94.0144 61.7744 94.0144 60.2119C94.0144 58.6493 92.748 57.3826 91.1859 57.3826C89.6238 57.3826 88.3574 58.6493 88.3574 60.2119C88.3574 61.7744 89.6238 63.0411 91.1859 63.0411Z" fill="#25272B"/>
<path d="M89.2308 66.6835C90.7929 66.6835 92.0593 65.4167 92.0593 63.8542C92.0593 62.2917 90.7929 61.0249 89.2308 61.0249C87.6688 61.0249 86.4023 62.2917 86.4023 63.8542C86.4023 65.4167 87.6688 66.6835 89.2308 66.6835Z" fill="#25272B"/>
<path d="M86.8922 68.4215L86.3867 68.7415C84.5277 69.9257 82.1472 69.9257 80.2882 68.7415L79.7826 68.4215C78.1156 67.3589 76.951 65.6658 76.5542 63.7295L74.6152 54.2302H92.0596L90.1206 63.7295C89.7239 65.669 88.5592 67.3621 86.8922 68.4215Z" fill="#514132"/>
<path d="M83.7054 62.7659C83.7054 62.7659 84.9596 64.6862 83.3374 65.4319" stroke="#3A2C20" stroke-width="0.639925" stroke-linecap="round" stroke-linejoin="round"/>
<path d="M92.2416 61.406C92.7792 59.7109 92.6758 58.1657 92.0106 57.9545C91.3451 57.7432 90.3699 58.9463 89.832 60.6413C89.2945 62.336 89.3978 63.8816 90.063 64.0928C90.7285 64.3037 91.7038 63.101 92.2416 61.406Z" fill="#514132"/>
<path d="M76.5193 64.0925C77.1845 63.8813 77.2882 62.336 76.7503 60.641C76.2125 58.946 75.2372 57.7432 74.572 57.9545C73.9065 58.1657 73.8032 59.7109 74.341 61.406C74.8786 63.101 75.8541 64.3037 76.5193 64.0925Z" fill="#514132"/>
<path d="M89.8324 58.7653C91.3944 58.7653 92.6608 57.4985 92.6608 55.936C92.6608 54.3735 91.3944 53.1067 89.8324 53.1067C88.2703 53.1067 87.0039 54.3735 87.0039 55.936C87.0039 57.4985 88.2703 58.7653 89.8324 58.7653Z" fill="#25272B"/>
<path d="M79.5169 58.0067C81.079 58.0067 82.3454 56.7399 82.3454 55.1774C82.3454 53.6149 81.079 52.3481 79.5169 52.3481C77.9549 52.3481 76.6885 53.6149 76.6885 55.1774C76.6885 56.7399 77.9549 58.0067 79.5169 58.0067Z" fill="#25272B"/>
<path d="M74.6151 59.2677C76.1771 59.2677 77.4436 58.0009 77.4436 56.4384C77.4436 54.8759 76.1771 53.6091 74.6151 53.6091C73.053 53.6091 71.7866 54.8759 71.7866 56.4384C71.7866 58.0009 73.053 59.2677 74.6151 59.2677Z" fill="#25272B"/>
<path d="M84.3612 57.8563C85.9232 57.8563 87.1897 56.5895 87.1897 55.027C87.1897 53.4645 85.9232 52.1978 84.3612 52.1978C82.7991 52.1978 81.5327 53.4645 81.5327 55.027C81.5327 56.5895 82.7991 57.8563 84.3612 57.8563Z" fill="#25272B"/>
<path d="M72.4971 55.4528H93.2882V48.8341L83.3374 46.3376L72.4971 51.3881V55.4528Z" fill="#25272B"/>
<path d="M112.291 93.0303L111.705 91.414C111.705 91.414 106.995 83.9951 106.141 82.9997C105.287 82.0044 104.292 82.1804 104.042 82.9997C103.793 83.8191 101.662 88.2998 102.621 89.0808C103.581 89.8617 105.466 91.3212 106.071 90.8603C106.071 90.8603 108.115 93.6512 110.016 94.8322L112.291 93.0303Z" fill="#514132"/>
<path d="M104.397 83.3199C104.397 83.3199 103.204 82.699 102.717 83.0639C102.228 83.4287 99.4314 87.7463 100.705 88.5752C101.978 89.4041 104.112 91.11 104.823 90.5051C105.533 89.9002 104.397 83.3199 104.397 83.3199Z" fill="#514132"/>
<path d="M102.503 83.9569C102.503 83.9569 100.091 82.5614 99.1277 83.3008C98.1678 84.0401 94.741 88.5881 94.0851 89.1802C93.4292 89.7723 95.9857 89.6154 97.064 88.2968C98.139 86.9782 99.8348 85.8292 99.8348 85.8292L103.006 87.4103L102.503 83.9569Z" fill="#514132"/>
<path d="M109.162 95.0915C109.162 95.0915 106.388 93.5264 105.607 93.1007C104.826 92.675 102.906 91.8909 102.017 90.9307C101.127 89.9706 100.257 89.5801 99.3068 89.1512C98.3566 88.7224 100.241 88.031 101.201 88.3255C102.161 88.6199 106.96 90.0762 106.96 90.0762L110.643 94.3361L109.162 95.0915Z" fill="#514132"/>
<path d="M103.117 83.5023C103.117 83.5023 101.767 82.8302 101.162 83.5023C100.558 84.1744 98.6731 87.9863 99.7418 88.5688C100.807 89.1513 103.367 90.9244 103.856 90.1243C104.343 89.3273 103.117 83.5023 103.117 83.5023Z" fill="#514132"/>
<path d="M106.068 90.8604C106.068 90.8604 106.352 90.0058 105.853 89.0809C105.354 88.1559 104.884 86.7637 104.884 86.7637" stroke="#3A2C20" stroke-width="0.639925" stroke-linecap="round" stroke-linejoin="round"/>
<path d="M98.161 110.134H90.2291C89.7364 110.134 89.3364 109.734 89.3364 109.241V92.3453C89.3364 91.8525 89.7364 91.4524 90.2291 91.4524H98.161C98.6537 91.4524 99.0537 91.8525 99.0537 92.3453V109.241C99.0537 109.734 98.6537 110.134 98.161 110.134Z" fill="#1773C6"/>
<path d="M76.5352 105.061L81.037 102.92C81.037 102.92 87.4363 101.032 89.3337 100.414C91.231 99.7964 98.6734 98.4074 99.5789 98.8203C100.484 99.2331 99.8092 101.045 99.8092 101.416C99.8092 101.787 99.8572 102.783 99.6685 103.733C99.4797 104.68 100.001 105.346 99.7165 106.508C99.4317 107.67 98.4782 108.473 95.4226 108.473C92.3701 108.473 82.976 109.395 82.976 109.395L78.1958 111.699L76.5352 105.061Z" fill="#514132"/>
<path d="M69.8574 107.078L75.8631 104.024C76.2919 103.807 76.8166 103.954 77.0662 104.367C77.7989 105.573 79.2291 108.143 79.9906 110.893C80.0994 111.289 79.9362 111.712 79.5843 111.93L73.4826 115.658L69.8574 107.078Z" fill="#FF952D"/>
<path d="M108.426 97.1912L107.354 95.0244C107.168 94.6467 107.312 94.1891 107.683 93.9874C108.678 93.4497 110.553 92.3776 111.644 91.3694C112.006 91.0333 112.582 91.1037 112.844 91.523L114.812 94.6691L108.426 97.1912Z" fill="#FF952D"/>
<path d="M120.204 163.238C120.27 162.521 116.863 161.621 112.594 161.226C108.325 160.831 104.811 161.093 104.745 161.809C104.678 162.525 108.086 163.426 112.355 163.82C116.624 164.215 120.138 163.954 120.204 163.238Z" fill="#3790F4"/>
<path d="M132.442 144.447C133.161 144.447 133.744 141.176 133.744 137.14C133.744 133.105 133.161 129.833 132.442 129.833C131.723 129.833 131.14 133.105 131.14 137.14C131.14 141.176 131.723 144.447 132.442 144.447Z" fill="#3790F4"/>
<path d="M69.8348 84.2769C69.5148 84.2417 69.2172 84.4465 69.1437 84.7602C68.4589 87.5574 67.6238 90.6524 67.5182 91.0396C67.1023 92.2494 66.8911 93.5233 66.8911 94.8323C66.8911 95.9973 67.0607 97.1431 67.3903 98.2313C67.6718 99.4347 68.6317 101.464 69.5596 103.429C69.582 103.477 69.6044 103.528 69.63 103.576C69.806 102.981 69.9884 102.373 70.1835 101.749C69.4796 100.241 68.8141 98.7466 68.6285 97.9016C68.3341 96.9446 68.171 95.9109 68.171 94.8323C68.171 93.6225 68.3757 92.4703 68.7437 91.4173C68.7437 91.4173 69.646 88.0887 70.3883 85.0674C70.4779 84.6897 70.2187 84.3185 69.8348 84.2769Z" fill="#EA8021"/>
<path d="M116.943 93.7376C116.406 93.3119 115.826 92.9246 115.158 92.803L113.929 90.8411C113.551 90.2394 112.892 89.8745 112.185 89.8745C111.66 89.8745 111.161 90.0729 110.774 90.4282C110.057 91.0939 108.714 91.9773 107.085 92.8542C106.106 93.3823 105.712 94.5889 106.205 95.5875L106.951 97.1014C106.349 98.2728 106.583 99.4153 106.845 100.702C106.944 101.188 107.056 101.739 107.155 102.389C107.21 102.738 107.267 103.083 107.331 103.422C107.389 103.726 107.651 103.947 107.962 103.947C108.365 103.947 108.666 103.582 108.589 103.186C108.528 102.862 108.47 102.529 108.419 102.197C108.006 99.4666 107.363 98.4712 108.419 97.191L107.347 95.0242C107.162 94.6465 107.309 94.1889 107.68 93.9872C108.678 93.4495 110.55 92.3773 111.638 91.3692C111.792 91.2251 111.987 91.1579 112.179 91.1579C112.435 91.1579 112.691 91.2828 112.841 91.5228L114.444 94.0832C114.537 94.0576 114.627 94.0448 114.719 94.0448C115.222 94.0448 115.74 94.4065 116.358 94.9122C117.25 95.6451 119.087 96.4004 120.111 97.4502C119.247 96.4068 118.159 95.1394 116.943 93.7376Z" fill="#EA8021"/>
<path d="M64.3315 114.685C69.1918 111.651 72.9801 110.704 72.9801 110.704L72.0586 108.915C69.051 108.121 58.0667 115.409 54.8031 116.75C51.5426 118.088 51.8338 113.789 51.837 113.776C51.6386 114.986 51.4914 116.151 51.4019 117.246L51.4339 117.249C51.4147 117.473 51.4019 117.7 51.4019 117.931C51.4019 118.328 51.4339 118.718 51.4914 119.102C53.36 121.618 59.7657 117.537 64.3315 114.685Z" fill="white"/>
<path d="M70.6826 107.219C70.6826 107.219 72.9544 108.857 74.3494 115.015" stroke="#EA8021" stroke-width="0.639925" stroke-linecap="round" stroke-linejoin="round"/>
<path d="M64.114 106.69C62.7317 107.452 58.2011 108.905 56.5724 109.398C56.5564 109.404 56.5405 109.408 56.5213 109.414C55.6158 109.677 54.7807 110.08 54.0287 110.592C53.7824 110.758 53.6864 111.072 53.7984 111.347L53.808 111.37C53.9584 111.744 54.4159 111.872 54.7519 111.645C55.4142 111.194 56.1533 110.848 56.9468 110.627V110.624C56.9468 110.624 62.9365 108.806 64.7379 107.811C65.9921 107.116 67.6592 106.633 68.8142 106.527C68.9262 106.105 69.0414 105.673 69.163 105.231C67.7263 105.25 65.621 105.858 64.114 106.69Z" fill="#EA8021"/>
<path d="M120.485 97.9015C120.149 97.4022 119.608 96.9702 119.013 96.5765C118.984 96.5573 118.955 96.5381 118.923 96.5189C118.856 96.4741 118.786 96.4293 118.719 96.3877C118.712 96.3845 118.709 96.3813 118.703 96.3781C117.839 95.8372 116.914 95.3699 116.357 94.9154C115.628 94.3169 115.039 93.92 114.447 94.0833C114.447 94.0833 114.623 94.1345 113.366 95.0946C113.366 95.0946 120.127 99.5498 122.12 103.483C122.158 103.179 122.181 102.872 122.181 102.558C122.184 100.782 121.544 99.1561 120.485 97.9015Z" fill="white"/>
<path d="M108.426 97.191C108.426 97.191 111.597 97.1974 114.451 94.0833" stroke="#EA8021" stroke-width="0.959888" stroke-linecap="round" stroke-linejoin="round"/>
<path d="M78.0066 75.3665C78.0066 75.3665 79.6032 81.8092 78.5089 85.8739C77.4146 89.9354 77.837 94.1729 77.837 94.1729" stroke="white" stroke-width="0.959888" stroke-linecap="round" stroke-linejoin="round"/>
<path d="M88.1078 74.7937C88.1078 74.7937 86.7991 80.4587 87.2279 85.8708C87.6534 91.2861 88.1078 93.6481 88.1078 93.6481" stroke="white" stroke-width="0.959888" stroke-linecap="round" stroke-linejoin="round"/>
<path d="M109.193 129.443C109.27 129.014 109.347 128.585 109.424 128.166C108.547 128.141 107.645 128.125 106.733 128.125C98.0394 128.125 87.9446 129.338 77.4178 130.794C77.0467 130.845 76.7971 131.203 76.8803 131.568C76.9539 131.895 77.2643 132.109 77.5938 132.064C88.9525 130.496 98.4234 129.405 106.733 129.405C107.565 129.405 108.381 129.421 109.193 129.443Z" fill="#1773C6"/>
<path d="M124.68 145.276C125.547 139.762 126.331 134.33 126.958 129.83C126.545 129.827 126.116 129.824 125.668 129.821C125.035 134.366 124.244 139.848 123.368 145.398C123.812 145.356 124.251 145.318 124.68 145.276Z" fill="#1773C6"/>
<path d="M110.857 117.793C111.2 117.87 111.417 118.206 111.344 118.552C110.784 121.131 108.646 131.226 107.843 138.369C107.574 140.783 107.194 143.788 106.794 146.832C106.355 146.87 105.92 146.908 105.488 146.944C105.901 143.804 106.295 140.693 106.57 138.225C107.37 131.072 109.526 120.888 110.089 118.279C110.169 117.934 110.512 117.716 110.857 117.793Z" fill="#1773C6"/>
<path d="M87.9001 122.578C87.9001 122.066 87.4362 121.678 86.9338 121.768L86.0219 121.931C83.6766 122.347 81.5169 122.869 79.5459 123.496C79.5843 124.034 79.6195 124.585 79.6483 125.148C81.5777 124.514 83.7822 123.957 86.3003 123.509L87.1802 123.397C87.593 123.343 87.9001 122.994 87.9001 122.578Z" fill="#1773C6"/>
<path d="M98.5834 119.076C100.305 117.892 102.177 116.666 103.568 115.802C104.08 116.18 104.573 116.513 105.015 116.794C103.338 117.815 101.505 119.006 99.4985 120.398C99.2298 120.587 98.8714 120.593 98.5962 120.411C98.1227 120.094 98.1131 119.4 98.5834 119.076Z" fill="#1773C6"/>
<path d="M214.228 43.7772C224.466 35.507 239.818 37.5458 248.521 48.3284C257.224 59.1111 255.979 74.5537 245.744 82.8207L214.228 43.7772Z" fill="#EAAA7A"/>
<path d="M245.737 82.8274C247.671 81.2652 242.184 71.2584 233.481 60.4767C224.778 49.695 216.154 42.2214 214.22 43.7839C212.286 45.3461 217.773 55.3529 226.476 66.1346C235.179 76.916 243.803 84.3899 245.737 82.8274Z" fill="#FF952D"/>
<path d="M245.008 81.9235C246.472 80.7409 240.93 71.4469 232.63 61.1645C224.33 50.8821 216.414 43.5051 214.95 44.6877C213.486 45.8703 219.028 55.1644 227.328 65.4468C235.628 75.7292 243.543 83.1061 245.008 81.9235Z" fill="#CC630D"/>
<path d="M234.27 64.6894C234.632 64.6894 234.984 64.651 235.323 64.5806C234.465 63.4572 233.566 62.3146 232.632 61.1592C231.592 59.8694 230.555 58.6276 229.538 57.4402C229.256 58.0771 229.1 58.7812 229.1 59.5205C229.103 62.3754 231.416 64.6894 234.27 64.6894Z" fill="white"/>
<path d="M244.672 210.039C244.672 210.039 247.517 210.651 254.578 211.057C261.64 211.464 264.58 210.75 268.039 210.324C271.498 209.899 274.342 210.657 275.337 211.985L288.99 205.488C288.99 205.488 288.849 204.589 286.005 204.87C283.16 205.155 279.132 202.547 276.713 202.736C274.294 202.925 266.334 203.712 265.195 202.726C265.195 202.726 265.882 200.966 265.87 200.002H244.669V210.039H244.672Z" fill="#105A91"/>
<path d="M260.504 178.367C260.504 178.367 261.784 179.932 262.165 181.164L254.201 189.434L247.283 178.699L258.376 175.22L260.504 178.367Z" fill="#105A91"/>
<path d="M228.101 169.149H192.765V200.694H228.101V169.149Z" fill="#105A91"/>
<path d="M207.697 198.12C207.697 198.12 205.595 199 205.595 197.295C205.595 195.589 206.523 195.157 205.925 193.915C205.327 192.676 203.452 190.196 205.925 189.549C208.398 188.903 209.611 189.284 210.216 188.285C210.823 187.286 212.599 186.854 213.031 188.794C213.463 190.733 209.905 192.459 210.929 193.323C211.953 194.184 213.47 194.725 213.114 195.858C212.759 196.991 210.145 196.005 209.512 196.606C208.878 197.208 208.072 197.996 207.697 198.12Z" fill="#0B467B"/>
<path d="M207.649 141.381C207.649 141.381 213.054 137.352 216.324 136.26L231.544 140.799C231.544 140.799 235.259 141.359 238.174 146.195C241.089 151.031 245.143 160.207 248.553 164.118L223.526 177.49L207.649 141.381Z" fill="#DCECFF"/>
<path d="M236.897 223.149C236.897 223.149 237.857 224.323 235.832 225.034C233.806 225.744 226.802 225.175 223.388 225.568C219.974 225.959 218.768 226.388 218.694 225.568C218.624 224.749 218.694 223.469 218.694 223.469L234.017 221.974L236.897 223.149Z" fill="#105A91"/>
<path d="M190.681 207.783C190.681 207.783 184.282 213.761 193.027 217.602C201.771 221.443 214.714 222.153 218.694 225.568C218.694 225.568 232.347 222.012 236.897 223.149C236.897 223.149 233.483 220.518 230.427 216.607C227.372 212.696 222.818 203.417 222.818 203.417H192.672L190.681 207.783Z" fill="#FF952D"/>
<path d="M196.512 158.853C196.512 158.853 196.726 162.338 196.086 163.334C195.446 164.329 188.423 176.894 188.423 176.894L196.012 187.587C196.012 187.587 205.256 179.858 208.171 173.194C211.086 166.534 204.616 147.331 204.616 147.331L196.796 154.657L196.512 158.853Z" fill="#1773C6"/>
<path d="M137.51 195.64C137.51 195.64 143.612 195.909 148.92 192.494C154.228 189.079 156.836 184.387 165.133 187.943V200.982H137.51V195.64Z" fill="#DCECFF"/>
<path fill-rule="evenodd" clip-rule="evenodd" d="M158.519 191.786C158.519 193.278 159.732 194.491 161.223 194.491C162.714 194.491 163.926 193.278 163.926 191.786C163.926 190.295 162.714 189.082 161.223 189.082C159.732 189.082 158.519 190.295 158.519 191.786ZM159.159 191.786C159.159 190.647 160.084 189.722 161.223 189.722C162.359 189.722 163.286 190.647 163.286 191.786C163.286 192.926 162.362 193.851 161.223 193.851C160.084 193.851 159.159 192.926 159.159 191.786Z" fill="#105A91"/>
<path d="M164.278 188.087C164.278 188.087 163.095 192.033 161.386 193.829C159.681 195.624 157.508 197.4 157.575 201.705H171.129V185.526H164.87L164.278 188.087Z" fill="#EA8021"/>
<path d="M183.428 214.827C183.428 214.827 183.499 216.322 189.828 211.911C196.156 207.501 201.205 204.445 204.191 203.731L200.956 200.495L181.153 212.836L183.428 214.827Z" fill="#EA8021"/>
<path d="M169.398 192.734C169.398 192.734 169.113 186.95 167.597 186.192C166.08 185.433 164.752 186.288 164.279 188.09C164.279 188.09 163.482 183.824 166.819 181.071C170.156 178.322 181.534 172.346 186.746 167.888C191.962 163.43 198.691 159.826 202.959 159.544C202.959 159.544 207.697 165.993 210.449 168.839C213.198 171.684 211.681 173.201 211.681 173.201C211.681 173.201 204.002 177.182 195.66 177.09C195.66 177.09 196.323 183.254 202.485 190.461C208.648 197.669 210.068 201.532 210.068 201.532C210.068 201.532 209.499 204.275 201.25 205.619C193.002 206.964 183.332 211.8 183.428 214.834C183.428 214.827 172.431 213.499 169.398 192.734Z" fill="#CC630D"/>
<path d="M191.36 181.849C188.743 183.187 190.019 185.574 191.673 186.07C193.328 186.57 193.235 188.445 195.078 191.748C196.921 195.051 199.775 191.447 201.33 190.129C201.525 189.962 201.711 189.837 201.89 189.741C200.088 187.53 198.802 185.43 197.884 183.606C196.422 183.532 193.5 180.757 191.36 181.849Z" fill="#BF4F09"/>
<path d="M193.814 171.345C193.814 171.345 188.925 184.198 181.72 193.208C176.639 199.558 175.09 205.245 174.613 208.052C176.114 210.321 177.695 211.835 179.096 212.846C178.232 207.738 182.472 198.453 187.393 193.115C193.162 186.855 195.932 178.488 195.932 178.488C195.708 177.595 195.654 177.09 195.654 177.09C198.079 177.119 200.447 176.798 202.588 176.334C202.616 171.447 193.814 171.345 193.814 171.345Z" fill="#EF9D59"/>
<path d="M179.019 186.675C183.358 182.255 191.219 169.328 191.981 164.019C190.17 165.174 188.381 166.486 186.746 167.885C185.569 168.893 184.071 169.978 182.427 171.085C179.825 176.017 176.008 182.691 172.063 187.584C170.965 188.948 170.06 190.314 169.314 191.655C169.375 192.295 169.398 192.731 169.398 192.731C169.865 195.918 170.518 198.645 171.289 200.985L171.292 200.982C171.292 200.982 174.683 191.095 179.019 186.675Z" fill="#EF9D59"/>
<path d="M210.446 168.835C208.619 166.944 205.912 163.462 204.303 161.34C202.901 160.86 201.474 160.424 200.111 160.098C197.641 160.834 194.777 162.236 191.978 164.019C191.987 164.019 204.402 165.849 208.168 173.198C208.398 173.649 208.625 174.062 208.843 174.44C210.609 173.751 211.674 173.198 211.674 173.198C211.674 173.198 213.197 171.681 210.446 168.835Z" fill="#EF9D59"/>
<path d="M166.819 181.068C163.482 183.817 164.279 188.087 164.279 188.087C164.726 186.384 165.936 185.529 167.347 186.08C168.188 183.721 169.392 180.757 170.841 178.328C169.12 179.407 167.693 180.348 166.819 181.068Z" fill="#EF9D59"/>
<path d="M157.31 223.03C157.31 223.03 167.833 221.798 170.06 226.397C172.287 230.996 172.952 233.509 175.797 232.514C178.641 231.518 179.684 228.673 184.756 227.441C189.827 226.208 195.564 223.504 194.096 221.609C192.627 219.711 183.668 221.468 176.84 219.903C170.015 218.338 162.858 216.68 162.858 216.68C162.858 216.68 156.977 218.62 157.31 223.03Z" fill="#1773C6"/>
<path d="M170.335 226.97C172.348 231.201 173.074 233.467 175.797 232.513C177.796 231.813 178.907 230.199 181.153 228.874C176.126 225.946 170.335 226.97 170.335 226.97Z" fill="#3790F4"/>
<path d="M194.093 221.609C193.379 220.688 190.89 220.627 187.741 220.63C184.849 223.35 186.237 227.044 186.237 227.044C190.871 225.693 195.42 223.322 194.093 221.609Z" fill="#3790F4"/>
<path d="M170.076 220.604C171.141 220.828 171.282 222.912 173.202 223.562C175.122 224.208 175.471 222.048 175.471 222.048C176.005 221.097 176.03 221.344 177.649 222.237C178.641 222.784 179.46 221.459 179.595 220.358C178.654 220.252 177.729 220.105 176.837 219.9C173.932 219.235 170.965 218.55 168.518 217.986C168.451 218.031 168.38 218.079 168.316 218.137C166.94 219.321 169.011 220.38 170.076 220.604Z" fill="#0E59B4"/>
<path d="M232.677 213.973L243.728 211.607C243.728 211.607 260.504 205.402 260.933 199.836C261.358 194.273 261.643 188.368 257.474 185.904C253.302 183.439 250.08 181.638 248.563 176.894L222.492 185.43C222.492 185.43 216.899 189.981 217.469 196.904C217.469 196.904 203.973 194.853 198.818 199.948C198.818 199.948 199.078 204.016 199.858 208.141C200.639 212.267 204.837 213.973 204.837 213.973C204.837 213.973 207.112 208.426 213.297 210.558C219.478 212.696 227.679 215.003 232.677 213.973Z" fill="#DCECFF"/>
<path d="M204.088 200.742C204.088 199.519 203.262 198.46 202.053 197.925C201.701 198.066 201.359 198.22 201.029 198.389C202.35 198.655 203.336 199.609 203.336 200.745C203.336 202.086 201.97 203.174 200.287 203.174C199.864 203.174 199.461 203.104 199.093 202.979C199.122 203.238 199.154 203.51 199.189 203.792C199.538 203.882 199.906 203.93 200.287 203.93C202.382 203.926 204.088 202.499 204.088 200.742Z" fill="#3790F4"/>
<path d="M228.105 210.359C226.009 210.359 224.3 211.787 224.3 213.544C224.3 213.573 224.303 213.598 224.307 213.627C224.563 213.675 224.815 213.72 225.068 213.765C225.059 213.691 225.055 213.618 225.055 213.544C225.055 212.203 226.422 211.115 228.105 211.115C229.784 211.115 231.154 212.206 231.154 213.544C231.154 213.768 231.112 213.982 231.042 214.187C231.317 214.168 231.583 214.142 231.845 214.11C231.883 213.928 231.909 213.739 231.909 213.544C231.906 211.787 230.2 210.359 228.105 210.359Z" fill="#3790F4"/>
<path d="M254.038 200.761C251.919 200.761 250.195 202.486 250.195 204.605C250.195 205.99 250.934 207.203 252.035 207.879C252.332 207.722 252.63 207.562 252.927 207.399C251.817 206.957 251.027 205.872 251.027 204.605C251.027 202.944 252.377 201.593 254.038 201.593C255.698 201.593 257.048 202.944 257.048 204.605C257.048 204.678 257.042 204.752 257.036 204.825C257.32 204.617 257.596 204.403 257.858 204.192C257.65 202.265 256.018 200.761 254.038 200.761Z" fill="#3790F4"/>
<path d="M244.931 186.406C244.931 186.406 242.57 186.672 242.688 184.473C242.807 182.275 244.944 181.519 244.871 180.338C244.797 179.157 245.302 176.683 246.941 177.778C248.579 178.872 247.872 181.314 249.017 182.252C250.163 183.19 253.993 185.513 252.121 186.643C250.252 187.773 248.563 187.514 249.043 189.117C249.523 190.721 244.906 190.695 245.366 188.74C245.83 186.787 246.083 186.691 244.931 186.406Z" fill="#BFCEDB"/>
<path d="M239.805 201.526C241.412 201.526 242.714 200.46 242.714 199.145C242.714 197.83 241.412 196.763 239.805 196.763C238.199 196.763 236.897 197.83 236.897 199.145C236.897 200.46 238.199 201.526 239.805 201.526Z" fill="#3790F4"/>
<path fill-rule="evenodd" clip-rule="evenodd" d="M228.642 206.291C230.248 206.291 231.55 205.225 231.55 203.91C231.55 202.595 230.248 201.529 228.642 201.529C227.036 201.529 225.733 202.595 225.733 203.91C225.733 205.225 227.036 206.291 228.642 206.291Z" stroke="#3790F4" stroke-width="0.639925"/>
<path d="M155.432 199.698C156.444 199.698 157.265 199.026 157.265 198.197C157.265 197.368 156.444 196.696 155.432 196.696C154.419 196.696 153.598 197.368 153.598 198.197C153.598 199.026 154.419 199.698 155.432 199.698Z" fill="#105A91"/>
<path fill-rule="evenodd" clip-rule="evenodd" d="M246.634 194.478C247.719 194.478 248.598 193.758 248.598 192.868C248.598 191.979 247.719 191.259 246.634 191.259C245.549 191.259 244.669 191.979 244.669 192.868C244.669 193.758 245.549 194.478 246.634 194.478Z" stroke="#3790F4" stroke-width="0.639925"/>
<path fill-rule="evenodd" clip-rule="evenodd" d="M249.622 182.665C250.707 182.665 251.586 181.944 251.586 181.055C251.586 180.166 250.707 179.445 249.622 179.445C248.537 179.445 247.657 180.166 247.657 181.055C247.657 181.944 248.537 182.665 249.622 182.665Z" stroke="#3790F4" stroke-width="0.639925"/>
<path fill-rule="evenodd" clip-rule="evenodd" d="M226.786 195.426C228.189 195.426 229.327 194.493 229.327 193.342C229.327 192.192 228.189 191.259 226.786 191.259C225.383 191.259 224.246 192.192 224.246 193.342C224.246 194.493 225.383 195.426 226.786 195.426Z" stroke="#3790F4" stroke-width="0.639925"/>
<path d="M242.017 187.005C242.8 187.005 243.434 186.485 243.434 185.843C243.434 185.201 242.8 184.681 242.017 184.681C241.234 184.681 240.599 185.201 240.599 185.843C240.599 186.485 241.234 187.005 242.017 187.005Z" fill="#3790F4"/>
<path d="M213.341 208.948C214.5 208.948 215.44 208.177 215.44 207.226C215.44 206.275 214.5 205.504 213.341 205.504C212.182 205.504 211.242 206.275 211.242 207.226C211.242 208.177 212.182 208.948 213.341 208.948Z" fill="#3790F4"/>
<path d="M246.282 209.754C246.016 208.42 241.77 207.645 237.009 208.593C232.245 209.54 228.584 211.835 228.85 213.169C229.116 214.504 232.725 213.89 237.489 212.942C242.253 211.998 246.547 211.089 246.282 209.754Z" fill="#105A91"/>
<path d="M234.241 211.223L235.105 213.4C235.857 213.262 236.654 213.109 237.489 212.942C239.162 212.609 240.778 212.283 242.16 211.937L241.636 209.514C237.988 209.943 234.241 211.223 234.241 211.223Z" fill="#EF9D59"/>
<path d="M254.063 202.175C254.063 202.175 250.976 203.024 251.401 198.328C251.827 193.633 257.8 179.34 261.71 180.335C265.62 181.33 264.411 184.316 267.044 187.591C269.677 190.865 270.029 194.289 269.604 195.563C269.604 195.563 271.072 198.319 269.018 199.426L254.063 202.175Z" fill="#EF9D59"/>
<path d="M275.34 211.982C275.34 211.982 275.436 207.466 279.417 206.967C283.397 206.468 285.32 206.093 286.526 205.472C287.732 204.851 288.718 204.784 288.99 205.485C289.262 206.186 289.012 207.216 287.697 207.466C286.382 207.716 281.298 209.706 279.698 210.667C278.098 211.627 275.635 213.227 275.34 211.982Z" fill="#3790F4"/>
<path d="M120.165 203.977C120.165 203.977 123.467 201.219 126.878 198.706C130.292 196.194 132.093 195.339 135.696 195.435C139.299 195.531 145.461 198.184 150.913 198.943C156.366 199.701 159.255 199.89 162.858 199.132L156.743 204.586L150.203 205.318C150.203 205.318 148.213 205.152 146.885 205.959L120.165 203.977Z" fill="#FF952D"/>
<path d="M196.512 158.853C196.512 158.853 198.646 151.456 202.626 154.017C206.606 156.577 207.035 163.689 206.325 170.02C205.614 176.35 205.755 185.453 211.159 189.722C211.159 189.722 222.102 186.49 226.137 180.62C226.137 180.62 221.897 170.164 220.262 158.927C218.627 147.689 211.374 138.088 205.899 140.648C200.421 143.205 192.602 156.933 196.512 158.853Z" fill="#3790F4"/>
<path d="M213.956 136.593C213.956 136.593 216.848 133.748 220.758 134.673C224.668 135.598 225.237 137.019 227.583 137.518C229.928 138.017 232.062 140.434 231.992 142.853C231.921 145.273 237.252 164.476 241.376 170.308C241.376 170.308 232.987 174.868 226.799 177.134C226.799 177.134 223.081 162.982 219.181 157.432C215.28 151.885 215.235 140.575 213.956 136.593Z" fill="#EF9D59"/>
<path d="M225.855 138.2C224.092 138.629 225.452 140.514 226.3 141.199C227.145 141.884 226.325 143.804 227.74 145.254C229.154 146.704 230.447 144.94 230.447 144.94C231.355 144.338 231.266 144.569 232.299 146.102C232.392 146.24 232.501 146.339 232.619 146.406C232.206 144.652 231.976 143.372 231.989 142.853C232.024 141.653 231.515 140.453 230.709 139.49C230.507 139.528 230.325 139.56 230.178 139.582C228.831 139.774 227.618 137.771 225.855 138.2Z" fill="#DB8646"/>
<path d="M149.013 208.285C149.013 208.285 150.222 212.981 157.546 210.491C164.87 208.001 165.865 206.436 169.919 206.864C173.973 207.29 174.683 204.518 174.328 199.894C173.973 195.272 177.883 193.633 177.883 193.633C177.883 193.633 177.669 186.166 173.973 183.891C173.973 183.891 167.148 190.506 164.515 195.272C161.885 200.038 155.982 202.883 152.641 203.664C149.298 204.445 148.302 206.08 149.013 208.285Z" fill="#3790F4"/>
<path d="M160.989 201.171C159.313 201.948 161.923 205.306 162.81 204.045C163.696 202.784 164.47 204.153 166.355 204.864C168.236 205.575 167.737 201.481 167.763 200.118C167.788 198.754 169.958 197.877 169.817 196.066C169.676 194.254 167.6 195.301 166.787 196.027C166.192 196.559 165.088 196.104 163.891 196.28C163.309 197.128 162.624 197.909 161.879 198.62C162.058 199.148 162.432 199.529 162.432 199.529C162.88 200.518 162.666 200.39 160.989 201.171Z" fill="#217DC1"/>
<path d="M164.195 201.433C164.713 201.433 165.133 201.013 165.133 200.495C165.133 199.977 164.713 199.557 164.195 199.557C163.678 199.557 163.258 199.977 163.258 200.495C163.258 201.013 163.678 201.433 164.195 201.433Z" fill="#DCECFF"/>
<path d="M161.562 204.352C162.08 204.352 162.499 203.932 162.499 203.414C162.499 202.896 162.08 202.476 161.562 202.476C161.044 202.476 160.625 202.896 160.625 203.414C160.625 203.932 161.044 204.352 161.562 204.352Z" fill="#DCECFF"/>
<path d="M157.901 204.077C158.419 204.077 158.839 203.657 158.839 203.139C158.839 202.621 158.419 202.201 157.901 202.201C157.384 202.201 156.964 202.621 156.964 203.139C156.964 203.657 157.384 204.077 157.901 204.077Z" fill="#DCECFF"/>
<path d="M164.976 206.259C165.493 206.259 165.913 205.839 165.913 205.322C165.913 204.804 165.493 204.384 164.976 204.384C164.458 204.384 164.038 204.804 164.038 205.322C164.038 205.839 164.458 206.259 164.976 206.259Z" fill="#DCECFF"/>
<path d="M167.753 202.204C168.271 202.204 168.69 201.784 168.69 201.267C168.69 200.749 168.271 200.329 167.753 200.329C167.235 200.329 166.815 200.749 166.815 201.267C166.815 201.784 167.235 202.204 167.753 202.204Z" fill="#DCECFF"/>
<path d="M166.819 198.079C167.337 198.079 167.756 197.659 167.756 197.141C167.756 196.623 167.337 196.203 166.819 196.203C166.301 196.203 165.881 196.623 165.881 197.141C165.881 197.659 166.301 198.079 166.819 198.079Z" fill="#DCECFF"/>
<path d="M171.125 198.293C171.643 198.293 172.063 197.873 172.063 197.355C172.063 196.838 171.643 196.418 171.125 196.418C170.608 196.418 170.188 196.838 170.188 197.355C170.188 197.873 170.608 198.293 171.125 198.293Z" fill="#DCECFF"/>
<path d="M169.1 193.828C169.618 193.828 170.038 193.408 170.038 192.891C170.038 192.373 169.618 191.953 169.1 191.953C168.582 191.953 168.163 192.373 168.163 192.891C168.163 193.408 168.582 193.828 169.1 193.828Z" fill="#DCECFF"/>
<path d="M173.65 194.654C174.168 194.654 174.587 194.234 174.587 193.717C174.587 193.199 174.168 192.779 173.65 192.779C173.132 192.779 172.712 193.199 172.712 193.717C172.712 194.234 173.132 194.654 173.65 194.654Z" fill="#DCECFF"/>
<path d="M170.95 189.866C171.467 189.866 171.887 189.446 171.887 188.928C171.887 188.411 171.467 187.991 170.95 187.991C170.432 187.991 170.012 188.411 170.012 188.928C170.012 189.446 170.432 189.866 170.95 189.866Z" fill="#DCECFF"/>
<path d="M175.285 190.66C175.803 190.66 176.223 190.24 176.223 189.722C176.223 189.204 175.803 188.784 175.285 188.784C174.767 188.784 174.348 189.204 174.348 189.722C174.348 190.24 174.767 190.66 175.285 190.66Z" fill="#DCECFF"/>
<path d="M161.562 207.93C162.08 207.93 162.499 207.51 162.499 206.992C162.499 206.475 162.08 206.055 161.562 206.055C161.044 206.055 160.625 206.475 160.625 206.992C160.625 207.51 161.044 207.93 161.562 207.93Z" fill="#DCECFF"/>
<path d="M160.461 200.617C160.979 200.617 161.398 200.198 161.398 199.679C161.398 199.497 161.344 199.327 161.254 199.183C160.781 199.59 160.291 199.97 159.789 200.326C159.955 200.505 160.195 200.617 160.461 200.617Z" fill="#DCECFF"/>
<path d="M164.275 196.498C164.275 196.296 164.211 196.11 164.102 195.957C163.782 196.456 163.43 196.93 163.046 197.384C163.139 197.416 163.238 197.435 163.341 197.435C163.856 197.435 164.275 197.013 164.275 196.498Z" fill="#DCECFF"/>
<path d="M166.624 192.891C166.624 192.686 166.556 192.497 166.445 192.344C166.083 192.83 165.741 193.31 165.424 193.787C165.507 193.813 165.593 193.829 165.686 193.829C166.205 193.829 166.624 193.409 166.624 192.891Z" fill="#DCECFF"/>
<path d="M168.489 189.78C168.252 190.058 168.019 190.343 167.785 190.628C168.172 190.532 168.463 190.193 168.489 189.78Z" fill="#DCECFF"/>
<path d="M175.154 186.106C175.154 186.624 175.573 187.043 176.091 187.043C176.213 187.043 176.328 187.018 176.434 186.976C176.178 186.403 175.874 185.859 175.519 185.369C175.298 185.542 175.154 185.805 175.154 186.106Z" fill="#DCECFF"/>
<path d="M173.106 199.679C173.106 200.198 173.525 200.617 174.043 200.617C174.159 200.617 174.267 200.595 174.37 200.556C174.357 200.339 174.344 200.121 174.325 199.894C174.296 199.506 174.296 199.138 174.322 198.793C174.232 198.764 174.139 198.745 174.04 198.745C173.525 198.745 173.106 199.164 173.106 199.679Z" fill="#DCECFF"/>
<path d="M177.848 193.07C177.346 193.089 176.946 193.499 176.946 194.004C176.946 194.062 176.952 194.12 176.962 194.174C177.487 193.803 177.88 193.636 177.88 193.636C177.88 193.636 177.877 193.422 177.848 193.07Z" fill="#DCECFF"/>
<path d="M163.632 208.125C164.157 207.905 164.633 207.706 165.078 207.537C164.928 207.434 164.745 207.37 164.547 207.37C164.096 207.37 163.715 207.697 163.632 208.125Z" fill="#DCECFF"/>
<path d="M173.308 185.171C173.308 184.995 173.256 184.829 173.17 184.688C172.831 185.03 172.402 185.469 171.913 185.981C172.047 186.058 172.204 186.106 172.37 186.106C172.888 186.106 173.308 185.686 173.308 185.171Z" fill="#DCECFF"/>
<path d="M157.892 201.526C155.978 202.608 154.075 203.325 152.641 203.661C149.301 204.442 148.302 206.08 149.016 208.282C149.016 208.282 150.225 212.977 157.549 210.487C158.359 210.212 159.085 209.95 159.751 209.7C159.748 204.931 157.892 201.526 157.892 201.526Z" fill="#1773C6"/>
<path d="M169.919 206.861C173.973 207.287 174.684 204.515 174.328 199.89C169.279 199.109 166.819 206.992 166.819 206.992C167.744 206.788 168.691 206.733 169.919 206.861Z" fill="#1773C6"/>
<path d="M146.882 205.962C146.882 205.962 146.172 204.189 142.757 203.654C139.343 203.117 130.669 204.019 127.588 203.497C124.507 202.976 117.253 203.232 120.808 205.616C124.363 208.001 127.111 207.031 130.762 206.759C134.413 206.487 147.167 208.759 146.882 205.962Z" fill="#EA8021"/>
<path d="M226.751 195.422C226.751 195.422 233.627 193.633 238.887 188.439C244.148 183.244 255.81 175.733 258.866 176.894L260.501 178.364C260.501 178.364 261.118 176.04 258.463 173.953C255.807 171.866 252.3 167.648 250.736 165.04C249.171 162.431 244.906 161.769 241.965 163.663C239.025 165.558 226.178 175.304 219.757 177.167L226.751 195.422Z" fill="#FF952D"/>
<path d="M224.454 185.526C226.383 190.567 227.906 194.981 226.751 195.425C225.596 195.87 223.094 192.142 221.164 187.101C219.235 182.06 218.605 177.614 219.76 177.173C220.915 176.731 222.524 180.485 224.454 185.526Z" fill="#CC630D"/>
<path d="M269.491 198.588C269.677 199.682 266.103 201.196 261.515 201.968C256.927 202.742 253.055 202.483 252.869 201.391C252.684 200.297 256.421 199.49 261.012 198.716C265.601 197.941 269.306 197.496 269.491 198.588Z" fill="#EA8021"/>
<path d="M223.814 150.58C223.814 150.58 226.47 156.792 224.003 160.44C221.539 164.092 221.539 165.228 223.148 166.272C224.761 167.315 228.127 169.732 229.167 173.668C230.21 177.605 234.997 181.35 238.078 178.364C241.159 175.377 238.788 171.678 235.992 166.89C233.195 162.102 231.819 148.349 228.975 145.03C228.981 145.033 224.857 146.691 223.814 150.58Z" fill="#105A91"/>
<path d="M224.889 158.238C224.732 159.022 224.454 159.775 224.006 160.44C221.542 164.092 221.542 165.228 223.151 166.272C224.143 166.915 225.797 168.077 227.167 169.795C228.248 162.034 224.889 158.238 224.889 158.238Z" fill="#DCECFF"/>
<path d="M238.081 178.367C240.125 176.382 239.767 174.088 238.478 171.364C233.569 170.148 229.778 175.211 229.771 175.217C231.461 178.485 235.412 180.956 238.081 178.367Z" fill="#DCECFF"/>
<path d="M230.098 152.093C230.194 152.881 228.914 153.009 228.296 153.514C227.679 154.02 227.964 156.011 229.103 156.011C230.242 156.011 230.952 156.206 231 157.15C231.048 158.098 232.184 159.832 233.227 158.846C233.253 158.821 233.278 158.792 233.304 158.763C232.568 155.745 231.874 152.529 231.103 149.895C230.091 149.962 230.008 151.351 230.098 152.093Z" fill="#0B467B"/>
<path d="M232.305 172.82C231.973 172.401 231.589 172.071 231.096 172.119C229.752 172.247 229.579 173.553 230.075 174.136C230.197 174.276 230.258 174.436 230.28 174.622C230.712 174.148 231.406 173.46 232.305 172.82Z" fill="#0B467B"/>
<path d="M230.136 175.851C231.061 177.33 232.434 178.565 233.889 179.125C234.091 179.144 234.27 179.208 234.44 179.301C235.662 179.618 236.907 179.426 237.966 178.472V178.469C237.889 178.018 237.175 176.942 236.676 176.168C236.206 175.435 237.553 173.223 236.561 172.782C235.633 172.366 234.907 173.537 233.985 174.276C233.381 174.76 232.942 173.623 232.309 172.823C231.413 173.46 230.715 174.148 230.283 174.625C230.315 174.932 230.242 175.323 230.136 175.851Z" fill="#BFCEDB"/>
<path d="M192.307 195.461C189.008 198.274 186.036 204.816 188.061 210.209C189.322 209.495 190.771 208.804 192.323 208.177C191.424 199.465 199.772 194.952 201.247 188.932C200.079 187.411 199.151 185.955 198.415 184.621C197.635 186.749 195.171 193.019 192.307 195.461Z" fill="#EF9D59"/>
<path d="M217.747 200.713C217.747 200.713 215.965 198.908 217.888 197.554C219.811 196.203 221.852 197.496 222.793 196.655C223.734 195.813 226.143 194.603 226.306 196.699C226.47 198.796 223.955 199.814 223.926 201.395C223.897 202.976 224.473 207.722 222.294 206.896C220.112 206.074 219.213 204.486 218.186 205.949C217.159 207.412 214.132 203.52 216.077 202.617C218.023 201.715 218.269 201.865 217.747 200.713Z" fill="#BFCEDB"/>
<path d="M214.781 217.16C213.191 215.035 211.211 217.109 211.211 217.109C209.927 217.737 210.084 217.452 209 215.285C207.915 213.118 203.621 216.668 205.307 217.781C206.661 218.674 205.79 219.542 204.949 221.142C209.79 222.237 214.349 223.158 217.133 224.567C216.874 223.846 216.378 223.113 215.962 222.675C214.98 221.641 216.375 219.286 214.781 217.16Z" fill="#EA8021"/>
<path d="M264.475 184.72C264.177 185.958 262.792 185.965 260.44 187.459C258.088 188.954 260.856 190.903 261.889 191.991C262.923 193.08 262.104 193.835 262.67 195.608C263.236 197.381 265.127 195.768 265.127 195.768C265.473 195.515 266.052 194.424 266.51 193.588C266.846 192.974 268.593 192.894 269.479 192.375C269.319 191.729 269.073 191.031 268.737 190.311C268.167 190.109 267.486 189.962 266.887 189.716C266.241 189.45 266.622 188.624 267.073 187.635C267.06 187.623 267.05 187.607 267.041 187.594C265.927 186.208 265.502 184.877 265.086 183.721C264.791 183.98 264.568 184.339 264.475 184.72Z" fill="#DB8646"/>
<path d="M243.386 167.174C243.165 169.952 246.39 168.912 247.878 168.739C249.366 168.567 249.481 169.677 251.238 170.289C252.994 170.9 252.841 168.419 252.841 168.419C252.844 168.295 252.796 168.109 252.725 167.895C251.926 166.861 251.231 165.869 250.735 165.043C250.323 164.355 249.718 163.807 249.004 163.401C248.668 163.564 248.387 163.366 248.108 162.988C246.822 162.521 245.315 162.454 243.898 162.828C244.166 163.715 243.568 164.87 243.386 167.174Z" fill="#EA8021"/>
<path d="M237.044 189.296C234.971 188.416 236.724 187.255 237.23 184.976C237.71 182.809 232.6 184.499 231.106 184.813C229.72 185.104 228.767 183.51 227.225 184.048C225.804 184.544 226.629 185.962 227.257 186.515C227.929 187.104 226.962 188.896 228.111 190.42C229.432 192.171 231.051 190.298 231.051 190.298C232.178 189.681 232.056 189.94 233.333 191.902C233.457 192.091 233.605 192.235 233.768 192.343C235.009 191.607 236.299 190.718 237.547 189.661C237.438 189.521 237.275 189.396 237.044 189.296Z" fill="#EA8021"/>
<path d="M271.088 209.652C270.8 208.468 271.316 208.327 270.18 207.21C268.906 205.955 266.871 207.338 266.871 207.338C265.55 207.799 265.719 207.61 264.6 206.224C263.349 204.672 257.989 207.444 260.286 208.125C262.347 208.74 261.144 209.025 260.242 210.689C260.146 210.868 260.104 211.019 260.107 211.153C263.518 211.047 265.655 210.619 268.039 210.324C269.133 210.19 270.167 210.174 271.101 210.257C271.14 210.036 271.13 209.828 271.088 209.652Z" fill="#0B467B"/>
<path d="M215.13 164.118C212.858 165.715 214.964 167.85 214.964 167.85C215.578 169.21 215.287 169.037 212.99 170.103C210.692 171.169 214.269 175.768 215.482 174.043C216.695 172.314 217.757 174.19 220.336 175.163C222.912 176.136 222.23 170.529 222.265 168.659C222.265 168.65 222.265 168.643 222.269 168.634C221.805 166.864 221.36 164.976 220.969 163.02C220.957 163.033 220.941 163.042 220.928 163.055C219.818 164.051 217.402 162.521 215.13 164.118Z" fill="#2A83D3"/>
<path d="M197.17 155.044C198.505 156.014 199.353 152.5 200.434 151.047C201.516 149.594 202.168 150.797 203.567 150.087C204.962 149.376 204.027 147.725 204.027 147.725C203.71 146.185 202.501 145.27 201.32 144.598C199.189 147.148 197.254 150.394 196.227 153.172C196.361 153.908 196.579 154.612 197.17 155.044Z" fill="#2A83D3"/>
<path d="M146.885 196.117C148.072 196.117 149.035 195.326 149.035 194.353C149.035 193.777 148.696 193.265 148.171 192.945C147.026 193.601 145.861 194.1 144.738 194.478C144.818 195.393 145.749 196.117 146.885 196.117Z" fill="#105A91"/>
<path d="M131.748 201.712C133.108 204.144 135.21 201.491 136.352 200.518C137.498 199.545 138.205 200.409 140.006 199.942C141.807 199.474 140.304 197.496 140.304 197.496C140.073 197.135 139.014 196.495 138.208 195.992C138.115 195.935 138.042 195.842 137.974 195.727C137.139 195.557 136.371 195.448 135.693 195.432C135.207 195.419 134.756 195.426 134.327 195.448C134.122 195.797 133.735 195.759 133.239 195.557C131.677 195.791 130.385 196.351 128.833 197.346C128.964 197.423 129.099 197.487 129.243 197.528C130.462 197.896 130.391 199.279 131.748 201.712Z" fill="#DB8646"/>
<g opacity="0.35">
<path opacity="0.35" d="M200.252 187.565C200.332 187.68 200.415 187.799 200.498 187.914C200.412 187.796 200.332 187.68 200.252 187.565Z" fill="#EF9D59"/>
<path opacity="0.35" d="M199.637 186.653C199.733 186.803 199.836 186.954 199.935 187.104C199.832 186.954 199.733 186.803 199.637 186.653Z" fill="#EF9D59"/>
<path opacity="0.35" d="M199.208 185.974C199.279 186.09 199.352 186.208 199.429 186.326C199.352 186.208 199.279 186.09 199.208 185.974Z" fill="#EF9D59"/>
<path opacity="0.35" d="M200.757 188.272C200.85 188.397 200.943 188.522 201.039 188.65C200.943 188.525 200.847 188.397 200.757 188.272Z" fill="#EF9D59"/>
<path opacity="0.35" d="M198.693 185.107C198.799 185.293 198.908 185.478 199.023 185.667C198.908 185.482 198.799 185.293 198.693 185.107Z" fill="#EF9D59"/>
<path opacity="0.35" d="M191.36 181.849C188.743 183.187 190.019 185.574 191.673 186.07C191.904 186.141 192.099 186.24 192.272 186.365C193.171 184.809 193.9 183.34 194.467 182.102C193.408 181.641 192.307 181.366 191.36 181.849Z" fill="#EA8845"/>
<path opacity="0.35" d="M198.524 184.806C198.578 184.905 198.636 185.005 198.694 185.107C198.633 185.008 198.578 184.909 198.524 184.806Z" fill="#EF9D59"/>
<path opacity="0.35" d="M201.247 188.928C201.176 188.836 201.106 188.743 201.035 188.65C201.106 188.743 201.173 188.836 201.247 188.928Z" fill="#EF9D59"/>
<path opacity="0.35" d="M199.02 185.67C199.081 185.773 199.145 185.872 199.205 185.974C199.145 185.872 199.081 185.77 199.02 185.67Z" fill="#EF9D59"/>
<path opacity="0.35" d="M199.935 187.104C200.037 187.258 200.143 187.412 200.248 187.565C200.143 187.408 200.037 187.258 199.935 187.104Z" fill="#EF9D59"/>
<path opacity="0.35" d="M199.429 186.326C199.496 186.435 199.567 186.544 199.637 186.653C199.563 186.544 199.496 186.435 199.429 186.326Z" fill="#EF9D59"/>
<path opacity="0.35" d="M200.498 187.914C200.585 188.032 200.668 188.154 200.757 188.273C200.668 188.154 200.581 188.032 200.498 187.914Z" fill="#EF9D59"/>
<path opacity="0.35" d="M201.036 188.65C200.94 188.525 200.847 188.397 200.754 188.272C200.664 188.151 200.581 188.032 200.495 187.914C200.412 187.796 200.328 187.68 200.248 187.565C200.143 187.412 200.037 187.258 199.935 187.104C199.832 186.954 199.733 186.803 199.637 186.653C199.567 186.544 199.497 186.435 199.429 186.327C199.356 186.208 199.282 186.09 199.209 185.974C199.145 185.872 199.084 185.77 199.023 185.67C198.911 185.482 198.799 185.296 198.693 185.11C198.636 185.008 198.581 184.909 198.524 184.809C198.489 184.745 198.45 184.681 198.415 184.617C197.909 186.003 196.69 189.127 195.116 191.819C196.674 194.504 198.933 192.379 200.527 190.865C200.834 190.231 201.084 189.591 201.243 188.929C201.173 188.836 201.106 188.743 201.036 188.65Z" fill="#EA8845"/>
</g>
<path d="M60.2231 153.85C60.2231 153.85 72.8649 159.855 91.0324 155.809" stroke="#3790F4" stroke-width="1.59981" stroke-linecap="round"/>
<path d="M37.6435 76.2435C40.488 81.7165 37.7939 82.6222 36.2197 83.4416C34.6454 84.2577 32.0569 83.7072 30.4219 79.5209C28.5502 74.7329 27.5487 67.8005 29.1229 66.9811C30.6971 66.1618 35.215 71.5707 37.6435 76.2435Z" fill="#1773C6"/>
<path d="M41.9659 76.6949C37.3393 79.5562 38.8399 81.2461 39.5822 82.4399C40.3213 83.6337 42.4363 84.229 45.5847 81.8318C49.1875 79.0921 53.1838 74.4673 52.4415 73.2703C51.7056 72.0797 45.9143 74.2529 41.9659 76.6949Z" fill="#1773C6"/>
<path d="M34.143 75.8883C34.4469 81.3196 36.2771 80.8299 37.4482 80.7627C38.6193 80.6955 39.8831 79.14 39.3456 75.2226C38.7312 70.7418 36.8819 65.0032 35.714 65.0704C34.5429 65.1376 33.8838 71.2507 34.143 75.8883Z" fill="#1773C6"/>
<path d="M44.9772 77.2612C43.4798 83.7807 40.7377 83.6303 38.8307 83.8447C36.831 84.0719 34.9464 82.3212 36.8822 77.0915C38.9715 71.449 43.0767 64.827 44.7629 65.0287C46.3787 65.2207 46.1963 71.9611 44.9772 77.2612Z" fill="#1773C6"/>
<path d="M32.8951 83.7808C37.7393 87.2118 39.5151 85.4451 40.9421 84.4273C42.4364 83.3616 42.6923 81.0508 38.3024 78.7432C33.5702 76.2563 26.8894 74.3424 25.8623 75.501C24.8768 76.6116 28.9595 80.9899 32.8951 83.7808Z" fill="#1773C6"/>
<path d="M47.0953 81.7451H29.3853C28.2271 81.7451 27.4336 82.9133 27.8591 83.9919L33.3689 97.9015H43.1117L48.6215 83.9919C49.047 82.9133 48.2535 81.7451 47.0953 81.7451Z" fill="#3790F4"/>
</svg>
