<svg width="296" height="143" viewBox="0 0 296 143" fill="none" xmlns="http://www.w3.org/2000/svg">
    <path d="M21.4752 124.692L79.2715 124.692L79.2715 87.8382L21.4752 87.8382L21.4752 124.692Z" fill="#0C4D75"/>
    <path d="M179.602 124.692L237.398 124.692L237.398 87.8382L179.602 87.8382L179.602 124.692Z" fill="#0C4D75"/>
    <path d="M278.713 64.7434L254.661 52.9041L217.369 6.64991C213.964 2.43934 208.894 0 203.549 0H9.83459C4.3981 0 0 4.47471 0 10.0059V116.327C0 121.376 4.03159 125.478 8.99469 125.478H25.2584C25.0905 124.266 24.9988 123.008 24.9988 121.749C24.9988 107.144 36.6354 95.2895 51.0055 95.2895C65.3756 95.2895 77.0122 107.129 77.0122 121.749C77.0122 123.023 76.9206 124.266 76.7526 125.478H182.688C182.52 124.266 182.429 123.008 182.429 121.749C182.429 107.144 194.065 95.2895 208.435 95.2895C222.806 95.2895 234.442 107.129 234.442 121.749C234.442 123.023 234.351 124.266 234.183 125.478H282.164C289.8 125.478 296 119.17 296 111.402V92.7725C296 80.84 289.281 69.9484 278.713 64.7434Z"
          fill="#3790F4"/>
    <ellipse rx="20.6882" ry="20.913" transform="matrix(-1 0 0 1 208.473 120.651)" fill="#3790F4"/>
    <ellipse rx="11.1398" ry="11.2609" transform="matrix(-1 0 0 1 208.473 120.651)" fill="#1773C6"/>
    <ellipse rx="20.6882" ry="20.913" transform="matrix(-1 0 0 1 52.5175 120.651)" fill="#3790F4"/>
    <ellipse rx="11.1398" ry="11.2609" transform="matrix(-1 0 0 1 52.5171 120.651)" fill="#1773C6"/>
    <path d="M5.4844 96.5214H0.000624657V70.7822H5.4844C7.73027 70.7822 9.54901 72.9899 9.54901 75.716V91.6043C9.54901 94.3137 7.73027 96.5214 5.4844 96.5214Z"
          fill="white"/>
    <path d="M191.485 57.913H171.354C169.883 57.913 168.689 56.5764 168.689 54.9301V19.0698C168.689 17.4235 169.883 16.0869 171.354 16.0869H191.485C192.956 16.0869 194.151 17.4235 194.151 19.0698V54.9301C194.165 56.5764 192.971 57.913 191.485 57.913Z"
          fill="#A6C7E8"/>
    <path d="M215.118 54.694H209.538C204.547 54.694 200.516 50.8751 200.516 46.1782V20.6015C200.516 19.4017 202.098 18.8457 202.919 19.7529L219.613 37.9697V50.4508C219.613 52.7919 217.598 54.694 215.118 54.694Z"
          fill="#A6C7E8"/>
    <path d="M217.314 67.5639H210.064V38.6074H217.314C220.347 38.6074 222.796 40.8706 222.796 43.6733V62.498C222.796 65.3008 220.347 67.5639 217.314 67.5639Z"
          fill="#105A91"/>
    <path d="M214.52 41.8242H213.249V67.5633H214.52C215.569 67.5633 216.432 66.4416 216.432 65.0432V44.3443C216.432 42.946 215.581 41.8242 214.52 41.8242Z"
          fill="white"/>
    <path d="M240.994 48.3883L210.425 12.1594C209.586 11.1654 210.301 9.65137 211.622 9.65137H220.06L254.623 51.4775H247.676C245.097 51.4775 242.641 50.3458 240.994 48.3883Z"
          fill="#A6C7E8"/>
    <path d="M234.221 125.089H282.176C289.805 125.089 296 118.558 296 110.515V102.97H237.578C234.786 102.97 232.131 104.096 230.117 106.058C232.864 110.402 234.466 115.614 234.466 121.245C234.481 122.548 234.389 123.835 234.221 125.089Z"
          fill="#105A91"/>
    <path d="M77.1898 121.228C77.1898 122.548 77.0982 123.835 76.9304 125.089H182.789C182.621 123.835 182.529 122.532 182.529 121.228C182.529 119.491 182.697 117.786 182.987 116.129H76.7473C77.0372 117.786 77.1898 119.491 77.1898 121.228Z"
          fill="#105A91"/>
    <path d="M0.259674 102.97V115.614C0.259674 120.842 4.28772 125.089 9.24648 125.089H25.496C25.3281 123.835 25.2366 122.531 25.2366 121.228C25.2366 114.906 27.2659 109.099 30.6836 104.466C28.8527 103.517 26.7929 102.97 24.6263 102.97H0.259674V102.97Z"
          fill="#105A91"/>
    <path d="M270.538 83.1712V93.9588C270.538 95.3694 271.704 96.5235 273.166 96.5235H296V94.8084C296 91.7949 295.556 88.8295 294.735 86.0244L274.086 80.5424C272.295 80.0455 270.538 81.3599 270.538 83.1712Z"
          fill="white"/>
    <ellipse rx="3.1828" ry="6.43478" transform="matrix(-1 0 0 1 286.452 86.8713)" fill="#F2B283"/>
    <ellipse rx="1.5914" ry="4.82609" transform="matrix(-1 0 0 1 291.226 88.4784)" fill="#F7931E"/>
    <path d="M0.255981 90.0605L10.8296 90.0605L10.8296 86.1389L0.255981 86.1389L0.255981 90.0605Z" fill="#F7931E"/>
    <g clip-path="url(#clip0_905_11636)">
        <path d="M79.2172 124.355H21.4021V87.6035H79.2172V124.355Z" fill="#4C515B"/>
        <path d="M237.384 124.355H179.569V87.6035H237.384V124.355Z" fill="#4C515B"/>
        <path d="M278.728 64.1591L254.69 52.4242L217.419 6.59386C214.011 2.41574 208.949 0 203.607 0H10.0095C4.57306 0 0.184723 4.43603 0.184723 9.91229V115.285C0.184723 120.289 4.21518 124.355 9.17441 124.355H25.4325C25.2621 123.151 25.1768 121.905 25.1768 120.658C25.1768 106.181 36.808 94.4376 51.1659 94.4376C65.5238 94.4376 77.155 106.172 77.155 120.658C77.155 121.922 77.0612 123.151 76.8994 124.355H182.756C182.585 123.151 182.5 121.905 182.5 120.658C182.5 106.181 194.131 94.4376 208.489 94.4376C222.847 94.4376 234.478 106.172 234.478 120.658C234.478 121.922 234.385 123.151 234.223 124.355H282.17C289.805 124.355 296 118.105 296 110.402V91.9444C296 80.115 289.285 69.3173 278.728 64.1591Z"
              fill="#C4C9D3"/>
        <path d="M208.472 142.073C196.747 142.073 187.246 132.488 187.246 120.658C187.246 108.829 196.756 99.2432 208.472 99.2432C220.197 99.2432 229.698 108.829 229.698 120.658C229.707 132.488 220.197 142.073 208.472 142.073Z"
              fill="#9499A3"/>
        <path d="M208.472 131.328C202.635 131.328 197.898 126.548 197.898 120.659C197.898 114.762 202.635 109.99 208.472 109.99C214.318 109.99 219.047 114.77 219.047 120.659C219.047 126.548 214.318 131.328 208.472 131.328Z"
              fill="#7B808A"/>
        <path d="M51.1575 142.073C39.4326 142.073 29.9316 132.488 29.9316 120.658C29.9316 108.829 39.4326 99.2432 51.1575 99.2432C62.8824 99.2432 72.3833 108.829 72.3833 120.658C72.3833 132.488 62.8824 142.073 51.1575 142.073Z"
              fill="#9499A3"/>
        <path d="M51.1575 131.328C45.3121 131.328 40.5829 126.548 40.5829 120.659C40.5829 114.762 45.3206 109.99 51.1575 109.99C57.0029 109.99 61.7321 114.77 61.7321 120.659C61.7321 126.548 56.9944 131.328 51.1575 131.328Z"
              fill="#7B808A"/>
        <path d="M6.25174 96.1315H0.176256V72.4297H6.25174C8.73987 72.4297 10.7508 74.4586 10.7508 76.9689V91.6009C10.7593 94.094 8.74839 96.1315 6.25174 96.1315Z"
              fill="#FAFFFF"/>
        <path d="M147.172 62.1733H16.2554C13.9036 62.1733 12.0119 60.2476 12.0119 57.892V14.9502C12.0119 12.5775 13.9206 10.6689 16.2554 10.6689H147.172C149.524 10.6689 151.416 12.5947 151.416 14.9502V57.892C151.424 60.2648 149.515 62.1733 147.172 62.1733Z"
              stroke="#E1E6F0" stroke-width="2.0169" stroke-miterlimit="10" stroke-linecap="round"
              stroke-linejoin="round"/>
        <path d="M239.122 59.0693L238.355 60.4277C236.643 63.4624 238.202 67.2966 241.534 68.2509L267.599 75.7044"
              stroke="#E1E6F0" stroke-width="2.0169" stroke-miterlimit="10" stroke-linecap="round"
              stroke-linejoin="round"/>
        <path d="M180.532 109.99H162.399V10.3164H196.952C200.249 10.3164 203.36 11.8982 205.311 14.5977L220.376 35.3078V79.7454C220.376 79.7454 189.641 75.2062 180.532 109.99Z"
              stroke="#E1E6F0" stroke-width="2.0169" stroke-miterlimit="10" stroke-linecap="round"
              stroke-linejoin="round"/>
        <path d="M191.277 55.536H170.187C168.645 55.536 167.393 54.2723 167.393 52.7162V18.8442C167.393 17.2882 168.645 16.0244 170.187 16.0244H191.277C192.819 16.0244 194.072 17.2882 194.072 18.8442V52.7162C194.08 54.2809 192.828 55.536 191.277 55.536Z"
              fill="#DCE3EF"/>
        <path d="M213.738 55.5366H208.242C203.326 55.5366 199.363 51.5218 199.363 46.5786V19.6615C199.363 18.3978 200.923 17.8132 201.732 18.7674L218.169 37.9386V51.0748C218.169 53.5421 216.184 55.5366 213.738 55.5366Z"
              fill="#DCE3EF"/>
        <path d="M168.245 64.873H183.736" stroke="#E1E6F0" stroke-width="2.0169" stroke-miterlimit="10"
              stroke-linecap="round" stroke-linejoin="round"/>
        <path d="M219.038 68.0628H212.213V38.3174H219.038C221.893 38.3174 224.193 40.6386 224.193 43.5185V62.8617C224.193 65.7331 221.893 68.0628 219.038 68.0628Z"
              fill="#9BA0AA"/>
        <path d="M213.875 41.0078H212.213V66.7987H213.875C215.246 66.7987 216.38 65.6725 216.38 64.2712V43.5267C216.38 42.1254 215.263 41.0078 213.875 41.0078Z"
              fill="#FAFFFF"/>
        <path d="M220.376 35.3076L235.032 54.4444C235.032 54.4444 224.5 61.3306 224.193 71.7501" stroke="#E1E6F0"
              stroke-width="2.0169" stroke-miterlimit="10" stroke-linecap="round" stroke-linejoin="round"/>
        <path d="M241.304 49.3208L211.284 12.8439C210.458 11.8467 211.165 10.3164 212.46 10.3164H220.751L254.69 52.4329H247.865C245.334 52.4329 242.923 51.2895 241.304 49.3208Z"
              fill="#DCE3EF"/>
        <path d="M234.206 124.355H282.17C289.805 124.355 296 118.105 296 110.402V103.181H237.563C234.768 103.181 232.118 104.255 230.099 106.138C232.842 110.299 234.444 115.285 234.444 120.675C234.461 121.922 234.376 123.151 234.206 124.355Z"
              fill="#9BA0AA"/>
        <path d="M77.1294 120.658C77.1294 121.922 77.0357 123.152 76.8738 124.355H182.756C182.585 123.152 182.5 121.905 182.5 120.658C182.5 118.999 182.671 117.366 182.96 115.775H76.6949C76.9761 117.357 77.1294 118.991 77.1294 120.658Z"
              fill="#9BA0AA"/>
        <path d="M0.184793 103.181V115.285C0.184793 120.289 4.21524 124.355 9.17447 124.355H25.4325C25.2621 123.151 25.1769 121.905 25.1769 120.658C25.1769 114.606 27.2049 109.052 30.6218 104.616C28.7898 103.705 26.7277 103.181 24.5634 103.181H0.184793Z"
              fill="#9BA0AA"/>
        <path d="M272.346 80.7943V91.1536C272.346 92.5119 273.428 93.6209 274.791 93.6209H296V91.9703C296 89.0732 295.591 86.2276 294.824 83.5281L275.643 78.2582C273.973 77.7854 272.346 79.0491 272.346 80.7943Z"
              fill="#FAFFFF"/>
        <path d="M287.3 93.6035C285.621 93.6035 284.267 90.9127 284.267 87.5942C284.267 84.2758 285.63 81.585 287.3 81.585C288.979 81.585 290.334 84.2758 290.334 87.5942C290.342 90.9127 288.979 93.6035 287.3 93.6035Z"
              fill="#777C86"/>
        <path d="M292.293 93.6037C291.211 93.6037 290.342 91.8757 290.342 89.7436C290.342 87.6116 291.22 85.875 292.293 85.875C293.375 85.875 294.245 87.603 294.245 89.7436C294.245 91.8757 293.367 93.6037 292.293 93.6037Z"
              fill="#777C86"/>
        <path d="M10.7508 89.8208H0.176222V85.9092H10.7508V89.8208Z" fill="#777C86"/>
    </g>
    <defs>
        <clipPath id="clip0_905_11636">
            <rect width="295.824" height="142.073" fill="white" transform="matrix(-1 0 0 1 296 0)"/>
        </clipPath>
    </defs>
</svg>
