<svg width="31" height="31" viewBox="0 0 31 31" fill="none" xmlns="http://www.w3.org/2000/svg">
<path d="M2.92106 1.75433L3.50442 1.17097L2.92106 1.75433ZM29.1216 27.9549L28.5383 28.5383L28.5383 28.5383L29.1216 27.9549ZM29.1216 29.1216L28.5383 28.5383L28.5383 28.5383L29.1216 29.1216ZM27.9549 29.1216L28.5383 28.5383L28.5383 28.5383L27.9549 29.1216ZM1.75433 2.92106L1.17097 3.50442L1.75433 2.92106ZM28.0793 1.75433L27.496 1.17097L28.0793 1.75433ZM1.87875 27.9549L2.46211 28.5383L2.46211 28.5383L1.87875 27.9549ZM1.87875 29.1216L2.46212 28.5383L2.46211 28.5383L1.87875 29.1216ZM3.04548 29.1216L2.46211 28.5383L2.46211 28.5383L3.04548 29.1216ZM29.2461 2.92106L29.8294 3.50442L29.2461 2.92106ZM3.50442 1.17097C2.86006 0.526604 1.81533 0.526604 1.17097 1.17097L2.3377 2.3377L3.50442 1.17097ZM29.705 27.3715L3.50442 1.17097L2.3377 2.3377L28.5383 28.5383L29.705 27.3715ZM29.705 29.705C30.3494 29.0606 30.3494 28.0159 29.705 27.3715L28.5383 28.5383V28.5383L29.705 29.705ZM27.3715 29.705C28.0159 30.3494 29.0606 30.3494 29.705 29.705L28.5383 28.5383H28.5383L27.3715 29.705ZM1.17097 3.50442L27.3715 29.705L28.5383 28.5383L2.3377 2.3377L1.17097 3.50442ZM1.17097 1.17097C0.526604 1.81533 0.526604 2.86006 1.17097 3.50442L2.3377 2.3377L1.17097 1.17097ZM28.6627 2.3377L29.8294 1.17097C29.1851 0.526604 28.1403 0.526604 27.496 1.17097L28.6627 2.3377ZM2.46211 28.5383L28.6627 2.3377L27.496 1.17097L1.29539 27.3715L2.46211 28.5383ZM2.46211 28.5383V28.5383L1.29539 27.3715C0.651022 28.0159 0.651022 29.0606 1.29539 29.705L2.46211 28.5383ZM2.46211 28.5383H2.46212L1.29539 29.705C1.93975 30.3494 2.98448 30.3494 3.62884 29.705L2.46211 28.5383ZM28.6627 2.3377L2.46211 28.5383L3.62884 29.705L29.8294 3.50442L28.6627 2.3377ZM28.6627 2.3377L29.8294 3.50442C30.4738 2.86006 30.4738 1.81533 29.8294 1.17097L28.6627 2.3377Z" fill="#303651"/>
</svg>
