<svg width="31" height="31" viewBox="0 0 31 31" fill="none" xmlns="http://www.w3.org/2000/svg">
<path d="M2.92081 1.75433L3.50418 1.17097L2.92081 1.75433ZM29.1214 27.9549L28.538 28.5383L28.538 28.5383L29.1214 27.9549ZM29.1214 29.1216L28.538 28.5383L28.538 28.5383L29.1214 29.1216ZM27.9547 29.1216L28.538 28.5383L28.538 28.5383L27.9547 29.1216ZM1.75409 2.92106L1.17072 3.50442L1.75409 2.92106ZM28.0791 1.75433L27.4957 1.17097L28.0791 1.75433ZM1.87851 27.9549L2.46187 28.5383L2.46187 28.5383L1.87851 27.9549ZM1.87851 29.1216L2.46187 28.5383L2.46187 28.5383L1.87851 29.1216ZM3.04523 29.1216L2.46187 28.5383L2.46187 28.5383L3.04523 29.1216ZM29.2458 2.92106L29.8292 3.50442L29.2458 2.92106ZM3.50418 1.17097C2.85981 0.526604 1.81509 0.526604 1.17072 1.17097L2.33745 2.3377L3.50418 1.17097ZM29.7048 27.3715L3.50418 1.17097L2.33745 2.3377L28.538 28.5383L29.7048 27.3715ZM29.7048 29.705C30.3491 29.0606 30.3491 28.0159 29.7048 27.3715L28.538 28.5383V28.5383L29.7048 29.705ZM27.3713 29.705C28.0157 30.3494 29.0604 30.3494 29.7048 29.705L28.538 28.5383H28.538L27.3713 29.705ZM1.17072 3.50442L27.3713 29.705L28.538 28.5383L2.33745 2.3377L1.17072 3.50442ZM1.17072 1.17097C0.52636 1.81533 0.52636 2.86006 1.17072 3.50442L2.33745 2.3377L1.17072 1.17097ZM28.6625 2.3377L29.8292 1.17097C29.1848 0.526604 28.1401 0.526604 27.4957 1.17097L28.6625 2.3377ZM2.46187 28.5383L28.6625 2.3377L27.4957 1.17097L1.29514 27.3715L2.46187 28.5383ZM2.46187 28.5383V28.5383L1.29515 27.3715C0.650778 28.0159 0.650778 29.0606 1.29515 29.705L2.46187 28.5383ZM2.46187 28.5383H2.46187L1.29514 29.705C1.93951 30.3494 2.98423 30.3494 3.6286 29.705L2.46187 28.5383ZM28.6625 2.3377L2.46187 28.5383L3.6286 29.705L29.8292 3.50442L28.6625 2.3377ZM28.6625 2.3377L29.8292 3.50442C30.4735 2.86006 30.4735 1.81533 29.8292 1.17097L28.6625 2.3377Z" fill="#303651"/>
</svg>
