<svg width="12" height="16" viewBox="0 0 12 16" fill="none" xmlns="http://www.w3.org/2000/svg">
<path fill-rule="evenodd" clip-rule="evenodd" d="M5.8665 0.495238C3.27655 0.495238 1.16174 2.6752 1.16174 5.38344C1.16174 6.20006 1.45581 7.22803 1.91636 8.32868C2.37462 9.42385 2.98754 10.5675 3.60342 11.6083C4.21886 12.6484 4.83469 13.5814 5.29684 14.2545C5.52783 14.591 5.72022 14.8623 5.85471 15.0492C5.86018 15.0568 5.86555 15.0643 5.87083 15.0716C5.87426 15.067 5.87773 15.0624 5.88124 15.0577C6.01556 14.8787 6.20777 14.6184 6.43856 14.294C6.90033 13.6451 7.51568 12.7413 8.13062 11.721C8.74598 10.7001 9.35835 9.56679 9.81622 8.45845C10.2757 7.34609 10.5713 6.27855 10.5713 5.38344C10.5713 2.6752 8.45646 0.495238 5.8665 0.495238ZM5.8665 15.4857C5.66806 15.6338 5.66796 15.6337 5.66796 15.6337L5.66417 15.6286L5.65326 15.6139L5.61122 15.5568C5.57453 15.5068 5.52088 15.4332 5.4527 15.3384C5.31636 15.1489 5.12185 14.8747 4.88855 14.5348C4.42213 13.8554 3.79987 12.9128 3.17721 11.8605C2.55499 10.809 1.92982 9.64381 1.45951 8.51984C0.991485 7.40135 0.666504 6.29997 0.666504 5.38344C0.666504 2.41882 2.98621 0 5.8665 0C8.74679 0 11.0665 2.41882 11.0665 5.38344C11.0665 6.37405 10.743 7.51215 10.2739 8.64754C9.80323 9.78695 9.17751 10.9435 8.55477 11.9767C7.93162 13.0106 7.30887 13.9252 6.84206 14.5812C6.60857 14.9093 6.41388 15.173 6.27737 15.3549C6.2091 15.4459 6.15537 15.5165 6.1186 15.5644L6.07645 15.6191L6.06548 15.6332L6.06185 15.6379C6.06185 15.6379 6.06154 15.6383 5.8665 15.4857ZM5.8665 15.4857L6.06185 15.6379C6.01431 15.6987 5.94085 15.7342 5.86369 15.7333C5.78654 15.7324 5.71411 15.6955 5.66796 15.6337L5.8665 15.4857Z" fill="#303651"/>
<path fill-rule="evenodd" clip-rule="evenodd" d="M5.12386 3.81684C4.37108 4.21408 4.08257 5.1643 4.49389 5.94376C4.90522 6.72322 5.85247 7.02132 6.60525 6.62408C7.35803 6.22684 7.64654 5.27661 7.23522 4.49716C6.8239 3.7177 5.87664 3.41959 5.12386 3.81684ZM4.0559 6.17489C3.52142 5.16205 3.88962 3.90819 4.89273 3.37884C5.89584 2.8495 7.13874 3.25319 7.67322 4.26603C8.20769 5.27886 7.83949 6.53273 6.83638 7.06207C5.83327 7.59142 4.59038 7.18773 4.0559 6.17489Z" fill="#303651"/>
</svg>
