<svg width="167" height="184" viewBox="0 0 167 184" fill="none" xmlns="http://www.w3.org/2000/svg">
<path d="M107.907 2.37503C67.6243 9.76941 25.1726 28.8984 5.30933 82.4793C-16.6302 141.661 34.4879 182.774 107.084 168.27C179.68 153.767 211.622 99.5827 209.337 62.9102C207.213 28.8154 175.716 -10.072 107.907 2.37503Z" fill="#F1F6FF"/>
<path d="M85.2827 103.313C85.2827 103.313 81.5084 98.8836 83.0524 95.5294C84.5965 92.1751 99.0077 88.691 104.212 90.2903C109.416 91.8895 105.527 96.8588 104.212 98.1725C102.896 99.4862 85.2827 103.313 85.2827 103.313Z" fill="#9BA0AA"/>
<path d="M95.3466 99.2118C95.1335 99.2118 94.9197 99.1339 94.752 98.9765C94.404 98.6497 94.3856 98.1041 94.7096 97.7549C94.7444 97.7163 97.2285 94.9002 98.1441 86.9924C99.1229 78.5383 100.622 74.0643 106.497 71.5036C106.936 71.3125 107.449 71.5124 107.641 71.9517C107.833 72.3908 107.632 72.9021 107.192 73.0938C102.065 75.3286 100.789 79.2491 99.8695 87.1918C98.8758 95.7745 96.0976 98.8133 95.9797 98.9385C95.8088 99.1201 95.5779 99.2118 95.3466 99.2118Z" fill="#5B606A"/>
<path d="M91.46 99.2116C91.165 99.2116 90.8774 99.0613 90.7145 98.7903C90.4693 98.3821 90.5993 97.8537 91.0042 97.605C91.0796 97.5559 94.913 94.9691 95.338 84.9416C95.4662 81.9189 95.3065 79.2142 95.1657 76.8279C94.7993 70.6145 94.5345 66.1252 99.8723 63.4143C100.3 63.197 100.823 63.3674 101.04 63.7943C101.258 64.2214 101.087 64.7436 100.66 64.9608C96.3355 67.1569 96.5479 70.7587 96.8998 76.7259C97.043 79.1533 97.2053 81.9045 97.0735 85.0151C96.6016 96.1489 92.0976 98.9731 91.9061 99.0877C91.7663 99.1717 91.6121 99.2116 91.46 99.2116Z" fill="#5B606A"/>
<path d="M141.34 48.5374C141.34 48.5374 144.714 46.5383 142.484 42.3687C140.254 38.1991 127.444 35.1719 122.812 37.7422C118.18 40.3125 121.954 45.6815 121.954 45.6815L141.34 48.5374Z" fill="#C4C9D3"/>
<path d="M140.94 48.2232C140.516 48.2232 140.171 47.8815 140.168 47.4575C140.165 47.0326 140.506 46.6856 140.932 46.6811C140.983 46.6799 143.367 46.6075 145.204 44.587C146.979 42.6346 147.71 39.5454 147.376 35.4052C146.392 23.2105 149.393 18.9048 149.521 18.7275C149.771 18.3821 150.253 18.3044 150.599 18.5539C150.944 18.8032 151.022 19.2851 150.773 19.6304C150.748 19.6657 147.985 23.7602 148.915 35.2813C149.286 39.8824 148.414 43.3713 146.322 45.651C144.009 48.1731 141.069 48.2224 140.945 48.2232C140.943 48.2232 140.941 48.2232 140.94 48.2232Z" fill="#9BA0AA"/>
<path d="M142.482 49.8229C142.111 49.8229 141.784 49.5552 141.721 49.1777C141.652 48.7578 141.936 48.3609 142.356 48.2911C142.708 48.2315 150.739 46.7787 151.263 38.6639L151.285 38.3132C151.85 29.5542 152.161 24.7293 157.118 23.9578C157.539 23.8913 157.934 24.1799 158 24.6009C158.065 25.0217 157.777 25.416 157.356 25.4815C153.804 26.0345 153.418 29.236 152.826 38.4123L152.804 38.7631C152.487 43.6586 149.723 46.408 147.459 47.8524C145.038 49.3977 142.707 49.7963 142.609 49.8125C142.566 49.8195 142.524 49.8229 142.482 49.8229Z" fill="#9BA0AA"/>
<path d="M36.444 36.8572C36.444 36.8572 32.7983 34.1584 31.9834 31.6738C31.1684 29.1892 37.6878 23.9629 43.8211 22.6778C49.9544 21.3926 53.5272 21.1959 52.6565 25.3338C51.7859 29.4716 49.74 31.5453 49.74 31.5453L36.444 36.8572Z" fill="#DCE3EF"/>
<path d="M48.7384 30.4598C48.3794 30.4598 48.0577 30.2083 47.9829 29.8433C47.8974 29.4266 48.1657 29.0197 48.5825 28.9335C48.8416 28.8792 54.9266 27.5276 54.7726 20.9675C54.708 18.2125 53.4374 15.7683 52.2086 13.4047C50.3994 9.92466 48.5287 6.32618 52.4125 3.15975C52.7429 2.89018 53.2292 2.9395 53.4988 3.2695C53.7684 3.59942 53.7192 4.08511 53.3889 4.35441C50.6126 6.61788 51.5981 8.88381 53.579 12.6941C54.8278 15.0963 56.2433 17.8191 56.3163 20.9314C56.5009 28.7957 48.9703 30.4283 48.8941 30.4439C48.8419 30.4546 48.7897 30.4598 48.7384 30.4598Z" fill="#C4C9D3"/>
<path d="M49.5971 31.2027C49.273 31.2027 48.9714 30.9972 48.8643 30.6731C48.7307 30.2688 48.9505 29.8329 49.3552 29.6992C49.4048 29.6828 54.3363 28.0323 56.0522 25.5393C56.6726 24.6381 56.336 22.985 55.9796 21.235C55.4557 18.6631 54.8038 15.4624 57.4267 13.6346C57.7764 13.3913 58.2577 13.4768 58.5017 13.8259C58.7455 14.1751 58.6599 14.6558 58.3101 14.8995C56.6437 16.0607 56.9044 18.0402 57.4926 20.9276C57.9162 23.0076 58.3164 24.9722 57.3247 26.413C55.3132 29.3352 50.0616 31.0904 49.839 31.1637C49.7588 31.1902 49.6772 31.2027 49.5971 31.2027Z" fill="#C4C9D3"/>
<path d="M35.9301 34.287C35.9301 34.287 31.2122 43.026 32.7562 61.1037C34.3003 79.1815 39.7903 105.913 57.3753 99.5725C74.9604 93.2324 87.3128 77.1252 82.0802 66.5014C76.8476 55.8775 63.9805 46.7958 60.9781 40.7128C57.9758 34.6297 45.8807 17.6658 35.9301 34.287Z" fill="#DCE3EF"/>
<path d="M90.4003 97.5156C90.4003 97.5156 83.7952 98.5437 80.4497 109.168C77.1043 119.791 74.6166 128.359 67.411 143.952C60.2054 159.545 54.5153 186.248 76.6468 183.849C97.0886 181.633 110.101 174.824 113.847 163.001C116.556 154.449 111.245 129.216 110.044 118.849C108.843 108.482 110.301 90.1474 90.4003 97.5156Z" fill="#9BA0AA"/>
<path d="M135.65 113.88C135.65 113.88 151.605 121.677 158.21 107.54C164.815 93.4037 152.892 68.6432 149.46 59.3902C146.029 50.1371 145 46.196 133.934 43.6257C122.868 41.0554 119.094 44.9109 118.922 49.109C118.751 53.3072 123.211 65.3019 118.922 78.239C114.633 91.1761 113.003 104.113 135.65 113.88Z" fill="#C4C9D3"/>
<path d="M27.4801 57.2361C27.4801 53.5573 30.603 52.5096 30.603 52.5096C30.603 52.5096 27.4801 51.462 27.4801 47.7832C27.4801 51.462 24.3572 52.5096 24.3572 52.5096C24.3572 52.5096 27.4801 53.5573 27.4801 57.2361Z" fill="#FAFFFF"/>
<path d="M27.725 57.2361H27.2364C27.2364 53.7728 24.3095 52.7508 24.28 52.7409L23.5906 52.5096L24.28 52.2783C24.4003 52.2375 27.2364 51.2352 27.2364 47.7832H27.725C27.725 51.2465 30.6518 52.2684 30.6813 52.2783L31.3707 52.5096L30.6813 52.7409C30.5611 52.7817 27.725 53.7841 27.725 57.2361ZM24.9406 52.5096C25.6583 52.8933 26.9451 53.7973 27.4807 55.5373C28.0163 53.7973 29.303 52.8932 30.0207 52.5096C29.303 52.1259 28.0163 51.2219 27.4807 49.482C26.9451 51.222 25.6583 52.1259 24.9406 52.5096Z" fill="#DCE3EF"/>
<path d="M89.8141 75.2195C89.8141 71.5407 92.937 70.493 92.937 70.493C92.937 70.493 89.8141 69.4454 89.8141 65.7666C89.8141 69.4454 86.6912 70.493 86.6912 70.493C86.6912 70.493 89.8141 71.5407 89.8141 75.2195Z" fill="#FAFFFF"/>
<path d="M90.0586 75.2195H89.57C89.57 71.7674 86.7339 70.7651 86.6132 70.7242L85.9287 70.4918L86.6137 70.2617C86.7339 70.2209 89.57 69.2186 89.57 65.7666H90.0586C90.0586 69.2186 92.8947 70.2209 93.0155 70.2618L93.7001 70.4942L93.0151 70.7243C92.8947 70.7651 90.0586 71.7674 90.0586 75.2195ZM87.2743 70.493C87.992 70.8767 89.2788 71.7807 89.8143 73.5206C90.3498 71.7807 91.6367 70.8767 92.3543 70.493C91.6367 70.1093 90.3498 69.2053 89.8143 67.4654C89.2788 69.2053 87.992 70.1093 87.2743 70.493Z" fill="#DCE3EF"/>
<path d="M62.6581 146.27C62.6581 142.591 65.781 141.543 65.781 141.543C65.781 141.543 62.6581 140.496 62.6581 136.817C62.6581 140.496 59.5352 141.543 59.5352 141.543C59.5352 141.543 62.6581 142.591 62.6581 146.27Z" fill="#FAFFFF"/>
<path d="M62.903 146.27H62.4145C62.4145 142.818 59.5784 141.815 59.4577 141.775L58.7732 141.542L59.4581 141.312C59.5784 141.271 62.4145 140.269 62.4145 136.817H62.9031C62.9031 140.269 65.7392 141.271 65.8599 141.312L66.5444 141.545L65.8594 141.775C65.7392 141.815 62.903 142.818 62.903 146.27ZM60.1188 141.543C60.8365 141.927 62.1232 142.831 62.6588 144.571C63.1943 142.831 64.481 141.927 65.1988 141.543C64.481 141.16 63.1943 140.256 62.6588 138.516C62.1232 140.256 60.8365 141.16 60.1188 141.543Z" fill="#DCE3EF"/>
<path d="M127.051 155.724C127.051 151.209 130.883 149.924 130.883 149.924C130.883 149.924 127.051 148.639 127.051 144.125C127.051 148.639 123.219 149.924 123.219 149.924C123.219 149.924 127.051 151.21 127.051 155.724Z" fill="#FAFFFF"/>
<path d="M127.352 155.723H126.752C126.752 151.488 123.272 150.258 123.124 150.208L122.284 149.922L123.125 149.64C123.272 149.59 126.752 148.36 126.752 144.125H127.352C127.352 148.374 130.943 149.628 130.979 149.64L131.825 149.924L130.979 150.208C130.832 150.258 127.352 151.488 127.352 155.723ZM123.935 149.924C124.816 150.395 126.395 151.504 127.052 153.639C127.709 151.504 129.288 150.395 130.168 149.924C129.288 149.453 127.709 148.344 127.052 146.209C126.395 148.344 124.816 149.453 123.935 149.924Z" fill="#DCE3EF"/>
<path d="M163.293 76.3245C163.293 72.6457 166.416 71.598 166.416 71.598C166.416 71.598 163.293 70.5504 163.293 66.8716C163.293 70.5504 160.17 71.598 160.17 71.598C160.17 71.598 163.293 72.6457 163.293 76.3245Z" fill="#FAFFFF"/>
<path d="M163.538 76.3245H163.049C163.049 72.8725 160.213 71.8702 160.092 71.8293L159.407 71.5969L160.092 71.3668C160.213 71.326 163.049 70.3237 163.049 66.8716H163.538C163.538 70.3237 166.373 71.326 166.494 71.3669L167.179 71.5993L166.494 71.8293C166.373 71.8702 163.538 72.8725 163.538 76.3245ZM160.753 71.5981C161.471 71.9818 162.758 72.8858 163.293 74.6256C163.829 72.8858 165.115 71.9818 165.833 71.5981C165.116 71.2144 163.829 70.3104 163.293 68.5705C162.758 70.3104 161.471 71.2144 160.753 71.5981Z" fill="#DCE3EF"/>
<path d="M117.731 55.1643C117.731 51.4855 120.853 50.4379 120.853 50.4379H120.853C120.853 50.4379 117.731 49.3902 117.731 45.7114C117.731 49.3902 114.608 50.4379 114.608 50.4379C114.608 50.4379 117.731 51.4855 117.731 55.1643Z" fill="#FAFFFF"/>
<path d="M117.975 55.1643H117.486C117.486 51.7122 114.65 50.7099 114.529 50.669L113.845 50.4366L114.53 50.2066C114.65 50.1657 117.486 49.1634 117.486 45.7114H117.975C117.975 49.1634 120.811 50.1657 120.932 50.2067L121.616 50.4391L120.931 50.6691C120.811 50.7099 117.975 51.7122 117.975 55.1643ZM115.19 50.4378C115.908 50.8215 117.195 51.7255 117.73 53.4654C118.266 51.7255 119.553 50.8215 120.27 50.4378C119.553 50.0541 118.266 49.1501 117.73 47.4103C117.195 49.1502 115.908 50.0542 115.19 50.4378Z" fill="#DCE3EF"/>
<path d="M72.9514 162.524C72.9614 162.687 73.0032 162.816 73.0769 162.912C73.1545 163.007 73.239 163.081 73.3301 163.136C73.425 163.186 73.515 163.22 73.6 163.239C73.689 163.257 73.7495 163.268 73.7816 163.27C73.8139 163.276 73.8366 163.288 73.8498 163.307C73.8666 163.322 73.8737 163.34 73.8709 163.36C73.8682 163.38 73.8573 163.399 73.8384 163.416C73.8234 163.433 73.8001 163.442 73.7682 163.444L70.6409 163.634C70.6091 163.636 70.5827 163.63 70.5618 163.615C70.545 163.6 70.5339 163.583 70.5287 163.563C70.5235 163.544 70.5264 163.525 70.5374 163.509C70.5521 163.488 70.5751 163.473 70.6065 163.463C70.6381 163.457 70.6949 163.439 70.777 163.41C70.8631 163.381 70.9482 163.336 71.0324 163.275C71.1202 163.21 71.195 163.126 71.2566 163.022C71.3221 162.919 71.3499 162.785 71.34 162.622L70.9329 155.94C70.9298 155.889 70.904 155.858 70.8555 155.849C70.8476 155.85 70.8174 155.845 70.7649 155.837C70.7164 155.828 70.6599 155.817 70.5953 155.805C70.5306 155.793 70.4701 155.783 70.4137 155.774C70.3612 155.766 70.3289 155.76 70.3167 155.756C70.2643 155.747 70.2348 155.723 70.2284 155.684C70.2258 155.64 70.2538 155.609 70.3125 155.589C70.4655 155.544 70.6297 155.486 70.8051 155.415C70.9843 155.341 71.1631 155.26 71.3415 155.173C71.5197 155.083 71.6917 154.989 71.8574 154.891C72.0229 154.789 72.1706 154.688 72.3003 154.589C72.3346 154.563 72.3698 154.551 72.4059 154.552C72.4459 154.554 72.4676 154.583 72.471 154.638L72.9514 162.524Z" fill="white"/>
<path d="M79.3636 162.554C79.4186 162.538 79.4631 162.548 79.4971 162.581C79.5308 162.611 79.5355 162.655 79.511 162.712C79.4898 162.757 79.4532 162.811 79.4011 162.874C79.353 162.937 79.2848 162.997 79.1964 163.054C79.112 163.111 79.0053 163.162 78.8761 163.205C78.751 163.249 78.6009 163.276 78.4258 163.287C78.1831 163.301 77.9753 163.266 77.8024 163.181C77.6332 163.092 77.5129 162.985 77.4415 162.862C77.4237 162.831 77.3989 162.819 77.3673 162.824C77.3397 162.83 77.3166 162.844 77.2979 162.865C77.2867 162.877 77.251 162.913 77.1907 162.973C77.1341 163.028 77.0501 163.091 76.9386 163.162C76.8308 163.228 76.6988 163.29 76.5426 163.347C76.3866 163.409 76.2051 163.446 75.9982 163.458C75.6441 163.48 75.3427 163.448 75.0939 163.364C74.8491 163.279 74.6464 163.163 74.4858 163.018C74.3289 162.868 74.2107 162.697 74.1312 162.507C74.0554 162.312 74.0116 162.117 73.9997 161.922C73.9806 161.608 74.0514 161.329 74.2122 161.084C74.377 160.838 74.5971 160.649 74.8726 160.517C75.0202 160.448 75.1748 160.397 75.3365 160.363C75.5019 160.325 75.6653 160.287 75.8267 160.25C75.9882 160.212 76.1453 160.169 76.298 160.119C76.4545 160.066 76.5995 159.987 76.7329 159.884C76.8741 159.775 76.9678 159.642 77.0141 159.484C77.0643 159.325 77.0841 159.158 77.0734 158.983C77.0657 158.856 77.0404 158.736 76.9976 158.623C76.9585 158.506 76.9044 158.405 76.8355 158.322C76.7704 158.238 76.6946 158.173 76.6079 158.126C76.5252 158.079 76.4361 158.059 76.3406 158.065C76.1695 158.075 76.0468 158.126 75.9726 158.219C75.8983 158.311 75.8411 158.42 75.8008 158.546C75.7646 158.672 75.7306 158.804 75.6991 158.941C75.6673 159.075 75.6105 159.192 75.5288 159.293C75.4618 159.372 75.3718 159.436 75.2588 159.482C75.1496 159.525 75.0433 159.549 74.9398 159.556C74.8324 159.562 74.7358 159.55 74.6501 159.519C74.5643 159.489 74.4898 159.445 74.4265 159.389C74.363 159.33 74.3128 159.261 74.2762 159.183C74.2432 159.101 74.224 159.015 74.2184 158.923C74.2109 158.8 74.2332 158.675 74.2854 158.548C74.3376 158.422 74.4363 158.304 74.5814 158.195C74.7305 158.087 74.9326 157.995 75.1876 157.919C75.4423 157.84 75.7686 157.788 76.1665 157.764C76.6082 157.737 76.9869 157.76 77.3029 157.833C77.6225 157.901 77.885 158.015 78.0904 158.174C78.2997 158.332 78.4559 158.536 78.559 158.785C78.6657 159.03 78.7289 159.313 78.7485 159.635C78.772 160.021 78.7821 160.383 78.7788 160.722C78.7755 161.062 78.7759 161.363 78.7799 161.626C78.7877 161.885 78.8067 162.099 78.837 162.269C78.8671 162.434 78.9291 162.534 79.023 162.568C79.064 162.586 79.1144 162.593 79.1741 162.589C79.2335 162.581 79.2967 162.57 79.3636 162.554ZM77.1303 160.015C77.1288 159.991 77.1179 159.976 77.0975 159.969C77.0772 159.962 77.0596 159.969 77.0449 159.99C77.0153 160.028 76.9875 160.063 76.9616 160.097C76.9396 160.13 76.9081 160.17 76.867 160.216C76.7963 160.3 76.7233 160.381 76.6481 160.457C76.5726 160.529 76.4973 160.604 76.422 160.68C76.3463 160.749 76.2706 160.817 76.1949 160.885C76.1232 160.954 76.0558 161.028 75.9928 161.107C75.8966 161.233 75.827 161.369 75.784 161.515C75.7447 161.657 75.7299 161.807 75.7396 161.966C75.7461 162.073 75.7687 162.182 75.8073 162.291C75.8457 162.396 75.8994 162.491 75.9684 162.574C76.0411 162.654 76.1289 162.718 76.2317 162.768C76.3383 162.813 76.4632 162.832 76.6065 162.823C76.7497 162.814 76.8633 162.777 76.9472 162.712C77.0351 162.647 77.1003 162.571 77.143 162.485C77.1896 162.399 77.2204 162.313 77.2352 162.228C77.2497 162.14 77.2556 162.071 77.2527 162.024L77.1303 160.015Z" fill="white"/>
<path d="M86.3141 162.508C86.3464 162.514 86.3691 162.527 86.3822 162.546C86.3991 162.561 86.4062 162.578 86.4034 162.598C86.4007 162.619 86.3898 162.637 86.3709 162.654C86.3559 162.671 86.3325 162.681 86.3007 162.682L84.1402 162.814C84.0965 162.816 84.06 162.809 84.031 162.79C84.0059 162.772 83.992 162.741 83.9894 162.697L83.9679 162.346C83.811 162.523 83.6031 162.683 83.3443 162.826C83.0852 162.966 82.7587 163.047 82.3648 163.071C82.0385 163.091 81.7618 163.072 81.5347 163.014C81.3115 162.956 81.1226 162.872 80.9682 162.761C80.8177 162.651 80.6979 162.52 80.6089 162.37C80.5238 162.22 80.4583 162.062 80.4124 161.898C80.3704 161.733 80.3404 161.569 80.3225 161.406C80.3084 161.24 80.297 161.085 80.2882 160.942L80.1462 158.611C80.1366 158.452 80.097 158.327 80.0275 158.235C79.9578 158.14 79.8796 158.069 79.7929 158.022C79.7099 157.972 79.6281 157.939 79.5473 157.924C79.4705 157.908 79.4159 157.898 79.3836 157.892C79.3515 157.89 79.3289 157.879 79.3158 157.86C79.2986 157.841 79.2915 157.821 79.2942 157.801C79.297 157.781 79.3078 157.763 79.3268 157.746C79.3417 157.729 79.3651 157.719 79.3969 157.717L81.5574 157.586C81.6529 157.58 81.7038 157.629 81.7101 157.732L81.9225 161.219C81.9362 161.378 81.9598 161.536 81.9934 161.694C82.0309 161.851 82.0875 161.993 82.1631 162.12C82.2425 162.243 82.3462 162.34 82.4744 162.412C82.6066 162.484 82.7781 162.514 82.989 162.501C83.2118 162.487 83.3841 162.431 83.5058 162.332C83.6313 162.228 83.7235 162.103 83.7825 161.956C83.8414 161.809 83.8756 161.649 83.8851 161.477C83.8943 161.301 83.8941 161.134 83.8844 160.975L83.7272 158.393C83.7175 158.235 83.6779 158.109 83.6084 158.018C83.5387 157.922 83.4605 157.851 83.3738 157.805C83.2909 157.754 83.209 157.721 83.1282 157.706C83.0514 157.691 82.9968 157.68 82.9645 157.674C82.9324 157.672 82.9078 157.661 82.8907 157.643C82.8776 157.623 82.8724 157.604 82.8751 157.584C82.8779 157.564 82.8868 157.545 82.9017 157.528C82.9206 157.511 82.946 157.502 82.9778 157.5L85.1383 157.368C85.2338 157.363 85.2847 157.411 85.291 157.515L85.5514 161.789C85.5611 161.948 85.6008 162.075 85.6705 162.17C85.74 162.262 85.8162 162.333 85.8991 162.384C85.9858 162.43 86.0677 162.463 86.1448 162.483C86.2255 162.498 86.282 162.506 86.3141 162.508Z" fill="white"/>
<path d="M93.3358 162.081C93.3681 162.087 93.3909 162.1 93.404 162.119C93.4209 162.134 93.428 162.152 93.4252 162.172C93.4224 162.192 93.4116 162.21 93.3927 162.228C93.3777 162.244 93.3543 162.254 93.3225 162.256L90.3265 162.438C90.2946 162.44 90.2683 162.433 90.2474 162.419C90.2305 162.404 90.2195 162.386 90.2143 162.367C90.2091 162.347 90.212 162.329 90.223 162.312C90.2377 162.292 90.2607 162.276 90.292 162.266C90.3236 162.26 90.3766 162.245 90.451 162.221C90.5291 162.192 90.6064 162.15 90.6828 162.093C90.763 162.032 90.832 161.952 90.8899 161.853C90.9475 161.75 90.9714 161.619 90.9617 161.46L90.8052 158.891C90.7911 158.724 90.7668 158.554 90.7322 158.381C90.7014 158.203 90.6459 158.045 90.5655 157.906C90.489 157.763 90.3802 157.65 90.2394 157.567C90.1023 157.48 89.9223 157.443 89.6995 157.456C89.4687 157.47 89.2925 157.527 89.1707 157.626C89.049 157.725 88.9604 157.844 88.9049 157.983C88.8535 158.122 88.8245 158.269 88.818 158.425C88.8153 158.577 88.8176 158.712 88.8248 158.832L88.9922 161.58C89.0019 161.739 89.0416 161.866 89.1113 161.961C89.1808 162.053 89.257 162.124 89.34 162.175C89.4267 162.221 89.5086 162.254 89.5856 162.273C89.6664 162.288 89.7228 162.297 89.7549 162.299C89.7872 162.305 89.81 162.318 89.8231 162.337C89.84 162.352 89.847 162.369 89.8443 162.389C89.8415 162.409 89.8307 162.428 89.8117 162.445C89.7968 162.462 89.7734 162.471 89.7416 162.473L86.7455 162.655C86.7137 162.657 86.6874 162.651 86.6665 162.636C86.6496 162.621 86.6386 162.604 86.6334 162.584C86.6282 162.565 86.6311 162.547 86.642 162.53C86.6568 162.509 86.6798 162.494 86.7111 162.484C86.7427 162.478 86.7957 162.463 86.8701 162.438C86.9482 162.41 87.0255 162.367 87.1019 162.311C87.1821 162.25 87.2511 162.17 87.3089 162.071C87.3665 161.968 87.3905 161.836 87.3808 161.677L87.1789 158.363C87.1758 158.312 87.15 158.281 87.1015 158.272C87.0935 158.273 87.0633 158.269 87.0109 158.26C86.9624 158.251 86.9059 158.24 86.8412 158.228C86.7766 158.216 86.7161 158.206 86.6596 158.197C86.6072 158.189 86.5749 158.183 86.5627 158.179C86.5102 158.171 86.4808 158.146 86.4744 158.107C86.4718 158.063 86.4998 158.032 86.5585 158.012C86.7115 157.967 86.8757 157.909 87.0511 157.838C87.2303 157.764 87.4091 157.683 87.5875 157.596C87.7657 157.506 87.9376 157.412 88.1034 157.314C88.2689 157.212 88.4165 157.111 88.5462 157.012C88.5806 156.986 88.6158 156.974 88.6519 156.975C88.6919 156.977 88.7136 157.006 88.717 157.061L88.7482 157.574C88.8272 157.493 88.9183 157.416 89.0216 157.342C89.1247 157.264 89.2403 157.195 89.3685 157.135C89.5006 157.075 89.6472 157.025 89.8084 156.983C89.9736 156.941 90.1557 156.914 90.3546 156.902C90.6809 156.882 90.9556 156.901 91.1788 156.959C91.406 157.017 91.5948 157.102 91.7453 157.212C91.8998 157.322 92.0195 157.453 92.1046 157.603C92.1936 157.753 92.2591 157.911 92.3011 158.076C92.3471 158.241 92.3771 158.406 92.3913 158.573C92.4092 158.735 92.4225 158.888 92.4312 159.031L92.5732 161.362C92.5828 161.521 92.6225 161.648 92.6923 161.744C92.7617 161.835 92.8379 161.906 92.9209 161.957C93.0076 162.004 93.0895 162.037 93.1665 162.056C93.2473 162.071 93.3038 162.079 93.3358 162.081Z" fill="white"/>
<path d="M100.101 161.67C100.133 161.676 100.156 161.689 100.169 161.708C100.186 161.723 100.193 161.74 100.19 161.761C100.188 161.781 100.177 161.799 100.158 161.816C100.143 161.833 100.119 161.843 100.088 161.845L97.9271 161.976C97.8834 161.979 97.847 161.971 97.8179 161.953C97.7928 161.934 97.7789 161.903 97.7763 161.859L97.7443 161.335C97.7426 161.307 97.7316 161.29 97.7112 161.283C97.6908 161.276 97.6733 161.283 97.6586 161.304C97.6254 161.35 97.57 161.423 97.4923 161.524C97.4143 161.62 97.3046 161.721 97.1632 161.825C97.0255 161.925 96.8513 162.015 96.6406 162.096C96.434 162.18 96.1875 162.231 95.9011 162.249C95.5828 162.268 95.3017 162.243 95.0579 162.174C94.8141 162.105 94.6003 162.005 94.4165 161.872C94.2367 161.739 94.0835 161.585 93.957 161.409C93.8345 161.233 93.7332 161.046 93.6532 160.848C93.5772 160.649 93.5191 160.449 93.4789 160.248C93.4427 160.047 93.4191 159.857 93.4082 159.678C93.3811 159.233 93.4103 158.826 93.4957 158.458C93.5848 158.086 93.7309 157.764 93.934 157.492C94.1411 157.22 94.4055 157.005 94.7273 156.845C95.053 156.686 95.4407 156.593 95.8903 156.565C96.141 156.55 96.3588 156.553 96.5437 156.574C96.7285 156.59 96.8817 156.615 97.0035 156.647C97.125 156.676 97.2167 156.706 97.2786 156.738C97.3402 156.766 97.3751 156.782 97.3833 156.786C97.4042 156.8 97.4223 156.803 97.4378 156.794C97.4572 156.785 97.4663 156.771 97.4651 156.751L97.318 154.337C97.3149 154.285 97.289 154.255 97.2406 154.246C97.2326 154.246 97.2024 154.242 97.15 154.233C97.1015 154.224 97.0449 154.214 96.9803 154.202C96.9157 154.19 96.8552 154.179 96.7987 154.171C96.7463 154.162 96.714 154.156 96.7018 154.153C96.6493 154.144 96.6199 154.12 96.6135 154.08C96.6108 154.037 96.6389 154.005 96.6976 153.986C96.8506 153.94 97.0148 153.882 97.1902 153.812C97.3693 153.737 97.5481 153.657 97.7266 153.57C97.9047 153.479 98.0767 153.385 98.2425 153.287C98.408 153.186 98.5556 153.085 98.6853 152.985C98.7197 152.959 98.7549 152.947 98.7909 152.949C98.831 152.95 98.8527 152.979 98.8561 153.035L99.3383 160.951C99.348 161.11 99.3877 161.237 99.4574 161.332C99.5269 161.424 99.6031 161.495 99.6861 161.546C99.7728 161.593 99.8546 161.625 99.9317 161.645C100.012 161.66 100.069 161.668 100.101 161.67ZM97.5619 158.438C97.5558 158.339 97.5412 158.23 97.518 158.112C97.4988 157.993 97.4677 157.876 97.4246 157.759C97.3853 157.637 97.3324 157.523 97.2659 157.415C97.2034 157.307 97.1258 157.212 97.0329 157.13C96.9401 157.048 96.8324 156.985 96.7099 156.94C96.5871 156.892 96.4481 156.873 96.293 156.882C96.0582 156.896 95.8609 156.968 95.7011 157.097C95.5412 157.227 95.416 157.4 95.3254 157.617C95.2345 157.83 95.1739 158.081 95.1436 158.37C95.1131 158.655 95.1078 158.962 95.1279 159.292C95.1332 159.38 95.1405 159.499 95.1497 159.65C95.1626 159.797 95.1843 159.955 95.2146 160.124C95.2489 160.294 95.2952 160.465 95.3536 160.637C95.412 160.809 95.4912 160.961 95.5912 161.095C95.6911 161.228 95.8155 161.336 95.9643 161.419C96.1129 161.498 96.2926 161.531 96.5035 161.518C96.7741 161.502 96.9879 161.439 97.145 161.329C97.302 161.22 97.42 161.091 97.4988 160.943C97.5776 160.795 97.6261 160.64 97.6443 160.479C97.6622 160.315 97.6674 160.171 97.6599 160.048L97.5619 158.438Z" fill="white"/>
<path d="M103.812 156.084C103.979 156.074 104.122 156.087 104.24 156.124C104.358 156.157 104.455 156.206 104.531 156.274C104.606 156.337 104.663 156.415 104.701 156.509C104.738 156.598 104.76 156.694 104.766 156.798C104.778 156.989 104.725 157.141 104.608 157.256C104.496 157.371 104.338 157.434 104.135 157.446C103.98 157.456 103.857 157.435 103.766 157.385C103.675 157.335 103.595 157.28 103.528 157.22C103.464 157.156 103.405 157.098 103.35 157.045C103.294 156.993 103.229 156.969 103.154 156.974C103.086 156.978 103.014 157.006 102.937 157.059C102.864 157.107 102.798 157.197 102.738 157.328C102.682 157.459 102.639 157.637 102.609 157.862C102.578 158.087 102.574 158.377 102.596 158.731L102.721 160.793C102.731 160.952 102.764 161.076 102.822 161.164C102.883 161.252 102.949 161.318 103.019 161.361C103.094 161.405 103.166 161.434 103.235 161.45C103.303 161.462 103.353 161.469 103.386 161.471C103.418 161.477 103.441 161.489 103.454 161.508C103.471 161.523 103.478 161.541 103.475 161.561C103.472 161.581 103.461 161.6 103.442 161.617C103.427 161.634 103.404 161.643 103.372 161.645L100.567 161.815C100.535 161.817 100.509 161.811 100.488 161.796C100.471 161.781 100.46 161.764 100.455 161.745C100.45 161.725 100.453 161.707 100.464 161.69C100.478 161.669 100.501 161.654 100.533 161.644C100.564 161.638 100.613 161.625 100.68 161.605C100.747 161.581 100.812 161.543 100.877 161.492C100.946 161.439 101.003 161.366 101.049 161.272C101.099 161.177 101.12 161.05 101.11 160.891L100.905 157.529C100.902 157.477 100.876 157.447 100.828 157.438C100.82 157.439 100.789 157.434 100.737 157.426C100.689 157.417 100.632 157.406 100.567 157.394C100.503 157.382 100.442 157.372 100.386 157.363C100.333 157.354 100.301 157.348 100.289 157.345C100.236 157.336 100.207 157.312 100.201 157.273C100.198 157.229 100.226 157.197 100.285 157.178C100.438 157.133 100.602 157.075 100.777 157.004C100.956 156.93 101.135 156.849 101.314 156.762C101.492 156.672 101.664 156.578 101.83 156.48C101.995 156.378 102.143 156.277 102.272 156.178C102.307 156.152 102.342 156.139 102.378 156.141C102.418 156.143 102.44 156.171 102.443 156.227L102.495 157.079C102.616 156.765 102.791 156.525 103.02 156.359C103.25 156.194 103.514 156.102 103.812 156.084Z" fill="white"/>
<path d="M106.63 162.877L107.306 161.089C107.233 160.946 107.138 160.756 107.02 160.52C106.901 160.284 106.772 160.028 106.632 159.754C106.491 159.475 106.348 159.191 106.202 158.9C106.057 158.61 105.921 158.343 105.794 158.099C105.667 157.852 105.558 157.641 105.468 157.467C105.377 157.289 105.316 157.173 105.285 157.119C105.218 157.008 105.155 156.912 105.094 156.832C105.033 156.748 104.968 156.676 104.901 156.616C104.833 156.556 104.759 156.509 104.677 156.474C104.594 156.435 104.499 156.405 104.39 156.384C104.357 156.378 104.335 156.365 104.321 156.346C104.304 156.327 104.297 156.308 104.3 156.288C104.298 156.264 104.307 156.243 104.326 156.226C104.341 156.209 104.364 156.2 104.396 156.198L107.38 156.017C107.408 156.015 107.433 156.022 107.453 156.036C107.474 156.051 107.487 156.07 107.493 156.094C107.498 156.113 107.495 156.135 107.485 156.16C107.474 156.181 107.451 156.196 107.416 156.206C107.357 156.226 107.293 156.251 107.223 156.284C107.157 156.312 107.099 156.355 107.051 156.414C107.003 156.468 106.973 156.542 106.963 156.634C106.952 156.723 106.973 156.837 107.026 156.978C107.049 157.04 107.089 157.131 107.144 157.252C107.199 157.372 107.261 157.504 107.33 157.647C107.399 157.791 107.47 157.94 107.543 158.095C107.616 158.246 107.684 158.385 107.748 158.513C107.812 158.637 107.866 158.743 107.911 158.832C107.956 158.917 107.983 158.966 107.992 158.977C108.023 159.027 108.051 159.025 108.076 158.972C108.086 158.943 108.108 158.88 108.142 158.782C108.176 158.685 108.213 158.569 108.252 158.435C108.296 158.296 108.343 158.148 108.393 157.989C108.443 157.831 108.49 157.68 108.533 157.538C108.576 157.392 108.614 157.26 108.647 157.142C108.683 157.02 108.708 156.931 108.721 156.875C108.756 156.729 108.762 156.613 108.741 156.526C108.724 156.436 108.69 156.366 108.639 156.317C108.588 156.264 108.527 156.228 108.458 156.208C108.389 156.185 108.324 156.167 108.263 156.155C108.227 156.149 108.202 156.136 108.189 156.117C108.176 156.094 108.17 156.072 108.173 156.052C108.176 156.028 108.184 156.008 108.199 155.991C108.218 155.974 108.244 155.964 108.276 155.962L110.06 155.854C110.088 155.852 110.11 155.859 110.127 155.874C110.148 155.888 110.161 155.908 110.167 155.931C110.172 155.951 110.167 155.971 110.152 155.992C110.142 156.012 110.121 156.028 110.089 156.038C109.987 156.072 109.898 156.113 109.821 156.162C109.744 156.206 109.674 156.262 109.61 156.33C109.55 156.397 109.495 156.477 109.445 156.567C109.394 156.654 109.342 156.757 109.29 156.876C109.269 156.925 109.224 157.037 109.154 157.213C109.089 157.385 109.01 157.593 108.917 157.838C108.824 158.083 108.723 158.35 108.612 158.64C108.502 158.93 108.394 159.218 108.288 159.504C108.181 159.785 108.079 160.053 107.983 160.306C107.887 160.559 107.808 160.769 107.746 160.936L106.859 163.288C106.746 163.594 106.605 163.842 106.437 164.031C106.273 164.221 106.059 164.324 105.797 164.34C105.705 164.345 105.613 164.337 105.52 164.315C105.427 164.296 105.343 164.261 105.268 164.21C105.193 164.163 105.129 164.097 105.076 164.012C105.027 163.932 104.999 163.83 104.991 163.706C104.985 163.595 104.999 163.499 105.034 163.417C105.073 163.335 105.124 163.266 105.189 163.21C105.257 163.154 105.335 163.111 105.421 163.082C105.507 163.053 105.596 163.036 105.687 163.03C105.81 163.023 105.919 163.034 106.013 163.064C106.107 163.098 106.192 163.123 106.269 163.138C106.345 163.154 106.413 163.145 106.471 163.114C106.529 163.087 106.582 163.008 106.63 162.877Z" fill="white"/>
<path d="M45.5246 86.7179C45.6136 86.8548 45.7136 86.9466 45.8247 86.9932C45.9392 87.0377 46.0495 87.0612 46.1556 87.0636C46.2628 87.0605 46.3581 87.0462 46.4413 87.0207C46.5279 86.9931 46.5857 86.9722 46.6146 86.9582C46.6457 86.9476 46.6717 86.9473 46.6926 86.9575C46.7146 86.9622 46.7294 86.974 46.7369 86.9929C46.7444 87.0117 46.7441 87.0333 46.7361 87.0575C46.7314 87.0795 46.7157 87.0992 46.6889 87.1165L44.0608 88.8201C44.0341 88.8375 44.008 88.8449 43.9826 88.8424C43.9605 88.8377 43.9424 88.8281 43.9282 88.8135C43.914 88.799 43.9076 88.7818 43.9089 88.7619C43.9115 88.7366 43.9239 88.7119 43.9463 88.6879C43.9709 88.6672 44.0118 88.6241 44.069 88.5585C44.1296 88.4908 44.1814 88.4097 44.2246 88.3153C44.2689 88.2153 44.2924 88.1052 44.295 87.9848C44.3009 87.8623 44.2594 87.7326 44.1704 87.5957L40.5214 81.9802C40.4932 81.9367 40.4558 81.923 40.4092 81.939C40.4025 81.9434 40.3741 81.9546 40.3242 81.9728C40.2775 81.9888 40.2231 82.0074 40.1609 82.0287C40.0988 82.0501 40.041 82.0709 39.9877 82.0912C39.9377 82.1094 39.9066 82.12 39.8944 82.1232C39.8444 82.1413 39.8069 82.1348 39.7819 82.1036C39.758 82.0668 39.7668 82.0255 39.8083 81.9797C39.9192 81.8651 40.0335 81.734 40.1515 81.5863C40.2706 81.4332 40.3864 81.2751 40.499 81.1119C40.6094 80.9454 40.7126 80.7788 40.8086 80.6122C40.9025 80.4421 40.9813 80.2819 41.0451 80.1314C41.0622 80.0918 41.0868 80.064 41.1191 80.0478C41.1547 80.0295 41.1877 80.0437 41.2181 80.0904L45.5246 86.7179Z" fill="white"/>
<path d="M51.1197 83.5894C51.16 83.549 51.2033 83.5352 51.2496 83.5479C51.2937 83.5573 51.3192 83.5929 51.3262 83.6549C51.33 83.7046 51.3248 83.7697 51.3105 83.8501C51.2996 83.9284 51.2698 84.0142 51.2211 84.1074C51.1758 84.1985 51.1077 84.2949 51.0169 84.3964C50.9294 84.4959 50.8121 84.5933 50.665 84.6886C50.461 84.8208 50.2628 84.8924 50.0703 84.9033C49.8789 84.9086 49.7218 84.8752 49.5989 84.803C49.5681 84.785 49.5405 84.7863 49.5159 84.807C49.4946 84.8255 49.4811 84.8485 49.4752 84.8761C49.4717 84.8926 49.4584 84.9416 49.4353 85.023C49.4133 85.0989 49.3712 85.195 49.309 85.3113C49.2479 85.4221 49.1635 85.5409 49.0558 85.6677C48.9503 85.7978 48.8106 85.9192 48.6367 86.0319C48.3391 86.2248 48.0612 86.3456 47.803 86.3943C47.5481 86.4409 47.3149 86.4402 47.1032 86.3923C46.8926 86.339 46.7058 86.2489 46.5426 86.1221C46.3806 85.9898 46.2464 85.8418 46.1401 85.6782C45.9687 85.4143 45.8925 85.1362 45.9116 84.8438C45.934 84.5492 46.0325 84.2766 46.2069 84.0258C46.3014 83.8934 46.4107 83.7727 46.5348 83.6638C46.66 83.5494 46.7836 83.4361 46.9055 83.3238C47.0274 83.2116 47.1427 83.0965 47.2514 82.9786C47.3613 82.8551 47.4487 82.7154 47.5136 82.5594C47.5831 82.3957 47.5989 82.2336 47.5611 82.073C47.5266 81.9102 47.4616 81.7554 47.3662 81.6084C47.2967 81.5016 47.2155 81.4095 47.1225 81.3321C47.0306 81.2493 46.9341 81.1885 46.8328 81.1497C46.7349 81.1087 46.6368 81.0893 46.5383 81.0914C46.4432 81.0913 46.3556 81.1173 46.2753 81.1693C46.1315 81.2625 46.0501 81.3675 46.031 81.4843C46.0118 81.6012 46.0158 81.7243 46.043 81.8539C46.0735 81.9813 46.1089 82.1125 46.1492 82.2478C46.1874 82.3797 46.1958 82.5095 46.1743 82.6373C46.1553 82.7398 46.1082 82.8392 46.033 82.9354C45.9589 83.0262 45.8784 83.0997 45.7914 83.1561C45.7011 83.2146 45.6111 83.2516 45.5214 83.267C45.4316 83.2825 45.3454 83.2814 45.2627 83.2639C45.1778 83.2429 45.1003 83.2078 45.0302 83.1583C44.9612 83.1033 44.9017 83.0375 44.8518 82.9606C44.7845 82.8571 44.7424 82.7373 44.7252 82.6013C44.7081 82.4653 44.736 82.3143 44.8088 82.1485C44.8849 81.9804 45.0154 81.8009 45.2002 81.61C45.3828 81.4156 45.6413 81.2101 45.9757 80.9934C46.3468 80.7528 46.6877 80.5863 46.9985 80.4941C47.3103 80.3963 47.5949 80.3662 47.852 80.4036C48.1125 80.4388 48.349 80.5394 48.5614 80.7055C48.7751 80.866 48.9698 81.0815 49.1455 81.3521C49.356 81.676 49.5435 81.9864 49.7079 82.2833C49.8723 82.5801 50.0211 82.842 50.1543 83.069C50.2886 83.2904 50.4108 83.4675 50.5209 83.6002C50.6287 83.7296 50.732 83.7861 50.8306 83.7697C50.8749 83.7647 50.9221 83.746 50.9722 83.7134C51.0202 83.6776 51.0694 83.6362 51.1197 83.5894ZM47.9243 82.4783C47.9113 82.4583 47.8942 82.4503 47.8732 82.4545C47.8521 82.4587 47.8403 82.4734 47.8378 82.4988C47.8306 82.5462 47.8239 82.5908 47.8179 82.6327C47.8152 82.6724 47.8074 82.7226 47.7945 82.7832C47.7743 82.8911 47.7504 82.9969 47.7226 83.1003C47.6926 83.2004 47.6637 83.3022 47.6359 83.4057C47.6037 83.5025 47.5716 83.5993 47.5394 83.696C47.5106 83.7907 47.4884 83.8881 47.4728 83.9884C47.451 84.145 47.4574 84.2974 47.492 84.4458C47.5279 84.5887 47.5892 84.727 47.676 84.8606C47.7346 84.9507 47.8076 85.0339 47.8951 85.1101C47.9805 85.1829 48.0738 85.2387 48.175 85.2775C48.2774 85.3108 48.3856 85.3237 48.4996 85.3163C48.6147 85.3033 48.7325 85.2579 48.8529 85.1798C48.9732 85.1018 49.0539 85.0139 49.0949 84.9161C49.1393 84.8162 49.1587 84.7181 49.1533 84.622C49.1512 84.5237 49.1357 84.434 49.1069 84.3531C49.0758 84.2688 49.0473 84.2066 49.0213 84.1665L47.9243 82.4783Z" fill="white"/>
<path d="M57.1465 80.1311C57.1776 80.1205 57.2036 80.1202 57.2245 80.1304C57.2466 80.1351 57.2613 80.1469 57.2688 80.1658C57.2763 80.1846 57.2761 80.2062 57.268 80.2304C57.2633 80.2524 57.2476 80.2721 57.2209 80.2894L55.4053 81.4663C55.3685 81.4902 55.333 81.5013 55.2987 81.4998C55.2678 81.4961 55.2404 81.4759 55.2165 81.4392L55.0245 81.1436C54.9752 81.3749 54.8733 81.6166 54.7187 81.8687C54.5619 82.1174 54.318 82.3491 53.987 82.5637C53.7128 82.7414 53.4626 82.8609 53.2363 82.9222C53.0133 82.9813 52.8074 83.0008 52.6186 82.9808C52.4331 82.9587 52.2646 82.9042 52.1131 82.8173C51.965 82.7282 51.8303 82.6233 51.709 82.5025C51.5911 82.3796 51.4844 82.2518 51.3887 82.1193C51.2942 81.9812 51.2079 81.852 51.1298 81.7318L49.857 79.7731C49.7702 79.6395 49.674 79.55 49.5684 79.5045C49.4607 79.4557 49.3576 79.4324 49.2592 79.4345C49.1619 79.431 49.0744 79.4427 48.9967 79.4693C48.9223 79.4938 48.8696 79.5114 48.8385 79.522C48.8096 79.536 48.7847 79.5379 48.7638 79.5277C48.7396 79.5197 48.7237 79.5063 48.7162 79.4874C48.7087 79.4685 48.7089 79.447 48.717 79.4228C48.7217 79.4008 48.7374 79.3811 48.7642 79.3638L50.5798 78.1868C50.66 78.1348 50.7283 78.1522 50.7848 78.239L52.689 81.1695C52.7792 81.301 52.8777 81.427 52.9846 81.5475C53.0948 81.666 53.2141 81.7618 53.3426 81.8352C53.4722 81.9031 53.6105 81.9368 53.7576 81.9364C53.908 81.9338 54.0718 81.8751 54.249 81.7602C54.4362 81.6388 54.5584 81.5051 54.6155 81.3589C54.6738 81.2072 54.6922 81.0528 54.671 80.8958C54.6497 80.7387 54.6007 80.5829 54.5242 80.4285C54.4454 80.2707 54.3626 80.125 54.2758 79.9915L52.8663 77.8224C52.7795 77.6888 52.6833 77.5993 52.5777 77.5538C52.47 77.505 52.3669 77.4816 52.2685 77.4837C52.1712 77.4803 52.0837 77.492 52.006 77.5186C51.9316 77.5431 51.8789 77.5607 51.8478 77.5713C51.8189 77.5853 51.7923 77.5883 51.7681 77.5803C51.7472 77.5701 51.733 77.5556 51.7255 77.5367C51.718 77.5178 51.7166 77.4974 51.7213 77.4754C51.7293 77.4512 51.7467 77.4304 51.7735 77.413L53.5891 76.2361C53.6693 76.1841 53.7377 76.2015 53.7941 76.2883L56.128 79.8801C56.2148 80.0137 56.3121 80.1049 56.4199 80.1537C56.5254 80.1991 56.6269 80.2236 56.7241 80.227C56.8225 80.2249 56.91 80.2133 56.9866 80.1921C57.0643 80.1655 57.1176 80.1451 57.1465 80.1311Z" fill="white"/>
<path d="M63.0474 76.306C63.0785 76.2954 63.1045 76.2951 63.1254 76.3053C63.1475 76.31 63.1622 76.3218 63.1697 76.3406C63.1772 76.3595 63.177 76.381 63.1689 76.4052C63.1643 76.4273 63.1485 76.4469 63.1218 76.4643L60.604 78.0964C60.5772 78.1137 60.5512 78.1211 60.5258 78.1186C60.5037 78.1139 60.4856 78.1043 60.4714 78.0898C60.4572 78.0753 60.4508 78.0581 60.4521 78.0382C60.4547 78.0128 60.4671 77.9881 60.4895 77.9641C60.5141 77.9434 60.5527 77.9042 60.6054 77.8463C60.6593 77.7829 60.7055 77.7078 60.7442 77.6211C60.784 77.5288 60.8047 77.4252 60.8061 77.3104C60.8053 77.1922 60.7615 77.0664 60.6747 76.9328L59.2718 74.7737C59.1773 74.6356 59.0723 74.4996 58.9567 74.3657C58.8423 74.2262 58.716 74.1159 58.5777 74.0347C58.4406 73.948 58.2902 73.903 58.1266 73.8999C57.9642 73.8913 57.7893 73.9477 57.6021 74.0691C57.4082 74.1948 57.2826 74.3307 57.2256 74.4769C57.1685 74.6231 57.1501 74.7703 57.1704 74.9185C57.194 75.0645 57.2414 75.207 57.3127 75.3459C57.3851 75.4793 57.4539 75.5961 57.519 75.6963L59.0196 78.0057C59.1064 78.1392 59.2037 78.2304 59.3115 78.2793C59.417 78.3247 59.5185 78.3492 59.6157 78.3526C59.7141 78.3505 59.8016 78.3388 59.8782 78.3177C59.9559 78.291 60.0092 78.2707 60.0381 78.2567C60.0692 78.2461 60.0952 78.2458 60.1161 78.256C60.1382 78.2607 60.1529 78.2725 60.1604 78.2914C60.1679 78.3102 60.1677 78.3318 60.1596 78.356C60.1549 78.378 60.1392 78.3977 60.1125 78.415L57.5947 80.0471C57.5679 80.0644 57.5419 80.0718 57.5165 80.0693C57.4944 80.0646 57.4763 80.055 57.4621 80.0405C57.4479 80.026 57.4415 80.0088 57.4428 79.9889C57.4454 79.9635 57.4578 79.9389 57.4802 79.9148C57.5048 79.8942 57.5434 79.8549 57.5961 79.797C57.65 79.7336 57.6962 79.6585 57.7349 79.5718C57.7747 79.4795 57.7954 79.3759 57.7968 79.2611C57.796 79.1429 57.7522 79.0171 57.6654 78.8835L55.8556 76.0983C55.8274 76.0548 55.7899 76.0411 55.7433 76.0571C55.7366 76.0615 55.7083 76.0727 55.6583 76.0909C55.6117 76.1068 55.5573 76.1255 55.4951 76.1468C55.4329 76.1681 55.3752 76.189 55.3218 76.2093C55.2719 76.2275 55.2408 76.2381 55.2286 76.2413C55.1786 76.2594 55.1411 76.2529 55.116 76.2217C55.0922 76.1849 55.101 76.1436 55.1424 76.0978C55.2533 75.9832 55.3677 75.8521 55.4856 75.7044C55.6047 75.5513 55.7205 75.3932 55.8331 75.23C55.9435 75.0635 56.0467 74.8969 56.1428 74.7302C56.2366 74.5602 56.3155 74.4 56.3792 74.2495C56.3963 74.2099 56.421 74.1821 56.4532 74.1659C56.4888 74.1476 56.5218 74.1618 56.5522 74.2085L56.8322 74.6393C56.8611 74.5304 56.9023 74.4182 56.9557 74.3029C57.0069 74.1843 57.0736 74.0675 57.1557 73.9526C57.2412 73.8355 57.3438 73.7191 57.4635 73.6035C57.5866 73.4858 57.7317 73.3727 57.8989 73.2644C58.1731 73.0866 58.4217 72.9682 58.6446 72.9091C58.871 72.8479 59.0768 72.8283 59.2623 72.8505C59.4511 72.8705 59.6196 72.925 59.7678 73.014C59.9193 73.1009 60.054 73.2058 60.1719 73.3288C60.2931 73.4495 60.401 73.579 60.4955 73.7171C60.5911 73.8496 60.678 73.976 60.7562 74.0963L62.0289 76.055C62.1157 76.1885 62.213 76.2797 62.3208 76.3285C62.4263 76.374 62.5278 76.3985 62.625 76.4019C62.7234 76.3998 62.8109 76.3881 62.8875 76.367C62.9652 76.3403 63.0185 76.32 63.0474 76.306Z" fill="white"/>
<path d="M68.7327 72.6207C68.7638 72.61 68.7898 72.6098 68.8106 72.62C68.8327 72.6247 68.8475 72.6365 68.855 72.6553C68.8625 72.6742 68.8622 72.6957 68.8542 72.7199C68.8495 72.7419 68.8338 72.7616 68.807 72.779L66.9914 73.9559C66.9546 73.9797 66.9191 73.9909 66.8848 73.9894C66.8539 73.9857 66.8265 73.9655 66.8027 73.9287L66.5162 73.4879C66.501 73.4645 66.4829 73.4549 66.4618 73.4591C66.4408 73.4632 66.429 73.478 66.4265 73.5034C66.4202 73.5596 66.4081 73.6506 66.3899 73.7762C66.3696 73.8986 66.3237 74.0399 66.252 74.2002C66.1816 74.3551 66.0745 74.5194 65.9308 74.6932C65.7927 74.8682 65.6032 75.0337 65.3625 75.1898C65.095 75.3632 64.8382 75.4798 64.592 75.5398C64.3458 75.5997 64.1101 75.6172 63.8848 75.5923C63.6629 75.5653 63.4536 75.5064 63.2568 75.4157C63.0633 75.3227 62.8828 75.2095 62.7153 75.076C62.5511 74.9404 62.402 74.795 62.2679 74.6399C62.1372 74.4826 62.023 74.3288 61.9254 74.1785C61.6823 73.8044 61.5072 73.4362 61.4 73.0738C61.2939 72.7058 61.2624 72.3537 61.3052 72.0175C61.3514 71.679 61.4753 71.3614 61.6768 71.0646C61.8818 70.7656 62.1731 70.4937 62.551 70.2488C62.7616 70.1122 62.9525 70.0075 63.1237 69.9345C63.2927 69.8582 63.4382 69.8042 63.5602 69.7725C63.6801 69.7376 63.7748 69.7189 63.8445 69.7164C63.912 69.7106 63.9502 69.7072 63.9591 69.7062C63.9845 69.7088 64.0017 69.7023 64.0107 69.687C64.0231 69.6695 64.0239 69.6524 64.013 69.6357L62.6947 67.6069C62.6665 67.5634 62.629 67.5497 62.5824 67.5657C62.5757 67.5701 62.5474 67.5813 62.4974 67.5995C62.4508 67.6155 62.3964 67.6341 62.3342 67.6554C62.272 67.6767 62.2143 67.6976 62.1609 67.7179C62.111 67.7361 62.0799 67.7467 62.0677 67.7499C62.0177 67.768 61.9802 67.7615 61.9551 67.7303C61.9313 67.6935 61.9401 67.6522 61.9815 67.6064C62.0924 67.4918 62.2068 67.3607 62.3247 67.213C62.4438 67.0599 62.5596 66.9018 62.6722 66.7386C62.7826 66.5721 62.8858 66.4055 62.9819 66.2388C63.0757 66.0688 63.1546 65.9086 63.2183 65.7581C63.2354 65.7185 63.2601 65.6907 63.2923 65.6745C63.3279 65.6562 63.3609 65.6704 63.3913 65.7171L67.7142 72.3696C67.801 72.5032 67.8982 72.5944 68.006 72.6432C68.1116 72.6887 68.213 72.7131 68.3102 72.7165C68.4087 72.7144 68.4962 72.7028 68.5727 72.6817C68.6504 72.655 68.7038 72.6347 68.7327 72.6207ZM64.9292 71.0566C64.8749 70.9731 64.8086 70.8856 64.7301 70.7941C64.655 70.7004 64.5698 70.6132 64.4746 70.5325C64.3806 70.4463 64.2781 70.3727 64.1672 70.3117C64.0596 70.2486 63.9452 70.2041 63.8239 70.1783C63.7026 70.1525 63.5777 70.1504 63.4491 70.172C63.3185 70.1903 63.1879 70.2417 63.0575 70.3262C62.8602 70.4541 62.7239 70.6137 62.6486 70.8049C62.5733 70.9961 62.5496 71.2084 62.5777 71.4418C62.6036 71.6718 62.6746 71.92 62.7908 72.1865C62.9047 72.4496 63.0518 72.7197 63.2319 72.9969C63.2796 73.0704 63.3447 73.1706 63.4272 73.2975C63.5108 73.4189 63.6077 73.546 63.7177 73.6787C63.8311 73.8093 63.9556 73.9351 64.0912 74.056C64.2268 74.177 64.371 74.271 64.5239 74.338C64.6767 74.405 64.8383 74.4379 65.0086 74.4367C65.1767 74.4322 65.3494 74.3724 65.5266 74.2576C65.7539 74.1102 65.909 73.9503 65.9919 73.778C66.0747 73.6056 66.1139 73.4355 66.1093 73.2676C66.1047 73.0996 66.0708 72.9413 66.0074 72.7926C65.9418 72.6405 65.8754 72.5126 65.8081 72.4091L64.9292 71.0566Z" fill="white"/>
<path d="M69.2083 65.9333C69.3487 65.8423 69.4793 65.7837 69.6002 65.7576C69.7189 65.7281 69.8278 65.724 69.9271 65.7451C70.0241 65.7628 70.1121 65.8031 70.1909 65.8659C70.2676 65.9254 70.3341 65.9985 70.3905 66.0854C70.4947 66.2457 70.5243 66.4045 70.4792 66.5619C70.4375 66.7171 70.3314 66.8499 70.1608 66.9605C70.0304 67.045 69.9133 67.0877 69.8093 67.0887C69.7054 67.0896 69.6093 67.0807 69.5211 67.0619C69.434 67.0377 69.3536 67.0162 69.2797 66.9977C69.2059 66.9791 69.1372 66.9904 69.0737 67.0316C69.0168 67.0684 68.968 67.1285 68.9271 67.212C68.8875 67.2899 68.874 67.4007 68.8866 67.5444C68.9025 67.686 68.9529 67.8622 69.0376 68.073C69.1223 68.2839 69.2613 68.5379 69.4544 68.8352L70.5807 70.5684C70.6675 70.702 70.7576 70.7931 70.851 70.8417C70.9477 70.8882 71.0375 70.9131 71.1204 70.9163C71.2066 70.9173 71.2836 70.9078 71.3513 70.8876C71.4168 70.8642 71.464 70.8454 71.4929 70.8314C71.524 70.8208 71.55 70.8205 71.5709 70.8307C71.5929 70.8354 71.6077 70.8472 71.6152 70.866C71.6227 70.8849 71.6225 70.9064 71.6144 70.9306C71.6097 70.9527 71.594 70.9724 71.5673 70.9897L69.21 72.5178C69.1832 72.5351 69.1572 72.5425 69.1318 72.54C69.1097 72.5353 69.0916 72.5257 69.0774 72.5112C69.0632 72.4966 69.0568 72.4794 69.0581 72.4596C69.0606 72.4342 69.0731 72.4095 69.0955 72.3855C69.1201 72.3648 69.1565 72.3294 69.2046 72.2792C69.2506 72.2256 69.289 72.1604 69.3198 72.0835C69.354 72.0044 69.3678 71.9123 69.3614 71.8073C69.3583 71.7002 69.3133 71.5798 69.2265 71.4462L67.3906 68.6209C67.3624 68.5775 67.325 68.5638 67.2783 68.5798C67.2717 68.5841 67.2433 68.5954 67.1933 68.6135C67.1467 68.6295 67.0923 68.6482 67.0301 68.6695C66.9679 68.6908 66.9102 68.7116 66.8569 68.732C66.8069 68.7501 66.7758 68.7608 66.7636 68.7639C66.7136 68.7821 66.6761 68.7756 66.6511 68.7443C66.6272 68.7076 66.636 68.6663 66.6775 68.6204C66.7883 68.5058 66.9027 68.3747 67.0207 68.2271C67.1397 68.074 67.2556 67.9158 67.3682 67.7527C67.4786 67.5862 67.5818 67.4196 67.6778 67.2529C67.7717 67.0829 67.8505 66.9226 67.9143 66.7721C67.9313 66.7326 67.956 66.7047 67.9883 66.6886C68.0239 66.6702 68.0569 66.6845 68.0873 66.7312L68.5527 67.4476C68.5027 67.1145 68.5367 66.8196 68.6549 66.5626C68.773 66.3057 68.9575 66.0959 69.2083 65.9333Z" fill="white"/>
<path d="M75.0102 70.4594L74.7167 68.5708C74.583 68.4819 74.4064 68.3638 74.1871 68.2164C73.9678 68.0691 73.7293 67.9104 73.4715 67.7405C73.2116 67.5672 72.9468 67.39 72.677 67.2089C72.4073 67.0278 72.1572 66.8624 71.9269 66.7127C71.6944 66.5597 71.4959 66.4297 71.3313 66.3227C71.1646 66.2125 71.0544 66.1415 71.0006 66.11C70.8875 66.0456 70.7848 65.9936 70.6924 65.9538C70.5978 65.9106 70.5065 65.8797 70.4182 65.861C70.33 65.8422 70.2416 65.8378 70.153 65.8478C70.0623 65.8544 69.9642 65.8752 69.8587 65.9104C69.8276 65.921 69.8017 65.9213 69.7808 65.9111C69.7565 65.9031 69.7407 65.8896 69.7332 65.8707C69.7202 65.8507 69.7177 65.8286 69.7257 65.8044C69.7304 65.7824 69.7461 65.7627 69.7729 65.7453L72.2806 64.1197C72.304 64.1046 72.3284 64.0983 72.3538 64.1008C72.3792 64.1033 72.4001 64.1135 72.4165 64.1314C72.4307 64.1459 72.4393 64.1664 72.4422 64.193C72.4431 64.2162 72.4306 64.2409 72.4048 64.267C72.3634 64.3129 72.3201 64.367 72.2751 64.4294C72.2313 64.4863 72.2029 64.5522 72.1898 64.6272C72.1745 64.6988 72.1852 64.7773 72.2217 64.8628C72.2561 64.9449 72.3307 65.0342 72.4456 65.1306C72.497 65.1732 72.5765 65.2332 72.6839 65.3107C72.7913 65.3882 72.9102 65.4725 73.0406 65.5636C73.1711 65.6546 73.3065 65.7496 73.4468 65.8485C73.5849 65.9441 73.7132 66.0318 73.8316 66.1117C73.9478 66.1882 74.0477 66.254 74.131 66.3092C74.2122 66.3609 74.2594 66.3897 74.2726 66.3954C74.3242 66.4236 74.3476 66.4084 74.3428 66.3499C74.3376 66.32 74.3257 66.2541 74.3071 66.1523C74.2884 66.0505 74.2634 65.9315 74.2319 65.7952C74.2016 65.6535 74.1692 65.5013 74.1347 65.3385C74.1002 65.1758 74.0667 65.0219 74.0342 64.8768C73.9996 64.7284 73.9675 64.5949 73.938 64.4764C73.9097 64.3524 73.887 64.2626 73.87 64.2072C73.8287 64.0632 73.7774 63.9587 73.7163 63.8939C73.6564 63.8236 73.5922 63.7797 73.5239 63.7623C73.4534 63.7416 73.3832 63.7396 73.3134 63.7564C73.2413 63.7699 73.1759 63.7862 73.1171 63.8054C73.0826 63.8182 73.055 63.8195 73.0341 63.8093C73.011 63.7958 72.9957 63.7796 72.9882 63.7607C72.9786 63.7385 72.9761 63.7164 72.9808 63.6944C72.9888 63.6702 73.0062 63.6494 73.0329 63.6321L74.5326 62.66C74.556 62.6448 74.5787 62.6395 74.6008 62.6442C74.6262 62.6468 74.6471 62.657 74.6634 62.6748C74.6776 62.6894 74.6834 62.7093 74.6809 62.7347C74.6817 62.7579 74.6709 62.7815 74.6485 62.8055C74.5768 62.8852 74.5194 62.9651 74.4764 63.0452C74.4312 63.122 74.3976 63.2055 74.3755 63.2958C74.3567 63.3839 74.3478 63.4798 74.3487 63.5837C74.3475 63.6841 74.3532 63.7991 74.366 63.9284C74.372 63.9815 74.3882 64.1015 74.4146 64.2885C74.4423 64.4699 74.476 64.6901 74.516 64.949C74.5559 65.2079 74.5994 65.4906 74.6465 65.797C74.6936 66.1035 74.7412 66.4072 74.7895 66.7082C74.8356 67.0058 74.8791 67.2885 74.92 67.5562C74.9609 67.824 74.9958 68.0458 75.0245 68.2218L75.4119 70.7046C75.4643 71.0266 75.4641 71.3115 75.4113 71.5593C75.3618 71.8049 75.2267 71.9993 75.006 72.1423C74.9291 72.1922 74.8446 72.2304 74.7525 72.2568C74.6626 72.2866 74.5724 72.2977 74.4818 72.2899C74.3934 72.2855 74.3053 72.2596 74.2174 72.2122C74.1351 72.1659 74.0602 72.091 73.993 71.9874C73.9322 71.8939 73.8968 71.8029 73.8869 71.7145C73.8803 71.6238 73.8913 71.5384 73.9199 71.4581C73.9519 71.3757 73.9981 71.3006 74.0587 71.2329C74.1192 71.1652 74.1879 71.1064 74.2648 71.0565C74.3685 70.9893 74.4685 70.9458 74.565 70.9261C74.6636 70.9096 74.7501 70.8891 74.8244 70.8646C74.8988 70.8402 74.9535 70.8 74.9885 70.7441C75.0256 70.6915 75.0328 70.5967 75.0102 70.4594Z" fill="white"/>
<path d="M121.827 89.8846C121.752 90.03 121.723 90.1625 121.738 90.2819C121.757 90.4031 121.791 90.5102 121.842 90.6032C121.899 90.6945 121.959 90.7697 122.022 90.829C122.09 90.8901 122.136 90.9296 122.163 90.9477C122.188 90.9692 122.201 90.9916 122.203 91.0147C122.21 91.0362 122.207 91.0548 122.194 91.0708C122.182 91.0867 122.163 91.0972 122.138 91.1024C122.116 91.1093 122.091 91.1055 122.063 91.0911L119.272 89.6692C119.244 89.6547 119.224 89.6359 119.214 89.6126C119.207 89.5912 119.206 89.5707 119.211 89.5512C119.217 89.5317 119.229 89.5175 119.247 89.5088C119.27 89.4983 119.297 89.4967 119.329 89.5041C119.36 89.515 119.417 89.5288 119.503 89.5455C119.592 89.564 119.688 89.5684 119.792 89.5585C119.9 89.5469 120.008 89.5122 120.113 89.4543C120.223 89.3982 120.314 89.2974 120.389 89.152L123.434 83.1884C123.458 83.1423 123.451 83.1031 123.414 83.0707C123.407 83.0671 123.383 83.0482 123.342 83.014C123.305 82.9817 123.261 82.944 123.212 82.9008C123.162 82.8577 123.115 82.8182 123.071 82.7822C123.03 82.748 123.005 82.7265 122.997 82.7175C122.956 82.6833 122.943 82.6476 122.957 82.6103C122.977 82.5713 123.018 82.5583 123.078 82.5712C123.233 82.6099 123.404 82.6433 123.591 82.6715C123.783 82.698 123.978 82.7191 124.176 82.7349C124.375 82.7472 124.571 82.7533 124.764 82.753C124.958 82.7492 125.137 82.7373 125.299 82.7172C125.342 82.7122 125.378 82.7197 125.408 82.7395C125.442 82.7611 125.446 82.7968 125.421 82.8464L121.827 89.8846Z" fill="white"/>
<path d="M127.336 93.1608C127.392 93.1755 127.425 93.206 127.437 93.2524C127.451 93.2953 127.433 93.3352 127.383 93.3722C127.342 93.4003 127.283 93.4283 127.206 93.4562C127.132 93.4859 127.043 93.503 126.938 93.5075C126.836 93.5138 126.719 93.5031 126.585 93.4753C126.455 93.4493 126.312 93.3965 126.156 93.3169C125.939 93.2066 125.778 93.0709 125.672 92.9098C125.572 92.7469 125.523 92.5943 125.524 92.4519C125.524 92.4163 125.509 92.393 125.479 92.3821C125.452 92.373 125.425 92.3727 125.399 92.3814C125.382 92.3866 125.333 92.3996 125.251 92.4203C125.174 92.4393 125.07 92.4509 124.938 92.4552C124.811 92.4577 124.666 92.4441 124.502 92.4143C124.337 92.3881 124.162 92.3279 123.977 92.2338C123.661 92.0728 123.417 91.8928 123.246 91.6938C123.078 91.4966 122.962 91.2945 122.898 91.0874C122.839 90.8786 122.824 90.672 122.852 90.4674C122.886 90.2611 122.947 90.0711 123.036 89.8973C123.179 89.6171 123.382 89.4122 123.645 89.2826C123.912 89.1547 124.197 89.1036 124.502 89.1292C124.664 89.1447 124.824 89.1789 124.98 89.2318C125.142 89.283 125.302 89.3332 125.46 89.3826C125.618 89.4319 125.776 89.4741 125.932 89.5092C126.094 89.5426 126.259 89.5483 126.427 89.5265C126.604 89.5048 126.752 89.4374 126.872 89.3245C126.996 89.2133 127.098 89.0797 127.178 88.9236C127.236 88.8101 127.275 88.6938 127.296 88.5747C127.322 88.4538 127.326 88.3399 127.309 88.2329C127.296 88.1277 127.263 88.0331 127.212 87.949C127.165 87.8667 127.099 87.8039 127.013 87.7605C126.861 87.6827 126.729 87.6647 126.618 87.7066C126.507 87.7484 126.402 87.8134 126.304 87.9017C126.208 87.9917 126.112 88.088 126.015 88.1905C125.92 88.2894 125.811 88.3616 125.69 88.4069C125.592 88.4417 125.482 88.4506 125.361 88.4336C125.245 88.4149 125.141 88.382 125.049 88.335C124.953 88.2861 124.876 88.2268 124.817 88.1569C124.759 88.087 124.717 88.0118 124.691 87.9315C124.667 87.8476 124.658 87.763 124.666 87.6776C124.679 87.5904 124.707 87.5061 124.748 87.4245C124.805 87.3146 124.887 87.2182 124.997 87.1354C125.106 87.0526 125.251 87.0012 125.431 86.9813C125.615 86.9632 125.836 86.9863 126.094 87.0507C126.354 87.1115 126.661 87.2324 127.016 87.4133C127.41 87.6141 127.725 87.8258 127.96 88.0485C128.201 88.2694 128.369 88.5005 128.466 88.7416C128.565 88.9846 128.596 89.2394 128.558 89.5062C128.526 89.7713 128.436 90.0474 128.29 90.3347C128.114 90.6787 127.938 90.996 127.763 91.2866C127.588 91.5772 127.435 91.8369 127.305 92.0655C127.18 92.2924 127.088 92.4867 127.028 92.6482C126.969 92.8062 126.972 92.9237 127.035 93.0008C127.062 93.0366 127.102 93.0681 127.155 93.0953C127.21 93.1188 127.271 93.1407 127.336 93.1608ZM126.703 89.8412C126.713 89.82 126.712 89.8012 126.698 89.7851C126.684 89.769 126.665 89.7661 126.642 89.7766C126.597 89.7941 126.555 89.8107 126.515 89.8264C126.48 89.8439 126.432 89.8622 126.373 89.8813C126.27 89.9179 126.166 89.95 126.062 89.9777C125.961 90.0018 125.858 90.0277 125.754 90.0553C125.654 90.0759 125.554 90.0964 125.454 90.117C125.358 90.1394 125.262 90.1689 125.167 90.2055C125.021 90.2649 124.892 90.3466 124.78 90.4508C124.674 90.5532 124.585 90.6754 124.513 90.8172C124.464 90.913 124.428 91.0178 124.406 91.1315C124.385 91.2418 124.384 91.3504 124.401 91.4573C124.423 91.5626 124.466 91.6626 124.529 91.7575C124.598 91.8506 124.696 91.9298 124.824 91.9949C124.952 92.06 125.068 92.0859 125.174 92.0725C125.283 92.0609 125.377 92.0287 125.458 91.9759C125.542 91.925 125.612 91.8668 125.668 91.8013C125.726 91.7324 125.765 91.6766 125.787 91.634L126.703 89.8412Z" fill="white"/>
<path d="M133.348 96.6456C133.373 96.6672 133.386 96.6896 133.387 96.7127C133.394 96.7342 133.392 96.7528 133.379 96.7688C133.366 96.7847 133.348 96.7952 133.323 96.8004C133.301 96.8073 133.276 96.8035 133.248 96.7891L131.32 95.8068C131.281 95.7869 131.253 95.7617 131.237 95.7313C131.225 95.7028 131.229 95.669 131.249 95.6299L131.409 95.3161C131.184 95.3891 130.923 95.4217 130.627 95.414C130.333 95.4027 130.011 95.3075 129.659 95.1285C129.368 94.9801 129.139 94.8234 128.973 94.6582C128.81 94.4949 128.69 94.3266 128.613 94.1532C128.54 93.9817 128.503 93.8087 128.502 93.6342C128.506 93.4615 128.529 93.2926 128.573 93.1273C128.621 92.9639 128.678 92.8077 128.746 92.6586C128.818 92.5079 128.887 92.3686 128.952 92.241L130.014 90.1609C130.087 90.019 130.116 89.8911 130.103 89.777C130.092 89.6594 130.06 89.5585 130.009 89.4744C129.964 89.3886 129.91 89.3187 129.848 89.2648C129.789 89.2127 129.748 89.1759 129.723 89.1543C129.696 89.1363 129.682 89.1157 129.681 89.0925C129.676 89.0676 129.679 89.0471 129.692 89.0312C129.705 89.0153 129.723 89.0048 129.748 88.9996C129.77 88.9927 129.795 88.9964 129.823 89.0109L131.751 89.9932C131.837 90.0366 131.856 90.1044 131.809 90.1966L130.219 93.3088C130.15 93.4524 130.09 93.6006 130.039 93.7533C129.992 93.9079 129.968 94.059 129.969 94.2068C129.975 94.3529 130.015 94.4894 130.088 94.6164C130.166 94.7452 130.299 94.8576 130.487 94.9535C130.686 95.0548 130.863 95.0936 131.018 95.0699C131.179 95.0445 131.322 94.9833 131.447 94.8864C131.573 94.7894 131.683 94.6693 131.779 94.5258C131.877 94.3788 131.962 94.2344 132.034 94.0925L133.21 91.789C133.283 91.6471 133.312 91.5192 133.299 91.4051C133.287 91.2875 133.256 91.1866 133.205 91.1025C133.159 91.0167 133.106 90.9468 133.044 90.8929C132.985 90.8408 132.944 90.804 132.919 90.7824C132.892 90.7644 132.876 90.7429 132.871 90.7179C132.87 90.6948 132.875 90.6752 132.888 90.6593C132.9 90.6434 132.917 90.6319 132.939 90.625C132.964 90.6199 132.991 90.6245 133.019 90.639L134.947 91.6213C135.032 91.6647 135.051 91.7325 135.004 91.8247L133.056 95.6391C132.984 95.7809 132.953 95.9107 132.965 96.0283C132.978 96.1424 133.008 96.2423 133.054 96.3281C133.105 96.4122 133.158 96.4821 133.215 96.5378C133.277 96.5917 133.321 96.6276 133.348 96.6456Z" fill="white"/>
<path d="M139.614 99.8382C139.639 99.8597 139.652 99.8821 139.654 99.9052C139.661 99.9267 139.658 99.9453 139.646 99.9613C139.633 99.9772 139.614 99.9877 139.589 99.9929C139.568 99.9998 139.543 99.9961 139.514 99.9816L136.841 98.6194C136.812 98.6049 136.793 98.5861 136.782 98.5629C136.775 98.5414 136.774 98.5209 136.78 98.5014C136.785 98.4819 136.797 98.4677 136.815 98.459C136.838 98.4485 136.866 98.4469 136.898 98.4543C136.928 98.4652 136.982 98.479 137.058 98.4956C137.14 98.5105 137.228 98.513 137.323 98.5031C137.423 98.4914 137.523 98.4575 137.623 98.4013C137.725 98.3416 137.812 98.2408 137.885 98.0989L139.056 95.8061C139.128 95.6553 139.194 95.4965 139.252 95.3296C139.316 95.1609 139.348 94.9965 139.35 94.8362C139.356 94.6743 139.32 94.5217 139.241 94.3787C139.167 94.2338 139.031 94.1108 138.832 94.0095C138.626 93.9046 138.446 93.8639 138.29 93.8876C138.135 93.9113 137.998 93.969 137.88 94.0606C137.765 94.1541 137.665 94.2663 137.58 94.3974C137.501 94.5268 137.434 94.6446 137.38 94.751L136.127 97.2035C136.055 97.3454 136.024 97.4751 136.036 97.5927C136.049 97.7068 136.079 97.8067 136.124 97.8925C136.175 97.9766 136.229 98.0465 136.286 98.1022C136.348 98.1561 136.392 98.192 136.419 98.2101C136.443 98.2316 136.457 98.254 136.458 98.2772C136.465 98.2986 136.462 98.3172 136.45 98.3332C136.437 98.3491 136.418 98.3596 136.393 98.3648C136.372 98.3717 136.347 98.368 136.319 98.3535L133.645 96.9913C133.616 96.9768 133.597 96.958 133.586 96.9348C133.579 96.9133 133.579 96.8929 133.584 96.8733C133.59 96.8538 133.601 96.8396 133.619 96.8309C133.643 96.8204 133.67 96.8188 133.702 96.8262C133.732 96.8371 133.786 96.8509 133.862 96.8675C133.944 96.8824 134.032 96.8849 134.127 96.875C134.227 96.8633 134.327 96.8294 134.427 96.7732C134.529 96.7135 134.617 96.6127 134.689 96.4709L136.2 93.513C136.223 93.4669 136.216 93.4277 136.179 93.3953C136.172 93.3917 136.148 93.3728 136.107 93.3386C136.07 93.3063 136.027 93.2686 135.977 93.2254C135.928 93.1823 135.881 93.1428 135.837 93.1068C135.796 93.0726 135.771 93.0511 135.762 93.0421C135.721 93.0079 135.708 92.9722 135.723 92.9349C135.743 92.8959 135.783 92.8829 135.844 92.8958C135.998 92.9345 136.169 92.9679 136.356 92.9961C136.549 93.0226 136.744 93.0437 136.941 93.0595C137.141 93.0718 137.337 93.0779 137.529 93.0776C137.724 93.0738 137.902 93.0619 138.065 93.0418C138.107 93.0368 138.144 93.0443 138.174 93.0641C138.208 93.0857 138.212 93.1214 138.187 93.171L137.953 93.6285C138.062 93.5991 138.18 93.5787 138.306 93.5673C138.435 93.5523 138.569 93.5516 138.71 93.5651C138.854 93.5805 139.007 93.6111 139.167 93.6569C139.33 93.7045 139.501 93.7736 139.678 93.864C139.97 94.0124 140.197 94.1682 140.359 94.3315C140.526 94.4967 140.645 94.665 140.719 94.8365C140.796 95.0099 140.833 95.1829 140.83 95.3556C140.83 95.5301 140.806 95.699 140.759 95.8624C140.715 96.0277 140.656 96.1857 140.584 96.3365C140.517 96.4855 140.451 96.6238 140.385 96.7515L139.323 98.8316C139.251 98.9735 139.22 99.1032 139.232 99.2208C139.245 99.3349 139.275 99.4348 139.32 99.5206C139.371 99.6047 139.425 99.6746 139.482 99.7303C139.544 99.7842 139.588 99.8201 139.614 99.8382Z" fill="white"/>
<path d="M145.652 102.914C145.677 102.936 145.69 102.958 145.692 102.981C145.699 103.002 145.696 103.021 145.683 103.037C145.671 103.053 145.652 103.064 145.627 103.069C145.605 103.076 145.58 103.072 145.552 103.057L143.624 102.075C143.585 102.055 143.557 102.03 143.542 102C143.529 101.971 143.533 101.937 143.553 101.898L143.792 101.43C143.805 101.405 143.804 101.385 143.79 101.369C143.776 101.353 143.757 101.35 143.734 101.36C143.682 101.383 143.597 101.418 143.479 101.465C143.363 101.509 143.217 101.539 143.042 101.558C142.873 101.574 142.677 101.564 142.454 101.526C142.234 101.494 141.995 101.413 141.74 101.283C141.456 101.138 141.226 100.974 141.051 100.791C140.876 100.608 140.743 100.413 140.652 100.206C140.564 100 140.511 99.7898 140.491 99.5742C140.475 99.3604 140.483 99.1477 140.515 98.936C140.551 98.7262 140.602 98.5245 140.67 98.331C140.741 98.1393 140.817 97.9636 140.898 97.804C141.101 97.4068 141.333 97.0712 141.594 96.7973C141.86 96.5217 142.149 96.3184 142.462 96.1873C142.779 96.0581 143.116 96.0065 143.474 96.0325C143.836 96.0603 144.218 96.1765 144.619 96.3809C144.843 96.4948 145.029 96.6076 145.178 96.7192C145.328 96.8272 145.448 96.9261 145.536 97.0159C145.627 97.1021 145.69 97.1747 145.727 97.2337C145.766 97.2892 145.788 97.3206 145.793 97.3277C145.804 97.351 145.818 97.3627 145.836 97.3628C145.857 97.3648 145.872 97.3569 145.881 97.3391L146.982 95.1846C147.005 95.1385 146.998 95.0992 146.961 95.0669C146.954 95.0633 146.93 95.0444 146.889 95.0102C146.852 94.9779 146.809 94.9401 146.759 94.897C146.71 94.8539 146.663 94.8143 146.619 94.7784C146.578 94.7442 146.553 94.7226 146.544 94.7137C146.503 94.6795 146.49 94.6438 146.505 94.6065C146.525 94.5675 146.565 94.5545 146.626 94.5674C146.78 94.6061 146.951 94.6395 147.138 94.6677C147.331 94.6942 147.526 94.7153 147.723 94.7311C147.923 94.7434 148.119 94.7494 148.312 94.7492C148.506 94.7454 148.684 94.7335 148.847 94.7134C148.889 94.7084 148.926 94.7158 148.956 94.7357C148.99 94.7573 148.994 94.7929 148.969 94.8426L145.361 101.907C145.288 102.049 145.258 102.179 145.269 102.297C145.283 102.411 145.312 102.511 145.358 102.596C145.409 102.681 145.463 102.75 145.519 102.806C145.581 102.86 145.625 102.896 145.652 102.914ZM145.107 98.8419C145.152 98.7533 145.195 98.6521 145.235 98.5385C145.279 98.4267 145.312 98.3094 145.334 98.1867C145.362 98.0623 145.375 97.9369 145.372 97.8105C145.373 97.6858 145.355 97.5646 145.316 97.4468C145.278 97.329 145.217 97.2199 145.134 97.1195C145.053 97.0156 144.943 96.9283 144.805 96.8578C144.595 96.751 144.389 96.7129 144.185 96.7433C143.982 96.7737 143.786 96.8594 143.598 97.0003C143.411 97.1377 143.231 97.3232 143.058 97.5569C142.887 97.787 142.726 98.0492 142.576 98.3436C142.536 98.4216 142.482 98.528 142.413 98.6628C142.35 98.7958 142.288 98.9431 142.228 99.1047C142.171 99.268 142.124 99.4386 142.087 99.6163C142.05 99.7941 142.041 99.9658 142.059 100.132C142.077 100.297 142.13 100.454 142.216 100.6C142.304 100.743 142.442 100.863 142.63 100.959C142.871 101.082 143.088 101.136 143.279 101.122C143.469 101.107 143.636 101.056 143.78 100.968C143.923 100.88 144.043 100.772 144.141 100.642C144.24 100.51 144.317 100.388 144.374 100.278L145.107 98.8419Z" fill="white"/>
<path d="M151.689 99.9826C151.838 100.059 151.954 100.142 152.037 100.234C152.122 100.322 152.18 100.414 152.211 100.51C152.244 100.603 152.254 100.699 152.238 100.799C152.225 100.895 152.195 100.989 152.148 101.081C152.061 101.252 151.938 101.357 151.779 101.396C151.624 101.438 151.455 101.412 151.274 101.32C151.136 101.25 151.04 101.169 150.987 101.08C150.935 100.991 150.894 100.903 150.867 100.817C150.844 100.73 150.822 100.65 150.802 100.576C150.781 100.503 150.737 100.45 150.669 100.415C150.609 100.384 150.532 100.372 150.44 100.379C150.352 100.383 150.249 100.427 150.131 100.51C150.016 100.594 149.889 100.726 149.748 100.905C149.608 101.083 149.457 101.33 149.296 101.646L148.356 103.487C148.283 103.629 148.249 103.752 148.254 103.857C148.262 103.964 148.285 104.054 148.324 104.127C148.366 104.203 148.413 104.264 148.464 104.313C148.517 104.358 148.557 104.389 148.583 104.407C148.608 104.429 148.621 104.451 148.623 104.474C148.63 104.496 148.627 104.515 148.615 104.53C148.602 104.546 148.583 104.557 148.558 104.562C148.537 104.569 148.512 104.565 148.483 104.551L145.98 103.275C145.952 103.261 145.932 103.242 145.922 103.219C145.915 103.197 145.914 103.177 145.919 103.157C145.925 103.138 145.937 103.124 145.954 103.115C145.978 103.104 146.005 103.103 146.037 103.11C146.068 103.121 146.117 103.135 146.184 103.152C146.254 103.165 146.329 103.165 146.411 103.153C146.497 103.143 146.584 103.109 146.672 103.051C146.763 102.995 146.845 102.896 146.917 102.754L148.45 99.7537C148.473 99.7076 148.466 99.6684 148.429 99.636C148.422 99.6324 148.398 99.6135 148.357 99.5793C148.32 99.547 148.277 99.5093 148.227 99.4661C148.178 99.423 148.131 99.3834 148.087 99.3475C148.046 99.3133 148.021 99.2918 148.012 99.2828C147.971 99.2486 147.958 99.2129 147.973 99.1756C147.993 99.1366 148.033 99.1236 148.094 99.1365C148.248 99.1752 148.419 99.2086 148.606 99.2368C148.799 99.2633 148.994 99.2844 149.191 99.3002C149.391 99.3125 149.587 99.3185 149.779 99.3183C149.974 99.3145 150.152 99.3026 150.315 99.2825C150.357 99.2775 150.394 99.2849 150.424 99.3048C150.458 99.3264 150.462 99.3621 150.437 99.4117L150.048 100.172C150.312 99.9627 150.585 99.8447 150.867 99.8184C151.148 99.7922 151.422 99.8469 151.689 99.9826Z" fill="white"/>
<path d="M150.664 107.264L152.155 106.066C152.165 105.906 152.18 105.694 152.198 105.431C152.216 105.167 152.234 104.882 152.253 104.574C152.273 104.262 152.294 103.945 152.317 103.621C152.339 103.297 152.357 102.998 152.372 102.724C152.388 102.446 152.402 102.21 152.412 102.014C152.425 101.814 152.431 101.684 152.432 101.621C152.431 101.491 152.425 101.376 152.413 101.277C152.403 101.173 152.384 101.079 152.356 100.993C152.329 100.907 152.288 100.829 152.235 100.757C152.184 100.682 152.117 100.607 152.034 100.534C152.009 100.512 151.996 100.49 151.994 100.467C151.989 100.442 151.993 100.421 152.005 100.405C152.016 100.384 152.034 100.371 152.059 100.366C152.081 100.359 152.106 100.363 152.134 100.377L154.797 101.734C154.822 101.746 154.84 101.764 154.85 101.788C154.861 101.811 154.862 101.834 154.855 101.857C154.85 101.877 154.836 101.894 154.815 101.91C154.795 101.923 154.767 101.924 154.732 101.915C154.671 101.902 154.603 101.892 154.526 101.884C154.455 101.874 154.383 101.883 154.312 101.909C154.242 101.931 154.179 101.98 154.123 102.054C154.069 102.125 154.029 102.234 154.003 102.382C153.992 102.448 153.98 102.546 153.966 102.678C153.953 102.81 153.939 102.955 153.925 103.113C153.911 103.271 153.897 103.436 153.881 103.607C153.867 103.774 153.855 103.929 153.845 104.071C153.837 104.21 153.83 104.329 153.824 104.429C153.819 104.525 153.818 104.58 153.82 104.594C153.821 104.653 153.846 104.666 153.894 104.632C153.918 104.613 153.969 104.57 154.048 104.503C154.127 104.436 154.217 104.355 154.32 104.259C154.427 104.162 154.543 104.058 154.667 103.947C154.791 103.836 154.908 103.73 155.017 103.629C155.129 103.525 155.228 103.431 155.316 103.346C155.41 103.259 155.476 103.195 155.516 103.152C155.62 103.045 155.685 102.948 155.711 102.863C155.742 102.776 155.748 102.698 155.729 102.631C155.711 102.559 155.678 102.498 155.629 102.446C155.581 102.39 155.534 102.342 155.488 102.3C155.46 102.277 155.445 102.254 155.443 102.23C155.443 102.204 155.45 102.182 155.462 102.166C155.477 102.147 155.495 102.134 155.516 102.127C155.541 102.122 155.568 102.126 155.596 102.141L157.189 102.952C157.214 102.965 157.23 102.982 157.237 103.003C157.247 103.027 157.249 103.05 157.241 103.073C157.236 103.092 157.221 103.107 157.198 103.118C157.178 103.13 157.153 103.133 157.121 103.125C157.016 103.103 156.918 103.093 156.827 103.096C156.737 103.095 156.648 103.108 156.559 103.134C156.473 103.162 156.385 103.202 156.296 103.255C156.208 103.304 156.111 103.366 156.006 103.442C155.963 103.474 155.867 103.548 155.718 103.664C155.574 103.779 155.4 103.918 155.196 104.082C154.991 104.246 154.768 104.425 154.525 104.619C154.283 104.813 154.044 105.006 153.807 105.198C153.572 105.387 153.348 105.566 153.137 105.735C152.925 105.904 152.75 106.045 152.612 106.158L150.652 107.734C150.399 107.94 150.152 108.083 149.911 108.161C149.673 108.241 149.437 108.221 149.203 108.102C149.121 108.06 149.046 108.006 148.977 107.94C148.906 107.877 148.851 107.804 148.813 107.722C148.772 107.643 148.751 107.554 148.748 107.454C148.747 107.36 148.775 107.258 148.831 107.148C148.881 107.049 148.943 106.972 149.014 106.92C149.09 106.869 149.169 106.835 149.253 106.82C149.341 106.806 149.429 106.809 149.518 106.828C149.607 106.846 149.692 106.876 149.774 106.918C149.884 106.974 149.972 107.039 150.037 107.112C150.101 107.189 150.162 107.254 150.22 107.306C150.278 107.358 150.341 107.385 150.406 107.387C150.471 107.393 150.556 107.352 150.664 107.264Z" fill="white"/>
</svg>
