<svg width="440" height="270" viewBox="0 0 440 270" fill="none" xmlns="http://www.w3.org/2000/svg">
<g clip-path="url(#clip0_1818_3286)">
<path d="M118.579 120.449C115.839 120.449 113.629 118.229 113.629 115.499V62.3191C113.629 59.5791 115.849 57.3691 118.579 57.3691C121.319 57.3691 123.529 59.5891 123.529 62.3191V115.499C123.539 118.229 121.319 120.449 118.579 120.449Z" fill="#C4C9D3"/>
<path d="M59.8978 181.719H6.70781C3.96781 181.719 1.75781 179.499 1.75781 176.769C1.75781 174.029 3.97781 171.819 6.70781 171.819H59.8878C62.6278 171.819 64.8378 174.039 64.8378 176.769C64.8478 179.509 62.6278 181.719 59.8978 181.719Z" fill="#C4C9D3"/>
<path d="M74.858 137.72C73.588 137.72 72.318 137.24 71.358 136.27L33.758 98.6596C31.828 96.7296 31.828 93.5896 33.758 91.6496C35.698 89.7196 38.828 89.7196 40.768 91.6496L78.368 129.25C80.298 131.18 80.298 134.32 78.368 136.26C77.398 137.24 76.128 137.72 74.858 137.72Z" fill="#C4C9D3"/>
<path d="M158.018 137.72C156.748 137.72 155.478 137.24 154.518 136.27C152.588 134.33 152.588 131.2 154.518 129.26L192.118 91.6596C194.058 89.7296 197.188 89.7296 199.128 91.6596C201.058 93.5896 201.058 96.7296 199.128 98.6696L161.528 136.28C160.558 137.24 159.288 137.72 158.018 137.72Z" fill="#C4C9D3"/>
<path d="M158.848 168.78C158.848 146.54 140.818 128.52 118.588 128.52C96.3481 128.52 78.3281 146.55 78.3281 168.78C78.3281 180.75 83.5581 191.5 91.8581 198.88H145.328C153.608 191.5 158.848 180.76 158.848 168.78Z" fill="#C4C9D3"/>
<path d="M440.759 177.39C432.499 180.62 423.509 182.39 414.109 182.39C373.659 182.39 340.869 149.6 340.869 109.14C340.869 95.88 344.389 83.44 350.559 72.71C323.289 83.37 303.969 109.9 303.969 140.95C303.969 163.92 314.539 184.41 331.089 197.84H423.339C430.319 192.17 436.249 185.24 440.759 177.39Z" fill="#D1D6E0"/>
<path d="M321.048 145.08C326.098 145.08 330.188 140.99 330.188 135.94C330.188 130.89 326.098 126.8 321.048 126.8C315.998 126.8 311.908 130.89 311.908 135.94C311.908 140.99 315.998 145.08 321.048 145.08Z" fill="#9BA0AA"/>
<path d="M371.928 181.55C371.928 188.93 377.918 194.92 385.298 194.92C392.678 194.92 398.668 188.93 398.668 181.55C398.668 181.28 398.658 181.01 398.638 180.74C390.568 179.01 382.988 175.95 376.148 171.79C373.558 174.24 371.928 177.71 371.928 181.55Z" fill="#9BA0AA"/>
<path d="M430.759 202.13H5.12891C3.33891 202.13 1.87891 200.67 1.87891 198.88C1.87891 197.09 3.32891 195.63 5.12891 195.63H430.759C432.549 195.63 434.009 197.08 434.009 198.88C434.009 200.68 432.559 202.13 430.759 202.13Z" fill="#9BA0AA"/>
<path d="M278.888 268.47H179.138C170.448 268.47 163.408 261.43 163.408 252.74V15.0796C163.408 6.38961 170.448 -0.650391 179.138 -0.650391H278.888C287.578 -0.650391 294.618 6.38961 294.618 15.0796V252.73C294.618 261.42 287.578 268.47 278.888 268.47Z" fill="#444953"/>
<path d="M179.138 263.46C173.218 263.46 168.408 258.65 168.408 252.73V15.0796C168.408 9.16961 173.218 4.34961 179.138 4.34961H278.888C284.808 4.34961 289.618 9.15961 289.618 15.0796V252.73C289.618 258.64 284.808 263.46 278.888 263.46H179.138Z" fill="#FAFFFF"/>
<path d="M253.319 10.9196H204.709C202.409 10.9196 200.539 9.04957 200.539 6.74957V1.05957H257.489V6.74957C257.489 9.04957 255.619 10.9196 253.319 10.9196Z" fill="#444953"/>
<path d="M228.758 177.88C253.108 177.88 272.838 158.14 272.838 133.8C272.838 109.45 253.098 89.7197 228.758 89.7197C204.408 89.7197 184.678 109.46 184.678 133.8C184.678 158.14 204.408 177.88 228.758 177.88Z" fill="#9BA0AA"/>
<path d="M255.978 106.57C249.008 99.6 239.388 95.29 228.758 95.29V133.79L255.978 106.57Z" fill="#FAFFFF"/>
<path d="M200.509 134.93H188.939C188.319 134.93 187.809 134.42 187.809 133.8C187.809 133.17 188.319 132.67 188.939 132.67H200.509C201.129 132.67 201.639 133.18 201.639 133.8C201.639 134.42 201.129 134.93 200.509 134.93Z" fill="#FAFFFF"/>
<path d="M267.557 134.93H255.987C255.367 134.93 254.857 134.42 254.857 133.8C254.857 133.17 255.367 132.67 255.987 132.67H267.557C268.177 132.67 268.687 133.18 268.687 133.8C268.687 134.42 268.177 134.93 267.557 134.93Z" fill="#FAFFFF"/>
<path d="M228.237 174.24C227.617 174.24 227.107 173.73 227.107 173.11V161.54C227.107 160.92 227.617 160.41 228.237 160.41C228.867 160.41 229.367 160.92 229.367 161.54V173.11C229.377 173.73 228.867 174.24 228.237 174.24Z" fill="#FAFFFF"/>
</g>
<defs>
<clipPath id="clip0_1818_3286">
<rect width="439" height="270" fill="white" transform="translate(0.210938)"/>
</clipPath>
</defs>
</svg>
