<svg width="349" height="166" viewBox="0 0 349 166" fill="none" xmlns="http://www.w3.org/2000/svg">
<g clip-path="url(#clip0_1818_759)">
<path d="M255.366 145.021H323.216V102.271H255.366V145.021Z" fill="#4C515B"/>
<path d="M69.7461 145.021H137.596V102.271H69.7461V145.021Z" fill="#4C515B"/>
<path d="M21.2261 75.0001L49.4361 61.3501L93.1761 8.04012C97.1761 3.18012 103.116 0.370117 109.386 0.370117H336.586C342.966 0.370117 348.116 5.53012 348.116 11.9001V134.47C348.116 140.29 343.386 145.02 337.566 145.02H318.486C318.686 143.62 318.786 142.17 318.786 140.72C318.786 123.88 305.136 110.22 288.286 110.22C271.436 110.22 257.786 123.87 257.786 140.72C257.786 142.19 257.896 143.62 258.086 145.02H133.856C134.056 143.62 134.156 142.17 134.156 140.72C134.156 123.88 120.506 110.22 103.656 110.22C86.8061 110.22 73.1561 123.87 73.1561 140.72C73.1561 142.19 73.2661 143.62 73.4561 145.02H17.1861C8.22605 145.02 0.956055 137.75 0.956055 128.79V107.32C0.956055 93.5601 8.83605 81.0001 21.2261 75.0001Z" fill="#C4C9D3"/>
<path d="M103.676 165.631C117.436 165.631 128.586 154.481 128.586 140.721C128.586 126.961 117.426 115.811 103.676 115.811C89.9156 115.811 78.7656 126.961 78.7656 140.721C78.7556 154.481 89.9156 165.631 103.676 165.631Z" fill="#9499A3"/>
<path d="M103.676 153.131C110.526 153.131 116.086 147.571 116.086 140.721C116.086 133.861 110.526 128.311 103.676 128.311C96.8156 128.311 91.2656 133.871 91.2656 140.721C91.2656 147.571 96.8156 153.131 103.676 153.131Z" fill="#7B808A"/>
<path d="M288.296 165.631C302.056 165.631 313.206 154.481 313.206 140.721C313.206 126.961 302.056 115.811 288.296 115.811C274.536 115.811 263.386 126.961 263.386 140.721C263.386 154.481 274.536 165.631 288.296 165.631Z" fill="#9499A3"/>
<path d="M288.296 153.131C295.156 153.131 300.706 147.571 300.706 140.721C300.706 133.861 295.146 128.311 288.296 128.311C281.436 128.311 275.886 133.871 275.886 140.721C275.886 147.571 281.446 153.131 288.296 153.131Z" fill="#7B808A"/>
<path d="M340.996 112.19H348.126V84.6201H340.996C338.076 84.6201 335.716 86.9801 335.716 89.9001V106.92C335.706 109.82 338.066 112.19 340.996 112.19Z" fill="#FAFFFF"/>
<path d="M175.616 72.6901H329.256C332.016 72.6901 334.236 70.4501 334.236 67.7101V17.7601C334.236 15.0001 331.996 12.7801 329.256 12.7801H175.616C172.856 12.7801 170.636 15.0201 170.636 17.7601V67.7101C170.626 70.4701 172.866 72.6901 175.616 72.6901Z" stroke="#E1E6F0" stroke-width="2.0169" stroke-miterlimit="10" stroke-linecap="round" stroke-linejoin="round"/>
<path d="M67.7061 69.0801L68.6061 70.6601C70.6161 74.1901 68.7861 78.6501 64.8761 79.7601L34.2861 88.4301" stroke="#E1E6F0" stroke-width="2.0169" stroke-miterlimit="10" stroke-linecap="round" stroke-linejoin="round"/>
<path d="M136.466 128.31H157.746V12.3701H117.196C113.326 12.3701 109.676 14.2101 107.386 17.3501L89.7061 41.4401V93.1301C89.7061 93.1301 125.776 87.8501 136.466 128.31Z" stroke="#E1E6F0" stroke-width="2.0169" stroke-miterlimit="10" stroke-linecap="round" stroke-linejoin="round"/>
<path d="M123.856 64.9698H148.606C150.416 64.9698 151.886 63.4998 151.886 61.6898V22.2898C151.886 20.4798 150.416 19.0098 148.606 19.0098H123.856C122.046 19.0098 120.576 20.4798 120.576 22.2898V61.6898C120.566 63.5098 122.036 64.9698 123.856 64.9698Z" fill="#DCE3EF"/>
<path d="M97.4959 64.9701H103.946C109.716 64.9701 114.366 60.3001 114.366 54.5501V23.2401C114.366 21.7701 112.536 21.0901 111.586 22.2001L92.2959 44.5001V59.7801C92.2959 62.6501 94.6259 64.9701 97.4959 64.9701Z" fill="#DCE3EF"/>
<path d="M150.886 75.8301H132.706" stroke="#E1E6F0" stroke-width="2.0169" stroke-miterlimit="10" stroke-linecap="round" stroke-linejoin="round"/>
<path d="M91.2766 79.5404H99.2866V44.9404H91.2766C87.9266 44.9404 85.2266 47.6404 85.2266 50.9904V73.4904C85.2266 76.8304 87.9266 79.5404 91.2766 79.5404Z" fill="#9BA0AA"/>
<path d="M97.3365 48.0701H99.2865V78.0701H97.3365C95.7265 78.0701 94.3965 76.7601 94.3965 75.1301V51.0001C94.3965 49.3701 95.7065 48.0701 97.3365 48.0701Z" fill="#FAFFFF"/>
<path d="M89.7059 41.4404L72.5059 63.7004C72.5059 63.7004 84.8659 71.7104 85.2259 83.8304" stroke="#E1E6F0" stroke-width="2.0169" stroke-miterlimit="10" stroke-linecap="round" stroke-linejoin="round"/>
<path d="M65.1465 57.7401L100.377 15.3101C101.347 14.1501 100.517 12.3701 98.9965 12.3701H89.2665L49.4365 61.3601H57.4465C60.4165 61.3601 63.2465 60.0301 65.1465 57.7401Z" fill="#DCE3EF"/>
<path d="M73.4761 145.02H17.1861C8.22605 145.02 0.956055 137.75 0.956055 128.79V120.39H69.5361C72.8161 120.39 75.926 121.64 78.2961 123.83C75.076 128.67 73.1961 134.47 73.1961 140.74C73.1761 142.19 73.2761 143.62 73.4761 145.02Z" fill="#9BA0AA"/>
<path d="M257.816 140.72C257.816 142.19 257.926 143.62 258.116 145.02H133.856C134.056 143.62 134.156 142.17 134.156 140.72C134.156 138.79 133.956 136.89 133.616 135.04H258.326C257.996 136.88 257.816 138.78 257.816 140.72Z" fill="#9BA0AA"/>
<path d="M348.116 120.39V134.47C348.116 140.29 343.386 145.02 337.566 145.02H318.486C318.686 143.62 318.786 142.17 318.786 140.72C318.786 133.68 316.406 127.22 312.396 122.06C314.546 121 316.966 120.39 319.506 120.39H348.116Z" fill="#9BA0AA"/>
<path d="M28.7161 94.3505V106.4C28.7161 107.98 27.4461 109.27 25.8461 109.27H0.956055V107.35C0.956055 103.98 1.43605 100.67 2.33605 97.5305L24.8461 91.4005C26.8061 90.8505 28.7161 92.3205 28.7161 94.3505Z" fill="#FAFFFF"/>
<path d="M11.1655 109.251C13.1355 109.251 14.7255 106.121 14.7255 102.261C14.7255 98.4005 13.1255 95.2705 11.1655 95.2705C9.19552 95.2705 7.60552 98.4005 7.60552 102.261C7.59552 106.121 9.19552 109.251 11.1655 109.251Z" fill="#777C86"/>
<path d="M5.30562 109.25C6.57562 109.25 7.59562 107.24 7.59562 104.76C7.59562 102.28 6.56562 100.26 5.30562 100.26C4.03562 100.26 3.01562 102.27 3.01562 104.76C3.01563 107.24 4.04562 109.25 5.30562 109.25Z" fill="#777C86"/>
<path d="M335.716 104.85H348.126V100.3H335.716V104.85Z" fill="#777C86"/>
</g>
<defs>
<clipPath id="clip0_1818_759">
<rect width="347.17" height="165.26" fill="white" transform="translate(0.956055 0.370117)"/>
</clipPath>
</defs>
</svg>
